<?xml version="1.0" standalone="no"?>
<!DOCTYPE svg PUBLIC "-//W3C//DTD SVG 1.1//EN" "http://www.w3.org/Graphics/SVG/1.1/DTD/svg11.dtd">
<svg xmlns="http://www.w3.org/2000/svg"><metadata>This SVG WebFont was generated by YouWorkForThem.
Copyright Â© 2019 by TypeUnion. All rights reserved.</metadata><defs><font horiz-adv-x="0" id="ywftsvg"><font-face ascent="1638" bbox="-743 -556 2692.12 2021" cap-height="1434" descent="-410" font-family="" font-stretch="normal" font-weight="400" panose-1="0 0 5 0 0 0 0 0 0 0" underline-position="0" underline-thickness="0" unicode-range="U+0020-FB02" units-per-em="2048" x-height="1108"/><missing-glyph d="M311 1434h963l-202 -1434h-961zM940 136l164 1161h-660l-163 -1161h659z" horiz-adv-x="1338"/><glyph d="M1396 1108l-156 -1108h-194l136 970h-619l-136 -970h-195l137 970h-174l18 138h175l28 200q14 98 77 163t149 65h278l-19 -131h-162q-54 0 -90 -39.5t-45 -108.5l-21 -149h813zM1223 1434h242l-20 -145h-243z" glyph-name="uniFB01" horiz-adv-x="1505" unicode="fi"/><glyph d="M1442 1536l-216 -1536h-195l198 1405h-490q-54 0 -90 -39.5t-45 -108.5l-21 -149h276l-18 -138h-278l-136 -970h-195l137 970h-174l18 138h175l28 200q14 98 77 163t149 65h800z" glyph-name="uniFB02" horiz-adv-x="1475" unicode="fl"/><glyph d="M1629 1405q-54 0 -90.5 -39.5t-45.5 -108.5l-20 -149h276l-19 -138h-277l-136 -970h-195l136 970h-695l-136 -970h-195l137 970h-174l18 138h175l28 200q14 98 77 163t149 65h278l-19 -131h-162q-54 0 -90 -39.5t-45 -108.5l-21 -149h695l28 200q13 98 76.5 163t149.5 65 h277l-18 -131h-162z" glyph-name="f_f.liga" horiz-adv-x="1843" unicode="ff"/><glyph d="M2304 1108l-156 -1108h-194l136 970h-637l-136 -970h-195l136 970h-695l-136 -970h-195l137 970h-174l18 138h175l28 200q14 98 77 163t149 65h278l-19 -131h-162q-54 0 -90 -39.5t-45 -108.5l-21 -149h695l28 200q13 98 76.5 163t149.5 65h277l-18 -131h-162 q-54 0 -90.5 -39.5t-45.5 -108.5l-20 -149h831zM2131 1434h242l-21 -145h-242z" glyph-name="f_f_i.liga" horiz-adv-x="2413" unicode="ffi"/><glyph d="M311 1434h963l-202 -1434h-961zM940 136l164 1161h-660l-163 -1161h659z" glyph-name=".notdef" horiz-adv-x="1338"/><glyph glyph-name="glyph1"/><glyph glyph-name="glyph2" horiz-adv-x="681"/><glyph glyph-name="space" horiz-adv-x="474" unicode=" "/><glyph d="M202 326l133 1108h194l-177 -1108h-150zM111 0l19 144h243l-21 -144h-241z" glyph-name="exclam" horiz-adv-x="617" unicode="!"/><glyph d="M377 1498h175l-156 -503h-146zM654 1498h176l-155 -503h-147z" glyph-name="quotedbl" horiz-adv-x="885" unicode="&quot;"/><glyph d="M1226 929l-166 -423h256l-48 -135h-256l-145 -371h-202l144 371h-354l-145 -371h-202l144 371h-239l48 135h239l166 423h-255l47 134h255l144 371h203l-143 -371h354l143 371h203l-144 -371h238l-47 -134h-238zM1023 929h-353l-167 -423h354z" glyph-name="numbersign" horiz-adv-x="1482" unicode="#"/><glyph d="M783 777q104 -32 175 -65.5t125 -82t73.5 -116.5t3.5 -156q-18 -103 -99.5 -183t-191.5 -123.5t-240 -57.5l-23 -161h-101l22 155h-8q-276 0 -446 117l25 172q185 -136 443 -136q94 0 185 28t157 82.5t78 123.5q5 34 -2.5 63t-21 50.5t-42 42t-54.5 34t-70 29.5t-75.5 26 t-85.5 25.5t-88 27.5q-87 30 -149 63.5t-108 79.5t-63 107.5t-3 138.5q28 162 168 266t365 119l22 156h101l-22 -155q198 -6 344 -97l-25 -169q-169 115 -373 113q-155 0 -256.5 -66t-121.5 -177q-20 -109 106 -177q63 -34 244 -87q20 -6 32 -10z" glyph-name="dollar" horiz-adv-x="1313" unicode="$"/><glyph d="M873 1006q-31 -216 -136 -327.5t-263 -111.5q-157 0 -231 111.5t-43 327.5q30 215 135 326.5t263 111.5q157 0 231 -111.5t44 -326.5zM1403 1434h109l-966 -1434h-109zM487 668q103 0 169 88t89 250q23 161 -18.5 249t-143 88t-167.5 -88.5t-88 -248.5 q-24 -162 16.5 -250t142.5 -88zM1742 430q-30 -216 -136 -327t-263 -111q-158 0 -232 111t-43 327q30 215 136 326.5t262.5 111.5t231 -111.5t44.5 -326.5zM1356.5 92q102.5 0 168.5 88t89 250q23 161 -19 249.5t-143 88.5t-167 -88.5t-89 -249.5q-23 -162 17.5 -250 t143 -88z" glyph-name="percent" horiz-adv-x="1895" unicode="%"/><glyph d="M1408 835l-19 -140h-113l-41 -294q-14 -105 -74 -187t-148 -130t-189 -72.5t-209 -24.5q-84 0 -161 14.5t-144.5 47.5t-115.5 80t-70 117t-9 155q12 93 64.5 170t124 124t159.5 76q-90 42 -140 120.5t-34 187.5q12 89 61.5 161t123.5 116t162.5 67t185 23t178 -23 t143 -67t91 -116t16.5 -161l-175 -7q16 112 -61 174t-213 62q-135 0 -229.5 -62t-110 -173.5t65.5 -174.5t208 -63h673zM1040 409l40 286h-364q-97 0 -183.5 -32t-147 -98.5t-74.5 -155.5q-13 -92 30 -158t120 -96t174 -30q98 0 183 30t147 96t75 158z" glyph-name="ampersand" horiz-adv-x="1504" unicode="&amp;"/><glyph d="M377 1498h175l-156 -503h-146z" glyph-name="quotesingle" horiz-adv-x="607" unicode="'"/><glyph d="M262 -470q-148 505 -74 1027t363 1021h180q-274 -486 -347.5 -1018.5t58.5 -1029.5h-180z" glyph-name="parenleft" horiz-adv-x="774" unicode="("/><glyph d="M225 -470h-180q272 505 347.5 1029t-60.5 1019h180q150 -497 76.5 -1021t-363.5 -1027z" glyph-name="parenright" horiz-adv-x="775" unicode=")"/><glyph d="M837 1179l-238 -93l127 -191l-92 -67l-126 191l-179 -191l-75 67l181 191l-212 93l50 97l205 -89l35 247h105l-33 -247l228 89z" glyph-name="asterisk" horiz-adv-x="884" unicode="*"/><glyph d="M1115 786l-20 -139h-350l-51 -364h-194l51 364h-350l19 139h350l52 365h194l-51 -365h350z" glyph-name="plus" horiz-adv-x="1269" unicode="+"/><glyph d="M168 176h201l-172 -500h-170z" glyph-name="comma" horiz-adv-x="609" unicode=","/><glyph d="M199 631h484l-21 -154h-485z" glyph-name="hyphen" horiz-adv-x="860" unicode="-"/><glyph d="M138 195h242l-28 -195h-241z" glyph-name="period" horiz-adv-x="617" unicode="."/><glyph d="M868 1434l-654 -1434h-199l655 1434h198z" glyph-name="slash" horiz-adv-x="838" unicode="/"/><glyph d="M1273 717q-50 -360 -227 -545.5t-439 -185.5q-261 0 -384.5 185t-72.5 546q50 357 226 544t438 187q261 0 385 -187t74 -544zM629 135q178 0 291.5 151.5t153.5 430.5q39 278 -33 429.5t-248.5 151.5t-291 -152t-153.5 -429q-40 -279 32 -430.5t249 -151.5z" glyph-name="zero" horiz-adv-x="1376" unicode="0"/><glyph d="M681 154h354l-21 -154h-903l20 154h355l157 1110q-161 -84 -305 -121l23 170q153 35 304 121h195z" glyph-name="one" horiz-adv-x="1280" unicode="1"/><glyph d="M1175 154l-22 -154h-1104l21 154q56 40 153.5 106t165.5 112.5t160 112.5t156.5 116t134.5 112t114.5 112.5t76.5 103.5t38 99q16 120 -62.5 193t-239.5 73q-224 2 -425 -128l-58 129q248 153 512 153q255 0 381.5 -106t101.5 -281q-10 -69 -46.5 -140.5t-100 -143 t-128 -133.5t-160 -136t-163.5 -123t-171 -122.5t-153 -108.5h818z" glyph-name="two" horiz-adv-x="1357" unicode="2"/><glyph d="M301 1434h993l-21 -154l-591 -467q88 8 173 -1q185 -20 280 -125t70 -278q-31 -207 -191 -316t-421 -107q-162 2 -288.5 37t-236.5 114l103 135q74 -62 197.5 -98.5t244.5 -34.5q173 1 276 71t122.5 201t-71.5 211t-259 80q-144 0 -251 -38l-34 132l647 484h-763z" glyph-name="three" horiz-adv-x="1351" unicode="3"/><glyph d="M1353 521l-22 -153h-261l-51 -368h-195l52 368h-714l21 153l813 913h224l-128 -913h261zM371 521h526l101 717z" glyph-name="four" horiz-adv-x="1545" unicode="4"/><glyph d="M377 1434h885l-22 -154h-714l-94 -434q195 38 395 22q198 -17 303.5 -131t77.5 -304q-33 -224 -192.5 -336.5t-422.5 -110.5q-162 2 -288.5 37t-236.5 114l103 135q74 -62 197.5 -98t244.5 -35q175 1 277.5 75t124.5 221q20 139 -89.5 224t-284.5 85q-170 0 -362 -38 l-41 50z" glyph-name="five" horiz-adv-x="1351" unicode="5"/><glyph d="M1275 478q-13 -98 -58.5 -181t-110 -139.5t-144.5 -95.5t-164.5 -57t-170.5 -18t-165.5 18t-149 57t-118.5 95.5t-71 139.5t-7 181q5 39 11.5 67.5t23 63.5t31.5 60.5t50.5 71.5t67 81.5t96 106t120 130t157 168t191.5 207.5h234l-490 -527q143 54 285 41q87 -7 161 -41 t130 -90.5t81 -144.5t10 -194zM646 122q103 0 195.5 41t158 123.5t80.5 191.5q24 166 -75 260.5t-260 94.5q-159 0 -286 -98.5t-149 -256.5q-23 -164 75.5 -260t260.5 -96z" glyph-name="six" horiz-adv-x="1412" unicode="6"/><glyph d="M250 1434h975l-21 -154q-530 -569 -734 -1280h-203q208 727 722 1280h-761z" glyph-name="seven" horiz-adv-x="1227" unicode="7"/><glyph d="M1226 401q-14 -105 -74 -187t-148.5 -130t-189 -72.5t-208.5 -24.5q-84 0 -161 14.5t-145 47.5t-115.5 80t-69.5 117t-10 155q12 93 65 170t124.5 124t159.5 76q-90 42 -140 120.5t-34 187.5q12 89 61.5 161t123.5 116t162.5 67t184.5 23t178 -23t143.5 -67t90.5 -116 t17 -161q-14 -110 -86 -188t-174 -120q124 -44 193.5 -138.5t51.5 -231.5zM452.5 1072.5q-15.5 -111.5 65.5 -174.5t208 -63t226 63t114 174q16 112 -61 174t-213 62q-135 0 -229.5 -62t-110 -173.5zM626 125q98 0 183 30t147 95.5t75 158.5q18 132 -77.5 209t-246.5 77 q-97 0 -183.5 -32t-147.5 -98.5t-74 -155.5q-13 -92 30 -158t120 -96t174 -30z" glyph-name="eight" horiz-adv-x="1373" unicode="8"/><glyph d="M183 956q17 123 81.5 220t156.5 155t197 87.5t213.5 29.5t205.5 -29.5t172.5 -87.5t113 -155t19.5 -220q-5 -39 -11.5 -67.5t-23 -63t-31 -60.5t-50.5 -72t-67.5 -81t-96 -106t-120 -130.5t-157 -168t-191.5 -206.5h-234l489 526q-142 -54 -284 -41q-87 8 -161 41.5 t-130 90.5t-81 144.5t-10 193.5zM812 1313q-103 0 -195.5 -41t-158 -123.5t-80.5 -192.5q-24 -166 75 -260t260 -94q102 0 195 42.5t159 124.5t81 187q14 110 -28.5 192.5t-123 123.5t-184.5 41z" glyph-name="nine" horiz-adv-x="1412" unicode="9"/><glyph d="M265 1108h243l-28 -195h-242zM138 195h242l-28 -195h-241z" glyph-name="colon" horiz-adv-x="617" unicode=":"/><glyph d="M265 1108h243l-28 -195h-242zM157 176h200l-172 -500h-170z" glyph-name="semicolon" horiz-adv-x="617" unicode=";"/><glyph d="M1161 1041l-23 -169l-776 -210l716 -211l-23 -169l-870 256l12 78l23 169z" glyph-name="less" horiz-adv-x="1281" unicode="&lt;"/><glyph d="M1120 830h-894l21 139h894zM1069 465h-894l20 138h894z" glyph-name="equal" horiz-adv-x="1269" unicode="="/><glyph d="M1125 785l-11 -78l-23 -169l-941 -256l23 169l775 211l-716 210l24 169z" glyph-name="greater" horiz-adv-x="1280" unicode=">"/><glyph d="M629 1434q240 2 368 -108.5t102 -314.5q-24 -173 -135.5 -278t-280.5 -125q-36 -7 -136 -12l-39 -262h-173l42 397q62 -13 162 -13q150 0 249.5 80t116.5 211q17 129 -65 200.5t-235 71.5q-102 1 -207 -26t-183 -71l25 174q171 75 389 76zM255 0l20 144h242l-20 -144 h-242z" glyph-name="question" horiz-adv-x="1161" unicode="?"/><glyph d="M1240 -76q-180 -76 -384 -76q-176 0 -321.5 62t-239.5 169.5t-136 258.5t-18 325q24 167 107.5 315.5t207 257.5t286 172t337.5 63q230 0 405 -102.5t257 -282t51 -396.5q-32 -227 -136.5 -348t-259.5 -121q-106 0 -167 56.5t-60 158.5q-54 -86 -142.5 -128t-180.5 -42 q-75 0 -137.5 23.5t-108.5 70t-65.5 124t-5.5 178.5q13 100 55 177t100.5 124.5t128 71t144.5 23.5q91 0 167.5 -43t107.5 -128l29 161h124l-76 -550q-10 -73 26.5 -112.5t96.5 -39.5q88 0 152 86t87 255q19 141 -15.5 265t-114 214t-204.5 142t-277 52q-198 0 -371.5 -91.5 t-286 -251.5t-139.5 -354q-22 -152 14 -284.5t117.5 -225.5t205 -145.5t271.5 -52.5q175 0 349 69zM1168 612l15 100q3 119 -59 179.5t-156 60.5q-109 0 -189.5 -77t-99.5 -213q-19 -137 40 -213.5t167 -76.5q62 0 116.5 22.5t100.5 78.5t65 139z" glyph-name="at" horiz-adv-x="1899" unicode="@"/><glyph d="M1145 0l-77 322h-719l-167 -322h-221l760 1434h287l358 -1434h-221zM428 474h604l-189 800z" glyph-name="A" horiz-adv-x="1482" unicode="A"/><glyph d="M311 1434h674q77 0 142 -23t112.5 -67.5t69 -116t8.5 -161.5q-15 -115 -77 -200t-148 -121q108 -32 161.5 -122.5t31.5 -234.5q-13 -97 -58.5 -173t-111.5 -122t-144.5 -69.5t-163.5 -23.5h-696zM502 1293l-72 -506h393q74 0 132.5 23.5t103 81t56.5 147.5 q18 132 -43 193t-177 61h-393zM781 136q75 0 135 25t104 85t57 149q18 132 -44.5 194t-178.5 62h-443l-72 -513z" glyph-name="B" horiz-adv-x="1435" unicode="B"/><glyph d="M1310 1198q-162 94 -355 86q-102 -4 -197 -41t-178.5 -104t-142 -176t-78.5 -246q-16 -114 0.5 -204t55.5 -156.5t99 -111.5t131 -68.5t151 -26.5q190 -8 379 86l-24 -170q-178 -80 -378 -80q-111 0 -211.5 28.5t-185 89t-142 145.5t-81 205.5t-3.5 262.5 q20 141 77.5 262t138.5 206t182.5 145.5t210.5 89t220 28.5q199 0 355 -80z" glyph-name="C" horiz-adv-x="1406" unicode="C"/><glyph d="M1462 717q-25 -179 -99.5 -319t-183.5 -225.5t-240.5 -129t-280.5 -43.5h-547l200 1434h548q150 0 269.5 -44t204 -131t119.5 -225.5t10 -316.5zM660 154q229 0 391.5 148.5t200.5 414.5q18 134 -5 241.5t-82 177t-147 107t-199 37.5h-319l-159 -1126h319z" glyph-name="D" horiz-adv-x="1565" unicode="D"/><glyph d="M341 154h828l-20 -154h-1038l200 1434h1039l-22 -154h-828l-69 -486h744l-22 -154h-743z" glyph-name="E" horiz-adv-x="1414" unicode="E"/><glyph d="M319 0h-208l200 1434h998l-22 -154h-787l-69 -486h706l-22 -154h-705z" glyph-name="F" horiz-adv-x="1373" unicode="F"/><glyph d="M868 796h492l-95 -681q-239 -129 -493 -129q-111 0 -211.5 28.5t-185 89t-142 145.5t-81 205.5t-2.5 262.5q25 176 106.5 318.5t196.5 230.5t250 135t275 47q199 0 355 -80l-22 -160q-162 94 -356 86q-80 -2 -158 -25.5t-150.5 -71t-130.5 -114.5t-99.5 -161.5 t-57.5 -204.5q-16 -114 -0.5 -205.5t55 -160t98 -115.5t130.5 -71t152 -26q75 -1 163.5 23t143.5 59l60 432h-313z" glyph-name="G" horiz-adv-x="1513" unicode="G"/><glyph d="M1267 1434h209l-201 -1434h-210l90 640h-745l-91 -640h-208l200 1434h210l-90 -640h746z" glyph-name="H" horiz-adv-x="1540" unicode="H"/><glyph d="M319 0h-208l200 1434h210z" glyph-name="I" horiz-adv-x="584" unicode="I"/><glyph d="M135 181q117 -45 238 -38q255 8 296 317l137 974h210l-137 -977q-34 -243 -163.5 -357t-350.5 -114q-146 0 -252 33z" glyph-name="J" horiz-adv-x="1080" unicode="J"/><glyph d="M1413 1434l-770 -706l568 -728h-238l-554 708l-100 -708h-208l200 1434h210l-96 -686l749 686h239z" glyph-name="K" horiz-adv-x="1354" unicode="K"/><glyph d="M521 1434l-180 -1280h784l-21 -154h-993l200 1434h210z" glyph-name="L" horiz-adv-x="1316" unicode="L"/><glyph d="M1568 1434h297l-202 -1434h-209l165 1175l-609 -1001h-197l-328 1001l-166 -1175h-208l200 1434h296l337 -1028z" glyph-name="M" horiz-adv-x="1929" unicode="M"/><glyph d="M1326 1434h209l-201 -1434h-219l-637 1130l-159 -1130h-208l200 1434h219l638 -1124z" glyph-name="N" horiz-adv-x="1599" unicode="N"/><glyph d="M1601 717q-20 -143 -78 -264t-139.5 -206t-183 -145t-210 -88t-219.5 -28t-210.5 28t-184 88t-142 145t-81.5 205.5t-3 264.5q25 176 106.5 318.5t196.5 230.5t250 135t275 47q111 0 211.5 -28.5t184.5 -89t141.5 -145.5t81 -206t4.5 -262zM794 139q101 0 198.5 38 t179.5 108t140.5 182.5t78 249.5t-8 249t-90.5 183t-149.5 108t-187 37t-197 -37t-179 -108t-141.5 -183t-79 -249q-16 -114 -1 -205.5t54 -161t97.5 -117t131 -71t153.5 -23.5z" glyph-name="O" horiz-adv-x="1703" unicode="O"/><glyph d="M919 1434q231 0 352 -117t91 -325q-34 -254 -263 -365t-708 -116l-72 -511h-208l200 1434h608zM1152 992q19 139 -53 217.5t-212 78.5h-386l-89 -632q253 2 409.5 37.5t235.5 107.5t95 191z" glyph-name="P" horiz-adv-x="1426" unicode="P"/><glyph d="M978 1448q111 0 211.5 -28.5t184.5 -89t141.5 -145.5t81 -206t4.5 -262q-22 -157 -88.5 -286.5t-162.5 -217t-208.5 -142.5t-236.5 -74q78 -161 259 -244l-110 -115q-108 43 -195 137.5t-131 211.5q-105 5 -199 36.5t-172 92.5t-131 144.5t-74.5 201.5t-1.5 255 q25 176 106.5 318.5t196.5 230.5t250 135t275 47zM1390.5 717q19.5 137 -8 249t-90.5 183t-149.5 108t-187 37t-197 -37t-179 -108t-141.5 -183t-79 -249q-16 -114 -1 -205.5t54 -161t97.5 -117t131 -71t153.5 -23.5q101 0 198.5 38t179.5 108t140.5 182.5t78 249.5z" glyph-name="Q" horiz-adv-x="1703" unicode="Q"/><glyph d="M1362 992q-20 -156 -112.5 -256t-265.5 -153l271 -583h-214l-251 539q-160 -25 -399 -28l-72 -511h-208l200 1434h608q231 0 352 -117t91 -325zM1152 992q19 139 -53 217.5t-212 78.5h-386l-89 -632q378 3 546.5 80.5t193.5 255.5z" glyph-name="R" horiz-adv-x="1460" unicode="R"/><glyph d="M98 276q185 -136 443 -136q94 0 185 28t157 82.5t78 123.5q5 34 -2.5 63t-21 50.5t-42 42t-54.5 34t-70 29.5t-75.5 26t-85.5 25.5t-88 27.5q-87 30 -149 63.5t-108 79.5t-63 107.5t-3 138.5q30 175 189 281t414 106q216 0 375 -98l-25 -169q-169 115 -373 113 q-155 0 -256.5 -66t-121.5 -177q-20 -109 106 -177q63 -34 244 -87q20 -6 32 -10q104 -32 175 -65.5t125 -82t73.5 -116.5t3.5 -156q-16 -89 -78.5 -161.5t-152.5 -117t-195.5 -68t-214.5 -23.5q-276 0 -446 117z" glyph-name="S" horiz-adv-x="1313" unicode="S"/><glyph d="M1233 1434l-22 -154h-429l-179 -1280h-210l180 1280h-429l22 154h1067z" glyph-name="T" horiz-adv-x="1152" unicode="T"/><glyph d="M1442 1434l-123 -871q-42 -306 -198.5 -441.5t-447.5 -135.5q-290 0 -408.5 135.5t-76.5 441.5l123 871h210l-127 -905q-28 -201 42.5 -295.5t258 -94.5t285 95t125.5 295l127 905h210z" glyph-name="U" horiz-adv-x="1506" unicode="U"/><glyph d="M1305 1434h221l-738 -1434h-287l-335 1434h221l282 -1265z" glyph-name="V" horiz-adv-x="1444" unicode="V"/><glyph d="M1883 1434h219l-607 -1434h-228l-169 1177l-499 -1177h-228l-205 1434h219l146 -1162l484 1162h238l158 -1162z" glyph-name="W" horiz-adv-x="2021" unicode="W"/><glyph d="M1493 1434l-605 -711l419 -723h-235l-345 588l-505 -588h-234l622 723l-405 711h231l334 -573l491 573h232z" glyph-name="X" horiz-adv-x="1449" unicode="X"/><glyph d="M1187 1434h223l-640 -874l-78 -560h-210l79 560l-395 874h224l303 -674z" glyph-name="Y" horiz-adv-x="1329" unicode="Y"/><glyph d="M1384 1434l-21 -154l-972 -1126h813l-21 -154h-1072l20 154l968 1126h-809l21 154h1073z" glyph-name="Z" horiz-adv-x="1448" unicode="Z"/><glyph d="M325 1526h529l-18 -138h-336l-235 -1669h335l-18 -138h-531z" glyph-name="bracketleft" horiz-adv-x="905" unicode="["/><glyph d="M216 1434h199l253 -1434h-199z" glyph-name="backslash" horiz-adv-x="838" unicode="\"/><glyph d="M854 1526l-272 -1945h-531l20 138h335l235 1669h-336l20 138h529z" glyph-name="bracketright" horiz-adv-x="905" unicode="]"/><glyph d="M802 858h-123l-95 481l-230 -481h-123l275 576h182z" glyph-name="asciicircum" horiz-adv-x="946" unicode="^"/><glyph d="M84 -186h1434l-20 -139h-1433z" glyph-name="underscore" horiz-adv-x="1809" unicode="_"/><glyph d="M328 1549h189l190 -307h-156z" glyph-name="grave" horiz-adv-x="797" unicode="`"/><glyph d="M752 1121q253 0 358 -103t74 -328l-98 -690h-186l13 155q-81 -72 -206 -121.5t-291 -47.5q-172 3 -254 79.5t-67 204.5q24 229 246.5 330t643.5 66l6 42q15 140 -48.5 201.5t-231.5 67.5q-188 6 -371 -80l20 143q174 81 392 81zM933 294l33 230q-333 30 -499.5 -20.5 t-187.5 -201.5q-13 -97 50.5 -134.5t205.5 -35.5q126 1 231.5 50t166.5 112z" glyph-name="a" horiz-adv-x="1336" unicode="a"/><glyph d="M1307 554q-20 -145 -80 -257t-145 -178.5t-183 -99.5t-206 -33q-66 0 -120.5 9t-108.5 32t-98 67.5t-73 108.5l-37 -203h-161l216 1536h195l-88 -622q150 207 435 207q109 0 198 -34.5t154.5 -102.5t93 -178.5t8.5 -251.5zM689 121q160 0 282.5 113.5t150.5 319.5 q29 205 -60.5 321t-250.5 116q-140 0 -260 -95.5t-163 -267.5l-18 -133q-5 -95 18.5 -169t69.5 -117.5t104 -65.5t127 -22z" glyph-name="b" horiz-adv-x="1441" unicode="b"/><glyph d="M1104 899q-129 77 -310 71q-82 -3 -157.5 -29.5t-140 -76t-108.5 -129.5t-58.5 -181t7.5 -181t72.5 -129.5t118.5 -76t149 -29.5q177 -6 330 70l-22 -156q-154 -67 -350 -66q-86 0 -165.5 21t-148 67t-115.5 111t-67 160t-4 209q15 113 62.5 208t113 160t147 111 t166.5 67t171 21q199 0 331 -66z" glyph-name="c" horiz-adv-x="1190" unicode="c"/><glyph d="M135 554q19 141 78 251.5t143.5 178.5t184 102.5t208.5 34.5q287 0 375 -207l88 622h195l-216 -1536h-161l21 203q-47 -63 -103.5 -108t-117.5 -68t-118.5 -32t-122.5 -9q-85 0 -159.5 20.5t-137 64t-102 110.5t-56.5 160t1 213zM632 121q69 0 133 22t122 65.5t102.5 117 t66.5 169.5l18 133q6 172 -87 267.5t-233 95.5q-160 0 -283 -116t-152 -321q-29 -206 62 -319.5t251 -113.5z" glyph-name="d" horiz-adv-x="1440" unicode="d"/><glyph d="M1212 499h-895q-4 -99 31.5 -174.5t98 -119t136.5 -65t159 -21.5q174 -1 323 71l-19 -138q-155 -67 -371 -66q-90 0 -174.5 20.5t-159 65.5t-125.5 110t-74 161t-7 211q15 113 60 208t107.5 160t140 111t159.5 67t166 21q168 0 287 -75.5t163.5 -213.5t-6.5 -333z M761 988q-143 -2 -259.5 -93.5t-161.5 -255.5h728q18 87 -1 156.5t-66.5 110.5t-108.5 62t-131 20z" glyph-name="e" horiz-adv-x="1361" unicode="e"/><glyph d="M920 1536l-19 -131h-162q-54 0 -90 -39.5t-45 -108.5l-21 -149h276l-18 -138h-278l-136 -970h-195l137 970h-174l18 138h175l28 200q14 98 77 163t149 65h278z" glyph-name="f" horiz-adv-x="954" unicode="f"/><glyph d="M1153 1108h193l-141 -1000q-19 -136 -80 -241t-150.5 -167t-195.5 -93t-226 -31q-200 0 -335 67l21 148q128 -74 315 -70q85 2 157.5 22t135 60.5t104.5 111t56 164.5l17 127q-80 -113 -187 -155.5t-245 -42.5q-108 0 -198 34.5t-155 101.5t-93 175.5t-9 245.5 q15 114 56 207t98.5 157t130 108t149.5 64t159 20q296 0 394 -207zM322 565q-29 -202 61 -314t251 -112q68 0 135.5 22t127 63.5t102.5 111.5t56 157l17 130q4 96 -20 168t-70 113.5t-103.5 62t-125.5 20.5q-104 0 -193.5 -45.5t-154.5 -143t-83 -233.5z" glyph-name="g" horiz-adv-x="1440" unicode="g"/><glyph d="M289 0h-194l216 1536h195l-87 -621q104 120 226.5 163t279.5 43q179 0 271 -111t60 -339l-94 -671h-194l88 627q49 353 -236 353q-63 0 -130.5 -23t-130.5 -66t-113 -115.5t-70 -162.5z" glyph-name="h" horiz-adv-x="1412" unicode="h"/><glyph d="M288 1434h241l-20 -145h-242zM265 1108h195l-155 -1108h-194z" glyph-name="i" horiz-adv-x="570" unicode="i"/><glyph d="M288 1434h241l-20 -145h-242zM460 1108l-158 -1122q-20 -142 -99.5 -199.5t-210.5 -56.5q-81 0 -135 25l17 89q63 -12 111 -2q63 4 88 41t38 117l154 1108h195z" glyph-name="j" horiz-adv-x="570" unicode="j"/><glyph d="M1246 1108l-571 -473l416 -635h-208l-339 527l-204 -169l-50 -358h-195l216 1536h195l-136 -969l663 541h213z" glyph-name="k" horiz-adv-x="1261" unicode="k"/><glyph d="M311 1536h195l-216 -1536h-195z" glyph-name="l" horiz-adv-x="540" unicode="l"/><glyph d="M1709 1121q193 0 277 -116t47 -378l-88 -627h-195l88 627q26 185 -32.5 269t-190.5 84q-69 0 -135 -24t-124 -70t-99.5 -123t-56.5 -174v1l-83 -590h-194l88 627q26 185 -32.5 269t-191.5 84q-142 0 -255.5 -99.5t-158.5 -291.5l-84 -589h-194l156 1108h194l-26 -193 q99 122 205.5 164t257.5 42q284 0 326 -248q47 85 129.5 142.5t175.5 81.5t196 24z" glyph-name="m" horiz-adv-x="2194" unicode="m"/><glyph d="M289 0h-194l156 1108h194l-26 -193q104 120 226.5 163t279.5 43q179 0 271 -111t60 -339l-94 -671h-194l88 627q49 353 -236 353q-63 0 -130.5 -23t-130.5 -66t-113 -115.5t-70 -162.5z" glyph-name="n" horiz-adv-x="1412" unicode="n"/><glyph d="M1295 554q-16 -116 -63 -212t-112.5 -161t-147.5 -110t-166.5 -65t-170.5 -20t-164.5 20t-147.5 65t-116 110t-67.5 161t-4.5 212q16 113 63 208t112.5 160t147 111t166.5 67t171 21t165 -21t148 -67t116 -111t66.5 -160t4.5 -208zM654 121q104 0 197 47.5t161.5 148 t88.5 237.5q28 202 -67.5 317.5t-257.5 115.5q-78 0 -151 -28.5t-134 -82.5t-104 -137.5t-57 -184.5q-14 -103 5.5 -187t65.5 -137t111 -81t142 -28z" glyph-name="o" horiz-adv-x="1430" unicode="o"/><glyph d="M1307 554q-19 -141 -78.5 -252t-144 -178.5t-183.5 -102t-208 -34.5q-287 0 -376 207l-88 -622h-194l216 1536h161l-21 -203q47 63 103.5 108t117.5 68t118 32t123 9q85 0 159 -20.5t136.5 -64t102.5 -110.5t57 -160t-1 -213zM810 987q-69 0 -133.5 -22t-122 -65.5 t-102 -117t-66.5 -169.5l-18 -133q-6 -172 87 -267.5t233 -95.5q160 0 283 116t151 321q29 206 -61.5 319.5t-250.5 113.5z" glyph-name="p" horiz-adv-x="1441" unicode="p"/><glyph d="M135 554q20 145 79.5 257t144.5 178.5t183.5 99.5t206.5 33q66 0 120.5 -9t108.5 -32t98 -67.5t73 -108.5l37 203h161l-217 -1536h-194l88 622q-150 -207 -435 -207q-109 0 -198 34.5t-154.5 102t-93 178.5t-8.5 252zM753 987q-160 0 -282.5 -113.5t-151.5 -319.5 q-29 -205 61 -321t251 -116q140 0 260 95.5t163 267.5l18 133q5 95 -18.5 169t-69.5 117.5t-104 65.5t-127 22z" glyph-name="q" horiz-adv-x="1440" unicode="q"/><glyph d="M289 0h-194l156 1108h190l-26 -193q105 116 225 161t265 45l-19 -140q-72 3 -151.5 -20.5t-152 -68t-129.5 -118t-77 -161.5z" glyph-name="r" horiz-adv-x="910" unicode="r"/><glyph d="M102 219q148 -84 362 -90q119 -4 210 37t106 118q5 30 0.5 53.5t-24 42.5t-39.5 32.5t-60 28t-69 23.5t-83 23q-15 4 -23 7q-172 45 -249.5 125t-59.5 204q22 142 158 220t345 78q213 0 340 -77l-22 -155q-134 86 -321 90q-129 3 -209.5 -35t-93.5 -122q-6 -40 10.5 -71 t61 -56.5t95.5 -44t135 -43.5q89 -26 144.5 -50.5t98 -60.5t57.5 -86t5 -117q-14 -94 -91 -165.5t-184.5 -106.5t-226.5 -35q-113 0 -221 21.5t-173 57.5z" glyph-name="s" horiz-adv-x="1148" unicode="s"/><glyph d="M742 0h-310q-90 0 -136 63.5t-32 164.5l105 742h-174l18 138h175l31 217h194l-30 -217h315l-18 -138h-317l-97 -691q-9 -68 18 -108t82 -40h195z" glyph-name="t" horiz-adv-x="993" unicode="t"/><glyph d="M1123 1108h194l-156 -1108h-194l26 193q-104 -120 -226.5 -163t-279.5 -43q-179 0 -271 111t-60 339l94 671h194l-88 -627q-49 -353 236 -353q63 0 131 23t130.5 66t112.5 115t70 163z" glyph-name="u" horiz-adv-x="1412" unicode="u"/><glyph d="M1063 1108h206l-566 -1108h-279l-253 1108h207l205 -971z" glyph-name="v" horiz-adv-x="1284" unicode="v"/><glyph d="M1610 1108h207l-487 -1108h-230l-136 899l-389 -899h-229l-175 1108h207l132 -906l381 906h206l132 -906z" glyph-name="w" horiz-adv-x="1831" unicode="w"/><glyph d="M1227 1108l-465 -543l310 -565h-207l-256 467l-388 -467h-206l468 565l-312 543h206l259 -449l385 449h206z" glyph-name="x" horiz-adv-x="1242" unicode="x"/><glyph d="M1063 1108h206l-591 -1057q-36 -65 -72 -116.5t-94.5 -113t-123 -103t-157.5 -69.5t-197 -28l11 131q278 10 409 303l-283 1053h207l216 -870z" glyph-name="y" horiz-adv-x="1284" unicode="y"/><glyph d="M1177 1108l-19 -138l-840 -832h723l-19 -138h-964l19 138l839 832h-721l18 138h964z" glyph-name="z" horiz-adv-x="1234" unicode="z"/><glyph d="M479 -444q-128 0 -185.5 77t-31.5 262l57 411q6 28 0.5 59t-18 56.5t-45 43.5t-78.5 19l20 139q88 3 135 56.5t56 122.5l58 411q27 184 106 261.5t207 77.5h139l-19 -138h-76q-134 0 -160 -184l-62 -449q-13 -91 -67.5 -156t-152.5 -69v-4q66 -3 104.5 -38t48.5 -82.5 t2 -104.5l-62 -449q-26 -184 108 -184h76l-21 -138h-139z" glyph-name="braceleft" horiz-adv-x="947" unicode="{"/><glyph d="M335 1601h194l-282 -2011h-195z" glyph-name="bar" horiz-adv-x="570" unicode="|"/><glyph d="M188 -444h-140l20 138h75q134 0 160 184l64 449q13 91 67 156t151 69l1 4q-66 3 -105 38t-49 82.5t-2 104.5l64 449q26 184 -109 184h-76l20 138h140q127 0 185 -77t32 -262l-58 -411q-9 -69 22.5 -122.5t118.5 -56.5l-18 -139q-89 -3 -136.5 -56t-56.5 -122l-58 -411 q-26 -184 -105.5 -261.5t-206.5 -77.5z" glyph-name="braceright" horiz-adv-x="948" unicode="}"/><glyph d="M181 502q15 113 80 176.5t154 63.5q42 0 84.5 -17.5t71.5 -38.5t65.5 -39t68.5 -18q36 0 63.5 31.5t34.5 76.5h127q-16 -114 -82.5 -177t-152.5 -63q-36 0 -76.5 17.5t-71 38.5t-67.5 38.5t-65 17.5q-42 0 -70.5 -30t-36.5 -78z" glyph-name="asciitilde" horiz-adv-x="1091" unicode="~"/><glyph d="M265 1108h243l-21 -144h-242zM265 781h151l-133 -1107h-195z" glyph-name="exclamdown" horiz-adv-x="617" unicode="¡"/><glyph d="M1104 899q-106 62 -248 70l-117 -830q144 7 268 69l-22 -156q-118 -51 -267 -63l-20 -141h-101l19 138q-84 2 -160.5 25t-142.5 69t-111 111t-63.5 158.5t-3 204.5t60.5 204t108.5 158t142 111t161.5 69t168 25l20 139h101l-19 -142q147 -12 248 -63zM330 554 q-13 -95 5 -171.5t62.5 -126t105.5 -78t135 -37.5l117 826q-162 -16 -280 -121.5t-145 -291.5z" glyph-name="cent" horiz-adv-x="1191" unicode="¢"/><glyph d="M955 1294q-162 -3 -260.5 -75t-114.5 -191q-10 -68 2 -252h548l-19 -139h-522q3 -103 -6.5 -182t-47 -163t-105.5 -138h816l-21 -154h-1019l21 154q61 52 101 112t55.5 118.5t21 123.5t-2.5 129h-202l18 139h171q-20 211 -5 322q23 160 180 255t414 95q202 0 361 -84 l-22 -161q-166 99 -362 91z" glyph-name="sterling" horiz-adv-x="1490" unicode="£"/><glyph d="M1189 718q-25 -181 -162 -316l148 -171l-68 -59l-149 172q-150 -109 -322 -108q-177 0 -295 111l-200 -175l-51 59l199 173q-97 135 -72 314q25 178 160 311l-151 174l68 60l151 -177q147 112 326 112q173 0 292 -108l197 173l51 -60l-195 -171q99 -135 73 -314zM655 375 q142 0 256.5 99t135.5 244q19 142 -67 241.5t-228 99.5q-143 0 -257.5 -99.5t-135.5 -241.5q-19 -144 67 -243.5t229 -99.5z" glyph-name="currency" horiz-adv-x="1355" unicode="¤"/><glyph d="M770 560l-4 -33h409l-14 -93h-408l-18 -123h409l-14 -93h-407l-31 -218h-210l31 218h-408l14 93h407l18 123h-409l13 93h408l5 33l-395 874h224l303 -674l494 674h223z" glyph-name="yen" horiz-adv-x="1329" unicode="¥"/><glyph d="M335 1601h194l-127 -903h-194zM179 494h195l-127 -904h-195z" glyph-name="brokenbar" horiz-adv-x="570" unicode="¦"/><glyph d="M737 1249q-126 0 -209 -46t-96 -131q-5 -33 6.5 -60t34.5 -48.5t64.5 -41.5t86.5 -36t109 -34q89 -26 144.5 -50t99 -59t58.5 -84t4 -116q-13 -88 -80.5 -154.5t-171.5 -106.5q92 -41 130.5 -100t24.5 -156q-14 -94 -92.5 -166t-187.5 -107t-229 -35q-108 0 -208.5 28 t-167.5 79l21 134q134 -112 341 -118q117 -2 214 48t112 126q7 37 -5.5 67.5t-33.5 50t-68 38.5t-84 30t-107 29q-173 47 -249.5 124.5t-58.5 201.5q13 91 75 155.5t164 99.5q-167 91 -142 262q22 142 157.5 220t344.5 78q212 0 337 -87l-19 -133q-126 98 -319 98zM843 534 q7 40 -5 69.5t-45.5 52t-72 38.5t-99.5 33q-120 -4 -197 -47.5t-89 -124.5q-11 -68 44 -112t177 -84q106 7 190 55.5t97 119.5z" glyph-name="section" horiz-adv-x="1178" unicode="§"/><glyph d="M307 1406h201l-24 -164h-199zM692 1406h200l-23 -164h-200z" glyph-name="dieresis" horiz-adv-x="960" unicode="¨"/><glyph d="M805 -23q-160 0 -293 58t-219.5 157.5t-125.5 235.5t-17.5 288.5t99 289.5t191.5 235.5t263.5 156.5t309.5 58q161 0 294.5 -58t220.5 -156.5t126 -235.5t17 -289q-29 -204 -151.5 -373.5t-311.5 -268t-403 -98.5zM821 83q281 0 490.5 180.5t248.5 453.5 q25 179 -38.5 324t-200.5 227.5t-323 82.5q-184 0 -344 -82.5t-263.5 -227.5t-128.5 -324q-26 -179 37 -324t200 -227.5t322 -82.5zM1194 968q-90 53 -219 50q-119 -3 -210.5 -83t-111 -218t49.5 -218t188 -83q124 -4 232 49l-14 -100q-105 -47 -246 -48q-76 0 -143.5 25 t-119 72t-76 125t-10.5 178q11 80 44 146.5t79 112.5t103 78t116 47t120 15q136 0 232 -47z" glyph-name="copyright" horiz-adv-x="1774" unicode="©"/><glyph d="M575 1444q147 0 211.5 -62.5t46.5 -196.5l-59 -415h-123l9 93q-118 -104 -286 -100q-97 1 -145 47.5t-40 122.5q13 136 138.5 190t372.5 31l7 41q9 86 -28 121.5t-128 36.5q-108 2 -200 -57l-33 76q120 72 257 72zM672 945l19 138q-193 18 -281 -11t-99 -118 q-6 -50 29 -77.5t106 -26.5q70 1 129 29t97 66z" glyph-name="ordfeminine" horiz-adv-x="879" unicode="ª"/><glyph d="M785 947l-392 -384l284 -384h-204l-284 384l393 384h203zM1257 947l-392 -384l284 -384h-204l-283 384l391 384h204z" glyph-name="guillemotleft" horiz-adv-x="1389" unicode="«"/><glyph d="M1196 951l-79 -566h-194l57 413h-758l22 153h952z" glyph-name="logicalnot" horiz-adv-x="1328" unicode="¬"/><glyph d="M769 1504q215 0 339.5 -141.5t94.5 -348.5q-29 -207 -192.5 -349t-378.5 -142q-140 0 -246 65.5t-155.5 178t-29.5 247.5q30 207 192 348.5t376 141.5zM1118 1014q25 176 -76.5 292.5t-281.5 116.5t-315 -116.5t-159.5 -292.5t77 -293t281.5 -117t315 117t159 293z M762 1283q91 0 134 -43t32 -121q-8 -62 -42.5 -100t-103.5 -56l102 -218h-83l-95 202q-49 -6 -137 -8l-27 -194h-79l76 538h223zM849 1119q7 55 -18 79t-81 24h-141l-31 -222q144 1 203 27t68 92z" glyph-name="registered" horiz-adv-x="1274" unicode="®"/><glyph d="M301 1362h518l-17 -120h-517z" glyph-name="macron" horiz-adv-x="892" unicode="¯"/><glyph d="M492.5 949q-103.5 0 -166 73.5t-47.5 175.5q14 103 98 176.5t186.5 73.5t165 -74t47.5 -176q-13 -102 -96.5 -175.5t-187 -73.5zM505 1036q67 0 121.5 48.5t63.5 114t-32.5 114t-107.5 48.5t-120.5 -48t-64.5 -115q-8 -67 33 -114.5t107 -47.5z" glyph-name="degree" horiz-adv-x="873" unicode="°"/><glyph d="M1133 916l-19 -138h-350l-33 -230h-194l32 230h-349l19 138h350l33 231h194l-33 -231h350zM1065 431l-19 -138h-894l19 138h894z" glyph-name="plusminus" horiz-adv-x="1269" unicode="±"/><glyph d="M843 868l-15 -102h-662l13 102q36 25 105 72t113 78.5t105.5 76t101.5 79t79.5 73.5t60.5 74.5t25 66.5q10 73 -34.5 113.5t-140.5 41.5q-135 0 -253 -76l-41 84q153 94 312 95q158 0 234 -64.5t60 -173.5q-5 -36 -23.5 -75t-42.5 -72t-63.5 -72.5t-72 -68.5t-84.5 -69 t-84.5 -63.5t-87.5 -62.5t-79 -57h474z" glyph-name="uni00B2" horiz-adv-x="933" unicode="²"/><glyph d="M318 1638h596l-13 -102l-353 -275q57 5 103 0q112 -12 171.5 -76t43.5 -167q-19 -127 -113.5 -193.5t-253.5 -64.5q-188 2 -320 95l71 89q45 -37 119 -60.5t144 -22.5q204 3 226 159q12 78 -40 121t-154 43q-84 0 -151 -23l-23 97l377 278h-443z" glyph-name="uni00B3" horiz-adv-x="935" unicode="³"/><glyph d="M751 1549l-311 -307h-155l276 307h190z" glyph-name="acute" horiz-adv-x="797" unicode="´"/><glyph d="M1123 1108h194l-156 -1108h-194l26 193q-104 -120 -226.5 -163t-279.5 -43q-116 0 -193 45l-63 -442h-194l115 809q2 25 4 38l94 671h194l-29 -213h1l-64 -452q-30 -315 240 -315q63 0 131 23t130.5 66t112.5 115t70 163z" glyph-name="uni00B5" horiz-adv-x="1371" unicode="µ"/><glyph d="M557 924q-144 0 -221.5 65.5t-61.5 186.5q18 129 113.5 193.5t253.5 64.5h518l-202 -1434h-175l180 1280h-179l-180 -1280h-176z" glyph-name="paragraph" horiz-adv-x="1223" unicode="¶"/><glyph d="M224 814h242l-28 -194h-241z" glyph-name="periodcentered" horiz-adv-x="617" unicode="·"/><glyph d="M269 -66q66 0 102 -29t28 -82q-9 -62 -67.5 -94.5t-156.5 -32.5q-51 0 -106 9l10 70q37 -6 81 -6q116 0 124 57q4 31 -19 42t-77 11q-28 0 -42 -1l8 52l76 75h79l-75 -72q8 1 35 1z" glyph-name="cedilla" horiz-adv-x="689" unicode="¸"/><glyph d="M516 881h208l-14 -103h-542l13 103h208l91 646q-96 -51 -177 -74l16 113q83 20 177 72h127z" glyph-name="uni00B9" horiz-adv-x="813" unicode="¹"/><glyph d="M854 1103q-12 -86 -52 -153.5t-96.5 -107t-119.5 -59.5t-127 -20q-66 0 -122.5 20t-102.5 59.5t-67 107t-8 153.5q12 85 51.5 152t95 107t119 61t129.5 21t123 -21t102 -61t66 -107t9 -152zM471 854q93 0 167 65.5t90 183.5q16 116 -38.5 183t-147.5 67t-167 -67 t-90 -183q-16 -118 38.5 -183.5t147.5 -65.5z" glyph-name="ordmasculine" horiz-adv-x="858" unicode="º"/><glyph d="M244 947h203l284 -384l-391 -384h-204l391 384zM716 947h204l283 -384l-391 -384h-204l391 384z" glyph-name="guillemotright" horiz-adv-x="1390" unicode="»"/><glyph d="M487 676h208l-14 -103h-542l14 103h207l92 646q-96 -51 -178 -74l17 113q83 20 176 73h127zM1390 1434h109l-967 -1434h-108zM1648 317l-15 -102h-152l-30 -215h-124l30 215h-420l14 102l479 543h142l-76 -543h152zM1078 317h294l58 413z" glyph-name="onequarter" horiz-adv-x="1815" unicode="¼"/><glyph d="M487 676h208l-14 -103h-542l14 103h207l92 646q-96 -51 -178 -74l17 113q83 20 176 73h127zM1391 1434h109l-966 -1434h-109zM1730 102l-15 -102h-663l14 102q36 25 105 72t113 78.5t105.5 76t101.5 79t79.5 73.5t60.5 74.5t25 66.5q10 72 -35 113t-141 42 q-135 0 -252 -76l-41 84q153 94 312 95q157 0 232.5 -64.5t61.5 -173.5q-5 -36 -24 -75t-42.5 -72t-63.5 -73t-72.5 -68.5t-84.5 -68.5t-84 -63t-87 -62.5t-80 -57.5h475z" glyph-name="onehalf" horiz-adv-x="1927" unicode="½"/><glyph d="M290 1434h596l-14 -103l-353 -275q57 5 104 0q112 -12 171 -76t44 -167q-19 -127 -113.5 -193.5t-254.5 -64.5q-188 2 -319 95l70 89q45 -37 119.5 -60.5t143.5 -22.5q204 3 227 159q12 78 -40.5 121t-154.5 43q-84 0 -150 -23l-24 98l377 277h-443zM1447 1434h111 l-968 -1434h-109zM1704 317l-14 -102h-153l-30 -215h-124l30 215h-420l15 102l478 543h142l-76 -543h152zM1135 317h293l58 413z" glyph-name="threequarters" horiz-adv-x="1871" unicode="¾"/><glyph d="M897 1042l-20 -144h-243l20 144h243zM522 -391q-240 -2 -368 108t-101 315q24 173 135 278t280 125q54 9 136 11l40 264h173l-43 -399q-60 14 -162 15q-148 0 -248 -80t-117 -212q-17 -129 65 -200.5t235 -71.5q101 -1 206 26t184 71l-25 -173q-170 -74 -390 -77z" glyph-name="questiondown" horiz-adv-x="1161" unicode="¿"/><glyph d="M962 1569h-156l-223 307h189zM1145 0l-77 322h-719l-167 -322h-221l760 1434h287l358 -1434h-221zM428 474h604l-189 800z" glyph-name="Agrave" horiz-adv-x="1482" unicode="À"/><glyph d="M1272 1876l-310 -307h-156l276 307h190zM1145 0l-77 322h-719l-167 -322h-221l760 1434h287l358 -1434h-221zM428 474h604l-189 800z" glyph-name="Aacute" horiz-adv-x="1482" unicode="Á"/><glyph d="M918 1814l-205 -246h-156l263 307h214l175 -307h-155zM1145 0l-77 322h-719l-167 -322h-221l760 1434h287l358 -1434h-221zM428 474h604l-189 800z" glyph-name="Acircumflex" horiz-adv-x="1482" unicode="Â"/><glyph d="M771 1670q-39 -1 -66 -29.5t-33 -72.5l-106 1q13 98 70 154.5t136 56.5q38 0 76.5 -16.5t64 -37t58.5 -37t61 -16.5q33 0 59.5 30t32.5 72h106q-14 -98 -72.5 -154.5t-134.5 -56.5q-32 0 -68.5 16.5t-63.5 36.5t-60 36.5t-60 16.5zM1145 0l-77 322h-719l-167 -322h-221 l760 1434h287l358 -1434h-221zM428 474h604l-189 800z" glyph-name="Atilde" horiz-adv-x="1482" unicode="Ã"/><glyph d="M814 1732l-23 -164h-200l22 164h201zM1198 1732l-22 -164h-201l23 164h200zM1145 0l-77 322h-719l-167 -322h-221l760 1434h287l358 -1434h-221zM428 474h604l-189 800z" glyph-name="Adieresis" horiz-adv-x="1482" unicode="Ä"/><glyph d="M1145 0l-77 322h-719l-167 -322h-221l760 1434h2q-55 62 -43 149q12 85 81.5 146t154.5 61t137.5 -61t40.5 -146q-12 -89 -86 -149l358 -1434h-221zM780 1583q-5 -44 21.5 -75t70.5 -31t80 31t41 75q6 44 -20.5 75.5t-70.5 31.5t-80 -31.5t-42 -75.5zM428 474h604 l-189 800z" glyph-name="Aring" horiz-adv-x="1482" unicode="Å"/><glyph d="M1707 1280h-648l-69 -486h578l-22 -154h-577l-69 -486h648l-20 -154h-858l45 322h-366l-167 -322h-221l760 1434h1008zM429 474h306l-19 -145l133 954z" glyph-name="AE" horiz-adv-x="1793" unicode="Æ"/><glyph d="M955 1284q-102 -4 -197 -41t-178.5 -104t-142 -176t-78.5 -246q-16 -114 0.5 -204t55.5 -156.5t99 -111.5t131 -68.5t151 -26.5q190 -8 379 86l-24 -170q-165 -74 -351 -80l-59 -56q8 1 35 1q66 0 101.5 -29t28.5 -82q-9 -62 -67.5 -94.5t-156.5 -32.5q-51 0 -107 9 l11 70q37 -6 81 -6q116 0 124 57q4 31 -19 42t-77 11q-28 0 -42 -1l7 52l62 61q-104 6 -197.5 38.5t-171.5 93.5t-129.5 145t-72 200.5t-1.5 251.5q20 141 77.5 262t138.5 206t182.5 145.5t210.5 89t220 28.5q199 0 355 -80l-24 -170q-162 94 -355 86z" glyph-name="Ccedilla" horiz-adv-x="1406" unicode="Ç"/><glyph d="M548 1876h189l190 -307h-156zM341 154h828l-20 -154h-1038l200 1434h1039l-22 -154h-828l-69 -486h744l-22 -154h-743z" glyph-name="Egrave" horiz-adv-x="1414" unicode="È"/><glyph d="M1237 1876l-310 -307h-156l277 307h189zM341 154h828l-20 -154h-1038l200 1434h1039l-22 -154h-828l-69 -486h744l-22 -154h-743z" glyph-name="Eacute" horiz-adv-x="1414" unicode="É"/><glyph d="M1176 1568h-156l-136 246l-205 -246h-156l263 307h214zM341 154h828l-20 -154h-1038l200 1434h1039l-22 -154h-828l-69 -486h744l-22 -154h-743z" glyph-name="Ecircumflex" horiz-adv-x="1414" unicode="Ê"/><glyph d="M580 1732h200l-23 -164h-200zM965 1732h199l-22 -164h-201zM341 154h828l-20 -154h-1038l200 1434h1039l-22 -154h-828l-69 -486h744l-22 -154h-743z" glyph-name="Edieresis" horiz-adv-x="1414" unicode="Ë"/><glyph d="M134 1876h190l189 -307h-156zM319 0h-208l200 1434h210z" glyph-name="Igrave" horiz-adv-x="584" unicode="Ì"/><glyph d="M823 1876l-310 -307h-156l277 307h189zM319 0h-208l200 1434h210z" glyph-name="Iacute" horiz-adv-x="584" unicode="Í"/><glyph d="M761 1568h-156l-136 246l-205 -246h-155l263 307h214zM319 0h-208l200 1434h210z" glyph-name="Icircumflex" horiz-adv-x="584" unicode="Î"/><glyph d="M165 1732h201l-24 -164h-200zM550 1732h200l-23 -164h-201zM319 0h-208l200 1434h210z" glyph-name="Idieresis" horiz-adv-x="584" unicode="Ï"/><glyph d="M863 1434q119 0 219.5 -28t181.5 -84t132 -142t71 -201.5t-2 -261.5q-19 -144 -72 -263t-128 -202.5t-172 -141t-205 -84t-226 -26.5h-548l94 667h-150l15 100h148l94 667h548zM1256 717q37 266 -84.5 414.5t-348.5 148.5h-320l-72 -513h342l-14 -100h-342l-72 -513h320 q150 0 273.5 64t207.5 192.5t110 306.5z" glyph-name="Eth" horiz-adv-x="1568" unicode="Ð"/><glyph d="M626 1569q13 98 70 154.5t135 56.5q38 0 76.5 -16.5t64 -37t58.5 -37t62 -16.5q33 0 59.5 30t32.5 72h105q-14 -98 -72.5 -154.5t-134.5 -56.5q-32 0 -68.5 16.5t-63 36.5t-60 36.5t-60.5 16.5q-39 -1 -66 -29.5t-33 -72.5zM1326 1434h209l-201 -1434h-219l-637 1130 l-159 -1130h-208l200 1434h219l638 -1124z" glyph-name="Ntilde" horiz-adv-x="1599" unicode="Ñ"/><glyph d="M693 1876h190l189 -307h-156zM1601 717q-20 -143 -78 -264t-139.5 -206t-183 -145t-210 -88t-219.5 -28t-210.5 28t-184 88t-142 145t-81.5 205.5t-3 264.5q25 176 106.5 318.5t196.5 230.5t250 135t275 47q111 0 211.5 -28.5t184.5 -89t141.5 -145.5t81 -206t4.5 -262z M794 139q101 0 198.5 38t179.5 108t140.5 182.5t78 249.5t-8 249t-90.5 183t-149.5 108t-187 37t-197 -37t-179 -108t-141.5 -183t-79 -249q-16 -114 -1 -205.5t54 -161t97.5 -117t131 -71t153.5 -23.5z" glyph-name="Ograve" horiz-adv-x="1703" unicode="Ò"/><glyph d="M1382 1876l-310 -307h-156l277 307h189zM1601 717q-20 -143 -78 -264t-139.5 -206t-183 -145t-210 -88t-219.5 -28t-210.5 28t-184 88t-142 145t-81.5 205.5t-3 264.5q25 176 106.5 318.5t196.5 230.5t250 135t275 47q111 0 211.5 -28.5t184.5 -89t141.5 -145.5t81 -206 t4.5 -262zM794 139q101 0 198.5 38t179.5 108t140.5 182.5t78 249.5t-8 249t-90.5 183t-149.5 108t-187 37t-197 -37t-179 -108t-141.5 -183t-79 -249q-16 -114 -1 -205.5t54 -161t97.5 -117t131 -71t153.5 -23.5z" glyph-name="Oacute" horiz-adv-x="1703" unicode="Ó"/><glyph d="M1320 1568h-156l-136 246l-205 -246h-155l263 307h214zM1601 717q-20 -143 -78 -264t-139.5 -206t-183 -145t-210 -88t-219.5 -28t-210.5 28t-184 88t-142 145t-81.5 205.5t-3 264.5q25 176 106.5 318.5t196.5 230.5t250 135t275 47q111 0 211.5 -28.5t184.5 -89 t141.5 -145.5t81 -206t4.5 -262zM794 139q101 0 198.5 38t179.5 108t140.5 182.5t78 249.5t-8 249t-90.5 183t-149.5 108t-187 37t-197 -37t-179 -108t-141.5 -183t-79 -249q-16 -114 -1 -205.5t54 -161t97.5 -117t131 -71t153.5 -23.5z" glyph-name="Ocircumflex" horiz-adv-x="1703" unicode="Ô"/><glyph d="M678 1569q13 98 70 154.5t136 56.5q38 0 76 -16.5t64.5 -37t58.5 -37t61 -16.5q34 0 60 30t32 72h105q-14 -98 -72.5 -154.5t-133.5 -56.5q-32 0 -69 16.5t-63.5 36.5t-60 36.5t-59.5 16.5q-39 -1 -66 -29.5t-34 -72.5zM1601 717q-20 -143 -78 -264t-139.5 -206 t-183 -145t-210 -88t-219.5 -28t-210.5 28t-184 88t-142 145t-81.5 205.5t-3 264.5q25 176 106.5 318.5t196.5 230.5t250 135t275 47q111 0 211.5 -28.5t184.5 -89t141.5 -145.5t81 -206t4.5 -262zM794 139q101 0 198.5 38t179.5 108t140.5 182.5t78 249.5t-8 249t-90.5 183 t-149.5 108t-187 37t-197 -37t-179 -108t-141.5 -183t-79 -249q-16 -114 -1 -205.5t54 -161t97.5 -117t131 -71t153.5 -23.5z" glyph-name="Otilde" horiz-adv-x="1703" unicode="Õ"/><glyph d="M724 1732h201l-24 -164h-200zM1109 1732h200l-23 -164h-201zM1601 717q-20 -143 -78 -264t-139.5 -206t-183 -145t-210 -88t-219.5 -28t-210.5 28t-184 88t-142 145t-81.5 205.5t-3 264.5q25 176 106.5 318.5t196.5 230.5t250 135t275 47q111 0 211.5 -28.5t184.5 -89 t141.5 -145.5t81 -206t4.5 -262zM794 139q101 0 198.5 38t179.5 108t140.5 182.5t78 249.5t-8 249t-90.5 183t-149.5 108t-187 37t-197 -37t-179 -108t-141.5 -183t-79 -249q-16 -114 -1 -205.5t54 -161t97.5 -117t131 -71t153.5 -23.5z" glyph-name="Odieresis" horiz-adv-x="1703" unicode="Ö"/><glyph d="M904 450l-112 -99l-230 267l-304 -267l-84 99l304 267l-230 266l112 99l230 -267l305 267l84 -99l-304 -266z" glyph-name="multiply" horiz-adv-x="1106" unicode="×"/><glyph d="M1637 1341l-143 -126q148 -198 107 -498q-20 -143 -78 -264t-139.5 -206t-183 -145t-210 -88t-219.5 -28q-139 0 -262 46t-210 135l-153 -134l-51 59l154 134q-140 194 -99 491q25 176 106.5 318.5t196.5 230.5t250 135t275 47q136 0 256.5 -44.5t208.5 -129.5l144 127z M359 717q-30 -206 45 -353l891 781q-61 74 -149 111.5t-191 37.5q-100 0 -196.5 -37t-179 -108t-142 -183t-78.5 -249zM1391 717q30 214 -52 362l-892 -782q60 -77 150.5 -117.5t196.5 -40.5q101 0 198.5 38t179.5 108t141 182.5t78 249.5z" glyph-name="Oslash" horiz-adv-x="1703" unicode="Ø"/><glyph d="M595 1876h189l190 -307h-156zM1442 1434l-123 -871q-42 -306 -198.5 -441.5t-447.5 -135.5q-290 0 -408.5 135.5t-76.5 441.5l123 871h210l-127 -905q-28 -201 42.5 -295.5t258 -94.5t285 95t125.5 295l127 905h210z" glyph-name="Ugrave" horiz-adv-x="1506" unicode="Ù"/><glyph d="M1284 1876l-310 -307h-156l277 307h189zM1442 1434l-123 -871q-42 -306 -198.5 -441.5t-447.5 -135.5q-290 0 -408.5 135.5t-76.5 441.5l123 871h210l-127 -905q-28 -201 42.5 -295.5t258 -94.5t285 95t125.5 295l127 905h210z" glyph-name="Uacute" horiz-adv-x="1506" unicode="Ú"/><glyph d="M1222 1568h-156l-136 246l-205 -246h-156l264 307h214zM1442 1434l-123 -871q-42 -306 -198.5 -441.5t-447.5 -135.5q-290 0 -408.5 135.5t-76.5 441.5l123 871h210l-127 -905q-28 -201 42.5 -295.5t258 -94.5t285 95t125.5 295l127 905h210z" glyph-name="Ucircumflex" horiz-adv-x="1506" unicode="Û"/><glyph d="M626 1732h200l-23 -164h-200zM1011 1732h199l-22 -164h-201zM1442 1434l-123 -871q-42 -306 -198.5 -441.5t-447.5 -135.5q-290 0 -408.5 135.5t-76.5 441.5l123 871h210l-127 -905q-28 -201 42.5 -295.5t258 -94.5t285 95t125.5 295l127 905h210z" glyph-name="Udieresis" horiz-adv-x="1506" unicode="Ü"/><glyph d="M1195 1876l-310 -307h-156l277 307h189zM1187 1434h223l-640 -874l-78 -560h-210l79 560l-395 874h224l303 -674z" glyph-name="Yacute" horiz-adv-x="1329" unicode="Ý"/><glyph d="M883 1179q231 0 351.5 -117t91.5 -325q-35 -254 -263.5 -365t-707.5 -117l-36 -255h-208l164 1179l36 255h210l-36 -255h398zM1117 737q18 139 -54.5 217t-211.5 78h-386l-44 -315l-45 -316q375 2 545 80.5t196 255.5z" glyph-name="Thorn" horiz-adv-x="1435" unicode="Þ"/><glyph d="M1184 406q-14 -103 -70 -184t-139 -127.5t-180 -70t-202 -23.5h-157l20 138h133q140 0 250 71t129 203q9 67 -12 121.5t-64 89t-101 53.5t-123 19h-134l19 139h134q115 0 209 63.5t109 173.5q16 109 -59.5 172.5t-191.5 63.5q-122 0 -209.5 -62.5t-105.5 -179.5 l-149 -1065h-195l149 1060q17 122 96 211t191 131.5t242 42.5q126 0 227 -39t159.5 -124t41.5 -204q-14 -110 -83.5 -187.5t-170.5 -119.5q120 -45 187.5 -138t49.5 -228z" glyph-name="germandbls" horiz-adv-x="1331" unicode="ß"/><glyph d="M467 1550h189l190 -307h-156zM752 1121q253 0 358 -103t74 -328l-98 -690h-186l13 155q-81 -72 -206 -121.5t-291 -47.5q-172 3 -254 79.5t-67 204.5q24 229 246.5 330t643.5 66l6 42q15 140 -48.5 201.5t-231.5 67.5q-188 6 -371 -80l20 143q174 81 392 81zM933 294 l33 230q-333 30 -499.5 -20.5t-187.5 -201.5q-13 -97 50.5 -134.5t205.5 -35.5q126 1 231.5 50t166.5 112z" glyph-name="agrave" horiz-adv-x="1336" unicode="à"/><glyph d="M1156 1550l-310 -307h-156l277 307h189zM752 1121q253 0 358 -103t74 -328l-98 -690h-186l13 155q-81 -72 -206 -121.5t-291 -47.5q-172 3 -254 79.5t-67 204.5q24 229 246.5 330t643.5 66l6 42q15 140 -48.5 201.5t-231.5 67.5q-188 6 -371 -80l20 143q174 81 392 81z M933 294l33 230q-333 30 -499.5 -20.5t-187.5 -201.5q-13 -97 50.5 -134.5t205.5 -35.5q126 1 231.5 50t166.5 112z" glyph-name="aacute" horiz-adv-x="1336" unicode="á"/><glyph d="M1095 1242h-156l-136 246l-205 -246h-156l264 307h214zM752 1121q253 0 358 -103t74 -328l-98 -690h-186l13 155q-81 -72 -206 -121.5t-291 -47.5q-172 3 -254 79.5t-67 204.5q24 229 246.5 330t643.5 66l6 42q15 140 -48.5 201.5t-231.5 67.5q-188 6 -371 -80l20 143 q174 81 392 81zM933 294l33 230q-333 30 -499.5 -20.5t-187.5 -201.5q-13 -97 50.5 -134.5t205.5 -35.5q126 1 231.5 50t166.5 112z" glyph-name="acircumflex" horiz-adv-x="1336" unicode="â"/><glyph d="M452 1243q13 98 70 154.5t135 56.5q38 0 76.5 -16.5t64 -37t58.5 -36.5t62 -16q33 0 59.5 29.5t32.5 71.5h105q-14 -98 -72.5 -154.5t-134.5 -56.5q-32 0 -68.5 17t-63 37t-60 36.5t-60.5 16.5q-39 -1 -66 -30t-33 -73zM752 1121q253 0 358 -103t74 -328l-98 -690h-186 l13 155q-81 -72 -206 -121.5t-291 -47.5q-172 3 -254 79.5t-67 204.5q24 229 246.5 330t643.5 66l6 42q15 140 -48.5 201.5t-231.5 67.5q-188 6 -371 -80l20 143q174 81 392 81zM933 294l33 230q-333 30 -499.5 -20.5t-187.5 -201.5q-13 -97 50.5 -134.5t205.5 -35.5 q126 1 231.5 50t166.5 112z" glyph-name="atilde" horiz-adv-x="1336" unicode="ã"/><glyph d="M499 1406h200l-23 -164h-200zM884 1406h199l-22 -164h-201zM752 1121q253 0 358 -103t74 -328l-98 -690h-186l13 155q-81 -72 -206 -121.5t-291 -47.5q-172 3 -254 79.5t-67 204.5q24 229 246.5 330t643.5 66l6 42q15 140 -48.5 201.5t-231.5 67.5q-188 6 -371 -80 l20 143q174 81 392 81zM933 294l33 230q-333 30 -499.5 -20.5t-187.5 -201.5q-13 -97 50.5 -134.5t205.5 -35.5q126 1 231.5 50t166.5 112z" glyph-name="adieresis" horiz-adv-x="1336" unicode="ä"/><glyph d="M769 1242q-85 0 -137.5 61t-40.5 146q12 86 81 147t155 61q85 0 137.5 -61t40.5 -147q-12 -85 -81.5 -146t-154.5 -61zM783 1343q44 0 80 31.5t41 74.5q6 44 -20.5 75t-70.5 31t-80 -31t-42 -75q-5 -43 21.5 -74.5t70.5 -31.5zM752 1121q253 0 358 -103t74 -328l-98 -690 h-186l13 155q-81 -72 -206 -121.5t-291 -47.5q-172 3 -254 79.5t-67 204.5q24 229 246.5 330t643.5 66l6 42q15 140 -48.5 201.5t-231.5 67.5q-188 6 -371 -80l20 143q174 81 392 81zM933 294l33 230q-333 30 -499.5 -20.5t-187.5 -201.5q-13 -97 50.5 -134.5t205.5 -35.5 q126 1 231.5 50t166.5 112z" glyph-name="aring" horiz-adv-x="1336" unicode="å"/><glyph d="M2133 499h-895q-4 -99 31.5 -174.5t98 -119t136.5 -65t159 -21.5q174 -1 323 71l-20 -138q-155 -67 -371 -66q-150 0 -279 57t-200 169l-30 -212h-186l13 155q-81 -72 -206 -121.5t-291 -47.5q-172 3 -254 79.5t-67 204.5q24 229 246.5 330t643.5 66l6 42 q15 140 -48.5 201.5t-231.5 67.5q-188 6 -371 -80l20 143q173 81 392 81q194 0 300 -60t132 -187q91 121 225.5 184t279.5 63q168 0 286.5 -75.5t163.5 -213.5t-6 -333zM1681 988q-143 -2 -259 -93.5t-161 -255.5h728q18 87 -1.5 156.5t-66.5 110.5t-108.5 62t-131.5 20z M933 294l33 230q-333 30 -499.5 -20.5t-187.5 -201.5q-13 -97 50.5 -134.5t205.5 -35.5q126 1 231.5 50t166.5 112z" glyph-name="ae" horiz-adv-x="2286" unicode="æ"/><glyph d="M794 970q-82 -3 -157.5 -29.5t-140 -76t-108.5 -129.5t-58.5 -181t7.5 -181t72.5 -129.5t118.5 -76t149 -29.5q177 -6 330 70l-22 -156q-144 -62 -323 -66l-59 -56q8 1 35 1q66 0 101.5 -29t28.5 -82q-9 -62 -67.5 -94.5t-156.5 -32.5q-51 0 -107 9l10 70q37 -6 81 -6 q116 0 124 57q4 31 -19 42t-76 11q-28 0 -42 -1l7 52l63 61q-101 8 -188.5 46.5t-154 106t-96 174.5t-11.5 239q15 113 62.5 208t113 160t147 111t166.5 67t171 21q199 0 331 -66l-22 -156q-129 77 -310 71z" glyph-name="ccedilla" horiz-adv-x="1190" unicode="ç"/><glyph d="M863 1243h-155l-224 307h190zM1212 499h-895q-4 -99 31.5 -174.5t98 -119t136.5 -65t159 -21.5q174 -1 323 71l-19 -138q-155 -67 -371 -66q-90 0 -174.5 20.5t-159 65.5t-125.5 110t-74 161t-7 211q15 113 60 208t107.5 160t140 111t159.5 67t166 21q168 0 287 -75.5 t163.5 -213.5t-6.5 -333zM761 988q-143 -2 -259.5 -93.5t-161.5 -255.5h728q18 87 -1 156.5t-66.5 110.5t-108.5 62t-131 20z" glyph-name="egrave" horiz-adv-x="1361" unicode="è"/><glyph d="M1174 1550l-311 -307h-155l276 307h190zM1212 499h-895q-4 -99 31.5 -174.5t98 -119t136.5 -65t159 -21.5q174 -1 323 71l-19 -138q-155 -67 -371 -66q-90 0 -174.5 20.5t-159 65.5t-125.5 110t-74 161t-7 211q15 113 60 208t107.5 160t140 111t159.5 67t166 21 q168 0 287 -75.5t163.5 -213.5t-6.5 -333zM761 988q-143 -2 -259.5 -93.5t-161.5 -255.5h728q18 87 -1 156.5t-66.5 110.5t-108.5 62t-131 20z" glyph-name="eacute" horiz-adv-x="1361" unicode="é"/><glyph d="M820 1488l-205 -246h-155l263 307h214l175 -307h-156zM1212 499h-895q-4 -99 31.5 -174.5t98 -119t136.5 -65t159 -21.5q174 -1 323 71l-19 -138q-155 -67 -371 -66q-90 0 -174.5 20.5t-159 65.5t-125.5 110t-74 161t-7 211q15 113 60 208t107.5 160t140 111t159.5 67 t166 21q168 0 287 -75.5t163.5 -213.5t-6.5 -333zM761 988q-143 -2 -259.5 -93.5t-161.5 -255.5h728q18 87 -1 156.5t-66.5 110.5t-108.5 62t-131 20z" glyph-name="ecircumflex" horiz-adv-x="1361" unicode="ê"/><glyph d="M717 1406l-24 -164h-199l22 164h201zM1101 1406l-23 -164h-200l23 164h200zM1212 499h-895q-4 -99 31.5 -174.5t98 -119t136.5 -65t159 -21.5q174 -1 323 71l-19 -138q-155 -67 -371 -66q-90 0 -174.5 20.5t-159 65.5t-125.5 110t-74 161t-7 211q15 113 60 208t107.5 160 t140 111t159.5 67t166 21q168 0 287 -75.5t163.5 -213.5t-6.5 -333zM761 988q-143 -2 -259.5 -93.5t-161.5 -255.5h728q18 87 -1 156.5t-66.5 110.5t-108.5 62t-131 20z" glyph-name="edieresis" horiz-adv-x="1361" unicode="ë"/><glyph d="M66 1549h189l189 -307h-155zM251 1108h194l-155 -1108h-195z" glyph-name="igrave" horiz-adv-x="540" unicode="ì"/><glyph d="M755 1549l-311 -307h-155l276 307h190zM251 1108h194l-155 -1108h-195z" glyph-name="iacute" horiz-adv-x="540" unicode="í"/><glyph d="M692 1242h-155l-137 246l-204 -246h-156l263 307h214zM251 1108h194l-155 -1108h-195z" glyph-name="icircumflex" horiz-adv-x="540" unicode="î"/><glyph d="M97 1406h201l-24 -164h-199zM482 1406h200l-23 -164h-200zM251 1108h194l-155 -1108h-195z" glyph-name="idieresis" horiz-adv-x="540" unicode="ï"/><glyph d="M981 1160q199 -304 241 -381q66 -118 68 -206q2 -40 -6 -95q-13 -98 -58 -181t-109.5 -139.5t-145.5 -95.5t-165.5 -57t-170.5 -18t-165.5 18t-149 57t-117.5 95.5t-70 139.5t-8 181q14 106 64.5 194t122 144.5t155.5 90.5t173 41q143 13 271 -41l-141 218l-289 -48 l15 102l217 35l-143 220h234q23 -35 62 -96.5t57 -88.5l362 61l-14 -102zM1090 478q23 158 -77 256.5t-258 98.5q-161 0 -286.5 -94.5t-149.5 -260.5q-23 -164 76 -260t259 -96q104 0 196 41t158.5 123t81.5 192z" glyph-name="eth" horiz-adv-x="1430" unicode="ð"/><glyph d="M486 1243q13 98 70 154.5t136 56.5q38 0 76.5 -16.5t64 -37t58.5 -36.5t61 -16q33 0 59.5 29.5t32.5 71.5h106q-14 -98 -72.5 -154.5t-134.5 -56.5q-32 0 -68.5 17t-63.5 37t-60 36.5t-60 16.5q-39 -1 -66 -30t-33 -73zM289 0h-194l156 1108h194l-26 -193 q104 120 226.5 163t279.5 43q179 0 271 -111t60 -339l-94 -671h-194l88 627q49 353 -236 353q-63 0 -130.5 -23t-130.5 -66t-113 -115.5t-70 -162.5z" glyph-name="ntilde" horiz-adv-x="1412" unicode="ñ"/><glyph d="M511 1549h189l190 -307h-156zM1295 554q-16 -116 -63 -212t-112.5 -161t-147.5 -110t-166.5 -65t-170.5 -20t-164.5 20t-147.5 65t-116 110t-67.5 161t-4.5 212q16 113 63 208t112.5 160t147 111t166.5 67t171 21t165 -21t148 -67t116 -111t66.5 -160t4.5 -208zM654 121 q104 0 197 47.5t161.5 148t88.5 237.5q28 202 -67.5 317.5t-257.5 115.5q-78 0 -151 -28.5t-134 -82.5t-104 -137.5t-57 -184.5q-14 -103 5.5 -187t65.5 -137t111 -81t142 -28z" glyph-name="ograve" horiz-adv-x="1430" unicode="ò"/><glyph d="M1200 1549l-310 -307h-156l277 307h189zM1295 554q-16 -116 -63 -212t-112.5 -161t-147.5 -110t-166.5 -65t-170.5 -20t-164.5 20t-147.5 65t-116 110t-67.5 161t-4.5 212q16 113 63 208t112.5 160t147 111t166.5 67t171 21t165 -21t148 -67t116 -111t66.5 -160t4.5 -208 zM654 121q104 0 197 47.5t161.5 148t88.5 237.5q28 202 -67.5 317.5t-257.5 115.5q-78 0 -151 -28.5t-134 -82.5t-104 -137.5t-57 -184.5q-14 -103 5.5 -187t65.5 -137t111 -81t142 -28z" glyph-name="oacute" horiz-adv-x="1430" unicode="ó"/><glyph d="M1138 1242h-156l-136 246l-205 -246h-156l264 307h214zM1295 554q-16 -116 -63 -212t-112.5 -161t-147.5 -110t-166.5 -65t-170.5 -20t-164.5 20t-147.5 65t-116 110t-67.5 161t-4.5 212q16 113 63 208t112.5 160t147 111t166.5 67t171 21t165 -21t148 -67t116 -111 t66.5 -160t4.5 -208zM654 121q104 0 197 47.5t161.5 148t88.5 237.5q28 202 -67.5 317.5t-257.5 115.5q-78 0 -151 -28.5t-134 -82.5t-104 -137.5t-57 -184.5q-14 -103 5.5 -187t65.5 -137t111 -81t142 -28z" glyph-name="ocircumflex" horiz-adv-x="1430" unicode="ô"/><glyph d="M496 1243q13 98 70 154.5t135 56.5q38 0 76.5 -16.5t64.5 -37t58.5 -36.5t61.5 -16q34 0 60 29.5t32 71.5h105q-14 -98 -72.5 -154.5t-134.5 -56.5q-32 0 -68.5 17t-63 37t-60 36.5t-60.5 16.5q-39 -1 -66 -30t-33 -73zM1295 554q-16 -116 -63 -212t-112.5 -161 t-147.5 -110t-166.5 -65t-170.5 -20t-164.5 20t-147.5 65t-116 110t-67.5 161t-4.5 212q16 113 63 208t112.5 160t147 111t166.5 67t171 21t165 -21t148 -67t116 -111t66.5 -160t4.5 -208zM654 121q104 0 197 47.5t161.5 148t88.5 237.5q28 202 -67.5 317.5t-257.5 115.5 q-78 0 -151 -28.5t-134 -82.5t-104 -137.5t-57 -184.5q-14 -103 5.5 -187t65.5 -137t111 -81t142 -28z" glyph-name="otilde" horiz-adv-x="1430" unicode="õ"/><glyph d="M543 1406h200l-23 -164h-200zM928 1406h199l-22 -164h-201zM1295 554q-16 -116 -63 -212t-112.5 -161t-147.5 -110t-166.5 -65t-170.5 -20t-164.5 20t-147.5 65t-116 110t-67.5 161t-4.5 212q16 113 63 208t112.5 160t147 111t166.5 67t171 21t165 -21t148 -67t116 -111 t66.5 -160t4.5 -208zM654 121q104 0 197 47.5t161.5 148t88.5 237.5q28 202 -67.5 317.5t-257.5 115.5q-78 0 -151 -28.5t-134 -82.5t-104 -137.5t-57 -184.5q-14 -103 5.5 -187t65.5 -137t111 -81t142 -28z" glyph-name="odieresis" horiz-adv-x="1430" unicode="ö"/><glyph d="M614 1158h212l-24 -172h-212zM1095 647h-894l19 139h895zM514 447h212l-25 -172h-212z" glyph-name="divide" horiz-adv-x="1269" unicode="÷"/><glyph d="M1365 1079l-157 -137q120 -153 87 -388q-16 -116 -63 -212t-112.5 -161t-147.5 -110t-166.5 -65t-170.5 -20q-227 0 -370 129l-155 -137l-43 50l153 135q-118 151 -85 391q16 113 63 208t112.5 160t147 111t166.5 67t171 21q226 0 368 -130l158 138zM330 554 q-20 -159 34 -265l666 585q-92 113 -254 113q-78 0 -151 -28.5t-134 -82.5t-104 -137.5t-57 -184.5zM1101 554q23 155 -34 264l-668 -586q91 -112 255 -111q104 0 197 47.5t162 148t88 237.5z" glyph-name="oslash" horiz-adv-x="1430" unicode="ø"/><glyph d="M483 1549h190l189 -307h-155zM1123 1108h194l-156 -1108h-194l26 193q-104 -120 -226.5 -163t-279.5 -43q-179 0 -271 111t-60 339l94 671h194l-88 -627q-49 -353 236 -353q63 0 131 23t130.5 66t112.5 115t70 163z" glyph-name="ugrave" horiz-adv-x="1412" unicode="ù"/><glyph d="M1172 1549l-310 -307h-155l276 307h189zM1123 1108h194l-156 -1108h-194l26 193q-104 -120 -226.5 -163t-279.5 -43q-179 0 -271 111t-60 339l94 671h194l-88 -627q-49 -353 236 -353q63 0 131 23t130.5 66t112.5 115t70 163z" glyph-name="uacute" horiz-adv-x="1412" unicode="ú"/><glyph d="M1110 1242h-156l-136 246l-205 -246h-155l263 307h214zM1123 1108h194l-156 -1108h-194l26 193q-104 -120 -226.5 -163t-279.5 -43q-179 0 -271 111t-60 339l94 671h194l-88 -627q-49 -353 236 -353q63 0 131 23t130.5 66t112.5 115t70 163z" glyph-name="ucircumflex" horiz-adv-x="1412" unicode="û"/><glyph d="M514 1406h201l-24 -164h-199zM899 1406h200l-23 -164h-200zM1123 1108h194l-156 -1108h-194l26 193q-104 -120 -226.5 -163t-279.5 -43q-179 0 -271 111t-60 339l94 671h194l-88 -627q-49 -353 236 -353q63 0 131 23t130.5 66t112.5 115t70 163z" glyph-name="udieresis" horiz-adv-x="1412" unicode="ü"/><glyph d="M1126 1549l-310 -307h-156l277 307h189zM1063 1108h206l-591 -1057q-36 -65 -72 -116.5t-94.5 -113t-123 -103t-157.5 -69.5t-197 -28l11 131q278 10 409 303l-283 1053h207l216 -870z" glyph-name="yacute" horiz-adv-x="1284" unicode="ý"/><glyph d="M868 1121q109 0 198 -34.5t154.5 -102.5t93 -178.5t7.5 -251.5q-19 -141 -78 -252.5t-143.5 -179t-184 -102t-207.5 -34.5q-129 0 -232 61.5t-140 176.5l-92 -652h-195l278 1964h194l-92 -652q69 116 189 176.5t250 60.5zM693 117q160 0 282.5 116t151 321t-61 321 t-250.5 116q-91 0 -173.5 -36.5t-150.5 -118.5t-97 -198l-22 -168q-6 -171 86.5 -262t234.5 -91z" glyph-name="thorn" horiz-adv-x="1457" unicode="þ"/><glyph d="M469 1406h201l-24 -164h-200zM854 1406h200l-23 -164h-201zM1063 1108h206l-591 -1057q-36 -65 -72 -116.5t-94.5 -113t-123 -103t-157.5 -69.5t-197 -28l11 131q278 10 409 303l-283 1053h207l216 -870z" glyph-name="ydieresis" horiz-adv-x="1284" unicode="ÿ"/><glyph d="M1159 1688l-17 -120h-517l16 120h518zM1145 0l-77 322h-719l-167 -322h-221l760 1434h287l358 -1434h-221zM428 474h604l-189 800z" glyph-name="Amacron" horiz-adv-x="1482" unicode="Ā"/><glyph d="M526 1362h518l-17 -120h-517zM752 1121q253 0 358 -103t74 -328l-98 -690h-186l13 155q-81 -72 -206 -121.5t-291 -47.5q-172 3 -254 79.5t-67 204.5q24 229 246.5 330t643.5 66l6 42q15 140 -48.5 201.5t-231.5 67.5q-188 6 -371 -80l20 143q174 81 392 81zM933 294 l33 230q-333 30 -499.5 -20.5t-187.5 -201.5q-13 -97 50.5 -134.5t205.5 -35.5q126 1 231.5 50t166.5 112z" glyph-name="amacron" horiz-adv-x="1336" unicode="ā"/><glyph d="M883.5 1568q-110.5 0 -178.5 69.5t-64 179.5h124q-5 -62 32 -104t101 -42q63 0 113 42t61 104h124q-27 -110 -114.5 -179.5t-198 -69.5zM1145 0l-77 322h-719l-167 -322h-221l760 1434h287l358 -1434h-221zM428 474h604l-189 800z" glyph-name="Abreve" horiz-adv-x="1482" unicode="Ă"/><glyph d="M1081 1491q-27 -110 -114 -179.5t-198 -69.5t-179 69.5t-64 179.5h124q-5 -62 32 -103.5t101 -41.5q63 0 113 42t61 103h124zM752 1121q253 0 358 -103t74 -328l-98 -690h-186l13 155q-81 -72 -206 -121.5t-291 -47.5q-172 3 -254 79.5t-67 204.5q24 229 246.5 330 t643.5 66l6 42q15 140 -48.5 201.5t-231.5 67.5q-188 6 -371 -80l20 143q174 81 392 81zM933 294l33 230q-333 30 -499.5 -20.5t-187.5 -201.5q-13 -97 50.5 -134.5t205.5 -35.5q126 1 231.5 50t166.5 112z" glyph-name="abreve" horiz-adv-x="1336" unicode="ă"/><glyph d="M1136 -147q-3 -45 51.5 -61.5t127.5 1.5l-4 -88q-83 -19 -152.5 -13t-113 42.5t-36.5 92.5q12 127 183 173h-47l-77 322h-719l-167 -322h-221l760 1434h287l358 -1434h-56q-170 -59 -174 -147zM428 474h604l-189 800z" glyph-name="Aogonek" horiz-adv-x="1482" unicode="Ą"/><glyph d="M752 1121q253 0 358 -103t74 -328l-98 -690h-44q-159 -58 -162 -143q-3 -45 51.5 -61.5t127.5 1.5l-4 -88q-83 -19 -152.5 -13t-113 42.5t-36.5 92.5q12 122 169 169h-22l13 155q-81 -72 -206 -121.5t-291 -47.5q-172 3 -254 79.5t-67 204.5q24 229 246.5 330t643.5 66 l6 42q15 140 -48.5 201.5t-231.5 67.5q-188 6 -371 -80l20 143q174 81 392 81zM535 132q126 1 231 49.5t167 112.5l33 230q-333 30 -499.5 -20.5t-187.5 -201.5q-13 -97 51 -134.5t205 -35.5z" glyph-name="aogonek" horiz-adv-x="1336" unicode="ą"/><glyph d="M1355 1876l-311 -307h-155l276 307h190zM1310 1198q-162 94 -355 86q-102 -4 -197 -41t-178.5 -104t-142 -176t-78.5 -246q-16 -114 0.5 -204t55.5 -156.5t99 -111.5t131 -68.5t151 -26.5q190 -8 379 86l-24 -170q-178 -80 -378 -80q-111 0 -211.5 28.5t-185 89 t-142 145.5t-81 205.5t-3.5 262.5q20 141 77.5 262t138.5 206t182.5 145.5t210.5 89t220 28.5q199 0 355 -80z" glyph-name="Cacute" horiz-adv-x="1406" unicode="Ć"/><glyph d="M1200 1550l-310 -307h-156l277 307h189zM1104 899q-129 77 -310 71q-82 -3 -157.5 -29.5t-140 -76t-108.5 -129.5t-58.5 -181t7.5 -181t72.5 -129.5t118.5 -76t149 -29.5q177 -6 330 70l-22 -156q-154 -67 -350 -66q-86 0 -165.5 21t-148 67t-115.5 111t-67 160t-4 209 q15 113 62.5 208t113 160t147 111t166.5 67t171 21q199 0 331 -66z" glyph-name="cacute" horiz-adv-x="1190" unicode="ć"/><glyph d="M890 1732h201l-24 -164h-200zM1310 1198q-162 94 -355 86q-102 -4 -197 -41t-178.5 -104t-142 -176t-78.5 -246q-16 -114 0.5 -204t55.5 -156.5t99 -111.5t131 -68.5t151 -26.5q190 -8 379 86l-24 -170q-178 -80 -378 -80q-111 0 -211.5 28.5t-185 89t-142 145.5 t-81 205.5t-3.5 262.5q20 141 77.5 262t138.5 206t182.5 145.5t210.5 89t220 28.5q199 0 355 -80z" glyph-name="Cdotaccent" horiz-adv-x="1406" unicode="Ċ"/><glyph d="M735 1406h201l-24 -164h-199zM1104 899q-129 77 -310 71q-82 -3 -157.5 -29.5t-140 -76t-108.5 -129.5t-58.5 -181t7.5 -181t72.5 -129.5t118.5 -76t149 -29.5q177 -6 330 70l-22 -156q-154 -67 -350 -66q-86 0 -165.5 21t-148 67t-115.5 111t-67 160t-4 209 q15 113 62.5 208t113 160t147 111t166.5 67t171 21q199 0 331 -66z" glyph-name="cdotaccent" horiz-adv-x="1190" unicode="ċ"/><glyph d="M1182 1875h155l-263 -307h-214l-176 307h157l136 -245zM1310 1198q-162 94 -355 86q-102 -4 -197 -41t-178.5 -104t-142 -176t-78.5 -246q-16 -114 0.5 -204t55.5 -156.5t99 -111.5t131 -68.5t151 -26.5q190 -8 379 86l-24 -170q-178 -80 -378 -80q-111 0 -211.5 28.5 t-185 89t-142 145.5t-81 205.5t-3.5 262.5q20 141 77.5 262t138.5 206t182.5 145.5t210.5 89t220 28.5q199 0 355 -80z" glyph-name="Ccaron" horiz-adv-x="1406" unicode="Č"/><glyph d="M1027 1549h156l-263 -307h-214l-177 307h157l136 -244zM1104 899q-129 77 -310 71q-82 -3 -157.5 -29.5t-140 -76t-108.5 -129.5t-58.5 -181t7.5 -181t72.5 -129.5t118.5 -76t149 -29.5q177 -6 330 70l-22 -156q-154 -67 -350 -66q-86 0 -165.5 21t-148 67t-115.5 111 t-67 160t-4 209q15 113 62.5 208t113 160t147 111t166.5 67t171 21q199 0 331 -66z" glyph-name="ccaron" horiz-adv-x="1190" unicode="č"/><glyph d="M1134 1875h155l-263 -307h-214l-176 307h157l136 -245zM1462 717q-25 -179 -99.5 -319t-183.5 -225.5t-240.5 -129t-280.5 -43.5h-547l200 1434h548q150 0 269.5 -44t204 -131t119.5 -225.5t10 -316.5zM660 154q229 0 391.5 148.5t200.5 414.5q18 134 -5 241.5t-82 177 t-147 107t-199 37.5h-319l-159 -1126h319z" glyph-name="Dcaron" horiz-adv-x="1565" unicode="Ď"/><glyph d="M135 554q19 141 78 251.5t143.5 178.5t184 102.5t208.5 34.5q287 0 375 -207l88 622h195l-216 -1536h-161l21 203q-47 -63 -103.5 -108t-117.5 -68t-118.5 -32t-122.5 -9q-85 0 -159.5 20.5t-137 64t-102 110.5t-56.5 160t1 213zM1679 1415h201l-172 -500h-170zM632 121 q69 0 133 22t122 65.5t102.5 117t66.5 169.5l18 133q6 172 -87 267.5t-233 95.5q-160 0 -283 -116t-152 -321q-29 -206 62 -319.5t251 -113.5z" glyph-name="dcaron" horiz-adv-x="1932" unicode="ď"/><glyph d="M863 1434q119 0 219.5 -28t181.5 -84t132 -142t71 -201.5t-2 -261.5q-19 -144 -72 -263t-128 -202.5t-172 -141t-205 -84t-226 -26.5h-548l94 667h-150l15 100h148l94 667h548zM1256 717q37 266 -84.5 414.5t-348.5 148.5h-320l-72 -513h342l-14 -100h-342l-72 -513h320 q150 0 273.5 64t207.5 192.5t110 306.5z" glyph-name="Dcroat" horiz-adv-x="1568" unicode="Đ"/><glyph d="M1505 1372l-14 -100h-121l-179 -1272h-161l21 203q-47 -63 -103.5 -108t-117.5 -68t-118.5 -32t-122.5 -9q-85 0 -159.5 20.5t-137 64t-102 110.5t-56.5 160t1 213q19 141 78 251.5t143.5 178.5t184 102.5t208.5 34.5q287 0 375 -207l51 358h-389l16 100h387l23 164h195 l-24 -164h122zM1074 628q6 172 -87 267.5t-233 95.5q-160 0 -283 -116t-152 -321q-29 -206 62 -319.5t251 -113.5q69 0 133 22t122 65.5t102.5 117t66.5 169.5z" glyph-name="dcroat" horiz-adv-x="1457" unicode="đ"/><glyph d="M607 1688h518l-17 -120h-517zM341 154h828l-20 -154h-1038l200 1434h1039l-22 -154h-828l-69 -486h744l-22 -154h-743z" glyph-name="Emacron" horiz-adv-x="1414" unicode="Ē"/><glyph d="M1062 1362l-18 -120h-517l17 120h518zM1212 499h-895q-4 -99 31.5 -174.5t98 -119t136.5 -65t159 -21.5q174 -1 323 71l-19 -138q-155 -67 -371 -66q-90 0 -174.5 20.5t-159 65.5t-125.5 110t-74 161t-7 211q15 113 60 208t107.5 160t140 111t159.5 67t166 21 q168 0 287 -75.5t163.5 -213.5t-6.5 -333zM761 988q-143 -2 -259.5 -93.5t-161.5 -255.5h728q18 87 -1 156.5t-66.5 110.5t-108.5 62t-131 20z" glyph-name="emacron" horiz-adv-x="1361" unicode="ē"/><glyph d="M772 1732h201l-24 -164h-199zM341 154h828l-20 -154h-1038l200 1434h1039l-22 -154h-828l-69 -486h744l-22 -154h-743z" glyph-name="Edotaccent" horiz-adv-x="1414" unicode="Ė"/><glyph d="M909 1406l-23 -164h-200l23 164h200zM1212 499h-895q-4 -99 31.5 -174.5t98 -119t136.5 -65t159 -21.5q174 -1 323 71l-19 -138q-155 -67 -371 -66q-90 0 -174.5 20.5t-159 65.5t-125.5 110t-74 161t-7 211q15 113 60 208t107.5 160t140 111t159.5 67t166 21 q168 0 287 -75.5t163.5 -213.5t-6.5 -333zM761 988q-143 -2 -259.5 -93.5t-161.5 -255.5h728q18 87 -1 156.5t-66.5 110.5t-108.5 62t-131 20z" glyph-name="edotaccent" horiz-adv-x="1361" unicode="ė"/><glyph d="M1328 1280h-828l-69 -486h744l-22 -154h-743l-69 -486h828l-20 -154h-461q-170 -59 -174 -147q-3 -45 52 -61.5t127 1.5l-4 -88q-83 -19 -152.5 -13t-112.5 42.5t-37 92.5q12 127 183 173h-459l200 1434h1039z" glyph-name="Eogonek" horiz-adv-x="1414" unicode="Ę"/><glyph d="M1212 499h-895q-4 -99 31.5 -174.5t98 -119t136.5 -65t159 -21.5q174 -1 323 71l-19 -138q-155 -67 -371 -66q-132 -54 -136 -133q-3 -45 51.5 -61.5t127.5 1.5l-4 -88q-83 -19 -152.5 -13t-112.5 42.5t-37 92.5q12 118 159 166q-100 14 -184 54.5t-148.5 107t-93 169.5 t-10.5 230q15 113 60 208t107.5 160t140 111t159.5 67t166 21q168 0 287 -75.5t163.5 -213.5t-6.5 -333zM761 988q-143 -2 -259.5 -93.5t-161.5 -255.5h728q18 87 -1 156.5t-66.5 110.5t-108.5 62t-131 20z" glyph-name="eogonek" horiz-adv-x="1361" unicode="ę"/><glyph d="M1064 1875h156l-264 -307h-214l-176 307h157l136 -245zM341 154h828l-20 -154h-1038l200 1434h1039l-22 -154h-828l-69 -486h744l-22 -154h-743z" glyph-name="Ecaron" horiz-adv-x="1414" unicode="Ě"/><glyph d="M893 1242h-214l-176 307h156l137 -244l204 244h156zM1212 499h-895q-4 -99 31.5 -174.5t98 -119t136.5 -65t159 -21.5q174 -1 323 71l-19 -138q-155 -67 -371 -66q-90 0 -174.5 20.5t-159 65.5t-125.5 110t-74 161t-7 211q15 113 60 208t107.5 160t140 111t159.5 67 t166 21q168 0 287 -75.5t163.5 -213.5t-6.5 -333zM761 988q-143 -2 -259.5 -93.5t-161.5 -255.5h728q18 87 -1 156.5t-66.5 110.5t-108.5 62t-131 20z" glyph-name="ecaron" horiz-adv-x="1361" unicode="ě"/><glyph d="M1298 1817q-27 -110 -114 -179.5t-197.5 -69.5t-179 69.5t-64.5 179.5h124q-5 -62 32 -104t101 -42q63 0 113 42t62 104h123zM868 796h492l-95 -681q-239 -129 -493 -129q-111 0 -211.5 28.5t-185 89t-142 145.5t-81 205.5t-2.5 262.5q25 176 106.5 318.5t196.5 230.5 t250 135t275 47q199 0 355 -80l-22 -160q-162 94 -356 86q-80 -2 -158 -25.5t-150.5 -71t-130.5 -114.5t-99.5 -161.5t-57.5 -204.5q-16 -114 -0.5 -205.5t55 -160t98 -115.5t130.5 -71t152 -26q75 -1 163.5 23t143.5 59l60 432h-313z" glyph-name="Gbreve" horiz-adv-x="1513" unicode="Ğ"/><glyph d="M1139 1491q-27 -110 -114.5 -179.5t-198 -69.5t-178.5 69.5t-64 179.5h124q-5 -62 31.5 -103.5t101.5 -41.5q63 0 113 42t61 103h124zM1153 1108h193l-141 -1000q-19 -136 -80 -241t-150.5 -167t-195.5 -93t-226 -31q-200 0 -335 67l21 148q128 -74 315 -70 q85 2 157.5 22t135 60.5t104.5 111t56 164.5l17 127q-80 -113 -187 -155.5t-245 -42.5q-108 0 -198 34.5t-155 101.5t-93 175.5t-9 245.5q15 114 56 207t98.5 157t130 108t149.5 64t159 20q296 0 394 -207zM322 565q-29 -202 61 -314t251 -112q68 0 135.5 22t127 63.5 t102.5 111.5t56 157l17 130q4 96 -20 168t-70 113.5t-103.5 62t-125.5 20.5q-104 0 -193.5 -45.5t-154.5 -143t-83 -233.5z" glyph-name="gbreve" horiz-adv-x="1440" unicode="ğ"/><glyph d="M908 1732h201l-24 -164h-199zM868 796h492l-95 -681q-239 -129 -493 -129q-111 0 -211.5 28.5t-185 89t-142 145.5t-81 205.5t-2.5 262.5q25 176 106.5 318.5t196.5 230.5t250 135t275 47q199 0 355 -80l-22 -160q-162 94 -356 86q-80 -2 -158 -25.5t-150.5 -71 t-130.5 -114.5t-99.5 -161.5t-57.5 -204.5q-16 -114 -0.5 -205.5t55 -160t98 -115.5t130.5 -71t152 -26q75 -1 163.5 23t143.5 59l60 432h-313z" glyph-name="Gdotaccent" horiz-adv-x="1513" unicode="Ġ"/><glyph d="M749 1406h200l-23 -164h-200zM1153 1108h193l-141 -1000q-19 -136 -80 -241t-150.5 -167t-195.5 -93t-226 -31q-200 0 -335 67l21 148q128 -74 315 -70q85 2 157.5 22t135 60.5t104.5 111t56 164.5l17 127q-80 -113 -187 -155.5t-245 -42.5q-108 0 -198 34.5t-155 101.5 t-93 175.5t-9 245.5q15 114 56 207t98.5 157t130 108t149.5 64t159 20q296 0 394 -207zM322 565q-29 -202 61 -314t251 -112q68 0 135.5 22t127 63.5t102.5 111.5t56 157l17 130q4 96 -20 168t-70 113.5t-103.5 62t-125.5 20.5q-104 0 -193.5 -45.5t-154.5 -143t-83 -233.5z " glyph-name="gdotaccent" horiz-adv-x="1440" unicode="ġ"/><glyph d="M868 796h492l-95 -681q-239 -129 -493 -129q-111 0 -211.5 28.5t-185 89t-142 145.5t-81 205.5t-2.5 262.5q25 176 106.5 318.5t196.5 230.5t250 135t275 47q199 0 355 -80l-22 -160q-162 94 -356 86q-80 -2 -158 -25.5t-150.5 -71t-130.5 -114.5t-99.5 -161.5 t-57.5 -204.5q-16 -114 -0.5 -205.5t55 -160t98 -115.5t130.5 -71t152 -26q75 -1 163.5 23t143.5 59l60 432h-313zM698 -102h183l-157 -454h-154z" glyph-name="Gcommaaccent" horiz-adv-x="1513" unicode="Ģ"/><glyph d="M919 1242h-183l157 454h154zM1153 1108h193l-141 -1000q-19 -136 -80 -241t-150.5 -167t-195.5 -93t-226 -31q-200 0 -335 67l21 148q128 -74 315 -70q85 2 157.5 22t135 60.5t104.5 111t56 164.5l17 127q-80 -113 -187 -155.5t-245 -42.5q-108 0 -198 34.5t-155 101.5 t-93 175.5t-9 245.5q15 114 56 207t98.5 157t130 108t149.5 64t159 20q296 0 394 -207zM322 565q-29 -202 61 -314t251 -112q68 0 135.5 22t127 63.5t102.5 111.5t56 157l17 130q4 96 -20 168t-70 113.5t-103.5 62t-125.5 20.5q-104 0 -193.5 -45.5t-154.5 -143t-83 -233.5z " glyph-name="gcommaaccent" horiz-adv-x="1440" unicode="ģ"/><glyph d="M1611 1192l-15 -101h-169l-152 -1091h-210l90 640h-745l-91 -640h-208l152 1091h-168l15 101h168l33 242h210l-34 -242h746l34 242h209l-34 -242h169zM1177 794l42 297h-746l-42 -297h746z" glyph-name="Hbar" horiz-adv-x="1540" unicode="Ħ"/><glyph d="M925 1121q179 0 271 -111t60 -339l-94 -671h-194l88 627q49 353 -236 353q-63 0 -130.5 -23t-130.5 -66t-113 -115.5t-70 -162.5l-87 -613h-194l179 1272h-121l14 100h121l23 164h195l-23 -164h387l-14 -100h-387l-50 -357q104 120 226.5 163t279.5 43z" glyph-name="hbar" horiz-adv-x="1413" unicode="ħ"/><glyph d="M118 1569q13 98 70 154.5t136 56.5q38 0 76 -16.5t63.5 -37t58.5 -37t62 -16.5q33 0 59.5 30t32.5 72h105q-14 -98 -72.5 -154.5t-134.5 -56.5q-32 0 -68.5 16.5t-63 36.5t-60 36.5t-59.5 16.5q-39 -1 -66.5 -29.5t-33.5 -72.5zM319 0h-208l200 1434h210z" glyph-name="Itilde" horiz-adv-x="584" unicode="Ĩ"/><glyph d="M50 1243q13 98 70 154.5t136 56.5q38 0 76.5 -16.5t64 -37t58 -36.5t61.5 -16q33 0 59.5 29.5t32.5 71.5h106q-14 -98 -72.5 -154.5t-134.5 -56.5q-32 0 -69 17t-63.5 37t-59.5 36.5t-60 16.5q-39 -1 -66 -30t-33 -73zM251 1108h194l-155 -1108h-195z" glyph-name="itilde" horiz-adv-x="540" unicode="ĩ"/><glyph d="M193 1688h518l-18 -120h-517zM319 0h-208l200 1434h210z" glyph-name="Imacron" horiz-adv-x="584" unicode="Ī"/><glyph d="M124 1362h518l-17 -120h-517zM251 1108h194l-155 -1108h-195z" glyph-name="imacron" horiz-adv-x="540" unicode="ī"/><glyph d="M275 0q-170 -59 -174 -147q-3 -45 52 -61.5t128 1.5l-5 -88q-83 -19 -152.5 -13t-112.5 42.5t-37 92.5q12 127 184 173h-47l200 1434h210l-202 -1434h-44z" glyph-name="Iogonek" horiz-adv-x="584" unicode="Į"/><glyph d="M288 1434h241l-20 -145h-242zM111 0l154 1108h195l-155 -1108h-39q-170 -59 -174 -147q-3 -45 52 -61.5t127 1.5l-4 -88q-83 -19 -152.5 -13t-112.5 42.5t-37 92.5q12 127 183 173h-37z" glyph-name="iogonek" horiz-adv-x="570" unicode="į"/><glyph d="M357 1732h201l-23 -164h-200zM319 0h-208l200 1434h210z" glyph-name="Idotaccent" horiz-adv-x="584" unicode="İ"/><glyph d="M251 1108h194l-155 -1108h-195z" glyph-name="dotlessi" horiz-adv-x="540" unicode="ı"/><glyph d="M319 0h-208l200 1434h210zM629 181q117 -45 237 -38q254 8 297 317l136 974h210l-137 -977q-63 -471 -513 -471q-147 0 -253 33z" glyph-name="IJ" horiz-adv-x="1573" unicode="Ĳ"/><glyph d="M1413 1434l-770 -706l568 -728h-238l-554 708l-100 -708h-208l200 1434h210l-96 -686l749 686h239zM426 -556l128 454h182l-156 -454h-154z" glyph-name="Kcommaaccent" horiz-adv-x="1354" unicode="Ķ"/><glyph d="M1246 1108l-571 -473l416 -635h-208l-339 527l-204 -169l-50 -358h-195l216 1536h195l-136 -969l663 541h213zM358 -556l128 454h183l-157 -454h-154z" glyph-name="kcommaaccent" horiz-adv-x="1261" unicode="ķ"/><glyph d="M1246 1108l-571 -473l416 -635h-208l-339 527l-204 -169l-50 -358h-195l156 1108h194l-75 -541l663 541h213z" glyph-name="kgreenlandic" horiz-adv-x="1261" unicode="ĸ"/><glyph d="M1219 1876l-311 -307h-155l276 307h190zM521 1434l-180 -1280h784l-21 -154h-993l200 1434h210z" glyph-name="Lacute" horiz-adv-x="1316" unicode="Ĺ"/><glyph d="M815 1978l-310 -307h-156l277 307h189zM311 1536h195l-216 -1536h-195z" glyph-name="lacute" horiz-adv-x="540" unicode="ĺ"/><glyph d="M521 1434l-180 -1280h784l-21 -154h-993l200 1434h210zM544 -102h182l-157 -454h-153z" glyph-name="Lcommaaccent" horiz-adv-x="1316" unicode="Ļ"/><glyph d="M311 1536h195l-216 -1536h-195zM126 -102h182l-156 -454h-154z" glyph-name="lcommaaccent" horiz-adv-x="540" unicode="ļ"/><glyph d="M521 1434l-180 -1280h784l-21 -154h-993l200 1434h210zM979 1415h201l-172 -500h-170z" glyph-name="Lcaron" horiz-adv-x="1369" unicode="Ľ"/><glyph d="M311 1536h195l-216 -1536h-195zM783 1415h202l-173 -500h-169z" glyph-name="lcaron" horiz-adv-x="1051" unicode="ľ"/><glyph d="M521 1434l-180 -1280h784l-21 -154h-993l200 1434h210zM1028 814h242l-28 -194h-242z" glyph-name="Ldot" horiz-adv-x="1421" unicode="Ŀ"/><glyph d="M311 1536h195l-216 -1536h-195zM507 865h242l-28 -194h-242z" glyph-name="ldot" horiz-adv-x="877" unicode="ŀ"/><glyph d="M341 154h784l-21 -154h-993l96 689l-131 -16l12 93l132 16l91 652h210l-88 -625l480 59l-13 -93l-480 -59z" glyph-name="Lslash" horiz-adv-x="1316" unicode="Ł"/><glyph d="M567 884l-13 -93l-158 -31l-106 -760h-195l102 720l-159 -32l13 93l159 32l101 723h195l-96 -684z" glyph-name="lslash" horiz-adv-x="540" unicode="ł"/><glyph d="M1330 1876l-310 -307h-156l277 307h189zM1326 1434h209l-201 -1434h-219l-637 1130l-159 -1130h-208l200 1434h219l638 -1124z" glyph-name="Nacute" horiz-adv-x="1599" unicode="Ń"/><glyph d="M1191 1550l-310 -307h-156l276 307h190zM289 0h-194l156 1108h194l-26 -193q104 120 226.5 163t279.5 43q179 0 271 -111t60 -339l-94 -671h-194l88 627q49 353 -236 353q-63 0 -130.5 -23t-130.5 -66t-113 -115.5t-70 -162.5z" glyph-name="nacute" horiz-adv-x="1412" unicode="ń"/><glyph d="M1326 1434h209l-201 -1434h-219l-637 1130l-159 -1130h-208l200 1434h219l638 -1124zM655 -102h183l-157 -454h-154z" glyph-name="Ncommaaccent" horiz-adv-x="1599" unicode="Ņ"/><glyph d="M289 0h-194l156 1108h194l-26 -193q104 120 226.5 163t279.5 43q179 0 271 -111t60 -339l-94 -671h-194l88 627q49 353 -236 353q-63 0 -130.5 -23t-130.5 -66t-113 -115.5t-70 -162.5zM562 -102h182l-156 -454h-154z" glyph-name="ncommaaccent" horiz-adv-x="1412" unicode="ņ"/><glyph d="M1156 1875h156l-263 -307h-214l-177 307h157l136 -245zM1326 1434h209l-201 -1434h-219l-637 1130l-159 -1130h-208l200 1434h219l638 -1124z" glyph-name="Ncaron" horiz-adv-x="1599" unicode="Ň"/><glyph d="M1018 1549h156l-264 -307h-214l-176 307h157l136 -244zM289 0h-194l156 1108h194l-26 -193q104 120 226.5 163t279.5 43q179 0 271 -111t60 -339l-94 -671h-194l88 627q49 353 -236 353q-63 0 -130.5 -23t-130.5 -66t-113 -115.5t-70 -162.5z" glyph-name="ncaron" horiz-adv-x="1412" unicode="ň"/><glyph d="M397 1536h202l-173 -499h-169zM656 0h-193l155 1108h195l-27 -193q104 120 227 163t279 43q179 0 271.5 -111t60.5 -339l-94 -671h-195l88 627q49 353 -235 353q-63 0 -131 -23t-131 -66t-112.5 -115.5t-70.5 -162.5z" glyph-name="napostrophe" horiz-adv-x="1780" unicode="ŉ"/><glyph d="M1535 1434l-201 -1434h-1l-2 -14q-19 -142 -99 -199.5t-211 -56.5q-82 0 -138 26l20 88q63 -12 112 -2q62 4 87 41t38 117h-25l-637 1130l-159 -1130h-208l200 1434h219l638 -1124l158 1124h209z" glyph-name="Eng" horiz-adv-x="1599" unicode="Ŋ"/><glyph d="M925 1121q179 0 271 -111t60 -339l-19 -141l-68 -478l-7 -52l-2 -14q-20 -142 -100 -199.5t-210 -56.5q-81 0 -139 26l21 88q62 -12 111 -2q62 4 87.5 41t37.5 117l88 627q49 353 -236 353q-63 0 -130.5 -23t-130.5 -66t-113 -115.5t-70 -162.5l-87 -613h-194l156 1108 h194l-26 -193q104 120 226.5 163t279.5 43z" glyph-name="eng" horiz-adv-x="1413" unicode="ŋ"/><glyph d="M752 1688h518l-18 -120h-517zM1601 717q-20 -143 -78 -264t-139.5 -206t-183 -145t-210 -88t-219.5 -28t-210.5 28t-184 88t-142 145t-81.5 205.5t-3 264.5q25 176 106.5 318.5t196.5 230.5t250 135t275 47q111 0 211.5 -28.5t184.5 -89t141.5 -145.5t81 -206t4.5 -262z M794 139q101 0 198.5 38t179.5 108t140.5 182.5t78 249.5t-8 249t-90.5 183t-149.5 108t-187 37t-197 -37t-179 -108t-141.5 -183t-79 -249q-16 -114 -1 -205.5t54 -161t97.5 -117t131 -71t153.5 -23.5z" glyph-name="Omacron" horiz-adv-x="1703" unicode="Ō"/><glyph d="M569 1362h518l-17 -120h-517zM1295 554q-16 -116 -63 -212t-112.5 -161t-147.5 -110t-166.5 -65t-170.5 -20t-164.5 20t-147.5 65t-116 110t-67.5 161t-4.5 212q16 113 63 208t112.5 160t147 111t166.5 67t171 21t165 -21t148 -67t116 -111t66.5 -160t4.5 -208zM654 121 q104 0 197 47.5t161.5 148t88.5 237.5q28 202 -67.5 317.5t-257.5 115.5q-78 0 -151 -28.5t-134 -82.5t-104 -137.5t-57 -184.5q-14 -103 5.5 -187t65.5 -137t111 -81t142 -28z" glyph-name="omacron" horiz-adv-x="1430" unicode="ō"/><glyph d="M1070 1890l-209 -322h-135l207 322h137zM1310 1890l-210 -322h-135l206 322h139zM1601 717q-20 -143 -78 -264t-139.5 -206t-183 -145t-210 -88t-219.5 -28t-210.5 28t-184 88t-142 145t-81.5 205.5t-3 264.5q25 176 106.5 318.5t196.5 230.5t250 135t275 47 q111 0 211.5 -28.5t184.5 -89t141.5 -145.5t81 -206t4.5 -262zM794 139q101 0 198.5 38t179.5 108t140.5 182.5t78 249.5t-8 249t-90.5 183t-149.5 108t-187 37t-197 -37t-179 -108t-141.5 -183t-79 -249q-16 -114 -1 -205.5t54 -161t97.5 -117t131 -71t153.5 -23.5z" glyph-name="Ohungarumlaut" horiz-adv-x="1703" unicode="Ő"/><glyph d="M888 1565l-209 -323h-135l207 323h137zM1127 1565l-209 -323h-136l207 323h138zM1295 554q-16 -116 -63 -212t-112.5 -161t-147.5 -110t-166.5 -65t-170.5 -20t-164.5 20t-147.5 65t-116 110t-67.5 161t-4.5 212q16 113 63 208t112.5 160t147 111t166.5 67t171 21 t165 -21t148 -67t116 -111t66.5 -160t4.5 -208zM654 121q104 0 197 47.5t161.5 148t88.5 237.5q28 202 -67.5 317.5t-257.5 115.5q-78 0 -151 -28.5t-134 -82.5t-104 -137.5t-57 -184.5q-14 -103 5.5 -187t65.5 -137t111 -81t142 -28z" glyph-name="ohungarumlaut" horiz-adv-x="1430" unicode="ő"/><glyph d="M1672 1280l-62 -444q0 -13 -2 -42h739l-21 -154h-739q-2 -6 -5.5 -21t-5.5 -23l-63 -442h830l-22 -154h-1038l25 176q-115 -94 -254.5 -142t-282.5 -48q-111 0 -210.5 28t-184 88t-142 145t-81.5 205.5t-3 264.5q25 176 106.5 318.5t196.5 230.5t250 135t275 47 q143 0 268.5 -48.5t212.5 -143.5l25 178h1039l-21 -154h-830zM794 139q190 0 351.5 124t222.5 346l31 215q0 113 -36 203.5t-97.5 148t-140.5 88t-170 30.5q-100 0 -196.5 -37t-179 -108t-141.5 -183t-79 -249q-16 -114 -1 -205.5t54 -161t97.5 -117t131 -71t153.5 -23.5z " glyph-name="OE" horiz-adv-x="2587" unicode="Œ"/><glyph d="M2211 499h-895q-4 -99 31 -174.5t97.5 -119t137 -65t159.5 -21.5q174 -1 322 71l-19 -138q-155 -67 -371 -66q-161 0 -297 66t-201 194q-95 -129 -241.5 -194.5t-298.5 -65.5q-86 0 -164.5 20t-147.5 65t-116 110t-67.5 161t-4.5 212q16 113 63 208t112.5 160t147 111 t166.5 67t171 21q151 0 275.5 -64.5t184.5 -189.5q91 125 228.5 189.5t282.5 64.5q168 0 287 -75.5t164 -213.5t-6 -333zM1759 988q-143 -2 -259.5 -93.5t-161.5 -255.5h728q18 87 -1 156.5t-66 110.5t-108.5 62t-131.5 20zM1101 554q28 202 -67.5 317.5t-257.5 115.5 q-78 0 -151 -28.5t-134 -82.5t-104 -137.5t-57 -184.5q-14 -103 5.5 -187t65.5 -137t111.5 -81t141.5 -28q104 0 197 47.5t162 148t88 237.5z" glyph-name="oe" horiz-adv-x="2364" unicode="œ"/><glyph d="M1257 1876l-310 -307h-155l276 307h189zM1362 992q-20 -156 -112.5 -256t-265.5 -153l271 -583h-214l-251 539q-160 -25 -399 -28l-72 -511h-208l200 1434h608q231 0 352 -117t91 -325zM1152 992q19 139 -53 217.5t-212 78.5h-386l-89 -632q378 3 546.5 80.5t193.5 255.5 z" glyph-name="Racute" horiz-adv-x="1460" unicode="Ŕ"/><glyph d="M944 1550l-310 -307h-156l277 307h189zM289 0h-194l156 1108h190l-26 -193q105 116 225 161t265 45l-19 -140q-72 3 -151.5 -20.5t-152 -68t-129.5 -118t-77 -161.5z" glyph-name="racute" horiz-adv-x="910" unicode="ŕ"/><glyph d="M1362 992q-20 -156 -112.5 -256t-265.5 -153l271 -583h-214l-251 539q-160 -25 -399 -28l-72 -511h-208l200 1434h608q231 0 352 -117t91 -325zM1152 992q19 139 -53 217.5t-212 78.5h-386l-89 -632q378 3 546.5 80.5t193.5 255.5zM455 -556l128 454h182l-157 -454h-153z " glyph-name="Rcommaaccent" horiz-adv-x="1460" unicode="Ŗ"/><glyph d="M289 0h-194l156 1108h190l-26 -193q105 116 225 161t265 45l-19 -140q-72 3 -151.5 -20.5t-152 -68t-129.5 -118t-77 -161.5zM315 -102h183l-157 -454h-154z" glyph-name="rcommaaccent" horiz-adv-x="910" unicode="ŗ"/><glyph d="M976 1568h-214l-176 307h156l137 -245l204 245h156zM1362 992q-20 -156 -112.5 -256t-265.5 -153l271 -583h-214l-251 539q-160 -25 -399 -28l-72 -511h-208l200 1434h608q231 0 352 -117t91 -325zM1152 992q19 139 -53 217.5t-212 78.5h-386l-89 -632q378 3 546.5 80.5 t193.5 255.5z" glyph-name="Rcaron" horiz-adv-x="1460" unicode="Ř"/><glyph d="M771 1549h156l-263 -307h-214l-177 307h157l136 -244zM289 0h-194l156 1108h190l-26 -193q105 116 225 161t265 45l-19 -140q-72 3 -151.5 -20.5t-152 -68t-129.5 -118t-77 -161.5z" glyph-name="rcaron" horiz-adv-x="910" unicode="ř"/><glyph d="M1191 1876l-310 -307h-156l276 307h190zM98 276q185 -136 443 -136q94 0 185 28t157 82.5t78 123.5q5 34 -2.5 63t-21 50.5t-42 42t-54.5 34t-70 29.5t-75.5 26t-85.5 25.5t-88 27.5q-87 30 -149 63.5t-108 79.5t-63 107.5t-3 138.5q30 175 189 281t414 106 q216 0 375 -98l-25 -169q-169 115 -373 113q-155 0 -256.5 -66t-121.5 -177q-20 -109 106 -177q63 -34 244 -87q20 -6 32 -10q104 -32 175 -65.5t125 -82t73.5 -116.5t3.5 -156q-16 -89 -78.5 -161.5t-152.5 -117t-195.5 -68t-214.5 -23.5q-276 0 -446 117z" glyph-name="Sacute" horiz-adv-x="1313" unicode="Ś"/><glyph d="M1068 1550l-310 -307h-156l277 307h189zM102 219q148 -84 362 -90q119 -4 210 37t106 118q5 30 0.5 53.5t-24 42.5t-39.5 32.5t-60 28t-69 23.5t-83 23q-15 4 -23 7q-172 45 -249.5 125t-59.5 204q22 142 158 220t345 78q213 0 340 -77l-22 -155q-134 86 -321 90 q-129 3 -209.5 -35t-93.5 -122q-6 -40 10.5 -71t61 -56.5t95.5 -44t135 -43.5q89 -26 144.5 -50.5t98 -60.5t57.5 -86t5 -117q-14 -94 -91 -165.5t-184.5 -106.5t-226.5 -35q-113 0 -221 21.5t-173 57.5z" glyph-name="sacute" horiz-adv-x="1148" unicode="ś"/><glyph d="M783 777q104 -32 175 -65.5t125 -82t73.5 -116.5t3.5 -156q-15 -86 -73 -155.5t-142 -114.5t-183 -70t-204 -29l-59 -58q8 1 35 1q66 0 101.5 -29t28.5 -82q-9 -62 -67.5 -94.5t-157.5 -32.5q-51 0 -106 9l10 70q37 -6 81 -6q116 0 124 57q4 31 -19 42t-76 11 q-28 0 -42 -1l7 52l61 61q-248 8 -406 116l25 172q185 -136 443 -136q94 0 185 28t157 82.5t78 123.5q5 34 -2.5 63t-21 50.5t-42 42t-54.5 34t-70 29.5t-75.5 26t-85.5 25.5t-88 27.5q-87 30 -149 63.5t-108 79.5t-63 107.5t-3 138.5q30 175 189 281t414 106q216 0 375 -98 l-25 -169q-169 115 -373 113q-155 0 -256.5 -66t-121.5 -177q-20 -109 106 -177q63 -34 244 -87q20 -6 32 -10z" glyph-name="Scedilla" horiz-adv-x="1313" unicode="Ş"/><glyph d="M673 979q-129 3 -209.5 -35t-93.5 -122q-6 -40 10.5 -71t61 -56.5t95.5 -44t135 -43.5q89 -26 144.5 -50.5t98 -60.5t57.5 -86t5 -117q-13 -88 -82 -156.5t-166 -105.5t-209 -44l-59 -57q8 1 35 1q66 0 101.5 -29t28.5 -82q-9 -62 -67.5 -94.5t-157.5 -32.5q-51 0 -106 9 l10 70q37 -6 81 -6q116 0 124 57q4 31 -19 42t-76 11q-28 0 -42 -1l7 52l60 60q-104 3 -202 24t-157 54l21 154q148 -84 362 -90q119 -4 210 37t106 118q5 30 0.5 53.5t-24 42.5t-39.5 32.5t-60 28t-69 23.5t-83 23q-15 4 -23 7q-172 45 -249.5 125t-59.5 204 q22 142 158 220t345 78q213 0 340 -77l-22 -155q-134 86 -321 90z" glyph-name="scedilla" horiz-adv-x="1148" unicode="ş"/><glyph d="M1017 1875h155l-263 -307h-214l-176 307h157l136 -245zM98 276q185 -136 443 -136q94 0 185 28t157 82.5t78 123.5q5 34 -2.5 63t-21 50.5t-42 42t-54.5 34t-70 29.5t-75.5 26t-85.5 25.5t-88 27.5q-87 30 -149 63.5t-108 79.5t-63 107.5t-3 138.5q30 175 189 281 t414 106q216 0 375 -98l-25 -169q-169 115 -373 113q-155 0 -256.5 -66t-121.5 -177q-20 -109 106 -177q63 -34 244 -87q20 -6 32 -10q104 -32 175 -65.5t125 -82t73.5 -116.5t3.5 -156q-16 -89 -78.5 -161.5t-152.5 -117t-195.5 -68t-214.5 -23.5q-276 0 -446 117z" glyph-name="Scaron" horiz-adv-x="1313" unicode="Š"/><glyph d="M895 1549h156l-264 -307h-214l-176 307h157l136 -244zM102 219q148 -84 362 -90q119 -4 210 37t106 118q5 30 0.5 53.5t-24 42.5t-39.5 32.5t-60 28t-69 23.5t-83 23q-15 4 -23 7q-172 45 -249.5 125t-59.5 204q22 142 158 220t345 78q213 0 340 -77l-22 -155 q-134 86 -321 90q-129 3 -209.5 -35t-93.5 -122q-6 -40 10.5 -71t61 -56.5t95.5 -44t135 -43.5q89 -26 144.5 -50.5t98 -60.5t57.5 -86t5 -117q-14 -94 -91 -165.5t-184.5 -106.5t-226.5 -35q-113 0 -221 21.5t-173 57.5z" glyph-name="scaron" horiz-adv-x="1148" unicode="š"/><glyph d="M603 0h-67l-73 -70q8 1 35 1q66 0 101.5 -29t28.5 -82q-9 -62 -67.5 -94.5t-157.5 -32.5q-51 0 -106 9l10 70q37 -6 81 -6q116 0 124 57q4 31 -19 42t-76 11q-28 0 -42 -1l7 52l75 73h-64l180 1280h-429l22 154h1067l-22 -154h-429z" glyph-name="Tcommaaccent" horiz-adv-x="1152" unicode="Ţ"/><glyph d="M563 970l-97 -691q-9 -68 18 -108t82 -40h195l-19 -131h-240l-73 -70q8 1 35 1q66 0 101.5 -29t28.5 -82q-9 -62 -67.5 -94.5t-156.5 -32.5q-51 0 -107 9l10 70q37 -6 81 -6q116 0 124 57q4 31 -19 42t-76 11q-28 0 -42 -1l7 52l75 73q-86 4 -129.5 66.5t-29.5 161.5 l105 742h-174l18 138h175l31 217h194l-30 -217h315l-18 -138h-317z" glyph-name="tcommaaccent" horiz-adv-x="993" unicode="ţ"/><glyph d="M824 1568h-214l-176 307h157l136 -245l205 245h155zM1233 1434l-22 -154h-429l-179 -1280h-210l180 1280h-429l22 154h1067z" glyph-name="Tcaron" horiz-adv-x="1152" unicode="Ť"/><glyph d="M1136 1415h200l-172 -500h-169zM742 0h-310q-90 0 -136 63.5t-32 164.5l105 742h-174l18 138h175l31 217h194l-30 -217h315l-18 -138h-317l-97 -691q-9 -68 18 -108t82 -40h195z" glyph-name="tcaron" horiz-adv-x="1403" unicode="ť"/><glyph d="M1211 1280h-429l-69 -497h386l-14 -100h-387l-95 -683h-210l96 683h-363l14 100h364l69 497h-429l22 154h1067z" glyph-name="Tbar" horiz-adv-x="1152" unicode="Ŧ"/><glyph d="M880 970h-317l-21 -156h315l-14 -101h-316l-61 -434q-9 -68 18 -108t82 -40h195l-19 -131h-310q-90 0 -136 63.5t-32 164.5l69 485h-175l14 101h175l22 156h-174l18 138h175l31 217h194l-30 -217h315z" glyph-name="tbar" horiz-adv-x="993" unicode="ŧ"/><glyph d="M579 1569q13 98 70 154.5t135 56.5q38 0 76.5 -16.5t64 -37t58.5 -37t61 -16.5q33 0 59.5 30t33.5 72h105q-14 -98 -72.5 -154.5t-134.5 -56.5q-32 0 -68.5 16.5t-63 36.5t-60 36.5t-60.5 16.5q-39 -1 -66 -29.5t-33 -72.5zM1442 1434l-123 -871q-42 -306 -198.5 -441.5 t-447.5 -135.5q-290 0 -408.5 135.5t-76.5 441.5l123 871h210l-127 -905q-28 -201 42.5 -295.5t258 -94.5t285 95t125.5 295l127 905h210z" glyph-name="Utilde" horiz-adv-x="1506" unicode="Ũ"/><glyph d="M467 1243q13 98 70 154.5t136 56.5q38 0 76 -16.5t64.5 -37t58.5 -36.5t61 -16q34 0 60 29.5t32 71.5h105q-14 -98 -72.5 -154.5t-133.5 -56.5q-32 0 -69 17t-63.5 37t-60 36.5t-59.5 16.5q-39 -1 -66 -30t-34 -73zM1123 1108h194l-156 -1108h-194l26 193 q-104 -120 -226.5 -163t-279.5 -43q-179 0 -271 111t-60 339l94 671h194l-88 -627q-49 -353 236 -353q63 0 131 23t130.5 66t112.5 115t70 163z" glyph-name="utilde" horiz-adv-x="1412" unicode="ũ"/><glyph d="M653 1688h518l-17 -120h-517zM1442 1434l-123 -871q-42 -306 -198.5 -441.5t-447.5 -135.5q-290 0 -408.5 135.5t-76.5 441.5l123 871h210l-127 -905q-28 -201 42.5 -295.5t258 -94.5t285 95t125.5 295l127 905h210z" glyph-name="Umacron" horiz-adv-x="1506" unicode="Ū"/><glyph d="M542 1362h518l-18 -120h-517zM1123 1108h194l-156 -1108h-194l26 193q-104 -120 -226.5 -163t-279.5 -43q-179 0 -271 111t-60 339l94 671h194l-88 -627q-49 -353 236 -353q63 0 131 23t130.5 66t112.5 115t70 163z" glyph-name="umacron" horiz-adv-x="1412" unicode="ū"/><glyph d="M896 1568q-85 0 -137.5 61t-40.5 146q12 86 81 146.5t155 60.5q85 0 137.5 -60.5t40.5 -146.5q-12 -85 -81.5 -146t-154.5 -61zM910 1669q44 0 80 31.5t41 74.5q6 44 -20.5 75t-70.5 31t-80 -31t-42 -75q-5 -43 21.5 -74.5t70.5 -31.5zM1442 1434l-123 -871 q-42 -306 -198.5 -441.5t-447.5 -135.5q-290 0 -408.5 135.5t-76.5 441.5l123 871h210l-127 -905q-28 -201 42.5 -295.5t258 -94.5t285 95t125.5 295l127 905h210z" glyph-name="Uring" horiz-adv-x="1506" unicode="Ů"/><glyph d="M784 1242q-85 0 -137.5 61t-40.5 146q12 86 81.5 147t155.5 61q85 0 137 -61t40 -147q-12 -85 -81.5 -146t-154.5 -61zM799 1343q44 0 79.5 31.5t41.5 74.5q6 44 -21 75t-71 31t-79.5 -31t-41.5 -75q-5 -43 21.5 -74.5t70.5 -31.5zM1123 1108h194l-156 -1108h-194l26 193 q-104 -120 -226.5 -163t-279.5 -43q-179 0 -271 111t-60 339l94 671h194l-88 -627q-49 -353 236 -353q63 0 131 23t130.5 66t112.5 115t70 163z" glyph-name="uring" horiz-adv-x="1412" unicode="ů"/><glyph d="M971 1890l-209 -322h-135l207 322h137zM1210 1890l-210 -322h-135l207 322h138zM1442 1434l-123 -871q-42 -306 -198.5 -441.5t-447.5 -135.5q-290 0 -408.5 135.5t-76.5 441.5l123 871h210l-127 -905q-28 -201 42.5 -295.5t258 -94.5t285 95t125.5 295l127 905h210z" glyph-name="Uhungarumlaut" horiz-adv-x="1506" unicode="Ű"/><glyph d="M859 1565l-209 -323h-135l207 323h137zM1099 1565l-210 -323h-135l207 323h138zM1123 1108h194l-156 -1108h-194l26 193q-104 -120 -226.5 -163t-279.5 -43q-179 0 -271 111t-60 339l94 671h194l-88 -627q-49 -353 236 -353q63 0 131 23t130.5 66t112.5 115t70 163z" glyph-name="uhungarumlaut" horiz-adv-x="1412" unicode="ű"/><glyph d="M1232 1434h210l-123 -871q-41 -300 -192 -436t-431 -141q-132 -54 -136 -133q-3 -45 52 -61.5t127 1.5l-4 -88q-83 -19 -152.5 -13t-112.5 42.5t-37 92.5q10 113 149 162q-239 19 -335.5 156t-58.5 418l123 871h210l-127 -905q-28 -201 42.5 -295.5t258 -94.5t285 95 t125.5 295z" glyph-name="Uogonek" horiz-adv-x="1506" unicode="Ų"/><glyph d="M1126 0q-170 -59 -174 -147q-3 -45 52 -61.5t128 1.5l-5 -88q-83 -19 -152.5 -13t-112.5 42.5t-37 92.5q12 127 184 173h-42l26 193q-104 -120 -226.5 -163t-279.5 -43q-179 0 -271 111t-60 339l94 671h194l-88 -627q-49 -353 236 -353q63 0 131 23t130.5 66t112.5 115 t70 163l87 613h194l-156 -1108h-35z" glyph-name="uogonek" horiz-adv-x="1412" unicode="ų"/><glyph d="M1479 1568h-156l-136 246l-205 -246h-156l264 307h214zM1883 1434h219l-607 -1434h-228l-169 1177l-499 -1177h-228l-205 1434h219l146 -1162l484 1162h238l158 -1162z" glyph-name="Wcircumflex" horiz-adv-x="2021" unicode="Ŵ"/><glyph d="M1338 1242h-155l-136 246l-205 -246h-156l263 307h214zM1610 1108h207l-487 -1108h-230l-136 899l-389 -899h-229l-175 1108h207l132 -906l381 906h206l132 -906z" glyph-name="wcircumflex" horiz-adv-x="1831" unicode="ŵ"/><glyph d="M1133 1568h-156l-136 246l-205 -246h-156l263 307h214zM1187 1434h223l-640 -874l-78 -560h-210l79 560l-395 874h224l303 -674z" glyph-name="Ycircumflex" horiz-adv-x="1329" unicode="Ŷ"/><glyph d="M1064 1242h-156l-136 246l-205 -246h-155l263 307h214zM1063 1108h206l-591 -1057q-36 -65 -72 -116.5t-94.5 -113t-123 -103t-157.5 -69.5t-197 -28l11 131q278 10 409 303l-283 1053h207l216 -870z" glyph-name="ycircumflex" horiz-adv-x="1284" unicode="ŷ"/><glyph d="M538 1732h200l-23 -164h-200zM923 1732h199l-22 -164h-201zM1187 1434h223l-640 -874l-78 -560h-210l79 560l-395 874h224l303 -674z" glyph-name="Ydieresis" horiz-adv-x="1329" unicode="Ÿ"/><glyph d="M1254 1876l-310 -307h-156l277 307h189zM1384 1434l-21 -154l-972 -1126h813l-21 -154h-1072l20 154l968 1126h-809l21 154h1073z" glyph-name="Zacute" horiz-adv-x="1448" unicode="Ź"/><glyph d="M1103 1549l-310 -307h-156l276 307h190zM1177 1108l-19 -138l-840 -832h723l-19 -138h-964l19 138l839 832h-721l18 138h964z" glyph-name="zacute" horiz-adv-x="1234" unicode="ź"/><glyph d="M989 1732l-23 -164h-200l22 164h201zM1384 1434l-21 -154l-972 -1126h813l-21 -154h-1072l20 154l968 1126h-809l21 154h1073z" glyph-name="Zdotaccent" horiz-adv-x="1448" unicode="Ż"/><glyph d="M838 1406l-24 -164h-200l23 164h201zM1177 1108l-19 -138l-840 -832h723l-19 -138h-964l19 138l839 832h-721l18 138h964z" glyph-name="zdotaccent" horiz-adv-x="1234" unicode="ż"/><glyph d="M973 1568h-214l-176 307h156l137 -245l204 245h156zM1384 1434l-21 -154l-972 -1126h813l-21 -154h-1072l20 154l968 1126h-809l21 154h1073z" glyph-name="Zcaron" horiz-adv-x="1448" unicode="Ž"/><glyph d="M821 1242h-214l-176 307h157l136 -244l205 244h155zM1177 1108l-19 -138l-840 -832h723l-19 -138h-964l19 138l839 832h-721l18 138h964z" glyph-name="zcaron" horiz-adv-x="1234" unicode="ž"/><glyph d="M1075 1330q84 0 133 -25l-40 -90q-55 13 -111 4q-63 -5 -96.5 -41.5t-62.5 -116.5l-166 -466h305l-15 -101h-326l-170 -480q-51 -142 -143 -199t-223 -57q-84 2 -132 27l40 88q60 -12 110 -2q65 5 98 41.5t61 116.5l166 465h-253l15 101h274l171 479q51 142 142.5 199.5 t222.5 56.5z" glyph-name="florin" horiz-adv-x="1238" unicode="ƒ"/><glyph d="M598 783l-14 -100h-168l-97 -683h-208l95 683h-168l13 100h169l91 651h210l-91 -651h168z" glyph-name="uni0197" horiz-adv-x="584" unicode="Ɨ"/><glyph d="M990 1568h-214l-176 307h157l136 -245l205 245h155zM1145 0l-77 322h-719l-167 -322h-221l760 1434h287l358 -1434h-221zM428 474h604l-189 800z" glyph-name="uni01CD" horiz-adv-x="1482" unicode="Ǎ"/><glyph d="M983 1549h156l-263 -307h-214l-177 307h157l136 -244zM752 1121q253 0 358 -103t74 -328l-98 -690h-186l13 155q-81 -72 -206 -121.5t-291 -47.5q-172 3 -254 79.5t-67 204.5q24 229 246.5 330t643.5 66l6 42q15 140 -48.5 201.5t-231.5 67.5q-188 6 -371 -80l20 143 q174 81 392 81zM933 294l33 230q-333 30 -499.5 -20.5t-187.5 -201.5q-13 -97 50.5 -134.5t205.5 -35.5q126 1 231.5 50t166.5 112z" glyph-name="uni01CE" horiz-adv-x="1336" unicode="ǎ"/><glyph d="M649 1875h156l-263 -307h-214l-176 307h156l136 -245zM319 0h-208l200 1434h210z" glyph-name="uni01CF" horiz-adv-x="584" unicode="Ǐ"/><glyph d="M581 1549h155l-263 -307h-214l-176 307h157l136 -244zM251 1108h194l-155 -1108h-195z" glyph-name="uni01D0" horiz-adv-x="540" unicode="ǐ"/><glyph d="M1208 1875h156l-263 -307h-214l-176 307h156l137 -245zM1601 717q-20 -143 -78 -264t-139.5 -206t-183 -145t-210 -88t-219.5 -28t-210.5 28t-184 88t-142 145t-81.5 205.5t-3 264.5q25 176 106.5 318.5t196.5 230.5t250 135t275 47q111 0 211.5 -28.5t184.5 -89 t141.5 -145.5t81 -206t4.5 -262zM794 139q101 0 198.5 38t179.5 108t140.5 182.5t78 249.5t-8 249t-90.5 183t-149.5 108t-187 37t-197 -37t-179 -108t-141.5 -183t-79 -249q-16 -114 -1 -205.5t54 -161t97.5 -117t131 -71t153.5 -23.5z" glyph-name="uni01D1" horiz-adv-x="1703" unicode="Ǒ"/><glyph d="M1026 1549h156l-263 -307h-214l-177 307h157l136 -244zM1295 554q-16 -116 -63 -212t-112.5 -161t-147.5 -110t-166.5 -65t-170.5 -20t-164.5 20t-147.5 65t-116 110t-67.5 161t-4.5 212q16 113 63 208t112.5 160t147 111t166.5 67t171 21t165 -21t148 -67t116 -111 t66.5 -160t4.5 -208zM654 121q104 0 197 47.5t161.5 148t88.5 237.5q28 202 -67.5 317.5t-257.5 115.5q-78 0 -151 -28.5t-134 -82.5t-104 -137.5t-57 -184.5q-14 -103 5.5 -187t65.5 -137t111 -81t142 -28z" glyph-name="uni01D2" horiz-adv-x="1430" unicode="ǒ"/><glyph d="M1110 1875h156l-264 -307h-214l-176 307h157l136 -245zM1442 1434l-123 -871q-42 -306 -198.5 -441.5t-447.5 -135.5q-290 0 -408.5 135.5t-76.5 441.5l123 871h210l-127 -905q-28 -201 42.5 -295.5t258 -94.5t285 95t125.5 295l127 905h210z" glyph-name="uni01D3" horiz-adv-x="1506" unicode="Ǔ"/><glyph d="M998 1549h156l-263 -307h-214l-176 307h156l137 -244zM1123 1108h194l-156 -1108h-194l26 193q-104 -120 -226.5 -163t-279.5 -43q-179 0 -271 111t-60 339l94 671h194l-88 -627q-49 -353 236 -353q63 0 131 23t130.5 66t112.5 115t70 163z" glyph-name="uni01D4" horiz-adv-x="1412" unicode="ǔ"/><glyph d="M1199 1875h156l-263 -307h-214l-177 307h157l136 -245zM868 796h492l-95 -681q-239 -129 -493 -129q-111 0 -211.5 28.5t-185 89t-142 145.5t-81 205.5t-2.5 262.5q25 176 106.5 318.5t196.5 230.5t250 135t275 47q199 0 355 -80l-22 -160q-162 94 -356 86 q-80 -2 -158 -25.5t-150.5 -71t-130.5 -114.5t-99.5 -161.5t-57.5 -204.5q-16 -114 -0.5 -205.5t55 -160t98 -115.5t130.5 -71t152 -26q75 -1 163.5 23t143.5 59l60 432h-313z" glyph-name="Gcaron" horiz-adv-x="1513" unicode="Ǧ"/><glyph d="M1040 1549h156l-263 -307h-214l-176 307h156l137 -244zM1153 1108h193l-141 -1000q-19 -136 -80 -241t-150.5 -167t-195.5 -93t-226 -31q-200 0 -335 67l21 148q128 -74 315 -70q85 2 157.5 22t135 60.5t104.5 111t56 164.5l17 127q-80 -113 -187 -155.5t-245 -42.5 q-108 0 -198 34.5t-155 101.5t-93 175.5t-9 245.5q15 114 56 207t98.5 157t130 108t149.5 64t159 20q296 0 394 -207zM322 565q-29 -202 61 -314t251 -112q68 0 135.5 22t127 63.5t102.5 111.5t56 157l17 130q4 96 -20 168t-70 113.5t-103.5 62t-125.5 20.5 q-104 0 -193.5 -45.5t-154.5 -143t-83 -233.5z" glyph-name="gcaron" horiz-adv-x="1440" unicode="ǧ"/><glyph d="M1427 1876l-310 -307h-155l276 307h189zM1707 1280h-648l-69 -486h578l-22 -154h-577l-69 -486h648l-20 -154h-858l45 322h-366l-167 -322h-221l760 1434h1008zM429 474h306l-19 -145l133 954z" glyph-name="AEacute" horiz-adv-x="1793" unicode="Ǽ"/><glyph d="M1627 1549l-310 -307h-156l277 307h189zM2133 499h-895q-4 -99 31.5 -174.5t98 -119t136.5 -65t159 -21.5q174 -1 323 71l-20 -138q-155 -67 -371 -66q-150 0 -279 57t-200 169l-30 -212h-186l13 155q-81 -72 -206 -121.5t-291 -47.5q-172 3 -254 79.5t-67 204.5 q24 229 246.5 330t643.5 66l6 42q15 140 -48.5 201.5t-231.5 67.5q-188 6 -371 -80l20 143q173 81 392 81q194 0 300 -60t132 -187q91 121 225.5 184t279.5 63q168 0 286.5 -75.5t163.5 -213.5t-6 -333zM1681 988q-143 -2 -259 -93.5t-161 -255.5h728q18 87 -1.5 156.5 t-66.5 110.5t-108.5 62t-131.5 20zM933 294l33 230q-333 30 -499.5 -20.5t-187.5 -201.5q-13 -97 50.5 -134.5t205.5 -35.5q126 1 231.5 50t166.5 112z" glyph-name="aeacute" horiz-adv-x="2286" unicode="ǽ"/><glyph d="M1382 1876l-310 -307h-156l277 307h189zM1637 1341l-143 -126q148 -198 107 -498q-20 -143 -78 -264t-139.5 -206t-183 -145t-210 -88t-219.5 -28q-139 0 -262 46t-210 135l-153 -134l-51 59l154 134q-140 194 -99 491q25 176 106.5 318.5t196.5 230.5t250 135t275 47 q136 0 256.5 -44.5t208.5 -129.5l144 127zM359 717q-30 -206 45 -353l891 781q-61 74 -149 111.5t-191 37.5q-100 0 -196.5 -37t-179 -108t-142 -183t-78.5 -249zM1391 717q30 214 -52 362l-892 -782q60 -77 150.5 -117.5t196.5 -40.5q101 0 198.5 38t179.5 108t141 182.5 t78 249.5z" glyph-name="Oslashacute" horiz-adv-x="1703" unicode="Ǿ"/><glyph d="M1122 1549l-310 -307h-156l277 307h189zM1365 1079l-157 -137q120 -153 87 -388q-16 -116 -63 -212t-112.5 -161t-147.5 -110t-166.5 -65t-170.5 -20q-227 0 -370 129l-155 -137l-43 50l153 135q-118 151 -85 391q16 113 63 208t112.5 160t147 111t166.5 67t171 21 q226 0 368 -130l158 138zM330 554q-20 -159 34 -265l666 585q-92 113 -254 113q-78 0 -151 -28.5t-134 -82.5t-104 -137.5t-57 -184.5zM1101 554q23 155 -34 264l-668 -586q91 -112 255 -111q104 0 197 47.5t162 148t88 237.5z" glyph-name="oslashacute" horiz-adv-x="1430" unicode="ǿ"/><glyph d="M98 276q185 -136 443 -136q94 0 185 28t157 82.5t78 123.5q5 34 -2.5 63t-21 50.5t-42 42t-54.5 34t-70 29.5t-75.5 26t-85.5 25.5t-88 27.5q-87 30 -149 63.5t-108 79.5t-63 107.5t-3 138.5q30 175 189 281t414 106q216 0 375 -98l-25 -169q-169 115 -373 113 q-155 0 -256.5 -66t-121.5 -177q-20 -109 106 -177q63 -34 244 -87q20 -6 32 -10q104 -32 175 -65.5t125 -82t73.5 -116.5t3.5 -156q-16 -89 -78.5 -161.5t-152.5 -117t-195.5 -68t-214.5 -23.5q-276 0 -446 117zM467 -102h182l-156 -454h-154z" glyph-name="Scommaaccent" horiz-adv-x="1313" unicode="Ș"/><glyph d="M102 219q148 -84 362 -90q119 -4 210 37t106 118q5 30 0.5 53.5t-24 42.5t-39.5 32.5t-60 28t-69 23.5t-83 23q-15 4 -23 7q-172 45 -249.5 125t-59.5 204q22 142 158 220t345 78q213 0 340 -77l-22 -155q-134 86 -321 90q-129 3 -209.5 -35t-93.5 -122q-6 -40 10.5 -71 t61 -56.5t95.5 -44t135 -43.5q89 -26 144.5 -50.5t98 -60.5t57.5 -86t5 -117q-14 -94 -91 -165.5t-184.5 -106.5t-226.5 -35q-113 0 -221 21.5t-173 57.5zM429 -102h182l-156 -454h-154z" glyph-name="scommaaccent" horiz-adv-x="1148" unicode="ș"/><glyph d="M1233 1434l-22 -154h-429l-179 -1280h-210l180 1280h-429l22 154h1067zM303 -556l128 454h182l-156 -454h-154z" glyph-name="uni021A" horiz-adv-x="1152" unicode="Ț"/><glyph d="M742 0h-310q-90 0 -136 63.5t-32 164.5l105 742h-174l18 138h175l31 217h194l-30 -217h315l-18 -138h-317l-97 -691q-9 -68 18 -108t82 -40h195zM397 -102h183l-157 -454h-154z" glyph-name="uni021B" horiz-adv-x="993" unicode="ț"/><glyph d="M1328 1280h-828l-69 -486h744l-22 -154h-743l-69 -486h828l-20 -154h-482l-73 -70q8 1 35 1q66 0 101.5 -29t28.5 -82q-9 -62 -67.5 -94.5t-156.5 -32.5q-51 0 -107 9l10 70q37 -6 81 -6q116 0 124 57q4 31 -19 42t-76 11q-28 0 -42 -1l7 52l75 73h-477l200 1434h1039z " glyph-name="uni0228" horiz-adv-x="1414" unicode="Ȩ"/><glyph d="M1212 499h-895q-4 -99 31.5 -174.5t98 -119t136.5 -65t159 -21.5q174 -1 323 71l-19 -138q-155 -67 -370 -66l-58 -56q8 1 35 1q66 0 102 -29t28 -82q-9 -62 -67.5 -94.5t-156.5 -32.5q-51 0 -106 9l10 70q37 -6 81 -6q116 0 124 57q4 31 -19 42t-77 11q-28 0 -42 -1 l8 52l63 63q-83 8 -156.5 33t-137.5 71.5t-107 110t-61.5 154t-3.5 195.5q15 113 60 208t107.5 160t140 111t159.5 67t166 21q168 0 287 -75.5t163.5 -213.5t-6.5 -333zM761 988q-143 -2 -259.5 -93.5t-161.5 -255.5h728q18 87 -1 156.5t-66.5 110.5t-108.5 62t-131 20z" glyph-name="uni0229" horiz-adv-x="1361" unicode="ȩ"/><glyph d="M419 1108l-158 -1122q-20 -142 -99.5 -199.5t-210.5 -56.5q-81 0 -135 25l17 89q63 -12 111 -2q63 4 88 41t38 117l154 1108h195z" glyph-name="uni0237" horiz-adv-x="488" unicode="ȷ"/><glyph d="M687 1122q90 0 174.5 -20.5t159 -65.5t125.5 -110t74 -161t7 -211q-15 -113 -60 -208t-107.5 -160t-140 -111t-159.5 -67t-166 -21q-168 0 -287 75.5t-164 214t7 332.5h894q4 99 -31 174.5t-97.5 119t-136.5 65t-159 21.5q-174 1 -323 -71l19 138q155 66 371 66zM601 120 q143 2 259.5 93.5t161.5 255.5h-728q-18 -87 1 -156.5t66.5 -110.5t108.5 -62t131 -20z" glyph-name="uni0259" horiz-adv-x="1361" unicode="ə"/><glyph d="M529 1434l-20 -145h-242l21 145h241zM550 691l-22 -153h-148l-75 -538h-194l74 538h-147l21 153h148l58 417h195l-59 -417h149z" glyph-name="uni0268" horiz-adv-x="570" unicode="ɨ"/><glyph d="M937 1242h-156l-136 246l-205 -246h-155l263 307h214z" glyph-name="circumflex" horiz-adv-x="1028" unicode="ˆ"/><glyph d="M825 1549h156l-263 -307h-214l-176 307h156l137 -244z" glyph-name="caron" horiz-adv-x="1028" unicode="ˇ"/><glyph d="M874 1491q-27 -110 -114 -179.5t-197.5 -69.5t-179 69.5t-64.5 179.5h124q-5 -62 32 -103.5t102 -41.5q63 0 112.5 42t61.5 103h123z" glyph-name="breve" horiz-adv-x="930" unicode="˘"/><glyph d="M307 1406h201l-24 -164h-199z" glyph-name="dotaccent" horiz-adv-x="575" unicode="˙"/><glyph d="M492 1242q-85 0 -138 61t-41 146q12 86 81.5 147t155.5 61q85 0 137 -61t40 -147q-12 -85 -81 -146t-154 -61zM506 1343q44 0 80 31.5t41 74.5q6 44 -20.5 75t-70.5 31t-80 -31t-42 -75q-5 -43 21.5 -74.5t70.5 -31.5z" glyph-name="ring" horiz-adv-x="789" unicode="˚"/><glyph d="M86 -173q12 127 183 173h118q-170 -59 -174 -147q-3 -45 51.5 -61.5t127.5 1.5l-4 -88q-83 -19 -152.5 -13t-112.5 42.5t-37 92.5z" glyph-name="ogonek" horiz-adv-x="696" unicode="˛"/><glyph d="M285 1243q13 98 70 154.5t135 56.5q38 0 76.5 -16.5t64.5 -37t58.5 -36.5t61.5 -16q34 0 60 29.5t32 71.5h105q-14 -98 -72.5 -154.5t-134.5 -56.5q-32 0 -68.5 17t-63 37t-60 36.5t-60.5 16.5q-39 -1 -66 -30t-33 -73z" glyph-name="tilde" horiz-adv-x="1010" unicode="˜"/><glyph d="M629 1565l-209 -323h-135l207 323h137zM868 1565l-210 -323h-135l207 323h138z" glyph-name="hungarumlaut" horiz-adv-x="913" unicode="˝"/><glyph d="M-470 1549h189l190 -307h-156z" glyph-name="gravecomb" unicode="̀"/><glyph d="M-47 1549l-310 -307h-156l276 307h190z" glyph-name="acutecomb" unicode="́"/><glyph d="M-91 1242h-156l-136 246l-205 -246h-155l263 307h214z" glyph-name="uni0302" unicode="̂"/><glyph d="M-726 1243q13 98 70 154.5t136 56.5q38 0 76 -16.5t64 -37t58.5 -36.5t61.5 -16q33 0 59.5 29.5t32.5 71.5h106q-14 -98 -73 -154.5t-134 -56.5q-32 0 -69 17t-63.5 37t-60 36.5t-59.5 16.5q-39 -1 -66 -30t-34 -73z" glyph-name="tildecomb" unicode="̃"/><glyph d="M-592 1362h518l-17 -120h-517z" glyph-name="uni0304" unicode="̄"/><glyph d="M-56 1491q-27 -110 -114.5 -179.5t-198 -69.5t-178.5 69.5t-64 179.5h124q-5 -62 31.5 -103.5t101.5 -41.5q63 0 113 42t61 103h124z" glyph-name="uni0306" unicode="̆"/><glyph d="M-268 1406h200l-23 -164h-200z" glyph-name="uni0307" unicode="̇"/><glyph d="M-653 1406h200l-23 -164h-200zM-268 1406h199l-22 -164h-201z" glyph-name="uni0308" unicode="̈"/><glyph d="M-298 1242q-85 0 -137.5 61t-40.5 146q12 86 81 147t155 61q85 0 137.5 -61t40.5 -147q-12 -85 -81.5 -146t-154.5 -61zM-284 1343q44 0 80 31.5t41 74.5q6 44 -20.5 75t-70.5 31t-80 -31t-42 -75q-5 -43 21.5 -74.5t70.5 -31.5z" glyph-name="uni030A" unicode="̊"/><glyph d="M-285 1565l-209 -323h-135l207 323h137zM-45 1565l-210 -323h-135l207 323h138z" glyph-name="uni030B" unicode="̋"/><glyph d="M-203 1549h156l-263 -307h-214l-176 307h156l136 -244z" glyph-name="uni030C" unicode="̌"/><glyph d="M-110 1242h-182l157 454h153z" glyph-name="uni0312" unicode="̒"/><glyph d="M-494 -200h201l-23 -164h-200z" glyph-name="dotbelowcomb" unicode="̣"/><glyph d="M-413 -102h183l-157 -454h-154z" glyph-name="uni0326" unicode="̦"/><glyph d="M-420 -66q66 0 101.5 -29t28.5 -82q-9 -62 -67.5 -94.5t-156.5 -32.5q-51 0 -107 9l11 70q37 -6 81 -6q116 0 123 57q4 31 -18.5 42t-76.5 11q-28 0 -42 -1l7 52l77 75h79l-75 -72q8 1 35 1z" glyph-name="uni0327" unicode="̧"/><glyph d="M-610 -173q12 127 183 173h118q-170 -59 -174 -147q-3 -45 51.5 -61.5t127.5 1.5l-4 -88q-83 -19 -152.5 -13t-112.5 42.5t-37 92.5z" glyph-name="uni0328" unicode="̨"/><glyph d="M579 1720h200l-23 -162h-201zM964 1720h199l-23 -162h-200zM341 154h828l-20 -154h-1038l200 1434h1039l-22 -154h-828l-69 -486h744l-22 -154h-743z" glyph-name="afii10023" horiz-adv-x="1414" unicode="Ё"/><glyph d="M1145 0l-77 322h-719l-167 -322h-221l760 1434h287l358 -1434h-221zM428 474h604l-189 800z" glyph-name="afii10017" horiz-adv-x="1482" unicode="А"/><glyph d="M450 923q477 -5 674.5 -116.5t160.5 -365.5q-30 -208 -183.5 -324.5t-384.5 -116.5h-607l202 1434h895l-18 -139h-687zM1075 441q16 119 -42 191.5t-205 107.5t-399 37l-89 -632h387q139 0 234 78.5t114 217.5z" glyph-name="afii10018" horiz-adv-x="1435" unicode="Б"/><glyph d="M311 1434h674q77 0 142 -23t112.5 -67.5t69 -116t8.5 -161.5q-15 -115 -77 -200t-148 -121q108 -32 161.5 -122.5t31.5 -234.5q-13 -97 -58.5 -173t-111.5 -122t-144.5 -69.5t-163.5 -23.5h-696zM502 1293l-72 -506h393q74 0 132.5 23.5t103 81t56.5 147.5 q18 132 -43 193t-177 61h-393zM781 136q75 0 135 25t104 85t57 149q18 132 -44.5 194t-178.5 62h-443l-72 -513z" glyph-name="afii10019" horiz-adv-x="1435" unicode="В"/><glyph d="M1014 1434l-21 -154h-493l-181 -1280h-208l200 1434h703z" glyph-name="afii10020" horiz-adv-x="933" unicode="Г"/><glyph d="M1524 1434l-179 -1280h104l-22 -154l-37 -266h-176l37 266h-964l-37 -266h-176l38 269h-1l21 151h5l1 3q121 -1 173.5 73.5t79.5 274.5l130 929h1003zM593 449q-28 -187 -105 -295h648l157 1127h-583z" glyph-name="afii10021" horiz-adv-x="1692" unicode="Д"/><glyph d="M341 154h828l-20 -154h-1038l200 1434h1039l-22 -154h-828l-69 -486h744l-22 -154h-743z" glyph-name="afii10022" horiz-adv-x="1414" unicode="Е"/><glyph d="M2182 1434l-769 -706l568 -728h-239l-553 709l-100 -709h-209l99 709l-753 -709h-238l772 728l-571 706h239l556 -688l96 688h211l-97 -688l750 688h238z" glyph-name="afii10024" horiz-adv-x="2123" unicode="Ж"/><glyph d="M617.5 125q65.5 0 128 18t116 51.5t90.5 89t46 125.5q12 88 -28 155t-112 99t-161 32h-191l17 140h194q116 0 210 63.5t109 173.5q15 109 -60.5 172.5t-192 63.5t-210 -63t-109.5 -173l-185 7q16 118 99 203.5t193 124.5t232 39q90 0 169.5 -23t141.5 -67t92 -116 t18 -161q-14 -110 -84 -188t-170 -120q120 -44 188 -138.5t49 -231.5q-14 -105 -73 -187t-146 -130t-186.5 -72.5t-204.5 -24.5q-83 0 -159 14.5t-142.5 47.5t-113 80t-68 117t-9.5 155l211 8q-10 -70 11 -125.5t65 -89t102 -51.5t123.5 -18z" glyph-name="afii10025" horiz-adv-x="1354" unicode="З"/><glyph d="M521 1434l-159 -1124l955 1124h219l-203 -1434h-209l159 1130l-954 -1130h-219l202 1434h209z" glyph-name="afii10026" horiz-adv-x="1599" unicode="И"/><glyph d="M1254 1817q-27 -110 -114 -179.5t-198 -69.5t-179 69.5t-64 179.5h124q-5 -62 32 -104t101 -42q63 0 113 42t61 104h124zM521 1434l-159 -1124l955 1124h219l-203 -1434h-209l159 1130l-954 -1130h-219l202 1434h209z" glyph-name="afii10027" horiz-adv-x="1599" unicode="Й"/><glyph d="M1413 1434l-770 -706l568 -728h-238l-554 708l-100 -708h-208l200 1434h210l-96 -686l749 686h239z" glyph-name="afii10028" horiz-adv-x="1354" unicode="К"/><glyph d="M1430 1434l-201 -1431h-210l179 1278h-583l-117 -832q-35 -251 -161.5 -361t-321.5 -85l28 154q122 -1 173.5 73.5t80.5 274.5l130 929h1003z" glyph-name="afii10029" horiz-adv-x="1494" unicode="Л"/><glyph d="M1568 1434h297l-202 -1434h-209l165 1175l-609 -1001h-197l-328 1001l-166 -1175h-208l200 1434h296l337 -1028z" glyph-name="afii10030" horiz-adv-x="1929" unicode="М"/><glyph d="M1267 1434h209l-201 -1434h-210l90 640h-745l-91 -640h-208l200 1434h210l-90 -640h746z" glyph-name="afii10031" horiz-adv-x="1540" unicode="Н"/><glyph d="M1601 717q-20 -143 -78 -264t-139.5 -206t-183 -145t-210 -88t-219.5 -28t-210.5 28t-184 88t-142 145t-81.5 205.5t-3 264.5q25 176 106.5 318.5t196.5 230.5t250 135t275 47q111 0 211.5 -28.5t184.5 -89t141.5 -145.5t81 -206t4.5 -262zM794 139q101 0 198.5 38 t179.5 108t140.5 182.5t78 249.5t-8 249t-90.5 183t-149.5 108t-187 37t-197 -37t-179 -108t-141.5 -183t-79 -249q-16 -114 -1 -205.5t54 -161t97.5 -117t131 -71t153.5 -23.5z" glyph-name="afii10032" horiz-adv-x="1703" unicode="О"/><glyph d="M1412 1434l-202 -1434h-209l180 1280h-681l-181 -1280h-208l200 1434h1101z" glyph-name="afii10033" horiz-adv-x="1475" unicode="П"/><glyph d="M919 1434q231 0 352 -117t91 -325q-34 -254 -263 -365t-708 -116l-72 -511h-208l200 1434h608zM1152 992q19 139 -53 217.5t-212 78.5h-386l-89 -632q253 2 409.5 37.5t235.5 107.5t95 191z" glyph-name="afii10034" horiz-adv-x="1426" unicode="Р"/><glyph d="M1310 1198q-162 94 -355 86q-102 -4 -197 -41t-178.5 -104t-142 -176t-78.5 -246q-16 -114 0.5 -204t55.5 -156.5t99 -111.5t131 -68.5t151 -26.5q190 -8 379 86l-24 -170q-178 -80 -378 -80q-111 0 -211.5 28.5t-185 89t-142 145.5t-81 205.5t-3.5 262.5 q20 141 77.5 262t138.5 206t182.5 145.5t210.5 89t220 28.5q199 0 355 -80z" glyph-name="afii10035" horiz-adv-x="1406" unicode="С"/><glyph d="M1233 1434l-22 -154h-429l-179 -1280h-210l180 1280h-429l22 154h1067z" glyph-name="afii10036" horiz-adv-x="1152" unicode="Т"/><glyph d="M1093 1434h214l-613 -1057q-37 -65 -74 -116.5t-98 -113t-128.5 -102.5t-163.5 -69t-203 -28l12 130q285 10 423 303l-294 1053h215l224 -870z" glyph-name="afii10037" horiz-adv-x="1233" unicode="У"/><glyph d="M1060 1278q341 -10 510 -158t133 -403q-36 -254 -246.5 -402t-554.5 -158l-21 -157h-102l22 157q-343 10 -510.5 158t-131.5 402q36 255 245 403t555 158l22 156h100zM369 717q-27 -184 90.5 -291t362.5 -117l116 815q-250 -10 -396.5 -116t-172.5 -291zM1493 717 q26 183 -91.5 290t-363.5 117l-114 -815q249 10 396 117.5t173 290.5z" glyph-name="afii10038" horiz-adv-x="1815" unicode="Ф"/><glyph d="M1493 1434l-605 -711l419 -723h-235l-345 588l-505 -588h-234l622 723l-405 711h231l334 -573l491 573h232z" glyph-name="afii10039" horiz-adv-x="1449" unicode="Х"/><glyph d="M1413 1434l-181 -1280h105l-44 -318h-153l23 164h-1052l201 1434h210l-180 -1280h682l179 1280h210z" glyph-name="afii10040" horiz-adv-x="1582" unicode="Ц"/><glyph d="M1157 1434h209l-201 -1434h-210l102 725q-159 -241 -489 -241q-390 0 -329 430l72 520h210l-57 -411q-25 -168 27.5 -256t195.5 -88q130 0 239 68.5t160 185.5z" glyph-name="afii10041" horiz-adv-x="1430" unicode="Ч"/><glyph d="M2094 1434h210l-203 -1434h-1990l201 1434h210l-180 -1280h681l180 1280h210l-180 -1280h682z" glyph-name="afii10042" horiz-adv-x="2368" unicode="Ш"/><glyph d="M2304 1434l-181 -1280h105l-45 -318h-152l22 164h-1942l201 1434h210l-180 -1280h681l180 1280h210l-180 -1280h682l179 1280h210z" glyph-name="afii10043" horiz-adv-x="2471" unicode="Щ"/><glyph d="M532 923q477 -5 674.5 -116.5t160.5 -365.5q-29 -208 -182.5 -324.5t-384.5 -116.5h-607l180 1280h-271l21 154h481zM1158 441q16 119 -42.5 190.5t-205 107.5t-398.5 38l-89 -632h386q140 0 235 78.5t114 217.5z" glyph-name="afii10044" horiz-adv-x="1518" unicode="Ъ"/><glyph d="M717 0h-607l202 1434h209l-71 -511q477 -5 674.5 -116.5t160.5 -365.5q-30 -208 -183.5 -324.5t-384.5 -116.5zM1639 0h-208l200 1434h210zM429 777l-89 -632h387q139 0 234 78.5t114 217.5q16 119 -42 191.5t-205 107.5t-399 37z" glyph-name="afii10045" horiz-adv-x="1904" unicode="Ы"/><glyph d="M717 0h-607l202 1434h209l-71 -511q477 -5 674.5 -116.5t160.5 -365.5q-30 -208 -183.5 -324.5t-384.5 -116.5zM429 777l-89 -632h387q139 0 234 78.5t114 217.5q16 119 -42 191.5t-205 107.5t-399 37z" glyph-name="afii10046" horiz-adv-x="1435" unicode="Ь"/><glyph d="M719 1448q111 0 211.5 -28.5t185 -89t142.5 -145.5t81.5 -206t3.5 -262t-77.5 -262t-138.5 -206t-182.5 -145.5t-210.5 -89t-220 -28.5q-201 0 -355 80l24 170q161 -94 355 -86q95 4 185 36t170 91t140 154.5t87 215.5h-720l20 139h721q5 97 -16 178.5t-62.5 138 t-99.5 97t-125 61t-142 23.5q-189 8 -378 -86l23 170q179 80 378 80z" glyph-name="afii10047" horiz-adv-x="1446" unicode="Э"/><glyph d="M1588 1448q111 0 212 -28.5t184.5 -89t141.5 -145.5t81.5 -206t3.5 -262q-19 -143 -77 -264t-139.5 -206t-183.5 -145t-210 -88t-219 -28q-131 0 -247 41.5t-205.5 120t-138 206t-38.5 286.5h-343l-91 -640h-208l200 1434h210l-90 -640h343q35 158 119 284.5t195.5 206 t239.5 121.5t260 42zM2000.5 717q19.5 137 -7.5 249t-90.5 183t-150 108t-187 37t-197 -37t-179 -108t-141.5 -183t-78.5 -249t8 -249.5t89.5 -182.5t149 -108t188 -38t198.5 38t180 108t140.5 182.5t77.5 249.5z" glyph-name="afii10048" horiz-adv-x="2314" unicode="Ю"/><glyph d="M790 1434h607l-203 -1434h-209l72 511q-238 3 -391 28l-403 -539h-214l435 583q-158 53 -221.5 153t-41.5 256q30 208 184 325t385 117zM1077 656l88 632h-386q-139 0 -233.5 -78t-114.5 -218q-25 -178 122 -255.5t524 -80.5z" glyph-name="afii10049" horiz-adv-x="1460" unicode="Я"/><glyph d="M752 1121q253 0 358 -103t74 -328l-98 -690h-186l13 155q-81 -72 -206 -121.5t-291 -47.5q-172 3 -254 79.5t-67 204.5q24 229 246.5 330t643.5 66l6 42q15 140 -48.5 201.5t-231.5 67.5q-188 6 -371 -80l20 143q174 81 392 81zM933 294l33 230q-333 30 -499.5 -20.5 t-187.5 -201.5q-13 -97 50.5 -134.5t205.5 -35.5q126 1 231.5 50t166.5 112z" glyph-name="afii10065" horiz-adv-x="1336" unicode="а"/><glyph d="M830 1265q-153 0 -256 -89t-170 -296q172 99 381 99q86 0 165.5 -18.5t148 -58.5t116 -97t67.5 -140t3 -182q-15 -101 -62 -185t-113.5 -140.5t-148 -95.5t-166 -56.5t-170.5 -17.5t-164.5 17.5t-147 56.5t-116 95.5t-67.5 140.5t-4 185q0 1 1 3v2q37 261 102.5 441.5 t159 283t205 146t256.5 43.5q250 0 453 51l-1 -137q-211 -51 -472 -51zM766 861q-160 0 -287.5 -99.5t-156.5 -272.5l-1 -7q-14 -90 5 -163t65.5 -118.5t111 -70.5t141.5 -25q104 0 197 41.5t162 129.5t88 207q28 175 -67.5 276.5t-257.5 101.5z" glyph-name="afii10066" horiz-adv-x="1430" unicode="б"/><glyph d="M251 1108h614q171 0 267.5 -72.5t76.5 -212.5q-12 -91 -70.5 -158t-144.5 -90q106 -18 163.5 -90t41.5 -186q-20 -147 -149.5 -223t-316.5 -76h-638zM430 996l-54 -386h349q115 0 192 45.5t92 148.5q14 103 -49 147.5t-180 44.5h-350zM703 109q117 -1 195 46.5t92 149.5 q8 53 -6.5 92t-48 61.5t-77 33t-98.5 10.5h-401l-54 -392z" glyph-name="afii10067" horiz-adv-x="1371" unicode="в"/><glyph d="M942 1108l-19 -138h-497l-136 -970h-195l156 1108h691z" glyph-name="afii10068" horiz-adv-x="949" unicode="г"/><glyph d="M1324 1108l-136 -970h103l-18 -138h-1l-29 -206h-194l28 206h-787l-29 -206h-194l47 344h9q99 1 148.5 72t71.5 235l94 663h887zM436 138h557l117 832h-498l-81 -575q-22 -160 -95 -257z" glyph-name="afii10069" horiz-adv-x="1522" unicode="д"/><glyph d="M1212 499h-895q-4 -99 31.5 -174.5t98 -119t136.5 -65t159 -21.5q174 -1 323 71l-19 -138q-155 -67 -371 -66q-90 0 -174.5 20.5t-159 65.5t-125.5 110t-74 161t-7 211q15 113 60 208t107.5 160t140 111t159.5 67t166 21q168 0 287 -75.5t163.5 -213.5t-6.5 -333z M761 988q-143 -2 -259.5 -93.5t-161.5 -255.5h728q18 87 -1 156.5t-66.5 110.5t-108.5 62t-131 20z" glyph-name="afii10070" horiz-adv-x="1361" unicode="е"/><glyph d="M1831 1108l-607 -546l451 -562h-218l-438 547l-77 -547h-194l76 547l-592 -547h-217l609 562l-453 546h217l440 -531l75 531h195l-75 -530l590 530h218z" glyph-name="afii10072" horiz-adv-x="1845" unicode="ж"/><glyph d="M548 100q126 0 215.5 56t104 159.5t-59.5 162t-200 58.5h-170l15 110h172q108 0 182.5 47.5t86.5 134.5q12 84 -50.5 131.5t-168.5 47.5q-102 0 -180 -47t-91 -132l-168 7q13 92 79 157t161.5 95t213.5 30q182 0 288.5 -72.5t87.5 -209.5q-11 -85 -65.5 -145.5 t-133.5 -93.5q94 -34 147.5 -107.5t39.5 -178.5q-14 -109 -91 -182.5t-186 -105.5t-244.5 -32t-235 32t-155.5 106t-41 182l188 5q-10 -71 25.5 -121t96 -72t137.5 -22z" glyph-name="afii10073" horiz-adv-x="1222" unicode="з"/><glyph d="M445 1108l-120 -859l721 859h200l-155 -1108h-194l121 864l-721 -864h-202l156 1108h194z" glyph-name="afii10074" horiz-adv-x="1341" unicode="и"/><glyph d="M1080 1491q-27 -110 -114 -179.5t-198 -69.5t-179 69.5t-64 179.5h124q-5 -62 32 -103.5t101 -41.5q63 0 113 42t61 103h124zM445 1108l-120 -859l721 859h200l-155 -1108h-194l121 864l-721 -864h-202l156 1108h194z" glyph-name="afii10075" horiz-adv-x="1341" unicode="й"/><glyph d="M1257 1108l-680 -546l525 -562h-229l-506 545l-77 -545h-195l156 1108h194l-74 -529l658 529h228z" glyph-name="afii10076" horiz-adv-x="1272" unicode="к"/><glyph d="M1287 1108l-155 -1108h-195l136 970h-498l-80 -575q-31 -215 -149.5 -316.5t-287.5 -78.5l19 138q104 -1 155 68.5t74 238.5l93 663h888z" glyph-name="afii10077" horiz-adv-x="1381" unicode="л"/><glyph d="M1283 1108h286l-156 -1108h-194l126 899l-479 -764h-186l-264 764l-126 -899h-195l156 1108h286l262 -791z" glyph-name="afii10078" horiz-adv-x="1662" unicode="м"/><glyph d="M1050 1108h194l-155 -1108h-195l71 501h-605l-70 -501h-195l156 1108h194l-66 -469h604z" glyph-name="afii10079" horiz-adv-x="1339" unicode="н"/><glyph d="M1295 554q-16 -116 -63 -212t-112.5 -161t-147.5 -110t-166.5 -65t-170.5 -20t-164.5 20t-147.5 65t-116 110t-67.5 161t-4.5 212q16 113 63 208t112.5 160t147 111t166.5 67t171 21t165 -21t148 -67t116 -111t66.5 -160t4.5 -208zM654 121q104 0 197 47.5t161.5 148 t88.5 237.5q28 202 -67.5 317.5t-257.5 115.5q-78 0 -151 -28.5t-134 -82.5t-104 -137.5t-57 -184.5q-14 -103 5.5 -187t65.5 -137t111 -81t142 -28z" glyph-name="afii10080" horiz-adv-x="1430" unicode="о"/><glyph d="M1219 1108l-156 -1108h-195l138 970h-580l-136 -970h-195l156 1108h968z" glyph-name="afii10081" horiz-adv-x="1313" unicode="п"/><glyph d="M1307 554q-19 -141 -78.5 -252t-144 -178.5t-183.5 -102t-208 -34.5q-287 0 -376 207l-88 -622h-194l216 1536h161l-21 -203q47 63 103.5 108t117.5 68t118 32t123 9q85 0 159 -20.5t136.5 -64t102.5 -110.5t57 -160t-1 -213zM810 987q-69 0 -133.5 -22t-122 -65.5 t-102 -117t-66.5 -169.5l-18 -133q-6 -172 87 -267.5t233 -95.5q160 0 283 116t151 321q29 206 -61.5 319.5t-250.5 113.5z" glyph-name="afii10082" horiz-adv-x="1441" unicode="р"/><glyph d="M1104 899q-129 77 -310 71q-82 -3 -157.5 -29.5t-140 -76t-108.5 -129.5t-58.5 -181t7.5 -181t72.5 -129.5t118.5 -76t149 -29.5q177 -6 330 70l-22 -156q-154 -67 -350 -66q-86 0 -165.5 21t-148 67t-115.5 111t-67 160t-4 209q15 113 62.5 208t113 160t147 111 t166.5 67t171 21q199 0 331 -66z" glyph-name="afii10083" horiz-adv-x="1190" unicode="с"/><glyph d="M1152 1108l-18 -138h-419l-136 -970h-195l136 970h-419l20 138h1031z" glyph-name="afii10084" horiz-adv-x="1117" unicode="т"/><glyph d="M1063 1108h206l-591 -1057q-36 -65 -72 -116.5t-94.5 -113t-123 -103t-157.5 -69.5t-197 -28l11 131q278 10 409 303l-283 1053h207l216 -870z" glyph-name="afii10085" horiz-adv-x="1284" unicode="у"/><glyph d="M869 1120q106 -7 197.5 -45.5t161 -105.5t101 -174.5t11.5 -240.5q-15 -110 -59 -201.5t-106 -155t-140 -109.5t-158.5 -70t-165.5 -30l-24 -167h-101l23 166q-105 7 -195.5 44t-161 103.5t-102 175t-12.5 244.5q19 132 82 238.5t151 174t189.5 106t207.5 46.5l19 135 h101zM1139 554q28 186 -56.5 300t-232.5 130l-121 -860q153 17 267.5 130t142.5 300zM340 554q-13 -96 3 -175t57 -131.5t99 -84t130 -39.5l121 860q-152 -18 -267 -132t-143 -298z" glyph-name="afii10086" horiz-adv-x="1477" unicode="ф"/><glyph d="M1227 1108l-465 -543l310 -565h-207l-256 467l-388 -467h-206l468 565l-312 543h206l259 -449l385 449h206z" glyph-name="afii10087" horiz-adv-x="1242" unicode="х"/><glyph d="M1234 1108l-136 -970h104l-42 -302h-194l23 164h-878l154 1108h195l-136 -970h578l137 970h195z" glyph-name="afii10088" horiz-adv-x="1377" unicode="ц"/><glyph d="M992 1108h195l-155 -1108h-194l72 523q-129 -190 -396 -190q-178 0 -262.5 87t-62.5 250l62 438h194l-48 -339q-36 -267 213 -267q109 0 197 53t129 144z" glyph-name="afii10089" horiz-adv-x="1282" unicode="ч"/><glyph d="M1630 1108h195l-156 -1108h-1574l156 1108h194l-137 -970h496l136 970h195l-137 -970h496z" glyph-name="afii10090" horiz-adv-x="1920" unicode="ш"/><glyph d="M1825 1108l-136 -970h105l-43 -302h-195l24 164h-1485l156 1108h194l-137 -970h496l136 970h195l-137 -970h496l136 970h195z" glyph-name="afii10091" horiz-adv-x="1968" unicode="щ"/><glyph d="M564 717q393 -5 554.5 -92t132.5 -285q-23 -161 -149 -250.5t-324 -89.5h-510l136 970h-209l18 138h405zM1060 340q19 138 -97 198.5t-416 62.5l-68 -485h306q112 0 186 58t89 166z" glyph-name="afii10092" horiz-adv-x="1417" unicode="ъ"/><glyph d="M605 0h-510l156 1108h194l-54 -391q393 -5 554.5 -92.5t132.5 -284.5q-23 -161 -149 -250.5t-324 -89.5zM1404 1108h194l-155 -1108h-195zM374 601l-69 -485h307q112 0 185.5 58t89.5 166q19 138 -97 198.5t-416 62.5z" glyph-name="afii10093" horiz-adv-x="1693" unicode="ы"/><glyph d="M605 0h-510l156 1108h194l-54 -391q393 -5 554.5 -92.5t132.5 -284.5q-23 -161 -149 -250.5t-324 -89.5zM374 601l-69 -485h307q112 0 185.5 58t89.5 166q19 138 -97 198.5t-416 62.5z" glyph-name="afii10094" horiz-adv-x="1244" unicode="ь"/><glyph d="M609 1121q109 0 205 -34.5t170.5 -101.5t109 -179t15.5 -252q-15 -114 -62.5 -209t-113 -160t-146.5 -111t-166 -67t-171 -21q-197 0 -332 66l22 156q132 -76 311 -70q100 3 188.5 40t159.5 116t101 190h-629l20 139h629q1 85 -26.5 151t-76.5 107.5t-112.5 64 t-137.5 24.5q-178 6 -329 -71l21 156q150 66 350 66z" glyph-name="afii10095" horiz-adv-x="1245" unicode="э"/><glyph d="M1306 1121q86 0 165 -21t148 -67t116 -111t67 -160t3 -208q-15 -116 -62 -212t-113 -161t-148 -110t-166.5 -65t-170.5 -20q-80 0 -153.5 17t-140 56t-114.5 95.5t-74.5 139.5t-23.5 183h-283l-66 -477h-195l156 1108h194l-66 -477h281q31 122 99 217.5t158 154t189 88.5 t200 30zM1611 554q28 202 -67.5 317.5t-257.5 115.5q-78 0 -151 -28.5t-133.5 -82.5t-103.5 -137.5t-57 -184.5q-14 -103 5 -187t65 -137t111 -81t142 -28q104 0 197 47.5t162.5 148t87.5 237.5z" glyph-name="afii10096" horiz-adv-x="1940" unicode="ю"/><glyph d="M703 1108h510l-155 -1108h-195l56 396q-175 1 -305 19l-319 -415h-199l347 452q-128 41 -179.5 117.5t-34.5 197.5q23 162 148.5 251.5t325.5 89.5zM935 512l69 480h-308q-111 0 -184 -60t-88 -165q-12 -90 33 -144.5t160.5 -81.5t317.5 -29z" glyph-name="afii10097" horiz-adv-x="1308" unicode="я"/><glyph d="M717 1406l-24 -164h-199l22 164h201zM1101 1406l-23 -164h-200l23 164h200zM1212 499h-895q-4 -99 31.5 -174.5t98 -119t136.5 -65t159 -21.5q174 -1 323 71l-19 -138q-155 -67 -371 -66q-90 0 -174.5 20.5t-159 65.5t-125.5 110t-74 161t-7 211q15 113 60 208t107.5 160 t140 111t159.5 67t166 21q168 0 287 -75.5t163.5 -213.5t-6.5 -333zM761 988q-143 -2 -259.5 -93.5t-161.5 -255.5h728q18 87 -1 156.5t-66.5 110.5t-108.5 62t-131 20z" glyph-name="afii10071" horiz-adv-x="1361" unicode="ё"/><glyph d="M1002 1549l-310 -307h-155l276 307h189zM942 1108l-19 -138h-497l-136 -970h-195l156 1108h691z" glyph-name="afii10100" horiz-adv-x="949" unicode="ѓ"/><glyph d="M288 1434h241l-20 -145h-242zM460 1108l-158 -1122q-20 -142 -99.5 -199.5t-210.5 -56.5q-81 0 -135 25l17 89q63 -12 111 -2q63 4 88 41t38 117l154 1108h195z" glyph-name="afii10105" horiz-adv-x="570" unicode="ј"/><glyph d="M1146 1549l-310 -307h-156l276 307h190zM1257 1108l-680 -546l525 -562h-229l-506 545l-77 -545h-195l156 1108h194l-74 -529l658 529h228z" glyph-name="afii10109" horiz-adv-x="1272" unicode="ќ"/><glyph d="M311 1434h674q77 0 142 -23t112.5 -67.5t69 -116t8.5 -161.5q-15 -115 -77 -200t-148 -121q108 -32 161.5 -122.5t31.5 -234.5q-13 -97 -58.5 -173t-111.5 -122t-144.5 -69.5t-163.5 -23.5h-696zM502 1293l-72 -506h393q74 0 132.5 23.5t103 81t56.5 147.5 q18 132 -43 193t-177 61h-393zM781 136q75 0 135 25t104 85t57 149q18 132 -44.5 194t-178.5 62h-443l-72 -513zM529 -200h201l-23 -164h-200z" glyph-name="uni1E04" horiz-adv-x="1435" unicode="Ḅ"/><glyph d="M1307 554q-20 -145 -80 -257t-145 -178.5t-183 -99.5t-206 -33q-66 0 -120.5 9t-108.5 32t-98 67.5t-73 108.5l-37 -203h-161l216 1536h195l-88 -622q150 207 435 207q109 0 198 -34.5t154.5 -102.5t93 -178.5t8.5 -251.5zM689 121q160 0 282.5 113.5t150.5 319.5 q29 205 -60.5 321t-250.5 116q-140 0 -260 -95.5t-163 -267.5l-18 -133q-5 -95 18.5 -169t69.5 -117.5t104 -65.5t127 -22zM508 -200h201l-24 -164h-200z" glyph-name="uni1E05" horiz-adv-x="1441" unicode="ḅ"/><glyph d="M1462 717q-25 -179 -99.5 -319t-183.5 -225.5t-240.5 -129t-280.5 -43.5h-547l200 1434h548q150 0 269.5 -44t204 -131t119.5 -225.5t10 -316.5zM660 154q229 0 391.5 148.5t200.5 414.5q18 134 -5 241.5t-82 177t-147 107t-199 37.5h-319l-159 -1126h319zM570 -200h201 l-23 -164h-200z" glyph-name="uni1E0C" horiz-adv-x="1565" unicode="Ḍ"/><glyph d="M135 554q19 141 78 251.5t143.5 178.5t184 102.5t208.5 34.5q287 0 375 -207l88 622h195l-216 -1536h-161l21 203q-47 -63 -103.5 -108t-117.5 -68t-118.5 -32t-122.5 -9q-85 0 -159.5 20.5t-137 64t-102 110.5t-56.5 160t1 213zM632 121q69 0 133 22t122 65.5t102.5 117 t66.5 169.5l18 133q6 172 -87 267.5t-233 95.5q-160 0 -283 -116t-152 -321q-29 -206 62 -319.5t251 -113.5zM497 -200h200l-23 -164h-201z" glyph-name="uni1E0D" horiz-adv-x="1440" unicode="ḍ"/><glyph d="M1267 1434h209l-201 -1434h-210l90 640h-745l-91 -640h-208l200 1434h210l-90 -640h746zM564 -200h201l-24 -164h-199z" glyph-name="uni1E24" horiz-adv-x="1540" unicode="Ḥ"/><glyph d="M289 0h-194l216 1536h195l-87 -621q104 120 226.5 163t279.5 43q179 0 271 -111t60 -339l-94 -671h-194l88 627q49 353 -236 353q-63 0 -130.5 -23t-130.5 -66t-113 -115.5t-70 -162.5zM480 -200h201l-24 -164h-199z" glyph-name="uni1E25" horiz-adv-x="1412" unicode="ḥ"/><glyph d="M521 1434l-180 -1280h784l-21 -154h-993l200 1434h210zM482 -200h201l-24 -164h-199z" glyph-name="uni1E36" horiz-adv-x="1316" unicode="Ḷ"/><glyph d="M311 1536h195l-216 -1536h-195zM63 -200h201l-23 -164h-200z" glyph-name="uni1E37" horiz-adv-x="540" unicode="ḷ"/><glyph d="M1495 1876l-310 -307h-156l277 307h189zM1568 1434h297l-202 -1434h-209l165 1175l-609 -1001h-197l-328 1001l-166 -1175h-208l200 1434h296l337 -1028z" glyph-name="uni1E3E" horiz-adv-x="1929" unicode="Ḿ"/><glyph d="M1569 1550l-311 -307h-155l276 307h190zM1709 1121q193 0 277 -116t47 -378l-88 -627h-195l88 627q26 185 -32.5 269t-190.5 84q-69 0 -135 -24t-124 -70t-99.5 -123t-56.5 -174v1l-83 -590h-194l88 627q26 185 -32.5 269t-191.5 84q-142 0 -255.5 -99.5t-158.5 -291.5 l-84 -589h-194l156 1108h194l-26 -193q99 122 205.5 164t257.5 42q284 0 326 -248q47 85 129.5 142.5t175.5 81.5t196 24z" glyph-name="uni1E3F" horiz-adv-x="2194" unicode="ḿ"/><glyph d="M864 1732h201l-24 -164h-199zM1326 1434h209l-201 -1434h-219l-637 1130l-159 -1130h-208l200 1434h219l638 -1124z" glyph-name="uni1E44" horiz-adv-x="1599" unicode="Ṅ"/><glyph d="M726 1406h201l-24 -164h-200zM289 0h-194l156 1108h194l-26 -193q104 120 226.5 163t279.5 43q179 0 271 -111t60 -339l-94 -671h-194l88 627q49 353 -236 353q-63 0 -130.5 -23t-130.5 -66t-113 -115.5t-70 -162.5z" glyph-name="uni1E45" horiz-adv-x="1412" unicode="ṅ"/><glyph d="M1326 1434h209l-201 -1434h-219l-637 1130l-159 -1130h-208l200 1434h219l638 -1124zM594 -200h201l-24 -164h-200z" glyph-name="uni1E46" horiz-adv-x="1599" unicode="Ṇ"/><glyph d="M289 0h-194l156 1108h194l-26 -193q104 120 226.5 163t279.5 43q179 0 271 -111t60 -339l-94 -671h-194l88 627q49 353 -236 353q-63 0 -130.5 -23t-130.5 -66t-113 -115.5t-70 -162.5zM501 -200h200l-23 -164h-200z" glyph-name="uni1E47" horiz-adv-x="1412" unicode="ṇ"/><glyph d="M98 276q185 -136 443 -136q94 0 185 28t157 82.5t78 123.5q5 34 -2.5 63t-21 50.5t-42 42t-54.5 34t-70 29.5t-75.5 26t-85.5 25.5t-88 27.5q-87 30 -149 63.5t-108 79.5t-63 107.5t-3 138.5q30 175 189 281t414 106q216 0 375 -98l-25 -169q-169 115 -373 113 q-155 0 -256.5 -66t-121.5 -177q-20 -109 106 -177q63 -34 244 -87q20 -6 32 -10q104 -32 175 -65.5t125 -82t73.5 -116.5t3.5 -156q-16 -89 -78.5 -161.5t-152.5 -117t-195.5 -68t-214.5 -23.5q-276 0 -446 117zM406 -200h200l-23 -164h-200z" glyph-name="uni1E62" horiz-adv-x="1313" unicode="Ṣ"/><glyph d="M102 219q148 -84 362 -90q119 -4 210 37t106 118q5 30 0.5 53.5t-24 42.5t-39.5 32.5t-60 28t-69 23.5t-83 23q-15 4 -23 7q-172 45 -249.5 125t-59.5 204q22 142 158 220t345 78q213 0 340 -77l-22 -155q-134 86 -321 90q-129 3 -209.5 -35t-93.5 -122q-6 -40 10.5 -71 t61 -56.5t95.5 -44t135 -43.5q89 -26 144.5 -50.5t98 -60.5t57.5 -86t5 -117q-14 -94 -91 -165.5t-184.5 -106.5t-226.5 -35q-113 0 -221 21.5t-173 57.5zM368 -200h200l-23 -164h-200z" glyph-name="uni1E63" horiz-adv-x="1148" unicode="ṣ"/><glyph d="M1233 1434l-22 -154h-429l-179 -1280h-210l180 1280h-429l22 154h1067zM347 -364l23 164h200l-23 -164h-200z" glyph-name="uni1E6C" horiz-adv-x="1152" unicode="Ṭ"/><glyph d="M742 0h-310q-90 0 -136 63.5t-32 164.5l105 742h-174l18 138h175l31 217h194l-30 -217h315l-18 -138h-317l-97 -691q-9 -68 18 -108t82 -40h195zM336 -200h201l-24 -164h-200z" glyph-name="uni1E6D" horiz-adv-x="993" unicode="ṭ"/><glyph d="M852 1876h189l190 -307h-156zM1883 1434h219l-607 -1434h-228l-169 1177l-499 -1177h-228l-205 1434h219l146 -1162l484 1162h238l158 -1162z" glyph-name="Wgrave" horiz-adv-x="2021" unicode="Ẁ"/><glyph d="M712 1549h189l190 -307h-156zM1610 1108h207l-487 -1108h-230l-136 899l-389 -899h-229l-175 1108h207l132 -906l381 906h206l132 -906z" glyph-name="wgrave" horiz-adv-x="1831" unicode="ẁ"/><glyph d="M1541 1876l-310 -307h-156l277 307h189zM1883 1434h219l-607 -1434h-228l-169 1177l-499 -1177h-228l-205 1434h219l146 -1162l484 1162h238l158 -1162z" glyph-name="Wacute" horiz-adv-x="2021" unicode="Ẃ"/><glyph d="M1401 1549l-310 -307h-156l276 307h190zM1610 1108h207l-487 -1108h-230l-136 899l-389 -899h-229l-175 1108h207l132 -906l381 906h206l132 -906z" glyph-name="wacute" horiz-adv-x="1831" unicode="ẃ"/><glyph d="M883 1732h200l-23 -164h-200zM1268 1732h199l-22 -164h-201zM1883 1434h219l-607 -1434h-228l-169 1177l-499 -1177h-228l-205 1434h219l146 -1162l484 1162h238l158 -1162z" glyph-name="Wdieresis" horiz-adv-x="2021" unicode="Ẅ"/><glyph d="M742 1406h201l-23 -164h-200zM1127 1406h200l-22 -164h-201zM1610 1108h207l-487 -1108h-230l-136 899l-389 -899h-229l-175 1108h207l132 -906l381 906h206l132 -906z" glyph-name="wdieresis" horiz-adv-x="1831" unicode="ẅ"/><glyph d="M1384 1434l-21 -154l-972 -1126h813l-21 -154h-1072l20 154l968 1126h-809l21 154h1073zM496 -364l22 164h201l-24 -164h-199z" glyph-name="uni1E92" horiz-adv-x="1448" unicode="Ẓ"/><glyph d="M1177 1108l-19 -138l-840 -832h723l-19 -138h-964l19 138l839 832h-721l18 138h964zM389 -364l23 164h200l-23 -164h-200z" glyph-name="uni1E93" horiz-adv-x="1234" unicode="ẓ"/><glyph d="M1366 0h-221l-77 322h-719l-167 -322h-221l760 1434h287zM428 474h604l-189 800zM512 -364l23 164h200l-23 -164h-200z" glyph-name="uni1EA0" horiz-adv-x="1482" unicode="Ạ"/><glyph d="M752 1121q253 0 358 -103t74 -328l-98 -690h-186l13 155q-81 -72 -206 -121.5t-291 -47.5q-172 3 -254 79.5t-67 204.5q24 229 246.5 330t643.5 66l6 42q15 140 -48.5 201.5t-231.5 67.5q-188 6 -371 -80l20 143q174 81 392 81zM933 294l33 230q-333 30 -499.5 -20.5 t-187.5 -201.5q-13 -97 50.5 -134.5t205.5 -35.5q126 1 231.5 50t166.5 112zM395 -200h201l-24 -164h-199z" glyph-name="uni1EA1" horiz-adv-x="1336" unicode="ạ"/><glyph d="M341 154h828l-20 -154h-1038l200 1434h1039l-22 -154h-828l-69 -486h744l-22 -154h-743zM501 -200h200l-23 -164h-200z" glyph-name="uni1EB8" horiz-adv-x="1414" unicode="Ẹ"/><glyph d="M1212 499h-895q-4 -99 31.5 -174.5t98 -119t136.5 -65t159 -21.5q174 -1 323 71l-19 -138q-155 -67 -371 -66q-90 0 -174.5 20.5t-159 65.5t-125.5 110t-74 161t-7 211q15 113 60 208t107.5 160t140 111t159.5 67t166 21q168 0 287 -75.5t163.5 -213.5t-6.5 -333z M761 988q-143 -2 -259.5 -93.5t-161.5 -255.5h728q18 87 -1 156.5t-66.5 110.5t-108.5 62t-131 20zM503 -364l22 164h201l-24 -164h-199z" glyph-name="uni1EB9" horiz-adv-x="1361" unicode="ẹ"/><glyph d="M532 1569q13 98 70 154.5t136 56.5q38 0 76.5 -16.5t64.5 -37t58.5 -37t60.5 -16.5q34 0 60 30t33 72h105q-14 -98 -72.5 -154.5t-134.5 -56.5q-32 0 -68.5 16.5t-63.5 36.5t-60 36.5t-60 16.5q-39 -1 -66 -29.5t-33 -72.5zM341 154h828l-20 -154h-1038l200 1434h1039 l-22 -154h-828l-69 -486h744l-22 -154h-743z" glyph-name="uni1EBC" horiz-adv-x="1414" unicode="Ẽ"/><glyph d="M674 1345q-39 -1 -66 -30t-34 -73l-105 1q13 98 70 154.5t136 56.5q38 0 76.5 -16.5t64.5 -37t58 -36.5t61 -16q34 0 60 29.5t32 71.5h106q-14 -98 -73 -154.5t-134 -56.5q-32 0 -69 17t-63.5 37t-59.5 36.5t-60 16.5zM1212 499h-895q-4 -99 31.5 -174.5t98 -119 t136.5 -65t159 -21.5q174 -1 323 71l-19 -138q-155 -67 -371 -66q-90 0 -174.5 20.5t-159 65.5t-125.5 110t-74 161t-7 211q15 113 60 208t107.5 160t140 111t159.5 67t166 21q168 0 287 -75.5t163.5 -213.5t-6.5 -333zM761 988q-143 -2 -259.5 -93.5t-161.5 -255.5h728 q18 87 -1 156.5t-66.5 110.5t-108.5 62t-131 20z" glyph-name="uni1EBD" horiz-adv-x="1361" unicode="ẽ"/><glyph d="M319 0h-208l200 1434h210zM86 -200h201l-24 -164h-200z" glyph-name="uni1ECA" horiz-adv-x="584" unicode="Ị"/><glyph d="M288 1434h241l-20 -145h-242zM265 1108h195l-155 -1108h-194zM79 -200h201l-24 -164h-200z" glyph-name="uni1ECB" horiz-adv-x="570" unicode="ị"/><glyph d="M1601 717q-20 -143 -78 -264t-139.5 -206t-183 -145t-210 -88t-219.5 -28t-210.5 28t-184 88t-142 145t-81.5 205.5t-3 264.5q25 176 106.5 318.5t196.5 230.5t250 135t275 47q111 0 211.5 -28.5t184.5 -89t141.5 -145.5t81 -206t4.5 -262zM794 139q101 0 198.5 38 t179.5 108t140.5 182.5t78 249.5t-8 249t-90.5 183t-149.5 108t-187 37t-197 -37t-179 -108t-141.5 -183t-79 -249q-16 -114 -1 -205.5t54 -161t97.5 -117t131 -71t153.5 -23.5zM646 -200h201l-24 -164h-199z" glyph-name="uni1ECC" horiz-adv-x="1703" unicode="Ọ"/><glyph d="M1295 554q-16 -116 -63 -212t-112.5 -161t-147.5 -110t-166.5 -65t-170.5 -20t-164.5 20t-147.5 65t-116 110t-67.5 161t-4.5 212q16 113 63 208t112.5 160t147 111t166.5 67t171 21t165 -21t148 -67t116 -111t66.5 -160t4.5 -208zM654 121q104 0 197 47.5t161.5 148 t88.5 237.5q28 202 -67.5 317.5t-257.5 115.5q-78 0 -151 -28.5t-134 -82.5t-104 -137.5t-57 -184.5q-14 -103 5.5 -187t65.5 -137t111 -81t142 -28zM509 -200h201l-24 -164h-200z" glyph-name="uni1ECD" horiz-adv-x="1430" unicode="ọ"/><glyph d="M1442 1434l-123 -871q-42 -306 -198.5 -441.5t-447.5 -135.5q-290 0 -408.5 135.5t-76.5 441.5l123 871h210l-127 -905q-28 -201 42.5 -295.5t258 -94.5t285 95t125.5 295l127 905h210zM547 -200h201l-24 -164h-200z" glyph-name="uni1EE4" horiz-adv-x="1506" unicode="Ụ"/><glyph d="M1123 1108h194l-156 -1108h-194l26 193q-104 -120 -226.5 -163t-279.5 -43q-179 0 -271 111t-60 339l94 671h194l-88 -627q-49 -353 236 -353q63 0 131 23t130.5 66t112.5 115t70 163zM481 -200h201l-24 -164h-199z" glyph-name="uni1EE5" horiz-adv-x="1412" unicode="ụ"/><glyph d="M506 1876h189l190 -307h-156zM1187 1434h223l-640 -874l-78 -560h-210l79 560l-395 874h224l303 -674z" glyph-name="Ygrave" horiz-adv-x="1329" unicode="Ỳ"/><glyph d="M437 1549h190l189 -307h-156zM1063 1108h206l-591 -1057q-36 -65 -72 -116.5t-94.5 -113t-123 -103t-157.5 -69.5t-197 -28l11 131q278 10 409 303l-283 1053h207l216 -870z" glyph-name="ygrave" horiz-adv-x="1284" unicode="ỳ"/><glyph d="M1187 1434h223l-640 -874l-78 -560h-210l79 560l-395 874h224l303 -674zM459 -200h200l-23 -164h-200z" glyph-name="uni1EF4" horiz-adv-x="1329" unicode="Ỵ"/><glyph d="M1063 1108h206l-591 -1057q-36 -65 -72 -116.5t-94.5 -113t-123 -103t-157.5 -69.5t-197 -28l11 131q278 10 409 303l-283 1053h207l216 -870zM928 -135h217l-25 -179h-218z" glyph-name="uni1EF5" horiz-adv-x="1313" unicode="ỵ"/><glyph d="M490 1569q13 98 70 154.5t136 56.5q38 0 76.5 -16.5t64 -37t58.5 -37t61 -16.5q33 0 59.5 30t33.5 72h105q-14 -98 -72.5 -154.5t-134.5 -56.5q-32 0 -68.5 16.5t-63.5 36.5t-60 36.5t-60 16.5q-39 -1 -66 -29.5t-33 -72.5zM1187 1434h223l-640 -874l-78 -560h-210 l79 560l-395 874h224l303 -674z" glyph-name="uni1EF8" horiz-adv-x="1329" unicode="Ỹ"/><glyph d="M422 1243q13 98 70 154.5t136 56.5q38 0 76 -16.5t64.5 -37t58.5 -36.5t61 -16q34 0 60 29.5t32 71.5h105q-14 -98 -72.5 -154.5t-133.5 -56.5q-32 0 -69 17t-63.5 37t-60 36.5t-59.5 16.5q-39 -1 -66 -30t-34 -73zM1063 1108h206l-591 -1057q-36 -65 -72 -116.5 t-94.5 -113t-123 -103t-157.5 -69.5t-197 -28l11 131q278 10 409 303l-283 1053h207l216 -870z" glyph-name="uni1EF9" horiz-adv-x="1284" unicode="ỹ"/><glyph d="M199 631h959l-22 -154h-959z" glyph-name="endash" horiz-adv-x="1334" unicode="–"/><glyph d="M199 631h1563l-21 -154h-1564z" glyph-name="emdash" horiz-adv-x="1939" unicode="—"/><glyph d="M457 1037h-202l173 500h169z" glyph-name="quoteleft" horiz-adv-x="646" unicode="‘"/><glyph d="M397 1536h202l-173 -499h-169z" glyph-name="quoteright" horiz-adv-x="646" unicode="’"/><glyph d="M169 187h201l-172 -498h-169z" glyph-name="quotesinglbase" horiz-adv-x="609" unicode="‚"/><glyph d="M457 1037h-202l173 499h169zM801 1037h-202l173 499h169z" glyph-name="quotedblleft" horiz-adv-x="990" unicode="“"/><glyph d="M396 1536h201l-172 -499h-170zM740 1536h201l-172 -499h-170z" glyph-name="quotedblright" horiz-adv-x="990" unicode="”"/><glyph d="M168 176h201l-172 -500h-170zM512 176h201l-172 -500h-170z" glyph-name="quotedblbase" horiz-adv-x="953" unicode="„"/><glyph d="M1012 1290l-20 -138h-281l-69 -486h-157l69 486h-282l19 138h281l35 246h158l-35 -246h282z" glyph-name="dagger" horiz-adv-x="1095" unicode="†"/><glyph d="M992 1152h-281l-41 -291h281l-20 -138h-281l-35 -246h-156l35 246h-283l19 138h283l40 291h-281l19 138h281l35 246h158l-35 -246h282z" glyph-name="daggerdbl" horiz-adv-x="1095" unicode="‡"/><glyph d="M217 764h457l-59 -420h-456z" glyph-name="bullet" horiz-adv-x="832" unicode="•"/><glyph d="M138 195h242l-28 -195h-241zM580 195h241l-27 -195h-242zM1021 195h242l-28 -195h-242z" glyph-name="ellipsis" horiz-adv-x="1501" unicode="…"/><glyph d="M873 1006q-31 -216 -136 -327.5t-263 -111.5q-157 0 -231 111.5t-43 327.5q30 215 135 326.5t263 111.5q157 0 231 -111.5t44 -326.5zM1403 1434h109l-966 -1434h-109zM487 668q103 0 169 88t89 250q23 161 -18.5 249t-143 88t-167.5 -88.5t-88 -248.5 q-24 -162 16.5 -250t142.5 -88zM1742 430q-30 -216 -136 -327t-263 -111q-158 0 -232 111t-43 327q30 215 136 326.5t262.5 111.5t231 -111.5t44.5 -326.5zM2482 430q-31 -216 -137 -327t-262.5 -111t-231 111t-44.5 327q30 215 136 326.5t263 111.5q158 0 232 -111.5 t44 -326.5zM1356.5 92q102.5 0 168.5 88t89 250q23 161 -19 249.5t-143 88.5t-167 -88.5t-89 -249.5q-23 -162 17.5 -250t143 -88zM2096.5 92q102.5 0 168.5 88t88 250q23 161 -18.5 249.5t-143 88.5t-167.5 -88.5t-89 -249.5q-23 -162 18 -250t143.5 -88z" glyph-name="perthousand" horiz-adv-x="2634" unicode="‰"/><glyph d="M785 947l-392 -384l284 -384h-204l-284 384l393 384h203z" glyph-name="guilsinglleft" horiz-adv-x="917" unicode="‹"/><glyph d="M244 947h203l284 -384l-392 -384h-204l392 384z" glyph-name="guilsinglright" horiz-adv-x="917" unicode="›"/><glyph d="M629 1434q240 2 368 -108.5t102 -314.5q-24 -173 -135.5 -278t-280.5 -125q-36 -7 -136 -12l-39 -262h-173l42 397h2l23 220h177l-27 -233q144 4 240 83.5t113 207.5q17 129 -65 200.5t-235 71.5q-102 1 -207 -26t-183 -71l25 174q171 75 389 76zM255 0l20 144h242 l-20 -144h-242z" glyph-name="uni203D" horiz-adv-x="1161" unicode="‽"/><glyph d="M888 1434h110l-967 -1434h-109z" glyph-name="fraction" horiz-adv-x="874" unicode="⁄"/><glyph d="M902 1210q-31 -216 -136.5 -327t-262.5 -111t-231 111t-44 327q30 215 135.5 327t263.5 112q157 0 231 -112t44 -327zM516 872q103 0 169 88.5t89 249.5t-18.5 249.5t-143 88.5t-167.5 -88.5t-89 -249.5q-24 -162 17 -250t143 -88z" glyph-name="uni2070" horiz-adv-x="945" unicode="⁰"/><glyph d="M908 1096l-14 -103h-153l-29 -215h-124l29 215h-419l14 103l478 542h143l-77 -542h152zM338 1096h295l57 412z" glyph-name="uni2074" horiz-adv-x="967" unicode="⁴"/><glyph d="M364 1638h531l-14 -102h-419l-55 -251q110 23 227 14q122 -11 184 -77t45 -184q-40 -271 -369 -268q-187 1 -315 90l67 91q44 -37 116 -58.5t145 -21.5q105 1 161 40.5t69 127.5q12 84 -50.5 129.5t-169.5 45.5q-93 0 -205 -23l-33 31z" glyph-name="uni2075" horiz-adv-x="930" unicode="⁵"/><glyph d="M903 1065q-10 -74 -48.5 -131.5t-93.5 -92t-118 -52.5t-128.5 -18t-123.5 18t-103.5 52.5t-67.5 92t-12 131.5q5 39 15 67t26 58t60 81t93 105t149 162q59 65 93 100h154l-294 -315q88 33 170 25q111 -10 178.5 -84t50.5 -199zM526 861q92 0 164.5 55.5t84.5 148.5 q13 95 -43 149.5t-148 54.5q-90 0 -163 -56.5t-86 -147.5q-12 -93 44 -148.5t147 -55.5z" glyph-name="uni2076" horiz-adv-x="966" unicode="⁶"/><glyph d="M289 1638h584l-14 -102q-321 -345 -438 -758h-133q118 410 422 758h-437z" glyph-name="uni2077" horiz-adv-x="856" unicode="⁷"/><glyph d="M872.5 1016q-11.5 -83 -71 -141.5t-136 -83t-164.5 -24.5q-65 0 -120.5 15t-100 43.5t-67 77.5t-12.5 113q11 83 69 139t140 83q-55 25 -84.5 72t-20.5 112q14 105 106 162.5t212.5 57.5t197 -57t62.5 -163q-9 -66 -52.5 -112.5t-104.5 -71.5q74 -27 116 -83t30.5 -139z M420 1418q-9 -63 36.5 -100t117 -37t127.5 37t65 100q8 62 -35 97.5t-119.5 35.5t-130 -35.5t-61.5 -97.5zM514 860q87 0 152.5 41.5t76.5 118.5q10 76 -43.5 121t-139.5 45t-152.5 -45t-76.5 -121q-11 -77 42.5 -118.5t140.5 -41.5z" glyph-name="uni2078" horiz-adv-x="943" unicode="⁸"/><glyph d="M247 1348q13 96 76 165t143.5 98.5t169.5 29.5q66 0 123.5 -17.5t103 -52t68 -92.5t12.5 -131q-9 -63 -35.5 -111.5t-86 -118t-220.5 -242.5q-60 -65 -94 -102h-154l293 316q-88 -33 -170 -25q-111 10 -178.5 84t-50.5 199zM623.5 1551q-92.5 0 -164.5 -55t-84 -148 q-13 -95 43 -149.5t148 -54.5q91 0 163.5 56t85.5 148q12 93 -43.5 148t-148 55z" glyph-name="uni2079" horiz-adv-x="966" unicode="⁹"/><glyph d="M750 123q-31 -216 -136.5 -327t-263.5 -111q-157 0 -231 111t-43 327q30 215 135 326.5t263 111.5q157 0 231.5 -111.5t44.5 -326.5zM364 -215q103 0 168.5 88t89.5 250q23 161 -19 249.5t-143.5 88.5t-167.5 -88.5t-88 -249.5q-24 -162 17 -250t143 -88z" glyph-name="uni2080" horiz-adv-x="945" unicode="₀"/><glyph d="M364 -205h207l-14 -102h-542l14 102h208l91 646q-96 -51 -177 -73l16 112q83 20 176 73h127z" glyph-name="uni2081" horiz-adv-x="813" unicode="₁"/><glyph d="M692 -205l-14 -102h-663l14 102q36 25 105 72t113 78t105.5 76t101.5 79.5t79 73.5t60 74.5t25 65.5q10 73 -34 114t-141 42q-135 0 -253 -76l-40 84q153 94 312 94q158 0 233.5 -64.5t60.5 -172.5q-5 -36 -23.5 -75t-42.5 -72t-63.5 -72.5t-72.5 -69t-84.5 -69 t-84.5 -63.5t-87.5 -62.5t-79.5 -56.5h474z" glyph-name="uni2082" horiz-adv-x="933" unicode="₂"/><glyph d="M167 561h596l-14 -102l-354 -276q54 5 105 -1q112 -12 170.5 -75t43.5 -166q-19 -128 -113 -195t-254 -64q-188 3 -320 96l71 88q45 -37 119 -60t143 -22q205 2 228 159q11 78 -41 120.5t-154 42.5q-87 0 -150 -23l-24 98l377 278h-443z" glyph-name="uni2083" horiz-adv-x="935" unicode="₃"/><glyph d="M756 10l-15 -102h-152l-30 -215h-124l30 215h-420l14 102l479 543h142l-77 -543h153zM185 10h295l58 413z" glyph-name="uni2084" horiz-adv-x="967" unicode="₄"/><glyph d="M211 553h531l-14 -102h-419l-55 -251q110 23 227 14q122 -11 184 -77t46 -184q-40 -271 -370 -268q-187 1 -314 90l66 91q44 -37 116.5 -58.5t144.5 -21.5q105 1 161 40.5t70 127.5q12 84 -51 129.5t-169 45.5q-93 0 -205 -24l-34 31z" glyph-name="uni2085" horiz-adv-x="930" unicode="₅"/><glyph d="M752 -12q-10 -74 -48.5 -132t-94 -92t-118.5 -52t-128.5 -18t-123.5 18t-103.5 52t-67.5 92t-12 132q5 39 15.5 67t26.5 57.5t60 81t92.5 105t148.5 162.5q59 65 94 100h153l-294 -315q88 33 170 24q111 -10 179 -83.5t51 -198.5zM375 -216q92 0 164 55.5t85 148.5 q13 95 -43.5 149t-148.5 54q-90 0 -162.5 -56t-86.5 -147q-12 -93 44.5 -148.5t147.5 -55.5z" glyph-name="uni2086" horiz-adv-x="966" unicode="₆"/><glyph d="M136 553h585l-14 -102q-321 -345 -439 -758h-133q118 410 422 758h-436z" glyph-name="uni2087" horiz-adv-x="856" unicode="₇"/><glyph d="M721 -67q-11 -83 -70.5 -141t-136.5 -82.5t-165 -24.5q-65 0 -120.5 14.5t-100 43.5t-66.5 78t-13 112q11 83 69 139.5t140 83.5q-55 25 -84.5 71.5t-19.5 112.5q14 105 105.5 162.5t212.5 57.5t197 -57.5t62 -162.5q-9 -66 -52 -113t-105 -71q74 -27 116 -83.5 t31 -139.5zM268 336q-9 -63 36.5 -100t117.5 -37t127.5 36.5t64.5 100.5q8 62 -34.5 97.5t-119.5 35.5t-130.5 -35.5t-61.5 -97.5zM362.5 -222q87.5 0 153 41.5t76.5 118.5q10 76 -43.5 120.5t-139.5 44.5t-153 -45t-77 -120q-11 -77 42.5 -118.5t141 -41.5z" glyph-name="uni2088" horiz-adv-x="943" unicode="₈"/><glyph d="M95 267q13 96 76 165.5t143.5 99t169.5 29.5q66 0 124 -18t103.5 -52t68 -92t12.5 -132q-9 -63 -36 -111t-86.5 -118t-219.5 -243q-60 -65 -95 -101h-153l293 315q-88 -33 -170 -24q-111 10 -179 83.5t-51 198.5zM472 471q-92 0 -164 -55.5t-85 -148.5 q-13 -95 43.5 -149.5t148.5 -54.5q91 0 163 56.5t86 147.5q12 93 -44 148.5t-148 55.5z" glyph-name="uni2089" horiz-adv-x="966" unicode="₉"/><glyph d="M1094 1284q-83 -3 -163 -28.5t-153 -71t-133.5 -119t-98.5 -165.5h673l-14 -100h-691q-9 -36 -16 -83q-5 -38 -8 -83h692l-15 -100h-672q11 -92 51 -165.5t100 -119t132.5 -71t155.5 -28.5q190 -8 379 86l-24 -170q-178 -80 -378 -80q-96 0 -184.5 21.5t-166.5 66.5 t-136.5 109t-96.5 154t-46 197h-148l14 100h133q4 55 8 83q6 43 15 83h-132l13 100h149q47 133 132 239t190.5 172.5t223 101.5t238.5 35q199 0 356 -80l-25 -170q-161 94 -354 86z" glyph-name="Euro" horiz-adv-x="1544" unicode="€"/><glyph d="M311 1434h1066l-18 -139h-1067zM1328 1085l-18 -138h-429l-132 -947h-210l132 947h-428l19 138h1066z" glyph-name="uni20B8" horiz-adv-x="1441" unicode="₸"/><glyph d="M1280 1434l-13 -102h-224q126 -108 113 -301h69l-15 -100h-69q-32 -130 -122 -215.5t-247 -133.5l275 -582h-212l-254 539q-160 -25 -399 -28l21 145q344 3 513 67t214 208h-689l14 101l692 -1q4 122 -68 189.5t-202 67.5h-386l6 44l14 102h969z" glyph-name="uni20B9" horiz-adv-x="1344" unicode="₹"/><glyph d="M1160 748h177q-49 -357 -249.5 -552.5t-508.5 -195.5h-468l129 925l-191 -18l14 102l191 17l13 93l-190 -17l14 101l191 18l29 213h210l-27 -194l616 55l-14 -101l-617 -55l-13 -93l616 55l-14 -102l-616 -55l-110 -779h233q236 0 390 145t195 438z" glyph-name="uni20BA" horiz-adv-x="1445" unicode="₺"/><glyph d="M900 1242q262 -11 369 -147.5t65 -428.5l-93 -666h-210l98 699q27 186 -32.5 281t-217.5 107l-153 -1087h-101l152 1087q-162 -12 -247.5 -106.5t-111.5 -281.5l-99 -699h-208l93 666q41 293 186 429t410 147l26 192h101z" glyph-name="uni20BC" horiz-adv-x="1506" unicode="₼"/><glyph d="M1317 1066q-15 -115 -77 -200t-148 -121q108 -32 161.5 -122.5t31.5 -234.5q-13 -97 -58.5 -173t-111.5 -121.5t-143.5 -69.5t-162.5 -24l-27 -185h-108l26 185h-270l-26 -185h-108l26 185h-211l200 1434h212l26 185h108l-25 -185h270l26 185h107l-24 -186 q153 -7 242 -102t64 -265zM1115 1039q18 132 -43 193t-177 61h-393l-72 -506h393q74 0 132.5 23.5t103 81t56.5 147.5zM1077 395q18 132 -44.5 194t-178.5 62h-443l-72 -513l442 -2q75 0 135 25t104 85t57 149z" glyph-name="uni20BF" horiz-adv-x="1435" unicode="₿"/><glyph d="M884 1290q-91 53 -221 49q-118 -3 -206 -79t-108 -216q-19 -140 47.5 -215.5t183.5 -78.5q127 -4 234 47l-14 -104q-111 -47 -246 -47q-77 0 -144 24.5t-119 72t-76.5 125.5t-9.5 176q13 98 59.5 176.5t111.5 125.5t139.5 71.5t151.5 24.5q139 0 231 -47zM1454 1434h110 l-968 -1434h-109zM1890 388q-11 -81 -43.5 -148.5t-79 -113t-103.5 -77t-116 -45.5t-120 -14q-76 0 -142.5 23.5t-119 69.5t-77 125t-10.5 180q13 98 60 176.5t112 125t139 71t150 24.5q77 0 144 -24.5t119 -71t76 -125t11 -176.5zM1442.5 92q110.5 0 197.5 78t107 218 q19 136 -46.5 215.5t-175 79.5t-196.5 -79.5t-106 -215.5q-19 -140 45 -218t174.5 -78z" glyph-name="afii61248" horiz-adv-x="2049" unicode="℅"/><glyph d="M861 106q-151 -122 -312 -122q-160 -2 -226.5 85t-44.5 247l22 162q-81 -29 -180 -51l15 85q127 42 178 62l70 490q22 160 111.5 262t237.5 115q126 11 203.5 -53t74.5 -195q3 -106 -38 -205.5t-117 -182.5t-166.5 -150t-203.5 -128l-26 -187q-28 -220 152 -220 q110 0 209 79zM501 640q392 242 384 536q-2 72 -43.5 110t-107.5 27q-73 -12 -116.5 -81t-57.5 -172z" glyph-name="afii61289" horiz-adv-x="1070" unicode="ℓ"/><glyph d="M2686 946q-14 -102 -56 -187.5t-100 -142.5t-130.5 -96.5t-147.5 -57.5t-151 -18t-145 18t-130 57.5t-103 96.5t-59.5 142.5t-3.5 187.5q14 100 55 184t99 141.5t130 98t147.5 59.5t151.5 19q77 0 147 -19t131 -59.5t102 -98t59 -141.5t4 -184zM1326 1434h209l-201 -1434 h-219l-637 1130l-159 -1130h-208l200 1434h219l638 -1124zM2120 568q90 0 171 41.5t141 129t77 207.5q25 175 -59 276.5t-225 101.5q-140 0 -251.5 -101.5t-136.5 -276.5q-25 -179 58.5 -278.5t224.5 -99.5zM1588 287h983l-16 -120h-983z" glyph-name="afii61352" horiz-adv-x="2818" unicode="№"/><glyph d="M806 -30q-161 0 -294.5 58.5t-220 159t-125 238t-16.5 291.5q22 155 99 292.5t191 237.5t264.5 158t311.5 58q162 0 296 -57.5t221 -157.5t125.5 -238.5t16.5 -292.5t-99.5 -291.5t-192 -238t-265 -159t-312.5 -58.5zM822 77q187 0 348 83.5t264 229.5t128.5 327 t-36.5 327t-199 229.5t-324.5 83.5t-348 -83.5t-263.5 -229.5t-128.5 -327t36.5 -327t199.5 -229.5t323.5 -83.5zM1038 1112q125 0 192.5 -66.5t52.5 -180.5q-20 -141 -144 -203.5t-395 -64.5l-38 -275h-114l110 790h336zM1168 865q10 72 -29.5 118t-116.5 46h-217l-48 -349 q143 1 230.5 21t129.5 59t51 105z" glyph-name="uni2117" horiz-adv-x="1778" unicode="℗"/><glyph d="M228 870q97 -71 226 -70q75 0 130.5 27t62.5 78q2 13 0.5 24.5t-9 22t-14 18t-21.5 15.5t-25.5 13.5t-32 13t-32.5 11.5t-37.5 12t-39.5 13q-188 63 -165 203q14 90 92 146.5t206 56.5q118 0 205 -56l-15 -104q-88 69 -202 69q-74 0 -117 -33t-51 -83q-4 -20 4.5 -38 t22.5 -30t42.5 -24t51 -20t61.5 -19q108 -33 156.5 -83t35.5 -136q-16 -94 -106.5 -141t-216.5 -47q-143 0 -227 55zM1623 1434h175l-100 -717h-118l79 567l-298 -480h-106l-163 480l-80 -567h-118l100 717h175l158 -493z" glyph-name="uni2120" horiz-adv-x="1847" unicode="℠"/><glyph d="M829 1434l-12 -91h-208l-88 -626h-118l89 626h-208l12 91h533zM1585 1434h174l-100 -717h-118l80 567l-298 -480h-105l-164 480l-80 -567h-118l100 717h176l157 -493z" glyph-name="trademark" horiz-adv-x="1809" unicode="™"/><glyph d="M487 676h208l-14 -103h-542l14 103h207l92 646q-96 -51 -178 -74l17 113q83 20 176 73h127zM1372 1434h110l-967 -1434h-108zM1669 241q-11 -83 -70.5 -141.5t-136.5 -83t-165 -24.5q-65 0 -120.5 15t-100 43.5t-66.5 77.5t-13 113q11 83 68.5 139t139.5 83 q-54 25 -83 72t-20 112q14 105 105.5 162.5t212.5 57.5q122 0 198 -57t60 -163q-17 -128 -156 -184q75 -27 116.5 -83t30.5 -139zM1217 643q-9 -63 36 -100t117 -37t127.5 37t65.5 100q8 62 -35.5 97.5t-119.5 35.5q-77 0 -130 -35.5t-61 -97.5zM1311 85q87 0 152.5 41.5 t76.5 118.5q10 76 -44 121t-139 45q-86 0 -152.5 -45t-77.5 -121q-11 -77 43 -118.5t141 -41.5z" glyph-name="oneeighth" horiz-adv-x="1847" unicode="⅛"/><glyph d="M290 1434h596l-14 -103l-353 -275q57 5 104 0q112 -12 171 -76t44 -167q-19 -127 -113.5 -193.5t-254.5 -64.5q-188 2 -319 95l70 89q45 -37 119.5 -60.5t143.5 -22.5q204 3 227 159q12 78 -40.5 121t-154.5 43q-84 0 -150 -23l-24 98l377 277h-443zM1444 1434h110 l-967 -1434h-109zM1770 241q-11 -83 -70 -141.5t-136 -83t-165 -24.5q-63 0 -119.5 15t-101 43.5t-66.5 77.5t-13 113q11 83 69 139t140 83q-54 25 -83.5 72t-20.5 112q14 105 106 162.5t213 57.5t196.5 -57t61.5 -163q-9 -66 -52 -113t-105 -71q75 -27 116.5 -83t29.5 -139 zM1318 643q-9 -63 37 -100t116 -37q72 0 128 37t65 100q9 62 -34.5 97.5t-120 35.5t-129.5 -35.5t-62 -97.5zM1413 85q86 0 151.5 41.5t76.5 118.5q11 76 -43 121t-140 45q-85 0 -152 -45t-77 -121q-11 -77 43 -118.5t141 -41.5z" glyph-name="threeeighths" horiz-adv-x="1948" unicode="⅜"/><glyph d="M335 1434h531l-14 -103h-419l-55 -251q110 23 227 15q122 -11 184 -77.5t46 -183.5q-40 -271 -370 -269q-187 1 -314 90l66 91q44 -37 116.5 -58t144.5 -21q105 1 161 40t70 128q12 84 -51 129.5t-170 45.5q-93 0 -204 -24l-34 31zM1450 1434h110l-968 -1434h-109z M1756 241q-11 -83 -70 -141.5t-136 -83t-166 -24.5q-63 0 -119.5 15t-101 43.5t-66.5 77.5t-13 113q11 83 69 139t140 83q-54 25 -83 72t-20 112q14 105 106 162.5t212.5 57.5t196.5 -57t61 -163q-9 -66 -52 -113t-104 -71q75 -27 116.5 -83t29.5 -139zM1304 643 q-9 -63 36.5 -100t116.5 -37q72 0 127.5 37t65.5 100q9 62 -34.5 97.5t-120.5 35.5t-129.5 -35.5t-61.5 -97.5zM1399 85q86 0 151.5 41.5t76.5 118.5q11 76 -43 121t-140 45q-85 0 -151.5 -45t-78.5 -121q-11 -77 43.5 -118.5t141.5 -41.5z" glyph-name="fiveeighths" horiz-adv-x="1935" unicode="⅝"/><glyph d="M1203 1434h110l-967 -1434h-108zM260 1434h585l-15 -103q-321 -345 -438 -758h-133q118 410 422 758h-436zM1510 241q-11 -83 -70 -141.5t-136 -83t-165 -24.5q-63 0 -119.5 15t-101.5 43.5t-67 77.5t-12 113q11 83 69 139t140 83q-54 25 -83.5 72t-20.5 112 q14 105 106 162.5t212.5 57.5t196.5 -57t62 -163q-9 -66 -52.5 -113t-104.5 -71q75 -27 116.5 -83t29.5 -139zM1059 643q-9 -63 36.5 -100t115.5 -37q72 0 128 37t65 100q9 62 -34.5 97.5t-120.5 35.5t-129.5 -35.5t-60.5 -97.5zM1153 85q86 0 151.5 41.5t76.5 118.5 q11 76 -43 121t-139 45q-86 0 -152.5 -45t-77.5 -121q-11 -77 43 -118.5t141 -41.5z" glyph-name="seveneighths" horiz-adv-x="1688" unicode="⅞"/><glyph d="M740 0l-529 717l529 717h212l-458 -620h1151v-194h-1150l456 -620h-211z" glyph-name="arrowleft" horiz-adv-x="1822" unicode="←"/><glyph d="M1671 904v-211l-619 457v-1150h-195v1150l-619 -458v212l716 530z" glyph-name="arrowup" horiz-adv-x="1839" unicode="↑"/><glyph d="M1128 0h-210l456 620h-1150v194h1151l-459 620h212l530 -717z" glyph-name="arrowright" horiz-adv-x="1822" unicode="→"/><glyph d="M1648 529l-717 -529l-717 529v212l620 -457v1150h194v-1150l620 456v-211z" glyph-name="arrowdown" horiz-adv-x="1839" unicode="↓"/><glyph d="M1818 1434l529 -717l-529 -717h-211l456 620h-1568l456 -620h-211l-529 717l529 717h212l-458 -620h1570l-458 620h212z" glyph-name="arrowboth" horiz-adv-x="2511" unicode="↔"/><glyph d="M1072 -69l620 457v-211l-717 -529l-717 529v212l620 -458v1366l-620 -457v212l717 529l717 -529v-211l-620 456v-1366z" glyph-name="arrowupdn" horiz-adv-x="1932" unicode="↕"/><glyph d="M1467 408l-137 -138l-866 871v-860l-153 139v1014h1014l139 -153h-866z" glyph-name="uni2196" horiz-adv-x="1685" unicode="↖"/><glyph d="M429 1434h1014v-1014l-153 -139v859l-865 -870l-138 138l870 873h-867z" glyph-name="uni2197" horiz-adv-x="1649" unicode="↗"/><glyph d="M1268 1153l152 -139v-1014h-1013l-140 153h867l-870 873l137 137l867 -870v860z" glyph-name="uni2198" horiz-adv-x="1685" unicode="↘"/><glyph d="M1409 1026l-870 -873h867l-139 -153h-1014v1014l153 139v-859l865 869z" glyph-name="uni2199" horiz-adv-x="1649" unicode="↙"/><glyph d="M742 1382q114 -4 210 -59t163 -153.5t93.5 -249.5t1.5 -334q-17 -124 -62 -226t-106.5 -170t-138 -114.5t-154.5 -67t-158 -20.5q-79 0 -152 18t-137 57t-108 96t-62.5 142.5t-4.5 187.5q17 125 73.5 224t137.5 159.5t176.5 91t198.5 27.5q95 -1 175.5 -30.5t133.5 -80.5 q-22 179 -114 269.5t-246 119.5zM1013 563q13 96 15 178q-46 59 -133 92t-200 33q-143 0 -246 -98.5t-127 -278.5q-26 -180 58 -278t229 -98q147 0 260 114.5t144 335.5z" glyph-name="partialdiff" horiz-adv-x="1341" unicode="∂"/><glyph d="M1312 1030l-124 -108q114 -158 83 -368q-16 -116 -75.5 -221.5t-146.5 -181t-198.5 -120.5t-226.5 -45q-209 0 -350 135l-130 -114l-62 71l131 116q-106 156 -78 360q23 155 117 285.5t235.5 206t295.5 75.5q204 0 342 -128l124 109zM255 554q-22 -155 55 -275l719 629 q-108 94 -262 94q-122 0 -234 -59.5t-186.5 -163t-91.5 -225.5zM1152 554q23 160 -60 283l-720 -631q109 -100 268 -101q122 0 234 60t186.5 163.5t91.5 225.5z" glyph-name="emptyset" horiz-adv-x="1406" unicode="∅"/><glyph d="M1446 1434l-235 -1674h-210l214 1520h-715l-214 -1520h-210l235 1674h1135z" glyph-name="product" horiz-adv-x="1510" unicode="∏"/><glyph d="M1206 -79l-22 -157h-1107l20 145l620 743l-412 742l22 145h1086l-21 -156h-834l387 -731l-592 -733z" glyph-name="summation" horiz-adv-x="1482" unicode="∑"/><glyph d="M1095 647h-894l19 139h895z" glyph-name="minus" horiz-adv-x="1269" unicode="−"/><glyph d="M1731 1434l-883 -1741h-213l-145 831h-307l23 154h434l128 -799l788 1555h175z" glyph-name="radical" horiz-adv-x="1795" unicode="√"/><glyph d="M1315 904q137 0 210.5 -97t52.5 -253q-22 -152 -123 -247.5t-237 -95.5q-195 0 -374 252q-250 -252 -444 -252q-136 0 -210.5 95.5t-54.5 247.5q23 156 124 253t239 97q189 0 372 -254q255 254 445 254zM429 338q79 0 161 54.5t191 162.5q-87 117 -150.5 169.5 t-138.5 52.5q-81 0 -140 -63.5t-72 -159.5q-12 -93 27.5 -154.5t121.5 -61.5zM1223 338q82 0 140 62t72 154q13 96 -29 159.5t-122 63.5q-76 0 -152.5 -51.5t-199.5 -170.5q79 -108 145.5 -162.5t145.5 -54.5z" glyph-name="infinity" horiz-adv-x="1713" unicode="∞"/><glyph d="M756 1430q83 0 139 -26l-22 -89q-57 13 -110 3q-62 -5 -88 -42t-37 -116l-164 -1161q-19 -142 -99 -199.5t-211 -56.5q-83 0 -139 26l21 89q58 -13 112 -3q62 5 87 41t38 116l162 1162q20 142 100 199.5t211 56.5z" glyph-name="integral" horiz-adv-x="911" unicode="∫"/><glyph d="M221 792q15 113 80 176.5t154 63.5q42 0 84.5 -18t71.5 -39t65.5 -38.5t67.5 -17.5q36 0 64 31.5t35 76.5h127q-16 -114 -82.5 -177.5t-152.5 -63.5q-36 0 -76.5 18t-70.5 39t-67 38.5t-66 17.5q-42 0 -70.5 -30t-36.5 -78zM169 422q15 113 79.5 177t153.5 64 q42 0 84.5 -18t72 -39t65.5 -39t68 -18q36 0 63.5 31t35.5 76h128q-17 -114 -83.5 -177t-152.5 -63q-36 0 -76.5 18t-70.5 39.5t-67 38.5t-67 17q-41 -1 -69.5 -31t-36.5 -77z" glyph-name="approxequal" horiz-adv-x="1091" unicode="≈"/><glyph d="M1120 830h-314l-191 -227h474l-20 -138h-570l-182 -216h-104l181 216h-219l20 138h316l190 227h-475l21 139h571l181 216h105l-181 -216h218z" glyph-name="notequal" horiz-adv-x="1269" unicode="≠"/><glyph d="M1164 1061l-21 -156l-783 -205l724 -204l-21 -155l-870 246l21 155l10 72zM120 68l21 153h905l-22 -153h-904z" glyph-name="lessequal" horiz-adv-x="1281" unicode="≤"/><glyph d="M1129 814l-10 -72h1l-22 -155l-939 -246l21 155l782 204l-724 205l22 156zM120 68l22 153h905l-22 -153h-905z" glyph-name="greaterequal" horiz-adv-x="1281" unicode="≥"/><glyph d="M1029 -154q-177 0 -338.5 69.5t-277.5 185.5t-185 278t-69 339t69 338t185 277.5t277.5 185t338.5 68.5t338.5 -68.5t277.5 -185t185.5 -277.5t69.5 -338t-69.5 -339t-185.5 -278t-277.5 -185.5t-338.5 -69.5zM1029 -52q209 0 386 103t280 280t103 387q0 157 -61 299 t-164 244.5t-245 163.5t-299 61t-299.5 -61t-245.5 -163.5t-164 -245t-61 -298.5q0 -210 103 -387t280 -280t387 -103zM1093 389h206v-102h-541v102h207v646q-88 -51 -167 -73v112q82 20 167 73h128v-758z" glyph-name="uni2460" horiz-adv-x="2011" unicode="①"/><glyph d="M1029 -154q-177 0 -338.5 69.5t-277.5 185.5t-185 278t-69 339t69 338t185 277.5t277.5 185t338.5 68.5t338.5 -68.5t277.5 -185t185.5 -277.5t69.5 -338t-69.5 -339t-185.5 -278t-277.5 -185.5t-338.5 -69.5zM1029 -52q209 0 386 103t280 280t103 387q0 157 -61 299 t-164 244.5t-245 163.5t-299 61t-299.5 -61t-245.5 -163.5t-164 -245t-61 -298.5q0 -210 103 -387t280 -280t387 -103zM1353 380v-102h-664v102q32 25 95 72.5t102.5 77.5t95 75t90 79.5t68.5 74t50 74.5t16 66q0 72 -50.5 113.5t-146.5 42.5q-136 0 -242 -77l-52 85 q138 94 298 94q158 0 242 -65t85 -173q0 -36 -13 -75t-32.5 -72.5t-53 -73t-62.5 -68.5t-74.5 -68t-76 -63t-78.5 -62.5t-70 -56.5h473z" glyph-name="uni2461" horiz-adv-x="2011" unicode="②"/><glyph d="M1029 -154q-177 0 -338.5 69.5t-277.5 185.5t-185 278t-69 339t69 338t185 277.5t277.5 185t338.5 68.5t338.5 -68.5t277.5 -185t185.5 -277.5t69.5 -338t-69.5 -339t-185.5 -278t-277.5 -185.5t-338.5 -69.5zM1029 -52q209 0 386 103t280 280t103 387q0 157 -61 299 t-164 244.5t-245 163.5t-299 61t-299.5 -61t-245.5 -163.5t-164 -245t-61 -298.5q0 -210 103 -387t280 -280t387 -103zM720 1156h595v-102l-315 -275q62 4 105 -1q114 -12 182 -75.5t67 -166.5q-1 -127 -86.5 -194t-244.5 -64q-185 1 -334 95l60 89q49 -37 126 -60.5 t147 -22.5q204 3 205 159q1 78 -57.5 120.5t-160.5 42.5q-86 0 -147 -22l-38 97l338 278h-442v102z" glyph-name="uni2462" horiz-adv-x="2011" unicode="③"/><glyph d="M1029 -154q-177 0 -338.5 69.5t-277.5 185.5t-185 278t-69 339t69 338t185 277.5t277.5 185t338.5 68.5t338.5 -68.5t277.5 -185t185.5 -277.5t69.5 -338t-69.5 -339t-185.5 -278t-277.5 -185.5t-338.5 -69.5zM1029 -52q209 0 386 103t280 280t103 387q0 157 -61 299 t-164 244.5t-245 163.5t-299 61t-299.5 -61t-245.5 -163.5t-164 -245t-61 -298.5q0 -210 103 -387t280 -280t387 -103zM1369 604v-102h-151v-215h-124v215h-421v102l402 543h143v-543h151zM800 604h294v413z" glyph-name="uni2463" horiz-adv-x="2011" unicode="④"/><glyph d="M1029 -154q-177 0 -338.5 69.5t-277.5 185.5t-185 278t-69 339t69 338t185 277.5t277.5 185t338.5 68.5t338.5 -68.5t277.5 -185t185.5 -277.5t69.5 -338t-69.5 -339t-185.5 -278t-277.5 -185.5t-338.5 -69.5zM1029 -52q209 0 386 103t280 280t103 387q0 157 -61 299 t-164 244.5t-245 163.5t-299 61t-299.5 -61t-245.5 -163.5t-164 -245t-61 -298.5q0 -210 103 -387t280 -280t387 -103zM767 1151h531v-102h-418l-21 -251q106 23 226 14q124 -10 195.5 -76.5t70.5 -184.5q-1 -271 -331 -268q-187 1 -329 90l55 91q49 -37 124.5 -58.5 t147.5 -20.5q105 0 155.5 39.5t51.5 127.5q0 83 -69.5 129t-174.5 46q-94 0 -203 -24l-38 31z" glyph-name="uni2464" horiz-adv-x="2011" unicode="⑤"/><glyph d="M1029 -154q-177 0 -338.5 69.5t-277.5 185.5t-185 278t-69 339t69 338t185 277.5t277.5 185t338.5 68.5t338.5 -68.5t277.5 -185t185.5 -277.5t69.5 -338t-69.5 -339t-185.5 -278t-277.5 -185.5t-338.5 -69.5zM1029 -52q209 0 386 103t280 280t103 387q0 157 -61 299 t-164 244.5t-245 163.5t-299 61t-299.5 -61t-245.5 -163.5t-164 -245t-61 -298.5q0 -210 103 -387t280 -280t387 -103zM1376 578q0 -74 -30 -132t-81 -93t-111 -52.5t-126 -17.5q-65 0 -125 17.5t-111 52.5t-81 93t-30 132q0 63 20 111.5t67.5 114.5t184.5 242q53 68 83 105 h154l-250 -315q82 32 167 23q112 -9 190.5 -82.5t78.5 -198.5zM1028 374q92 0 156 55t64 149t-64 148t-156 54q-90 0 -155 -56t-65 -146q1 -93 65 -148.5t155 -55.5z" glyph-name="uni2465" horiz-adv-x="2011" unicode="⑥"/><glyph d="M1029 -154q-177 0 -338.5 69.5t-277.5 185.5t-185 278t-69 339t69 338t185 277.5t277.5 185t338.5 68.5t338.5 -68.5t277.5 -185t185.5 -277.5t69.5 -338t-69.5 -339t-185.5 -278t-277.5 -185.5t-338.5 -69.5zM1029 -52q209 0 386 103t280 280t103 387q0 157 -61 299 t-164 244.5t-245 163.5t-299 61t-299.5 -61t-245.5 -163.5t-164 -245t-61 -298.5q0 -210 103 -387t280 -280t387 -103zM734 1107h586v-102q-273 -347 -333 -758h-132q59 407 315 758h-436v102z" glyph-name="uni2466" horiz-adv-x="2011" unicode="⑦"/><glyph d="M1029 -154q-177 0 -338.5 69.5t-277.5 185.5t-185 278t-69 339t69 338t185 277.5t277.5 185t338.5 68.5t338.5 -68.5t277.5 -185t185.5 -277.5t69.5 -338t-69.5 -339t-185.5 -278t-277.5 -185.5t-338.5 -69.5zM1029 -52q209 0 386 103t280 280t103 387q0 157 -61 299 t-164 244.5t-245 163.5t-299 61t-299.5 -61t-245.5 -163.5t-164 -245t-61 -298.5q0 -210 103 -387t280 -280t387 -103zM1357 527q0 -83 -50.5 -140.5t-124 -82t-161.5 -24.5q-87 0 -161 24.5t-124.5 82t-50.5 140.5t49.5 140t128.5 83q-58 25 -94.5 71.5t-36.5 112.5 q0 105 84 162.5t205 57.5t204.5 -57.5t83.5 -162.5q1 -66 -35.5 -113t-93.5 -71q78 -26 127.5 -83t49.5 -140zM848 930q0 -63 50.5 -100t122.5 -37t122.5 36.5t50.5 100.5q0 62 -48 97.5t-125 35.5t-125 -35.5t-48 -97.5zM1021 372q87 0 147 42t60 118t-61 121t-146 45 t-146 -45t-61 -121q0 -77 60 -118.5t147 -41.5z" glyph-name="uni2467" horiz-adv-x="2011" unicode="⑧"/><glyph d="M1029 -154q-177 0 -338.5 69.5t-277.5 185.5t-185 278t-69 339t69 338t185 277.5t277.5 185t338.5 68.5t338.5 -68.5t277.5 -185t185.5 -277.5t69.5 -338t-69.5 -339t-185.5 -278t-277.5 -185.5t-338.5 -69.5zM1029 -52q209 0 386 103t280 280t103 387q0 157 -61 299 t-164 244.5t-245 163.5t-299 61t-299.5 -61t-245.5 -163.5t-164 -245t-61 -298.5q0 -210 103 -387t280 -280t387 -103zM681 856q0 74 30 132t81 92.5t111.5 52.5t125.5 18t125 -18t111 -52.5t81 -92.5t30 -132q0 -63 -20 -112t-67.5 -115t-184.5 -241q-53 -68 -83 -105h-154 l250 315q-82 -32 -167 -24q-112 9 -190.5 83t-78.5 199zM1029 1060q-92 0 -156 -55.5t-64 -148.5q0 -94 64 -148.5t156 -54.5q90 0 155 56.5t65 146.5q-1 93 -65 148.5t-155 55.5z" glyph-name="uni2468" horiz-adv-x="2011" unicode="⑨"/><glyph d="M1029 -154q-177 0 -338.5 69.5t-277.5 185.5t-185 278t-69 339t69 338t185 277.5t277.5 185t338.5 68.5t338.5 -68.5t277.5 -185t185.5 -277.5t69.5 -338t-69.5 -339t-185.5 -278t-277.5 -185.5t-338.5 -69.5zM1029 -52q209 0 386 103t280 280t103 387q0 157 -61 299 t-164 244.5t-245 163.5t-299 61t-299.5 -61t-245.5 -163.5t-164 -245t-61 -298.5q0 -210 103 -387t280 -280t387 -103zM1359 717q0 -216 -90.5 -327t-247.5 -111t-247 111t-90 327q0 215 89.5 326.5t247.5 111.5t248 -111.5t90 -326.5zM1021 379q102 0 155.5 88.5 t52.5 249.5q0 162 -53.5 250t-154.5 88t-154 -88t-53 -250q0 -161 53 -249.5t154 -88.5z" glyph-name="uni24EA" horiz-adv-x="2011" unicode="⓪"/><glyph d="M995 -121q-171 0 -325.5 66t-267 178.5t-178.5 268t-66 326.5t66 325.5t178.5 266.5t267 178t325.5 66t326 -66t267.5 -178t178.5 -266.5t66 -325.5t-66 -326.5t-178.5 -268t-267.5 -178.5t-326 -66zM1333 717q0 215 -90 326.5t-247.5 111.5t-247.5 -111.5t-90 -326.5 q0 -216 90.5 -327t246.5 -111q158 0 248 111t90 327zM995.5 379q-102.5 0 -156 88t-53.5 250t53.5 250t155.5 88q101 0 155 -88.5t54 -249.5q0 -162 -53 -250t-155.5 -88z" glyph-name="uni24FF" horiz-adv-x="1945" unicode="⓿"/><glyph d="M318 1485h1536v-1536h-1536v1536z" glyph-name="filledbox" horiz-adv-x="2126" unicode="■"/><glyph d="M311 1434h1434v-1434h-1434v1434zM412 1332v-1231h1232v1231h-1232z" glyph-name="H22073" horiz-adv-x="2010" unicode="□"/><glyph d="M1336 717l-552 -717h-223l-350 717l551 717h223zM1146 717l-291 580l-454 -580l290 -582z" glyph-name="lozenge" horiz-adv-x="1500" unicode="◊"/><glyph d="M1029 -154q-177 0 -338.5 69.5t-277.5 185.5t-185 278t-69 339t69 338t185 277.5t277.5 185t338.5 68.5t338.5 -68.5t277.5 -185t185.5 -277.5t69.5 -338t-69.5 -339t-185.5 -278t-277.5 -185.5t-338.5 -69.5zM1029 -52q209 0 386 103t280 280t103 387q0 157 -61 299 t-164 244.5t-245 163.5t-299 61t-299.5 -61t-245.5 -163.5t-164 -245t-61 -298.5q0 -210 103 -387t280 -280t387 -103z" glyph-name="circle" horiz-adv-x="2011" unicode="○"/><glyph d="M995 -121q-171 0 -325.5 66t-267 178.5t-178.5 268t-66 326.5t66 325.5t178.5 266.5t267 178t325.5 66t326 -66t267.5 -178t178.5 -266.5t66 -325.5t-66 -326.5t-178.5 -268t-267.5 -178.5t-326 -66z" glyph-name="H18533" horiz-adv-x="1945" unicode="●"/><glyph d="M1029 -154q-177 0 -338.5 69t-278 185.5t-185 278t-68.5 339.5q0 142 44 274.5t124.5 239.5t187.5 187.5t239.5 124t274.5 43.5t275 -43.5t240 -124t187 -187.5t124.5 -239.5t44.5 -274.5q0 -178 -69 -339.5t-185.5 -278t-278 -185.5t-338.5 -69zM1093 389v758h-128 q-85 -52 -167 -73v-112q79 23 167 73v-646h-207v-102h541v102h-206z" glyph-name="uni2776" horiz-adv-x="2011" unicode="❶"/><glyph d="M1029 -154q-177 0 -338.5 69t-278 185.5t-185 278t-68.5 339.5q0 142 44 274.5t124.5 239.5t187.5 187.5t239.5 124t274.5 43.5t275 -43.5t240 -124t187 -187.5t124.5 -239.5t44.5 -274.5q0 -178 -69 -339.5t-185.5 -278t-278 -185.5t-338.5 -69zM1360 380h-473 q23 18 71 56.5t78 62.5t75.5 63t74.5 68t62.5 68.5t53 73t33 72.5t13.5 75q-1 109 -85.5 173.5t-242.5 64.5q-160 0 -298 -94l52 -85q105 77 242 77q97 -1 147.5 -42.5t50.5 -113.5q0 -31 -16 -66t-50 -74t-69 -74t-90 -79.5t-95 -75.5t-102 -77.5t-95 -72.5v-102h663v102z " glyph-name="uni2777" horiz-adv-x="2011" unicode="❷"/><glyph d="M1029 -154q-177 0 -338.5 69t-278 185.5t-185 278t-68.5 339.5q0 142 44 274.5t124.5 239.5t187.5 187.5t239.5 124t274.5 43.5t275 -43.5t240 -124t187 -187.5t124.5 -239.5t44.5 -274.5q0 -178 -69 -339.5t-185.5 -278t-278 -185.5t-338.5 -69zM727 1156v-102h443 l-337 -278l36 -97q61 23 148 22q102 0 160 -43t57 -120q0 -156 -204 -159q-71 -1 -148 22t-126 61l-60 -89q148 -94 335 -95q159 -2 244 64.5t86 193.5q1 103 -67 166.5t-182 75.5q-41 5 -104 1l315 275v102h-596z" glyph-name="uni2778" horiz-adv-x="2011" unicode="❸"/><glyph d="M1029 -154q-177 0 -338.5 69t-278 185.5t-185 278t-68.5 339.5q0 142 44 274.5t124.5 239.5t187.5 187.5t239.5 124t274.5 43.5t275 -43.5t240 -124t187 -187.5t124.5 -239.5t44.5 -274.5q0 -178 -69 -339.5t-185.5 -278t-278 -185.5t-338.5 -69zM1377 604h-152v543h-143 l-401 -543v-102h420v-215h124v215h152v102zM807 604l294 413v-413h-294z" glyph-name="uni2779" horiz-adv-x="2011" unicode="❹"/><glyph d="M1029 -154q-177 0 -338.5 69t-278 185.5t-185 278t-68.5 339.5q0 142 44 274.5t124.5 239.5t187.5 187.5t239.5 124t274.5 43.5t275 -43.5t240 -124t187 -187.5t124.5 -239.5t44.5 -274.5q0 -178 -69 -339.5t-185.5 -278t-278 -185.5t-338.5 -69zM775 1151l-27 -417 l37 -31q110 24 203 24q105 0 175 -46t69 -129q-1 -88 -51.5 -127.5t-154.5 -39.5q-73 -1 -148 20.5t-124 58.5l-55 -91q140 -89 328 -90q330 -3 331 268q1 118 -70 184.5t-194 76.5q-121 8 -227 -14l20 251h419v102h-531z" glyph-name="uni277A" horiz-adv-x="2011" unicode="❺"/><glyph d="M1029 -154q-177 0 -338.5 69t-278 185.5t-185 278t-68.5 339.5q0 142 44 274.5t124.5 239.5t187.5 187.5t239.5 124t274.5 43.5t275 -43.5t240 -124t187 -187.5t124.5 -239.5t44.5 -274.5q0 -178 -69 -339.5t-185.5 -278t-278 -185.5t-338.5 -69zM1376 578 q0 125 -78.5 198.5t-190.5 82.5q-85 8 -167 -23l250 315h-154q-30 -38 -83 -105q-137 -175 -184.5 -241.5t-67.5 -115t-20 -111.5q0 -74 30 -132t81 -93t111.5 -52.5t124.5 -17.5q66 0 126 17.5t111 52.5t81 93t30 132zM1028 374q-91 0 -155 55t-65 149q0 90 65 146t155 56 q92 0 156 -54t64 -148q0 -93 -64 -148.5t-156 -55.5z" glyph-name="uni277B" horiz-adv-x="2011" unicode="❻"/><glyph d="M1029 -154q-177 0 -338.5 69t-278 185.5t-185 278t-68.5 339.5q0 142 44 274.5t124.5 239.5t187.5 187.5t239.5 124t274.5 43.5t275 -43.5t240 -124t187 -187.5t124.5 -239.5t44.5 -274.5q0 -178 -69 -339.5t-185.5 -278t-278 -185.5t-338.5 -69zM741 1147v-103h437 q-256 -348 -316 -757h132q59 411 333 757v103h-586z" glyph-name="uni277C" horiz-adv-x="2011" unicode="❼"/><glyph d="M1029 -154q-177 0 -338.5 69t-278 185.5t-185 278t-68.5 339.5q0 142 44 274.5t124.5 239.5t187.5 187.5t239.5 124t274.5 43.5t275 -43.5t240 -124t187 -187.5t124.5 -239.5t44.5 -274.5q0 -178 -69 -339.5t-185.5 -278t-278 -185.5t-338.5 -69zM1365 527q0 83 -50 140 t-128 83q57 26 94 72t36 112q0 105 -83.5 162.5t-204.5 57.5q-122 0 -206 -57.5t-84 -162.5q0 -66 37 -112.5t94 -71.5q-78 -26 -128 -83t-50 -140t51 -140.5t124.5 -82t161.5 -24.5q87 0 161 24.5t124.5 82t50.5 140.5zM856 930q0 62 47.5 97.5t125.5 35.5q76 0 124 -35.5 t48 -97.5q0 -63 -50.5 -100t-121.5 -37q-72 0 -122.5 37t-50.5 100zM1029 372q-87 0 -147.5 42t-59.5 118q0 76 60.5 121t146.5 45q85 0 145.5 -45t60.5 -121q0 -77 -59.5 -118.5t-146.5 -41.5z" glyph-name="uni277D" horiz-adv-x="2011" unicode="❽"/><glyph d="M1029 -154q-177 0 -338.5 69t-278 185.5t-185 278t-68.5 339.5q0 142 44 274.5t124.5 239.5t187.5 187.5t239.5 124t274.5 43.5t275 -43.5t240 -124t187 -187.5t124.5 -239.5t44.5 -274.5q0 -178 -69 -339.5t-185.5 -278t-278 -185.5t-338.5 -69zM681 856 q0 -125 79 -198.5t190 -83.5q85 -8 167 24l-250 -315h154q30 38 83 105q137 175 184.5 241t67.5 115t20 112q0 74 -30 132t-81 92.5t-111 52.5t-125 18q-66 0 -126 -18t-111 -52.5t-81 -92.5t-30 -132zM1029 1060q91 0 155 -55.5t65 -148.5q0 -90 -65 -146.5t-155 -56.5 q-92 0 -156 54.5t-64 148.5q0 93 64 148.5t156 55.5z" glyph-name="uni277E" horiz-adv-x="2011" unicode="❾"/><glyph d="M289 1406h200l-23 -164h-200zM251 1108h194l-155 -1108h-195z" glyph-name="i.aalt" horiz-adv-x="540"/><glyph d="M1186 1108h161l-156 -1108h-161l21 203q-47 -63 -103.5 -108t-117.5 -68t-118.5 -32t-122.5 -9q-85 0 -159.5 20.5t-137 64t-102 110.5t-56.5 160t1 213q20 142 79 253.5t144 178.5t184 101t207 34q312 0 401 -207zM632 121q69 0 132.5 20.5t121.5 62t102 113.5t66 167 l19 139q7 178 -85.5 271t-234.5 93q-160 0 -282.5 -115.5t-151.5 -317.5q-29 -206 62 -319.5t251 -113.5z" glyph-name="a.salt" horiz-adv-x="1441"/><glyph d="M1205 1550l-310 -307h-156l277 307h189zM1186 1108h161l-156 -1108h-161l21 203q-47 -63 -103.5 -108t-117.5 -68t-118.5 -32t-122.5 -9q-85 0 -159.5 20.5t-137 64t-102 110.5t-56.5 160t1 213q20 142 79 253.5t144 178.5t184 101t207 34q312 0 401 -207zM632 121 q69 0 132.5 20.5t121.5 62t102 113.5t66 167l19 139q7 178 -85.5 271t-234.5 93q-160 0 -282.5 -115.5t-151.5 -317.5q-29 -206 62 -319.5t251 -113.5z" glyph-name="aacute.aalt" horiz-adv-x="1441"/><glyph d="M1130 1491q-27 -110 -114 -179.5t-197.5 -69.5t-179 69.5t-64.5 179.5h124q-5 -62 32 -103.5t102 -41.5q63 0 112.5 42t61.5 103h123zM1186 1108h161l-156 -1108h-161l21 203q-47 -63 -103.5 -108t-117.5 -68t-118.5 -32t-122.5 -9q-85 0 -159.5 20.5t-137 64t-102 110.5 t-56.5 160t1 213q20 142 79 253.5t144 178.5t184 101t207 34q312 0 401 -207zM632 121q69 0 132.5 20.5t121.5 62t102 113.5t66 167l19 139q7 178 -85.5 271t-234.5 93q-160 0 -282.5 -115.5t-151.5 -317.5q-29 -206 62 -319.5t251 -113.5z" glyph-name="abreve.aalt" horiz-adv-x="1441"/><glyph d="M1032 1549h156l-263 -307h-214l-176 307h156l136 -244zM1186 1108h161l-156 -1108h-161l21 203q-47 -63 -103.5 -108t-117.5 -68t-118.5 -32t-122.5 -9q-85 0 -159.5 20.5t-137 64t-102 110.5t-56.5 160t1 213q20 142 79 253.5t144 178.5t184 101t207 34q312 0 401 -207z M632 121q69 0 132.5 20.5t121.5 62t102 113.5t66 167l19 139q7 178 -85.5 271t-234.5 93q-160 0 -282.5 -115.5t-151.5 -317.5q-29 -206 62 -319.5t251 -113.5z" glyph-name="uni01CE.aalt" horiz-adv-x="1441"/><glyph d="M1144 1242h-156l-136 246l-205 -246h-155l263 307h214zM1186 1108h161l-156 -1108h-161l21 203q-47 -63 -103.5 -108t-117.5 -68t-118.5 -32t-122.5 -9q-85 0 -159.5 20.5t-137 64t-102 110.5t-56.5 160t1 213q20 142 79 253.5t144 178.5t184 101t207 34q312 0 401 -207z M632 121q69 0 132.5 20.5t121.5 62t102 113.5t66 167l19 139q7 178 -85.5 271t-234.5 93q-160 0 -282.5 -115.5t-151.5 -317.5q-29 -206 62 -319.5t251 -113.5z" glyph-name="acircumflex.aalt" horiz-adv-x="1441"/><glyph d="M548 1406h201l-24 -164h-200zM933 1406h200l-23 -164h-201zM1186 1108h161l-156 -1108h-161l21 203q-47 -63 -103.5 -108t-117.5 -68t-118.5 -32t-122.5 -9q-85 0 -159.5 20.5t-137 64t-102 110.5t-56.5 160t1 213q20 142 79 253.5t144 178.5t184 101t207 34 q312 0 401 -207zM632 121q69 0 132.5 20.5t121.5 62t102 113.5t66 167l19 139q7 178 -85.5 271t-234.5 93q-160 0 -282.5 -115.5t-151.5 -317.5q-29 -206 62 -319.5t251 -113.5z" glyph-name="adieresis.aalt" horiz-adv-x="1441"/><glyph d="M1186 1108h161l-156 -1108h-161l21 203q-47 -63 -103.5 -108t-117.5 -68t-118.5 -32t-122.5 -9q-85 0 -159.5 20.5t-137 64t-102 110.5t-56.5 160t1 213q20 142 79 253.5t144 178.5t184 101t207 34q312 0 401 -207zM632 121q69 0 132.5 20.5t121.5 62t102 113.5t66 167 l19 139q7 178 -85.5 271t-234.5 93q-160 0 -282.5 -115.5t-151.5 -317.5q-29 -206 62 -319.5t251 -113.5zM515 -200h201l-24 -164h-199z" glyph-name="uni1EA1.aalt" horiz-adv-x="1441"/><glyph d="M516 1550h190l189 -307h-156zM1186 1108h161l-156 -1108h-161l21 203q-47 -63 -103.5 -108t-117.5 -68t-118.5 -32t-122.5 -9q-85 0 -159.5 20.5t-137 64t-102 110.5t-56.5 160t1 213q20 142 79 253.5t144 178.5t184 101t207 34q312 0 401 -207zM632 121q69 0 132.5 20.5 t121.5 62t102 113.5t66 167l19 139q7 178 -85.5 271t-234.5 93q-160 0 -282.5 -115.5t-151.5 -317.5q-29 -206 62 -319.5t251 -113.5z" glyph-name="agrave.aalt" horiz-adv-x="1441"/><glyph d="M575 1362h519l-18 -120h-517zM1186 1108h161l-156 -1108h-161l21 203q-47 -63 -103.5 -108t-117.5 -68t-118.5 -32t-122.5 -9q-85 0 -159.5 20.5t-137 64t-102 110.5t-56.5 160t1 213q20 142 79 253.5t144 178.5t184 101t207 34q312 0 401 -207zM632 121q69 0 132.5 20.5 t121.5 62t102 113.5t66 167l19 139q7 178 -85.5 271t-234.5 93q-160 0 -282.5 -115.5t-151.5 -317.5q-29 -206 62 -319.5t251 -113.5z" glyph-name="amacron.aalt" horiz-adv-x="1441"/><glyph d="M1169 0q-170 -59 -174 -147q-3 -45 52 -61.5t128 1.5l-5 -88q-83 -19 -152.5 -13t-112.5 42.5t-37 92.5q12 127 184 173h-22l21 203q-47 -63 -103.5 -108t-117.5 -68t-118.5 -32t-122.5 -9q-85 0 -159.5 20.5t-137 64t-102 110.5t-56.5 160t1 213q20 142 79 253.5 t144 178.5t184 101t207 34q312 0 401 -207l36 194h161l-156 -1108h-22zM632 121q69 0 132.5 20.5t121.5 62t102 113.5t66 167l19 139q7 178 -85.5 271t-234.5 93q-160 0 -282.5 -115.5t-151.5 -317.5q-29 -206 62 -319.5t251 -113.5z" glyph-name="aogonek.aalt" horiz-adv-x="1441"/><glyph d="M818 1242q-85 0 -137.5 61t-40.5 146q12 86 81.5 147t155.5 61q85 0 137 -61t40 -147q-12 -85 -81.5 -146t-154.5 -61zM832.5 1343q44.5 0 80 31.5t40.5 74.5q6 44 -20.5 75t-70.5 31t-80 -31t-42 -75q-5 -43 21.5 -74.5t71 -31.5zM1186 1108h161l-156 -1108h-161l21 203 q-47 -63 -103.5 -108t-117.5 -68t-118.5 -32t-122.5 -9q-85 0 -159.5 20.5t-137 64t-102 110.5t-56.5 160t1 213q20 142 79 253.5t144 178.5t184 101t207 34q312 0 401 -207zM632 121q69 0 132.5 20.5t121.5 62t102 113.5t66 167l19 139q7 178 -85.5 271t-234.5 93 q-160 0 -282.5 -115.5t-151.5 -317.5q-29 -206 62 -319.5t251 -113.5z" glyph-name="aring.aalt" horiz-adv-x="1441"/><glyph d="M501 1243q13 98 70 154.5t136 56.5q38 0 76 -16.5t63.5 -37t58.5 -36.5t62 -16q33 0 59.5 29.5t32.5 71.5h105q-14 -98 -72.5 -154.5t-134.5 -56.5q-32 0 -68.5 17t-63 37t-60 36.5t-59.5 16.5q-39 -1 -66.5 -30t-33.5 -73zM1186 1108h161l-156 -1108h-161l21 203 q-47 -63 -103.5 -108t-117.5 -68t-118.5 -32t-122.5 -9q-85 0 -159.5 20.5t-137 64t-102 110.5t-56.5 160t1 213q20 142 79 253.5t144 178.5t184 101t207 34q312 0 401 -207zM632 121q69 0 132.5 20.5t121.5 62t102 113.5t66 167l19 139q7 178 -85.5 271t-234.5 93 q-160 0 -282.5 -115.5t-151.5 -317.5q-29 -206 62 -319.5t251 -113.5z" glyph-name="atilde.aalt" horiz-adv-x="1441"/><glyph d="M525 0h-215q-91 0 -136.5 63.5t-31.5 164.5l185 1308h194l-177 -1257q-10 -68 17.5 -108t82.5 -40h100z" glyph-name="l.aalt" horiz-adv-x="738"/><glyph d="M915 1978l-310 -307h-155l276 307h189zM525 0h-215q-91 0 -136.5 63.5t-31.5 164.5l185 1308h194l-177 -1257q-10 -68 17.5 -108t82.5 -40h100z" glyph-name="lacute.aalt" horiz-adv-x="738"/><glyph d="M510 0h-215q-90 0 -136 63.5t-32 164.5l184 1308h195l-177 -1257q-10 -68 17.5 -108t82.5 -40h99zM691 1415h201l-172 -500h-170z" glyph-name="lcaron.aalt" horiz-adv-x="958"/><glyph d="M525 0h-215q-91 0 -136.5 63.5t-31.5 164.5l185 1308h194l-177 -1257q-10 -68 17.5 -108t82.5 -40h100zM225 -102h183l-157 -454h-154z" glyph-name="lcommaaccent.aalt" horiz-adv-x="738"/><glyph d="M525 0h-215q-91 0 -136.5 63.5t-31.5 164.5l185 1308h194l-177 -1257q-10 -68 17.5 -108t82.5 -40h100zM164 -200h201l-24 -164h-200z" glyph-name="uni1E37.aalt" horiz-adv-x="738"/><glyph d="M411 750l-67 -471q-10 -68 17.5 -108t82.5 -40h100l-19 -131h-215q-91 0 -136.5 63.5t-31.5 164.5l68 483l-114 -23l14 93l113 23l104 732h194l-97 -693l206 41l-13 -93z" glyph-name="lslash.aalt" horiz-adv-x="738"/><glyph d="M1063 1108h206l-802 -1518h-185l237 462h-94l-254 1056h207l204 -935z" glyph-name="y.aalt" horiz-adv-x="1284"/><glyph d="M1126 1549l-310 -307h-156l277 307h189zM1063 1108h206l-802 -1518h-185l237 462h-94l-254 1056h207l204 -935z" glyph-name="yacute.aalt" horiz-adv-x="1284"/><glyph d="M772 1488l-205 -246h-155l263 307h214l175 -307h-156zM1063 1108h206l-802 -1518h-185l237 462h-94l-254 1056h207l204 -935z" glyph-name="ycircumflex.aalt" horiz-adv-x="1284"/><glyph d="M670 1406l-24 -164h-200l23 164h201zM1054 1406l-23 -164h-201l24 164h200zM1063 1108h206l-802 -1518h-185l237 462h-94l-254 1056h207l204 -935z" glyph-name="ydieresis.aalt" horiz-adv-x="1284"/><glyph d="M1063 1108h206l-802 -1518h-185l237 462h-94l-254 1056h207l204 -935zM906 -345l25 180h218l-25 -180h-218z" glyph-name="uni1EF5.aalt" horiz-adv-x="1313"/><glyph d="M816 1242h-156l-223 307h190zM1063 1108h206l-802 -1518h-185l237 462h-94l-254 1056h207l204 -935z" glyph-name="ygrave.aalt" horiz-adv-x="1284"/><glyph d="M627 1345q-39 -1 -66 -30t-34 -73l-105 1q13 98 70 154.5t136 56.5q38 0 76 -16.5t64.5 -37t58.5 -36.5t61 -16q34 0 60 29.5t32 71.5h105q-14 -98 -72.5 -154.5t-133.5 -56.5q-32 0 -69 17t-63.5 37t-59.5 36.5t-60 16.5zM1063 1108h206l-802 -1518h-185l237 462h-94 l-254 1056h207l204 -935z" glyph-name="uni1EF9.aalt" horiz-adv-x="1284"/><glyph d="M2299 1434l-22 -154h-428l-180 -1280h-209l179 1280h-857l-179 -1280h-210l180 1280h-429l22 154h2133z" glyph-name="T_T.dlig" horiz-adv-x="2217"/><glyph d="M1499 970l-97 -691q-10 -68 17.5 -108t82.5 -40h195l-19 -131h-310q-90 0 -136 63.5t-32 164.5l105 742h-742l-136 -970h-195l137 970h-174l18 138h175l28 200q14 98 77 163t149 65h278l-19 -131h-162q-54 0 -90 -39.5t-45 -108.5l-21 -149h741l31 217h194l-30 -217h315 l-19 -138h-316z" glyph-name="f_t.dlig" horiz-adv-x="1929"/><glyph d="M1281 1434h242l-21 -145h-241zM1453 1108l-18 -138h-1l-137 -970h-194l136 970h-676l-97 -691q-9 -68 18 -108t82 -40h195l-19 -131h-310q-90 0 -136 63.5t-32 164.5l105 742h-174l18 138h175l31 217h194l-30 -217h870z" glyph-name="t_i.dlig" horiz-adv-x="1563"/><glyph d="M1556 970l-97 -691q-9 -68 18 -108t83 -40h194l-18 -131h-311q-90 0 -136 63.5t-32 164.5l105 742h-799l-97 -691q-9 -68 18 -108t82 -40h195l-19 -131h-310q-90 0 -136 63.5t-32 164.5l105 742h-174l18 138h175l31 217h194l-30 -217h798l31 217h195l-31 -217h315 l-18 -138h-317z" glyph-name="t_t.dlig" horiz-adv-x="1986"/><glyph d="M2274 1434h242l-21 -145h-241zM2446 1108l-155 -1108h-195l136 970h-676l-97 -691q-9 -68 18 -108t83 -40h194l-18 -131h-311q-90 0 -136 63.5t-32 164.5l105 742h-799l-97 -691q-9 -68 18 -108t82 -40h195l-19 -131h-310q-90 0 -136 63.5t-32 164.5l105 742h-174l18 138 h175l31 217h194l-30 -217h798l31 217h195l-31 -217h870z" glyph-name="t_t_i.dlig" horiz-adv-x="2556"/><glyph d="M1379 131h100l-18 -131h-216q-90 0 -136 63.5t-32 164.5l166 1177h-504q-54 0 -90 -39.5t-45 -108.5l-21 -149h276l-18 -138h-278l-136 -970h-195l137 970h-174l18 138h175l28 200q14 98 77 163t149 65h814l-177 -1257q-9 -68 18 -108t82 -40z" glyph-name="uniFB02.aalt" horiz-adv-x="1674"/><glyph d="M843 1434h107l-93 -665h-107l15 140q-47 -75 -124 -111.5t-157 -36.5q-136 0 -216 85.5t-55 254.5q15 114 72 192.5t132.5 113.5t163.5 35q79 0 145.5 -38t91.5 -112zM517 851q85 0 154.5 51.5t94.5 157.5l11 83q4 101 -51 155t-138 54q-92 0 -163 -67t-87 -184 q-17 -118 35 -184t144 -66z" glyph-name="ordfeminine.aalt" horiz-adv-x="962"/><glyph d="M1058 1434h206l-802 -1434h-184l237 436h-94l-255 998h207l204 -884z" glyph-name="afii10037.aalt" horiz-adv-x="1182"/><glyph d="M1186 1108h161l-156 -1108h-161l21 203q-47 -63 -103.5 -108t-117.5 -68t-118.5 -32t-122.5 -9q-85 0 -159.5 20.5t-137 64t-102 110.5t-56.5 160t1 213q20 142 79 253.5t144 178.5t184 101t207 34q312 0 401 -207zM632 121q69 0 132.5 20.5t121.5 62t102 113.5t66 167 l19 139q7 178 -85.5 271t-234.5 93q-160 0 -282.5 -115.5t-151.5 -317.5q-29 -206 62 -319.5t251 -113.5z" glyph-name="afii10065.aalt" horiz-adv-x="1441"/><glyph d="M1185 555q-39 -280 -204.5 -424.5t-405.5 -144.5q-117 0 -207 35t-151.5 104t-86 179t-4.5 251q39 274 204.5 421t404.5 147q117 0 208 -36t152 -106t85 -179t5 -247zM593 105q156 0 259.5 117.5t133.5 332.5q31 212 -41.5 330.5t-225.5 118.5q-155 0 -260 -118.5 t-134 -330.5q-30 -216 40.5 -333t227.5 -117z" glyph-name="zero.oldstyle" horiz-adv-x="1310"/><glyph d="M655 138h333l-19 -138h-858l18 138h332l114 811q-159 -83 -304 -121l23 159q153 35 302 121h197z" glyph-name="one.oldstyle" horiz-adv-x="1234"/><glyph d="M1066 138l-19 -138h-952l19 138q62 40 171 107t183.5 113t165.5 109t148 113t99.5 105.5t49.5 105.5q12 90 -52 145t-195 55q-184 0 -351 -99l-51 112q205 117 433 116q212 0 323.5 -78t90.5 -220q-6 -47 -32 -96t-59.5 -91.5t-89.5 -92t-103 -86t-120.5 -86t-121.5 -80 t-126 -79.5t-116 -73h705z" glyph-name="two.oldstyle" horiz-adv-x="1297"/><glyph d="M301 1108h993l-21 -154l-591 -467q91 8 173 -2q185 -19 280 -124t70 -278q-31 -207 -191 -316t-421 -107q-161 2 -287.5 37.5t-237.5 114.5l103 135q74 -62 197.5 -99t244.5 -35q173 2 276 71.5t122.5 200.5t-71 211t-259.5 80q-143 0 -251 -38l-34 131l647 485h-763z " glyph-name="three.oldstyle" horiz-adv-x="1351"/><glyph d="M1353 195l-22 -154h-261l-51 -367h-195l52 367h-714l21 154l813 913h224l-128 -913h261zM371 195h526l101 716z" glyph-name="four.oldstyle" horiz-adv-x="1525"/><glyph d="M377 1108h885l-22 -154h-714l-94 -434q195 37 395 23q198 -18 303.5 -132.5t77.5 -302.5q-33 -224 -192.5 -337t-422.5 -111q-161 2 -287.5 37.5t-237.5 114.5l103 135q73 -61 197 -97.5t245 -36.5q175 2 277.5 75.5t124.5 221.5q20 139 -89.5 223.5t-284.5 84.5 q-170 0 -362 -39l-41 50z" glyph-name="five.oldstyle" horiz-adv-x="1351"/><glyph d="M1275 478q-13 -98 -58.5 -181t-110 -139.5t-144.5 -95.5t-164.5 -57t-170.5 -18t-165.5 18t-149 57t-118.5 95.5t-71 139.5t-7 181q5 39 11.5 67.5t23 63.5t31.5 60.5t50.5 71.5t67 81.5t96 106t120 130t157 168t191.5 207.5h234l-490 -527q143 54 285 41q87 -7 161 -41 t130 -90.5t81 -144.5t10 -194zM646 122q103 0 195.5 41t158 123.5t80.5 191.5q24 166 -75 260.5t-260 94.5q-159 0 -286 -98.5t-149 -256.5q-23 -164 75.5 -260t260.5 -96z" glyph-name="six.oldstyle" horiz-adv-x="1412"/><glyph d="M250 1108h975l-21 -154q-530 -571 -734 -1280h-203q208 725 722 1280h-761z" glyph-name="seven.oldstyle" horiz-adv-x="1227"/><glyph d="M1226 401q-14 -105 -74 -187t-148.5 -130t-189 -72.5t-208.5 -24.5q-84 0 -161 14.5t-145 47.5t-115.5 80t-69.5 117t-10 155q12 93 65 170t124.5 124t159.5 76q-90 42 -140 120.5t-34 187.5q12 89 61.5 161t123.5 116t162.5 67t184.5 23t178 -23t143.5 -67t90.5 -116 t17 -161q-14 -110 -86 -188t-174 -120q124 -44 193.5 -138.5t51.5 -231.5zM452.5 1072.5q-15.5 -111.5 65.5 -174.5t208 -63t226 63t114 174q16 112 -61 174t-213 62q-135 0 -229.5 -62t-110 -173.5zM626 125q98 0 183 30t147 95.5t75 158.5q18 132 -77.5 209t-246.5 77 q-97 0 -183.5 -32t-147.5 -98.5t-74 -155.5q-13 -92 30 -158t120 -96t174 -30z" glyph-name="eight.oldstyle" horiz-adv-x="1373"/><glyph d="M183 631q13 98 58.5 180.5t110 139t145 95.5t164.5 57t170.5 18t165.5 -18t148.5 -57t118.5 -95.5t70.5 -139t7.5 -180.5q-5 -39 -11.5 -67.5t-23 -64t-31 -60.5t-50.5 -71t-67.5 -82t-96 -106t-120.5 -130t-156.5 -168t-191.5 -207h-234l489 527q-143 -55 -284 -41 q-87 7 -161 41t-130 90.5t-81 144.5t-10 194zM812 987q-103 0 -195.5 -41t-158 -123.5t-80.5 -191.5q-24 -166 75 -261t260 -95q158 0 285 98.5t150 257.5q14 110 -28.5 192t-123 123t-184.5 41z" glyph-name="nine.oldstyle" horiz-adv-x="1412"/><glyph d="M1320 717q-50 -359 -227 -545t-438 -186t-385 185t-73 546q50 357 226 544t438 187q261 0 385 -187t74 -544zM677 135q177 0 291 151.5t153 430.5q39 278 -33 429.5t-248 151.5t-291 -152t-154 -429q-40 -279 32.5 -430.5t249.5 -151.5z" glyph-name="zero.tnum" horiz-adv-x="1471"/><glyph d="M776 154h354l-20 -154h-904l21 154h355l156 1110q-159 -83 -304 -121l24 170q153 35 302 121h196z" glyph-name="one.tnum" horiz-adv-x="1471"/><glyph d="M1232 154l-22 -154h-1105l22 154q60 42 175.5 120.5t191 131.5t179 127.5t171.5 133.5t135 124.5t103 125t43 111.5q16 120 -62 193t-239 73q-226 2 -425 -128l-58 129q248 153 512 153q255 0 381.5 -106t100.5 -281q-8 -60 -39.5 -125t-74.5 -121.5t-109 -122 t-126.5 -116.5t-145 -115t-145.5 -107.5t-147.5 -104.5t-133.5 -95h818z" glyph-name="two.tnum" horiz-adv-x="1471"/><glyph d="M360 1434h994l-22 -154l-591 -467q89 8 174 -1q185 -20 280 -125t70 -278q-31 -207 -191.5 -316t-420.5 -107q-162 2 -288 37t-237 114l103 135q73 -62 196.5 -98.5t245.5 -34.5q173 1 276.5 71t123 201t-72 211t-259.5 80q-144 0 -251 -38l-34 132l647 484h-763z" glyph-name="three.tnum" horiz-adv-x="1471"/><glyph d="M1325 521l-21 -153h-262l-51 -368h-194l51 368h-714l22 153l813 913h223l-128 -913h261zM343 521h526l102 717z" glyph-name="four.tnum" horiz-adv-x="1471"/><glyph d="M437 1434h884l-22 -154h-713l-94 -434q195 38 395 22q198 -17 303 -131t78 -304q-33 -224 -193 -336.5t-423 -110.5q-161 2 -287 37t-238 114l103 135q74 -62 197.5 -98t245.5 -35q358 2 402 296q13 93 -35 165t-137 108t-203 36q-170 0 -361 -38l-42 50z" glyph-name="five.tnum" horiz-adv-x="1471"/><glyph d="M1304 478q-13 -98 -58.5 -181t-109.5 -139t-145 -95t-165.5 -57t-170.5 -18t-165 18t-149 57t-118 95.5t-70 139t-9 180.5q6 44 16.5 78.5t23.5 66t45.5 75t61 80.5t96 110t124.5 134.5t170.5 182.5t212.5 229h232l-488 -527q143 55 284 41q87 -7 161 -41t130 -90.5 t81 -144.5t10 -194zM674.5 122q104.5 0 196.5 41t157.5 123.5t80.5 191.5q12 84 -9.5 152.5t-69 112t-113 67.5t-142.5 24q-159 0 -286.5 -98.5t-149.5 -257.5q-14 -110 28.5 -192t122.5 -123t184.5 -41z" glyph-name="six.tnum" horiz-adv-x="1471"/><glyph d="M371 1434h976l-22 -154q-531 -570 -733 -1280h-203q207 727 722 1280h-761z" glyph-name="seven.tnum" horiz-adv-x="1471"/><glyph d="M1274 401q-14 -105 -74 -187t-147.5 -130t-188.5 -72.5t-209 -24.5q-85 0 -162 14.5t-144.5 47.5t-115.5 80t-70 117t-9 155q13 93 65.5 170t124 124t159.5 76q-91 42 -141 120.5t-33 187.5q16 119 97 204t193 124t241 39q96 0 178 -23t143.5 -67t91.5 -116t17 -161 q-15 -111 -86 -188.5t-174 -119.5q123 -45 193 -139t51 -231zM501 1072q-15 -112 65.5 -174.5t207.5 -62.5t226.5 63t114.5 174.5t-61.5 173.5t-212.5 62q-135 0 -229.5 -62t-110.5 -174zM675 125q98 0 183 30t147 95.5t74 158.5q18 132 -77.5 209t-246.5 77t-268 -77 t-136 -209q-13 -92 30 -158t120 -96t174 -30z" glyph-name="eight.tnum" horiz-adv-x="1471"/><glyph d="M212 956q17 123 81 220t157 155t197.5 87.5t213 29.5t205 -29.5t173 -87.5t114 -155t19.5 -220q-6 -44 -16 -78t-23 -65.5t-46 -75.5t-61.5 -80.5t-95.5 -109.5t-124.5 -134.5t-170.5 -182.5t-212 -229h-233l489 526q-142 -54 -284 -41q-87 8 -161.5 41.5t-130 90.5 t-80.5 144.5t-11 193.5zM841.5 1313q-104.5 0 -196.5 -41t-157.5 -123.5t-80.5 -192.5q-23 -166 75.5 -260t258.5 -94q159 0 286.5 98t150.5 256q14 110 -28.5 192.5t-123 123.5t-185 41z" glyph-name="nine.tnum" horiz-adv-x="1471"/><glyph d="M814 1448q261 0 385 -187t74 -544q-50 -360 -227 -545.5t-439 -185.5q-261 0 -384.5 185t-72.5 546q50 357 226 544t438 187zM348 717q-29 -200 1 -338l685 780q-74 139 -241 139q-176 0 -291 -151.5t-154 -429.5zM1074 717q31 218 -8 360l-688 -784q71 -158 251 -158 q178 0 291.5 151.5t153.5 430.5z" glyph-name="zero.zero" horiz-adv-x="1376"/><glyph d="M793 430q-31 -216 -136.5 -327t-263.5 -111q-157 0 -231 111t-43 327q30 215 135 326.5t263 111.5q157 0 231.5 -111.5t44.5 -326.5zM407 92q103 0 168.5 88t89.5 250q23 161 -19 249.5t-143.5 88.5t-167.5 -88.5t-88 -249.5q-24 -162 17 -250t143 -88z" glyph-name="zero.dnom" horiz-adv-x="945"/><glyph d="M407 102h207l-14 -102h-542l14 102h208l91 647q-96 -51 -177 -74l16 112q83 20 176 73h127z" glyph-name="one.dnom" horiz-adv-x="813"/><glyph d="M735 102l-14 -102h-663l14 102q36 25 105 72t113 78.5t105.5 76t101.5 79t79 73.5t60 74.5t26 66.5q10 73 -34.5 113.5t-141.5 41.5q-135 0 -253 -76l-40 84q153 94 312 95q158 0 233.5 -64.5t60.5 -173.5q-5 -36 -23.5 -75t-42.5 -72t-63.5 -72.5t-72.5 -68.5t-84.5 -69 t-84.5 -63.5t-87.5 -62.5t-79.5 -57h474z" glyph-name="two.dnom" horiz-adv-x="933"/><glyph d="M210 868h596l-14 -102l-354 -276q54 5 105 -1q112 -12 170.5 -75t43.5 -166q-19 -128 -113 -194.5t-254 -64.5q-188 3 -320 96l71 88q45 -37 119 -60t143 -22q205 2 228 159q11 78 -41 121t-154 43q-87 0 -150 -24l-24 98l377 278h-443z" glyph-name="three.dnom" horiz-adv-x="935"/><glyph d="M799 317l-15 -102h-152l-30 -215h-124l30 215h-420l14 102l479 543h142l-77 -543h153zM228 317h295l58 413z" glyph-name="four.dnom" horiz-adv-x="967"/><glyph d="M254 860h531l-14 -102h-419l-55 -251q110 23 227 14q122 -11 184 -77t46 -184q-40 -271 -370 -268q-187 1 -314 90l66 91q44 -37 116.5 -58.5t144.5 -21.5q105 1 161 40.5t70 127.5q12 84 -51 129.5t-169 45.5q-93 0 -205 -23l-34 30z" glyph-name="five.dnom" horiz-adv-x="930"/><glyph d="M795 295q-10 -74 -48.5 -132t-94 -92t-118.5 -52t-128.5 -18t-123.5 18t-103.5 52t-67.5 92t-12 132q5 39 15.5 67t26.5 58t60 81t92.5 104.5t148.5 162.5q59 65 94 100h153l-294 -315q88 33 170 25q111 -10 179 -84t51 -199zM418 91q92 0 164 55.5t85 148.5 q13 95 -43.5 149.5t-148.5 54.5q-90 0 -162.5 -56.5t-86.5 -147.5q-12 -93 44.5 -148.5t147.5 -55.5z" glyph-name="six.dnom" horiz-adv-x="966"/><glyph d="M179 860h585l-14 -102q-321 -345 -439 -758h-133q118 410 422 758h-436z" glyph-name="seven.dnom" horiz-adv-x="856"/><glyph d="M764 241q-11 -83 -70.5 -141.5t-136.5 -83t-165 -24.5q-65 0 -120.5 15t-100 43.5t-66.5 77.5t-13 113q11 83 69 139t140 83q-55 25 -84.5 72t-19.5 112q14 105 105.5 162.5t212.5 57.5t197 -57t62 -163q-9 -66 -52 -113t-105 -71q74 -27 116 -83t31 -139zM311 643 q-9 -63 36.5 -100t117.5 -37t127.5 37t64.5 100q8 62 -34.5 97.5t-119.5 35.5t-130.5 -35.5t-61.5 -97.5zM405.5 85q87.5 0 153 41.5t76.5 118.5q10 76 -43.5 121t-139.5 45t-153 -45t-77 -121q-11 -77 42.5 -118.5t141 -41.5z" glyph-name="eight.dnom" horiz-adv-x="943"/><glyph d="M138 574q13 96 76.5 165.5t143.5 99t169 29.5q66 0 124 -17.5t103.5 -52t68 -92.5t12.5 -132q-9 -63 -36 -111t-86.5 -118t-219.5 -243q-60 -65 -95 -101h-153l293 315q-88 -33 -170 -24q-111 10 -179 83.5t-51 198.5zM515 778q-92 0 -164 -55t-85 -149 q-13 -95 43.5 -149t148.5 -54q91 0 163 56t86 147q12 93 -44 148.5t-148 55.5z" glyph-name="nine.dnom" horiz-adv-x="966"/><glyph d="M873 1006q-31 -216 -136 -327.5t-263 -111.5q-157 0 -231 111.5t-43 327.5q30 215 135 326.5t263 111.5q157 0 231 -111.5t44 -326.5zM487 668q103 0 169 88t89 250q23 161 -18.5 249t-143 88t-167.5 -88.5t-88 -248.5q-24 -162 16.5 -250t142.5 -88z" glyph-name="zero.numr" horiz-adv-x="945"/><glyph d="M487 676h208l-14 -103h-542l14 103h207l92 646q-96 -51 -178 -74l17 113q83 20 176 73h127z" glyph-name="one.numr" horiz-adv-x="813"/><glyph d="M814 664l-14 -103h-663l14 103q36 25 105 71.5t113 78t105.5 76t101 79.5t79 73.5t60.5 74t25 66.5q10 73 -34 113.5t-141 41.5q-135 0 -253 -75l-41 84q153 94 313 94q158 0 233.5 -64.5t60.5 -173.5q-5 -36 -23.5 -74.5t-43 -72t-63.5 -73t-72 -68.5t-84.5 -69 t-84.5 -63.5t-87.5 -62.5t-79.5 -56h474z" glyph-name="two.numr" horiz-adv-x="933"/><glyph d="M290 1434h596l-14 -103l-353 -275q57 5 104 0q112 -12 171 -76t44 -167q-19 -127 -113.5 -193.5t-254.5 -64.5q-188 2 -319 95l70 89q45 -37 119.5 -60.5t143.5 -22.5q204 3 227 159q12 78 -40.5 121t-154.5 43q-84 0 -150 -23l-24 98l377 277h-443z" glyph-name="three.numr" horiz-adv-x="935"/><glyph d="M880 891l-15 -103h-152l-30 -215h-124l30 215h-420l14 103l479 543h142l-77 -543h153zM309 891h295l58 413z" glyph-name="four.numr" horiz-adv-x="967"/><glyph d="M335 1434h531l-14 -103h-419l-55 -251q110 23 227 15q122 -11 184 -77.5t46 -183.5q-40 -271 -370 -269q-187 1 -314 90l66 91q44 -37 116.5 -58t144.5 -21q105 1 161 40t70 128q12 84 -51 129.5t-170 45.5q-93 0 -204 -24l-34 31z" glyph-name="five.numr" horiz-adv-x="930"/><glyph d="M874 860q-10 -74 -48.5 -131.5t-93.5 -92t-118 -52.5t-128.5 -18t-123.5 18t-103.5 52.5t-67.5 92t-12 131.5q5 39 15.5 67t26.5 58t60 81t92.5 105t148.5 162q59 65 93 101h154l-294 -316q88 33 170 25q111 -10 178.5 -84t50.5 -199zM498 656q92 0 164 55.5t84 148.5 q13 95 -43 149.5t-148 54.5q-90 0 -163 -56.5t-86 -147.5q-12 -93 44.5 -148.5t147.5 -55.5z" glyph-name="six.numr" horiz-adv-x="966"/><glyph d="M260 1434h585l-15 -103q-321 -345 -438 -758h-133q118 410 422 758h-436z" glyph-name="seven.numr" horiz-adv-x="856"/><glyph d="M844 811q-11 -83 -70.5 -141.5t-136.5 -83t-165 -24.5q-65 0 -120.5 15t-100 43.5t-66.5 78t-13 112.5q11 83 69 139.5t140 82.5q-55 25 -84.5 72t-20.5 113q14 105 106 162.5t213 57.5t197 -57.5t62 -162.5q-9 -66 -52 -113t-105 -72q74 -27 116 -83t31 -139zM391 1213 q-9 -63 36.5 -100t117 -37t127.5 37t65 100q8 62 -35 98t-119.5 36t-130 -36t-61.5 -98zM485 655q87 0 152.5 41.5t77.5 118.5q10 76 -44 121t-140 45t-152.5 -45t-76.5 -121q-11 -77 42.5 -118.5t140.5 -41.5z" glyph-name="eight.numr" horiz-adv-x="943"/><glyph d="M218 1143q13 96 76 165t143.5 99t169.5 30q66 0 123.5 -18t103.5 -52.5t68.5 -92t11.5 -131.5q-9 -63 -35.5 -111.5t-86 -118t-220.5 -242.5q-60 -65 -94 -102h-153l292 316q-88 -33 -170 -25q-111 10 -178.5 84t-50.5 199zM595 1347q-92 0 -164.5 -55.5t-84.5 -148.5 q-13 -95 43 -149.5t149 -54.5q91 0 163 56.5t85 147.5q12 93 -43.5 148.5t-147.5 55.5z" glyph-name="nine.numr" horiz-adv-x="966"/><glyph d="M241 927h456l-58 -420h-458z" glyph-name="bullet.aalt" horiz-adv-x="833"/><glyph d="M282 -340q-148 505 -74.5 1027t361.5 1021h181q-273 -487 -346.5 -1018.5t58.5 -1029.5h-180z" glyph-name="parenleft.aalt" horiz-adv-x="775"/><glyph d="M243 -340h-181q272 506 348 1029t-60 1019h180q148 -496 76 -1020.5t-363 -1027.5z" glyph-name="parenright.aalt" horiz-adv-x="775"/><glyph d="M500 -298q-127 0 -185 77.5t-32 261.5l57 412q9 69 -22.5 122.5t-118.5 56.5l19 138q89 3 136 56.5t57 121.5l57 412q26 184 105.5 261.5t206.5 77.5h141l-21 -138h-76q-134 0 -159 -185l-64 -448q-12 -91 -66.5 -156t-150.5 -70l-1 -4q49 -2 84 -22.5t51 -52t22.5 -71 t-1.5 -79.5l-65 -448q-26 -184 110 -185h75l-19 -138h-140z" glyph-name="braceleft.aalt" horiz-adv-x="947"/><glyph d="M209 -298h-140l19 138h76q133 0 159 185l64 448q13 91 67 156t150 69l1 4q-94 4 -131 69.5t-24 156.5l63 448q26 184 -109 185h-75l20 138h140q127 0 184.5 -77.5t32.5 -261.5l-58 -412q-6 -28 -0.5 -59t19 -56.5t45 -43.5t78.5 -19l-20 -138q-89 -3 -136 -57t-56 -122 l-58 -412q-26 -184 -105 -261.5t-206 -77.5z" glyph-name="braceright.aalt" horiz-adv-x="947"/><glyph d="M347 1690h531l-20 -139h-335l-235 -1669h336l-20 -138h-529z" glyph-name="bracketleft.aalt" horiz-adv-x="906"/><glyph d="M878 1690l-274 -1946h-529l18 138h336l235 1669h-335l18 139h531z" glyph-name="bracketright.aalt" horiz-adv-x="905"/><glyph d="M222 794h485l-23 -154h-484z" glyph-name="hyphen.aalt" horiz-adv-x="860"/><glyph d="M222 794h959l-22 -154h-959z" glyph-name="endash.aalt" horiz-adv-x="1335"/><glyph d="M222 794h1563l-22 -154h-1563z" glyph-name="emdash.aalt" horiz-adv-x="1939"/><glyph d="M805 1092l-391 -384l283 -384h-204l-284 384l392 384h204zM1277 1092l-391 -384l283 -384h-204l-284 384l392 384h204z" glyph-name="guillemotleft.aalt" horiz-adv-x="1389"/><glyph d="M263 1092h205l284 -384l-392 -384h-204l392 384zM735 1092h205l284 -384l-393 -384h-203l391 384z" glyph-name="guillemotright.aalt" horiz-adv-x="1390"/><glyph d="M805 1092l-391 -384l283 -384h-204l-284 384l392 384h204z" glyph-name="guilsinglleft.aalt" horiz-adv-x="917"/><glyph d="M263 1092h205l284 -384l-393 -384h-203l392 384z" glyph-name="guilsinglright.aalt" horiz-adv-x="918"/><glyph d="M1443 616q-53 -183 -204 -342l228 -274h-221l-143 176q-252 -183 -534 -183q-144 0 -252.5 43t-165.5 129t-41 201q19 160 124.5 265.5t318.5 164.5q-177 157 -151 346q22 141 149.5 224.5t310.5 83.5q78 0 146.5 -18t125 -54.5t84 -98.5t16.5 -143 q-18 -126 -128.5 -214.5t-307.5 -160.5l345 -383q109 124 148 272zM854 1323q-104 0 -177 -51.5t-88 -134.5q-11 -67 18 -125.5t115 -164.5q313 117 336 279q7 54 -9.5 95t-49 62t-69 30.5t-76.5 9.5zM603 125q118 0 227 43t185 108l-385 429q-164 -53 -238.5 -129.5 t-91.5 -194.5q-16 -119 72 -187.5t231 -68.5z" glyph-name="ampersand.aalt" horiz-adv-x="1680"/><glyph d="M-608 1720h200l-23 -162h-201zM-223 1720h199l-23 -162h-200z" glyph-name="uni0308.aalt"/><glyph d="M-223 1720h200l-23 -162h-201z" glyph-name="uni0307.aalt"/><glyph d="M-426 1865h189l190 -307h-156z" glyph-name="gravecomb.aalt"/><glyph d="M-3 1865l-310 -307h-157l277 307h190z" glyph-name="acutecomb.aalt"/><glyph d="M-241 1872l-210 -323h-135l207 323h138zM-2 1872l-210 -323h-134l206 323h138z" glyph-name="uni030B.aalt"/><glyph d="M-47 1549h-156l-136 246l-205 -246h-156l263 308h214z" glyph-name="uni0302.aalt"/><glyph d="M-187 1662h155l-263 -307h-214l-175 307h156l136 -245z" glyph-name="uni030C.aalt"/><glyph d="M-13 1798q-27 -110 -114.5 -179.5t-198 -69.5t-178.5 70t-64 179h124q-5 -62 31.5 -103.5t101.5 -41.5q63 0 113 42t61 103h124z" glyph-name="uni0306.aalt"/><glyph d="M-255 1549q-85 0 -137 61t-40 146q11 86 80.5 147t154.5 61t137.5 -61t41.5 -147q-12 -85 -82 -146t-155 -61zM-241 1651q44 0 80 31t42 74q5 44 -21.5 75.5t-70.5 31.5q-43 0 -79 -31.5t-42 -75.5q-6 -43 20.5 -74t70.5 -31z" glyph-name="uni030A.aalt"/><glyph d="M-683 1550q13 98 70 154.5t136 56.5q38 0 76.5 -16t64 -36.5t58 -37t61.5 -16.5q33 0 59.5 29.5t32.5 71.5h106q-14 -98 -73 -154.5t-134 -56.5q-32 0 -69 17t-63.5 37t-60 36.5t-59.5 16.5q-39 -1 -66 -30t-34 -73z" glyph-name="tildecomb.aalt"/><glyph d="M-549 1669h518l-17 -120h-518z" glyph-name="uni0304.aalt"/><glyph d="M-73 1568h-183l157 453h154z" glyph-name="uni0312.aalt"/><glyph d="M-56 1491q-27 -110 -114.5 -179.5t-198 -69.5t-178.5 69.5t-64 179.5h124q-5 -62 31.5 -103.5t101.5 -41.5q63 0 113 42t61 103h124z" glyph-name="glyph666"/><glyph d="M873.5 0q-194.5 0 -359.5 96.5t-261 261t-96 359t96 359.5t261 261.5t359.5 96.5t359.5 -96.5t261 -261.5t96 -359.5t-96 -359t-261 -261t-359.5 -96.5zM1263 977l-163 32v-420q0 -11 -13 -20t-32 -9q-17 0 -30 9t-13 20v322h-538l-31 -135h139v-337h161v337h105v-220 q0 -53 61 -91.5t146 -38.5q86 0 147 38t61 92v421z" glyph-name="glyph667" horiz-adv-x="1700"/></font>
</defs>
</svg>
