<?xml version="1.0" standalone="no"?>
<!DOCTYPE svg PUBLIC "-//W3C//DTD SVG 20010904//EN"
 "http://www.w3.org/TR/2001/REC-SVG-20010904/DTD/svg10.dtd">
<svg version="1.0" xmlns="http://www.w3.org/2000/svg"
 width="600.000000pt" height="600.000000pt" viewBox="0 0 600.000000 600.000000"
 preserveAspectRatio="xMidYMid meet">
<metadata>
Created by potrace 1.11, written by Peter Selinger 2001-2013
</metadata>
<g transform="translate(0.000000,600.000000) scale(0.100000,-0.100000)"
fill="#000000" stroke="none">
<path d="M5244 4890 c-245 -49 -526 -172 -789 -344 -359 -236 -756 -646 -1063
-1099 -422 -623 -651 -1324 -629 -1932 6 -171 30 -336 53 -372 9 -14 24 -23
39 -23 33 0 39 17 60 155 48 323 165 699 335 1075 131 290 343 645 610 1020
491 691 960 1141 1457 1398 149 77 169 96 143 127 -17 20 -101 18 -216 -5z"/>
<path d="M2010 3574 c-172 -29 -275 -78 -374 -178 -114 -114 -166 -242 -166
-406 0 -139 41 -256 129 -366 105 -132 296 -224 463 -224 154 1 321 72 433
184 126 127 181 269 172 446 -12 238 -166 436 -399 514 -71 24 -203 40 -258
30z m122 -225 c113 -24 203 -91 255 -191 25 -48 28 -63 28 -153 0 -93 -2 -105
-32 -166 -39 -79 -102 -140 -181 -177 -49 -23 -70 -27 -147 -27 -82 0 -97 3
-157 33 -220 108 -271 389 -104 570 49 53 105 87 176 106 68 18 95 19 162 5z"/>
<path d="M536 2774 c-9 -8 -16 -21 -16 -28 0 -24 99 -208 166 -308 107 -161
252 -336 499 -603 300 -324 408 -453 582 -692 25 -34 50 -42 71 -21 17 17 15
197 -3 304 -31 173 -105 348 -226 531 -129 193 -372 415 -684 623 -102 69
-346 210 -362 210 -6 0 -19 -7 -27 -16z"/>
</g>
</svg>
