<?xml version="1.0" standalone="no"?>
<!DOCTYPE svg PUBLIC "-//W3C//DTD SVG 1.1//EN" "http://www.w3.org/Graphics/SVG/1.1/DTD/svg11.dtd">
<svg xmlns="http://www.w3.org/2000/svg"><metadata>This SVG WebFont was generated by YouWorkForThem.
Copyright Â© 2019 by TypeUnion. All rights reserved.</metadata><defs><font horiz-adv-x="0" id="ywftsvg"><font-face ascent="1638" bbox="-671 -519 2553.42 2001" cap-height="1434" descent="-410" font-family="" font-stretch="normal" font-weight="200" panose-1="0 0 3 0 0 0 0 0 0 0" underline-position="0" underline-thickness="0" unicode-range="U+0020-FB02" units-per-em="2048" x-height="1123"/><missing-glyph d="M342 1434h868l-200 -1434h-869zM959 55l187 1323h-754l-186 -1323h753z" horiz-adv-x="1307"/><glyph d="M1285 1123l-7 -55h-1l-149 -1068h-64l148 1068h-718l-150 -1068h-64l149 1068h-181l8 55h180l28 191q13 97 67.5 159.5t133.5 62.5h181l-8 -54h-161q-59 0 -98.5 -48t-51.5 -128l-26 -183h784zM1242 1434h110l-12 -78h-109z" glyph-name="uniFB01" horiz-adv-x="1426" unicode="fi"/><glyph d="M1342 1536l-216 -1536h-64l209 1482h-594q-59 0 -98.5 -48t-51.5 -128l-26 -183h286l-7 -55h-286l-150 -1068h-64l149 1068h-181l8 55h180l28 191q13 97 67.5 159.5t133.5 62.5h677z" glyph-name="uniFB02" horiz-adv-x="1422" unicode="fl"/><glyph d="M1506 1482q-59 0 -99 -47t-51 -129l-26 -183h286l-7 -55h-286l-151 -1068h-64l150 1068h-764l-150 -1068h-64l149 1068h-181l8 55h180l28 191q13 97 67.5 159.5t133.5 62.5h181l-8 -54h-161q-59 0 -98.5 -48t-51.5 -128l-26 -183h765l26 191q13 97 68 159.5t134 62.5h181 l-8 -54h-161z" glyph-name="f_f.liga" horiz-adv-x="1755" unicode="ff"/><glyph d="M2118 1123l-158 -1123h-65l150 1068h-722l-151 -1068h-64l150 1068h-764l-150 -1068h-64l149 1068h-181l8 55h180l28 191q13 97 67.5 159.5t133.5 62.5h181l-8 -54h-161q-59 0 -98.5 -48t-51.5 -128l-26 -183h765l26 191q13 97 68 159.5t134 62.5h181l-8 -54h-161 q-59 0 -99 -47t-51 -129l-26 -183h788zM2074 1434h109l-10 -78h-111z" glyph-name="f_f_i.liga" horiz-adv-x="2257" unicode="ffi"/><glyph d="M342 1434h868l-200 -1434h-869zM959 55l187 1323h-754l-186 -1323h753z" glyph-name=".notdef" horiz-adv-x="1307"/><glyph glyph-name="glyph1"/><glyph glyph-name="glyph2" horiz-adv-x="681"/><glyph glyph-name="space" horiz-adv-x="505" unicode=" "/><glyph d="M215 310l150 1124h64l-165 -1124h-49zM141 0l11 78h110l-11 -78h-110z" glyph-name="exclam" horiz-adv-x="548" unicode="!"/><glyph d="M408 1530h62l-126 -424h-48zM572 1530h62l-126 -424h-48z" glyph-name="quotedbl" horiz-adv-x="716" unicode="&quot;"/><glyph d="M1106 975l-209 -516h297l-20 -56h-298l-164 -403h-67l163 403h-433l-163 -403h-68l163 403h-271l21 56h272l209 516h-297l20 55h297l164 404h68l-164 -404h433l164 404h67l-164 -404h272l-21 -55h-271zM1038 975h-433l-209 -516h433z" glyph-name="numbersign" horiz-adv-x="1390" unicode="#"/><glyph d="M706 738q96 -28 160.5 -51t122.5 -56.5t88 -72t43 -91.5t1 -122q-15 -93 -95 -172t-192.5 -124.5t-234.5 -55.5l-21 -161h-51l22 158h-13q-282 0 -440 123l12 71q156 -136 436 -136q114 0 226.5 38.5t192 108.5t93.5 153q22 139 -84 216q-72 52 -264 109q-18 5 -101 28 q-98 28 -167 59t-124 74t-76.5 100t-10.5 130q27 167 164 270t361 110l22 158h50l-22 -157q187 -5 330 -98l-11 -69q-146 109 -345 108q-206 0 -333.5 -88.5t-149.5 -235.5q-7 -45 2 -83.5t38 -68.5t61.5 -53t88.5 -45t102.5 -38t118.5 -36z" glyph-name="dollar" horiz-adv-x="1309" unicode="$"/><glyph d="M867 1008q-31 -216 -130 -326.5t-245 -110.5q-147 0 -215 110.5t-37 326.5q30 216 128.5 326t245.5 110q146 0 214.5 -110t38.5 -326zM1417 1434h57l-967 -1434h-56zM498 622q125 0 207 97.5t110 288.5q27 190 -28.5 288t-179.5 98t-206.5 -98t-108.5 -288 q-28 -190 27 -288t179 -98zM1682.5 430q-29.5 -216 -129 -326t-247 -110t-215 110t-36.5 326q30 216 128.5 326t246 110t215 -110t38 -326zM1314 44q124 0 206.5 98t109.5 288t-28.5 288t-179.5 98t-205.5 -97.5t-108.5 -288.5q-28 -190 27 -288t179 -98z" glyph-name="percent" horiz-adv-x="1878" unicode="%"/><glyph d="M1358 817l-7 -56h-106l-49 -362q-14 -103 -72 -184t-142 -128.5t-177 -72t-189 -24.5q-75 0 -145.5 14.5t-133.5 47t-108 79.5t-66 116t-8 152q10 79 47.5 146t92 114.5t118 80.5t134.5 52q-106 35 -168 115t-45 198q15 109 88.5 187t176 115t222.5 37t212.5 -37 t144 -115.5t35.5 -186.5l-62 -1q19 138 -79 211.5t-259 73.5q-103 0 -190.5 -30t-150 -96t-76.5 -159q-9 -72 16.5 -128t76.5 -90t113.5 -51.5t129.5 -17.5h626zM1129 400l50 361h-454q-83 0 -165.5 -23t-154 -66.5t-122 -114t-62.5 -157.5q-10 -73 8 -133t57 -100.5t94 -68 t116.5 -40.5t128.5 -13q84 0 165 21t154 62t123 111.5t62 160.5z" glyph-name="ampersand" horiz-adv-x="1499" unicode="&amp;"/><glyph d="M408 1530h62l-126 -424h-48z" glyph-name="quotesingle" horiz-adv-x="552" unicode="'"/><glyph d="M291 -462q-145 505 -71 1028t360 1020h61q-286 -508 -356.5 -1020t67.5 -1028h-61z" glyph-name="parenleft" horiz-adv-x="715" unicode="("/><glyph d="M138 -462h-61q284 525 356 1027.5t-69 1020.5h61q146 -497 73 -1021t-360 -1027z" glyph-name="parenright" horiz-adv-x="716" unicode=")"/><glyph d="M788 1238l-232 -98l132 -192l-45 -32l-131 192l-184 -192l-37 32l185 192l-205 98l28 46l200 -96l33 246h51l-34 -246l226 96z" glyph-name="asterisk" horiz-adv-x="870" unicode="*"/><glyph d="M1076 744l-8 -55h-383l-54 -386h-65l55 386h-383l8 55h383l53 386h64l-53 -386h383z" glyph-name="plus" horiz-adv-x="1269" unicode="+"/><glyph d="M204 99h74l-137 -423h-52z" glyph-name="comma" horiz-adv-x="561" unicode=","/><glyph d="M224 591h421l-9 -59h-421z" glyph-name="hyphen" horiz-adv-x="860" unicode="-"/><glyph d="M156 102h109l-14 -102h-110z" glyph-name="period" horiz-adv-x="548" unicode="."/><glyph d="M761 1434l-655 -1434h-66l654 1434h67z" glyph-name="slash" horiz-adv-x="756" unicode="/"/><glyph d="M1226 717q-50 -359 -215 -543.5t-411 -184.5q-245 0 -357.5 183.5t-62.5 544.5q51 359 215.5 543.5t409.5 184.5q246 0 359 -184.5t62 -543.5zM609 47q216 0 360.5 169.5t191.5 500.5t-50 500t-314 169q-216 0 -360.5 -169t-191.5 -500t50 -500.5t314 -169.5z" glyph-name="zero" horiz-adv-x="1361" unicode="0"/><glyph d="M570 58h359l-8 -58h-780l7 58h358l185 1313q-159 -73 -313 -113l9 63q160 42 312 113h65z" glyph-name="one" horiz-adv-x="1219" unicode="1"/><glyph d="M1115 58l-8 -58h-1027l7 58q78 62 209.5 159.5t235.5 173.5t224 173.5t201.5 176t141 163.5t69.5 155q20 148 -80 237.5t-307 89.5q-230 0 -424 -140l-30 46q214 153 465 153q237 0 353 -104t91 -277q-11 -78 -71 -169t-141.5 -172.5t-200 -179t-219 -170t-227.5 -166 t-198 -149.5h936z" glyph-name="two" horiz-adv-x="1343" unicode="2"/><glyph d="M317 1434h923l-8 -59l-677 -576q87 22 182 19q208 -3 320.5 -111.5t86.5 -296.5q-29 -203 -174.5 -312t-397.5 -109q-140 1 -264.5 39.5t-208.5 112.5l44 47q75 -69 193.5 -105.5t244.5 -35.5q222 1 348 95t150 269q24 165 -79.5 260.5t-292.5 95.5q-145 0 -258 -53 l-30 46l729 615h-838z" glyph-name="three" horiz-adv-x="1323" unicode="3"/><glyph d="M1277 461l-7 -59h-288l-56 -402h-65l57 402h-720l7 59l847 973h74l-137 -973h288zM276 461h649l126 891z" glyph-name="four" horiz-adv-x="1511" unicode="4"/><glyph d="M396 1434h801l-7 -59h-743l-122 -567q199 47 414 45q100 -2 181 -29.5t137 -80t80 -132.5t10 -180q-31 -217 -176 -329.5t-399 -112.5q-140 1 -264.5 39.5t-208.5 112.5l44 47q75 -69 193.5 -105.5t244.5 -35.5q447 3 501 385q24 172 -80 269.5t-295 97.5 q-205 0 -425 -48l-26 24z" glyph-name="five" horiz-adv-x="1323" unicode="5"/><glyph d="M1246 484q-13 -98 -56.5 -181t-105 -140t-138.5 -96.5t-157 -58t-161 -18.5t-156.5 18.5t-141.5 58t-111.5 96.5t-65.5 140t-7 181q6 41 13 71.5t24 66.5t31.5 61.5t52.5 72t70 80.5t99.5 104t124.5 127t163 164.5t200 202.5h81l-515 -521q140 65 296 62q78 -1 150 -19.5 t135.5 -57.5t107 -95.5t62.5 -138.5t5 -180zM636 45q73 0 144 16.5t138.5 51.5t121.5 86t91.5 124.5t50.5 160.5q15 111 -14.5 198t-92.5 137.5t-143.5 77t-171.5 26.5q-72 0 -144 -17.5t-139.5 -54t-122.5 -87.5t-93 -123.5t-50 -156.5q-12 -87 5.5 -160.5t57.5 -124.5 t97.5 -86t124.5 -51.5t140 -16.5z" glyph-name="six" horiz-adv-x="1415" unicode="6"/><glyph d="M281 1434h906l-8 -59q-543 -588 -772 -1375h-67q233 800 766 1375h-834z" glyph-name="seven" horiz-adv-x="1222" unicode="7"/><glyph d="M1178 399q-14 -103 -72.5 -184t-142 -128.5t-177.5 -72t-188 -24.5q-75 0 -145.5 14.5t-133.5 47t-108 79.5t-66 116t-9 152q10 79 47.5 145.5t92.5 114.5t118.5 81t133.5 52q-106 35 -167.5 115t-45.5 198q14 109 87.5 187t177 115t223.5 37t212.5 -37t143.5 -115.5 t36 -186.5q-16 -118 -100 -198.5t-201 -114.5q138 -40 221 -140t63 -253zM378 1104q-10 -72 16 -128t76 -90t112.5 -51.5t131 -17.5t136.5 17.5t128 51.5t101.5 90t52.5 128q19 138 -79 211.5t-258 73.5q-103 0 -191 -30t-150.5 -96t-75.5 -159zM606 45q84 0 165.5 21 t153.5 62t122.5 111.5t63.5 160.5q12 87 -18.5 157.5t-90 114t-135.5 66.5t-160 23q-83 0 -166 -23t-155 -66.5t-121.5 -114t-61.5 -157.5q-13 -90 17 -160.5t91 -111.5t136 -62t159 -21z" glyph-name="eight" horiz-adv-x="1357" unicode="8"/><glyph d="M213 949q13 98 56.5 181t105 140t138.5 97.5t157.5 59t161 18.5t156 -18.5t141 -59t111 -97.5t65.5 -139.5t7 -181.5q-6 -41 -13 -71t-24 -66.5t-31 -61.5t-52 -71.5t-69.5 -81t-99.5 -104.5t-125 -127t-163.5 -164.5t-198.5 -201.5h-82l515 520q-136 -63 -296 -61 q-78 1 -149.5 19.5t-135 57t-107 95t-63 138.5t-5.5 180zM823 1390q-92 0 -180 -27.5t-165.5 -79.5t-131 -138.5t-68.5 -195.5q-12 -89 5 -163t57 -124.5t98 -84.5t124 -50t138 -16t143.5 17.5t139.5 53.5t122.5 87.5t92.5 123.5t49 156q12 87 -5 161t-57 124.5t-97.5 86.5 t-124.5 52.5t-140 16.5z" glyph-name="nine" horiz-adv-x="1415" unicode="9"/><glyph d="M298 1123h111l-16 -102h-109zM156 102h109l-14 -102h-110z" glyph-name="colon" horiz-adv-x="548" unicode=":"/><glyph d="M298 1123h111l-16 -102h-109zM174 99h74l-136 -423h-53z" glyph-name="semicolon" horiz-adv-x="548" unicode=";"/><glyph d="M1145 933l-9 -63l-838 -235l771 -237l-8 -62l-837 256l3 22h-1l10 63z" glyph-name="less" horiz-adv-x="1311" unicode="&lt;"/><glyph d="M1091 851h-831l8 56h831zM1044 526h-830l8 57h831z" glyph-name="equal" horiz-adv-x="1269" unicode="="/><glyph d="M1109 677l-3 -23l-9 -62l-910 -256l10 62l837 236l-771 236l8 63z" glyph-name="greater" horiz-adv-x="1311" unicode=">"/><glyph d="M614 1434q220 0 334 -111t86 -309q-27 -188 -150 -297.5t-300 -111.5q-48 -2 -90 3l-45 -297h-54l44 361q56 -15 126 -16q161 0 271.5 95t133.5 261q25 172 -73 267.5t-289.5 95.5t-347.5 -87l10 67q147 79 344 79zM326 0l10 78h110l-11 -78h-109z" glyph-name="question" horiz-adv-x="1129" unicode="?"/><glyph d="M1205 -72q-174 -80 -361 -80q-215 0 -381 104.5t-245.5 285t-49.5 395.5q31 213 160.5 393t325 285t410.5 105q161 0 297.5 -61.5t226.5 -166t131.5 -248t19.5 -303.5q-31 -220 -118 -325t-219 -105q-105 0 -157.5 65.5t-38.5 183.5q-55 -105 -151.5 -159t-200.5 -54 q-70 0 -129 23t-104.5 68.5t-64.5 122.5t-5 175q13 97 54 173.5t98.5 122.5t124 70t136.5 24q104 0 185 -55.5t106 -159.5l31 208h53l-78 -561q-12 -90 30.5 -141.5t120.5 -51.5q98 0 172 89t101.5 287t-46 364.5t-228.5 264.5t-355 98t-382 -98t-303.5 -266.5 t-149.5 -366.5q-22 -150 17.5 -286t123.5 -234t211.5 -155.5t277.5 -57.5q168 0 340 76zM1217 620l4 26q16 157 -61.5 241.5t-200.5 84.5q-127 0 -227 -88t-124 -252q-24 -167 52.5 -252.5t204.5 -85.5q59 0 114.5 18.5t105 56t85 102t47.5 149.5z" glyph-name="at" horiz-adv-x="1886" unicode="@"/><glyph d="M1155 0l-96 364h-810l-199 -364h-70l780 1434h87l380 -1434h-72zM281 422h762l-248 944z" glyph-name="A" horiz-adv-x="1362" unicode="A"/><glyph d="M342 1434h571q70 0 130 -22.5t105.5 -66t66.5 -116.5t8 -164q-17 -127 -84.5 -211.5t-162.5 -123.5q111 -28 171.5 -118t39.5 -240q-13 -92 -54.5 -165.5t-100.5 -117.5t-126 -66.5t-138 -22.5h-627zM401 1377l-89 -632h494q62 0 117 17t104 52.5t83.5 98.5t46.5 148 q11 83 -5 146t-54.5 98.5t-89.5 53.5t-113 18h-494zM768 55q62 0 118 18t105 55t83 99.5t45 145.5q12 85 -4 148.5t-55 98.5t-89.5 52t-113.5 17h-553l-89 -633z" glyph-name="B" horiz-adv-x="1371" unicode="B"/><glyph d="M1305 1280q-147 106 -344 104q-93 0 -185 -26t-179.5 -80t-158.5 -131.5t-122 -188t-69.5 -241.5t1.5 -241.5t69.5 -188t121.5 -132t157 -80.5t177 -26q197 -2 374 105l-10 -69q-176 -96 -372 -96q-103 0 -198 28t-175 87.5t-134 144t-75.5 205t-2 263t75 263.5 t134 205.5t175.5 144t199 87.5t206 28q196 0 345 -96z" glyph-name="C" horiz-adv-x="1423" unicode="C"/><glyph d="M1391 717q-25 -179 -98 -318.5t-179 -225.5t-234.5 -129.5t-273.5 -43.5h-465l201 1434h465q115 0 212.5 -28t176 -83.5t128.5 -141t69.5 -201.5t-2.5 -263zM611 58q131 0 248 40.5t213 120t162 207t89 291.5q24 164 -6.5 291.5t-104.5 206.5t-179 119.5t-236 40.5h-397 l-185 -1317h396z" glyph-name="D" horiz-adv-x="1526" unicode="D"/><glyph d="M215 58h899l-8 -58h-965l201 1434h966l-9 -59h-899l-88 -630h816l-8 -57h-816z" glyph-name="E" horiz-adv-x="1404" unicode="E"/><glyph d="M208 0h-67l201 1434h925l-9 -59h-858l-88 -630h777l-10 -57h-775z" glyph-name="F" horiz-adv-x="1363" unicode="F"/><glyph d="M861 752h449l-87 -617q-99 -70 -219.5 -108t-239.5 -38q-103 0 -197.5 28t-174.5 87.5t-134 144t-75.5 205t-2 263t75 263.5t134 205.5t175.5 144t199 87.5t206 28q194 0 344 -96l-9 -67q-147 106 -344 104q-117 0 -232 -42t-215 -122.5t-172.5 -211t-95 -293.5 t13 -293.5t113.5 -211t180.5 -123t219.5 -42.5q98 0 213.5 37t179.5 87l73 524h-386z" glyph-name="G" horiz-adv-x="1502" unicode="G"/><glyph d="M1303 1434h67l-201 -1434h-67l96 688h-894l-96 -688h-67l201 1434h67l-97 -689h895z" glyph-name="H" horiz-adv-x="1467" unicode="H"/><glyph d="M208 0h-67l201 1434h67z" glyph-name="I" horiz-adv-x="505" unicode="I"/><glyph d="M153 85q91 -39 224 -37q273 1 323 367l144 1019h67l-143 -1020q-29 -206 -127 -315.5t-270 -109.5q-136 0 -227 34z" glyph-name="J" horiz-adv-x="1008" unicode="J"/><glyph d="M1291 1434l-896 -715l696 -719h-90l-693 716l-100 -716h-67l201 1434h67l-100 -712l893 712h89z" glyph-name="K" horiz-adv-x="1265" unicode="K"/><glyph d="M409 1434l-194 -1376h857l-7 -58h-924l201 1434h67z" glyph-name="L" horiz-adv-x="1319" unicode="L"/><glyph d="M1628 1434h103l-201 -1434h-68l192 1359l-755 -1159h-72l-429 1159l-190 -1359h-67l201 1434h101l430 -1165z" glyph-name="M" horiz-adv-x="1827" unicode="M"/><glyph d="M1381 1434h67l-201 -1434h-81l-770 1343l-188 -1343h-67l201 1434h81l771 -1343z" glyph-name="N" horiz-adv-x="1546" unicode="N"/><glyph d="M1553.5 716.5q-19.5 -142.5 -76 -263t-134 -205t-174.5 -144t-199.5 -87.5t-206 -28t-197.5 28t-174 87.5t-134 144t-75.5 205t-2 263t75 263.5t134 205.5t174.5 144t198.5 87.5t206 28t198.5 -28t174.5 -87.5t134 -144t76 -205.5t2 -263.5zM773 47q93 0 185.5 26 t179.5 80.5t158 132.5t121.5 189t69 242t-1 242t-69 189t-121 132t-156.5 80t-178.5 26t-185.5 -26t-179 -80t-158 -132t-122 -189t-69.5 -242t1 -242t69 -189t121.5 -132.5t157 -80.5t178 -26z" glyph-name="O" horiz-adv-x="1689" unicode="O"/><glyph d="M895 1434q203 0 306.5 -111.5t75.5 -303.5q-32 -243 -269.5 -353t-721.5 -111l-78 -555h-67l201 1434h553zM1210 1019q25 170 -63 263.5t-261 93.5h-485l-107 -764q456 0 671 97t245 310z" glyph-name="P" horiz-adv-x="1371" unicode="P"/><glyph d="M968.5 1445q103.5 0 198.5 -28t174.5 -87.5t134 -144t76 -205.5t1.5 -263q-24 -171 -99 -310t-180.5 -226.5t-226.5 -136t-248 -54.5q39 -109 108 -180.5t180 -121.5l-37 -47q-116 46 -197.5 136.5t-119.5 212.5q-99 4 -189 34.5t-165.5 91t-126.5 144t-71 201.5t-1 256 q19 142 75 263t134.5 205.5t174.5 144t198.5 87.5t206 28zM1486.5 717q18.5 131 -1 242t-69 189t-121 132t-156.5 80t-178.5 26t-185.5 -26t-179 -80t-158 -132t-122 -189t-69.5 -242t1 -242t69 -189t121.5 -132.5t157 -80.5t178 -26t185.5 26t179.5 80.5t158 132.5 t121.5 189t69 242z" glyph-name="Q" horiz-adv-x="1689" unicode="Q"/><glyph d="M895 1434q203 0 306.5 -111.5t75.5 -303.5q-20 -157 -125 -257t-302 -151l289 -611h-74l-282 596q-201 -41 -497 -41l-78 -555h-67l201 1434h553zM1210 1019q25 170 -63 263.5t-261 93.5h-485l-107 -764q459 0 672.5 96.5t243.5 310.5z" glyph-name="R" horiz-adv-x="1376" unicode="R"/><glyph d="M108 184q156 -136 436 -136q114 0 226.5 38.5t192 108.5t93.5 153q22 139 -84 216q-72 52 -264 109q-18 5 -101 28q-98 28 -167 59t-124 74t-76.5 100t-10.5 130q28 173 175 277t383 104q198 0 347 -98l-11 -69q-146 109 -345 108q-206 0 -333.5 -88.5t-149.5 -235.5 q-7 -45 2 -83.5t38 -68.5t61.5 -53t88.5 -45t102.5 -37.5t118.5 -36.5q96 -28 160.5 -51t122.5 -56.5t88 -72t43 -91.5t1 -122q-16 -101 -108 -184.5t-219.5 -127t-257.5 -43.5q-282 0 -440 123z" glyph-name="S" horiz-adv-x="1309" unicode="S"/><glyph d="M1167 1434l-7 -59h-461l-192 -1375h-67l193 1375h-460l7 59h987z" glyph-name="T" horiz-adv-x="1103" unicode="T"/><glyph d="M1338 1434l-127 -906q-39 -285 -174 -412t-400 -127q-264 0 -363 127.5t-60 411.5l128 906h67l-128 -911q-35 -253 48 -364.5t317 -111.5q233 0 348 111.5t150 364.5l128 911h66z" glyph-name="U" horiz-adv-x="1435" unicode="U"/><glyph d="M1350 1434h71l-777 -1434h-88l-376 1434h72l358 -1364z" glyph-name="V" horiz-adv-x="1356" unicode="V"/><glyph d="M1880 1434h70l-619 -1434h-79l-201 1332l-575 -1332h-79l-217 1434h71l200 -1340l577 1340h74l202 -1340z" glyph-name="W" horiz-adv-x="1886" unicode="W"/><glyph d="M1377 1434l-634 -716l437 -718h-80l-408 670l-595 -670h-79l637 718l-434 716h79l406 -668l592 668h79z" glyph-name="X" horiz-adv-x="1354" unicode="X"/><glyph d="M1224 1434h75l-641 -821l-86 -613h-66l86 613l-412 821h76l378 -753z" glyph-name="Y" horiz-adv-x="1235" unicode="Y"/><glyph d="M1338 1434l-7 -59l-1101 -1317h915l-7 -58h-997l7 58l1100 1317h-914l8 59h996z" glyph-name="Z" horiz-adv-x="1435" unicode="Z"/><glyph d="M354 1522h433l-7 -57h-368l-255 -1807h368l-7 -56h-433z" glyph-name="bracketleft" horiz-adv-x="872" unicode="["/><glyph d="M241 1434h66l253 -1434h-66z" glyph-name="backslash" horiz-adv-x="756" unicode="\"/><glyph d="M787 1522l-269 -1920h-433l7 56h369l255 1807h-369l7 57h433z" glyph-name="bracketright" horiz-adv-x="872" unicode="]"/><glyph d="M775 878h-62l-122 510l-263 -510h-64l289 556h89z" glyph-name="asciicircum" horiz-adv-x="949" unicode="^"/><glyph d="M110 -227h1433l-8 -56h-1434z" glyph-name="underscore" horiz-adv-x="1872" unicode="_"/><glyph d="M364 1581h74l215 -307h-67z" glyph-name="grave" horiz-adv-x="772" unicode="`"/><glyph d="M764 1135q76 0 134.5 -9t108.5 -29.5t81.5 -54t53 -83t23 -116t-7.5 -152.5l-97 -691h-64l25 183q-30 -32 -76 -63t-111.5 -62t-156 -50t-189.5 -19q-194 1 -282 76.5t-69 220.5q16 120 86 193.5t189 104t287 36.5t381 -12l14 94q22 207 -52.5 290.5t-288.5 84.5 q-93 1 -191 -22.5t-170 -62.5l9 63q70 37 167 58.5t196 21.5zM1031 257l41 294q-274 18 -461 10t-289.5 -72t-120.5 -197q-18 -130 61.5 -188t259.5 -58q168 0 303.5 65.5t205.5 145.5z" glyph-name="a" horiz-adv-x="1355" unicode="a"/><glyph d="M1278 562q-19 -145 -80 -258.5t-146 -180.5t-182 -100.5t-198 -33.5q-100 0 -185 30.5t-152.5 102t-93.5 176.5l-44 -298h-59l216 1536h65l-101 -712q55 103 141.5 174.5t180 104t194.5 32.5q81 0 153 -22t133.5 -67.5t101.5 -113.5t56.5 -160.5t-0.5 -209.5zM676 44 q91 0 177 30.5t161.5 91.5t129 163t71.5 233q17 127 -7 228.5t-82 163t-136 93.5t-169 32q-88 0 -173 -31t-159 -91t-128.5 -157t-74.5 -218l-4 -38q-14 -103 0.5 -188.5t51 -142t90.5 -95.5t117.5 -56.5t134.5 -17.5z" glyph-name="b" horiz-adv-x="1455" unicode="b"/><glyph d="M1115 992q-127 85 -313 84q-92 0 -182.5 -32t-169 -93t-135 -162t-73.5 -227q-18 -127 10 -228t89.5 -161.5t142.5 -93t173 -32.5q183 -1 337 84l-9 -64q-148 -78 -340 -78q-81 0 -155.5 21.5t-139 67.5t-108.5 112t-62.5 162.5t-2.5 209.5q15 114 61 209.5t108.5 161.5 t140 112.5t158.5 68t162 21.5q190 0 317 -77z" glyph-name="c" horiz-adv-x="1231" unicode="c"/><glyph d="M177 562q19 141 79.5 253.5t145 180.5t182 103.5t199.5 35.5q154 0 271 -78.5t156 -232.5l101 712h64l-216 -1536h-58l39 298q-55 -105 -143 -176.5t-181.5 -102t-193.5 -30.5q-101 0 -188.5 33.5t-153.5 100.5t-94.5 180.5t-8.5 258.5zM634 44q90 0 174 28.5t159 86.5 t129 157t73 228l5 38q14 122 -12.5 218.5t-84 156.5t-134 91t-164.5 31q-73 0 -143 -19.5t-135.5 -61.5t-118 -101.5t-90.5 -145.5t-52 -189q-18 -131 6.5 -233t83 -163t136 -91.5t168.5 -30.5z" glyph-name="d" horiz-adv-x="1455" unicode="d"/><glyph d="M1211 553h-971q-13 -103 7.5 -190.5t65.5 -144.5t108.5 -97.5t132.5 -58.5t139 -18q184 0 336 84l-9 -61q-147 -78 -342 -78q-79 0 -156 20.5t-147 66t-119.5 110.5t-72 162.5t-6.5 213.5q19 141 80 253.5t145 180.5t180 103.5t194 35.5q102 0 192.5 -36t158.5 -108 t91.5 -182t-7.5 -256zM770 1079q-84 0 -165.5 -29.5t-153 -85.5t-126 -147.5t-76.5 -207.5h911q22 115 -4.5 207.5t-86 148.5t-137 85t-162.5 29z" glyph-name="e" horiz-adv-x="1392" unicode="e"/><glyph d="M846 1536l-8 -54h-161q-59 0 -98.5 -48t-51.5 -128l-26 -183h286l-7 -55h-286l-150 -1068h-64l149 1068h-181l8 55h180l28 191q13 97 67.5 159.5t133.5 62.5h181z" glyph-name="f" horiz-adv-x="925" unicode="f"/><glyph d="M1252 1123h64l-142 -1020q-16 -114 -59 -204t-101.5 -149t-133 -98t-152 -56t-161.5 -17q-189 0 -318 78l9 63q126 -84 315 -84q75 0 143 15t134 49t117.5 85.5t89 131.5t51.5 181l28 203q-81 -153 -220 -230.5t-293 -77.5q-81 0 -154 22t-134 66.5t-101 112.5t-57 160 t0 209q16 117 59.5 213t102 162t133 111t151.5 65.5t157 20.5q100 0 186 -31.5t152.5 -102.5t91.5 -175zM240 563q-17 -127 7 -228t82 -162t136 -93.5t169 -32.5q88 0 173.5 31.5t160 90.5t128.5 156t73 219l5 37q13 104 -1.5 189t-51 141.5t-91 95.5t-117.5 55.5t-135 16.5 q-73 0 -142 -19t-135 -59t-118 -99.5t-90.5 -147t-52.5 -191.5z" glyph-name="g" horiz-adv-x="1455" unicode="g"/><glyph d="M202 0h-64l216 1536h65l-100 -712q81 153 234.5 232t316.5 79q90 0 161 -25.5t123.5 -78.5t73 -145.5t3.5 -218.5l-94 -667h-65l93 659q15 114 -2 197t-62.5 130.5t-108 69.5t-143.5 22q-89 0 -177 -28t-168 -84.5t-138.5 -151.5t-78.5 -217z" glyph-name="h" horiz-adv-x="1432" unicode="h"/><glyph d="M318 1434h111l-11 -78h-110zM298 1123h64l-156 -1123h-65z" glyph-name="i" horiz-adv-x="503" unicode="i"/><glyph d="M318 1434h111l-11 -78h-110zM362 1123l-158 -1127q-16 -120 -69 -172t-155 -52q-45 0 -89 10l9 46q36 -6 84 -5q80 1 112 43t45 134l157 1123h64z" glyph-name="j" horiz-adv-x="503" unicode="j"/><glyph d="M1142 1123l-615 -497l458 -626h-78l-429 587l-218 -176l-57 -411h-65l216 1536h65l-148 -1048l787 635h84z" glyph-name="k" horiz-adv-x="1181" unicode="k"/><glyph d="M354 1536h65l-216 -1536h-65z" glyph-name="l" horiz-adv-x="498" unicode="l"/><glyph d="M1695 1135q400 0 334 -476l-93 -659h-64l92 659q31 223 -46 321t-243 98q-81 0 -160.5 -27t-153 -81t-128 -145t-77.5 -208l-87 -617h-64l93 659q31 223 -46 321t-243 98q-83 0 -164.5 -28.5t-155 -85t-128.5 -152.5t-75 -219l-84 -593h-64l158 1123h64l-41 -299 q53 103 136.5 174.5t176.5 104t196 32.5q333 0 343 -330q60 152 212 241t312 89z" glyph-name="m" horiz-adv-x="2231" unicode="m"/><glyph d="M202 0h-64l158 1123h64l-41 -299q81 153 234.5 232t316.5 79q90 0 161 -25.5t123.5 -78.5t73 -145.5t3.5 -218.5l-94 -667h-65l93 659q15 114 -2 197t-62.5 130.5t-108 69.5t-143.5 22q-89 0 -177 -28t-168 -84.5t-138.5 -151.5t-78.5 -217z" glyph-name="n" horiz-adv-x="1432" unicode="n"/><glyph d="M1276 562q-16 -117 -62 -214t-109 -162.5t-140.5 -110.5t-158 -65.5t-161.5 -20.5t-154.5 20.5t-138.5 65.5t-109.5 110.5t-63 162.5t-2.5 214q16 114 61.5 209.5t108.5 161.5t140 112.5t158 68t162 21.5t155.5 -21.5t139.5 -68t109 -112.5t62.5 -161.5t2.5 -209.5z M653 44q91 0 180.5 31t168 91.5t135.5 163t74 232.5q18 126 -9 227.5t-88.5 163.5t-142 94t-172.5 32q-91 0 -181 -32t-168 -94t-134.5 -163.5t-73.5 -227.5q-14 -104 1.5 -191.5t54 -147t95.5 -100.5t122.5 -60t137.5 -19z" glyph-name="o" horiz-adv-x="1453" unicode="o"/><glyph d="M1278 562q-16 -114 -58.5 -209.5t-102 -161.5t-133.5 -112t-152.5 -67.5t-159.5 -21.5q-100 0 -185 31.5t-150.5 103t-91.5 174.5l-101 -712h-64l216 1536h58l-40 -298q56 105 144 176.5t181.5 102.5t194.5 31q80 0 151.5 -21t134 -64.5t102.5 -112t57 -161.5t-1 -214z M821 1079q-90 0 -174 -28.5t-159 -86.5t-129 -156.5t-73 -227.5l-5 -38q-13 -122 13.5 -219t83.5 -157t133.5 -91t164.5 -31q91 0 178 32.5t162 94t128 163t71 228.5q18 130 -6.5 232t-83 163t-136 91.5t-168.5 30.5z" glyph-name="p" horiz-adv-x="1455" unicode="p"/><glyph d="M177 562q16 117 59.5 213.5t102.5 162.5t133.5 111t152 65.5t158.5 20.5q100 0 185 -31t152.5 -102t93.5 -177l43 298h59l-216 -1536h-65l101 712q-81 -153 -220.5 -231t-293.5 -78q-81 0 -153.5 22t-134 66.5t-101 112.5t-56.5 160.5t0 210.5zM778 1079 q-91 0 -177 -30.5t-161 -91.5t-129 -163t-71 -232q-17 -127 7 -228.5t82 -163t136 -94t169 -32.5q88 0 173 31t159 91t128.5 157t74.5 219l5 38q17 129 -9 227.5t-85 156.5t-135.5 86.5t-166.5 28.5z" glyph-name="q" horiz-adv-x="1455" unicode="q"/><glyph d="M202 0h-64l158 1123h63l-41 -299q55 102 148.5 174.5t195 104.5t205.5 32l-8 -57q-72 0 -143.5 -17t-142 -55t-128 -93t-100 -136.5t-58.5 -179.5z" glyph-name="r" horiz-adv-x="903" unicode="r"/><glyph d="M119 132q72 -40 173 -63t205 -23q140 -1 254 63t129 161q7 48 -8 86t-38.5 62.5t-78.5 49t-98 37.5t-127 36q-165 43 -244.5 117t-63.5 191q19 133 140 209.5t312.5 76.5t319.5 -79l-9 -65q-129 86 -315 87q-163 0 -265 -60t-117 -170q-8 -52 10 -92.5t64 -72t104 -54.5 t145 -47q78 -22 129.5 -40.5t97.5 -44.5t70 -56t34 -72t3 -97q-12 -81 -81 -147t-168 -101t-202 -35q-110 0 -213.5 21.5t-170.5 57.5z" glyph-name="s" horiz-adv-x="1162" unicode="s"/><glyph d="M688 0h-230q-85 0 -123.5 60t-24.5 162l119 846h-181l8 55h180l32 225h64l-31 -225h344l-7 -55h-344l-118 -838q-11 -80 19.5 -128t89.5 -48h210z" glyph-name="t" horiz-adv-x="984" unicode="t"/><glyph d="M1231 1123h63l-157 -1123h-65l41 299q-81 -153 -234 -231.5t-317 -78.5q-90 0 -160.5 25t-123.5 78t-73.5 146t-2.5 219l94 666h64l-93 -659q-15 -114 2.5 -197t63 -130.5t108 -69.5t143.5 -22q89 0 177 28t168 84.5t138 151.5t79 217z" glyph-name="u" horiz-adv-x="1433" unicode="u"/><glyph d="M1089 1123h69l-596 -1123h-85l-280 1123h69l261 -1062z" glyph-name="v" horiz-adv-x="1197" unicode="v"/><glyph d="M1579 1123h71l-498 -1123h-78l-164 1028l-454 -1028h-78l-181 1123h70l162 -1051l459 1051h70l162 -1051z" glyph-name="w" horiz-adv-x="1688" unicode="w"/><glyph d="M1145 1123l-500 -560l342 -563h-75l-324 532l-473 -532h-75l500 563l-343 560h75l325 -529l472 529h76z" glyph-name="x" horiz-adv-x="1183" unicode="x"/><glyph d="M1089 1123h69l-593 -1058q-35 -62 -65 -109.5t-80.5 -108.5t-103.5 -102t-127.5 -73t-156.5 -41l6 56q70 9 132 36.5t107 62.5t88.5 87t70.5 95t60 102l-299 1053h69l275 -981z" glyph-name="y" horiz-adv-x="1197" unicode="y"/><glyph d="M1166 1123l-7 -55l-972 -1012h829l-7 -56h-911l7 56l972 1012h-829l8 55h910z" glyph-name="z" horiz-adv-x="1264" unicode="z"/><glyph d="M435 -436q-42 0 -71 12.5t-53 47.5t-27.5 95t6.5 155l64 456q6 28 0.5 62.5t-17 65t-44 52.5t-78.5 24l8 56q87 3 136.5 67.5t59.5 136.5l64 456q13 91 37 154.5t55.5 96.5t65 46.5t75.5 13.5h85l-8 -57h-76q-48 0 -84 -31.5t-53.5 -76t-25.5 -101.5l-69 -490 q-8 -58 -30 -109t-65.5 -90t-99.5 -42v-4q55 -3 87.5 -42t40 -90t-0.5 -110l-69 -490q-5 -53 -1.5 -99.5t30.5 -78t76 -31.5h75l-8 -55h-85z" glyph-name="braceleft" horiz-adv-x="880" unicode="{"/><glyph d="M371 1632h64l-288 -2042h-64z" glyph-name="bar" horiz-adv-x="503" unicode="|"/><glyph d="M166 -436h-86l7 55h76q71 0 111 60.5t53 148.5l69 490q8 58 30.5 109.5t65.5 90.5t99 42l1 4q-55 3 -88 42t-40.5 89.5t0.5 109.5l70 490q5 53 1 100t-31 78t-75 31h-76l7 57h86q42 0 71.5 -13t53.5 -48t27.5 -94.5t-6.5 -155.5l-65 -456q-6 -28 -0.5 -63t17.5 -65.5 t44 -52.5t78 -23l-9 -56q-46 -1 -83.5 -23t-59.5 -54t-35 -64.5t-17 -62.5l-65 -456q-12 -91 -35.5 -154.5t-55.5 -96.5t-65.5 -46t-74.5 -13z" glyph-name="braceright" horiz-adv-x="881" unicode="}"/><glyph d="M210 488q8 75 56.5 125.5t119.5 50.5q38 0 75 -20t61 -44.5t55.5 -44t61.5 -19.5q36 0 67 36.5t38 82.5h55q-11 -76 -61.5 -125t-116.5 -49q-29 0 -63.5 20t-60 44t-57.5 43.5t-59 19.5q-45 -1 -77.5 -35.5t-39.5 -85.5z" glyph-name="asciitilde" horiz-adv-x="1004" unicode="~"/><glyph d="M298 1123h111l-12 -77h-109zM286 813h48l-150 -1123h-64z" glyph-name="exclamdown" horiz-adv-x="548" unicode="¡"/><glyph d="M1115 992q-118 80 -287 84l-145 -1029q169 4 311 84l-9 -64q-138 -73 -310 -78l-19 -132h-50l19 132q-99 3 -186.5 40.5t-154 105.5t-96.5 179t-11 248q15 111 59 204.5t104 159t135 112.5t153.5 70.5t157.5 26.5l19 133h50l-18 -133q170 -5 287 -77zM241.5 562 q-17.5 -123 8 -221t83.5 -159.5t134.5 -95.5t165.5 -38l145 1027q-90 -4 -176 -37.5t-161 -94.5t-128.5 -159.5t-71 -221.5z" glyph-name="cent" horiz-adv-x="1231" unicode="¢"/><glyph d="M496 1059q-12 -89 -2 -325h606l-7 -55h-597q6 -83 2 -171.5t-17 -166.5t-50 -152.5t-95 -130.5h876l-7 -58h-945l7 58q62 58 101.5 134t52 153t16.5 164.5t-3 169.5h-197l7 55h187q-14 234 0 336q24 170 169 272.5t382 102.5q202 0 355 -102l-9 -68q-150 114 -354 111 q-207 -1 -332.5 -90t-145.5 -237z" glyph-name="sterling" horiz-adv-x="1503" unicode="£"/><glyph d="M1206 718q-26 -181 -166 -319l158 -183l-38 -34l-159 185q-152 -122 -332 -122q-184 0 -301 122l-211 -185l-29 34l211 184q-103 135 -78 318q27 182 168 315l-160 186l38 33l160 -185q150 122 335 122q179 0 298 -121l210 184l28 -33l-209 -185q103 -137 77 -316z M676 301q172 0 310.5 122t163.5 295q25 172 -79.5 293.5t-276.5 121.5q-173 0 -312.5 -121.5t-164.5 -293.5q-25 -173 80 -295t279 -122z" glyph-name="currency" horiz-adv-x="1423" unicode="¤"/><glyph d="M658 613l-17 -124h446l-7 -49h-446l-22 -157h447l-7 -50h-447l-33 -233h-66l33 233h-447l7 50h447l21 157h-446l8 49h445l18 124l-412 821h76l378 -753l590 753h75z" glyph-name="yen" horiz-adv-x="1235" unicode="¥"/><glyph d="M371 1632h64l-130 -918h-64zM212 509h64l-129 -919h-64z" glyph-name="brokenbar" horiz-adv-x="503" unicode="¦"/><glyph d="M707 1354q-162 0 -264 -61t-118 -173q-15 -99 65.5 -158t257.5 -108q43 -12 75.5 -22t65.5 -22.5t56.5 -24.5t48 -27t38 -30.5t28 -35.5t18 -41.5t7.5 -49t-3 -56.5q-13 -93 -104.5 -165t-217.5 -101q143 -46 202.5 -107.5t42.5 -174.5q-11 -80 -83 -146t-173 -101.5 t-206 -35.5q-213 0 -356 119l10 62q59 -57 151 -91.5t198 -35.5q141 0 260 65.5t134 162.5q5 35 -0.5 64t-18 51t-39 42t-51.5 34t-69.5 29t-79 25t-92.5 25q-165 44 -244.5 118t-63.5 189q15 104 93.5 173t207.5 94q-252 92 -223 281q18 133 139.5 210t313.5 77 q193 0 314 -94l-9 -59q-111 99 -311 99zM918 544q8 55 -8.5 95t-61 69t-94 48t-133.5 43q-160 -2 -259 -60t-114 -167q-14 -94 57 -151t227 -105q138 2 255 67.5t131 160.5z" glyph-name="section" horiz-adv-x="1164" unicode="§"/><glyph d="M333 1372h104l-14 -98h-104zM669 1372h103l-13 -98h-104z" glyph-name="dieresis" horiz-adv-x="878" unicode="¨"/><glyph d="M825 -12q-210 0 -368 97t-231.5 264t-45.5 368q22 151 98 285.5t189 232t259.5 154.5t304.5 57t290 -57t217.5 -154.5t124.5 -232.5t17 -285q-29 -201 -150 -368t-307.5 -264t-397.5 -97zM834.5 39q198.5 0 370.5 88t284 243t139 347q27 191 -41 346.5t-216 243.5 t-347 88q-198 0 -370 -88t-283.5 -243.5t-139.5 -346.5q-27 -191 41.5 -346.5t216 -243.5t346 -88zM1210 1020q-91 59 -227 59q-66 0 -129 -23t-117.5 -66.5t-93 -114t-50.5 -158.5q-24 -172 62.5 -267.5t227.5 -95.5q133 -1 242 60l-7 -54q-111 -56 -246 -56 q-74 0 -138.5 25.5t-115 74.5t-73.5 130t-8.5 182.5t60.5 183t110 130t136 74t146 25.5q136 0 229 -56z" glyph-name="copyright" horiz-adv-x="1816" unicode="©"/><glyph d="M593 1444q133 0 193 -59.5t38 -206.5l-58 -415h-53l15 109q-42 -44 -119.5 -79.5t-180.5 -35.5q-109 0 -159.5 46t-39.5 132q13 95 78 143.5t179 58t279 -1.5l6 50q12 120 -31 165.5t-156 44.5q-106 2 -193 -59l-21 39q96 69 223 69zM736 928l22 161q-158 11 -260 3.5 t-153.5 -43t-61.5 -110.5q-8 -62 33.5 -98t134.5 -36q91 0 166 37.5t119 85.5z" glyph-name="ordfeminine" horiz-adv-x="915" unicode="ª"/><glyph d="M689 947l-392 -384l284 -384h-77l-284 384l392 384h77zM1065 947l-392 -384l283 -384h-76l-284 384l392 384h77z" glyph-name="guillemotleft" horiz-adv-x="1229" unicode="«"/><glyph d="M1155 903l-73 -518h-64l64 461h-823l9 57h887z" glyph-name="logicalnot" horiz-adv-x="1326" unicode="¬"/><glyph d="M808 1504q215 0 339 -141.5t94 -348.5t-192.5 -349t-377.5 -142q-140 0 -246.5 65.5t-155 178t-28.5 247.5q30 207 191.5 348.5t375.5 141.5zM1194 1014q27 191 -84 317t-307 126t-342.5 -126.5t-173 -317t84 -317t306.5 -126.5q197 0 343 127t173 317zM810 1313 q95 0 136.5 -45t30.5 -128q-9 -70 -50 -112.5t-127 -62.5l118 -249h-53l-114 239q-69 -10 -176 -10l-32 -229h-47l85 597h229zM931 1140q9 71 -22 100t-106 29h-182l-40 -280q185 0 261.5 34t88.5 117z" glyph-name="registered" horiz-adv-x="1354" unicode="®"/><glyph d="M327 1327h471l-8 -53h-471z" glyph-name="macron" horiz-adv-x="909" unicode="¯"/><glyph d="M512 978q-96 0 -155.5 68t-46.5 165q14 96 92 165t174.5 69t156 -68.5t44.5 -165.5q-13 -96 -91 -164.5t-174 -68.5zM518 1025q76 0 139 55.5t73 130.5q11 75 -37 131t-123 56q-76 0 -138.5 -55.5t-74.5 -131.5q-10 -76 37.5 -131t123.5 -55z" glyph-name="degree" horiz-adv-x="905" unicode="°"/><glyph d="M1091 847l-9 -55h-383l-32 -235h-65l33 235h-383l7 55h383l34 235h64l-33 -235h384zM1030 417l-8 -56h-831l9 56h830z" glyph-name="plusminus" horiz-adv-x="1269" unicode="±"/><glyph d="M828 816l-6 -50h-616l6 50q52 41 150.5 113.5t169 127t146 119.5t119 124t50.5 108q13 89 -44 139t-180 50q-138 0 -250 -81l-28 38q131 93 286 94q148 0 218 -63.5t54 -172.5q-6 -47 -41 -101.5t-80.5 -102t-115 -106t-125 -99.5t-132 -98.5t-116.5 -88.5h535z" glyph-name="uni00B2" horiz-adv-x="970" unicode="²"/><glyph d="M350 1638h554l-6 -50l-404 -338q51 11 108 12q126 -2 196 -68t55 -178q-37 -260 -342 -259q-82 0 -161.5 26t-130.5 72l40 40q46 -41 116.5 -65t142.5 -23q131 1 198.5 52.5t82.5 157.5q14 98 -44.5 148t-173.5 50q-85 0 -155 -31l-23 55l421 349h-480z" glyph-name="uni00B3" horiz-adv-x="965" unicode="³"/><glyph d="M696 1581l-309 -307h-68l303 307h74z" glyph-name="acute" horiz-adv-x="772" unicode="´"/><glyph d="M1231 1123h63l-157 -1123h-65l41 299q-81 -153 -234 -231.5t-317 -78.5q-255 0 -336 183l-82 -582h-64l118 837q1 5 2.5 15t1.5 15l94 666h64l-45 -315h1l-52 -372q-11 -105 8.5 -183t65 -122t106.5 -65t140 -21q89 0 177 28t168 84.5t138 151.5t79 217z" glyph-name="uni00B5" horiz-adv-x="1370" unicode="µ"/><glyph d="M561 977q-130 0 -198.5 59t-53.5 166q16 116 100 174t218 58h325l-200 -1434h-62l194 1375h-205l-193 -1375h-61z" glyph-name="paragraph" horiz-adv-x="1050" unicode="¶"/><glyph d="M249 768h109l-14 -102h-111z" glyph-name="periodcentered" horiz-adv-x="548" unicode="·"/><glyph d="M263 -52q45 0 73 -22t21 -68q-13 -94 -161 -95q-39 0 -87 8l7 46q33 -5 65 -5q114 0 120 46q4 29 -18 38t-72 9q-28 0 -39 -1l5 40l68 61h47l-63 -58q6 1 34 1z" glyph-name="cedilla" horiz-adv-x="675" unicode="¸"/><glyph d="M475 828h207l-6 -50h-468l6 50h207l107 758q-102 -48 -180 -68l7 53q83 23 181 67h54z" glyph-name="uni00B9" horiz-adv-x="822" unicode="¹"/><glyph d="M841 1101q-12 -87 -50.5 -155t-92.5 -108t-114 -60.5t-121.5 -20.5t-115 20.5t-96 60.5t-62 108t-7.5 155q12 84 50 151.5t91.5 108.5t114 62t122 21t116 -21t96.5 -62t61.5 -108.5t7.5 -151.5zM470 806q52 0 102.5 17.5t95.5 52t77.5 93t42.5 132.5q19 140 -52 217 t-183 77t-205 -77t-112 -217q-20 -144 51 -219.5t183 -75.5z" glyph-name="ordmasculine" horiz-adv-x="872" unicode="º"/><glyph d="M274 947h77l285 -384l-392 -384h-77l391 384zM650 947h77l285 -384l-392 -384h-77l391 384z" glyph-name="guillemotright" horiz-adv-x="1230" unicode="»"/><glyph d="M446 624h207l-6 -51h-468l6 51h207l108 757q-102 -48 -181 -68l8 53q83 23 180 68h54zM1374 1434h57l-967 -1434h-55zM1536 284l-7 -50h-167l-33 -234h-49l33 234h-429l8 50l502 576h56l-81 -576h167zM955 284h365l72 509z" glyph-name="onequarter" horiz-adv-x="1751" unicode="¼"/><glyph d="M446 624h207l-6 -51h-468l6 51h207l108 757q-102 -48 -181 -68l8 53q83 23 180 68h54zM1371 1434h57l-966 -1434h-56zM1617 50l-6 -50h-618l7 50q52 42 150 114.5t169 126.5t146.5 119t119 124t50.5 108q12 89 -44.5 139t-180.5 50q-138 0 -250 -81l-26 38q131 93 284 94 q148 0 218 -63.5t56 -172.5q-6 -47 -41 -101.5t-80.5 -102t-115.5 -105.5t-125 -99.5t-132 -99t-117 -88.5h536z" glyph-name="onehalf" horiz-adv-x="1864" unicode="½"/><glyph d="M322 1434h554l-7 -51l-404 -337q51 11 108 11q126 -2 196.5 -67.5t54.5 -178.5q-37 -260 -342 -259q-82 0 -161 26t-131 72l40 40q46 -41 117 -65t142 -23q131 1 199 53t82 157q14 98 -44 148.5t-174 50.5q-85 0 -155 -32l-22 55l421 349h-481zM1456 1434h56l-966 -1434 h-57zM1611 284l-7 -50h-166l-33 -234h-49l32 234h-429l8 50l502 576h57l-81 -576h166zM1030 284h366l70 509z" glyph-name="threequarters" horiz-adv-x="1825" unicode="¾"/><glyph d="M791 1027l-12 -78h-109l10 78h111zM500 -407q-220 -1 -333.5 110.5t-85.5 309.5q27 188 150 297t301 112q46 2 90 -3l46 297h52l-45 -362q-52 16 -125 17q-161 0 -271.5 -95.5t-133.5 -261.5q-25 -172 73 -267t291 -95q191 -1 346 87l-9 -68q-150 -78 -346 -78z" glyph-name="questiondown" horiz-adv-x="1129" unicode="¿"/><glyph d="M859 1584h-67l-223 307h75zM1155 0l-96 364h-810l-199 -364h-70l780 1434h87l380 -1434h-72zM281 422h762l-248 944z" glyph-name="Agrave" horiz-adv-x="1362" unicode="À"/><glyph d="M1168 1891l-309 -307h-67l302 307h74zM1155 0l-96 364h-810l-199 -364h-70l780 1434h87l380 -1434h-72zM281 422h762l-248 944z" glyph-name="Aacute" horiz-adv-x="1362" unicode="Á"/><glyph d="M862 1855l-227 -271h-68l257 307h87l169 -307h-66zM1155 0l-96 364h-810l-199 -364h-70l780 1434h87l380 -1434h-72zM281 422h762l-248 944z" glyph-name="Acircumflex" horiz-adv-x="1362" unicode="Â"/><glyph d="M716 1704q-45 -1 -77.5 -36t-39.5 -84l-49 1q8 73 54.5 122t116.5 49q38 0 73.5 -20t59.5 -44t55.5 -44t60.5 -20q35 0 66 36.5t38 82.5h50q-11 -73 -59.5 -121t-113.5 -48q-29 0 -62.5 20t-58.5 43.5t-56.5 43t-57.5 19.5zM1155 0l-96 364h-810l-199 -364h-70l780 1434 h87l380 -1434h-72zM281 422h762l-248 944z" glyph-name="Atilde" horiz-adv-x="1362" unicode="Ã"/><glyph d="M723 1682l-14 -98h-104l13 98h105zM1058 1682l-14 -98h-103l13 98h104zM1155 0l-96 364h-810l-199 -364h-70l780 1434h87l380 -1434h-72zM281 422h762l-248 944z" glyph-name="Adieresis" horiz-adv-x="1362" unicode="Ä"/><glyph d="M1155 0l-96 364h-810l-199 -364h-70l764 1406q-47 18 -72 62t-18 99q10 70 67 120t128 50q70 0 113.5 -50.5t32.5 -119.5q-7 -56 -46.5 -101t-93.5 -62l372 -1404h-72zM705 1567q-6 -50 24 -85.5t79 -35.5q50 0 90.5 35.5t46.5 85.5q7 50 -23 85t-79 35q-50 0 -90.5 -35 t-47.5 -85zM281 422h762l-248 944z" glyph-name="Aring" horiz-adv-x="1362" unicode="Å"/><glyph d="M1551 1375h-680l-88 -630h600l-9 -57h-600l-88 -630h680l-7 -58h-748l52 364h-414l-199 -364h-70l780 1434h800zM671 422l134 960l-524 -960h390z" glyph-name="AE" horiz-adv-x="1656" unicode="Æ"/><glyph d="M961 1384q-93 0 -185 -26t-179.5 -80t-158.5 -131.5t-122 -188t-69.5 -241.5t1.5 -241.5t69.5 -188t121.5 -132t157 -80.5t177 -26q197 -2 374 105l-10 -69q-169 -93 -359 -96l-50 -47q6 1 34 1q45 0 72.5 -22t21.5 -68q-13 -94 -162 -95q-39 0 -87 8l7 46q33 -5 66 -6 q114 0 120 47q4 29 -18 38t-72 9q-28 0 -39 -1l5 40l56 51q-100 4 -189.5 34.5t-165 91t-126 144.5t-70.5 201.5t-1 255.5q19 142 75 263t134.5 205.5t175.5 144t199 87.5t206 28q196 0 345 -96l-10 -69q-147 106 -344 104z" glyph-name="Ccedilla" horiz-adv-x="1423" unicode="Ç"/><glyph d="M590 1891h75l215 -307h-68zM215 58h899l-8 -58h-965l201 1434h966l-9 -59h-899l-88 -630h816l-8 -57h-816z" glyph-name="Egrave" horiz-adv-x="1404" unicode="È"/><glyph d="M1189 1891l-309 -307h-68l302 307h75zM215 58h899l-8 -58h-965l201 1434h966l-9 -59h-899l-88 -630h816l-8 -57h-816z" glyph-name="Eacute" horiz-adv-x="1404" unicode="É"/><glyph d="M1102 1584h-67l-151 271l-228 -271h-67l257 307h87zM215 58h899l-8 -58h-965l201 1434h966l-9 -59h-899l-88 -630h816l-8 -57h-816z" glyph-name="Ecircumflex" horiz-adv-x="1404" unicode="Ê"/><glyph d="M639 1682h104l-14 -98h-103zM975 1682h103l-13 -98h-103zM215 58h899l-8 -58h-965l201 1434h966l-9 -59h-899l-88 -630h816l-8 -57h-816z" glyph-name="Edieresis" horiz-adv-x="1404" unicode="Ë"/><glyph d="M140 1891h75l215 -307h-68zM208 0h-67l201 1434h67z" glyph-name="Igrave" horiz-adv-x="505" unicode="Ì"/><glyph d="M739 1891l-309 -307h-68l303 307h74zM208 0h-67l201 1434h67z" glyph-name="Iacute" horiz-adv-x="505" unicode="Í"/><glyph d="M652 1584h-66l-152 271l-227 -271h-68l257 307h87zM208 0h-67l201 1434h67z" glyph-name="Icircumflex" horiz-adv-x="505" unicode="Î"/><glyph d="M189 1682h105l-14 -98h-104zM525 1682h104l-14 -98h-103zM208 0h-67l201 1434h67z" glyph-name="Idieresis" horiz-adv-x="505" unicode="Ï"/><glyph d="M808 1434q144 0 260.5 -44t198.5 -129.5t115.5 -225t8.5 -318.5q-20 -144 -71.5 -263t-125.5 -202.5t-168 -140.5t-199 -84t-220 -27h-466l98 692h-162l7 49h161l97 693h466zM1324 717q24 164 -6.5 291.5t-104.5 206.5t-179 119.5t-236 40.5h-397l-89 -634h409l-7 -49 h-409l-89 -634h395q131 0 248 40.5t213 120t162 207t90 291.5z" glyph-name="Eth" horiz-adv-x="1526" unicode="Ð"/><glyph d="M641 1585q8 73 54.5 122t116.5 49q38 0 74 -20t59.5 -44t55 -44t60.5 -20q35 0 66 36.5t38 82.5h50q-11 -73 -59.5 -121t-113.5 -48q-29 0 -62.5 20t-58.5 43.5t-56.5 43t-57.5 19.5q-45 -1 -77.5 -36t-39.5 -84zM1381 1434h67l-201 -1434h-81l-770 1343l-188 -1343h-67 l201 1434h81l771 -1343z" glyph-name="Ntilde" horiz-adv-x="1546" unicode="Ñ"/><glyph d="M732 1891h75l215 -307h-68zM1553.5 716.5q-19.5 -142.5 -76 -263t-134 -205t-174.5 -144t-199.5 -87.5t-206 -28t-197.5 28t-174 87.5t-134 144t-75.5 205t-2 263t75 263.5t134 205.5t174.5 144t198.5 87.5t206 28t198.5 -28t174.5 -87.5t134 -144t76 -205.5t2 -263.5z M773 47q93 0 185.5 26t179.5 80.5t158 132.5t121.5 189t69 242t-1 242t-69 189t-121 132t-156.5 80t-178.5 26t-185.5 -26t-179 -80t-158 -132t-122 -189t-69.5 -242t1 -242t69 -189t121.5 -132.5t157 -80.5t178 -26z" glyph-name="Ograve" horiz-adv-x="1689" unicode="Ò"/><glyph d="M1331 1891l-309 -307h-68l302 307h75zM1553.5 716.5q-19.5 -142.5 -76 -263t-134 -205t-174.5 -144t-199.5 -87.5t-206 -28t-197.5 28t-174 87.5t-134 144t-75.5 205t-2 263t75 263.5t134 205.5t174.5 144t198.5 87.5t206 28t198.5 -28t174.5 -87.5t134 -144t76 -205.5 t2 -263.5zM773 47q93 0 185.5 26t179.5 80.5t158 132.5t121.5 189t69 242t-1 242t-69 189t-121 132t-156.5 80t-178.5 26t-185.5 -26t-179 -80t-158 -132t-122 -189t-69.5 -242t1 -242t69 -189t121.5 -132.5t157 -80.5t178 -26z" glyph-name="Oacute" horiz-adv-x="1689" unicode="Ó"/><glyph d="M1244 1584h-66l-152 271l-227 -271h-68l257 307h87zM1553.5 716.5q-19.5 -142.5 -76 -263t-134 -205t-174.5 -144t-199.5 -87.5t-206 -28t-197.5 28t-174 87.5t-134 144t-75.5 205t-2 263t75 263.5t134 205.5t174.5 144t198.5 87.5t206 28t198.5 -28t174.5 -87.5 t134 -144t76 -205.5t2 -263.5zM773 47q93 0 185.5 26t179.5 80.5t158 132.5t121.5 189t69 242t-1 242t-69 189t-121 132t-156.5 80t-178.5 26t-185.5 -26t-179 -80t-158 -132t-122 -189t-69.5 -242t1 -242t69 -189t121.5 -132.5t157 -80.5t178 -26z" glyph-name="Ocircumflex" horiz-adv-x="1689" unicode="Ô"/><glyph d="M714 1585q8 73 54.5 122t116.5 49q38 0 73.5 -20t59 -44t55.5 -44t61 -20q35 0 66 36.5t38 82.5h50q-11 -73 -59.5 -121t-113.5 -48q-29 0 -62.5 20t-58.5 43.5t-57 43t-57 19.5q-45 -1 -77.5 -36t-39.5 -84zM1553.5 716.5q-19.5 -142.5 -76 -263t-134 -205t-174.5 -144 t-199.5 -87.5t-206 -28t-197.5 28t-174 87.5t-134 144t-75.5 205t-2 263t75 263.5t134 205.5t174.5 144t198.5 87.5t206 28t198.5 -28t174.5 -87.5t134 -144t76 -205.5t2 -263.5zM773 47q93 0 185.5 26t179.5 80.5t158 132.5t121.5 189t69 242t-1 242t-69 189t-121 132 t-156.5 80t-178.5 26t-185.5 -26t-179 -80t-158 -132t-122 -189t-69.5 -242t1 -242t69 -189t121.5 -132.5t157 -80.5t178 -26z" glyph-name="Otilde" horiz-adv-x="1689" unicode="Õ"/><glyph d="M781 1682h105l-15 -98h-103zM1117 1682h104l-14 -98h-103zM1553.5 716.5q-19.5 -142.5 -76 -263t-134 -205t-174.5 -144t-199.5 -87.5t-206 -28t-197.5 28t-174 87.5t-134 144t-75.5 205t-2 263t75 263.5t134 205.5t174.5 144t198.5 87.5t206 28t198.5 -28t174.5 -87.5 t134 -144t76 -205.5t2 -263.5zM773 47q93 0 185.5 26t179.5 80.5t158 132.5t121.5 189t69 242t-1 242t-69 189t-121 132t-156.5 80t-178.5 26t-185.5 -26t-179 -80t-158 -132t-122 -189t-69.5 -242t1 -242t69 -189t121.5 -132.5t157 -80.5t178 -26z" glyph-name="Odieresis" horiz-adv-x="1689" unicode="Ö"/><glyph d="M830 442l-46 -39l-235 274l-311 -274l-34 39l311 275l-235 273l45 40l235 -274l313 274l34 -40l-312 -273z" glyph-name="multiply" horiz-adv-x="1067" unicode="×"/><glyph d="M1626 1354l-166 -147q135 -195 93 -490q-19 -142 -75.5 -263t-134 -205.5t-174.5 -144t-199.5 -87.5t-205.5 -28q-138 0 -259.5 51t-203.5 150l-166 -145l-31 35l168 147q-133 193 -92 490q19 142 75 263t134.5 205.5t174.5 144t198.5 87.5t206.5 28q137 0 258.5 -51 t204.5 -149l163 144zM247 717q-38 -266 78 -444l1054 926q-74 92 -184 139.5t-234 47.5q-93 0 -185.5 -26t-179.5 -80t-158 -132t-122 -189t-69 -242zM1487 717q38 268 -80 444l-1055 -925q75 -92 185.5 -140.5t235.5 -48.5q93 0 185.5 26t179.5 80.5t158 132.5t122 189 t69 242z" glyph-name="Oslash" horiz-adv-x="1689" unicode="Ø"/><glyph d="M605 1891h75l215 -307h-68zM1338 1434l-127 -906q-39 -285 -174 -412t-400 -127q-264 0 -363 127.5t-60 411.5l128 906h67l-128 -911q-35 -253 48 -364.5t317 -111.5q233 0 348 111.5t150 364.5l128 911h66z" glyph-name="Ugrave" horiz-adv-x="1435" unicode="Ù"/><glyph d="M1204 1891l-309 -307h-68l302 307h75zM1338 1434l-127 -906q-39 -285 -174 -412t-400 -127q-264 0 -363 127.5t-60 411.5l128 906h67l-128 -911q-35 -253 48 -364.5t317 -111.5q233 0 348 111.5t150 364.5l128 911h66z" glyph-name="Uacute" horiz-adv-x="1435" unicode="Ú"/><glyph d="M1117 1584h-66l-152 271l-227 -271h-68l257 307h87zM1338 1434l-127 -906q-39 -285 -174 -412t-400 -127q-264 0 -363 127.5t-60 411.5l128 906h67l-128 -911q-35 -253 48 -364.5t317 -111.5q233 0 348 111.5t150 364.5l128 911h66z" glyph-name="Ucircumflex" horiz-adv-x="1435" unicode="Û"/><glyph d="M654 1682h105l-15 -98h-103zM990 1682h104l-14 -98h-103zM1338 1434l-127 -906q-39 -285 -174 -412t-400 -127q-264 0 -363 127.5t-60 411.5l128 906h67l-128 -911q-35 -253 48 -364.5t317 -111.5q233 0 348 111.5t150 364.5l128 911h66z" glyph-name="Udieresis" horiz-adv-x="1435" unicode="Ü"/><glyph d="M1104 1891l-309 -307h-68l302 307h75zM1224 1434h75l-641 -821l-86 -613h-66l86 613l-412 821h76l378 -753z" glyph-name="Yacute" horiz-adv-x="1235" unicode="Ý"/><glyph d="M857 1156q202 0 305 -111t77 -304q-34 -244 -271.5 -353t-720.5 -110l-39 -278h-67l162 1156l39 278h67l-39 -278h487zM1171 741q24 170 -64 264t-260 94h-486l-106 -764q456 0 671 96.5t245 309.5z" glyph-name="Thorn" horiz-adv-x="1389" unicode="Þ"/><glyph d="M1087 400q-11 -83 -50.5 -151.5t-93.5 -113.5t-122 -76t-136.5 -45t-135.5 -14h-177l7 56h174q75 0 148 19.5t141 58.5t116.5 108t61.5 159q10 70 -7 129.5t-53 101.5t-86.5 71.5t-106.5 43.5t-115 14h-173l7 56h173q58 0 120 17.5t118 51t96.5 90.5t49.5 128 q8 56 -6 103.5t-43.5 80.5t-71 56t-88.5 34t-95 11q-146 0 -253.5 -73.5t-128.5 -212.5l-154 -1103h-65l155 1103q15 109 83 187.5t164 116t208 37.5q74 0 141.5 -22t121.5 -62.5t81 -107t16 -147.5q-15 -118 -96.5 -198t-194.5 -115q133 -40 211.5 -141t58.5 -251z" glyph-name="germandbls" horiz-adv-x="1267" unicode="ß"/><glyph d="M527 1581h75l215 -307h-67zM764 1135q76 0 134.5 -9t108.5 -29.5t81.5 -54t53 -83t23 -116t-7.5 -152.5l-97 -691h-64l25 183q-30 -32 -76 -63t-111.5 -62t-156 -50t-189.5 -19q-194 1 -282 76.5t-69 220.5q16 120 86 193.5t189 104t287 36.5t381 -12l14 94 q22 207 -52.5 290.5t-288.5 84.5q-93 1 -191 -22.5t-170 -62.5l9 63q70 37 167 58.5t196 21.5zM1031 257l41 294q-274 18 -461 10t-289.5 -72t-120.5 -197q-18 -130 61.5 -188t259.5 -58q168 0 303.5 65.5t205.5 145.5z" glyph-name="agrave" horiz-adv-x="1355" unicode="à"/><glyph d="M1126 1581l-309 -307h-67l302 307h74zM764 1135q76 0 134.5 -9t108.5 -29.5t81.5 -54t53 -83t23 -116t-7.5 -152.5l-97 -691h-64l25 183q-30 -32 -76 -63t-111.5 -62t-156 -50t-189.5 -19q-194 1 -282 76.5t-69 220.5q16 120 86 193.5t189 104t287 36.5t381 -12l14 94 q22 207 -52.5 290.5t-288.5 84.5q-93 1 -191 -22.5t-170 -62.5l9 63q70 37 167 58.5t196 21.5zM1031 257l41 294q-274 18 -461 10t-289.5 -72t-120.5 -197q-18 -130 61.5 -188t259.5 -58q168 0 303.5 65.5t205.5 145.5z" glyph-name="aacute" horiz-adv-x="1355" unicode="á"/><glyph d="M1038 1274h-66l-152 271l-227 -271h-68l257 307h87zM764 1135q76 0 134.5 -9t108.5 -29.5t81.5 -54t53 -83t23 -116t-7.5 -152.5l-97 -691h-64l25 183q-30 -32 -76 -63t-111.5 -62t-156 -50t-189.5 -19q-194 1 -282 76.5t-69 220.5q16 120 86 193.5t189 104t287 36.5 t381 -12l14 94q22 207 -52.5 290.5t-288.5 84.5q-93 1 -191 -22.5t-170 -62.5l9 63q70 37 167 58.5t196 21.5zM1031 257l41 294q-274 18 -461 10t-289.5 -72t-120.5 -197q-18 -130 61.5 -188t259.5 -58q168 0 303.5 65.5t205.5 145.5z" glyph-name="acircumflex" horiz-adv-x="1355" unicode="â"/><glyph d="M508 1275q8 73 54.5 122t116.5 49q38 0 73.5 -20t59.5 -44t55.5 -44t60.5 -20q35 0 66 36.5t38 82.5h50q-11 -73 -59.5 -121t-113.5 -48q-29 0 -62.5 20t-58.5 43.5t-57 43t-57 19.5q-45 -1 -77.5 -36t-39.5 -84zM764 1135q76 0 134.5 -9t108.5 -29.5t81.5 -54t53 -83 t23 -116t-7.5 -152.5l-97 -691h-64l25 183q-30 -32 -76 -63t-111.5 -62t-156 -50t-189.5 -19q-194 1 -282 76.5t-69 220.5q16 120 86 193.5t189 104t287 36.5t381 -12l14 94q22 207 -52.5 290.5t-288.5 84.5q-93 1 -191 -22.5t-170 -62.5l9 63q70 37 167 58.5t196 21.5z M1031 257l41 294q-274 18 -461 10t-289.5 -72t-120.5 -197q-18 -130 61.5 -188t259.5 -58q168 0 303.5 65.5t205.5 145.5z" glyph-name="atilde" horiz-adv-x="1355" unicode="ã"/><glyph d="M577 1372h104l-14 -98h-104zM912 1372h104l-14 -98h-103zM764 1135q76 0 134.5 -9t108.5 -29.5t81.5 -54t53 -83t23 -116t-7.5 -152.5l-97 -691h-64l25 183q-30 -32 -76 -63t-111.5 -62t-156 -50t-189.5 -19q-194 1 -282 76.5t-69 220.5q16 120 86 193.5t189 104 t287 36.5t381 -12l14 94q22 207 -52.5 290.5t-288.5 84.5q-93 1 -191 -22.5t-170 -62.5l9 63q70 37 167 58.5t196 21.5zM1031 257l41 294q-274 18 -461 10t-289.5 -72t-120.5 -197q-18 -130 61.5 -188t259.5 -58q168 0 303.5 65.5t205.5 145.5z" glyph-name="adieresis" horiz-adv-x="1355" unicode="ä"/><glyph d="M782 1274q-70 0 -112.5 50t-32.5 121q9 70 66.5 120t126.5 50q71 0 114 -50.5t34 -119.5q-11 -71 -68 -121t-128 -50zM791 1324q49 0 89.5 35.5t47.5 85.5q6 49 -24.5 84.5t-79.5 35.5q-50 0 -90.5 -35.5t-46.5 -84.5q-7 -50 23.5 -85.5t80.5 -35.5zM764 1135 q76 0 134.5 -9t108.5 -29.5t81.5 -54t53 -83t23 -116t-7.5 -152.5l-97 -691h-64l25 183q-30 -32 -76 -63t-111.5 -62t-156 -50t-189.5 -19q-194 1 -282 76.5t-69 220.5q16 120 86 193.5t189 104t287 36.5t381 -12l14 94q22 207 -52.5 290.5t-288.5 84.5q-93 1 -191 -22.5 t-170 -62.5l9 63q70 37 167 58.5t196 21.5zM1031 257l41 294q-274 18 -461 10t-289.5 -72t-120.5 -197q-18 -130 61.5 -188t259.5 -58q168 0 303.5 65.5t205.5 145.5z" glyph-name="aring" horiz-adv-x="1355" unicode="å"/><glyph d="M2122 553h-973q-13 -103 8.5 -190.5t66.5 -144.5t108.5 -97.5t132 -58.5t139.5 -18q184 0 335 84l-9 -61q-148 -78 -343 -78q-100 0 -195 32.5t-175 107t-114 179.5l-43 -308h-64l25 183q-30 -32 -76 -63t-111.5 -62t-156 -50t-189.5 -19q-194 1 -282 76.5t-69 220.5 q16 120 86 193.5t189 104t287 36.5t381 -12l14 94q22 207 -52.5 290.5t-288.5 84.5q-93 1 -191 -22.5t-170 -62.5l9 63q70 37 167 58.5t196 21.5q203 0 302 -72.5t100 -249.5q84 157 226.5 239.5t294.5 82.5q102 0 191.5 -36t157.5 -108t92.5 -182t-6.5 -256zM1680 1079 q-114 -1 -218 -50t-188.5 -158t-115.5 -262h913q18 96 2.5 172t-52 132.5t-92 93t-119 54.5t-130.5 18zM1031 257l41 294q-274 18 -461 10t-289.5 -72t-120.5 -197q-18 -130 61.5 -188t259.5 -58q168 0 303.5 65.5t205.5 145.5z" glyph-name="ae" horiz-adv-x="2302" unicode="æ"/><glyph d="M802 1076q-92 0 -182.5 -32t-169 -93t-135 -162t-73.5 -227q-18 -127 10 -228t89.5 -161.5t142.5 -93t173 -32.5q183 -1 337 84l-9 -64q-145 -75 -326 -78l-50 -47q6 1 34 1q45 0 72.5 -22t21.5 -68q-13 -94 -162 -95q-39 0 -87 8l8 46q33 -5 65 -6q114 0 120 47 q4 29 -18 38t-72 9q-28 0 -39 -1l5 40l56 51q-98 5 -182.5 43t-149.5 106t-94 177.5t-10 245.5q15 114 61 209.5t108.5 161.5t140 112.5t158.5 68t162 21.5q190 0 317 -77l-9 -66q-127 85 -313 84z" glyph-name="ccedilla" horiz-adv-x="1231" unicode="ç"/><glyph d="M831 1274h-67l-222 307h74zM1211 553h-971q-13 -103 7.5 -190.5t65.5 -144.5t108.5 -97.5t132.5 -58.5t139 -18q184 0 336 84l-9 -61q-147 -78 -342 -78q-79 0 -156 20.5t-147 66t-119.5 110.5t-72 162.5t-6.5 213.5q19 141 80 253.5t145 180.5t180 103.5t194 35.5 q102 0 192.5 -36t158.5 -108t91.5 -182t-7.5 -256zM770 1079q-84 0 -165.5 -29.5t-153 -85.5t-126 -147.5t-76.5 -207.5h911q22 115 -4.5 207.5t-86 148.5t-137 85t-162.5 29z" glyph-name="egrave" horiz-adv-x="1392" unicode="è"/><glyph d="M1141 1581l-310 -307h-67l302 307h75zM1211 553h-971q-13 -103 7.5 -190.5t65.5 -144.5t108.5 -97.5t132.5 -58.5t139 -18q184 0 336 84l-9 -61q-147 -78 -342 -78q-79 0 -156 20.5t-147 66t-119.5 110.5t-72 162.5t-6.5 213.5q19 141 80 253.5t145 180.5t180 103.5 t194 35.5q102 0 192.5 -36t158.5 -108t91.5 -182t-7.5 -256zM770 1079q-84 0 -165.5 -29.5t-153 -85.5t-126 -147.5t-76.5 -207.5h911q22 115 -4.5 207.5t-86 148.5t-137 85t-162.5 29z" glyph-name="eacute" horiz-adv-x="1392" unicode="é"/><glyph d="M836 1545l-228 -271h-67l257 307h87l169 -307h-67zM1211 553h-971q-13 -103 7.5 -190.5t65.5 -144.5t108.5 -97.5t132.5 -58.5t139 -18q184 0 336 84l-9 -61q-147 -78 -342 -78q-79 0 -156 20.5t-147 66t-119.5 110.5t-72 162.5t-6.5 213.5q19 141 80 253.5t145 180.5 t180 103.5t194 35.5q102 0 192.5 -36t158.5 -108t91.5 -182t-7.5 -256zM770 1079q-84 0 -165.5 -29.5t-153 -85.5t-126 -147.5t-76.5 -207.5h911q22 115 -4.5 207.5t-86 148.5t-137 85t-162.5 29z" glyph-name="ecircumflex" horiz-adv-x="1392" unicode="ê"/><glyph d="M695 1372l-14 -98h-103l13 98h104zM1030 1372l-13 -98h-104l14 98h103zM1211 553h-971q-13 -103 7.5 -190.5t65.5 -144.5t108.5 -97.5t132.5 -58.5t139 -18q184 0 336 84l-9 -61q-147 -78 -342 -78q-79 0 -156 20.5t-147 66t-119.5 110.5t-72 162.5t-6.5 213.5 q19 141 80 253.5t145 180.5t180 103.5t194 35.5q102 0 192.5 -36t158.5 -108t91.5 -182t-7.5 -256zM770 1079q-84 0 -165.5 -29.5t-153 -85.5t-126 -147.5t-76.5 -207.5h911q22 115 -4.5 207.5t-86 148.5t-137 85t-162.5 29z" glyph-name="edieresis" horiz-adv-x="1392" unicode="ë"/><glyph d="M93 1581h75l215 -307h-68zM296 1123h64l-157 -1123h-65z" glyph-name="igrave" horiz-adv-x="498" unicode="ì"/><glyph d="M692 1581l-309 -307h-68l302 307h75zM296 1123h64l-157 -1123h-65z" glyph-name="iacute" horiz-adv-x="498" unicode="í"/><glyph d="M605 1274h-66l-152 271l-227 -271h-68l257 307h87zM296 1123h64l-157 -1123h-65z" glyph-name="icircumflex" horiz-adv-x="498" unicode="î"/><glyph d="M142 1372h105l-15 -98h-103zM478 1372h104l-14 -98h-103zM296 1123h64l-157 -1123h-65z" glyph-name="idieresis" horiz-adv-x="498" unicode="ï"/><glyph d="M932 1185q211 -297 257 -373q74 -122 82 -209q4 -48 -6 -119q-13 -98 -57 -181t-105.5 -140t-138 -96.5t-157.5 -58t-162 -18.5q-102 0 -193.5 30t-162.5 89t-106 156t-17.5 219t77.5 218.5t145.5 153.5t181.5 87.5t194 31.5q155 3 278 -62l-182 257l-258 -48l6 50 l221 42l-155 220h82q62 -90 145 -206l323 60l-7 -50zM1200 484q15 104 -15 190t-92.5 138.5t-144 81.5t-171.5 29q-91 0 -178.5 -26.5t-165.5 -77t-132.5 -137.5t-70.5 -198q-12 -87 5.5 -160.5t57.5 -124.5t97 -86t124 -51.5t139 -16.5q92 0 181 27t165.5 79t131 138 t69.5 195z" glyph-name="eth" horiz-adv-x="1453" unicode="ð"/><glyph d="M542 1275q8 73 54.5 122t116.5 49q38 0 73.5 -20t59 -44t55.5 -44t61 -20q35 0 66 36.5t38 82.5h50q-11 -73 -59.5 -121t-113.5 -48q-29 0 -62.5 20t-58.5 43.5t-57 43t-57 19.5q-45 -1 -77.5 -36t-39.5 -84zM202 0h-64l158 1123h64l-41 -299q81 153 234.5 232t316.5 79 q90 0 161 -25.5t123.5 -78.5t73 -145.5t3.5 -218.5l-94 -667h-65l93 659q15 114 -2 197t-62.5 130.5t-108 69.5t-143.5 22q-89 0 -177 -28t-168 -84.5t-138.5 -151.5t-78.5 -217z" glyph-name="ntilde" horiz-adv-x="1432" unicode="ñ"/><glyph d="M571 1581h75l215 -307h-67zM1276 562q-16 -117 -62 -214t-109 -162.5t-140.5 -110.5t-158 -65.5t-161.5 -20.5t-154.5 20.5t-138.5 65.5t-109.5 110.5t-63 162.5t-2.5 214q16 114 61.5 209.5t108.5 161.5t140 112.5t158 68t162 21.5t155.5 -21.5t139.5 -68t109 -112.5 t62.5 -161.5t2.5 -209.5zM653 44q91 0 180.5 31t168 91.5t135.5 163t74 232.5q18 126 -9 227.5t-88.5 163.5t-142 94t-172.5 32q-91 0 -181 -32t-168 -94t-134.5 -163.5t-73.5 -227.5q-14 -104 1.5 -191.5t54 -147t95.5 -100.5t122.5 -60t137.5 -19z" glyph-name="ograve" horiz-adv-x="1453" unicode="ò"/><glyph d="M1170 1581l-309 -307h-67l302 307h74zM1276 562q-16 -117 -62 -214t-109 -162.5t-140.5 -110.5t-158 -65.5t-161.5 -20.5t-154.5 20.5t-138.5 65.5t-109.5 110.5t-63 162.5t-2.5 214q16 114 61.5 209.5t108.5 161.5t140 112.5t158 68t162 21.5t155.5 -21.5t139.5 -68 t109 -112.5t62.5 -161.5t2.5 -209.5zM653 44q91 0 180.5 31t168 91.5t135.5 163t74 232.5q18 126 -9 227.5t-88.5 163.5t-142 94t-172.5 32q-91 0 -181 -32t-168 -94t-134.5 -163.5t-73.5 -227.5q-14 -104 1.5 -191.5t54 -147t95.5 -100.5t122.5 -60t137.5 -19z" glyph-name="oacute" horiz-adv-x="1453" unicode="ó"/><glyph d="M1082 1274h-66l-152 271l-227 -271h-68l257 307h87zM1276 562q-16 -117 -62 -214t-109 -162.5t-140.5 -110.5t-158 -65.5t-161.5 -20.5t-154.5 20.5t-138.5 65.5t-109.5 110.5t-63 162.5t-2.5 214q16 114 61.5 209.5t108.5 161.5t140 112.5t158 68t162 21.5t155.5 -21.5 t139.5 -68t109 -112.5t62.5 -161.5t2.5 -209.5zM653 44q91 0 180.5 31t168 91.5t135.5 163t74 232.5q18 126 -9 227.5t-88.5 163.5t-142 94t-172.5 32q-91 0 -181 -32t-168 -94t-134.5 -163.5t-73.5 -227.5q-14 -104 1.5 -191.5t54 -147t95.5 -100.5t122.5 -60t137.5 -19z " glyph-name="ocircumflex" horiz-adv-x="1453" unicode="ô"/><glyph d="M552 1275q8 73 54.5 122t116.5 49q38 0 74 -20t59.5 -44t55 -44t60.5 -20q35 0 66 36.5t38 82.5h50q-11 -73 -59.5 -121t-113.5 -48q-29 0 -62.5 20t-58.5 43.5t-57 43t-57 19.5q-45 -1 -77.5 -36t-39.5 -84zM1276 562q-16 -117 -62 -214t-109 -162.5t-140.5 -110.5 t-158 -65.5t-161.5 -20.5t-154.5 20.5t-138.5 65.5t-109.5 110.5t-63 162.5t-2.5 214q16 114 61.5 209.5t108.5 161.5t140 112.5t158 68t162 21.5t155.5 -21.5t139.5 -68t109 -112.5t62.5 -161.5t2.5 -209.5zM653 44q91 0 180.5 31t168 91.5t135.5 163t74 232.5 q18 126 -9 227.5t-88.5 163.5t-142 94t-172.5 32q-91 0 -181 -32t-168 -94t-134.5 -163.5t-73.5 -227.5q-14 -104 1.5 -191.5t54 -147t95.5 -100.5t122.5 -60t137.5 -19z" glyph-name="otilde" horiz-adv-x="1453" unicode="õ"/><glyph d="M621 1372h104l-14 -98h-104zM956 1372h104l-13 -98h-104zM1276 562q-16 -117 -62 -214t-109 -162.5t-140.5 -110.5t-158 -65.5t-161.5 -20.5t-154.5 20.5t-138.5 65.5t-109.5 110.5t-63 162.5t-2.5 214q16 114 61.5 209.5t108.5 161.5t140 112.5t158 68t162 21.5 t155.5 -21.5t139.5 -68t109 -112.5t62.5 -161.5t2.5 -209.5zM653 44q91 0 180.5 31t168 91.5t135.5 163t74 232.5q18 126 -9 227.5t-88.5 163.5t-142 94t-172.5 32q-91 0 -181 -32t-168 -94t-134.5 -163.5t-73.5 -227.5q-14 -104 1.5 -191.5t54 -147t95.5 -100.5t122.5 -60 t137.5 -19z" glyph-name="odieresis" horiz-adv-x="1453" unicode="ö"/><glyph d="M656 1092h106l-14 -100h-105zM1068 689h-830l8 55h830zM565 441h106l-15 -99h-105z" glyph-name="divide" horiz-adv-x="1269" unicode="÷"/><glyph d="M1368 1096l-168 -148q110 -152 76 -386q-16 -117 -62 -214t-109 -162.5t-140.5 -110.5t-158 -65.5t-161.5 -20.5q-108 0 -204.5 38t-162.5 112l-165 -144l-28 33l166 145q-106 153 -74 389q16 114 61.5 209.5t108.5 161.5t140 112.5t158 68t162 21.5q108 0 204 -38.5 t163 -114.5l166 146zM242 562q-29 -210 59 -345l823 722q-58 69 -143.5 104.5t-181.5 35.5q-91 0 -181 -32t-168 -94t-134.5 -163.5t-73.5 -227.5zM1211 562q29 205 -60 343l-824 -722q58 -70 144 -104.5t182 -34.5q91 0 180.5 31t168 91.5t135.5 163t74 232.5z" glyph-name="oslash" horiz-adv-x="1453" unicode="ø"/><glyph d="M529 1581h75l215 -307h-67zM1231 1123h63l-157 -1123h-65l41 299q-81 -153 -234 -231.5t-317 -78.5q-90 0 -160.5 25t-123.5 78t-73.5 146t-2.5 219l94 666h64l-93 -659q-15 -114 2.5 -197t63 -130.5t108 -69.5t143.5 -22q89 0 177 28t168 84.5t138 151.5t79 217z" glyph-name="ugrave" horiz-adv-x="1433" unicode="ù"/><glyph d="M1128 1581l-309 -307h-67l302 307h74zM1231 1123h63l-157 -1123h-65l41 299q-81 -153 -234 -231.5t-317 -78.5q-90 0 -160.5 25t-123.5 78t-73.5 146t-2.5 219l94 666h64l-93 -659q-15 -114 2.5 -197t63 -130.5t108 -69.5t143.5 -22q89 0 177 28t168 84.5t138 151.5 t79 217z" glyph-name="uacute" horiz-adv-x="1433" unicode="ú"/><glyph d="M1041 1274h-66l-152 271l-227 -271h-68l257 307h87zM1231 1123h63l-157 -1123h-65l41 299q-81 -153 -234 -231.5t-317 -78.5q-90 0 -160.5 25t-123.5 78t-73.5 146t-2.5 219l94 666h64l-93 -659q-15 -114 2.5 -197t63 -130.5t108 -69.5t143.5 -22q89 0 177 28t168 84.5 t138 151.5t79 217z" glyph-name="ucircumflex" horiz-adv-x="1433" unicode="û"/><glyph d="M579 1372h104l-14 -98h-104zM914 1372h104l-13 -98h-104zM1231 1123h63l-157 -1123h-65l41 299q-81 -153 -234 -231.5t-317 -78.5q-90 0 -160.5 25t-123.5 78t-73.5 146t-2.5 219l94 666h64l-93 -659q-15 -114 2.5 -197t63 -130.5t108 -69.5t143.5 -22q89 0 177 28 t168 84.5t138 151.5t79 217z" glyph-name="udieresis" horiz-adv-x="1433" unicode="ü"/><glyph d="M1041 1581l-309 -307h-67l302 307h74zM1089 1123h69l-593 -1058q-35 -62 -65 -109.5t-80.5 -108.5t-103.5 -102t-127.5 -73t-156.5 -41l6 56q70 9 132 36.5t107 62.5t88.5 87t70.5 95t60 102l-299 1053h69l275 -981z" glyph-name="yacute" horiz-adv-x="1197" unicode="ý"/><glyph d="M836 1135q102 0 189 -35.5t152.5 -103.5t94 -180.5t8.5 -253.5t-80 -253.5t-144.5 -181t-182 -103.5t-199.5 -35q-154 0 -271.5 81t-154.5 234l-102 -717h-64l275 1949h65l-101 -717q53 103 139 176t181.5 106.5t194.5 33.5zM677 44q91 0 178 32.5t162 94t128 163 t70 228.5q15 105 1.5 189t-48.5 145t-89.5 102t-119 61t-137.5 20q-88 0 -173 -30.5t-159 -90t-128.5 -156t-74.5 -218.5l-5 -43q-14 -122 13 -219.5t84 -157t133.5 -90t164.5 -30.5z" glyph-name="thorn" horiz-adv-x="1457" unicode="þ"/><glyph d="M492 1372h104l-14 -98h-104zM827 1372h104l-13 -98h-104zM1089 1123h69l-593 -1058q-35 -62 -65 -109.5t-80.5 -108.5t-103.5 -102t-127.5 -73t-156.5 -41l6 56q70 9 132 36.5t107 62.5t88.5 87t70.5 95t60 102l-299 1053h69l275 -981z" glyph-name="ydieresis" horiz-adv-x="1197" unicode="ÿ"/><glyph d="M1067 1637l-8 -53h-470l7 53h471zM1155 0l-96 364h-810l-199 -364h-70l780 1434h87l380 -1434h-72zM281 422h762l-248 944z" glyph-name="Amacron" horiz-adv-x="1362" unicode="Ā"/><glyph d="M554 1327h471l-8 -53h-470zM764 1135q76 0 134.5 -9t108.5 -29.5t81.5 -54t53 -83t23 -116t-7.5 -152.5l-97 -691h-64l25 183q-30 -32 -76 -63t-111.5 -62t-156 -50t-189.5 -19q-194 1 -282 76.5t-69 220.5q16 120 86 193.5t189 104t287 36.5t381 -12l14 94 q22 207 -52.5 290.5t-288.5 84.5q-93 1 -191 -22.5t-170 -62.5l9 63q70 37 167 58.5t196 21.5zM1031 257l41 294q-274 18 -461 10t-289.5 -72t-120.5 -197q-18 -130 61.5 -188t259.5 -58q168 0 303.5 65.5t205.5 145.5z" glyph-name="amacron" horiz-adv-x="1355" unicode="ā"/><glyph d="M824 1584q-91 0 -147 64.5t-45 155.5h53q-9 -70 33.5 -119.5t113 -49.5t127.5 50t68 119h53q-14 -92 -89 -156t-167 -64zM1155 0l-96 364h-810l-199 -364h-70l780 1434h87l380 -1434h-72zM281 422h762l-248 944z" glyph-name="Abreve" horiz-adv-x="1362" unicode="Ă"/><glyph d="M1038 1494q-14 -92 -89 -156t-167 -64q-91 0 -147 64.5t-45 155.5h53q-9 -70 33.5 -119.5t113 -49.5t127.5 49.5t68 119.5h53zM764 1135q76 0 134.5 -9t108.5 -29.5t81.5 -54t53 -83t23 -116t-7.5 -152.5l-97 -691h-64l25 183q-30 -32 -76 -63t-111.5 -62t-156 -50 t-189.5 -19q-194 1 -282 76.5t-69 220.5q16 120 86 193.5t189 104t287 36.5t381 -12l14 94q22 207 -52.5 290.5t-288.5 84.5q-93 1 -191 -22.5t-170 -62.5l9 63q70 37 167 58.5t196 21.5zM1031 257l41 294q-274 18 -461 10t-289.5 -72t-120.5 -197q-18 -130 61.5 -188 t259.5 -58q168 0 303.5 65.5t205.5 145.5z" glyph-name="abreve" horiz-adv-x="1355" unicode="ă"/><glyph d="M1063 -137q-1 -41 51.5 -58.5t124.5 -1.5v-43q-101 -28 -168 1t-63 92q6 114 155 147h-8l-96 364h-810l-199 -364h-70l780 1434h87l380 -1434h-12q-89 -27 -120.5 -62t-31.5 -75zM281 422h762l-248 944z" glyph-name="Aogonek" horiz-adv-x="1362" unicode="Ą"/><glyph d="M1050 0q-87 -27 -118.5 -61.5t-31.5 -74.5q-1 -41 52 -58.5t124 -1.5v-43q-101 -28 -168 1t-63 92q6 113 151 146l25 183q-30 -32 -76 -63t-111.5 -62t-156 -50t-189.5 -19q-194 1 -282 76.5t-69 220.5q16 120 86 193.5t189 104t287 36.5t381 -12l14 94 q22 207 -52.5 290.5t-288.5 84.5q-93 1 -191 -22.5t-170 -62.5l9 63q70 37 167 58.5t196 21.5q76 0 134.5 -9t108.5 -29.5t81.5 -54t53 -83t23 -116t-7.5 -152.5l-97 -691h-10zM522 46q168 0 304 65.5t205 145.5l41 294q-274 18 -461 10t-289.5 -72t-120.5 -197 q-18 -130 61.5 -188t259.5 -58z" glyph-name="aogonek" horiz-adv-x="1355" unicode="ą"/><glyph d="M1327 1891l-309 -307h-68l302 307h75zM1305 1280q-147 106 -344 104q-93 0 -185 -26t-179.5 -80t-158.5 -131.5t-122 -188t-69.5 -241.5t1.5 -241.5t69.5 -188t121.5 -132t157 -80.5t177 -26q197 -2 374 105l-10 -69q-176 -96 -372 -96q-103 0 -198 28t-175 87.5 t-134 144t-75.5 205t-2 263t75 263.5t134 205.5t175.5 144t199 87.5t206 28q196 0 345 -96z" glyph-name="Cacute" horiz-adv-x="1423" unicode="Ć"/><glyph d="M1170 1581l-309 -307h-67l302 307h74zM1115 992q-127 85 -313 84q-92 0 -182.5 -32t-169 -93t-135 -162t-73.5 -227q-18 -127 10 -228t89.5 -161.5t142.5 -93t173 -32.5q183 -1 337 84l-9 -64q-148 -78 -340 -78q-81 0 -155.5 21.5t-139 67.5t-108.5 112t-62.5 162.5 t-2.5 209.5q15 114 61 209.5t108.5 161.5t140 112.5t158.5 68t162 21.5q190 0 317 -77z" glyph-name="cacute" horiz-adv-x="1231" unicode="ć"/><glyph d="M946 1682h105l-15 -98h-103zM1305 1280q-147 106 -344 104q-93 0 -185 -26t-179.5 -80t-158.5 -131.5t-122 -188t-69.5 -241.5t1.5 -241.5t69.5 -188t121.5 -132t157 -80.5t177 -26q197 -2 374 105l-10 -69q-176 -96 -372 -96q-103 0 -198 28t-175 87.5t-134 144 t-75.5 205t-2 263t75 263.5t134 205.5t175.5 144t199 87.5t206 28q196 0 345 -96z" glyph-name="Cdotaccent" horiz-adv-x="1423" unicode="Ċ"/><glyph d="M788 1372h105l-14 -98h-104zM1115 992q-127 85 -313 84q-92 0 -182.5 -32t-169 -93t-135 -162t-73.5 -227q-18 -127 10 -228t89.5 -161.5t142.5 -93t173 -32.5q183 -1 337 84l-9 -64q-148 -78 -340 -78q-81 0 -155.5 21.5t-139 67.5t-108.5 112t-62.5 162.5t-2.5 209.5 q15 114 61 209.5t108.5 161.5t140 112.5t158.5 68t162 21.5q190 0 317 -77z" glyph-name="cdotaccent" horiz-adv-x="1231" unicode="ċ"/><glyph d="M1218 1891h66l-257 -307h-87l-169 307h67l152 -270zM1305 1280q-147 106 -344 104q-93 0 -185 -26t-179.5 -80t-158.5 -131.5t-122 -188t-69.5 -241.5t1.5 -241.5t69.5 -188t121.5 -132t157 -80.5t177 -26q197 -2 374 105l-10 -69q-176 -96 -372 -96q-103 0 -198 28 t-175 87.5t-134 144t-75.5 205t-2 263t75 263.5t134 205.5t175.5 144t199 87.5t206 28q196 0 345 -96z" glyph-name="Ccaron" horiz-adv-x="1423" unicode="Č"/><glyph d="M1060 1581h66l-257 -307h-87l-169 307h67l153 -270zM1115 992q-127 85 -313 84q-92 0 -182.5 -32t-169 -93t-135 -162t-73.5 -227q-18 -127 10 -228t89.5 -161.5t142.5 -93t173 -32.5q183 -1 337 84l-9 -64q-148 -78 -340 -78q-81 0 -155.5 21.5t-139 67.5t-108.5 112 t-62.5 162.5t-2.5 209.5q15 114 61 209.5t108.5 161.5t140 112.5t158.5 68t162 21.5q190 0 317 -77z" glyph-name="ccaron" horiz-adv-x="1231" unicode="č"/><glyph d="M1139 1891h66l-257 -307h-87l-169 307h67l152 -270zM1391 717q-25 -179 -98 -318.5t-179 -225.5t-234.5 -129.5t-273.5 -43.5h-465l201 1434h465q115 0 212.5 -28t176 -83.5t128.5 -141t69.5 -201.5t-2.5 -263zM611 58q131 0 248 40.5t213 120t162 207t89 291.5 q24 164 -6.5 291.5t-104.5 206.5t-179 119.5t-236 40.5h-397l-185 -1317h396z" glyph-name="Dcaron" horiz-adv-x="1526" unicode="Ď"/><glyph d="M177 562q19 141 79.5 253.5t145 180.5t182 103.5t199.5 35.5q154 0 271 -78.5t156 -232.5l101 712h64l-216 -1536h-58l39 298q-55 -105 -143 -176.5t-181.5 -102t-193.5 -30.5q-101 0 -188.5 33.5t-153.5 100.5t-94.5 180.5t-8.5 258.5zM1690 1431h74l-137 -423h-52z M634 44q90 0 174 28.5t159 86.5t129 157t73 228l5 38q14 122 -12.5 218.5t-84 156.5t-134 91t-164.5 31q-73 0 -143 -19.5t-135.5 -61.5t-118 -101.5t-90.5 -145.5t-52 -189q-18 -131 6.5 -233t83 -163t136 -91.5t168.5 -30.5z" glyph-name="dcaron" horiz-adv-x="1859" unicode="ď"/><glyph d="M808 1434q144 0 260.5 -44t198.5 -129.5t115.5 -225t8.5 -318.5q-20 -144 -71.5 -263t-125.5 -202.5t-168 -140.5t-199 -84t-220 -27h-466l98 692h-162l7 49h161l97 693h466zM1324 717q24 164 -6.5 291.5t-104.5 206.5t-179 119.5t-236 40.5h-397l-89 -634h409l-7 -49 h-409l-89 -634h395q131 0 248 40.5t213 120t162 207t90 291.5z" glyph-name="Dcroat" horiz-adv-x="1526" unicode="Đ"/><glyph d="M1489 1353l-7 -50h-140l-183 -1303h-58l39 298q-55 -105 -143 -176.5t-181.5 -102t-193.5 -30.5q-101 0 -188.5 33.5t-153.5 100.5t-94.5 180.5t-8.5 258.5q19 141 79.5 253.5t145 180.5t182 103.5t199.5 35.5q154 0 271 -78.5t156 -232.5l68 479h-443l7 50h443l26 183 h64l-25 -183h139zM1174 582q14 122 -12.5 218.5t-84 156.5t-134 91t-164.5 31q-73 0 -143 -19.5t-135.5 -61.5t-118 -101.5t-90.5 -145.5t-52 -189q-18 -131 6.5 -233t83 -163t136 -91.5t168.5 -30.5q90 0 174 28.5t159 86.5t129 157t73 228z" glyph-name="dcroat" horiz-adv-x="1457" unicode="đ"/><glyph d="M617 1637h472l-9 -53h-470zM215 58h899l-8 -58h-965l201 1434h966l-9 -59h-899l-88 -630h816l-8 -57h-816z" glyph-name="Emacron" horiz-adv-x="1404" unicode="Ē"/><glyph d="M1040 1327l-8 -53h-470l7 53h471zM1211 553h-971q-13 -103 7.5 -190.5t65.5 -144.5t108.5 -97.5t132.5 -58.5t139 -18q184 0 336 84l-9 -61q-147 -78 -342 -78q-79 0 -156 20.5t-147 66t-119.5 110.5t-72 162.5t-6.5 213.5q19 141 80 253.5t145 180.5t180 103.5t194 35.5 q102 0 192.5 -36t158.5 -108t91.5 -182t-7.5 -256zM770 1079q-84 0 -165.5 -29.5t-153 -85.5t-126 -147.5t-76.5 -207.5h911q22 115 -4.5 207.5t-86 148.5t-137 85t-162.5 29z" glyph-name="emacron" horiz-adv-x="1392" unicode="ē"/><glyph d="M807 1682h104l-14 -98h-103zM215 58h899l-8 -58h-965l201 1434h966l-9 -59h-899l-88 -630h816l-8 -57h-816z" glyph-name="Edotaccent" horiz-adv-x="1404" unicode="Ė"/><glyph d="M864 1372l-14 -98h-104l14 98h104zM1211 553h-971q-13 -103 7.5 -190.5t65.5 -144.5t108.5 -97.5t132.5 -58.5t139 -18q184 0 336 84l-9 -61q-147 -78 -342 -78q-79 0 -156 20.5t-147 66t-119.5 110.5t-72 162.5t-6.5 213.5q19 141 80 253.5t145 180.5t180 103.5 t194 35.5q102 0 192.5 -36t158.5 -108t91.5 -182t-7.5 -256zM770 1079q-84 0 -165.5 -29.5t-153 -85.5t-126 -147.5t-76.5 -207.5h911q22 115 -4.5 207.5t-86 148.5t-137 85t-162.5 29z" glyph-name="edotaccent" horiz-adv-x="1392" unicode="ė"/><glyph d="M1299 1375h-899l-88 -630h816l-8 -57h-816l-89 -630h899l-8 -58h-456q-89 -27 -120.5 -62t-31.5 -75q-1 -41 51.5 -58.5t124.5 -1.5v-43q-101 -28 -168.5 1t-63.5 92q6 114 156 147h-457l201 1434h966z" glyph-name="Eogonek" horiz-adv-x="1404" unicode="Ę"/><glyph d="M1211 553h-971q-13 -103 7.5 -190.5t65.5 -144.5t108.5 -97.5t132.5 -58.5t139 -18q184 0 336 84l-9 -61q-147 -78 -342 -78h-8q-120 -45 -120 -126q-1 -41 51.5 -58.5t124.5 -1.5v-43q-101 -28 -168.5 1t-62.5 92q6 101 125 139q-75 7 -144 32t-130.5 72t-104 111 t-61 156t-3.5 199q19 141 80 253.5t145 180.5t180 103.5t194 35.5q102 0 192.5 -36t158.5 -108t91.5 -182t-7.5 -256zM770 1079q-84 0 -165.5 -29.5t-153 -85.5t-126 -147.5t-76.5 -207.5h911q22 115 -4.5 207.5t-86 148.5t-137 85t-162.5 29z" glyph-name="eogonek" horiz-adv-x="1392" unicode="ę"/><glyph d="M1079 1891h67l-257 -307h-87l-169 307h66l153 -270zM215 58h899l-8 -58h-965l201 1434h966l-9 -59h-899l-88 -630h816l-8 -57h-816z" glyph-name="Ecaron" horiz-adv-x="1404" unicode="Ě"/><glyph d="M841 1274h-87l-169 307h66l153 -270l227 270h67zM1211 553h-971q-13 -103 7.5 -190.5t65.5 -144.5t108.5 -97.5t132.5 -58.5t139 -18q184 0 336 84l-9 -61q-147 -78 -342 -78q-79 0 -156 20.5t-147 66t-119.5 110.5t-72 162.5t-6.5 213.5q19 141 80 253.5t145 180.5 t180 103.5t194 35.5q102 0 192.5 -36t158.5 -108t91.5 -182t-7.5 -256zM770 1079q-84 0 -165.5 -29.5t-153 -85.5t-126 -147.5t-76.5 -207.5h911q22 115 -4.5 207.5t-86 148.5t-137 85t-162.5 29z" glyph-name="ecaron" horiz-adv-x="1392" unicode="ě"/><glyph d="M1241 1804q-14 -92 -89 -156t-167 -64q-91 0 -147.5 64.5t-44.5 155.5h53q-9 -70 33.5 -119.5t113 -49.5t127.5 50t68 119h53zM861 752h449l-87 -617q-99 -70 -219.5 -108t-239.5 -38q-103 0 -197.5 28t-174.5 87.5t-134 144t-75.5 205t-2 263t75 263.5t134 205.5 t175.5 144t199 87.5t206 28q194 0 344 -96l-9 -67q-147 106 -344 104q-117 0 -232 -42t-215 -122.5t-172.5 -211t-95 -293.5t13 -293.5t113.5 -211t180.5 -123t219.5 -42.5q98 0 213.5 37t179.5 87l73 524h-386z" glyph-name="Gbreve" horiz-adv-x="1502" unicode="Ğ"/><glyph d="M1084 1494q-14 -92 -88.5 -156t-167.5 -64q-91 0 -147 64.5t-45 155.5h53q-9 -70 33.5 -119.5t113 -49.5t127.5 49.5t68 119.5h53zM1252 1123h64l-142 -1020q-16 -114 -59 -204t-101.5 -149t-133 -98t-152 -56t-161.5 -17q-189 0 -318 78l9 63q126 -84 315 -84 q75 0 143 15t134 49t117.5 85.5t89 131.5t51.5 181l28 203q-81 -153 -220 -230.5t-293 -77.5q-81 0 -154 22t-134 66.5t-101 112.5t-57 160t0 209q16 117 59.5 213t102 162t133 111t151.5 65.5t157 20.5q100 0 186 -31.5t152.5 -102.5t91.5 -175zM240 563q-17 -127 7 -228 t82 -162t136 -93.5t169 -32.5q88 0 173.5 31.5t160 90.5t128.5 156t73 219l5 37q13 104 -1.5 189t-51 141.5t-91 95.5t-117.5 55.5t-135 16.5q-73 0 -142 -19t-135 -59t-118 -99.5t-90.5 -147t-52.5 -191.5z" glyph-name="gbreve" horiz-adv-x="1455" unicode="ğ"/><glyph d="M947 1682h105l-15 -98h-103zM861 752h449l-87 -617q-99 -70 -219.5 -108t-239.5 -38q-103 0 -197.5 28t-174.5 87.5t-134 144t-75.5 205t-2 263t75 263.5t134 205.5t175.5 144t199 87.5t206 28q194 0 344 -96l-9 -67q-147 106 -344 104q-117 0 -232 -42t-215 -122.5 t-172.5 -211t-95 -293.5t13 -293.5t113.5 -211t180.5 -123t219.5 -42.5q98 0 213.5 37t179.5 87l73 524h-386z" glyph-name="Gdotaccent" horiz-adv-x="1502" unicode="Ġ"/><glyph d="M791 1372h104l-14 -98h-104zM1252 1123h64l-142 -1020q-16 -114 -59 -204t-101.5 -149t-133 -98t-152 -56t-161.5 -17q-189 0 -318 78l9 63q126 -84 315 -84q75 0 143 15t134 49t117.5 85.5t89 131.5t51.5 181l28 203q-81 -153 -220 -230.5t-293 -77.5q-81 0 -154 22 t-134 66.5t-101 112.5t-57 160t0 209q16 117 59.5 213t102 162t133 111t151.5 65.5t157 20.5q100 0 186 -31.5t152.5 -102.5t91.5 -175zM240 563q-17 -127 7 -228t82 -162t136 -93.5t169 -32.5q88 0 173.5 31.5t160 90.5t128.5 156t73 219l5 37q13 104 -1.5 189t-51 141.5 t-91 95.5t-117.5 55.5t-135 16.5q-73 0 -142 -19t-135 -59t-118 -99.5t-90.5 -147t-52.5 -191.5z" glyph-name="gdotaccent" horiz-adv-x="1455" unicode="ġ"/><glyph d="M861 752h449l-87 -617q-99 -70 -219.5 -108t-239.5 -38q-103 0 -197.5 28t-174.5 87.5t-134 144t-75.5 205t-2 263t75 263.5t134 205.5t175.5 144t199 87.5t206 28q194 0 344 -96l-9 -67q-147 106 -344 104q-117 0 -232 -42t-215 -122.5t-172.5 -211t-95 -293.5 t13 -293.5t113.5 -211t180.5 -123t219.5 -42.5q98 0 213.5 37t179.5 87l73 524h-386zM776 -101h73l-135 -418h-51z" glyph-name="Gcommaaccent" horiz-adv-x="1502" unicode="Ģ"/><glyph d="M865 1273h-72l134 418h51zM1252 1123h64l-142 -1020q-16 -114 -59 -204t-101.5 -149t-133 -98t-152 -56t-161.5 -17q-189 0 -318 78l9 63q126 -84 315 -84q75 0 143 15t134 49t117.5 85.5t89 131.5t51.5 181l28 203q-81 -153 -220 -230.5t-293 -77.5q-81 0 -154 22 t-134 66.5t-101 112.5t-57 160t0 209q16 117 59.5 213t102 162t133 111t151.5 65.5t157 20.5q100 0 186 -31.5t152.5 -102.5t91.5 -175zM240 563q-17 -127 7 -228t82 -162t136 -93.5t169 -32.5q88 0 173.5 31.5t160 90.5t128.5 156t73 219l5 37q13 104 -1.5 189t-51 141.5 t-91 95.5t-117.5 55.5t-135 16.5q-73 0 -142 -19t-135 -59t-118 -99.5t-90.5 -147t-52.5 -191.5z" glyph-name="gcommaaccent" horiz-adv-x="1455" unicode="ģ"/><glyph d="M1523 1158l-9 -50h-190l-155 -1108h-67l96 688h-894l-96 -688h-67l155 1108h-191l8 50h190l39 276h67l-39 -276h895l38 276h67l-39 -276h192zM1207 745l50 363h-893l-52 -363h895z" glyph-name="Hbar" horiz-adv-x="1467" unicode="Ħ"/><glyph d="M870 1135q90 0 161 -25.5t123.5 -78.5t73 -145.5t3.5 -218.5l-94 -667h-65l93 659q15 114 -2 197t-62.5 130.5t-108 69.5t-143.5 22q-89 0 -177 -28t-168 -84.5t-138.5 -151.5t-78.5 -217l-85 -597h-64l184 1303h-141l7 50h141l25 183h65l-26 -183h443l-8 -50h-442 l-67 -479q81 153 234 232t317 79z" glyph-name="hbar" horiz-adv-x="1432" unicode="ħ"/><glyph d="M122 1585q8 73 54.5 122t116.5 49q38 0 73.5 -20t59.5 -44t55.5 -44t60.5 -20q35 0 66 36.5t38 82.5h50q-11 -73 -59.5 -121t-113.5 -48q-29 0 -62.5 20t-58.5 43.5t-57 43t-57 19.5q-45 -1 -77.5 -36t-39.5 -84zM208 0h-67l201 1434h67z" glyph-name="Itilde" horiz-adv-x="505" unicode="Ĩ"/><glyph d="M75 1275q8 73 54.5 122t116.5 49q38 0 73.5 -20t59 -44t55.5 -44t61 -20q35 0 66 36.5t38 82.5h50q-11 -73 -59.5 -121t-113.5 -48q-29 0 -62.5 20t-58.5 43.5t-57 43t-57 19.5q-45 -1 -77.5 -36t-39.5 -84zM296 1123h64l-157 -1123h-65z" glyph-name="itilde" horiz-adv-x="498" unicode="ĩ"/><glyph d="M168 1637h471l-8 -53h-470zM208 0h-67l201 1434h67z" glyph-name="Imacron" horiz-adv-x="505" unicode="Ī"/><glyph d="M121 1327h471l-8 -53h-470zM296 1123h64l-157 -1123h-65z" glyph-name="imacron" horiz-adv-x="498" unicode="ī"/><glyph d="M48 -137q-1 -41 52 -58.5t124 -1.5v-43q-101 -28 -168 1t-63 92q6 114 155 147h-7l201 1434h67l-201 -1434h-7q-89 -27 -121 -62t-32 -75z" glyph-name="Iogonek" horiz-adv-x="505" unicode="Į"/><glyph d="M318 1434h111l-11 -78h-110zM200 0q-89 -27 -121 -62t-32 -75q-1 -41 52 -58.5t124 -1.5v-43q-101 -28 -168 1t-63 92q6 114 155 147h-6l157 1123h64l-156 -1123h-6z" glyph-name="iogonek" horiz-adv-x="503" unicode="į"/><glyph d="M357 1682h105l-15 -98h-103zM208 0h-67l201 1434h67z" glyph-name="Idotaccent" horiz-adv-x="505" unicode="İ"/><glyph d="M296 1123h64l-157 -1123h-65z" glyph-name="dotlessi" horiz-adv-x="498" unicode="ı"/><glyph d="M208 0h-67l201 1434h67zM593 85q89 -39 224 -37q273 1 324 367l143 1019h67l-144 -1020q-28 -205 -126 -315t-270 -110q-137 0 -227 34z" glyph-name="IJ" horiz-adv-x="1447" unicode="Ĳ"/><glyph d="M1291 1434l-896 -715l696 -719h-90l-693 716l-100 -716h-67l201 1434h67l-100 -712l893 712h89zM474 -519l114 418h72l-135 -418h-51z" glyph-name="Kcommaaccent" horiz-adv-x="1265" unicode="Ķ"/><glyph d="M1142 1123l-615 -497l458 -626h-78l-429 587l-218 -176l-57 -411h-65l216 1536h65l-148 -1048l787 635h84zM412 -519l113 418h73l-135 -418h-51z" glyph-name="kcommaaccent" horiz-adv-x="1181" unicode="ķ"/><glyph d="M1142 1123l-615 -497l458 -626h-78l-429 587l-218 -176l-57 -411h-65l158 1123h64l-89 -635l787 635h84z" glyph-name="kgreenlandic" horiz-adv-x="1181" unicode="ĸ"/><glyph d="M1168 1891l-309 -307h-67l302 307h74zM409 1434l-194 -1376h857l-7 -58h-924l201 1434h67z" glyph-name="Lacute" horiz-adv-x="1319" unicode="Ĺ"/><glyph d="M752 1994l-310 -307h-67l302 307h75zM354 1536h65l-216 -1536h-65z" glyph-name="lacute" horiz-adv-x="498" unicode="ĺ"/><glyph d="M409 1434l-194 -1376h857l-7 -58h-924l201 1434h67zM616 -101h73l-135 -418h-51z" glyph-name="Lcommaaccent" horiz-adv-x="1319" unicode="Ļ"/><glyph d="M354 1536h65l-216 -1536h-65zM184 -101h73l-135 -418h-51z" glyph-name="lcommaaccent" horiz-adv-x="498" unicode="ļ"/><glyph d="M409 1434l-194 -1376h857l-7 -58h-924l201 1434h67zM1013 1431h73l-136 -423h-52z" glyph-name="Lcaron" horiz-adv-x="1362" unicode="Ľ"/><glyph d="M354 1536h65l-216 -1536h-65zM743 1431h75l-137 -423h-52z" glyph-name="lcaron" horiz-adv-x="915" unicode="ľ"/><glyph d="M409 1434l-194 -1376h857l-7 -58h-924l201 1434h67zM1140 768h110l-15 -102h-110z" glyph-name="Ldot" horiz-adv-x="1440" unicode="Ŀ"/><glyph d="M354 1536h65l-216 -1536h-65zM419 819h110l-15 -102h-110z" glyph-name="ldot" horiz-adv-x="710" unicode="ŀ"/><glyph d="M215 58h857l-7 -58h-924l98 691l-137 -18l8 49l135 18l97 694h67l-97 -684l543 74l-7 -49l-543 -75z" glyph-name="Lslash" horiz-adv-x="1319" unicode="Ł"/><glyph d="M510 848l-7 -50l-194 -44l-106 -754h-65l105 739l-196 -44l7 50l195 45l105 746h65l-104 -732z" glyph-name="lslash" horiz-adv-x="498" unicode="ł"/><glyph d="M1260 1891l-310 -307h-67l302 307h75zM1381 1434h67l-201 -1434h-81l-770 1343l-188 -1343h-67l201 1434h81l771 -1343z" glyph-name="Nacute" horiz-adv-x="1546" unicode="Ń"/><glyph d="M1160 1581l-309 -307h-68l302 307h75zM202 0h-64l158 1123h64l-41 -299q81 153 234.5 232t316.5 79q90 0 161 -25.5t123.5 -78.5t73 -145.5t3.5 -218.5l-94 -667h-65l93 659q15 114 -2 197t-62.5 130.5t-108 69.5t-143.5 22q-89 0 -177 -28t-168 -84.5t-138.5 -151.5 t-78.5 -217z" glyph-name="nacute" horiz-adv-x="1432" unicode="ń"/><glyph d="M1381 1434h67l-201 -1434h-81l-770 1343l-188 -1343h-67l201 1434h81l771 -1343zM708 -101h72l-135 -418h-51z" glyph-name="Ncommaaccent" horiz-adv-x="1546" unicode="Ņ"/><glyph d="M202 0h-64l158 1123h64l-41 -299q81 153 234.5 232t316.5 79q90 0 161 -25.5t123.5 -78.5t73 -145.5t3.5 -218.5l-94 -667h-65l93 659q15 114 -2 197t-62.5 130.5t-108 69.5t-143.5 22q-89 0 -177 -28t-168 -84.5t-138.5 -151.5t-78.5 -217zM651 -101h73l-135 -418h-51z " glyph-name="ncommaaccent" horiz-adv-x="1432" unicode="ņ"/><glyph d="M1149 1891h66l-257 -307h-87l-169 307h67l153 -270zM1381 1434h67l-201 -1434h-81l-770 1343l-188 -1343h-67l201 1434h81l771 -1343z" glyph-name="Ncaron" horiz-adv-x="1546" unicode="Ň"/><glyph d="M1050 1581h66l-257 -307h-87l-169 307h67l152 -270zM202 0h-64l158 1123h64l-41 -299q81 153 234.5 232t316.5 79q90 0 161 -25.5t123.5 -78.5t73 -145.5t3.5 -218.5l-94 -667h-65l93 659q15 114 -2 197t-62.5 130.5t-108 69.5t-143.5 22q-89 0 -177 -28t-168 -84.5 t-138.5 -151.5t-78.5 -217z" glyph-name="ncaron" horiz-adv-x="1432" unicode="ň"/><glyph d="M412 1536h73l-136 -423h-52zM423 0h-64l158 1123h65l-41 -299q81 153 234 232t317 79q90 0 160.5 -25.5t123 -78.5t73 -145.5t3.5 -218.5l-94 -667h-65l93 659q15 114 -2 197t-62.5 130.5t-108 69.5t-143.5 22q-89 0 -177 -28t-168 -84.5t-138.5 -151.5t-78.5 -217z" glyph-name="napostrophe" horiz-adv-x="1653" unicode="ŉ"/><glyph d="M1448 1434l-201 -1434l-1 -4q-16 -120 -69 -172t-155 -52q-52 0 -94 11l13 45q37 -6 85 -5q80 1 112 43t45 134h-17l-770 1343l-188 -1343h-67l201 1434h81l771 -1343l187 1343h67z" glyph-name="Eng" horiz-adv-x="1546" unicode="Ŋ"/><glyph d="M870 1135q90 0 161 -25.5t123.5 -78.5t73 -145.5t3.5 -218.5l-94 -667l-1 -4q-16 -120 -69 -172t-156 -52q-52 0 -94 11l13 45q37 -6 85 -5q80 1 112.5 43t44.5 134l80 567l13 92q15 114 -2 197t-62.5 130.5t-108 69.5t-143.5 22q-89 0 -177 -28t-168 -84.5 t-138.5 -151.5t-78.5 -217l-85 -597h-64l158 1123h64l-41 -299q81 153 234 232t317 79z" glyph-name="eng" horiz-adv-x="1432" unicode="ŋ"/><glyph d="M760 1637h471l-8 -53h-470zM1553.5 716.5q-19.5 -142.5 -76 -263t-134 -205t-174.5 -144t-199.5 -87.5t-206 -28t-197.5 28t-174 87.5t-134 144t-75.5 205t-2 263t75 263.5t134 205.5t174.5 144t198.5 87.5t206 28t198.5 -28t174.5 -87.5t134 -144t76 -205.5t2 -263.5z M773 47q93 0 185.5 26t179.5 80.5t158 132.5t121.5 189t69 242t-1 242t-69 189t-121 132t-156.5 80t-178.5 26t-185.5 -26t-179 -80t-158 -132t-122 -189t-69.5 -242t1 -242t69 -189t121.5 -132.5t157 -80.5t178 -26z" glyph-name="Omacron" horiz-adv-x="1689" unicode="Ō"/><glyph d="M598 1327h471l-8 -53h-470zM1276 562q-16 -117 -62 -214t-109 -162.5t-140.5 -110.5t-158 -65.5t-161.5 -20.5t-154.5 20.5t-138.5 65.5t-109.5 110.5t-63 162.5t-2.5 214q16 114 61.5 209.5t108.5 161.5t140 112.5t158 68t162 21.5t155.5 -21.5t139.5 -68t109 -112.5 t62.5 -161.5t2.5 -209.5zM653 44q91 0 180.5 31t168 91.5t135.5 163t74 232.5q18 126 -9 227.5t-88.5 163.5t-142 94t-172.5 32q-91 0 -181 -32t-168 -94t-134.5 -163.5t-73.5 -227.5q-14 -104 1.5 -191.5t54 -147t95.5 -100.5t122.5 -60t137.5 -19z" glyph-name="omacron" horiz-adv-x="1453" unicode="ō"/><glyph d="M1057 1894l-209 -310h-58l204 310h63zM1232 1894l-208 -310h-59l204 310h63zM1553.5 716.5q-19.5 -142.5 -76 -263t-134 -205t-174.5 -144t-199.5 -87.5t-206 -28t-197.5 28t-174 87.5t-134 144t-75.5 205t-2 263t75 263.5t134 205.5t174.5 144t198.5 87.5t206 28 t198.5 -28t174.5 -87.5t134 -144t76 -205.5t2 -263.5zM773 47q93 0 185.5 26t179.5 80.5t158 132.5t121.5 189t69 242t-1 242t-69 189t-121 132t-156.5 80t-178.5 26t-185.5 -26t-179 -80t-158 -132t-122 -189t-69.5 -242t1 -242t69 -189t121.5 -132.5t157 -80.5t178 -26z " glyph-name="Ohungarumlaut" horiz-adv-x="1689" unicode="Ő"/><glyph d="M895 1584l-209 -310h-58l205 310h62zM1070 1584l-208 -310h-59l205 310h62zM1276 562q-16 -117 -62 -214t-109 -162.5t-140.5 -110.5t-158 -65.5t-161.5 -20.5t-154.5 20.5t-138.5 65.5t-109.5 110.5t-63 162.5t-2.5 214q16 114 61.5 209.5t108.5 161.5t140 112.5t158 68 t162 21.5t155.5 -21.5t139.5 -68t109 -112.5t62.5 -161.5t2.5 -209.5zM653 44q91 0 180.5 31t168 91.5t135.5 163t74 232.5q18 126 -9 227.5t-88.5 163.5t-142 94t-172.5 32q-91 0 -181 -32t-168 -94t-134.5 -163.5t-73.5 -227.5q-14 -104 1.5 -191.5t54 -147t95.5 -100.5 t122.5 -60t137.5 -19z" glyph-name="ohungarumlaut" horiz-adv-x="1453" unicode="ő"/><glyph d="M2545 1375h-898l-89 -630h816l-9 -57h-816l-89 -630h899l-7 -58h-966l54 381q-111 -189 -295 -290.5t-381 -101.5q-103 0 -197.5 28t-174.5 87.5t-134 144t-75.5 205t-2 263t75 263.5t134 205.5t174.5 144t198.5 87.5t206.5 28q128 0 239.5 -42t199 -132t126.5 -217 l53 380h966zM773 47q93 0 185.5 26t179.5 80.5t158 132.5t121.5 189t69 242t-1 242t-69 189t-121 132t-156.5 80t-178.5 26t-185.5 -26t-179 -80t-158 -132t-122 -189t-69.5 -242t1 -242t69 -189t121.5 -132.5t157 -80.5t178 -26z" glyph-name="OE" horiz-adv-x="2650" unicode="Œ"/><glyph d="M2253 553h-973q-13 -103 8 -190.5t66 -144.5t108.5 -97.5t132 -58.5t139.5 -18q185 0 337 84l-10 -61q-148 -78 -343 -78q-81 0 -159 22.5t-148 66t-121 117t-69 166.5q-42 -94 -108 -167t-143.5 -117t-159.5 -66t-165 -22q-81 0 -154.5 20.5t-138.5 65.5t-109.5 110.5 t-63 162.5t-2.5 214q16 114 61.5 209.5t108.5 161.5t140 112.5t158 68t162 21.5q82 0 157 -23t139 -67.5t109.5 -115.5t62.5 -162q52 120 143 205t192.5 124t207.5 39q102 0 191.5 -36t157.5 -108t92.5 -182t-6.5 -256zM653 44q91 0 180.5 31t168 91.5t135.5 163t74 232.5 q18 126 -9 227.5t-88.5 163.5t-142 94t-172.5 32q-91 0 -181 -32t-168 -94t-134.5 -163.5t-73.5 -227.5q-14 -104 1.5 -191.5t54 -147t95.5 -100.5t122.5 -60t137.5 -19zM1811 1079q-114 -1 -218 -50t-188.5 -158t-115.5 -262h912q18 96 3 172t-51.5 132.5t-92 93t-119 54.5 t-130.5 18z" glyph-name="oe" horiz-adv-x="2434" unicode="œ"/><glyph d="M1175 1891l-310 -307h-67l302 307h75zM895 1434q203 0 306.5 -111.5t75.5 -303.5q-20 -157 -125 -257t-302 -151l289 -611h-74l-282 596q-201 -41 -497 -41l-78 -555h-67l201 1434h553zM1210 1019q25 170 -63 263.5t-261 93.5h-485l-107 -764q459 0 672.5 96.5 t243.5 310.5z" glyph-name="Racute" horiz-adv-x="1376" unicode="Ŕ"/><glyph d="M896 1581l-309 -307h-68l302 307h75zM202 0h-64l158 1123h63l-41 -299q55 102 148.5 174.5t195 104.5t205.5 32l-8 -57q-72 0 -143.5 -17t-142 -55t-128 -93t-100 -136.5t-58.5 -179.5z" glyph-name="racute" horiz-adv-x="903" unicode="ŕ"/><glyph d="M895 1434q203 0 306.5 -111.5t75.5 -303.5q-20 -157 -125 -257t-302 -151l289 -611h-74l-282 596q-201 -41 -497 -41l-78 -555h-67l201 1434h553zM1210 1019q25 170 -63 263.5t-261 93.5h-485l-107 -764q459 0 672.5 96.5t243.5 310.5zM509 -519l114 418h72l-135 -418 h-51z" glyph-name="Rcommaaccent" horiz-adv-x="1376" unicode="Ŗ"/><glyph d="M202 0h-64l158 1123h63l-41 -299q55 102 148.5 174.5t195 104.5t205.5 32l-8 -57q-72 0 -143.5 -17t-142 -55t-128 -93t-100 -136.5t-58.5 -179.5zM387 -101h73l-135 -418h-52z" glyph-name="rcommaaccent" horiz-adv-x="903" unicode="ŗ"/><glyph d="M874 1584h-87l-169 307h67l153 -270l227 270h67zM895 1434q203 0 306.5 -111.5t75.5 -303.5q-20 -157 -125 -257t-302 -151l289 -611h-74l-282 596q-201 -41 -497 -41l-78 -555h-67l201 1434h553zM1210 1019q25 170 -63 263.5t-261 93.5h-485l-107 -764q459 0 672.5 96.5 t243.5 310.5z" glyph-name="Rcaron" horiz-adv-x="1376" unicode="Ř"/><glyph d="M786 1581h67l-257 -307h-87l-169 307h67l152 -270zM202 0h-64l158 1123h63l-41 -299q55 102 148.5 174.5t195 104.5t205.5 32l-8 -57q-72 0 -143.5 -17t-142 -55t-128 -93t-100 -136.5t-58.5 -179.5z" glyph-name="rcaron" horiz-adv-x="903" unicode="ř"/><glyph d="M1128 1891l-309 -307h-67l302 307h74zM108 184q156 -136 436 -136q114 0 226.5 38.5t192 108.5t93.5 153q22 139 -84 216q-72 52 -264 109q-18 5 -101 28q-98 28 -167 59t-124 74t-76.5 100t-10.5 130q28 173 175 277t383 104q198 0 347 -98l-11 -69q-146 109 -345 108 q-206 0 -333.5 -88.5t-149.5 -235.5q-7 -45 2 -83.5t38 -68.5t61.5 -53t88.5 -45t102.5 -37.5t118.5 -36.5q96 -28 160.5 -51t122.5 -56.5t88 -72t43 -91.5t1 -122q-16 -101 -108 -184.5t-219.5 -127t-257.5 -43.5q-282 0 -440 123z" glyph-name="Sacute" horiz-adv-x="1309" unicode="Ś"/><glyph d="M1035 1581l-309 -307h-68l303 307h74zM119 132q72 -40 173 -63t205 -23q140 -1 254 63t129 161q7 48 -8 86t-38.5 62.5t-78.5 49t-98 37.5t-127 36q-165 43 -244.5 117t-63.5 191q19 133 140 209.5t312.5 76.5t319.5 -79l-9 -65q-129 86 -315 87q-163 0 -265 -60 t-117 -170q-8 -52 10 -92.5t64 -72t104 -54.5t145 -47q78 -22 129.5 -40.5t97.5 -44.5t70 -56t34 -72t3 -97q-12 -81 -81 -147t-168 -101t-202 -35q-110 0 -213.5 21.5t-170.5 57.5z" glyph-name="sacute" horiz-adv-x="1162" unicode="ś"/><glyph d="M706 738q96 -28 160.5 -51t122.5 -56.5t88 -72t43 -91.5t1 -122q-16 -97 -101.5 -178t-205 -125.5t-245.5 -50.5l-52 -49q6 1 34 1q45 0 72.5 -22t21.5 -68q-13 -94 -162 -95q-39 0 -87 8l7 46q33 -5 66 -6q114 0 120 47q4 29 -18 38t-72 9q-28 0 -39 -1l5 40l56 51 q-271 3 -425 123l12 71q156 -136 436 -136q114 0 226.5 38.5t192 108.5t93.5 153q22 139 -84 216q-72 52 -264 109q-18 5 -101 28q-98 28 -167 59t-124 74t-76.5 100t-10.5 130q28 173 175 277t383 104q198 0 347 -98l-11 -69q-146 109 -345 108q-206 0 -333.5 -88.5 t-149.5 -235.5q-7 -45 2 -83.5t38 -68.5t61.5 -53t88.5 -45t102.5 -38t118.5 -36z" glyph-name="Scedilla" horiz-adv-x="1309" unicode="Ş"/><glyph d="M670 1078q-163 0 -265 -60t-117 -170q-8 -52 10 -92.5t64 -72t104 -54.5t145 -47q78 -22 129.5 -40.5t97.5 -44.5t70 -56t34 -72t3 -97q-17 -118 -147.5 -198t-288.5 -85l-50 -47q6 1 34 1q45 0 72.5 -22t21.5 -68q-13 -94 -162 -95q-39 0 -87 8l7 46q33 -5 66 -6 q114 0 119 47q4 29 -18 38t-72 9q-28 0 -39 -1l6 40l55 50q-217 6 -352 79l9 64q72 -40 173 -63t205 -23q140 -1 254 63t129 161q7 48 -8 86t-38.5 62.5t-78.5 49t-98 37.5t-127 36q-165 43 -244.5 117t-63.5 191q19 133 140 209.5t312.5 76.5t319.5 -79l-9 -65 q-129 86 -315 87z" glyph-name="scedilla" horiz-adv-x="1162" unicode="ş"/><glyph d="M1019 1891h66l-257 -307h-87l-169 307h67l153 -270zM108 184q156 -136 436 -136q114 0 226.5 38.5t192 108.5t93.5 153q22 139 -84 216q-72 52 -264 109q-18 5 -101 28q-98 28 -167 59t-124 74t-76.5 100t-10.5 130q28 173 175 277t383 104q198 0 347 -98l-11 -69 q-146 109 -345 108q-206 0 -333.5 -88.5t-149.5 -235.5q-7 -45 2 -83.5t38 -68.5t61.5 -53t88.5 -45t102.5 -37.5t118.5 -36.5q96 -28 160.5 -51t122.5 -56.5t88 -72t43 -91.5t1 -122q-16 -101 -108 -184.5t-219.5 -127t-257.5 -43.5q-282 0 -440 123z" glyph-name="Scaron" horiz-adv-x="1309" unicode="Š"/><glyph d="M926 1581h66l-257 -307h-87l-169 307h67l152 -270zM119 132q72 -40 173 -63t205 -23q140 -1 254 63t129 161q7 48 -8 86t-38.5 62.5t-78.5 49t-98 37.5t-127 36q-165 43 -244.5 117t-63.5 191q19 133 140 209.5t312.5 76.5t319.5 -79l-9 -65q-129 86 -315 87 q-163 0 -265 -60t-117 -170q-8 -52 10 -92.5t64 -72t104 -54.5t145 -47q78 -22 129.5 -40.5t97.5 -44.5t70 -56t34 -72t3 -97q-12 -81 -81 -147t-168 -101t-202 -35q-110 0 -213.5 21.5t-170.5 57.5z" glyph-name="scaron" horiz-adv-x="1162" unicode="š"/><glyph d="M507 0h-10l-63 -58q6 1 34 1q45 0 72.5 -22t21.5 -68q-13 -94 -162 -95q-39 0 -87 8l8 46q33 -5 65 -6q114 0 120 47q4 29 -18 38t-72 9q-28 0 -39 -1l5 40l68 61h-10l193 1375h-460l7 59h987l-7 -59h-461z" glyph-name="Tcommaaccent" horiz-adv-x="1103" unicode="Ţ"/><glyph d="M494 1068l-118 -838q-11 -80 19.5 -128t89.5 -48h210l-7 -54h-202l-62 -58q6 1 34 1q45 0 72.5 -22t21.5 -68q-13 -94 -162 -95q-39 0 -87 8l7 46q33 -5 66 -6q114 0 120 47q4 29 -18 38t-72 9q-28 0 -39 -1l5 40l67 61h19q-85 0 -123.5 60t-24.5 162l119 846h-181l8 55 h180l32 225h64l-31 -225h344l-7 -55h-344z" glyph-name="tcommaaccent" horiz-adv-x="984" unicode="ţ"/><glyph d="M738 1584h-87l-169 307h67l152 -270l228 270h66zM1167 1434l-7 -59h-461l-192 -1375h-67l193 1375h-460l7 59h987z" glyph-name="Tcaron" horiz-adv-x="1103" unicode="Ť"/><glyph d="M1077 1431h75l-137 -423h-51zM688 0h-230q-85 0 -123.5 60t-24.5 162l119 846h-181l8 55h180l32 225h64l-31 -225h344l-7 -55h-344l-118 -838q-11 -80 19.5 -128t89.5 -48h210z" glyph-name="tcaron" horiz-adv-x="1249" unicode="ť"/><glyph d="M1160 1375h-461l-85 -609h432l-7 -50h-432l-100 -716h-67l101 716h-429l7 50h429l85 609h-460l7 59h987z" glyph-name="Tbar" horiz-adv-x="1103" unicode="Ŧ"/><glyph d="M838 1068h-344l-28 -197h344l-7 -50h-344l-83 -591q-11 -80 19.5 -128t89.5 -48h210l-7 -54h-230q-85 0 -123.5 60t-24.5 162l84 599h-181l7 50h181l28 197h-181l8 55h180l32 225h64l-31 -225h344z" glyph-name="tbar" horiz-adv-x="984" unicode="ŧ"/><glyph d="M587 1585q8 73 54.5 122t116.5 49q38 0 73.5 -20t59 -44t55.5 -44t61 -20q35 0 66 36.5t38 82.5h50q-11 -73 -59.5 -121t-113.5 -48q-29 0 -62.5 20t-58.5 43.5t-57 43t-57 19.5q-45 -1 -77.5 -36t-39.5 -84zM1338 1434l-127 -906q-39 -285 -174 -412t-400 -127 q-264 0 -363 127.5t-60 411.5l128 906h67l-128 -911q-35 -253 48 -364.5t317 -111.5q233 0 348 111.5t150 364.5l128 911h66z" glyph-name="Utilde" horiz-adv-x="1435" unicode="Ũ"/><glyph d="M511 1275q8 73 54.5 122t116.5 49q38 0 74 -20t59.5 -44t55 -44t60.5 -20q35 0 66 36.5t38 82.5h50q-11 -73 -59.5 -121t-113.5 -48q-29 0 -62.5 20t-58.5 43.5t-57 43t-57 19.5q-45 -1 -77.5 -36t-39.5 -84zM1231 1123h63l-157 -1123h-65l41 299q-81 -153 -234 -231.5 t-317 -78.5q-90 0 -160.5 25t-123.5 78t-73.5 146t-2.5 219l94 666h64l-93 -659q-15 -114 2.5 -197t63 -130.5t108 -69.5t143.5 -22q89 0 177 28t168 84.5t138 151.5t79 217z" glyph-name="utilde" horiz-adv-x="1433" unicode="ũ"/><glyph d="M633 1637h471l-8 -53h-470zM1338 1434l-127 -906q-39 -285 -174 -412t-400 -127q-264 0 -363 127.5t-60 411.5l128 906h67l-128 -911q-35 -253 48 -364.5t317 -111.5q233 0 348 111.5t150 364.5l128 911h66z" glyph-name="Umacron" horiz-adv-x="1435" unicode="Ū"/><glyph d="M557 1327h471l-8 -53h-470zM1231 1123h63l-157 -1123h-65l41 299q-81 -153 -234 -231.5t-317 -78.5q-90 0 -160.5 25t-123.5 78t-73.5 146t-2.5 219l94 666h64l-93 -659q-15 -114 2.5 -197t63 -130.5t108 -69.5t143.5 -22q89 0 177 28t168 84.5t138 151.5t79 217z" glyph-name="umacron" horiz-adv-x="1433" unicode="ū"/><glyph d="M861 1584q-70 0 -112.5 50t-32.5 121q9 70 66.5 120t126.5 50q71 0 114 -50t34 -120q-11 -71 -68 -121t-128 -50zM869 1634q49 0 89.5 35.5t48.5 85.5q6 49 -24.5 84.5t-79.5 35.5q-50 0 -90.5 -35.5t-46.5 -84.5q-7 -50 23 -85.5t80 -35.5zM1338 1434l-127 -906 q-39 -285 -174 -412t-400 -127q-264 0 -363 127.5t-60 411.5l128 906h67l-128 -911q-35 -253 48 -364.5t317 -111.5q233 0 348 111.5t150 364.5l128 911h66z" glyph-name="Uring" horiz-adv-x="1435" unicode="Ů"/><glyph d="M784 1274q-70 0 -112.5 50t-32.5 121q9 70 66.5 120t127.5 50q71 0 113.5 -50.5t33.5 -119.5q-11 -71 -68 -121t-128 -50zM793 1324q49 0 89.5 35.5t47.5 85.5q6 49 -24 84.5t-80 35.5t-90.5 -35.5t-46.5 -84.5q-7 -50 23.5 -85.5t80.5 -35.5zM1231 1123h63l-157 -1123 h-65l41 299q-81 -153 -234 -231.5t-317 -78.5q-90 0 -160.5 25t-123.5 78t-73.5 146t-2.5 219l94 666h64l-93 -659q-15 -114 2.5 -197t63 -130.5t108 -69.5t143.5 -22q89 0 177 28t168 84.5t138 151.5t79 217z" glyph-name="uring" horiz-adv-x="1433" unicode="ů"/><glyph d="M930 1894l-209 -310h-58l204 310h63zM1105 1894l-208 -310h-59l204 310h63zM1338 1434l-127 -906q-39 -285 -174 -412t-400 -127q-264 0 -363 127.5t-60 411.5l128 906h67l-128 -911q-35 -253 48 -364.5t317 -111.5q233 0 348 111.5t150 364.5l128 911h66z" glyph-name="Uhungarumlaut" horiz-adv-x="1435" unicode="Ű"/><glyph d="M854 1584l-209 -310h-58l205 310h62zM1029 1584l-208 -310h-59l205 310h62zM1231 1123h63l-157 -1123h-65l41 299q-81 -153 -234 -231.5t-317 -78.5q-90 0 -160.5 25t-123.5 78t-73.5 146t-2.5 219l94 666h64l-93 -659q-15 -114 2.5 -197t63 -130.5t108 -69.5t143.5 -22 q89 0 177 28t168 84.5t138 151.5t79 217z" glyph-name="uhungarumlaut" horiz-adv-x="1433" unicode="ű"/><glyph d="M1272 1434h66l-127 -906q-39 -285 -174 -412t-400 -127h-5q-119 -46 -119 -126q-1 -41 51.5 -58.5t124.5 -1.5v-43q-101 -28 -168 1t-63 92q6 99 121 138q-230 13 -316 141t-49 396l128 906h67l-128 -911q-35 -253 48 -364.5t317 -111.5q233 0 348 111.5t150 364.5z" glyph-name="Uogonek" horiz-adv-x="1435" unicode="Ų"/><glyph d="M980 -137q-1 -41 51.5 -58.5t124.5 -1.5v-43q-101 -28 -168 1t-63 92q6 114 155 147h-8l41 299q-81 -153 -234 -231.5t-317 -78.5q-90 0 -160.5 25t-123.5 78t-73.5 146t-2.5 219l94 666h64l-93 -659q-15 -114 2.5 -197t63 -130.5t108 -69.5t143.5 -22q89 0 177 28 t168 84.5t138 151.5t79 217l85 597h63l-157 -1123h-4q-89 -27 -121 -62t-32 -75z" glyph-name="uogonek" horiz-adv-x="1433" unicode="ų"/><glyph d="M1342 1584h-66l-152 271l-227 -271h-68l257 307h88zM1880 1434h70l-619 -1434h-79l-201 1332l-575 -1332h-79l-217 1434h71l200 -1340l577 1340h74l202 -1340z" glyph-name="Wcircumflex" horiz-adv-x="1886" unicode="Ŵ"/><glyph d="M1200 1274h-66l-152 271l-227 -271h-68l257 307h87zM1579 1123h71l-498 -1123h-78l-164 1028l-454 -1028h-78l-181 1123h70l162 -1051l459 1051h70l162 -1051z" glyph-name="wcircumflex" horiz-adv-x="1688" unicode="ŵ"/><glyph d="M1017 1584h-67l-151 271l-228 -271h-67l257 307h87zM1224 1434h75l-641 -821l-86 -613h-66l86 613l-412 821h76l378 -753z" glyph-name="Ycircumflex" horiz-adv-x="1235" unicode="Ŷ"/><glyph d="M954 1274h-66l-152 271l-227 -271h-68l257 307h87zM1089 1123h69l-593 -1058q-35 -62 -65 -109.5t-80.5 -108.5t-103.5 -102t-127.5 -73t-156.5 -41l6 56q70 9 132 36.5t107 62.5t88.5 87t70.5 95t60 102l-299 1053h69l275 -981z" glyph-name="ycircumflex" horiz-adv-x="1197" unicode="ŷ"/><glyph d="M554 1682h104l-14 -98h-103zM890 1682h103l-13 -98h-103zM1224 1434h75l-641 -821l-86 -613h-66l86 613l-412 821h76l378 -753z" glyph-name="Ydieresis" horiz-adv-x="1235" unicode="Ÿ"/><glyph d="M1204 1891l-309 -307h-68l302 307h75zM1338 1434l-7 -59l-1101 -1317h915l-7 -58h-997l7 58l1100 1317h-914l8 59h996z" glyph-name="Zacute" horiz-adv-x="1435" unicode="Ź"/><glyph d="M1075 1581l-309 -307h-68l302 307h75zM1166 1123l-7 -55l-972 -1012h829l-7 -56h-911l7 56l972 1012h-829l8 55h910z" glyph-name="zacute" horiz-adv-x="1264" unicode="ź"/><glyph d="M928 1682l-15 -98h-103l13 98h105zM1338 1434l-7 -59l-1101 -1317h915l-7 -58h-997l7 58l1100 1317h-914l8 59h996z" glyph-name="Zdotaccent" horiz-adv-x="1435" unicode="Ż"/><glyph d="M798 1372l-15 -98h-103l13 98h105zM1166 1123l-7 -55l-972 -1012h829l-7 -56h-911l7 56l972 1012h-829l8 55h910z" glyph-name="zdotaccent" horiz-adv-x="1264" unicode="ż"/><glyph d="M904 1584h-87l-169 307h67l152 -270l228 270h66zM1338 1434l-7 -59l-1101 -1317h915l-7 -58h-997l7 58l1100 1317h-914l8 59h996z" glyph-name="Zcaron" horiz-adv-x="1435" unicode="Ž"/><glyph d="M775 1274h-87l-169 307h67l152 -270l228 270h66zM1166 1123l-7 -55l-972 -1012h829l-7 -56h-911l7 56l972 1012h-829l8 55h910z" glyph-name="zcaron" horiz-adv-x="1264" unicode="ž"/><glyph d="M1022 1328q53 -1 93 -12l-22 -45q-37 6 -85 5q-80 -1 -121.5 -43t-73.5 -134l-180 -513h319l-7 -50h-330l-181 -519q-42 -120 -105.5 -172t-165.5 -52q-44 0 -93 11l23 45q44 -6 84 -4q80 1 121.5 42.5t73.5 134.5l180 514h-268l7 50h278l182 517q43 121 106 173t165 52z " glyph-name="florin" horiz-adv-x="1184" unicode="ƒ"/><glyph d="M505 766l-6 -50h-191l-100 -716h-67l101 716h-191l6 50h192l93 668h67l-94 -668h190z" glyph-name="uni0197" horiz-adv-x="505" unicode="Ɨ"/><glyph d="M867 1584h-87l-169 307h67l152 -270l228 270h66zM1155 0l-96 364h-810l-199 -364h-70l780 1434h87l380 -1434h-72zM281 422h762l-248 944z" glyph-name="uni01CD" horiz-adv-x="1362" unicode="Ǎ"/><glyph d="M1016 1581h66l-257 -307h-87l-169 307h67l152 -270zM764 1135q76 0 134.5 -9t108.5 -29.5t81.5 -54t53 -83t23 -116t-7.5 -152.5l-97 -691h-64l25 183q-30 -32 -76 -63t-111.5 -62t-156 -50t-189.5 -19q-194 1 -282 76.5t-69 220.5q16 120 86 193.5t189 104t287 36.5 t381 -12l14 94q22 207 -52.5 290.5t-288.5 84.5q-93 1 -191 -22.5t-170 -62.5l9 63q70 37 167 58.5t196 21.5zM1031 257l41 294q-274 18 -461 10t-289.5 -72t-120.5 -197q-18 -130 61.5 -188t259.5 -58q168 0 303.5 65.5t205.5 145.5z" glyph-name="uni01CE" horiz-adv-x="1355" unicode="ǎ"/><glyph d="M630 1891h66l-257 -307h-87l-169 307h67l152 -270zM208 0h-67l201 1434h67z" glyph-name="uni01CF" horiz-adv-x="505" unicode="Ǐ"/><glyph d="M583 1581h66l-257 -307h-87l-169 307h67l152 -270zM296 1123h64l-157 -1123h-65z" glyph-name="uni01D0" horiz-adv-x="498" unicode="ǐ"/><glyph d="M1222 1891h66l-257 -307h-87l-169 307h67l152 -270zM1553.5 716.5q-19.5 -142.5 -76 -263t-134 -205t-174.5 -144t-199.5 -87.5t-206 -28t-197.5 28t-174 87.5t-134 144t-75.5 205t-2 263t75 263.5t134 205.5t174.5 144t198.5 87.5t206 28t198.5 -28t174.5 -87.5 t134 -144t76 -205.5t2 -263.5zM773 47q93 0 185.5 26t179.5 80.5t158 132.5t121.5 189t69 242t-1 242t-69 189t-121 132t-156.5 80t-178.5 26t-185.5 -26t-179 -80t-158 -132t-122 -189t-69.5 -242t1 -242t69 -189t121.5 -132.5t157 -80.5t178 -26z" glyph-name="uni01D1" horiz-adv-x="1689" unicode="Ǒ"/><glyph d="M1060 1581h66l-257 -307h-87l-169 307h67l153 -270zM1276 562q-16 -117 -62 -214t-109 -162.5t-140.5 -110.5t-158 -65.5t-161.5 -20.5t-154.5 20.5t-138.5 65.5t-109.5 110.5t-63 162.5t-2.5 214q16 114 61.5 209.5t108.5 161.5t140 112.5t158 68t162 21.5t155.5 -21.5 t139.5 -68t109 -112.5t62.5 -161.5t2.5 -209.5zM653 44q91 0 180.5 31t168 91.5t135.5 163t74 232.5q18 126 -9 227.5t-88.5 163.5t-142 94t-172.5 32q-91 0 -181 -32t-168 -94t-134.5 -163.5t-73.5 -227.5q-14 -104 1.5 -191.5t54 -147t95.5 -100.5t122.5 -60t137.5 -19z " glyph-name="uni01D2" horiz-adv-x="1453" unicode="ǒ"/><glyph d="M1095 1891h66l-257 -307h-87l-169 307h67l152 -270zM1338 1434l-127 -906q-39 -285 -174 -412t-400 -127q-264 0 -363 127.5t-60 411.5l128 906h67l-128 -911q-35 -253 48 -364.5t317 -111.5q233 0 348 111.5t150 364.5l128 911h66z" glyph-name="uni01D3" horiz-adv-x="1435" unicode="Ǔ"/><glyph d="M1019 1581h66l-257 -307h-87l-169 307h67l153 -270zM1231 1123h63l-157 -1123h-65l41 299q-81 -153 -234 -231.5t-317 -78.5q-90 0 -160.5 25t-123.5 78t-73.5 146t-2.5 219l94 666h64l-93 -659q-15 -114 2.5 -197t63 -130.5t108 -69.5t143.5 -22q89 0 177 28t168 84.5 t138 151.5t79 217z" glyph-name="uni01D4" horiz-adv-x="1433" unicode="ǔ"/><glyph d="M1219 1891h66l-257 -307h-87l-169 307h67l152 -270zM861 752h449l-87 -617q-99 -70 -219.5 -108t-239.5 -38q-103 0 -197.5 28t-174.5 87.5t-134 144t-75.5 205t-2 263t75 263.5t134 205.5t175.5 144t199 87.5t206 28q194 0 344 -96l-9 -67q-147 106 -344 104 q-117 0 -232 -42t-215 -122.5t-172.5 -211t-95 -293.5t13 -293.5t113.5 -211t180.5 -123t219.5 -42.5q98 0 213.5 37t179.5 87l73 524h-386z" glyph-name="Gcaron" horiz-adv-x="1502" unicode="Ǧ"/><glyph d="M1062 1581h66l-257 -307h-87l-169 307h67l153 -270zM1252 1123h64l-142 -1020q-16 -114 -59 -204t-101.5 -149t-133 -98t-152 -56t-161.5 -17q-189 0 -318 78l9 63q126 -84 315 -84q75 0 143 15t134 49t117.5 85.5t89 131.5t51.5 181l28 203q-81 -153 -220 -230.5 t-293 -77.5q-81 0 -154 22t-134 66.5t-101 112.5t-57 160t0 209q16 117 59.5 213t102 162t133 111t151.5 65.5t157 20.5q100 0 186 -31.5t152.5 -102.5t91.5 -175zM240 563q-17 -127 7 -228t82 -162t136 -93.5t169 -32.5q88 0 173.5 31.5t160 90.5t128.5 156t73 219l5 37 q13 104 -1.5 189t-51 141.5t-91 95.5t-117.5 55.5t-135 16.5q-73 0 -142 -19t-135 -59t-118 -99.5t-90.5 -147t-52.5 -191.5z" glyph-name="gcaron" horiz-adv-x="1455" unicode="ǧ"/><glyph d="M1315 1891l-309 -307h-68l302 307h75zM1551 1375h-680l-88 -630h600l-9 -57h-600l-88 -630h680l-7 -58h-748l52 364h-414l-199 -364h-70l780 1434h800zM671 422l134 960l-524 -960h390z" glyph-name="AEacute" horiz-adv-x="1656" unicode="Ǽ"/><glyph d="M1577 1581l-309 -307h-68l302 307h75zM2122 553h-973q-13 -103 8.5 -190.5t66.5 -144.5t108.5 -97.5t132 -58.5t139.5 -18q184 0 335 84l-9 -61q-148 -78 -343 -78q-100 0 -195 32.5t-175 107t-114 179.5l-43 -308h-64l25 183q-30 -32 -76 -63t-111.5 -62t-156 -50 t-189.5 -19q-194 1 -282 76.5t-69 220.5q16 120 86 193.5t189 104t287 36.5t381 -12l14 94q22 207 -52.5 290.5t-288.5 84.5q-93 1 -191 -22.5t-170 -62.5l9 63q70 37 167 58.5t196 21.5q203 0 302 -72.5t100 -249.5q84 157 226.5 239.5t294.5 82.5q102 0 191.5 -36 t157.5 -108t92.5 -182t-6.5 -256zM1680 1079q-114 -1 -218 -50t-188.5 -158t-115.5 -262h913q18 96 2.5 172t-52 132.5t-92 93t-119 54.5t-130.5 18zM1031 257l41 294q-274 18 -461 10t-289.5 -72t-120.5 -197q-18 -130 61.5 -188t259.5 -58q168 0 303.5 65.5t205.5 145.5z " glyph-name="aeacute" horiz-adv-x="2302" unicode="ǽ"/><glyph d="M1331 1891l-309 -307h-68l302 307h75zM1626 1354l-166 -147q135 -195 93 -490q-19 -142 -75.5 -263t-134 -205.5t-174.5 -144t-199.5 -87.5t-205.5 -28q-138 0 -259.5 51t-203.5 150l-166 -145l-31 35l168 147q-133 193 -92 490q19 142 75 263t134.5 205.5t174.5 144 t198.5 87.5t206.5 28q137 0 258.5 -51t204.5 -149l163 144zM247 717q-38 -266 78 -444l1054 926q-74 92 -184 139.5t-234 47.5q-93 0 -185.5 -26t-179.5 -80t-158 -132t-122 -189t-69 -242zM1487 717q38 268 -80 444l-1055 -925q75 -92 185.5 -140.5t235.5 -48.5 q93 0 185.5 26t179.5 80.5t158 132.5t122 189t69 242z" glyph-name="Oslashacute" horiz-adv-x="1689" unicode="Ǿ"/><glyph d="M1092 1581l-310 -307h-67l302 307h75zM1368 1096l-168 -148q110 -152 76 -386q-16 -117 -62 -214t-109 -162.5t-140.5 -110.5t-158 -65.5t-161.5 -20.5q-108 0 -204.5 38t-162.5 112l-165 -144l-28 33l166 145q-106 153 -74 389q16 114 61.5 209.5t108.5 161.5t140 112.5 t158 68t162 21.5q108 0 204 -38.5t163 -114.5l166 146zM242 562q-29 -210 59 -345l823 722q-58 69 -143.5 104.5t-181.5 35.5q-91 0 -181 -32t-168 -94t-134.5 -163.5t-73.5 -227.5zM1211 562q29 205 -60 343l-824 -722q58 -70 144 -104.5t182 -34.5q91 0 180.5 31t168 91.5 t135.5 163t74 232.5z" glyph-name="oslashacute" horiz-adv-x="1453" unicode="ǿ"/><glyph d="M108 184q156 -136 436 -136q114 0 226.5 38.5t192 108.5t93.5 153q22 139 -84 216q-72 52 -264 109q-18 5 -101 28q-98 28 -167 59t-124 74t-76.5 100t-10.5 130q28 173 175 277t383 104q198 0 347 -98l-11 -69q-146 109 -345 108q-206 0 -333.5 -88.5t-149.5 -235.5 q-7 -45 2 -83.5t38 -68.5t61.5 -53t88.5 -45t102.5 -37.5t118.5 -36.5q96 -28 160.5 -51t122.5 -56.5t88 -72t43 -91.5t1 -122q-16 -101 -108 -184.5t-219.5 -127t-257.5 -43.5q-282 0 -440 123zM569 -101h73l-135 -418h-51z" glyph-name="Scommaaccent" horiz-adv-x="1309" unicode="Ș"/><glyph d="M119 132q72 -40 173 -63t205 -23q140 -1 254 63t129 161q7 48 -8 86t-38.5 62.5t-78.5 49t-98 37.5t-127 36q-165 43 -244.5 117t-63.5 191q19 133 140 209.5t312.5 76.5t319.5 -79l-9 -65q-129 86 -315 87q-163 0 -265 -60t-117 -170q-8 -52 10 -92.5t64 -72t104 -54.5 t145 -47q78 -22 129.5 -40.5t97.5 -44.5t70 -56t34 -72t3 -97q-12 -81 -81 -147t-168 -101t-202 -35q-110 0 -213.5 21.5t-170.5 57.5zM511 -101h73l-135 -418h-52z" glyph-name="scommaaccent" horiz-adv-x="1162" unicode="ș"/><glyph d="M1167 1434l-7 -59h-461l-192 -1375h-67l193 1375h-460l7 59h987zM373 -519l113 418h73l-135 -418h-51z" glyph-name="uni021A" horiz-adv-x="1103" unicode="Ț"/><glyph d="M688 0h-230q-85 0 -123.5 60t-24.5 162l119 846h-181l8 55h180l32 225h64l-31 -225h344l-7 -55h-344l-118 -838q-11 -80 19.5 -128t89.5 -48h210zM476 -101h73l-135 -418h-52z" glyph-name="uni021B" horiz-adv-x="984" unicode="ț"/><glyph d="M1299 1375h-899l-88 -630h816l-8 -57h-816l-89 -630h899l-8 -58h-459l-62 -58q6 1 33 1q45 0 73 -22t22 -68q-13 -94 -162 -95q-39 0 -87 8l7 46q33 -5 66 -6q114 0 119 47q4 29 -18 38t-72 9q-28 0 -39 -1l5 40l68 61h-459l201 1434h966z" glyph-name="uni0228" horiz-adv-x="1404" unicode="Ȩ"/><glyph d="M1211 553h-971q-13 -103 7.5 -190.5t65.5 -144.5t108.5 -97.5t132.5 -58.5t139 -18q184 0 336 84l-9 -61q-144 -77 -333 -78l-50 -47q6 1 34 1q45 0 72.5 -22t21.5 -68q-13 -94 -162 -95q-39 0 -87 8l7 46q33 -5 66 -6q114 0 120 47q4 29 -18 38t-73 9q-28 0 -38 -1l5 40 l56 51q-76 5 -148 28t-136.5 70t-109.5 111t-65 158.5t-5 204.5q19 141 80 253.5t145 180.5t180 103.5t194 35.5q102 0 192.5 -36t158.5 -108t91.5 -182t-7.5 -256zM770 1079q-84 0 -165.5 -29.5t-153 -85.5t-126 -147.5t-76.5 -207.5h911q22 115 -4.5 207.5t-86 148.5 t-137 85t-162.5 29z" glyph-name="uni0229" horiz-adv-x="1392" unicode="ȩ"/><glyph d="M322 1123l-159 -1127q-16 -120 -69 -172t-155 -52q-45 0 -89 10l9 46q36 -6 84 -5q80 1 112 43t45 134l157 1123h65z" glyph-name="uni0237" horiz-adv-x="421" unicode="ȷ"/><glyph d="M715 1135q79 0 155.5 -20.5t146.5 -66.5t120 -111t72.5 -162.5t5.5 -213.5q-19 -141 -80 -253t-145 -180.5t-179.5 -103.5t-194.5 -35q-102 0 -192 35.5t-158 108t-91.5 182t6.5 255.5h972q13 103 -8 190.5t-66 145t-108.5 97.5t-132 58t-139.5 18q-184 0 -335 -84l9 62 q147 78 342 78zM623 44q84 0 165 29.5t153 85.5t126 147.5t77 207.5h-912q-22 -115 4.5 -207.5t86.5 -148.5t137.5 -85t162.5 -29z" glyph-name="uni0259" horiz-adv-x="1392" unicode="ə"/><glyph d="M429 1434l-11 -78h-110l10 78h111zM466 643l-8 -57h-170l-82 -586h-65l82 586h-171l9 57h170l67 480h64l-66 -480h170z" glyph-name="uni0268" horiz-adv-x="503" unicode="ɨ"/><glyph d="M833 1274h-67l-152 271l-227 -271h-68l258 307h87z" glyph-name="circumflex" horiz-adv-x="952" unicode="ˆ"/><glyph d="M810 1581h67l-257 -307h-88l-168 307h66l153 -270z" glyph-name="caron" horiz-adv-x="952" unicode="ˇ"/><glyph d="M800 1494q-14 -92 -89 -156t-167 -64q-91 0 -147.5 64.5t-45.5 155.5h53q-9 -70 33.5 -119.5t113.5 -49.5t127.5 49.5t67.5 119.5h54z" glyph-name="breve" horiz-adv-x="887" unicode="˘"/><glyph d="M333 1372h104l-14 -98h-104z" glyph-name="dotaccent" horiz-adv-x="542" unicode="˙"/><glyph d="M489 1274q-70 0 -112.5 50t-32.5 121q9 70 66.5 120t127.5 50q71 0 113.5 -50.5t33.5 -119.5q-11 -71 -68 -121t-128 -50zM498 1324q49 0 89.5 35.5t47.5 85.5q6 49 -24 84.5t-80 35.5t-90.5 -35.5t-46.5 -84.5q-7 -50 23.5 -85.5t80.5 -35.5z" glyph-name="ring" horiz-adv-x="780" unicode="˚"/><glyph d="M121 -147q6 114 155 147h53q-89 -27 -121 -62t-32 -75q-1 -41 52 -58.5t124 -1.5v-43q-101 -28 -168 1.5t-63 91.5z" glyph-name="ogonek" horiz-adv-x="684" unicode="˛"/><glyph d="M321 1275q8 73 54.5 122t116.5 49q38 0 73.5 -20t59 -44t55.5 -44t60 -20q35 0 66.5 36.5t38.5 82.5h50q-11 -73 -60 -121t-113 -48q-29 0 -62.5 20t-59 43.5t-57 43t-57.5 19.5q-45 -1 -77 -36t-39 -84z" glyph-name="tilde" horiz-adv-x="991" unicode="˜"/><glyph d="M587 1584l-209 -310h-59l205 310h63zM762 1584l-208 -310h-59l204 310h63z" glyph-name="hungarumlaut" horiz-adv-x="836" unicode="˝"/><glyph d="M-409 1581h75l215 -307h-67z" glyph-name="gravecomb" unicode="̀"/><glyph d="M-76 1581l-309 -307h-68l302 307h75z" glyph-name="acutecomb" unicode="́"/><glyph d="M-120 1274h-66l-152 271l-227 -271h-68l257 307h87z" glyph-name="uni0302" unicode="̂"/><glyph d="M-671 1275q8 73 55 122t116 49q38 0 74 -20t59.5 -44t55 -44t60.5 -20q35 0 66 36.5t39 82.5h50q-11 -73 -60 -121t-113 -48q-29 0 -63 20t-59 43.5t-56.5 43t-57.5 19.5q-45 -1 -77 -36t-40 -84z" glyph-name="tildecomb" unicode="̃"/><glyph d="M-583 1327h471l-8 -53h-470z" glyph-name="uni0304" unicode="̄"/><glyph d="M-88 1494q-14 -92 -89 -156t-167 -64q-91 0 -147.5 64.5t-45.5 155.5h54q-9 -70 33 -119.5t113 -49.5t127.5 49.5t68.5 119.5h53z" glyph-name="uni0306" unicode="̆"/><glyph d="M-210 1372h105l-15 -98h-103z" glyph-name="uni0307" unicode="̇"/><glyph d="M-546 1372h105l-15 -98h-103zM-210 1372h104l-14 -98h-103z" glyph-name="uni0308" unicode="̈"/><glyph d="M-291 1274q-70 0 -112.5 50t-32.5 121q9 70 66.5 120t126.5 50q71 0 114 -50.5t34 -119.5q-11 -71 -68 -121t-128 -50zM-283 1324q49 0 89.5 35.5t48.5 85.5q6 49 -24.5 84.5t-79.5 35.5q-50 0 -90.5 -35.5t-46.5 -84.5q-7 -50 23 -85.5t80 -35.5z" glyph-name="uni030A" unicode="̊"/><glyph d="M-250 1584l-209 -310h-58l205 310h62zM-75 1584l-208 -310h-59l205 310h62z" glyph-name="uni030B" unicode="̋"/><glyph d="M-142 1581h66l-257 -307h-87l-169 307h67l152 -270z" glyph-name="uni030C" unicode="̌"/><glyph d="M-166 1273h-73l135 418h51z" glyph-name="uni0312" unicode="̒"/><glyph d="M-436 -248h103l-14 -97h-104z" glyph-name="dotbelowcomb" unicode="̣"/><glyph d="M-321 -101h73l-135 -418h-51z" glyph-name="uni0326" unicode="̦"/><glyph d="M-413 -52q45 0 73 -22t22 -68q-13 -94 -162 -95q-39 0 -87 8l7 46q33 -5 65 -5q114 0 120 46q4 29 -18 38t-72 9q-28 0 -39 -1l5 40l68 61h47l-62 -58q5 1 33 1z" glyph-name="uni0327" unicode="̧"/><glyph d="M-563 -147q6 114 155 147h53q-89 -27 -121 -62t-32 -75q-1 -41 52 -58.5t124 -1.5v-43q-101 -28 -168 1.5t-63 91.5z" glyph-name="uni0328" unicode="̨"/><glyph d="M641 1680h103l-14 -97h-103zM976 1680h103l-13 -97h-103zM215 58h899l-8 -58h-965l201 1434h966l-9 -59h-899l-88 -630h816l-8 -57h-816z" glyph-name="afii10023" horiz-adv-x="1404" unicode="Ё"/><glyph d="M1155 0l-96 364h-810l-199 -364h-70l780 1434h87l380 -1434h-72zM281 422h762l-248 944z" glyph-name="afii10017" horiz-adv-x="1362" unicode="А"/><glyph d="M331 879q484 -1 690.5 -111.5t170.5 -352.5q-27 -193 -161.5 -304t-336.5 -111h-554l203 1434h790l-8 -57h-724zM1125 415q20 142 -54.5 230.5t-257.5 132t-489 43.5l-108 -764h484q173 0 287 94t138 264z" glyph-name="afii10018" horiz-adv-x="1389" unicode="Б"/><glyph d="M342 1434h571q70 0 130 -22.5t105.5 -66t66.5 -116.5t8 -164q-17 -127 -84.5 -211.5t-162.5 -123.5q111 -28 171.5 -118t39.5 -240q-13 -92 -54.5 -165.5t-100.5 -117.5t-126 -66.5t-138 -22.5h-627zM401 1377l-89 -632h494q62 0 117 17t104 52.5t83.5 98.5t46.5 148 q11 83 -5 146t-54.5 98.5t-89.5 53.5t-113 18h-494zM768 55q62 0 118 18t105 55t83 99.5t45 145.5q12 85 -4 148.5t-55 98.5t-89.5 52t-113.5 17h-553l-89 -633z" glyph-name="afii10019" horiz-adv-x="1371" unicode="В"/><glyph d="M966 1434l-9 -59h-557l-192 -1375h-67l201 1434h624z" glyph-name="afii10020" horiz-adv-x="902" unicode="Г"/><glyph d="M1230 58h80l-8 -58l-38 -266h-62l37 266h-1037l-37 -266h-62l45 324h2q118 0 167.5 78t79.5 293l141 1005h884zM463 423q-39 -280 -131 -365h831l185 1317h-751z" glyph-name="afii10021" horiz-adv-x="1599" unicode="Д"/><glyph d="M215 58h899l-8 -58h-965l201 1434h966l-9 -59h-899l-88 -630h816l-8 -57h-816z" glyph-name="afii10022" horiz-adv-x="1404" unicode="Е"/><glyph d="M2050 1434l-895 -715l694 -719h-88l-693 716l-100 -716h-68l100 716l-894 -716h-88l896 719l-694 715h89l692 -712l100 712h68l-100 -712l893 712h88z" glyph-name="afii10024" horiz-adv-x="2025" unicode="Ж"/><glyph d="M569 45q74 0 149 21t143 62t116 111.5t61 160.5q10 70 -6.5 130t-53 101.5t-86.5 71.5t-106.5 44t-114.5 14h-174l7 56h174q58 0 119.5 17.5t118 51t97 90.5t49.5 128q8 56 -6.5 103.5t-44 80.5t-71 56t-88 34t-94.5 11q-82 0 -162 -30t-143.5 -97t-76.5 -158l-64 1 q11 81 57.5 147.5t111.5 107t138.5 62.5t146.5 22t141 -22t121.5 -62.5t81 -107t15.5 -147.5q-15 -118 -96.5 -198t-193.5 -115q133 -40 211.5 -141t58.5 -252q-14 -102 -70.5 -183.5t-135.5 -129t-166 -72t-172 -24.5t-164 24.5t-144.5 72t-98 129t-18.5 183.5l67 1 q-13 -90 15.5 -160.5t84.5 -111.5t124.5 -62t141.5 -21z" glyph-name="afii10025" horiz-adv-x="1285" unicode="З"/><glyph d="M410 1434l-191 -1343l1149 1343h81l-203 -1434h-66l190 1343l-1149 -1343h-81l203 1434h67z" glyph-name="afii10026" horiz-adv-x="1546" unicode="И"/><glyph d="M1171 1804q-14 -92 -88.5 -156t-167.5 -64q-91 0 -147 64.5t-45 155.5h53q-9 -70 33.5 -119.5t113 -49.5t127.5 50t68 119h53zM410 1434l-191 -1343l1149 1343h81l-203 -1434h-66l190 1343l-1149 -1343h-81l203 1434h67z" glyph-name="afii10027" horiz-adv-x="1546" unicode="Й"/><glyph d="M1291 1434l-896 -715l696 -719h-90l-693 716l-100 -716h-67l201 1434h67l-100 -712l893 712h89z" glyph-name="afii10028" horiz-adv-x="1265" unicode="К"/><glyph d="M1321 1434l-201 -1433h-66l192 1374h-750l-135 -952q-24 -166 -62 -257.5t-99.5 -130t-159.5 -34.5l8 57q119 0 168.5 78.5t79.5 292.5l140 1005h885z" glyph-name="afii10029" horiz-adv-x="1418" unicode="Л"/><glyph d="M1628 1434h103l-201 -1434h-68l192 1359l-755 -1159h-72l-429 1159l-190 -1359h-67l201 1434h101l430 -1165z" glyph-name="afii10030" horiz-adv-x="1827" unicode="М"/><glyph d="M1303 1434h67l-201 -1434h-67l96 688h-894l-96 -688h-67l201 1434h67l-97 -689h895z" glyph-name="afii10031" horiz-adv-x="1467" unicode="Н"/><glyph d="M1553.5 716.5q-19.5 -142.5 -76 -263t-134 -205t-174.5 -144t-199.5 -87.5t-206 -28t-197.5 28t-174 87.5t-134 144t-75.5 205t-2 263t75 263.5t134 205.5t174.5 144t198.5 87.5t206 28t198.5 -28t174.5 -87.5t134 -144t76 -205.5t2 -263.5zM773 47q93 0 185.5 26 t179.5 80.5t158 132.5t121.5 189t69 242t-1 242t-69 189t-121 132t-156.5 80t-178.5 26t-185.5 -26t-179 -80t-158 -132t-122 -189t-69.5 -242t1 -242t69 -189t121.5 -132.5t157 -80.5t178 -26z" glyph-name="afii10032" horiz-adv-x="1689" unicode="О"/><glyph d="M1299 1434l-200 -1434h-67l193 1375h-825l-192 -1375h-67l201 1434h957z" glyph-name="afii10033" horiz-adv-x="1396" unicode="П"/><glyph d="M895 1434q203 0 306.5 -111.5t75.5 -303.5q-32 -243 -269.5 -353t-721.5 -111l-78 -555h-67l201 1434h553zM1210 1019q25 170 -63 263.5t-261 93.5h-485l-107 -764q456 0 671 97t245 310z" glyph-name="afii10034" horiz-adv-x="1371" unicode="Р"/><glyph d="M1305 1280q-147 106 -344 104q-93 0 -185 -26t-179.5 -80t-158.5 -131.5t-122 -188t-69.5 -241.5t1.5 -241.5t69.5 -188t121.5 -132t157 -80.5t177 -26q197 -2 374 105l-10 -69q-176 -96 -372 -96q-103 0 -198 28t-175 87.5t-134 144t-75.5 205t-2 263t75 263.5 t134 205.5t175.5 144t199 87.5t206 28q196 0 345 -96z" glyph-name="afii10035" horiz-adv-x="1423" unicode="С"/><glyph d="M1167 1434l-7 -59h-461l-192 -1375h-67l193 1375h-460l7 59h987z" glyph-name="afii10036" horiz-adv-x="1103" unicode="Т"/><glyph d="M1078 1434h69l-595 -1059q-35 -62 -65.5 -109.5t-82 -108.5t-104.5 -102t-128 -73t-158 -40l8 54q71 9 133 36.5t106.5 63t88 88t71.5 95.5t60 101l-300 1054h70l276 -981z" glyph-name="afii10037" horiz-adv-x="1085" unicode="У"/><glyph d="M1031 1240q348 -5 508.5 -143.5t126.5 -379.5q-33 -242 -232.5 -380t-549.5 -143l-27 -194h-50l27 194q-348 5 -508.5 143t-126.5 380q34 241 233.5 379.5t548.5 143.5l27 194h50zM265.5 717q-29.5 -215 115 -337.5t461.5 -127.5l131 930q-318 -5 -498 -127.5 t-209.5 -337.5zM1599.5 717q29.5 215 -115.5 337.5t-461 127.5l-131 -930q318 5 498 127.5t209.5 337.5z" glyph-name="afii10038" horiz-adv-x="1821" unicode="Ф"/><glyph d="M1377 1434l-634 -716l437 -718h-80l-408 670l-595 -670h-79l637 718l-434 716h79l406 -668l592 668h79z" glyph-name="afii10039" horiz-adv-x="1354" unicode="Х"/><glyph d="M1302 1434l-195 -1376h76l-31 -222h-58l23 164h-976l203 1434h67l-194 -1376h824l194 1376h67z" glyph-name="afii10040" horiz-adv-x="1473" unicode="Ц"/><glyph d="M1215 1434h67l-201 -1434h-66l115 829q-75 -137 -207 -207.5t-307 -70.5q-191 0 -278 118t-58 319l62 446h67l-58 -414q-27 -194 45 -299.5t254 -105.5q170 0 307 89.5t189 237.5z" glyph-name="afii10041" horiz-adv-x="1379" unicode="Ч"/><glyph d="M2126 1434h66l-202 -1434h-1849l203 1434h67l-194 -1376h823l195 1376h67l-194 -1376h824z" glyph-name="afii10042" horiz-adv-x="2289" unicode="Ш"/><glyph d="M2192 1434l-194 -1376h76l-31 -222h-58l23 164h-1867l203 1434h67l-194 -1376h823l195 1376h67l-194 -1376h824l194 1376h66z" glyph-name="afii10043" horiz-adv-x="2364" unicode="Щ"/><glyph d="M379 879q484 -1 690.5 -111.5t170.5 -352.5q-27 -193 -161.5 -304t-336.5 -111h-554l195 1375h-268l7 59h336zM1174 415q20 142 -55 230.5t-258 132t-489 43.5l-108 -764h485q173 0 287 94t138 264z" glyph-name="afii10044" horiz-adv-x="1437" unicode="Ъ"/><glyph d="M694 0h-554l203 1434h67l-79 -555q484 -1 690.5 -111.5t170.5 -352.5q-27 -193 -161.5 -304t-336.5 -111zM1450 0h-68l201 1434h68zM324 821l-108 -764h484q173 0 287.5 94t137.5 264q20 142 -54.5 230.5t-257.5 132t-489 43.5z" glyph-name="afii10045" horiz-adv-x="1747" unicode="Ы"/><glyph d="M694 0h-554l203 1434h67l-79 -555q484 -1 690.5 -111.5t170.5 -352.5q-27 -193 -161.5 -304t-336.5 -111zM324 821l-108 -764h484q173 0 287.5 94t137.5 264q20 142 -54.5 230.5t-257.5 132t-489 43.5z" glyph-name="afii10046" horiz-adv-x="1389" unicode="Ь"/><glyph d="M722 1445q103 0 197.5 -28t174.5 -87.5t134.5 -144t76 -205.5t2 -263.5t-75 -263t-134 -205t-175 -144t-198.5 -87.5t-206 -28q-197 0 -346 96l9 69q147 -106 345 -105q90 0 180.5 24.5t177 77t156.5 126.5t122 180t74 232h-803l8 55h802q14 126 -8 232t-71.5 180.5 t-121 126.5t-154.5 76.5t-174 24.5q-196 2 -373 -104l9 69q176 96 372 96z" glyph-name="afii10047" horiz-adv-x="1443" unicode="Э"/><glyph d="M1479 1445q103 0 198 -28t174.5 -87.5t134 -144t76 -205.5t2 -263.5t-76 -263t-134 -205t-174.5 -144t-199.5 -87.5t-205.5 -28q-101 0 -194 27t-172 84.5t-134 138t-79.5 196.5t-9.5 253h-381l-96 -688h-67l201 1434h67l-97 -689h381q24 137 80.5 253t134.5 197 t173.5 138.5t196 84.5t201.5 27zM1996.5 717q18.5 131 -1 242t-69 189t-121 132t-156.5 80t-178.5 26t-185.5 -26t-179 -80t-158 -132t-122 -189t-69.5 -242t1 -242t69 -189t121 -132.5t156.5 -80.5t178 -26t185.5 26t180 80.5t158.5 132.5t121.5 189t69 242z" glyph-name="afii10048" horiz-adv-x="2199" unicode="Ю"/><glyph d="M726 1434h553l-202 -1434h-66l78 555q-297 0 -487 41l-449 -596h-73l460 611q-182 50 -259 150.5t-54 257.5q27 193 161.5 304t337.5 111zM294 1019q-20 -143 54.5 -232t256.5 -132t491 -43l108 764h-485q-172 0 -286.5 -93.5t-138.5 -263.5z" glyph-name="afii10049" horiz-adv-x="1376" unicode="Я"/><glyph d="M764 1135q76 0 134.5 -9t108.5 -29.5t81.5 -54t53 -83t23 -116t-7.5 -152.5l-97 -691h-64l25 183q-30 -32 -76 -63t-111.5 -62t-156 -50t-189.5 -19q-194 1 -282 76.5t-69 220.5q16 120 86 193.5t189 104t287 36.5t381 -12l14 94q22 207 -52.5 290.5t-288.5 84.5 q-93 1 -191 -22.5t-170 -62.5l9 63q70 37 167 58.5t196 21.5zM1031 257l41 294q-274 18 -461 10t-289.5 -72t-120.5 -197q-18 -130 61.5 -188t259.5 -58q168 0 303.5 65.5t205.5 145.5z" glyph-name="afii10065" horiz-adv-x="1355" unicode="а"/><glyph d="M838 1321q-103 0 -184 -26.5t-153.5 -91t-128.5 -181t-96 -286.5q91 116 232 176.5t288 60.5q81 0 156 -18.5t139.5 -58.5t108.5 -96.5t62.5 -138.5t3.5 -180q-16 -100 -62 -183t-109 -139t-141 -94.5t-158.5 -56t-161.5 -17.5t-154.5 17.5t-139 56t-110 94.5t-62.5 139 t-2 183q30 211 77.5 367.5t107 256.5t138.5 161.5t164 85.5t193 24q250 0 452 51l-6 -55q-203 -51 -454 -51zM787 925q-91 0 -180.5 -28t-168 -80.5t-134.5 -139.5t-74 -196q-18 -112 10 -199t90 -139t141.5 -78.5t170.5 -26.5q73 0 144.5 16t140 51t124 86t96 125.5 t54.5 164.5q17 109 -10.5 196t-89 139.5t-142 80.5t-172.5 28z" glyph-name="afii10066" horiz-adv-x="1453" unicode="б"/><glyph d="M296 1123h519q159 0 249.5 -73t71.5 -215q-14 -103 -77.5 -172t-159.5 -91q111 -14 175 -87.5t46 -193.5q-19 -143 -133 -217t-274 -74h-575zM353 1072l-67 -484h443q85 0 153.5 21.5t122 77.5t65.5 144q9 66 -9.5 114t-58 75t-91 39.5t-113.5 12.5h-445zM713 51 q62 0 117.5 13t103 40t79 75t41.5 113q9 67 -9 116t-59 76t-91.5 40t-113.5 13h-503l-68 -486h503z" glyph-name="afii10067" horiz-adv-x="1335" unicode="в"/><glyph d="M922 1123l-8 -55h-561l-150 -1068h-65l158 1123h626z" glyph-name="afii10068" horiz-adv-x="960" unicode="г"/><glyph d="M1095 56h110l-7 -56h-1l-29 -208h-64l29 208h-931l-29 -208h-64l36 264h9q96 1 145 76.5t74 247.5l104 743h766zM311 56h719l141 1012h-636l-98 -693q-35 -235 -126 -319z" glyph-name="afii10069" horiz-adv-x="1494" unicode="д"/><glyph d="M1211 553h-971q-13 -103 7.5 -190.5t65.5 -144.5t108.5 -97.5t132.5 -58.5t139 -18q184 0 336 84l-9 -61q-147 -78 -342 -78q-79 0 -156 20.5t-147 66t-119.5 110.5t-72 162.5t-6.5 213.5q19 141 80 253.5t145 180.5t180 103.5t194 35.5q102 0 192.5 -36t158.5 -108 t91.5 -182t-7.5 -256zM770 1079q-84 0 -165.5 -29.5t-153 -85.5t-126 -147.5t-76.5 -207.5h911q22 115 -4.5 207.5t-86 148.5t-137 85t-162.5 29z" glyph-name="afii10070" horiz-adv-x="1392" unicode="е"/><glyph d="M1679 1123l-705 -560l548 -563h-85l-545 561l-79 -561h-64l78 561l-702 -561h-85l705 563l-548 560h86l544 -558l79 558h65l-79 -558l701 558h86z" glyph-name="afii10072" horiz-adv-x="1718" unicode="ж"/><glyph d="M531 43q98 0 182.5 27.5t146.5 90t74 152.5q18 134 -77 205.5t-249 71.5h-173l8 52h173q129 0 223.5 56.5t109.5 165.5q14 103 -65 158.5t-206 55.5q-77 0 -146.5 -21t-124.5 -71t-65 -122l-60 1q17 125 132.5 195t269.5 70t250.5 -70t78.5 -195q-12 -92 -77 -155 t-156 -92q106 -30 170 -109t47 -197q-11 -81 -56 -144.5t-111.5 -100.5t-144.5 -56t-161 -19t-154.5 19t-128 56t-83.5 100.5t-16 144.5l64 1q-8 -57 6.5 -103t46.5 -77t77 -51.5t94 -29.5t101 -9z" glyph-name="afii10073" horiz-adv-x="1209" unicode="з"/><glyph d="M360 1123l-147 -1051l862 1051h84l-157 -1123h-64l147 1053l-862 -1053h-85l158 1123h64z" glyph-name="afii10074" horiz-adv-x="1298" unicode="и"/><glyph d="M1005 1494q-14 -92 -89 -156t-167 -64q-91 0 -147.5 64.5t-45.5 155.5h53q-9 -70 33.5 -119.5t113 -49.5t127.5 49.5t68 119.5h54zM360 1123l-147 -1051l862 1051h84l-157 -1123h-64l147 1053l-862 -1053h-85l158 1123h64z" glyph-name="afii10075" horiz-adv-x="1298" unicode="й"/><glyph d="M1144 1123l-775 -560l617 -563h-93l-611 561l-79 -561h-65l158 1123h64l-78 -558l769 558h93z" glyph-name="afii10076" horiz-adv-x="1183" unicode="к"/><glyph d="M1203 1123l-157 -1123h-65l151 1068h-638l-98 -693q-29 -204 -100.5 -292t-197.5 -83l7 56q100 -1 151 73.5t76 250.5l104 743h767z" glyph-name="afii10077" horiz-adv-x="1341" unicode="л"/><glyph d="M1328 1123h105l-158 -1123h-65l150 1065l-600 -908h-63l-345 908l-149 -1065h-65l158 1123h104l338 -901z" glyph-name="afii10078" horiz-adv-x="1570" unicode="м"/><glyph d="M1095 1123h64l-158 -1123h-64l79 558h-734l-79 -558h-65l158 1123h64l-71 -510h734z" glyph-name="afii10079" horiz-adv-x="1297" unicode="н"/><glyph d="M1276 562q-16 -117 -62 -214t-109 -162.5t-140.5 -110.5t-158 -65.5t-161.5 -20.5t-154.5 20.5t-138.5 65.5t-109.5 110.5t-63 162.5t-2.5 214q16 114 61.5 209.5t108.5 161.5t140 112.5t158 68t162 21.5t155.5 -21.5t139.5 -68t109 -112.5t62.5 -161.5t2.5 -209.5z M653 44q91 0 180.5 31t168 91.5t135.5 163t74 232.5q18 126 -9 227.5t-88.5 163.5t-142 94t-172.5 32q-91 0 -181 -32t-168 -94t-134.5 -163.5t-73.5 -227.5q-14 -104 1.5 -191.5t54 -147t95.5 -100.5t122.5 -60t137.5 -19z" glyph-name="afii10080" horiz-adv-x="1453" unicode="о"/><glyph d="M1147 1123l-158 -1123h-64l150 1068h-722l-150 -1068h-65l158 1123h851z" glyph-name="afii10081" horiz-adv-x="1285" unicode="п"/><glyph d="M1278 562q-16 -114 -58.5 -209.5t-102 -161.5t-133.5 -112t-152.5 -67.5t-159.5 -21.5q-100 0 -185 31.5t-150.5 103t-91.5 174.5l-101 -712h-64l216 1536h58l-40 -298q56 105 144 176.5t181.5 102.5t194.5 31q80 0 151.5 -21t134 -64.5t102.5 -112t57 -161.5t-1 -214z M821 1079q-90 0 -174 -28.5t-159 -86.5t-129 -156.5t-73 -227.5l-5 -38q-13 -122 13.5 -219t83.5 -157t133.5 -91t164.5 -31q91 0 178 32.5t162 94t128 163t71 228.5q18 130 -6.5 232t-83 163t-136 91.5t-168.5 30.5z" glyph-name="afii10082" horiz-adv-x="1455" unicode="р"/><glyph d="M1115 992q-127 85 -313 84q-92 0 -182.5 -32t-169 -93t-135 -162t-73.5 -227q-18 -127 10 -228t89.5 -161.5t142.5 -93t173 -32.5q183 -1 337 84l-9 -64q-148 -78 -340 -78q-81 0 -155.5 21.5t-139 67.5t-108.5 112t-62.5 162.5t-2.5 209.5q15 114 61 209.5t108.5 161.5 t140 112.5t158.5 68t162 21.5q190 0 317 -77z" glyph-name="afii10083" horiz-adv-x="1231" unicode="с"/><glyph d="M1093 1123l-8 -55h-445l-150 -1068h-64l149 1068h-445l7 55h956z" glyph-name="afii10084" horiz-adv-x="1073" unicode="т"/><glyph d="M1089 1123h69l-593 -1058q-35 -62 -65 -109.5t-80.5 -108.5t-103.5 -102t-127.5 -73t-156.5 -41l6 56q70 9 132 36.5t107 62.5t88.5 87t70.5 95t60 102l-299 1053h69l275 -981z" glyph-name="afii10085" horiz-adv-x="1197" unicode="у"/><glyph d="M836 1134q79 -3 150.5 -27t133.5 -70.5t103.5 -112t58 -158.5t1.5 -204q-15 -114 -58.5 -208.5t-104 -159t-136 -110.5t-152.5 -68.5t-157 -25.5l-24 -169h-50l24 168q-79 3 -150 25.5t-133 68.5t-104 111t-59 160t-2 208q15 110 59 203.5t104 159t135 112t153 70 t157 27.5l18 120h50zM243 562q-17 -126 8 -225.5t83.5 -160.5t134.5 -94t164 -37l145 1033q-89 -4 -175.5 -38t-161 -96t-128 -161t-70.5 -221zM1219 562q17 122 -8.5 221t-83.5 161t-134.5 96t-164.5 38l-145 -1033q89 4 174.5 37.5t161 94.5t129.5 160t71 225z" glyph-name="afii10086" horiz-adv-x="1460" unicode="ф"/><glyph d="M1145 1123l-500 -560l342 -563h-75l-324 532l-473 -532h-75l500 563l-343 560h75l325 -529l472 529h76z" glyph-name="afii10087" horiz-adv-x="1183" unicode="х"/><glyph d="M1149 1123l-150 -1067h76l-31 -220h-64l24 164h-863l157 1123h64l-149 -1067h721l150 1067h65z" glyph-name="afii10088" horiz-adv-x="1295" unicode="ц"/><glyph d="M1063 1123h64l-156 -1123h-65l85 608q-59 -109 -167 -166.5t-253 -57.5q-178 0 -265.5 92.5t-63.5 257.5l54 389h64l-50 -362q-22 -151 49 -234t239 -83q143 0 254 70t153 186z" glyph-name="afii10089" horiz-adv-x="1266" unicode="ч"/><glyph d="M1669 1123h65l-158 -1123h-1438l158 1123h64l-150 -1067h623l150 1067h65l-151 -1067h623z" glyph-name="afii10090" horiz-adv-x="1871" unicode="ш"/><glyph d="M1734 1123l-150 -1067h77l-31 -220h-64l22 164h-1450l158 1123h64l-150 -1067h623l150 1067h65l-151 -1067h623l149 1067h65z" glyph-name="afii10091" horiz-adv-x="1880" unicode="щ"/><glyph d="M483 695q387 -1 554 -90t139 -280q-23 -152 -132 -238.5t-273 -86.5h-449l148 1068h-222l8 55h287zM1111 325q24 168 -123.5 243t-511.5 76l-84 -593h385q137 0 226.5 71t107.5 203z" glyph-name="afii10092" horiz-adv-x="1385" unicode="ъ"/><glyph d="M589 0h-451l158 1123h64l-59 -428q387 -1 553.5 -90t137.5 -280q-22 -152 -130.5 -238.5t-272.5 -86.5zM1363 1123h64l-156 -1123h-65zM293 644l-83 -593h384q138 0 226.5 71t108.5 203q24 168 -123.5 243t-512.5 76z" glyph-name="afii10093" horiz-adv-x="1565" unicode="ы"/><glyph d="M589 0h-451l158 1123h64l-59 -428q387 -1 553.5 -90t137.5 -280q-22 -152 -130.5 -238.5t-272.5 -86.5zM293 644l-83 -593h384q138 0 226.5 71t108.5 203q24 168 -123.5 243t-512.5 76z" glyph-name="afii10094" horiz-adv-x="1202" unicode="ь"/><glyph d="M629 1135q81 0 155.5 -21.5t139 -68t109 -112.5t63 -161.5t3.5 -209.5q-16 -114 -61.5 -210t-108.5 -162t-140 -112t-158 -67.5t-162 -21.5q-191 0 -318 78l9 64q128 -85 313 -84q90 0 177.5 30.5t165 88t135 153t78.5 215.5h-734l8 56h734q10 96 -8 177t-57.5 137.5 t-95.5 95t-121.5 57.5t-136.5 19q-185 1 -337 -84l9 66q149 77 339 77z" glyph-name="afii10095" horiz-adv-x="1275" unicode="э"/><glyph d="M1235 1135q81 0 156 -21.5t139.5 -68t109 -112.5t63 -161.5t2.5 -209.5q-16 -117 -62 -214t-109 -162.5t-141 -110.5t-158 -65.5t-161 -20.5q-79 0 -151 19.5t-136.5 62.5t-109.5 105t-66 154t-10 202h-323l-75 -532h-65l158 1123h64l-74 -532h323q19 108 66 199 t109.5 153.5t138 106.5t154.5 64.5t158 20.5zM1640 562q17 126 -10 227.5t-88.5 163.5t-142 94t-172.5 32q-91 0 -181 -32t-168 -94t-134.5 -163.5t-73.5 -227.5q-14 -104 1.5 -191.5t54 -147t96 -100.5t123 -60t137.5 -19q91 0 180.5 31t168 91.5t135.5 163t74 232.5z" glyph-name="afii10096" horiz-adv-x="1881" unicode="ю"/><glyph d="M655 1123h450l-157 -1123h-64l60 435q-231 0 -377 30l-356 -465h-72l367 478q-147 40 -208 118.5t-43 202.5q22 152 129 238t271 86zM319 799q-23 -163 122.5 -236.5t509.5 -74.5l83 583h-385q-136 0 -224.5 -72t-105.5 -200z" glyph-name="afii10097" horiz-adv-x="1244" unicode="я"/><glyph d="M695 1372l-14 -98h-103l13 98h104zM1030 1372l-13 -98h-104l14 98h103zM1211 553h-971q-13 -103 7.5 -190.5t65.5 -144.5t108.5 -97.5t132.5 -58.5t139 -18q184 0 336 84l-9 -61q-147 -78 -342 -78q-79 0 -156 20.5t-147 66t-119.5 110.5t-72 162.5t-6.5 213.5 q19 141 80 253.5t145 180.5t180 103.5t194 35.5q102 0 192.5 -36t158.5 -108t91.5 -182t-7.5 -256zM770 1079q-84 0 -165.5 -29.5t-153 -85.5t-126 -147.5t-76.5 -207.5h911q22 115 -4.5 207.5t-86 148.5t-137 85t-162.5 29z" glyph-name="afii10071" horiz-adv-x="1392" unicode="ё"/><glyph d="M974 1581l-309 -307h-68l302 307h75zM922 1123l-8 -55h-561l-150 -1068h-65l158 1123h626z" glyph-name="afii10100" horiz-adv-x="960" unicode="ѓ"/><glyph d="M318 1434h111l-11 -78h-110zM362 1123l-158 -1127q-16 -120 -69 -172t-155 -52q-45 0 -89 10l9 46q36 -6 84 -5q80 1 112 43t45 134l157 1123h64z" glyph-name="afii10105" horiz-adv-x="503" unicode="ј"/><glyph d="M1082 1581l-309 -307h-67l302 307h74zM1144 1123l-775 -560l617 -563h-93l-611 561l-79 -561h-65l158 1123h64l-78 -558l769 558h93z" glyph-name="afii10109" horiz-adv-x="1183" unicode="ќ"/><glyph d="M342 1434h571q70 0 130 -22.5t105.5 -66t66.5 -116.5t8 -164q-17 -127 -84.5 -211.5t-162.5 -123.5q111 -28 171.5 -118t39.5 -240q-13 -92 -54.5 -165.5t-100.5 -117.5t-126 -66.5t-138 -22.5h-627zM401 1377l-89 -632h494q62 0 117 17t104 52.5t83.5 98.5t46.5 148 q11 83 -5 146t-54.5 98.5t-89.5 53.5t-113 18h-494zM768 55q62 0 118 18t105 55t83 99.5t45 145.5q12 85 -4 148.5t-55 98.5t-89.5 52t-113.5 17h-553l-89 -633zM550 -248h103l-14 -97h-103z" glyph-name="uni1E04" horiz-adv-x="1371" unicode="Ḅ"/><glyph d="M1278 562q-19 -145 -80 -258.5t-146 -180.5t-182 -100.5t-198 -33.5q-100 0 -185 30.5t-152.5 102t-93.5 176.5l-44 -298h-59l216 1536h65l-101 -712q55 103 141.5 174.5t180 104t194.5 32.5q81 0 153 -22t133.5 -67.5t101.5 -113.5t56.5 -160.5t-0.5 -209.5zM676 44 q91 0 177 30.5t161.5 91.5t129 163t71.5 233q17 127 -7 228.5t-82 163t-136 93.5t-169 32q-88 0 -173 -31t-159 -91t-128.5 -157t-74.5 -218l-4 -38q-14 -103 0.5 -188.5t51 -142t90.5 -95.5t117.5 -56.5t134.5 -17.5zM562 -248h104l-15 -97h-103z" glyph-name="uni1E05" horiz-adv-x="1455" unicode="ḅ"/><glyph d="M1391 717q-25 -179 -98 -318.5t-179 -225.5t-234.5 -129.5t-273.5 -43.5h-465l201 1434h465q115 0 212.5 -28t176 -83.5t128.5 -141t69.5 -201.5t-2.5 -263zM611 58q131 0 248 40.5t213 120t162 207t89 291.5q24 164 -6.5 291.5t-104.5 206.5t-179 119.5t-236 40.5h-397 l-185 -1317h396zM598 -248h103l-14 -97h-103z" glyph-name="uni1E0C" horiz-adv-x="1526" unicode="Ḍ"/><glyph d="M177 562q19 141 79.5 253.5t145 180.5t182 103.5t199.5 35.5q154 0 271 -78.5t156 -232.5l101 712h64l-216 -1536h-58l39 298q-55 -105 -143 -176.5t-181.5 -102t-193.5 -30.5q-101 0 -188.5 33.5t-153.5 100.5t-94.5 180.5t-8.5 258.5zM634 44q90 0 174 28.5t159 86.5 t129 157t73 228l5 38q14 122 -12.5 218.5t-84 156.5t-134 91t-164.5 31q-73 0 -143 -19.5t-135.5 -61.5t-118 -101.5t-90.5 -145.5t-52 -189q-18 -131 6.5 -233t83 -163t136 -91.5t168.5 -30.5zM525 -248h104l-15 -97h-103z" glyph-name="uni1E0D" horiz-adv-x="1455" unicode="ḍ"/><glyph d="M1303 1434h67l-201 -1434h-67l96 688h-894l-96 -688h-67l201 1434h67l-97 -689h895zM568 -248h104l-15 -97h-103z" glyph-name="uni1E24" horiz-adv-x="1467" unicode="Ḥ"/><glyph d="M202 0h-64l216 1536h65l-100 -712q81 153 234.5 232t316.5 79q90 0 161 -25.5t123.5 -78.5t73 -145.5t3.5 -218.5l-94 -667h-65l93 659q15 114 -2 197t-62.5 130.5t-108 69.5t-143.5 22q-89 0 -177 -28t-168 -84.5t-138.5 -151.5t-78.5 -217zM549 -248h103l-14 -97h-103z " glyph-name="uni1E25" horiz-adv-x="1432" unicode="ḥ"/><glyph d="M409 1434l-194 -1376h857l-7 -58h-924l201 1434h67zM517 -248h104l-15 -97h-103z" glyph-name="uni1E36" horiz-adv-x="1319" unicode="Ḷ"/><glyph d="M354 1536h65l-216 -1536h-65zM85 -248h103l-14 -97h-103z" glyph-name="uni1E37" horiz-adv-x="498" unicode="ḷ"/><glyph d="M1401 1891l-309 -307h-68l302 307h75zM1628 1434h103l-201 -1434h-68l192 1359l-755 -1159h-72l-429 1159l-190 -1359h-67l201 1434h101l430 -1165z" glyph-name="uni1E3E" horiz-adv-x="1827" unicode="Ḿ"/><glyph d="M1558 1581l-310 -307h-67l302 307h75zM1695 1135q400 0 334 -476l-93 -659h-64l92 659q31 223 -46 321t-243 98q-81 0 -160.5 -27t-153 -81t-128 -145t-77.5 -208l-87 -617h-64l93 659q31 223 -46 321t-243 98q-83 0 -164.5 -28.5t-155 -85t-128.5 -152.5t-75 -219 l-84 -593h-64l158 1123h64l-41 -299q53 103 136.5 174.5t176.5 104t196 32.5q333 0 343 -330q60 152 212 241t312 89z" glyph-name="uni1E3F" horiz-adv-x="2231" unicode="ḿ"/><glyph d="M878 1682h104l-14 -98h-104zM1381 1434h67l-201 -1434h-81l-770 1343l-188 -1343h-67l201 1434h81l771 -1343z" glyph-name="uni1E44" horiz-adv-x="1546" unicode="Ṅ"/><glyph d="M778 1372h105l-15 -98h-103zM202 0h-64l158 1123h64l-41 -299q81 153 234.5 232t316.5 79q90 0 161 -25.5t123.5 -78.5t73 -145.5t3.5 -218.5l-94 -667h-65l93 659q15 114 -2 197t-62.5 130.5t-108 69.5t-143.5 22q-89 0 -177 -28t-168 -84.5t-138.5 -151.5t-78.5 -217z " glyph-name="uni1E45" horiz-adv-x="1432" unicode="ṅ"/><glyph d="M1381 1434h67l-201 -1434h-81l-770 1343l-188 -1343h-67l201 1434h81l771 -1343zM608 -248h104l-15 -97h-103z" glyph-name="uni1E46" horiz-adv-x="1546" unicode="Ṇ"/><glyph d="M202 0h-64l158 1123h64l-41 -299q81 153 234.5 232t316.5 79q90 0 161 -25.5t123.5 -78.5t73 -145.5t3.5 -218.5l-94 -667h-65l93 659q15 114 -2 197t-62.5 130.5t-108 69.5t-143.5 22q-89 0 -177 -28t-168 -84.5t-138.5 -151.5t-78.5 -217zM552 -248h103l-14 -97h-103z " glyph-name="uni1E47" horiz-adv-x="1432" unicode="ṇ"/><glyph d="M108 184q156 -136 436 -136q114 0 226.5 38.5t192 108.5t93.5 153q22 139 -84 216q-72 52 -264 109q-18 5 -101 28q-98 28 -167 59t-124 74t-76.5 100t-10.5 130q28 173 175 277t383 104q198 0 347 -98l-11 -69q-146 109 -345 108q-206 0 -333.5 -88.5t-149.5 -235.5 q-7 -45 2 -83.5t38 -68.5t61.5 -53t88.5 -45t102.5 -37.5t118.5 -36.5q96 -28 160.5 -51t122.5 -56.5t88 -72t43 -91.5t1 -122q-16 -101 -108 -184.5t-219.5 -127t-257.5 -43.5q-282 0 -440 123zM470 -248h103l-14 -97h-103z" glyph-name="uni1E62" horiz-adv-x="1309" unicode="Ṣ"/><glyph d="M119 132q72 -40 173 -63t205 -23q140 -1 254 63t129 161q7 48 -8 86t-38.5 62.5t-78.5 49t-98 37.5t-127 36q-165 43 -244.5 117t-63.5 191q19 133 140 209.5t312.5 76.5t319.5 -79l-9 -65q-129 86 -315 87q-163 0 -265 -60t-117 -170q-8 -52 10 -92.5t64 -72t104 -54.5 t145 -47q78 -22 129.5 -40.5t97.5 -44.5t70 -56t34 -72t3 -97q-12 -81 -81 -147t-168 -101t-202 -35q-110 0 -213.5 21.5t-170.5 57.5zM412 -248h103l-14 -97h-104z" glyph-name="uni1E63" horiz-adv-x="1162" unicode="ṣ"/><glyph d="M1167 1434l-7 -59h-461l-192 -1375h-67l193 1375h-460l7 59h987zM373 -345l14 97h103l-14 -97h-103z" glyph-name="uni1E6C" horiz-adv-x="1103" unicode="Ṭ"/><glyph d="M688 0h-230q-85 0 -123.5 60t-24.5 162l119 846h-181l8 55h180l32 225h64l-31 -225h344l-7 -55h-344l-118 -838q-11 -80 19.5 -128t89.5 -48h210zM377 -248h103l-14 -97h-104z" glyph-name="uni1E6D" horiz-adv-x="984" unicode="ṭ"/><glyph d="M830 1891h75l215 -307h-67zM1880 1434h70l-619 -1434h-79l-201 1332l-575 -1332h-79l-217 1434h71l200 -1340l577 1340h74l202 -1340z" glyph-name="Wgrave" horiz-adv-x="1886" unicode="Ẁ"/><glyph d="M688 1581h75l215 -307h-68zM1579 1123h71l-498 -1123h-78l-164 1028l-454 -1028h-78l-181 1123h70l162 -1051l459 1051h70l162 -1051z" glyph-name="wgrave" horiz-adv-x="1688" unicode="ẁ"/><glyph d="M1430 1891l-310 -307h-67l302 307h75zM1880 1434h70l-619 -1434h-79l-201 1332l-575 -1332h-79l-217 1434h71l200 -1340l577 1340h74l202 -1340z" glyph-name="Wacute" horiz-adv-x="1886" unicode="Ẃ"/><glyph d="M1287 1581l-309 -307h-68l302 307h75zM1579 1123h71l-498 -1123h-78l-164 1028l-454 -1028h-78l-181 1123h70l162 -1051l459 1051h70l162 -1051z" glyph-name="wacute" horiz-adv-x="1688" unicode="ẃ"/><glyph d="M880 1682h104l-14 -98h-104zM1215 1682h104l-13 -98h-104zM1880 1434h70l-619 -1434h-79l-201 1332l-575 -1332h-79l-217 1434h71l200 -1340l577 1340h74l202 -1340z" glyph-name="Wdieresis" horiz-adv-x="1886" unicode="Ẅ"/><glyph d="M737 1372h105l-15 -98h-103zM1073 1372h104l-14 -98h-103zM1579 1123h71l-498 -1123h-78l-164 1028l-454 -1028h-78l-181 1123h70l162 -1051l459 1051h70l162 -1051z" glyph-name="wdieresis" horiz-adv-x="1688" unicode="ẅ"/><glyph d="M1338 1434l-7 -59l-1101 -1317h915l-7 -58h-997l7 58l1100 1317h-914l8 59h996zM539 -345l14 97h103l-14 -97h-103z" glyph-name="uni1E92" horiz-adv-x="1435" unicode="Ẓ"/><glyph d="M1166 1123l-7 -55l-972 -1012h829l-7 -56h-911l7 56l972 1012h-829l8 55h910zM453 -345l14 97h103l-14 -97h-103z" glyph-name="uni1E93" horiz-adv-x="1264" unicode="ẓ"/><glyph d="M1227 0h-72l-96 364h-810l-199 -364h-70l780 1434h87zM281 422h762l-248 944zM503 -345l14 97h104l-15 -97h-103z" glyph-name="uni1EA0" horiz-adv-x="1362" unicode="Ạ"/><glyph d="M764 1135q76 0 134.5 -9t108.5 -29.5t81.5 -54t53 -83t23 -116t-7.5 -152.5l-97 -691h-64l25 183q-30 -32 -76 -63t-111.5 -62t-156 -50t-189.5 -19q-194 1 -282 76.5t-69 220.5q16 120 86 193.5t189 104t287 36.5t381 -12l14 94q22 207 -52.5 290.5t-288.5 84.5 q-93 1 -191 -22.5t-170 -62.5l9 63q70 37 167 58.5t196 21.5zM1031 257l41 294q-274 18 -461 10t-289.5 -72t-120.5 -197q-18 -130 61.5 -188t259.5 -58q168 0 303.5 65.5t205.5 145.5zM421 -248h103l-14 -97h-103z" glyph-name="uni1EA1" horiz-adv-x="1355" unicode="ạ"/><glyph d="M215 58h899l-8 -58h-965l201 1434h966l-9 -59h-899l-88 -630h816l-8 -57h-816zM538 -248h103l-14 -97h-104z" glyph-name="uni1EB8" horiz-adv-x="1404" unicode="Ẹ"/><glyph d="M1211 553h-971q-13 -103 7.5 -190.5t65.5 -144.5t108.5 -97.5t132.5 -58.5t139 -18q184 0 336 84l-9 -61q-147 -78 -342 -78q-79 0 -156 20.5t-147 66t-119.5 110.5t-72 162.5t-6.5 213.5q19 141 80 253.5t145 180.5t180 103.5t194 35.5q102 0 192.5 -36t158.5 -108 t91.5 -182t-7.5 -256zM770 1079q-84 0 -165.5 -29.5t-153 -85.5t-126 -147.5t-76.5 -207.5h911q22 115 -4.5 207.5t-86 148.5t-137 85t-162.5 29zM575 -345l15 97h103l-14 -97h-104z" glyph-name="uni1EB9" horiz-adv-x="1392" unicode="ẹ"/><glyph d="M571 1585q8 73 55 122t116 49q38 0 74 -20t59.5 -44t55.5 -44t60 -20q35 0 66.5 36.5t38.5 82.5h50q-11 -73 -60 -121t-113 -48q-29 0 -62.5 20t-59 43.5t-57 43t-57.5 19.5q-45 -1 -77 -36t-39 -84zM215 58h899l-8 -58h-965l201 1434h966l-9 -59h-899l-88 -630h816 l-8 -57h-816z" glyph-name="uni1EBC" horiz-adv-x="1404" unicode="Ẽ"/><glyph d="M689 1394q-45 -1 -77 -36t-40 -84l-49 1q8 73 55 122t116 49q38 0 74 -20t59.5 -44t55 -44t60.5 -20q35 0 66 36.5t39 82.5h50q-11 -73 -60 -121t-113 -48q-29 0 -63 20t-59 43.5t-56.5 43t-57.5 19.5zM1211 553h-971q-13 -103 7.5 -190.5t65.5 -144.5t108.5 -97.5 t132.5 -58.5t139 -18q184 0 336 84l-9 -61q-147 -78 -342 -78q-79 0 -156 20.5t-147 66t-119.5 110.5t-72 162.5t-6.5 213.5q19 141 80 253.5t145 180.5t180 103.5t194 35.5q102 0 192.5 -36t158.5 -108t91.5 -182t-7.5 -256zM770 1079q-84 0 -165.5 -29.5t-153 -85.5 t-126 -147.5t-76.5 -207.5h911q22 115 -4.5 207.5t-86 148.5t-137 85t-162.5 29z" glyph-name="uni1EBD" horiz-adv-x="1392" unicode="ẽ"/><glyph d="M208 0h-67l201 1434h67zM88 -248h103l-14 -97h-103z" glyph-name="uni1ECA" horiz-adv-x="505" unicode="Ị"/><glyph d="M318 1434h111l-11 -78h-110zM298 1123h64l-156 -1123h-65zM87 -248h103l-14 -97h-103z" glyph-name="uni1ECB" horiz-adv-x="503" unicode="ị"/><glyph d="M1553.5 716.5q-19.5 -142.5 -76 -263t-134 -205t-174.5 -144t-199.5 -87.5t-206 -28t-197.5 28t-174 87.5t-134 144t-75.5 205t-2 263t75 263.5t134 205.5t174.5 144t198.5 87.5t206 28t198.5 -28t174.5 -87.5t134 -144t76 -205.5t2 -263.5zM773 47q93 0 185.5 26 t179.5 80.5t158 132.5t121.5 189t69 242t-1 242t-69 189t-121 132t-156.5 80t-178.5 26t-185.5 -26t-179 -80t-158 -132t-122 -189t-69.5 -242t1 -242t69 -189t121.5 -132.5t157 -80.5t178 -26zM680 -248h103l-14 -97h-103z" glyph-name="uni1ECC" horiz-adv-x="1689" unicode="Ọ"/><glyph d="M1276 562q-16 -117 -62 -214t-109 -162.5t-140.5 -110.5t-158 -65.5t-161.5 -20.5t-154.5 20.5t-138.5 65.5t-109.5 110.5t-63 162.5t-2.5 214q16 114 61.5 209.5t108.5 161.5t140 112.5t158 68t162 21.5t155.5 -21.5t139.5 -68t109 -112.5t62.5 -161.5t2.5 -209.5z M653 44q91 0 180.5 31t168 91.5t135.5 163t74 232.5q18 126 -9 227.5t-88.5 163.5t-142 94t-172.5 32q-91 0 -181 -32t-168 -94t-134.5 -163.5t-73.5 -227.5q-14 -104 1.5 -191.5t54 -147t95.5 -100.5t122.5 -60t137.5 -19zM562 -248h104l-15 -97h-103z" glyph-name="uni1ECD" horiz-adv-x="1453" unicode="ọ"/><glyph d="M1338 1434l-127 -906q-39 -285 -174 -412t-400 -127q-264 0 -363 127.5t-60 411.5l128 906h67l-128 -911q-35 -253 48 -364.5t317 -111.5q233 0 348 111.5t150 364.5l128 911h66zM553 -248h103l-14 -97h-103z" glyph-name="uni1EE4" horiz-adv-x="1435" unicode="Ụ"/><glyph d="M1231 1123h63l-157 -1123h-65l41 299q-81 -153 -234 -231.5t-317 -78.5q-90 0 -160.5 25t-123.5 78t-73.5 146t-2.5 219l94 666h64l-93 -659q-15 -114 2.5 -197t63 -130.5t108 -69.5t143.5 -22q89 0 177 28t168 84.5t138 151.5t79 217zM520 -248h104l-15 -97h-103z" glyph-name="uni1EE5" horiz-adv-x="1433" unicode="ụ"/><glyph d="M505 1891h75l215 -307h-68zM1224 1434h75l-641 -821l-86 -613h-66l86 613l-412 821h76l378 -753z" glyph-name="Ygrave" horiz-adv-x="1235" unicode="Ỳ"/><glyph d="M442 1581h75l215 -307h-67zM1089 1123h69l-593 -1058q-35 -62 -65 -109.5t-80.5 -108.5t-103.5 -102t-127.5 -73t-156.5 -41l6 56q70 9 132 36.5t107 62.5t88.5 87t70.5 95t60 102l-299 1053h69l275 -981z" glyph-name="ygrave" horiz-adv-x="1197" unicode="ỳ"/><glyph d="M1224 1434h75l-641 -821l-86 -613h-66l86 613l-412 821h76l378 -753zM453 -248h103l-14 -97h-104z" glyph-name="uni1EF4" horiz-adv-x="1235" unicode="Ỵ"/><glyph d="M1089 1123h69l-593 -1058q-35 -62 -65 -109.5t-80.5 -108.5t-103.5 -102t-127.5 -73t-156.5 -41l6 56q70 9 132 36.5t107 62.5t88.5 87t70.5 95t60 102l-299 1053h69l275 -981zM846 -207h108l-14 -101h-109z" glyph-name="uni1EF5" horiz-adv-x="1202" unicode="ỵ"/><glyph d="M486 1585q8 73 55 122t116 49q38 0 74 -20t59.5 -44t55.5 -44t60 -20q35 0 66.5 36.5t38.5 82.5h50q-11 -73 -60 -121t-113 -48q-29 0 -62.5 20t-59 43.5t-57 43t-57.5 19.5q-45 -1 -77 -36t-39 -84zM1224 1434h75l-641 -821l-86 -613h-66l86 613l-412 821h76l378 -753z " glyph-name="uni1EF8" horiz-adv-x="1235" unicode="Ỹ"/><glyph d="M424 1275q8 73 54.5 122t116.5 49q38 0 74 -20t59.5 -44t55 -44t60.5 -20q35 0 66 36.5t38 82.5h50q-11 -73 -59.5 -121t-113.5 -48q-29 0 -62.5 20t-58.5 43.5t-57 43t-57 19.5q-45 -1 -77.5 -36t-39.5 -84zM1089 1123h69l-593 -1058q-35 -62 -65 -109.5t-80.5 -108.5 t-103.5 -102t-127.5 -73t-156.5 -41l6 56q70 9 132 36.5t107 62.5t88.5 87t70.5 95t60 102l-299 1053h69l275 -981z" glyph-name="uni1EF9" horiz-adv-x="1197" unicode="ỹ"/><glyph d="M224 591h927l-8 -59h-928z" glyph-name="endash" horiz-adv-x="1366" unicode="–"/><glyph d="M224 591h1626l-8 -59h-1627z" glyph-name="emdash" horiz-adv-x="2066" unicode="—"/><glyph d="M371 1114h-74l136 423h52z" glyph-name="quoteleft" horiz-adv-x="567" unicode="‘"/><glyph d="M412 1536h73l-136 -423h-52z" glyph-name="quoteright" horiz-adv-x="567" unicode="’"/><glyph d="M204 101h74l-137 -423h-52z" glyph-name="quotesinglbase" horiz-adv-x="561" unicode="‚"/><glyph d="M371 1113h-74l136 423h52zM580 1113h-74l136 423h52z" glyph-name="quotedblleft" horiz-adv-x="776" unicode="“"/><glyph d="M411 1536h74l-137 -423h-51zM620 1536h74l-137 -423h-51z" glyph-name="quotedblright" horiz-adv-x="776" unicode="”"/><glyph d="M204 99h74l-137 -423h-52zM413 99h73l-136 -423h-52z" glyph-name="quotedblbase" horiz-adv-x="770" unicode="„"/><glyph d="M974 1255l-7 -55h-299l-76 -534h-58l74 534h-299l7 55h300l39 281h60l-40 -281h299z" glyph-name="dagger" horiz-adv-x="1095" unicode="†"/><glyph d="M967 1200h-299l-45 -313h299l-9 -57h-298l-40 -280h-58l39 280h-299l8 57h299l44 313h-299l7 55h300l39 281h60l-40 -281h299z" glyph-name="daggerdbl" horiz-adv-x="1095" unicode="‡"/><glyph d="M243 724h329l-45 -325h-330z" glyph-name="bullet" horiz-adv-x="769" unicode="•"/><glyph d="M156 102h109l-14 -102h-110zM513 102h110l-15 -102h-110zM870 102h110l-14 -102h-111z" glyph-name="ellipsis" horiz-adv-x="1263" unicode="…"/><glyph d="M867 1008q-31 -216 -130 -326.5t-245 -110.5q-147 0 -215 110.5t-37 326.5q30 216 128.5 326t245.5 110q146 0 214.5 -110t38.5 -326zM1417 1434h57l-967 -1434h-56zM498 622q125 0 207 97.5t110 288.5q27 190 -28.5 288t-179.5 98t-206.5 -98t-108.5 -288 q-28 -190 27 -288t179 -98zM1682.5 430q-29.5 -216 -129 -326t-247 -110t-215 110t-36.5 326q30 216 128.5 326t246 110t215 -110t38 -326zM2383 430q-31 -216 -130.5 -326t-246.5 -110t-215 110t-37 326q30 216 129 326t247 110q146 0 214.5 -110t38.5 -326zM1314 44 q124 0 206.5 98t109.5 288t-28.5 288t-179.5 98t-205.5 -97.5t-108.5 -288.5q-28 -190 27 -288t179 -98zM2013 44q124 0 206.5 98t110.5 288q27 190 -28.5 288t-179.5 98t-206 -97.5t-109 -288.5q-28 -190 27 -288t179 -98z" glyph-name="perthousand" horiz-adv-x="2577" unicode="‰"/><glyph d="M689 947l-392 -384l284 -384h-77l-284 384l392 384h77z" glyph-name="guilsinglleft" horiz-adv-x="854" unicode="‹"/><glyph d="M274 947h77l284 -384l-392 -384h-77l392 384z" glyph-name="guilsinglright" horiz-adv-x="854" unicode="›"/><glyph d="M614 1434q220 0 334 -111t86 -309q-27 -188 -150 -297.5t-300 -111.5q-48 -2 -90 3l-45 -297h-54l44 361h1l34 275h69l-43 -287q29 -4 65 -4q161 0 271.5 95t133.5 261q25 172 -73 267.5t-289.5 95.5t-347.5 -87l10 67q147 79 344 79zM326 0l10 78h110l-11 -78h-109z" glyph-name="uni203D" horiz-adv-x="1129" unicode="‽"/><glyph d="M887 1434h57l-967 -1434h-56z" glyph-name="fraction" horiz-adv-x="821" unicode="⁄"/><glyph d="M896 1212q-31 -216 -130 -326t-246 -110t-214.5 110t-37.5 326t129 326.5t246 110.5q146 0 214.5 -110.5t38.5 -326.5zM526 826q125 0 207.5 98t110.5 288q27 190 -28.5 288t-179.5 98t-206.5 -97.5t-108.5 -288.5q-28 -190 26.5 -288t178.5 -98z" glyph-name="uni2070" horiz-adv-x="982" unicode="⁰"/><glyph d="M892 1062l-7 -49h-167l-32 -235h-50l33 235h-429l8 49l502 576h57l-82 -576h167zM311 1062h365l72 509z" glyph-name="uni2074" horiz-adv-x="998" unicode="⁴"/><glyph d="M401 1638h478l-8 -50h-427l-70 -325q114 28 229 27q130 -2 196 -65t49 -188q-19 -136 -105 -201t-240 -64q-180 0 -284 91l35 43q44 -41 112.5 -63t143.5 -21q135 1 201 51t83 164q14 103 -42 154t-170 51q-99 0 -237 -29l-30 16z" glyph-name="uni2075" horiz-adv-x="957" unicode="⁵"/><glyph d="M907 1069q-13 -96 -73 -165.5t-137 -100.5t-160 -31q-61 0 -116 18.5t-98 54t-64 93.5t-11 131q10 72 38.5 122t101.5 130.5t263 273.5l43 43h70l-309 -311q84 38 176 36q59 0 112 -18t94.5 -52.5t60.5 -92t9 -131.5zM543 820q71 0 135 25.5t113.5 84t60.5 139.5 q9 62 -8 111.5t-52.5 78.5t-81 44t-97.5 15q-69 0 -134 -27t-115 -85.5t-61 -136.5q-15 -120 57 -184.5t183 -64.5z" glyph-name="uni2076" horiz-adv-x="1013" unicode="⁶"/><glyph d="M329 1638h543l-7 -50q-328 -354 -461 -810h-56q129 441 443 810h-469z" glyph-name="uni2077" horiz-adv-x="898" unicode="⁷"/><glyph d="M864 1012q-11 -82 -68 -139.5t-128.5 -82t-150.5 -24.5q-45 0 -87 8.5t-80 28t-64.5 48t-39.5 70t-5 91.5q13 92 79 152t155 83q-63 20 -99.5 68.5t-27.5 119.5q14 97 97 150t195 53t181 -53t56 -150q-10 -71 -61 -119t-121 -69q84 -24 133 -83.5t36 -151.5zM402 1435 q-7 -52 20.5 -91t71.5 -56.5t95 -17.5q82 0 151.5 43.5t80.5 121.5q11 77 -43 117t-144 40q-89 0 -155 -40t-77 -117zM524 814q102 0 186 50.5t98 148.5q9 63 -23 112t-86 72t-117 23q-99 0 -184.5 -56t-98.5 -151q-10 -67 22.5 -113.5t85 -66t117.5 -19.5z" glyph-name="uni2078" horiz-adv-x="977" unicode="⁸"/><glyph d="M287 1342q13 96 73.5 165.5t137 100t159.5 30.5q61 0 116.5 -18t98 -53t63.5 -93.5t11 -131.5q-6 -44 -15 -72t-29.5 -63.5t-64 -84t-106.5 -114.5t-170 -174q-40 -40 -60 -62h-70l309 312q-84 -39 -177 -36q-47 1 -90 11.5t-81 34t-64.5 57.5t-37.5 83t-3 108z M651.5 1591q-110.5 0 -202 -65t-107.5 -184q-9 -63 8 -112t53 -78t81 -43.5t98 -14.5q109 0 200.5 66.5t108.5 181.5q16 119 -56.5 184t-183 65z" glyph-name="uni2079" horiz-adv-x="1013" unicode="⁹"/><glyph d="M743 123q-31 -216 -130 -326t-245 -110q-147 0 -215 110t-37 326q30 216 128.5 326t245.5 110q146 0 214.5 -110t38.5 -326zM374 -263q125 0 207.5 97.5t109.5 288.5q27 190 -28.5 288t-179.5 98t-206 -98t-109 -288q-28 -190 27 -288t179 -98z" glyph-name="uni2080" horiz-adv-x="982" unicode="₀"/><glyph d="M323 -257h206l-6 -50h-468l6 50h207l108 758q-102 -48 -180 -69l7 53q83 23 180 68h54z" glyph-name="uni2081" horiz-adv-x="822" unicode="₁"/><glyph d="M678 -257l-6 -50h-617l6 50q52 41 150.5 113.5t169.5 127t146 119.5t118.5 124t50.5 108q13 89 -43.5 139t-180.5 50q-138 0 -250 -82l-27 39q131 93 285 93q148 0 218 -63.5t55 -171.5q-6 -47 -41 -101.5t-80.5 -102t-115.5 -106t-125 -100t-132 -98.5t-117 -88h536z " glyph-name="uni2082" horiz-adv-x="970" unicode="₂"/><glyph d="M199 564h554l-7 -50l-404 -338q57 12 109 11q126 -2 196 -67t54 -177q-37 -260 -342 -260q-82 0 -161 26t-130 72l40 40q46 -41 116.5 -65t142.5 -23q131 1 198.5 52.5t81.5 158.5q14 98 -44 147.5t-174 49.5q-85 0 -155 -31l-22 56l420 348h-479z" glyph-name="uni2083" horiz-adv-x="965" unicode="₃"/><glyph d="M739 -24l-7 -49h-167l-31 -234h-51l33 234h-429l8 49l502 577h57l-82 -577h167zM159 -24h364l72 509z" glyph-name="uni2084" horiz-adv-x="998" unicode="₄"/><glyph d="M249 553h477l-7 -50h-427l-71 -326q114 28 230 28q130 -2 196 -65t48 -188q-19 -136 -104.5 -201t-240.5 -64q-180 0 -283 91l34 43q44 -41 113 -63t143 -21q135 1 201.5 50.5t82.5 164.5q14 103 -41.5 154t-170.5 51q-99 0 -236 -29l-30 15z" glyph-name="uni2085" horiz-adv-x="957" unicode="₅"/><glyph d="M756 -10q-13 -96 -73 -166t-137.5 -100.5t-160.5 -30.5q-61 0 -116 18.5t-98 53.5t-64 93.5t-11 131.5q10 72 39 122t101.5 130.5t263.5 273.5q29 28 43 43h69l-309 -311q84 38 176 36q59 0 112 -18t94.5 -52.5t61 -92t9.5 -131.5zM391 -259q71 0 135.5 25.5t113.5 84 t60 139.5q9 62 -7.5 111.5t-52.5 78.5t-81.5 44t-96.5 15q-69 0 -134.5 -27.5t-115 -85.5t-60.5 -136q-15 -120 56.5 -184.5t182.5 -64.5z" glyph-name="uni2086" horiz-adv-x="1013" unicode="₆"/><glyph d="M176 553h544l-7 -50q-328 -354 -461 -810h-56q129 441 442 810h-469z" glyph-name="uni2087" horiz-adv-x="898" unicode="₇"/><glyph d="M713 -68q-11 -82 -68 -139t-129 -81.5t-150 -24.5q-45 0 -87 8.5t-80 28t-64.5 47.5t-39.5 69.5t-6 91.5q13 92 79 152t156 84q-63 20 -100 68.5t-27 118.5q14 97 97 150.5t194.5 53.5t180.5 -53t56 -151q-10 -71 -61 -119t-120 -68q84 -24 133 -84t36 -152zM251 355 q-7 -52 20 -91t71 -56.5t95 -17.5q82 0 151.5 44t81.5 121q11 77 -43.5 117.5t-144.5 40.5q-89 0 -154.5 -40.5t-76.5 -117.5zM373 -265q102 0 185.5 50.5t97.5 147.5q9 63 -23 112t-85.5 72t-117.5 23q-99 0 -184 -55.5t-99 -151.5q-10 -67 23 -113t85.5 -65.5t117.5 -19.5 z" glyph-name="uni2088" horiz-adv-x="977" unicode="₈"/><glyph d="M135 263q13 96 73.5 165.5t137.5 100t160 30.5q61 0 116.5 -18.5t98 -53t63.5 -93t11 -131.5q-6 -44 -15.5 -72t-30 -63.5t-64 -84t-106.5 -114.5t-169 -175q-39 -40 -61 -61h-69l309 312q-84 -39 -177 -37q-47 1 -90 12t-81 34.5t-64.5 57t-38 83t-3.5 108.5zM499.5 512 q-110.5 0 -201.5 -65t-108 -184q-9 -63 8 -112.5t53.5 -78t81.5 -43.5t97 -15q109 0 201 66.5t108 182.5q16 119 -56.5 184t-183 65z" glyph-name="uni2089" horiz-adv-x="1013" unicode="₉"/><glyph d="M1095 1384q-101 0 -202.5 -32t-193.5 -93.5t-166.5 -160.5t-115.5 -224h838l-7 -49h-846q-14 -53 -21 -108q-8 -57 -9 -109h846l-8 -49h-837q6 -125 52.5 -223.5t121.5 -160t167 -94t193 -32.5q196 -2 374 105l-10 -69q-176 -96 -373 -96q-115 0 -218 35.5t-186 105 t-134 180t-56 249.5h-128l7 49h121q1 51 9 109q7 55 22 108h-121l7 49h127q44 139 126 250t184.5 180t216 105t228.5 36q196 0 345 -96l-9 -69q-147 106 -344 104z" glyph-name="Euro" horiz-adv-x="1557" unicode="€"/><glyph d="M342 1434h987l-7 -57h-987zM1285 1120l-7 -56h-462l-148 -1064h-67l149 1064h-459l7 56h987z" glyph-name="uni20B8" horiz-adv-x="1426" unicode="₸"/><glyph d="M1322 1434l-7 -51h-261q89 -48 130.5 -138t27.5 -212h55l-9 -50h-54q-30 -142 -133 -234t-291 -139l292 -610h-71l-284 596q-201 -41 -499 -41l9 57q438 0 653 88t258 283h-859l8 50h859q18 163 -70.5 253t-256.5 90h-485l8 58h980z" glyph-name="uni20B9" horiz-adv-x="1419" unicode="₹"/><glyph d="M1231 722h62q-26 -180 -93.5 -319.5t-169 -226.5t-227 -131.5t-269.5 -44.5h-393l139 985l-224 -20l7 50l223 20l15 110l-221 -21l6 51l222 20l34 239h67l-33 -233l729 66l-7 -50l-729 -66l-16 -110l729 66l-7 -50l-729 -66l-131 -931h323q131 0 244.5 40t206 119.5 t155.5 207.5t87 295z" glyph-name="uni20BA" horiz-adv-x="1447" unicode="₺"/><glyph d="M839 1240q250 -6 343 -134t54 -406l-98 -700h-67l99 706q34 246 -43.5 358t-296.5 118l-165 -1182h-51l166 1182q-220 -6 -329.5 -118.5t-143.5 -357.5l-99 -706h-67l99 700q39 278 168 406t380 134l27 194h50z" glyph-name="uni20BC" horiz-adv-x="1435" unicode="₼"/><glyph d="M1223 1065q-17 -127 -84.5 -211.5t-162.5 -123.5q111 -28 171.5 -118t39.5 -240q-13 -92 -54.5 -165.5t-100.5 -117.5t-126 -66.5t-138 -22.5h-30l-25 -176h-51l25 176h-301l-26 -176h-51l26 176h-194l201 1434h193l24 176h51l-24 -176h302l24 176h52l-25 -177 q138 -8 223 -103t61 -265zM806 745q62 0 117 17t104 52.5t83.5 98.5t46.5 148q11 83 -5 146t-54.5 98.5t-89.5 53.5t-113 18h-494l-89 -632h494zM1119 373q12 85 -4 148.5t-55 98.5t-89.5 52t-113.5 17h-553l-89 -633l553 -1q62 0 118 18t105 55t83 99.5t45 145.5z" glyph-name="uni20BF" horiz-adv-x="1371" unicode="₿"/><glyph d="M899 1327q-87 58 -223 58q-137 -1 -244 -89.5t-131 -260.5q-12 -89 5.5 -158t57.5 -109.5t94.5 -61.5t119.5 -21q133 0 238 57l-7 -54q-105 -54 -238 -54q-72 0 -135 24.5t-112.5 72t-72 126.5t-7.5 178q13 98 58 177t107.5 126.5t133 72.5t142.5 25q135 0 221 -55z M1480 1434h57l-967 -1434h-56zM1839 393q-14 -101 -59 -180.5t-108 -126t-133 -70t-141.5 -23.5t-134.5 23.5t-112.5 70t-72 126t-8.5 180.5q13 99 57.5 177.5t107 126t133.5 72.5t142.5 25t135 -25t112.5 -72.5t71.5 -126t9.5 -177.5zM1405 43q61 0 121 21t114 62t93 110 t51 157q12 86 -7.5 154.5t-61 110t-96 63.5t-116 22t-122.5 -22t-114.5 -63.5t-91 -110t-50.5 -154.5q-12 -88 6.5 -157t61 -110t96.5 -62t116 -21z" glyph-name="afii61248" horiz-adv-x="2039" unicode="℅"/><glyph d="M806 84q-132 -93 -249 -94q-139 -4 -197 74.5t-38 229.5l31 226q-82 -37 -189 -69l4 44q91 33 193 83l73 516q17 132 88.5 229t178.5 115q99 16 168.5 -36t78.5 -154q39 -376 -530 -703l-35 -244q-28 -256 188 -256q115 0 211 82zM425 602q228 135 356 294t114 334 q-6 83 -61 126.5t-137 26.5q-84 -18 -135 -100.5t-66 -195.5z" glyph-name="afii61289" horiz-adv-x="1050" unicode="ℓ"/><glyph d="M2547 944q-17 -127 -73.5 -227t-135.5 -158t-166.5 -88t-176.5 -30q-71 0 -135.5 18t-122 57.5t-96 97t-55 143t-2.5 187.5q14 99 53.5 183t95 142t123.5 98t138.5 59t141.5 19q90 0 169.5 -31t141 -90t89.5 -157.5t11 -222.5zM1381 1434h67l-201 -1434h-81l-770 1343 l-188 -1343h-67l201 1434h81l771 -1343zM2003 496q79 0 155.5 27t145.5 79t118 140.5t64 201.5q15 110 -8.5 197.5t-77 140.5t-123 81.5t-149.5 28.5q-79 0 -157 -28.5t-145.5 -81.5t-116 -140.5t-63.5 -197.5q-15 -113 8.5 -201.5t77.5 -141t123 -79t148 -26.5zM1490 252 h956l-7 -53h-955z" glyph-name="afii61352" horiz-adv-x="2713" unicode="№"/><glyph d="M827 -22q-213 0 -371.5 98.5t-231 267.5t-44.5 373q22 154 98 290t189 234.5t261 156t307.5 57.5t292 -57.5t218 -155.5t123.5 -235t17 -290q-22 -153 -98.5 -289t-189.5 -235t-262 -157t-309 -58zM836.5 29q200.5 0 373.5 89.5t285 247t138 351.5q20 145 -14 272.5 t-113.5 218.5t-202.5 144t-273.5 53t-288.5 -53t-243 -144t-175.5 -218.5t-91.5 -272.5q-27 -194 41 -351.5t216 -247t348.5 -89.5zM1074 1138q117 0 181 -70t48 -183q-13 -97 -75.5 -157t-186 -90t-321.5 -30l-43 -311h-52l117 841h332zM1250 885q12 90 -37 147.5 t-146 57.5h-279l-61 -436q180 0 291.5 26t166 75.5t65.5 129.5z" glyph-name="uni2117" horiz-adv-x="1821" unicode="℗"/><glyph d="M265 835q80 -71 219 -71q90 0 156 35.5t75 96.5q10 65 -38 97.5t-171 68.5q-211 60 -192 192q13 89 83 144.5t187 55.5q108 0 194 -59l-8 -59q-80 69 -193 69q-97 0 -148.5 -43t-60.5 -109q-8 -55 40.5 -90t148.5 -62q121 -34 171.5 -79.5t38.5 -127.5 q-12 -84 -92.5 -131t-197.5 -47q-142 0 -222 55zM1666 1434h90l-100 -717h-52l92 662l-369 -562h-46l-213 562l-92 -662h-53l100 717h90l200 -551z" glyph-name="uni2120" horiz-adv-x="1851" unicode="℠"/><glyph d="M833 1434l-7 -49h-220l-94 -668h-53l94 668h-220l6 49h494zM1626 1434h90l-100 -717h-53l93 662l-370 -562h-46l-212 562l-93 -662h-53l100 717h90l200 -551z" glyph-name="trademark" horiz-adv-x="1811" unicode="™"/><glyph d="M446 624h207l-6 -51h-468l6 51h207l108 757q-102 -48 -181 -68l8 53q83 23 180 68h54zM1346 1434h56l-967 -1434h-55zM1556 240q-8 -61 -42.5 -110.5t-85 -77.5t-106 -43t-113.5 -15q-56 0 -107.5 15t-93.5 43t-63.5 77t-12.5 111q13 92 79 152t156 83q-63 20 -100 69 t-27 119q13 97 97 150t195.5 53t180.5 -53t56 -150q-10 -70 -61 -118.5t-120 -69.5q83 -24 132 -83.5t36 -151.5zM1095 663q-11 -78 46.5 -121.5t139.5 -43.5q51 0 100 17t86.5 56t45.5 92q10 77 -44 117t-143 40q-90 0 -155.5 -40t-75.5 -117zM1217 42q101 0 184.5 50.5 t97.5 148.5q9 63 -23 111.5t-85.5 71.5t-116.5 23q-100 0 -185 -55.5t-99 -150.5q-10 -67 23 -113.5t86 -66t118 -19.5z" glyph-name="oneeighth" horiz-adv-x="1776" unicode="⅛"/><glyph d="M322 1434h554l-7 -51l-404 -337q51 11 108 11q126 -2 196.5 -67.5t54.5 -178.5q-37 -260 -342 -259q-82 0 -161 26t-131 72l40 40q46 -41 117 -65t142 -23q131 1 199 53t82 157q14 98 -44 148.5t-174 50.5q-85 0 -155 -32l-22 55l421 349h-481zM1453 1434h56l-966 -1434 h-57zM1708 240q-8 -61 -43 -110.5t-85 -77.5t-106 -43t-113 -15q-56 0 -108 15t-94 43t-63 77t-12 111q12 92 78.5 152t156.5 83q-63 20 -100 69t-27 119q13 97 96.5 150t195 53t181 -53t55.5 -150q-10 -70 -60.5 -118.5t-120.5 -69.5q84 -24 133 -83.5t36 -151.5zM1246 663 q-11 -78 47 -121.5t140 -43.5q51 0 99.5 17t86.5 56t46 92q10 77 -44 117t-143 40q-90 0 -156 -40t-76 -117zM1368 42q101 0 184.5 50.5t98.5 148.5q13 95 -56 150.5t-170 55.5q-63 0 -123 -23t-105.5 -71.5t-54.5 -111.5q-10 -67 22.5 -113.5t85.5 -66t118 -19.5z" glyph-name="threeeighths" horiz-adv-x="1929" unicode="⅜"/><glyph d="M373 1434h477l-7 -51h-427l-71 -325q114 28 229 27q130 -2 196.5 -65t48.5 -187q-19 -136 -104.5 -201.5t-240.5 -64.5q-180 0 -284 91l35 43q44 -41 113 -63t143 -21q135 1 201.5 51t82.5 165q14 103 -41.5 153.5t-170.5 50.5q-99 0 -237 -28l-29 15zM1460 1434h57 l-967 -1434h-55zM1687 240q-8 -61 -43 -110.5t-85.5 -77.5t-106 -43t-113.5 -15q-45 0 -87 8.5t-79.5 28t-64.5 47.5t-39.5 69.5t-5.5 92.5q13 92 79 152t155 83q-63 20 -100 69t-27 119q14 97 97.5 150t195 53t180.5 -53t56 -150q-10 -71 -61 -119t-120 -69 q84 -24 133 -83.5t36 -151.5zM1225 663q-10 -78 47.5 -121.5t138.5 -43.5q82 0 151.5 43.5t81.5 121.5q11 77 -43.5 117t-144.5 40t-155.5 -40t-75.5 -117zM1347 42q102 0 185.5 50.5t97.5 148.5q9 63 -23 111.5t-86 71.5t-117 23q-100 0 -184.5 -55.5t-98.5 -150.5 q-10 -67 23 -113.5t85.5 -66t117.5 -19.5z" glyph-name="fiveeighths" horiz-adv-x="1908" unicode="⅝"/><glyph d="M1206 1434h58l-967 -1434h-56zM300 1434h544l-7 -51q-328 -354 -461 -810h-57q129 441 443 810h-469zM1435 240q-11 -82 -68.5 -139.5t-129.5 -82t-151 -24.5q-45 0 -87 8.5t-79.5 28t-64.5 47.5t-39.5 69.5t-5.5 92.5q13 92 79 152t155 83q-63 20 -99.5 68.5 t-25.5 119.5q13 97 96 150t194 53q113 0 182 -53t55 -150q-10 -71 -60.5 -119t-119.5 -69q83 -24 132.5 -83.5t36.5 -151.5zM972 663q-7 -52 20 -91.5t71 -56.5t95 -17q82 0 151.5 43.5t81.5 121.5q11 77 -43.5 117t-144.5 40q-89 0 -154.5 -40t-76.5 -117zM1094 42 q102 0 185.5 50.5t97.5 148.5q9 63 -23 111.5t-86 71.5t-117 23q-99 0 -184 -55.5t-99 -150.5q-10 -67 23 -113.5t86.5 -66t116.5 -19.5z" glyph-name="seveneighths" horiz-adv-x="1654" unicode="⅞"/><glyph d="M771 0l-529 717l529 717h76l-507 -684h1335v-65h-1335l506 -685h-75z" glyph-name="arrowleft" horiz-adv-x="1876" unicode="←"/><glyph d="M1702 904v-75l-685 505v-1334h-65v1334l-684 -506v76l717 530z" glyph-name="arrowup" horiz-adv-x="1883" unicode="↑"/><glyph d="M1150 0h-75l506 685h-1335v65h1335l-507 684h76l529 -717z" glyph-name="arrowright" horiz-adv-x="1876" unicode="→"/><glyph d="M1659 529l-717 -529l-717 529v76l684 -506v1335h65v-1335l685 505v-75z" glyph-name="arrowdown" horiz-adv-x="1883" unicode="↓"/><glyph d="M1713 1434l530 -717l-530 -717h-76l506 685h-1803l506 -685h-75l-529 717l529 717h76l-507 -684h1803l-506 684h76z" glyph-name="arrowboth" horiz-adv-x="2440" unicode="↔"/><glyph d="M1032 -215l685 505v-75l-717 -529l-716 529v76l684 -506v1659l-684 -506v76l716 529l717 -529v-75l-685 505v-1659z" glyph-name="arrowupdn" horiz-adv-x="1985" unicode="↕"/><glyph d="M1452 361l-46 -45l-1007 1013v-948l-57 39v1014h1014l38 -59h-950z" glyph-name="uni2196" horiz-adv-x="1700" unicode="↖"/><glyph d="M373 1434h1013v-1014l-58 -39v948l-1006 -1013l-46 45l1008 1014h-950z" glyph-name="uni2197" horiz-adv-x="1626" unicode="↗"/><glyph d="M1345 1053l58 -39v-1014h-1014l-39 58h950l-1007 1014l45 45l1007 -1013v949z" glyph-name="uni2198" horiz-adv-x="1700" unicode="↘"/><glyph d="M1394 1072l-1008 -1014h949l-38 -58h-1013v1014l57 39v-949l1007 1013z" glyph-name="uni2199" horiz-adv-x="1626" unicode="↙"/><glyph d="M722 1348q74 -5 141.5 -34t130.5 -87.5t102 -148t56 -217.5t-7 -295q-19 -146 -78 -260.5t-139.5 -181.5t-169 -100.5t-178.5 -33.5q-71 0 -136.5 18t-123 57t-96.5 96.5t-55 142.5t-2 188q17 124 69 221.5t124.5 157t157 90t174.5 30.5q129 -1 235 -45.5t164 -130.5 q-8 120 -44.5 211.5t-92 147t-118 84.5t-131.5 36zM588 45q81 0 157.5 30t146 90t119.5 163t68 235q12 90 14 153q-39 112 -149.5 166.5t-259.5 54.5q-80 0 -152.5 -27t-135 -80.5t-106 -140t-59.5 -197.5q-15 -114 8.5 -202.5t77 -140.5t122.5 -78t149 -26z" glyph-name="partialdiff" horiz-adv-x="1320" unicode="∂"/><glyph d="M1365 1078l-142 -125q131 -165 99 -391q-23 -156 -118 -288t-237.5 -208.5t-297.5 -76.5q-112 0 -207.5 40.5t-163.5 113.5l-152 -133l-31 36l153 134q-122 163 -91 382q23 156 117.5 287.5t237.5 208.5t298 77q218 0 361 -146l142 125zM229 562q-28 -196 82 -344 l837 733q-130 130 -326 130q-141 0 -270.5 -69.5t-216.5 -189t-106 -260.5zM1269 562q29 204 -89 353l-838 -734q131 -139 335 -139q141 0 270 69.5t216 189.5t106 261z" glyph-name="emptyset" horiz-adv-x="1499" unicode="∅"/><glyph d="M1323 1434l-230 -1641h-67l222 1582h-848l-222 -1582h-66l230 1641h981z" glyph-name="product" horiz-adv-x="1420" unicode="∏"/><glyph d="M1174 -191l-10 -59h-1059l9 56l628 815l-400 813l8 57h1040l-9 -59h-960l398 -811l-625 -812h980z" glyph-name="summation" horiz-adv-x="1498" unicode="∑"/><glyph d="M1068 689h-830l8 55h830z" glyph-name="minus" horiz-adv-x="1269" unicode="−"/><glyph d="M1720 1434l-908 -1741h-83l-137 879h-372l9 58h418l133 -875l876 1679h64z" glyph-name="radical" horiz-adv-x="1817" unicode="√"/><glyph d="M1303 873q113 0 176 -88t45 -223q-18 -129 -107.5 -215.5t-199.5 -86.5q-95 0 -186 71t-186 195q-275 -266 -446 -266q-111 0 -175.5 86.5t-46.5 215.5q18 134 107 222.5t201 88.5q88 0 176.5 -64t194.5 -203q144 139 251.5 203t195.5 64zM409 315q48 0 96 17.5 t105.5 58.5t95 74t110.5 98q-43 52 -63 76t-53 61t-54 53t-50.5 35t-57 25.5t-59.5 6.5q-90 0 -158.5 -75t-83.5 -183q-14 -102 32.5 -174.5t139.5 -72.5zM1222 315q93 0 160.5 72.5t81.5 174.5q15 108 -33.5 183t-138.5 75q-37 0 -76 -13t-69.5 -29t-81 -57t-81.5 -67.5 t-100 -90.5q43 -53 65.5 -79t61 -65t67 -57t67 -32.5t77.5 -14.5z" glyph-name="infinity" horiz-adv-x="1699" unicode="∞"/><glyph d="M720 1447q49 0 93 -12l-13 -44q-37 5 -85 4q-79 -1 -111.5 -42.5t-45.5 -133.5l-169 -1204q-16 -121 -69 -173t-155 -51q-52 0 -95 11l13 45q38 -6 86 -5q80 1 112 42.5t45 134.5l169 1203q16 121 69 173t156 52z" glyph-name="integral" horiz-adv-x="868" unicode="∫"/><glyph d="M255 816q9 75 57 124.5t119 49.5q38 0 75 -20t61 -44t56 -44t62 -20q36 0 66.5 37t36.5 83h55q-10 -75 -60.5 -124.5t-116.5 -49.5q-29 0 -63.5 20t-60 44t-57.5 44t-59 20q-45 -1 -77.5 -36.5t-39.5 -84.5zM207 471q8 75 56.5 125t119.5 50q38 0 75 -20t61 -44.5 t55.5 -44.5t61.5 -20q36 0 67 37t38 83h55q-11 -75 -62 -124t-117 -49q-30 0 -64 20t-59.5 44t-58 43.5t-58.5 19.5q-45 -1 -77.5 -36t-39.5 -85z" glyph-name="approxequal" horiz-adv-x="1003" unicode="≈"/><glyph d="M1091 851h-287l-239 -268h488l-9 -57h-529l-219 -245h-55l219 245h-246l8 57h288l240 268h-490l8 56h532l219 246h54l-219 -246h245z" glyph-name="notequal" horiz-adv-x="1269" unicode="≠"/><glyph d="M1145 936l-8 -60l-839 -235l773 -235l-9 -61l-838 255l9 60l4 22zM157 116l8 57h872l-7 -57h-873z" glyph-name="lessequal" horiz-adv-x="1311" unicode="≤"/><glyph d="M1110 682l-8 -60l-3 -22l-910 -255l10 61l838 235l-773 235l8 60zM157 116l9 57h873l-9 -57h-873z" glyph-name="greaterequal" horiz-adv-x="1312" unicode="≥"/><glyph d="M1060 -154q-177 0 -338.5 69.5t-277.5 185.5t-185.5 278t-69.5 339t69.5 338t185.5 277.5t277.5 185t338.5 68.5t338.5 -68.5t277.5 -185t185 -277.5t69 -338t-69 -339t-185 -278t-277.5 -185.5t-338.5 -69.5zM1060 -103q223 0 411.5 109.5t298.5 298.5t110 413 q0 223 -110 411.5t-298.5 298t-411.5 109.5q-167 0 -319 -64.5t-261.5 -174t-174.5 -261.5t-65 -319q0 -168 65 -320t174.5 -262t261.5 -174.5t319 -64.5zM1086 337h207v-50h-468v50h207v758q-95 -48 -170 -69v53q83 24 170 68h54v-810z" glyph-name="uni2460" horiz-adv-x="2074" unicode="①"/><glyph d="M1060 -154q-177 0 -338.5 69.5t-277.5 185.5t-185.5 278t-69.5 339t69.5 338t185.5 277.5t277.5 185t338.5 68.5t338.5 -68.5t277.5 -185t185 -277.5t69 -338t-69 -339t-185 -278t-277.5 -185.5t-338.5 -69.5zM1060 -103q223 0 411.5 109.5t298.5 298.5t110 413 q0 223 -110 411.5t-298.5 298t-411.5 109.5q-167 0 -319 -64.5t-261.5 -174t-174.5 -261.5t-65 -319q0 -168 65 -320t174.5 -262t261.5 -174.5t319 -64.5zM1367 326v-51h-617v51q46 41 134.5 113.5t151 127t129 119.5t102 124t35.5 109q0 89 -63.5 139t-187.5 50 q-136 0 -240 -82l-32 38q118 94 272 94q148 0 226.5 -64t79.5 -172q0 -47 -26.5 -101.5t-66 -101.5t-100 -105.5t-110.5 -100.5t-118.5 -99t-104.5 -88h536z" glyph-name="uni2461" horiz-adv-x="2074" unicode="②"/><glyph d="M1060 -154q-177 0 -338.5 69.5t-277.5 185.5t-185.5 278t-69.5 339t69.5 338t185.5 277.5t277.5 185t338.5 68.5t338.5 -68.5t277.5 -185t185 -277.5t69 -338t-69 -339t-185 -278t-277.5 -185.5t-338.5 -69.5zM1060 -103q223 0 411.5 109.5t298.5 298.5t110 413 q0 223 -110 411.5t-298.5 298t-411.5 109.5q-167 0 -319 -64.5t-261.5 -174t-174.5 -261.5t-65 -319q0 -168 65 -320t174.5 -262t261.5 -174.5t319 -64.5zM774 1158h554v-50l-357 -338q52 11 107 10q126 -2 206 -67t80 -177q0 -260 -305 -261q-82 1 -165 27.5t-141 72.5 l34 39q52 -41 126 -65t146 -23q131 1 191 52.5t60 158.5q0 98 -65.5 147.5t-181.5 49.5q-86 0 -150 -31l-29 56l370 349h-480v50z" glyph-name="uni2462" horiz-adv-x="2074" unicode="③"/><glyph d="M1060 -154q-177 0 -338.5 69.5t-277.5 185.5t-185.5 278t-69.5 339t69.5 338t185.5 277.5t277.5 185t338.5 68.5t338.5 -68.5t277.5 -185t185 -277.5t69 -338t-69 -339t-185 -278t-277.5 -185.5t-338.5 -69.5zM1060 -103q223 0 411.5 109.5t298.5 298.5t110 413 q0 223 -110 411.5t-298.5 298t-411.5 109.5q-167 0 -319 -64.5t-261.5 -174t-174.5 -261.5t-65 -319q0 -168 65 -320t174.5 -262t261.5 -174.5t319 -64.5zM1380 570v-49h-166v-234h-50v234h-428v49l421 577h57v-577h166zM800 570h364v509z" glyph-name="uni2463" horiz-adv-x="2074" unicode="④"/><glyph d="M1060 -154q-177 0 -338.5 69.5t-277.5 185.5t-185.5 278t-69.5 339t69.5 338t185.5 277.5t277.5 185t338.5 68.5t338.5 -68.5t277.5 -185t185 -277.5t69 -338t-69 -339t-185 -278t-277.5 -185.5t-338.5 -69.5zM1060 -103q223 0 411.5 109.5t298.5 298.5t110 413 q0 223 -110 411.5t-298.5 298t-411.5 109.5q-167 0 -319 -64.5t-261.5 -174t-174.5 -261.5t-65 -319q0 -168 65 -320t174.5 -262t261.5 -174.5t319 -64.5zM829 1150h478v-50h-427l-26 -326q115 29 227 28q129 -2 204 -65t75 -188q0 -136 -76.5 -200.5t-230.5 -64.5 q-182 0 -296 91l27 43q51 -41 123 -63t146 -21q135 1 194 51t60 165q0 102 -63.5 153t-178.5 51q-105 0 -232 -29l-33 15z" glyph-name="uni2464" horiz-adv-x="2074" unicode="⑤"/><glyph d="M1060 -154q-177 0 -338.5 69.5t-277.5 185.5t-185.5 278t-69.5 339t69.5 338t185.5 277.5t277.5 185t338.5 68.5t338.5 -68.5t277.5 -185t185 -277.5t69 -338t-69 -339t-185 -278t-277.5 -185.5t-338.5 -69.5zM1060 -103q223 0 411.5 109.5t298.5 298.5t110 413 q0 223 -110 411.5t-298.5 298t-411.5 109.5q-167 0 -319 -64.5t-261.5 -174t-174.5 -261.5t-65 -319q0 -168 65 -320t174.5 -262t261.5 -174.5t319 -64.5zM1390 580q0 -73 -29.5 -131.5t-77 -93t-105 -53t-119 -18.5t-118.5 18.5t-105.5 53t-77.5 93t-29 131.5q0 98 45 169 t277 347l45 54h68l-265 -312q79 39 172 36q59 0 114.5 -17.5t102 -52.5t74.5 -92.5t28 -131.5zM1059.5 331q110.5 0 192.5 65t82 184q0 122 -81.5 185t-192.5 63q-70 0 -131 -27t-103 -85t-42 -136q1 -119 83 -184t192.5 -65z" glyph-name="uni2465" horiz-adv-x="2074" unicode="⑥"/><glyph d="M1060 -154q-177 0 -338.5 69.5t-277.5 185.5t-185.5 278t-69.5 339t69.5 338t185.5 277.5t277.5 185t338.5 68.5t338.5 -68.5t277.5 -185t185 -277.5t69 -338t-69 -339t-185 -278t-277.5 -185.5t-338.5 -69.5zM1060 -103q223 0 411.5 109.5t298.5 298.5t110 413 q0 223 -110 411.5t-298.5 298t-411.5 109.5q-167 0 -319 -64.5t-261.5 -174t-174.5 -261.5t-65 -319q0 -168 65 -320t174.5 -262t261.5 -174.5t319 -64.5zM787 1086h544v-50q-279 -355 -347 -810h-56q67 440 328 810h-469v50z" glyph-name="uni2466" horiz-adv-x="2074" unicode="⑦"/><glyph d="M1060 -154q-177 0 -338.5 69.5t-277.5 185.5t-185.5 278t-69.5 339t69.5 338t185.5 277.5t277.5 185t338.5 68.5t338.5 -68.5t277.5 -185t185 -277.5t69 -338t-69 -339t-185 -278t-277.5 -185.5t-338.5 -69.5zM1060 -103q223 0 411.5 109.5t298.5 298.5t110 413 q0 223 -110 411.5t-298.5 298t-411.5 109.5q-167 0 -319 -64.5t-261.5 -174t-174.5 -261.5t-65 -319q0 -168 65 -320t174.5 -262t261.5 -174.5t319 -64.5zM1371 526q0 -61 -28 -110t-74 -77.5t-100 -43t-111 -14.5q-56 0 -110 14.5t-100 43t-74.5 77.5t-28.5 110 q0 92 58 152t145 84q-67 22 -110.5 70t-43.5 117q0 97 76 150.5t187.5 53.5t188 -53t76.5 -151q1 -70 -43 -118t-111 -69q86 -24 144.5 -84t58.5 -152zM849 949q0 -78 64 -121.5t145 -43.5q82 0 146 43.5t64 121.5q0 77 -60 117.5t-150 40.5q-89 0 -149 -40.5t-60 -117.5z M1058 329q102 0 178.5 50.5t76.5 147.5q0 95 -77.5 151t-177.5 56q-99 0 -176.5 -55.5t-77.5 -151.5q0 -67 39.5 -113t95.5 -65.5t119 -19.5z" glyph-name="uni2467" horiz-adv-x="2074" unicode="⑧"/><glyph d="M1060 -154q-177 0 -338.5 69.5t-277.5 185.5t-185.5 278t-69.5 339t69.5 338t185.5 277.5t277.5 185t338.5 68.5t338.5 -68.5t277.5 -185t185 -277.5t69 -338t-69 -339t-185 -278t-277.5 -185.5t-338.5 -69.5zM1060 -103q223 0 411.5 109.5t298.5 298.5t110 413 q0 223 -110 411.5t-298.5 298t-411.5 109.5q-167 0 -319 -64.5t-261.5 -174t-174.5 -261.5t-65 -319q0 -168 65 -320t174.5 -262t261.5 -174.5t319 -64.5zM729 854q0 73 29 131t77.5 93t105.5 53.5t118.5 18.5t119 -18.5t105 -53.5t77 -93t29.5 -131q0 -55 -7.5 -87.5 t-42.5 -88.5t-94 -128.5t-176 -211.5q-30 -35 -46 -54h-70l266 312q-77 -39 -172 -37q-59 0 -114.5 18t-102 53t-74.5 92.5t-28 131.5zM1060 1103q-112 0 -194 -65t-82 -184q0 -122 82 -185.5t194 -63.5q109 0 191.5 66t82.5 183q-1 119 -82 184t-192 65z" glyph-name="uni2468" horiz-adv-x="2074" unicode="⑨"/><glyph d="M1060 -154q-177 0 -338.5 69.5t-277.5 185.5t-185.5 278t-69.5 339t69.5 338t185.5 277.5t277.5 185t338.5 68.5t338.5 -68.5t277.5 -185t185 -277.5t69 -338t-69 -339t-185 -278t-277.5 -185.5t-338.5 -69.5zM1060 -103q223 0 411.5 109.5t298.5 298.5t110 413 q0 223 -110 411.5t-298.5 298t-411.5 109.5q-167 0 -319 -64.5t-261.5 -174t-174.5 -261.5t-65 -319q0 -168 65 -320t174.5 -262t261.5 -174.5t319 -64.5zM1372 717q1 -216 -83 -326t-231 -110q-146 0 -230 110t-84 326t83.5 326t230.5 110t230.5 -110t83.5 -326zM1058 331 q124 0 192 97.5t68 288t-68 288.5t-192 98q-123 0 -190.5 -98.5t-67.5 -288t67.5 -287.5t190.5 -98z" glyph-name="uni24EA" horiz-adv-x="2074" unicode="⓪"/><glyph d="M1010 -105q-167 0 -319 65t-262.5 175t-175.5 262.5t-65 320.5t65 320t175.5 261.5t262.5 174.5t319 65q168 0 320 -65t262 -174.5t175 -261.5t65 -320t-65 -320.5t-175 -262.5t-262 -175t-320 -65zM1324 717q0 216 -83 326t-231 110q-146 0 -230 -110t-84 -326 t83.5 -326t230.5 -110t231 110t83 326zM1010 331q-124 0 -192 97.5t-68 288t68 288.5t192 98q125 0 193.5 -98t68.5 -288.5t-68.5 -288t-193.5 -97.5z" glyph-name="uni24FF" horiz-adv-x="1976" unicode="⓿"/><glyph d="M349 1485h1536v-1536h-1536v1536z" glyph-name="filledbox" horiz-adv-x="2190" unicode="■"/><glyph d="M342 1434h1434v-1434h-1434v1434zM392 1383v-1333h1333v1333h-1333z" glyph-name="H22073" horiz-adv-x="2073" unicode="□"/><glyph d="M1276 717l-579 -717h-79l-376 717l577 717h79zM1206 717l-354 668l-541 -668l354 -670z" glyph-name="lozenge" horiz-adv-x="1473" unicode="◊"/><glyph d="M1060 -154q-177 0 -338.5 69.5t-277.5 185.5t-185.5 278t-69.5 339t69.5 338t185.5 277.5t277.5 185t338.5 68.5t338.5 -68.5t277.5 -185t185 -277.5t69 -338t-69 -339t-185 -278t-277.5 -185.5t-338.5 -69.5zM1060 -103q223 0 411.5 109.5t298.5 298.5t110 413 q0 223 -110 411.5t-298.5 298t-411.5 109.5q-167 0 -319 -64.5t-261.5 -174t-174.5 -261.5t-65 -319q0 -168 65 -320t174.5 -262t261.5 -174.5t319 -64.5z" glyph-name="circle" horiz-adv-x="2074" unicode="○"/><glyph d="M1010 -105q-167 0 -319 65t-262.5 175t-175.5 262.5t-65 320.5t65 320t175.5 261.5t262.5 174.5t319 65q168 0 320 -65t262 -174.5t175 -261.5t65 -320t-65 -320.5t-175 -262.5t-262 -175t-320 -65z" glyph-name="H18533" horiz-adv-x="1976" unicode="●"/><glyph d="M1060 -154q-177 0 -338.5 69t-278 185.5t-185.5 278t-69 339.5q0 142 44.5 274.5t124.5 239.5t187 187.5t240 124t275 43.5t274.5 -43.5t239.5 -124t187.5 -187.5t124.5 -239.5t44 -274.5q0 -178 -68.5 -339.5t-185 -278t-278 -185.5t-338.5 -69zM1086 337v810h-54 q-87 -44 -170 -68v-53q75 20 170 69v-758h-207v-50h468v50h-207z" glyph-name="uni2776" horiz-adv-x="2074" unicode="❶"/><glyph d="M1060 -154q-177 0 -338.5 69t-278 185.5t-185.5 278t-69 339.5q0 142 44.5 274.5t124.5 239.5t187 187.5t240 124t275 43.5t274.5 -43.5t239.5 -124t187.5 -187.5t124.5 -239.5t44 -274.5q0 -178 -68.5 -339.5t-185 -278t-278 -185.5t-338.5 -69zM1368 326h-535 q36 32 104 88.5t118 98.5t110.5 100.5t100 105.5t66 101t26.5 102q-1 110 -79.5 173t-226.5 63q-154 0 -272 -94l32 -38q103 82 240 82q124 0 187.5 -50t63.5 -139q0 -49 -35.5 -108.5t-102 -124.5t-129 -119.5t-151 -127t-134.5 -113.5v-51h617v51z" glyph-name="uni2777" horiz-adv-x="2074" unicode="❷"/><glyph d="M1060 -154q-177 0 -338.5 69t-278 185.5t-185.5 278t-69 339.5q0 142 44.5 274.5t124.5 239.5t187 187.5t240 124t275 43.5t274.5 -43.5t239.5 -124t187.5 -187.5t124.5 -239.5t44 -274.5q0 -178 -68.5 -339.5t-185 -278t-278 -185.5t-338.5 -69zM775 1158v-50h480 l-370 -349l29 -56q62 31 151 31q116 0 181.5 -49.5t64.5 -147.5q0 -106 -60 -158t-191 -53q-72 -1 -145.5 23t-126.5 65l-34 -39q58 -46 141 -72.5t165 -27.5q305 0 305 261q0 113 -80 177.5t-206 66.5q-54 1 -107 -10l357 338v50h-554z" glyph-name="uni2778" horiz-adv-x="2074" unicode="❸"/><glyph d="M1060 -154q-177 0 -338.5 69t-278 185.5t-185.5 278t-69 339.5q0 142 44.5 274.5t124.5 239.5t187 187.5t240 124t275 43.5t274.5 -43.5t239.5 -124t187.5 -187.5t124.5 -239.5t44 -274.5q0 -178 -68.5 -339.5t-185 -278t-278 -185.5t-338.5 -69zM1381 570h-166v577h-57 l-421 -577v-49h429v-234h49v234h166v49zM801 570l365 509v-509h-365z" glyph-name="uni2779" horiz-adv-x="2074" unicode="❹"/><glyph d="M1060 -154q-177 0 -338.5 69t-278 185.5t-185.5 278t-69 339.5q0 142 44.5 274.5t124.5 239.5t187 187.5t240 124t275 43.5t274.5 -43.5t239.5 -124t187.5 -187.5t124.5 -239.5t44 -274.5q0 -178 -68.5 -339.5t-185 -278t-278 -185.5t-338.5 -69zM830 1150l-28 -410 l32 -15q127 29 232 29q116 0 179 -51t63 -153q0 -115 -59.5 -165t-194.5 -51q-74 -1 -145.5 21t-123.5 63l-27 -43q115 -91 296 -91q155 0 231 64.5t76 200.5q1 125 -74.5 188t-204.5 65q-113 1 -227 -28l26 326h427v50h-478z" glyph-name="uni277A" horiz-adv-x="2074" unicode="❺"/><glyph d="M1060 -154q-177 0 -338.5 69t-278 185.5t-185.5 278t-69 339.5q0 142 44.5 274.5t124.5 239.5t187 187.5t240 124t275 43.5t274.5 -43.5t239.5 -124t187.5 -187.5t124.5 -239.5t44 -274.5q0 -178 -68.5 -339.5t-185 -278t-278 -185.5t-338.5 -69zM1390 580 q0 74 -28 131.5t-74.5 92.5t-102 52.5t-114.5 17.5q-93 2 -172 -36l265 312h-68l-45 -54q-231 -275 -276.5 -346.5t-45.5 -169.5q0 -73 29 -131.5t77.5 -93t105.5 -53t118.5 -18.5t119 18.5t105 53t77 93t29.5 131.5zM1059.5 331q-110.5 0 -192.5 65t-83 184q0 79 42 136.5 t103 84.5t131 27q112 0 193 -63.5t81 -184.5q0 -119 -82 -184t-192.5 -65z" glyph-name="uni277B" horiz-adv-x="2074" unicode="❻"/><glyph d="M1060 -154q-177 0 -338.5 69t-278 185.5t-185.5 278t-69 339.5q0 142 44.5 274.5t124.5 239.5t187 187.5t240 124t275 43.5t274.5 -43.5t239.5 -124t187.5 -187.5t124.5 -239.5t44 -274.5q0 -178 -68.5 -339.5t-185 -278t-278 -185.5t-338.5 -69zM788 1147v-50h469 q-262 -370 -328 -810h56q69 455 347 810v50h-544z" glyph-name="uni277C" horiz-adv-x="2074" unicode="❼"/><glyph d="M1060 -154q-177 0 -338.5 69t-278 185.5t-185.5 278t-69 339.5q0 142 44.5 274.5t124.5 239.5t187 187.5t240 124t275 43.5t274.5 -43.5t239.5 -124t187.5 -187.5t124.5 -239.5t44 -274.5q0 -178 -68.5 -339.5t-185 -278t-278 -185.5t-338.5 -69zM1372 526 q0 92 -58.5 152t-144.5 84q67 22 111 70t43 117q0 97 -76 150.5t-187 53.5q-113 0 -189 -53t-76 -151q0 -70 44 -118t110 -69q-87 -24 -145 -84t-58 -152q0 -61 28.5 -110t74.5 -77.5t99.5 -43t111.5 -14.5q56 0 110 14.5t100 43t74 77.5t28 110zM850 949q0 77 60 117.5 t150 40.5q89 0 149 -40.5t60 -117.5q0 -78 -64 -121.5t-145 -43.5q-82 0 -146 43.5t-64 121.5zM1060 329q-65 0 -120.5 19.5t-95 66t-39.5 112.5q0 95 77 151t178 56q99 0 176.5 -55.5t77.5 -151.5q0 -97 -76.5 -147.5t-177.5 -50.5z" glyph-name="uni277D" horiz-adv-x="2074" unicode="❽"/><glyph d="M1060 -154q-177 0 -338.5 69t-278 185.5t-185.5 278t-69 339.5q0 142 44.5 274.5t124.5 239.5t187 187.5t240 124t275 43.5t274.5 -43.5t239.5 -124t187.5 -187.5t124.5 -239.5t44 -274.5q0 -178 -68.5 -339.5t-185 -278t-278 -185.5t-338.5 -69zM729 854 q0 -74 28 -131.5t74.5 -92.5t101.5 -53t115 -18q95 -2 172 37l-266 -312h70q16 19 46 54q117 139 176 211.5t94 128.5t42.5 88.5t7.5 87.5q0 73 -29.5 131t-77 93t-105 53.5t-119 18.5t-118.5 -18.5t-105.5 -53.5t-77.5 -93t-29 -131zM1060 1103q111 0 192 -65t82 -184 q0 -117 -83 -183t-191 -66q-112 0 -194 63.5t-82 185.5q0 119 82 184t194 65z" glyph-name="uni277E" horiz-adv-x="2074" unicode="❾"/><glyph d="M311 1372h105l-15 -98h-103zM296 1123h64l-157 -1123h-65z" glyph-name="i.aalt" horiz-adv-x="498"/><glyph d="M1256 1123h60l-157 -1123h-58l39 298q-55 -105 -143 -176.5t-181.5 -102t-193.5 -30.5q-101 0 -188.5 33.5t-153.5 100.5t-94.5 180.5t-8.5 258.5q16 114 59 209.5t102 161.5t133 112.5t152.5 68t159.5 21.5q155 0 274 -79t157 -232zM634 44q72 0 139.5 17t133 56 t117.5 95t91 141t54 190l5 38q14 122 -12.5 219.5t-84 157t-134 90.5t-165.5 31q-91 0 -178 -32t-161.5 -94t-128 -163t-70.5 -228q-18 -131 6.5 -233t83 -163t136 -91.5t168.5 -30.5z" glyph-name="a.salt" horiz-adv-x="1455"/><glyph d="M1171 1581l-309 -307h-67l302 307h74zM1256 1123h60l-157 -1123h-58l39 298q-55 -105 -143 -176.5t-181.5 -102t-193.5 -30.5q-101 0 -188.5 33.5t-153.5 100.5t-94.5 180.5t-8.5 258.5q16 114 59 209.5t102 161.5t133 112.5t152.5 68t159.5 21.5q155 0 274 -79t157 -232 zM634 44q72 0 139.5 17t133 56t117.5 95t91 141t54 190l5 38q14 122 -12.5 219.5t-84 157t-134 90.5t-165.5 31q-91 0 -178 -32t-161.5 -94t-128 -163t-70.5 -228q-18 -131 6.5 -233t83 -163t136 -91.5t168.5 -30.5z" glyph-name="aacute.aalt" horiz-adv-x="1455"/><glyph d="M1083 1494q-14 -92 -88.5 -156t-167.5 -64q-91 0 -147 64.5t-45 155.5h53q-9 -70 33.5 -119.5t113 -49.5t127.5 49.5t68 119.5h53zM1256 1123h60l-157 -1123h-58l39 298q-55 -105 -143 -176.5t-181.5 -102t-193.5 -30.5q-101 0 -188.5 33.5t-153.5 100.5t-94.5 180.5 t-8.5 258.5q16 114 59 209.5t102 161.5t133 112.5t152.5 68t159.5 21.5q155 0 274 -79t157 -232zM634 44q72 0 139.5 17t133 56t117.5 95t91 141t54 190l5 38q14 122 -12.5 219.5t-84 157t-134 90.5t-165.5 31q-91 0 -178 -32t-161.5 -94t-128 -163t-70.5 -228 q-18 -131 6.5 -233t83 -163t136 -91.5t168.5 -30.5z" glyph-name="abreve.aalt" horiz-adv-x="1455"/><glyph d="M1061 1581h66l-257 -307h-87l-169 307h67l153 -270zM1256 1123h60l-157 -1123h-58l39 298q-55 -105 -143 -176.5t-181.5 -102t-193.5 -30.5q-101 0 -188.5 33.5t-153.5 100.5t-94.5 180.5t-8.5 258.5q16 114 59 209.5t102 161.5t133 112.5t152.5 68t159.5 21.5 q155 0 274 -79t157 -232zM634 44q72 0 139.5 17t133 56t117.5 95t91 141t54 190l5 38q14 122 -12.5 219.5t-84 157t-134 90.5t-165.5 31q-91 0 -178 -32t-161.5 -94t-128 -163t-70.5 -228q-18 -131 6.5 -233t83 -163t136 -91.5t168.5 -30.5z" glyph-name="uni01CE.aalt" horiz-adv-x="1455"/><glyph d="M1083 1274h-66l-152 271l-227 -271h-68l257 307h87zM1256 1123h60l-157 -1123h-58l39 298q-55 -105 -143 -176.5t-181.5 -102t-193.5 -30.5q-101 0 -188.5 33.5t-153.5 100.5t-94.5 180.5t-8.5 258.5q16 114 59 209.5t102 161.5t133 112.5t152.5 68t159.5 21.5 q155 0 274 -79t157 -232zM634 44q72 0 139.5 17t133 56t117.5 95t91 141t54 190l5 38q14 122 -12.5 219.5t-84 157t-134 90.5t-165.5 31q-91 0 -178 -32t-161.5 -94t-128 -163t-70.5 -228q-18 -131 6.5 -233t83 -163t136 -91.5t168.5 -30.5z" glyph-name="acircumflex.aalt" horiz-adv-x="1455"/><glyph d="M622 1372h104l-14 -98h-104zM957 1372h104l-13 -98h-104zM1256 1123h60l-157 -1123h-58l39 298q-55 -105 -143 -176.5t-181.5 -102t-193.5 -30.5q-101 0 -188.5 33.5t-153.5 100.5t-94.5 180.5t-8.5 258.5q16 114 59 209.5t102 161.5t133 112.5t152.5 68t159.5 21.5 q155 0 274 -79t157 -232zM634 44q72 0 139.5 17t133 56t117.5 95t91 141t54 190l5 38q14 122 -12.5 219.5t-84 157t-134 90.5t-165.5 31q-91 0 -178 -32t-161.5 -94t-128 -163t-70.5 -228q-18 -131 6.5 -233t83 -163t136 -91.5t168.5 -30.5z" glyph-name="adieresis.aalt" horiz-adv-x="1455"/><glyph d="M1256 1123h60l-157 -1123h-58l39 298q-55 -105 -143 -176.5t-181.5 -102t-193.5 -30.5q-101 0 -188.5 33.5t-153.5 100.5t-94.5 180.5t-8.5 258.5q16 114 59 209.5t102 161.5t133 112.5t152.5 68t159.5 21.5q155 0 274 -79t157 -232zM634 44q72 0 139.5 17t133 56 t117.5 95t91 141t54 190l5 38q14 122 -12.5 219.5t-84 157t-134 90.5t-165.5 31q-91 0 -178 -32t-161.5 -94t-128 -163t-70.5 -228q-18 -131 6.5 -233t83 -163t136 -91.5t168.5 -30.5zM563 -248h104l-15 -97h-103z" glyph-name="uni1EA1.aalt" horiz-adv-x="1455"/><glyph d="M572 1581h75l215 -307h-67zM1256 1123h60l-157 -1123h-58l39 298q-55 -105 -143 -176.5t-181.5 -102t-193.5 -30.5q-101 0 -188.5 33.5t-153.5 100.5t-94.5 180.5t-8.5 258.5q16 114 59 209.5t102 161.5t133 112.5t152.5 68t159.5 21.5q155 0 274 -79t157 -232zM634 44 q72 0 139.5 17t133 56t117.5 95t91 141t54 190l5 38q14 122 -12.5 219.5t-84 157t-134 90.5t-165.5 31q-91 0 -178 -32t-161.5 -94t-128 -163t-70.5 -228q-18 -131 6.5 -233t83 -163t136 -91.5t168.5 -30.5z" glyph-name="agrave.aalt" horiz-adv-x="1455"/><glyph d="M599 1327h471l-8 -53h-470zM1256 1123h60l-157 -1123h-58l39 298q-55 -105 -143 -176.5t-181.5 -102t-193.5 -30.5q-101 0 -188.5 33.5t-153.5 100.5t-94.5 180.5t-8.5 258.5q16 114 59 209.5t102 161.5t133 112.5t152.5 68t159.5 21.5q155 0 274 -79t157 -232zM634 44 q72 0 139.5 17t133 56t117.5 95t91 141t54 190l5 38q14 122 -12.5 219.5t-84 157t-134 90.5t-165.5 31q-91 0 -178 -32t-161.5 -94t-128 -163t-70.5 -228q-18 -131 6.5 -233t83 -163t136 -91.5t168.5 -30.5z" glyph-name="amacron.aalt" horiz-adv-x="1455"/><glyph d="M1002 -137q-1 -41 52 -58.5t125 -1.5v-43q-101 -28 -168.5 1t-63.5 92q6 114 156 147h-2l39 298q-55 -105 -143 -176.5t-181.5 -102t-193.5 -30.5q-101 0 -188.5 33.5t-153.5 100.5t-94.5 180.5t-8.5 258.5q16 114 59 209.5t102 161.5t133 112.5t152.5 68t159.5 21.5 q155 0 274 -79t157 -232l42 299h60l-157 -1123h-4q-89 -27 -121 -62t-32 -75zM634 44q72 0 139.5 17t133 56t117.5 95t91 141t54 190l5 38q14 122 -12.5 219.5t-84 157t-134 90.5t-165.5 31q-91 0 -178 -32t-161.5 -94t-128 -163t-70.5 -228q-18 -131 6.5 -233t83 -163 t136 -91.5t168.5 -30.5z" glyph-name="aogonek.aalt" horiz-adv-x="1455"/><glyph d="M827 1274q-70 0 -112.5 50t-32.5 121q9 70 66.5 120t127.5 50q71 0 113.5 -50.5t33.5 -119.5q-11 -71 -68 -121t-128 -50zM836 1324q49 0 89.5 35.5t47.5 85.5q6 49 -24 84.5t-80 35.5t-90.5 -35.5t-46.5 -84.5q-7 -50 23.5 -85.5t80.5 -35.5zM1256 1123h60l-157 -1123 h-58l39 298q-55 -105 -143 -176.5t-181.5 -102t-193.5 -30.5q-101 0 -188.5 33.5t-153.5 100.5t-94.5 180.5t-8.5 258.5q16 114 59 209.5t102 161.5t133 112.5t152.5 68t159.5 21.5q155 0 274 -79t157 -232zM634 44q72 0 139.5 17t133 56t117.5 95t91 141t54 190l5 38 q14 122 -12.5 219.5t-84 157t-134 90.5t-165.5 31q-91 0 -178 -32t-161.5 -94t-128 -163t-70.5 -228q-18 -131 6.5 -233t83 -163t136 -91.5t168.5 -30.5z" glyph-name="aring.aalt" horiz-adv-x="1455"/><glyph d="M553 1275q8 73 54.5 122t116.5 49q38 0 74 -20t59.5 -44t55 -44t60.5 -20q35 0 66 36.5t38 82.5h50q-11 -73 -59.5 -121t-113.5 -48q-29 0 -62.5 20t-58.5 43.5t-57 43t-57 19.5q-45 -1 -77.5 -36t-39.5 -84zM1256 1123h60l-157 -1123h-58l39 298q-55 -105 -143 -176.5 t-181.5 -102t-193.5 -30.5q-101 0 -188.5 33.5t-153.5 100.5t-94.5 180.5t-8.5 258.5q16 114 59 209.5t102 161.5t133 112.5t152.5 68t159.5 21.5q155 0 274 -79t157 -232zM634 44q72 0 139.5 17t133 56t117.5 95t91 141t54 190l5 38q14 122 -12.5 219.5t-84 157t-134 90.5 t-165.5 31q-91 0 -178 -32t-161.5 -94t-128 -163t-70.5 -228q-18 -131 6.5 -233t83 -163t136 -91.5t168.5 -30.5z" glyph-name="atilde.aalt" horiz-adv-x="1455"/><glyph d="M449 0h-130q-85 0 -123 60t-24 162l185 1314h65l-184 -1306q-11 -80 19 -128t90 -48h109z" glyph-name="l.aalt" horiz-adv-x="703"/><glyph d="M854 1994l-309 -307h-68l302 307h75zM449 0h-130q-85 0 -123 60t-24 162l185 1314h65l-184 -1306q-11 -80 19 -128t90 -48h109z" glyph-name="lacute.aalt" horiz-adv-x="703"/><glyph d="M445 0h-128q-85 0 -123.5 60t-24.5 162l185 1314h65l-183 -1306q-11 -80 19 -128t90 -48h108zM600 1431h74l-136 -423h-53z" glyph-name="lcaron.aalt" horiz-adv-x="772"/><glyph d="M449 0h-130q-85 0 -123 60t-24 162l185 1314h65l-184 -1306q-11 -80 19 -128t90 -48h109zM287 -101h72l-135 -418h-51z" glyph-name="lcommaaccent.aalt" horiz-adv-x="703"/><glyph d="M449 0h-130q-85 0 -123 60t-24 162l185 1314h65l-184 -1306q-11 -80 19 -128t90 -48h109zM187 -248h104l-15 -97h-103z" glyph-name="uni1E37.aalt" horiz-adv-x="703"/><glyph d="M309 741l-71 -511q-11 -80 19 -128t90 -48h109l-7 -54h-130q-85 0 -123 60t-24 162l71 504l-134 -31l7 50l134 31l107 760h65l-106 -744l248 56l-7 -50z" glyph-name="lslash.aalt" horiz-adv-x="703"/><glyph d="M1089 1123h69l-860 -1533h-71l274 488h-28l-276 1045h69l260 -1000z" glyph-name="y.aalt" horiz-adv-x="1197"/><glyph d="M1041 1581l-309 -307h-67l302 307h74zM1089 1123h69l-860 -1533h-71l274 488h-28l-276 1045h69l260 -1000z" glyph-name="yacute.aalt" horiz-adv-x="1197"/><glyph d="M736 1545l-227 -271h-68l257 307h87l169 -307h-66zM1089 1123h69l-860 -1533h-71l274 488h-28l-276 1045h69l260 -1000z" glyph-name="ycircumflex.aalt" horiz-adv-x="1197"/><glyph d="M596 1372l-14 -98h-104l14 98h104zM931 1372l-13 -98h-104l13 98h104zM1089 1123h69l-860 -1533h-71l274 488h-28l-276 1045h69l260 -1000z" glyph-name="ydieresis.aalt" horiz-adv-x="1197"/><glyph d="M1089 1123h69l-860 -1533h-71l274 488h-28l-276 1045h69l260 -1000zM833 -313l14 101h107l-14 -101h-107z" glyph-name="uni1EF5.aalt" horiz-adv-x="1202"/><glyph d="M732 1274h-67l-223 307h75zM1089 1123h69l-860 -1533h-71l274 488h-28l-276 1045h69l260 -1000z" glyph-name="ygrave.aalt" horiz-adv-x="1197"/><glyph d="M590 1394q-45 -1 -77.5 -36t-39.5 -84l-49 1q8 73 54.5 122t116.5 49q38 0 74 -20t59.5 -44t55 -44t60.5 -20q35 0 66 36.5t38 82.5h50q-11 -73 -59.5 -121t-113.5 -48q-29 0 -62.5 20t-58.5 43.5t-56.5 43t-57.5 19.5zM1089 1123h69l-860 -1533h-71l274 488h-28 l-276 1045h69l260 -1000z" glyph-name="uni1EF9.aalt" horiz-adv-x="1197"/><glyph d="M2154 1434l-7 -59h-460l-193 -1375h-67l193 1375h-921l-192 -1375h-67l193 1375h-460l7 59h1974z" glyph-name="T_T.dlig" horiz-adv-x="2091"/><glyph d="M1417 1068l-119 -838q-10 -80 20.5 -128t90.5 -48h209l-7 -54h-230q-85 0 -123.5 60t-24.5 162l120 846h-859l-150 -1068h-64l149 1068h-181l8 55h180l28 191q13 97 67.5 159.5t133.5 62.5h181l-8 -54h-161q-59 0 -98.5 -48t-51.5 -128l-26 -183h859l31 225h64l-31 -225 h344l-7 -55h-344z" glyph-name="f_t.dlig" horiz-adv-x="1906"/><glyph d="M1303 1434h109l-10 -78h-111zM1347 1123l-8 -55h-1l-149 -1068h-65l150 1068h-780l-118 -838q-11 -80 19.5 -128t89.5 -48h210l-7 -54h-230q-85 0 -123.5 60t-24.5 162l119 846h-181l8 55h180l32 225h64l-31 -225h846z" glyph-name="t_i.dlig" horiz-adv-x="1486"/><glyph d="M1478 1068l-118 -838q-11 -80 19 -128t90 -48h209l-7 -54h-229q-85 0 -123.5 60t-24.5 162l119 846h-919l-118 -838q-11 -80 19.5 -128t89.5 -48h210l-7 -54h-230q-85 0 -123.5 60t-24.5 162l119 846h-181l8 55h180l32 225h64l-31 -225h919l32 225h65l-32 -225h344 l-7 -55h-344z" glyph-name="t_t.dlig" horiz-adv-x="1967"/><glyph d="M2287 1434h109l-11 -78h-110zM2331 1123l-158 -1123h-65l150 1068h-780l-118 -838q-11 -80 19 -128t90 -48h209l-7 -54h-229q-85 0 -123.5 60t-24.5 162l119 846h-919l-118 -838q-11 -80 19.5 -128t89.5 -48h210l-7 -54h-230q-85 0 -123.5 60t-24.5 162l119 846h-181 l8 55h180l32 225h64l-31 -225h919l32 225h65l-32 -225h846z" glyph-name="t_t_i.dlig" horiz-adv-x="2470"/><glyph d="M1270 54h108l-7 -54h-128q-86 0 -124.5 60t-23.5 162l178 1260h-596q-59 0 -98.5 -48t-51.5 -128l-26 -183h286l-7 -55h-286l-150 -1068h-64l149 1068h-181l8 55h180l28 191q13 97 67.5 159.5t133.5 62.5h680l-185 -1306q-11 -80 20 -128t90 -48z" glyph-name="uniFB02.aalt" horiz-adv-x="1626"/><glyph d="M900 1434h52l-94 -674h-52l24 181q-48 -93 -133.5 -140.5t-177.5 -47.5q-61 0 -113.5 20.5t-92.5 60t-56.5 108t-4.5 155.5q24 166 128.5 254.5t234.5 88.5q93 0 165 -49t93 -141zM528 801q71 0 134 27t114 93.5t66 163.5l3 23q15 136 -55 210.5t-178 74.5 q-112 0 -200 -77t-109 -219q-10 -75 4.5 -133.5t47.5 -93t77 -52t96 -17.5z" glyph-name="ordfeminine.aalt" horiz-adv-x="1006"/><glyph d="M1072 1434h70l-860 -1434h-71l273 455h-26l-278 979h70l260 -936z" glyph-name="afii10037.aalt" horiz-adv-x="1078"/><glyph d="M1256 1123h60l-157 -1123h-58l39 298q-55 -105 -143 -176.5t-181.5 -102t-193.5 -30.5q-101 0 -188.5 33.5t-153.5 100.5t-94.5 180.5t-8.5 258.5q16 114 59 209.5t102 161.5t133 112.5t152.5 68t159.5 21.5q155 0 274 -79t157 -232zM634 44q72 0 139.5 17t133 56 t117.5 95t91 141t54 190l5 38q14 122 -12.5 219.5t-84 157t-134 90.5t-165.5 31q-91 0 -178 -32t-161.5 -94t-128 -163t-70.5 -228q-18 -131 6.5 -233t83 -163t136 -91.5t168.5 -30.5z" glyph-name="afii10065.aalt" horiz-adv-x="1455"/><glyph d="M1108 562q-20 -142 -72 -253t-126 -180.5t-165 -104.5t-193 -35q-212 0 -322.5 146t-71.5 427q19 140 71 250.5t126 180t165 106t193.5 36.5t183.5 -36.5t135 -106t74.5 -180t1.5 -250.5zM560 42q184 0 315.5 131.5t166.5 388.5q36 253 -58.5 386t-278 133t-315 -133 t-167.5 -386q-36 -257 58.5 -388.5t278.5 -131.5z" glyph-name="zero.oldstyle" horiz-adv-x="1265"/><glyph d="M567 56h355l-8 -56h-773l7 56h355l141 1007q-166 -76 -313 -114l9 63q154 38 312 111h65z" glyph-name="one.oldstyle" horiz-adv-x="1212"/><glyph d="M1064 56l-7 -56h-919l7 56q69 48 183.5 123.5t203 132.5t190.5 131.5t171.5 135.5t119.5 128.5t58 125.5q15 113 -67 179.5t-253 66.5q-215 0 -381 -105l-30 42q185 119 421 119q198 0 296 -80.5t80 -216.5q-9 -65 -59.5 -137.5t-117 -134.5t-169 -138.5t-184 -129.5 t-195 -127.5t-171.5 -114.5h823z" glyph-name="two.oldstyle" horiz-adv-x="1352"/><glyph d="M317 1123h923l-8 -58l-677 -576q90 19 182 19q208 -3 320.5 -111.5t86.5 -297.5q-29 -203 -174.5 -312t-397.5 -108q-139 0 -264 38.5t-209 113.5l44 47q75 -68 194 -105t244 -36q222 1 348 94.5t150 268.5q24 166 -79.5 261.5t-292.5 95.5q-145 0 -258 -54l-30 47 l729 615h-838z" glyph-name="three.oldstyle" horiz-adv-x="1323"/><glyph d="M1277 151l-7 -59h-288l-56 -402h-65l57 402h-720l7 59l847 972h74l-137 -972h288zM276 151h649l126 890z" glyph-name="four.oldstyle" horiz-adv-x="1482"/><glyph d="M396 1123h801l-7 -58h-743l-122 -567q193 47 414 45q207 -2 322 -113t86 -308q-31 -218 -176 -331t-399 -112q-139 0 -264 38.5t-209 113.5l44 47q75 -68 194 -105t244 -36q447 3 501 385q24 172 -80 269t-295 97q-205 0 -425 -48l-26 26z" glyph-name="five.oldstyle" horiz-adv-x="1323"/><glyph d="M1246 484q-13 -98 -56.5 -181t-105 -140t-138.5 -96.5t-157 -58t-161 -18.5t-156.5 18.5t-141.5 58t-111.5 96.5t-65.5 140t-7 181q6 41 13 71.5t24 66.5t31.5 61.5t52.5 72t70 80.5t99.5 104t124.5 127t163 164.5t200 202.5h81l-515 -521q140 65 296 62q78 -1 150 -19.5 t135.5 -57.5t107 -95.5t62.5 -138.5t5 -180zM636 45q73 0 144 16.5t138.5 51.5t121.5 86t91.5 124.5t50.5 160.5q15 111 -14.5 198t-92.5 137.5t-143.5 77t-171.5 26.5q-72 0 -144 -17.5t-139.5 -54t-122.5 -87.5t-93 -123.5t-50 -156.5q-12 -87 5.5 -160.5t57.5 -124.5 t97.5 -86t124.5 -51.5t140 -16.5z" glyph-name="six.oldstyle" horiz-adv-x="1415"/><glyph d="M281 1123h906l-8 -58q-543 -588 -772 -1375h-67q233 800 766 1375h-834z" glyph-name="seven.oldstyle" horiz-adv-x="1222"/><glyph d="M1178 399q-14 -103 -72.5 -184t-142 -128.5t-177.5 -72t-188 -24.5q-75 0 -145.5 14.5t-133.5 47t-108 79.5t-66 116t-9 152q10 79 47.5 145.5t92.5 114.5t118.5 81t133.5 52q-106 35 -167.5 115t-45.5 198q14 109 87.5 187t177 115t223.5 37t212.5 -37t143.5 -115.5 t36 -186.5q-16 -118 -100 -198.5t-201 -114.5q138 -40 221 -140t63 -253zM378 1104q-10 -72 16 -128t76 -90t112.5 -51.5t131 -17.5t136.5 17.5t128 51.5t101.5 90t52.5 128q19 138 -79 211.5t-258 73.5q-103 0 -191 -30t-150.5 -96t-75.5 -159zM606 45q84 0 165.5 21 t153.5 62t122.5 111.5t63.5 160.5q12 87 -18.5 157.5t-90 114t-135.5 66.5t-160 23q-83 0 -166 -23t-155 -66.5t-121.5 -114t-61.5 -157.5q-13 -90 17 -160.5t91 -111.5t136 -62t159 -21z" glyph-name="eight.oldstyle" horiz-adv-x="1357"/><glyph d="M213 639q17 123 78.5 220t149.5 155.5t188 89.5t202.5 31t194 -31t163 -89.5t106 -155.5t17.5 -220q-6 -41 -12.5 -70.5t-24 -66t-31.5 -62t-52.5 -72t-69.5 -80.5t-99 -104.5t-125 -127.5t-163.5 -164.5t-198.5 -201.5h-82l515 520q-139 -63 -296 -62q-78 1 -149.5 19.5 t-135 57.5t-107 95.5t-63 138.5t-5.5 180zM823 1079q-92 0 -180 -27t-165.5 -79t-131 -138.5t-68.5 -195.5q-12 -89 5 -163.5t57 -124.5t98 -84.5t124 -50t138 -15.5t143.5 17.5t139.5 53.5t122.5 87.5t92.5 123.5t49 156q12 87 -5 160.5t-57 124.5t-97.5 87t-124.5 52 t-140 16z" glyph-name="nine.oldstyle" horiz-adv-x="1415"/><glyph d="M1265 717q-50 -359 -215 -543.5t-411 -184.5t-358.5 183.5t-62.5 544.5q51 359 216 543.5t410 184.5q246 0 359 -184.5t62 -543.5zM647 47q216 0 360.5 169.5t191.5 500.5t-50 500t-313 169t-360.5 -169t-191.5 -500t49.5 -500.5t313.5 -169.5z" glyph-name="zero.tnum" horiz-adv-x="1439"/><glyph d="M681 58h357l-7 -58h-780l7 58h358l186 1313q-163 -74 -315 -113l10 63q161 41 312 113h65z" glyph-name="one.tnum" horiz-adv-x="1439"/><glyph d="M1162 58l-7 -58h-1028l8 58q78 62 209.5 159.5t235.5 173.5t224 173.5t201.5 176t141 163.5t70.5 155q20 148 -80.5 237.5t-307.5 89.5q-231 0 -423 -140l-31 46q214 153 464 153q237 0 353 -104t91 -277q-11 -78 -71 -169t-141.5 -172.5t-200 -179t-219 -170 t-227.5 -166t-198 -149.5h936z" glyph-name="two.tnum" horiz-adv-x="1439"/><glyph d="M376 1434h922l-8 -59l-676 -576q87 22 182 19q208 -3 320.5 -111.5t85.5 -296.5q-29 -203 -174 -312t-397 -109q-140 1 -264.5 39.5t-208.5 112.5l44 47q75 -69 193 -105.5t244 -35.5q223 1 349 95t150 269q24 165 -80 260.5t-293 95.5q-145 0 -258 -53l-30 46l729 615 h-837z" glyph-name="three.tnum" horiz-adv-x="1439"/><glyph d="M1255 461l-7 -59h-287l-58 -402h-64l57 402h-720l7 59l847 973h75l-137 -973h287zM255 461h648l126 891z" glyph-name="four.tnum" horiz-adv-x="1439"/><glyph d="M454 1434h801l-8 -59h-742l-123 -567q200 47 416 45q100 -2 181 -29.5t136 -80t79.5 -132.5t9.5 -180q-30 -217 -175 -329.5t-399 -112.5q-140 1 -264.5 39.5t-208.5 112.5l44 47q75 -69 193 -105.5t244 -35.5q450 3 502 385q25 172 -80 269.5t-295 97.5q-204 0 -426 -48 l-26 24z" glyph-name="five.tnum" horiz-adv-x="1439"/><glyph d="M1257 484q-13 -98 -56.5 -181t-105 -140t-138 -96.5t-157 -58t-161.5 -18.5q-102 0 -194 30t-163 89t-106 156t-17 219q6 41 12.5 71.5t23.5 66.5t31.5 61.5t52 72t69.5 80.5t99.5 104.5t125 127t164 164t198.5 202.5h82l-515 -521q140 65 296 62q78 -1 149.5 -19.5 t135 -57.5t107 -95.5t62.5 -138.5t5 -180zM647 45q73 0 144 16.5t138.5 51.5t121.5 86t92 124.5t50 160.5q15 111 -14.5 198t-92.5 137.5t-143.5 77t-171.5 26.5q-90 0 -179.5 -29t-167 -81.5t-132 -138t-69.5 -190.5q-12 -87 5.5 -160.5t57.5 -124.5t97 -86t124 -51.5 t140 -16.5z" glyph-name="six.tnum" horiz-adv-x="1439"/><glyph d="M388 1434h906l-7 -59q-542 -585 -772 -1375h-66q233 802 764 1375h-832z" glyph-name="seven.tnum" horiz-adv-x="1439"/><glyph d="M1218 399q-14 -103 -72.5 -184t-142 -128.5t-177 -72t-188.5 -24.5q-75 0 -145.5 14.5t-133.5 47t-108 79.5t-66 116t-9 152q14 103 75 186.5t141 132t176 74.5q-106 36 -167.5 115.5t-45.5 197.5q15 109 88.5 187t176.5 115t223 37q186 0 300 -89t93 -250 q-16 -118 -100 -198.5t-201 -114.5q138 -40 220.5 -140t62.5 -253zM419 1104q-10 -72 16 -128t76 -90t112.5 -51.5t131 -17.5t136 17.5t128 51.5t102 90t51.5 128q19 138 -78.5 211.5t-258.5 73.5q-103 0 -191 -30t-150 -96t-75 -159zM646 45q84 0 165.5 21t154 62 t123 111.5t62.5 160.5q12 87 -18 157.5t-89.5 114t-136.5 66.5t-161 23q-83 0 -165 -23t-154 -66.5t-122 -114t-62 -157.5q-10 -73 7.5 -133t56.5 -100.5t94.5 -68t116.5 -40.5t128 -13z" glyph-name="eight.tnum" horiz-adv-x="1439"/><glyph d="M224 949q13 98 57 181t105 140t138 97.5t157.5 59t161.5 18.5t156 -18.5t141 -59t111.5 -97.5t65.5 -139.5t7 -181.5q-6 -41 -12.5 -71t-23.5 -66.5t-32 -61.5t-53 -71.5t-69.5 -81t-99 -104t-125 -127t-163.5 -165t-199 -201.5h-81l514 520q-136 -63 -296 -61 q-78 1 -149.5 19.5t-135 57t-107 95t-63 138.5t-5.5 180zM834.5 1390q-92.5 0 -180.5 -27.5t-165 -79.5t-131 -138.5t-69 -195.5q-12 -89 5 -163t57 -124.5t98 -84.5t124 -50t139 -16q72 0 143.5 17.5t139 53.5t122 87.5t92.5 123.5t51 156q14 109 -16 195.5t-92.5 138.5 t-143.5 79.5t-173.5 27.5z" glyph-name="nine.tnum" horiz-adv-x="1439"/><glyph d="M805 1445q246 0 359 -184.5t62 -543.5q-50 -359 -215 -543.5t-411 -184.5q-245 0 -357.5 183.5t-62.5 544.5q51 359 215.5 543.5t409.5 184.5zM245 717q-36 -258 16 -422l860 902q-93 189 -324 189q-216 0 -360.5 -169t-191.5 -500zM1161 717q38 270 -21 436l-861 -903 q90 -203 330 -203q216 0 360.5 169.5t191.5 500.5z" glyph-name="zero.zero" horiz-adv-x="1361"/><glyph d="M786 430q-31 -216 -130 -326t-245 -110q-147 0 -215 110t-37 326q30 216 128.5 326t246.5 110q146 0 214 -110t38 -326zM417 44q125 0 207.5 98t109.5 288t-28.5 288t-179.5 98t-206 -97.5t-109 -288.5q-28 -190 27 -288t179 -98z" glyph-name="zero.dnom" horiz-adv-x="982"/><glyph d="M366 50h206l-6 -50h-468l6 50h207l108 758q-102 -48 -180 -69l7 54q83 23 180 67h54z" glyph-name="one.dnom" horiz-adv-x="822"/><glyph d="M721 50l-6 -50h-617l6 50q52 41 150.5 114t169.5 127t146 119t118.5 124t50.5 108q13 89 -43.5 139t-180.5 50q-138 0 -250 -81l-27 38q131 93 285 94q148 0 218 -63.5t55 -172.5q-6 -47 -41 -101.5t-80.5 -102t-115.5 -105.5t-125 -99.5t-132 -99t-117 -88.5h536z" glyph-name="two.dnom" horiz-adv-x="970"/><glyph d="M242 871h554l-6 -50l-405 -338q57 12 109 12q126 -2 196 -67.5t54 -177.5q-37 -260 -342 -260q-82 0 -161 26t-130 72l40 40q46 -41 116.5 -65t142.5 -23q131 1 198.5 52.5t81.5 158.5q14 98 -44 148t-174 50q-85 0 -155 -32l-22 56l420 348h-479z" glyph-name="three.dnom" horiz-adv-x="965"/><glyph d="M782 284l-7 -50h-167l-31 -234h-51l33 234h-429l8 50l502 576h57l-82 -576h167zM202 284h364l72 509z" glyph-name="four.dnom" horiz-adv-x="998"/><glyph d="M292 860h477l-7 -50h-427l-71 -326q114 28 230 28q130 -2 196 -65t48 -188q-19 -136 -104.5 -201t-240.5 -64q-180 0 -283 91l34 43q44 -41 113 -63t143 -21q135 1 201.5 50.5t82.5 164.5q14 103 -41.5 154t-170.5 51q-99 0 -236 -29l-30 16z" glyph-name="five.dnom" horiz-adv-x="957"/><glyph d="M799 297q-13 -96 -73 -166t-137.5 -100.5t-160.5 -30.5q-61 0 -116 18.5t-98 54t-64 93.5t-11 131q10 72 39 122t101.5 130.5t263.5 273.5q29 28 43 43h69l-309 -311q84 38 176 36q59 0 112 -18t94.5 -52.5t61 -92t9.5 -131.5zM434 48q71 0 135.5 25.5t113.5 84t60 139.5 q9 62 -7.5 111.5t-52.5 78.5t-81.5 44t-96.5 15q-69 0 -134.5 -27t-115 -85.5t-60.5 -136.5q-15 -120 56.5 -184.5t182.5 -64.5z" glyph-name="six.dnom" horiz-adv-x="1013"/><glyph d="M219 860h544l-7 -50q-328 -354 -461 -810h-56q129 441 442 810h-469z" glyph-name="seven.dnom" horiz-adv-x="898"/><glyph d="M756 240q-11 -82 -68 -139.5t-129 -82t-150 -24.5q-45 0 -87 8.5t-80 28t-64.5 47.5t-39.5 69.5t-6 92.5q13 92 79.5 152t155.5 83q-63 20 -100 68.5t-27 119.5q14 97 97 150t194.5 53t180.5 -53t56 -150q-10 -71 -61 -119t-120 -69q84 -24 133 -83.5t36 -151.5zM294 663 q-7 -52 20 -91.5t71 -56.5t95 -17q82 0 151.5 43.5t81.5 121.5q11 77 -43.5 117t-144.5 40q-89 0 -154.5 -40t-76.5 -117zM416 42q102 0 185.5 50.5t97.5 148.5q9 63 -23 111.5t-85.5 71.5t-117.5 23q-99 0 -184 -55.5t-99 -150.5q-10 -67 23 -113.5t85.5 -66t117.5 -19.5z " glyph-name="eight.dnom" horiz-adv-x="977"/><glyph d="M178 570q13 96 73.5 165.5t137.5 100t160 30.5q61 0 116.5 -18.5t98 -53t63.5 -93t11 -131.5q-6 -44 -15.5 -72t-30 -63.5t-64 -84t-106.5 -114.5t-169 -175q-39 -40 -61 -61h-69l309 312q-84 -39 -177 -37q-47 1 -90 12t-81 34.5t-64.5 57.5t-38 83t-3.5 108zM542.5 819 q-110.5 0 -201.5 -65t-108 -184q-9 -63 8 -112t53.5 -78t81.5 -43.5t97 -14.5q109 0 201 66.5t108 181.5q16 119 -56.5 184t-183 65z" glyph-name="nine.dnom" horiz-adv-x="1013"/><glyph d="M867 1008q-31 -216 -130 -326.5t-245 -110.5q-147 0 -215 110.5t-37 326.5q30 216 128.5 326t245.5 110q146 0 214.5 -110t38.5 -326zM498 622q125 0 207 97.5t110 288.5q27 190 -28.5 288t-179.5 98t-206.5 -98t-108.5 -288q-28 -190 27 -288t179 -98z" glyph-name="zero.numr" horiz-adv-x="982"/><glyph d="M446 624h207l-6 -51h-468l6 51h207l108 757q-102 -48 -181 -68l8 53q83 23 180 68h54z" glyph-name="one.numr" horiz-adv-x="822"/><glyph d="M800 611l-6 -50h-617l6 50q52 41 150.5 114t169 127t146 119t119 124t50.5 108q13 89 -43.5 139.5t-180.5 50.5q-138 0 -250 -82l-28 39q131 93 286 93q148 0 218 -63.5t54 -172.5q-6 -47 -40.5 -101t-80 -102t-115.5 -106t-125 -99.5t-132 -99t-117 -88.5h536z" glyph-name="two.numr" horiz-adv-x="970"/><glyph d="M322 1434h554l-7 -51l-404 -337q51 11 108 11q126 -2 196.5 -67.5t54.5 -178.5q-37 -260 -342 -259q-82 0 -161 26t-131 72l40 40q46 -41 117 -65t142 -23q131 1 199 53t82 157q14 98 -44 148.5t-174 50.5q-85 0 -155 -32l-22 55l421 349h-481z" glyph-name="three.numr" horiz-adv-x="965"/><glyph d="M863 857l-7 -49h-167l-32 -235h-50l33 235h-429l8 49l502 577h57l-82 -577h167zM283 857h364l72 509z" glyph-name="four.numr" horiz-adv-x="998"/><glyph d="M373 1434h477l-7 -51h-427l-71 -325q114 28 229 27q130 -2 196.5 -65t48.5 -187q-19 -136 -104.5 -201.5t-240.5 -64.5q-180 0 -284 91l35 43q44 -41 113 -63t143 -21q135 1 201.5 51t82.5 165q14 103 -41.5 153.5t-170.5 50.5q-99 0 -237 -28l-29 15z" glyph-name="five.numr" horiz-adv-x="957"/><glyph d="M879 864q-13 -96 -73.5 -165.5t-137.5 -100.5t-160 -31q-61 0 -116 18.5t-98 54t-64 94t-11 130.5t39 122t101.5 130.5t263.5 274.5l43 43h69l-309 -312q84 38 176 36q59 0 112 -18t94.5 -52t61 -92t9.5 -132zM514 615q71 0 135.5 26t113.5 84t60 139q9 62 -7.5 111.5 t-52.5 78.5t-81.5 44t-96.5 15q-69 0 -134.5 -27t-115 -85.5t-61.5 -136.5q-15 -120 57 -184.5t183 -64.5z" glyph-name="six.numr" horiz-adv-x="1013"/><glyph d="M300 1434h544l-7 -51q-328 -354 -461 -810h-57q129 441 443 810h-469z" glyph-name="seven.numr" horiz-adv-x="898"/><glyph d="M836 807q-11 -82 -68 -139.5t-129 -82t-151 -24.5q-45 0 -87 9t-79.5 28t-64.5 47.5t-39.5 70t-5.5 91.5q13 92 79 152t155 83q-63 20 -99.5 68.5t-27.5 119.5q14 97 97.5 150.5t195 53.5t180.5 -53.5t56 -150.5q-10 -71 -61 -119t-120 -69q84 -24 133 -83.5t36 -151.5z M374 1230q-7 -52 20 -91t71 -56.5t95 -17.5q82 0 151.5 43.5t81.5 121.5q11 77 -43.5 117.5t-144.5 40.5q-89 0 -154.5 -40.5t-76.5 -117.5zM496 609q102 0 185.5 51t97.5 148q9 63 -23 112t-86 72t-117 23q-99 0 -184 -56t-99 -151q-10 -67 23 -113.5t85.5 -66t117.5 -19.5 z" glyph-name="eight.numr" horiz-adv-x="977"/><glyph d="M258 1138q13 96 73.5 165t137.5 100t160 31q61 0 116.5 -18.5t98 -53.5t63.5 -93.5t11 -130.5q-6 -44 -15.5 -72.5t-30 -63.5t-64 -84t-106.5 -115t-170 -174q-39 -40 -60 -62h-70l310 313q-84 -39 -177 -37q-47 1 -90.5 11.5t-81 34t-64.5 57.5t-38 83.5t-3 108.5z M622.5 1386q-110.5 0 -201.5 -65t-108 -183q-9 -63 8 -112.5t53.5 -78t81.5 -43.5t97 -15q109 0 201 66.5t108 182.5q16 119 -56.5 183.5t-183 64.5z" glyph-name="nine.numr" horiz-adv-x="1013"/><glyph d="M264 879h330l-45 -324h-331z" glyph-name="bullet.aalt" horiz-adv-x="769"/><glyph d="M307 -355q-146 505 -72.5 1027.5t360.5 1020.5h61q-286 -508 -356 -1020t69 -1028h-62z" glyph-name="parenleft.aalt" horiz-adv-x="715"/><glyph d="M153 -355h-62q284 525 356.5 1027.5t-68.5 1020.5h61q146 -496 73.5 -1020.5t-360.5 -1027.5z" glyph-name="parenright.aalt" horiz-adv-x="716"/><glyph d="M454 -306q-42 0 -71.5 12.5t-53.5 47.5t-27.5 95t6.5 155l64 457q6 28 1 62.5t-17.5 65.5t-43.5 53t-78 23l8 56q46 1 84 22.5t60 53.5t34.5 64.5t16.5 63.5l65 455q12 91 35.5 154.5t56 96.5t65.5 46.5t75 13.5h86l-8 -56h-76q-71 0 -111 -60.5t-53 -148.5l-69 -490 q-8 -58 -29.5 -109.5t-65 -90.5t-100.5 -42l-1 -4q42 -2 72 -25t42 -57.5t17 -76.5t-3 -81l-69 -491q-5 -53 -1.5 -99.5t31 -78t75.5 -31.5h76l-7 -56h-86z" glyph-name="braceleft.aalt" horiz-adv-x="880"/><glyph d="M183 -306h-85l7 56h76q48 0 84 32t53.5 76.5t25.5 100.5l70 491q8 58 30 108.5t65 89.5t99 42l1 4q-55 3 -87.5 42t-40.5 90.5t0 109.5l70 490q5 53 1.5 100t-30.5 78t-76 31h-75l8 56h85q42 0 71 -13t53 -48t28 -94.5t-7 -155.5l-64 -455q-6 -28 -0.5 -63t17 -65.5 t43.5 -52.5t78 -23l-7 -56q-46 -1 -84 -22.5t-60.5 -54t-35.5 -64.5t-17 -63l-63 -457q-13 -91 -37 -154.5t-55.5 -96.5t-65 -46t-75.5 -13z" glyph-name="braceright.aalt" horiz-adv-x="880"/><glyph d="M376 1676h433l-7 -55h-369l-255 -1808h369l-7 -56h-434z" glyph-name="bracketleft.aalt" horiz-adv-x="872"/><glyph d="M809 1676l-269 -1919h-434l8 56h368l255 1808h-368l7 55h433z" glyph-name="bracketright.aalt" horiz-adv-x="872"/><glyph d="M246 745h421l-9 -57h-421z" glyph-name="hyphen.aalt" horiz-adv-x="860"/><glyph d="M246 745h926l-8 -57h-927z" glyph-name="endash.aalt" horiz-adv-x="1366"/><glyph d="M246 745h1627l-9 -57h-1627z" glyph-name="emdash.aalt" horiz-adv-x="2066"/><glyph d="M711 1100l-393 -384l284 -384h-78l-283 384l392 384h78zM1086 1100l-392 -384l284 -384h-78l-284 384l393 384h77z" glyph-name="guillemotleft.aalt" horiz-adv-x="1229"/><glyph d="M295 1100h78l283 -384l-391 -384h-77l392 384zM671 1100h78l283 -384l-391 -384h-77l391 384z" glyph-name="guillemotright.aalt" horiz-adv-x="1230"/></font>
</defs>
</svg>
