<?xml version="1.0" standalone="no"?>
<!DOCTYPE svg PUBLIC "-//W3C//DTD SVG 1.1//EN" "http://www.w3.org/Graphics/SVG/1.1/DTD/svg11.dtd">
<svg xmlns="http://www.w3.org/2000/svg"><metadata>This SVG WebFont was generated by YouWorkForThem.
Copyright Â© 2019 by TypeUnion. All rights reserved.</metadata><defs><font horiz-adv-x="1372" id="ywftsvg"><font-face ascent="1638" bbox="-971 -632 2974.52 2099" cap-height="1434" descent="-410" font-family="" font-stretch="normal" font-weight="800" panose-1="0 0 9 0 0 0 0 0 0 0" underline-position="0" underline-thickness="0" unicode-range="U+0020-FB02" units-per-em="2048" x-height="1075"/><missing-glyph d="M249 1434h1154l-202 -1434h-1154zM902 302l117 830h-469l-117 -830h469z" horiz-adv-x="1399"/><glyph d="M1621 1075l-43 -307l-109 -768h-460l108 768h-410l-109 -768h-461l109 768h-162l43 307h162l30 219q14 100 95 171t182 71h475l-40 -287h-164q-44 0 -72 -24t-34 -68l-11 -82h871zM1185 1434h512l-40 -281h-512z" glyph-name="uniFB01" horiz-adv-x="1668" unicode="fi"/><glyph d="M1645 1536l-40 -287l-177 -1249h-460l176 1249h-277q-44 0 -72 -24t-34 -68l-11 -82h257l-43 -307h-257l-109 -768h-461l109 768h-162l43 307h162l30 219q14 100 95 171t182 71h1049z" glyph-name="uniFB02" horiz-adv-x="1586" unicode="fl"/><glyph d="M1880 1249q-44 0 -72 -24t-34 -68l-12 -82h257l-43 -307h-257l-108 -768h-461l108 768h-551l-109 -768h-461l109 768h-162l43 307h162l30 219q14 100 95 171t182 71h475l-40 -287h-164q-44 0 -72 -24t-34 -68l-11 -82h552l30 219q14 100 94.5 171t182.5 71h475l-40 -287 h-164z" glyph-name="f_f.liga" horiz-adv-x="2025" unicode="ff"/><glyph d="M2685 1075l-152 -1075h-460l108 768h-462l-108 -768h-461l108 768h-551l-109 -768h-461l109 768h-162l43 307h162l30 219q14 100 95 171t182 71h475l-40 -287h-164q-44 0 -72 -24t-34 -68l-11 -82h552l30 219q14 100 94.5 171t182.5 71h475l-40 -287h-164q-44 0 -72 -24 t-34 -68l-12 -82h923zM2249 1434h512l-40 -281h-512z" glyph-name="f_f_i.liga" horiz-adv-x="2732" unicode="ffi"/><glyph d="M249 1434h1154l-202 -1434h-1154zM902 302l117 830h-469l-117 -830h469z" glyph-name=".notdef" horiz-adv-x="1399"/><glyph glyph-name="glyph1" horiz-adv-x="0"/><glyph glyph-name="glyph2" horiz-adv-x="681"/><glyph glyph-name="space" horiz-adv-x="409" unicode=" "/><glyph d="M174 358l100 1076h461l-203 -1076h-358zM47 0l40 281h512l-40 -281h-512z" glyph-name="exclam" horiz-adv-x="757" unicode="!"/><glyph d="M312 1434h410l-218 -666h-348zM824 1434h410l-218 -666h-348z" glyph-name="quotedbl" horiz-adv-x="1230" unicode="&quot;"/><glyph d="M1471 834l-78 -232h171l-103 -298h-171l-105 -304h-479l105 304h-193l-105 -304h-480l105 304h-171l103 298h171l78 232h-168l102 298h169l104 302h481l-105 -302h193l104 302h479l-104 -302h171l-103 -298h-171zM992 834h-192l-79 -232h192z" glyph-name="numbersign" horiz-adv-x="1671" unicode="#"/><glyph d="M942 857q58 -20 107.5 -49t93 -71t68.5 -93t35 -117t-7 -144q-17 -93 -68.5 -165t-128 -117t-163.5 -71.5t-192 -38.5l-22 -159h-205l20 148q-118 1 -241 29t-214 78l53 378q244 -137 457 -137q216 0 230 98q5 38 -41.5 66t-109 42.5t-144 35.5t-122.5 41 q-134 67 -189.5 172t-23.5 270q30 157 175 262t377 132l22 155h204l-20 -148q210 -10 370 -96l-54 -377q-114 71 -211 99.5t-216 26.5q-52 -1 -101 -20t-60 -59q-7 -27 4.5 -48t34.5 -34.5t60 -26.5t71 -21t78 -19.5t73 -21.5z" glyph-name="dollar" horiz-adv-x="1323" unicode="$"/><glyph d="M885 1001q-30 -216 -150 -329t-297 -113t-265 113t-57 329q30 213 149.5 328t296.5 115t265 -115t58 -328zM1374 1434h218l-967 -1434h-217zM466 762q33 0 57 19.5t39 56t24 74t16 89.5q34 240 -68 240q-101 0 -136 -240q-7 -62 -9.5 -115t16.5 -88.5t61 -35.5zM1864 430 q-30 -216 -150 -329t-297 -113t-265 113t-57 329q30 213 149.5 327.5t296.5 114.5t265 -114.5t58 -327.5zM1445 190q33 0 57 19.5t38.5 56.5t24 74.5t16.5 89.5q34 240 -69 240q-101 0 -135 -240q-7 -62 -9.5 -115.5t16.5 -89t61 -35.5z" glyph-name="percent" horiz-adv-x="1930" unicode="%"/><glyph d="M1511 869l-44 -308h-130l-22 -157q-14 -109 -77 -192t-160.5 -132t-214.5 -73.5t-249 -24.5q-104 0 -195 14.5t-168.5 47.5t-129.5 81.5t-76.5 119.5t-11.5 159q29 212 259 327q-121 112 -95 295q14 105 73.5 188t146.5 133.5t190 76t213.5 25.5t205.5 -25.5t169 -76 t109 -133t21 -188.5l-403 -20q8 58 -25.5 97t-119.5 39t-130.5 -38.5t-52.5 -98t25.5 -98t119.5 -38.5h772zM857 425l20 136h-182q-95 0 -142.5 -39t-56 -97t28.5 -97t132 -39q94 0 143 38.5t57 97.5z" glyph-name="ampersand" horiz-adv-x="1515" unicode="&amp;"/><glyph d="M312 1434h410l-218 -666h-348z" glyph-name="quotesingle" horiz-adv-x="718" unicode="'"/><glyph d="M203 -486q-154 505 -80 1027t369 1021h423q-123 -219 -207 -484t-121.5 -532.5t-28 -535.5t68.5 -496h-424z" glyph-name="parenleft" horiz-adv-x="893" unicode="("/><glyph d="M403 -486h-423q250 464 330.5 1031.5t-43.5 1016.5h424q155 -497 81.5 -1021t-369.5 -1027z" glyph-name="parenright" horiz-adv-x="894" unicode=")"/><glyph d="M934 1056l-249 -77l119 -194l-191 -137l-115 189l-168 -189l-152 137l173 194l-227 77l99 202l215 -72l35 248h218l-35 -248l236 72z" glyph-name="asterisk" horiz-adv-x="912" unicode="*"/><glyph d="M1194 870l-43 -307h-282l-46 -323h-461l47 323h-282l43 307h282l45 324h460l-45 -324h282z" glyph-name="plus" horiz-adv-x="1269" unicode="+"/><glyph d="M94 332h461l-246 -655h-409z" glyph-name="comma" horiz-adv-x="706" unicode=","/><glyph d="M147 712h615l-49 -348h-615z" glyph-name="hyphen" horiz-adv-x="860" unicode="-"/><glyph d="M101 383h512l-54 -383h-512z" glyph-name="period" horiz-adv-x="757" unicode="."/><glyph d="M1090 1434l-656 -1434h-469l656 1434h469z" glyph-name="slash" horiz-adv-x="1004" unicode="/"/><glyph d="M1368 717q-25 -182 -91.5 -323.5t-164 -231.5t-221.5 -136t-268 -46q-143 0 -253.5 46t-183 136t-99 231.5t-0.5 323.5q50 354 249.5 545.5t493.5 191.5q145 0 256.5 -48t182.5 -139.5t97.5 -231.5t1.5 -318zM671 317q36 0 66 15t52.5 44.5t39.5 64.5t29.5 83t21.5 92 t17 101q12 104 13.5 193t-30 147.5t-98.5 58.5q-170 0 -224 -399q-12 -86 -15 -149t5 -124.5t39 -94t84 -32.5z" glyph-name="zero" horiz-adv-x="1403" unicode="0"/><glyph d="M905 348h348l-49 -348h-1157l49 348h348l99 696q-151 -100 -286 -138l54 389q142 26 282 139h465z" glyph-name="one" horiz-adv-x="1402" unicode="1"/><glyph d="M1297 348l-49 -348h-1262l49 348q135 70 242.5 130.5t218 129.5t185.5 128.5t125.5 119.5t57.5 111q8 58 -26 98.5t-101 41.5q-215 3 -427 -105l-114 300q168 80 307 116.5t302 36.5q293 0 440.5 -111t121.5 -291q-10 -71 -36.5 -137.5t-60 -120t-86 -108.5t-99 -95 t-116.5 -88t-120 -79t-127 -77h575z" glyph-name="two" horiz-adv-x="1385" unicode="2"/><glyph d="M267 1434h1138l-49 -349l-415 -243q94 -18 157 -43q279 -110 232 -392q-23 -145 -122 -245t-245 -143.5t-327 -38.5q-206 5 -336 34.5t-296 113.5l224 316q73 -51 206.5 -85.5t245.5 -31.5q72 0 128.5 21.5t64.5 63.5q12 60 -54 109t-189 49q-166 0 -237 -10l-44 307 l481 218h-612z" glyph-name="three" horiz-adv-x="1410" unicode="3"/><glyph d="M1507 644l-49 -348h-206l-42 -296h-460l42 296h-703l49 348l744 790h530l-110 -790h205zM563 644h278l50 361z" glyph-name="four" horiz-adv-x="1614" unicode="4"/><glyph d="M339 1434h1053l-50 -349h-654l-37 -161q84 7 187.5 1t168.5 -24q178 -48 266 -171t61 -293q-18 -121 -80 -211.5t-156 -144.5t-210 -79.5t-252 -21.5q-206 5 -336 34.5t-296 113.5l224 316q71 -50 204.5 -83.5t247.5 -33.5q76 0 131.5 27t66.5 88q9 50 -48.5 95.5 t-146.5 70t-177 24.5q-95 0 -232 -20l-73 102z" glyph-name="five" horiz-adv-x="1410" unicode="5"/><glyph d="M1333 465q-16 -123 -85 -218.5t-170.5 -151.5t-216.5 -84t-236 -28q-96 0 -184.5 16.5t-166 54.5t-132 93t-80 137t-11.5 181q6 44 15 75.5t34 77.5t49.5 81t86.5 113.5t118.5 145.5t170.5 206.5t219 269.5h543l-436 -539q147 35 259 -2q126 -40 185.5 -157t37.5 -271z M666.5 280q48.5 0 88 18t63 47t37 59.5t18 60.5t-1 60t-21 59t-50 47t-82.5 18t-87.5 -18t-63 -47t-37.5 -59t-18 -60t1 -60.5t21 -59.5t50 -47t82.5 -18z" glyph-name="six" horiz-adv-x="1404" unicode="6"/><glyph d="M187 1434h1117l-50 -349q-116 -123 -207.5 -237.5t-179.5 -249t-155.5 -285t-111.5 -313.5h-481q86 317 244 578.5t390 506.5h-615z" glyph-name="seven" horiz-adv-x="1239" unicode="7"/><glyph d="M1325 404q-14 -109 -77 -192t-160.5 -132t-214 -73.5t-248.5 -24.5q-104 0 -195.5 14.5t-169 47.5t-129.5 81.5t-76 119.5t-12 159q29 212 259 327q-121 112 -95 295q14 105 73.5 188t146.5 133.5t190 76t213.5 25.5t206 -25.5t169 -76t109 -133t20.5 -188.5 q-25 -183 -176 -295q195 -117 166 -327zM604 1005.5q-8 -59.5 26 -98t120 -38.5t130 39t52 97.5t-25.5 97.5t-119.5 39t-130.5 -38.5t-52.5 -98zM668 289q94 0 142.5 38.5t57 97.5t-29.5 97.5t-132 38.5q-95 0 -143 -39t-56 -97t29 -97t132 -39z" glyph-name="eight" horiz-adv-x="1404" unicode="8"/><glyph d="M123 972q16 123 85.5 218.5t170.5 151.5t216 84t236 28q96 0 184.5 -17t166.5 -54.5t132 -92.5t79.5 -137t11.5 -181q-6 -44 -15 -76t-34 -77.5t-49.5 -81t-86.5 -113.5t-118 -145t-170.5 -206.5t-219.5 -269.5h-543l436 539q-148 -35 -259 2q-127 40 -186 156.5 t-37 271.5zM789.5 1157q-48.5 0 -87.5 -18.5t-63 -47t-37.5 -59.5t-17.5 -60q-6 -42 3.5 -81.5t48 -71.5t101.5 -32q48 0 87.5 18t63 47.5t38 59.5t18.5 59.5t-1 60.5t-21 59.5t-50 47t-82.5 18.5z" glyph-name="nine" horiz-adv-x="1404" unicode="9"/><glyph d="M199 1075h512l-55 -383h-512zM101 383h512l-54 -383h-512z" glyph-name="colon" horiz-adv-x="757" unicode=":"/><glyph d="M199 1075h512l-55 -383h-512zM120 332h461l-246 -655h-410z" glyph-name="semicolon" horiz-adv-x="757" unicode=";"/><glyph d="M1195 1265l-54 -389l-624 -159l579 -159l-55 -389l-933 256l54 389l27 195z" glyph-name="less" horiz-adv-x="1216" unicode="&lt;"/><glyph d="M1182 788h-1024l44 308h1024zM1119 338h-1024l43 307h1024z" glyph-name="equal" horiz-adv-x="1269" unicode="="/><glyph d="M225 1265l934 -256l-27 -195l-55 -389l-1006 -256l55 389l624 159l-580 159z" glyph-name="greater" horiz-adv-x="1215" unicode=">"/><glyph d="M656 1434q182 4 316 -39.5t205 -143t53 -244.5q-33 -283 -342 -393q-24 -8 -66 -15.5t-94 -16t-71 -11.5l-27 -192h-419l39 474q69 -10 234 -10q123 0 203 49t85 109q3 42 -47.5 63.5t-122.5 21.5q-109 3 -250.5 -31t-229.5 -84l55 391q112 37 219.5 53t259.5 19zM112 0 l40 281h512l-40 -281h-512z" glyph-name="question" horiz-adv-x="1225" unicode="?"/><glyph d="M1311 -86q-189 -66 -431 -66q-276 0 -468.5 107t-277 305.5t-47.5 462.5q26 181 112 339t217 273.5t311 182.5t385 67q198 0 357.5 -59t262 -162t147.5 -249t22 -316q-35 -243 -175.5 -396t-342.5 -153q-109 0 -187 37.5t-103 107.5q-93 -81 -263 -81q-88 0 -156 23.5 t-115.5 72t-67 128t-5.5 185.5q28 207 153 308t307 101q168 0 239 -81l24 65h271l-74 -527q-3 -22 3 -36.5t18.5 -21t23 -9t22.5 -2.5q69 0 110.5 77.5t57.5 193.5q36 259 -110.5 409t-460.5 150q-294 0 -488.5 -171t-234.5 -456q-22 -157 8.5 -281t106 -205t189.5 -124 t260 -43q198 0 366 49zM1069 598l36 250q-45 67 -122 66q-70 0 -108.5 -54t-51.5 -137q-11 -82 12.5 -136.5t93.5 -54.5q78 0 140 66z" glyph-name="at" horiz-adv-x="1925" unicode="@"/><glyph d="M1122 0l-40 233h-524l-105 -233h-529l717 1434h696l314 -1434h-529zM716 582h307l-85 493z" glyph-name="A" horiz-adv-x="1726" unicode="A"/><glyph d="M249 1434h883q194 0 299 -95.5t80 -271.5q-13 -88 -64 -173t-117 -116q197 -78 158 -357q-19 -141 -107.5 -238t-214 -140t-280.5 -43h-839zM707 1121l-35 -247h188q77 0 119.5 28t51.5 93q10 74 -21 100t-115 26h-188zM807 302q161 -3 182 140q10 68 -25 99.5t-116 31.5 h-218l-38 -267z" glyph-name="B" horiz-adv-x="1565" unicode="B"/><glyph d="M1322 1057q-199 72 -377 49q-139 -12 -235.5 -114.5t-121 -274.5t43 -274.5t204.5 -114.5q172 -23 391 49l-49 -350q-185 -47 -390 -47q-127 0 -240.5 30t-206.5 91.5t-156.5 148t-90 207t-7.5 260.5t79.5 260.5t149 207t199.5 148t232.5 91.5t248.5 30q204 0 375 -47z " glyph-name="C" unicode="C"/><glyph d="M1609 717q-19 -145 -74 -264.5t-134 -202.5t-181.5 -140t-216.5 -83.5t-239 -26.5h-717l202 1434h717q159 0 286 -45.5t216.5 -132.5t127.5 -225t13 -314zM762 348q96 0 171.5 53.5t117.5 134.5t56 181q13 98 -8 180.5t-81.5 135t-152.5 52.5h-164l-103 -737h164z" glyph-name="D" horiz-adv-x="1644" unicode="D"/><glyph d="M598 348h686l-49 -348h-1188l202 1434h1188l-49 -349h-687l-27 -194h594l-48 -348h-594z" glyph-name="E" horiz-adv-x="1433" unicode="E"/><glyph d="M549 0h-502l202 1434h1147l-49 -349h-646l-27 -194h563l-48 -348h-563z" glyph-name="F" horiz-adv-x="1392" unicode="F"/><glyph d="M883 886h580l-114 -813q-290 -93 -561 -93q-127 0 -240.5 30t-206.5 91.5t-156.5 148t-90 207t-7.5 260.5t79.5 260.5t149 207t199.5 148t232.5 91.5t248.5 30q204 0 375 -47l-49 -350q-199 72 -377 49q-139 -12 -235.5 -114.5t-121 -274.5t43 -274.5t204.5 -114.5 q59 -8 132 -3l33 243h-163z" glyph-name="G" horiz-adv-x="1537" unicode="G"/><glyph d="M1191 1434h502l-202 -1434h-502l77 543h-440l-77 -543h-502l202 1434h502l-77 -543h440z" glyph-name="H" horiz-adv-x="1689" unicode="H"/><glyph d="M549 0h-502l202 1434h502z" glyph-name="I" horiz-adv-x="747" unicode="I"/><glyph d="M100 379q165 -52 264 -41q215 25 240 215l124 881h502l-125 -891q-18 -136 -65.5 -237t-113 -162.5t-159 -99t-191.5 -51t-223 -13.5q-178 0 -304 33z" glyph-name="J" horiz-adv-x="1226" unicode="J"/><glyph d="M1663 1434l-511 -686l309 -748h-547l-272 659l-93 -659h-502l202 1434h502l-85 -606l450 606h547z" glyph-name="K" horiz-adv-x="1537" unicode="K"/><glyph d="M751 1434l-153 -1086h635l-49 -348h-1137l202 1434h502z" glyph-name="L" horiz-adv-x="1310" unicode="L"/><glyph d="M1445 1434h694l-202 -1434h-501l112 797l-313 -675h-451l-122 675l-113 -797h-502l202 1434h694l146 -750z" glyph-name="M" horiz-adv-x="2136" unicode="M"/><glyph d="M1211 1434h502l-202 -1434h-501l-363 694l-98 -694h-502l202 1434h502l365 -675z" glyph-name="N" horiz-adv-x="1710" unicode="N"/><glyph d="M1696 717q-19 -144 -81 -266t-150.5 -208t-200 -146t-232.5 -88.5t-245.5 -28.5t-237 28.5t-206.5 88.5t-158 146t-91 207.5t-7 266.5q19 140 79.5 261t148.5 207t199 147.5t232.5 91.5t247.5 30t240 -30t207 -91.5t157 -147.5t90.5 -207t7.5 -261zM836 328 q141 0 237 106.5t121 282.5q25 175 -44 282t-205 107q-135 0 -233.5 -107t-122.5 -282q-25 -176 41 -282.5t206 -106.5z" glyph-name="O" horiz-adv-x="1731" unicode="O"/><glyph d="M966 1434q292 0 448 -128.5t122 -368.5q-19 -140 -80 -235t-176.5 -155.5t-276 -89.5t-395.5 -37l-59 -420h-502l202 1434h717zM1034 937q10 78 -30.5 123.5t-114.5 45.5h-184l-51 -358q210 7 288 47t92 142z" glyph-name="P" horiz-adv-x="1541" unicode="P"/><glyph d="M994 1454q126 0 240 -30t207 -91.5t157 -147.5t90.5 -207t7.5 -261q-35 -255 -188 -427.5t-378 -251.5q70 -90 190 -150l-256 -256q-94 38 -188 136.5t-152 213.5q-117 7 -220 39.5t-189 94t-143 145.5t-80.5 201.5t-4.5 254.5q19 140 79.5 261t148.5 207t199 147.5 t232.5 91.5t247.5 30zM1194 717q25 175 -44 282t-205 107q-135 0 -233.5 -107t-122.5 -282q-25 -176 40.5 -282.5t206.5 -106.5t237 106.5t121 282.5z" glyph-name="Q" horiz-adv-x="1731" unicode="Q"/><glyph d="M1536 937q-20 -148 -89 -246.5t-194 -158.5l243 -532h-502l-196 431q-98 -8 -190 -11l-59 -420h-502l202 1434h717q292 0 448 -128.5t122 -368.5zM705 1106l-51 -358q210 7 288 47t92 142q10 78 -30.5 123.5t-114.5 45.5h-184z" glyph-name="R" horiz-adv-x="1633" unicode="R"/><glyph d="M78 465q244 -137 457 -137q216 0 230 98q5 38 -41.5 66t-109 42.5t-144 35.5t-122.5 41q-134 67 -189.5 172t-23.5 270q35 180 219.5 291t476.5 111q251 0 432 -97l-54 -377q-114 71 -211 99.5t-216 26.5q-52 -1 -101 -20t-60 -59q-7 -27 4.5 -48t34.5 -34.5t60 -26.5 t71 -21t78 -19.5t73 -21.5q58 -20 107.5 -49t93 -71t68.5 -93t35 -117t-7 -144q-17 -93 -70.5 -165.5t-125 -116.5t-167.5 -72t-190 -38.5t-201 -10.5q-119 0 -244 28t-216 79z" glyph-name="S" horiz-adv-x="1323" unicode="S"/><glyph d="M1365 1434l-49 -349h-364l-152 -1085h-502l153 1085h-364l49 349h1229z" glyph-name="T" horiz-adv-x="1249" unicode="T"/><glyph d="M1653 1434l-113 -799q-25 -182 -91 -310.5t-170.5 -203.5t-235 -108t-298.5 -33q-111 0 -199.5 14t-165 45.5t-127.5 82t-85.5 123t-40 169.5t8.5 221l113 799h502l-125 -891q-13 -93 31 -154t138 -61t156 61t75 154l125 891h502z" glyph-name="U" horiz-adv-x="1649" unicode="U"/><glyph d="M1211 1434h529l-656 -1434h-696l-252 1434h529l127 -1044z" glyph-name="V" horiz-adv-x="1624" unicode="V"/><glyph d="M1890 1434h524l-584 -1434h-536l-100 859l-342 -859h-536l-180 1434h523l37 -795l289 795h580l65 -795z" glyph-name="W" horiz-adv-x="2297" unicode="W"/><glyph d="M1729 1434l-544 -700l384 -734h-553l-217 418l-322 -418h-553l593 734l-346 700h545l186 -378l280 378h547z" glyph-name="X" horiz-adv-x="1644" unicode="X"/><glyph d="M1110 1434h527l-638 -983l-63 -451h-502l64 451l-362 983h531l148 -512z" glyph-name="Y" horiz-adv-x="1521" unicode="Y"/><glyph d="M1478 1434l-50 -349l-707 -737h604l-49 -348h-1229l49 348l698 737h-594l49 349h1229z" glyph-name="Z" horiz-adv-x="1474" unicode="Z"/><glyph d="M263 1536h728l-43 -307h-267l-195 -1383h268l-43 -307h-728z" glyph-name="bracketleft" horiz-adv-x="973" unicode="["/><glyph d="M167 1434h469l252 -1434h-469z" glyph-name="backslash" horiz-adv-x="1004" unicode="\"/><glyph d="M991 1536l-280 -1997h-728l43 307h267l194 1383h-267l43 307h728z" glyph-name="bracketright" horiz-adv-x="973" unicode="]"/><glyph d="M857 819h-247l-47 381l-153 -381h-247l248 615h370z" glyph-name="asciicircum" horiz-adv-x="940" unicode="^"/><glyph d="M33 -102h1433l-43 -308h-1433z" glyph-name="underscore" horiz-adv-x="1679" unicode="_"/><glyph d="M256 1485h423l138 -307h-338z" glyph-name="grave" horiz-adv-x="849" unicode="`"/><glyph d="M712 1096q153 0 264 -33.5t171.5 -91t84.5 -129t13 -154.5l-97 -689h-440l-7 98q-98 -68 -199.5 -96.5t-229.5 -20.5q-130 8 -196 85t-64 173q2 80 29 149.5t83.5 132.5t145.5 101t216 55t295 -5l4 26q5 40 -45 72.5t-124 39.5q-165 15 -414 -78l39 280q225 85 471 85z M731 314l22 154q-135 31 -223 -17.5t-86 -127.5q1 -39 33 -58t82 -14q89 8 172 63z" glyph-name="a" horiz-adv-x="1305" unicode="a"/><glyph d="M1364 538q-19 -144 -76 -253.5t-141.5 -175t-187.5 -97.5t-223 -32q-93 0 -183.5 25t-142.5 85l-34 -90h-370l216 1536h461l-74 -521q48 39 126.5 60t158.5 21q121 0 214.5 -34t158.5 -100.5t90.5 -174.5t6.5 -249zM686 276q94 0 148 75t69 187q8 74 2.5 134t-43 98.5 t-101.5 38.5q-102 0 -188 -59l-53 -383q61 -91 166 -91z" glyph-name="b" horiz-adv-x="1415" unicode="b"/><glyph d="M1089 756q-61 27 -143 39t-163 4q-115 -12 -186 -84.5t-85 -177t36 -176.5t162 -85q164 -16 317 43l-41 -294q-159 -45 -373 -45q-96 0 -184.5 20t-165 65.5t-129 109.5t-75.5 157.5t-7.5 205t65 205.5t120.5 158t160 109t183.5 65.5t190.5 20.5q212 0 358 -45z" glyph-name="c" horiz-adv-x="1108" unicode="c"/><glyph d="M51 538q19 141 75.5 249t140.5 174.5t187.5 100.5t224.5 34q80 0 152 -21t108 -60l74 521h461l-217 -1536h-369l-7 90q-71 -60 -169 -85t-191 -25q-95 0 -174 19.5t-142.5 62t-102.5 109t-54 157.5t3 210zM655 276q106 0 193 91l53 383q-69 59 -171 59q-95 0 -148 -76 t-70 -195q-7 -69 -1.5 -127t42.5 -96.5t102 -38.5z" glyph-name="d" horiz-adv-x="1415" unicode="d"/><glyph d="M751 1096q139 0 244 -35t167 -97t89.5 -147.5t19 -187.5t-51.5 -214h-720q26 -78 112 -110t232 -35q154 -3 295 49l-41 -294q-159 -45 -427 -45q-143 0 -262 33.5t-207 100t-128.5 175t-21.5 249.5q15 112 63 205.5t116 157.5t154 109t178.5 65.5t188.5 20.5zM877 671 q24 63 -16.5 107.5t-118.5 40.5q-141 -7 -212 -148h347z" glyph-name="e" horiz-adv-x="1309" unicode="e"/><glyph d="M1071 1536l-40 -287h-164q-44 0 -72 -24t-34 -68l-11 -82h257l-43 -307h-257l-109 -768h-461l109 768h-162l43 307h162l30 219q14 100 95 171t182 71h475z" glyph-name="f" horiz-adv-x="1012" unicode="f"/><glyph d="M948 1075h459l-135 -957q-25 -171 -129 -296t-263.5 -188.5t-357.5 -63.5q-223 0 -369 45l42 295q134 -59 315 -43q134 12 207 52.5t84 119.5l11 83q-46 -39 -124 -60t-158 -21q-120 0 -214.5 33.5t-159.5 97.5t-92 165t-9 231q18 133 70.5 235.5t130 165.5t171 95 t201.5 32q196 0 302 -154zM516 568q-34 -241 146 -240q102 0 187 59l45 322q-60 90 -166 90q-95 0 -146.5 -64.5t-65.5 -166.5z" glyph-name="g" horiz-adv-x="1413" unicode="g"/><glyph d="M467 0h-461l216 1536h461l-85 -603q170 163 439 163q194 0 249.5 -94t24.5 -321l-97 -681h-460l79 558q19 108 6 164t-75 56q-48 0 -102 -27t-100 -76z" glyph-name="h" unicode="h"/><glyph d="M223 1434h512l-40 -281h-512zM199 1075h460l-151 -1075h-461z" glyph-name="i" horiz-adv-x="706" unicode="i"/><glyph d="M223 1434h512l-40 -281h-512zM659 1075l-156 -1111q-11 -82 -46.5 -142.5t-81.5 -94t-110.5 -53t-121 -25t-127.5 -4.5q-150 2 -229 55l36 178q105 -25 165 2q29 13 40.5 39t18.5 80l152 1076h460z" glyph-name="j" horiz-adv-x="706" unicode="j"/><glyph d="M1459 1075l-493 -424l342 -651h-475l-171 390l-159 -137l-36 -253h-461l216 1536h461l-114 -808l415 347h475z" glyph-name="k" horiz-adv-x="1424" unicode="k"/><glyph d="M222 1536h461l-216 -1536h-461z" glyph-name="l" horiz-adv-x="624" unicode="l"/><glyph d="M1739 1096q201 0 272 -125t30 -413l-79 -558h-461l79 558q15 113 -4.5 166.5t-84.5 53.5q-80 0 -131 -53.5t-64 -145.5v1l-3 -22l-79 -558h-460l79 558q15 113 -4.5 166.5t-85.5 53.5q-80 0 -131 -53.5t-63 -145.5l-82 -579h-461l152 1075h460l-20 -142q93 89 180 126 t213 37q132 0 206.5 -52t98.5 -163q176 215 443 215z" glyph-name="m" horiz-adv-x="2119" unicode="m"/><glyph d="M467 0h-461l152 1075h460l-20 -142q170 163 439 163q194 0 249.5 -94t24.5 -321l-97 -681h-460l79 558q19 108 6 164t-75 56q-48 0 -102 -27t-100 -76z" glyph-name="n" unicode="n"/><glyph d="M1333 538q-15 -115 -65 -210t-121.5 -158.5t-161 -107.5t-182.5 -63t-189.5 -19t-184 19t-164.5 63t-130 107.5t-76.5 158.5t-7.5 210q15 112 65 205.5t121 157.5t160 109t183.5 65.5t190.5 20.5t184.5 -20.5t165 -65.5t129.5 -109t75.5 -157.5t7.5 -205.5zM655 276 q94 0 148 75t69 187q9 50 4.5 97t-18 83.5t-47 58.5t-82.5 22t-88.5 -21.5t-64.5 -59.5t-41 -83t-23 -97q-7 -69 -1.5 -127t42.5 -96.5t102 -38.5z" glyph-name="o" horiz-adv-x="1384" unicode="o"/><glyph d="M1364 538q-19 -141 -75.5 -249.5t-140.5 -175t-187.5 -100t-224.5 -33.5q-80 0 -152 21t-108 59l-74 -521h-460l216 1536h369l8 -90q71 60 168.5 85.5t190.5 25.5q95 0 174 -20t142.5 -62.5t102.5 -108.5t54 -157t-3 -210zM760 799q-106 0 -193 -90l-53 -383 q69 -59 171 -60q95 0 148 76t70 196q7 69 1.5 126.5t-42.5 96t-102 38.5z" glyph-name="p" horiz-adv-x="1415" unicode="p"/><glyph d="M51 538q19 144 76 253t141.5 174.5t187.5 98t223 32.5q93 0 183.5 -25t143.5 -86l33 90h370l-216 -1536h-461l74 521q-48 -39 -126.5 -59.5t-158.5 -20.5q-121 0 -214.5 33.5t-158.5 100t-90.5 175t-6.5 249.5zM729 799q-94 0 -148 -75t-69 -186q-8 -74 -2.5 -134.5 t43 -99t101.5 -38.5q102 0 188 60l53 383q-61 90 -166 90z" glyph-name="q" horiz-adv-x="1415" unicode="q"/><glyph d="M467 0l-461 1l152 1074h449l-15 -108q59 49 179 89t212 40l-44 -313q-71 14 -199.5 -19.5t-175.5 -75.5z" glyph-name="r" horiz-adv-x="924" unicode="r"/><glyph d="M73 342q133 -80 325 -98q68 -7 120 10.5t71 54.5q7 15 -1 28t-32.5 23.5t-49 18t-63.5 18.5q-32 8 -48 14q-188 51 -260.5 136.5t-50.5 224.5q17 110 105.5 184.5t214.5 107t285 32.5q112 0 216.5 -19.5t166.5 -55.5l-40 -286q-143 86 -334 96q-54 0 -97 -14t-51 -45 q-8 -32 58 -60q20 -8 187 -62q5 -2 11 -4q73 -24 119.5 -48t81.5 -59.5t46.5 -86t0.5 -117.5q-14 -92 -70.5 -162.5t-141 -112t-184 -61t-211.5 -19.5q-118 0 -236.5 21t-177.5 57z" glyph-name="s" horiz-adv-x="1133" unicode="s"/><glyph d="M855 0h-475q-101 0 -162 70.5t-47 171.5l75 526h-162l43 307h162l28 205h461l-28 -205h257l-43 -307h-257l-56 -389q-6 -44 15.5 -68t65.5 -24h164z" glyph-name="t" horiz-adv-x="1012" unicode="t"/><glyph d="M905 1075h461l-152 -1075h-460l20 142q-170 -163 -439 -162q-194 0 -249.5 93.5t-24.5 320.5l97 681h460l-78 -558q-19 -108 -6.5 -164t74.5 -56q48 0 102 27t100 76z" glyph-name="u" unicode="u"/><glyph d="M1009 1075h486l-503 -1075h-676l-199 1075h489l90 -781z" glyph-name="v" horiz-adv-x="1460" unicode="v"/><glyph d="M1674 1075h486l-467 -1075h-541l-78 634l-253 -634h-540l-164 1075h485l73 -607l223 607h480l72 -607z" glyph-name="w" horiz-adv-x="2124" unicode="w"/><glyph d="M1397 1075l-395 -507l243 -568h-475l-124 291l-206 -291h-475l403 568l-251 507h475l128 -259l202 259h475z" glyph-name="x" horiz-adv-x="1361" unicode="x"/><glyph d="M1009 1075h486l-586 -1050q-274 -488 -869 -424l20 285q134 -29 211 4t99 135l-253 1050h489l96 -641z" glyph-name="y" horiz-adv-x="1460" unicode="y"/><glyph d="M1199 1075l-42 -307l-570 -461h505l-44 -307h-1073l43 307l570 461h-504l43 307h1072z" glyph-name="z" horiz-adv-x="1175" unicode="z"/><glyph d="M569 -461q-421 0 -363 398l44 320q9 60 -23.5 92t-125.5 35l43 307q93 3 135 35t51 92l44 321q57 397 476 397h251l-43 -307h-76q-77 0 -109.5 -29t-44.5 -105l-50 -363q-27 -184 -266 -192v-4q126 -4 174.5 -55t36.5 -138l-50 -362q-11 -77 13.5 -106t100.5 -29h76 l-43 -307h-251z" glyph-name="braceleft" horiz-adv-x="1083" unicode="{"/><glyph d="M263 1536h461l-273 -1946h-461z" glyph-name="bar" horiz-adv-x="706" unicode="|"/><glyph d="M234 -461h-250l43 307h75q77 0 110 29t43 106l51 362q27 184 265 193l1 4q-126 4 -175 55t-37 137l52 363q10 77 -14.5 105.5t-101.5 28.5h-76l44 307h251q419 0 365 -397l-46 -321q-8 -60 24.5 -92t124.5 -35l-44 -307q-93 -3 -134.5 -35t-48.5 -92l-46 -320 q-56 -398 -476 -398z" glyph-name="braceright" horiz-adv-x="1084" unicode="}"/><glyph d="M122 528q13 99 48.5 174t84.5 118t103.5 64t113.5 21q81 0 198 -42t167 -42q70 0 85 84h276q-13 -99 -48.5 -174t-84.5 -118t-103.5 -64t-113.5 -21q-80 0 -197 42t-168 42q-69 0 -85 -84h-276z" glyph-name="asciitilde" horiz-adv-x="1269" unicode="~"/><glyph d="M199 1075h512l-40 -280h-512zM225 717h359l-101 -1075h-460z" glyph-name="exclamdown" horiz-adv-x="757" unicode="¡"/><glyph d="M1089 756q-74 32 -170 43l-74 -523q98 11 182 43l-41 -294q-75 -22 -181 -35l-23 -158h-204l20 148q-95 2 -181 23.5t-160.5 66.5t-125 109t-73 156t-7 202.5t64 203t117 156.5t156 109t179.5 66.5t188 23.5l20 147h205l-23 -159q98 -11 171 -33zM512 538 q-12 -86 21 -152.5t109 -93.5l70 491q-84 -28 -136 -93.5t-64 -151.5z" glyph-name="cent" horiz-adv-x="1108" unicode="¢"/><glyph d="M766 553q-27 -147 -145 -205h695l-49 -348h-1171l49 348q148 106 186 205h-206l43 307h133q-32 159 -12 295q19 138 200.5 218.5t479.5 80.5q204 0 374 -47l-49 -350q-198 72 -375 50q-69 -8 -114 -46t-52 -94q-4 -32 6 -107h433l-43 -307h-383z" glyph-name="sterling" horiz-adv-x="1465" unicode="£"/><glyph d="M1154 717q-25 -178 -153 -309l125 -146l-128 -112l-129 149q-140 -84 -300 -84q-167 0 -282 90l-177 -155l-98 112l173 152q-84 137 -59 303q23 167 144 303l-130 151l128 113l134 -156q141 90 308 91q160 0 277 -84l170 149l97 -113l-165 -145q91 -130 65 -309zM612 524 q82 0 146 55t77 138q11 83 -37.5 137.5t-130.5 54.5t-146 -54.5t-76 -137.5t36.5 -138t130.5 -55z" glyph-name="currency" horiz-adv-x="1216" unicode="¤"/><glyph d="M1637 1434l-537 -829h252l-26 -184h-331l-7 -51h331l-26 -185h-330l-27 -185h-502l27 185h-330l26 185h329l8 51h-330l25 184h251l-304 829h531l148 -512l295 512h527z" glyph-name="yen" horiz-adv-x="1521" unicode="¥"/><glyph d="M263 1536h461l-122 -870h-461zM112 461h460l-121 -871h-461z" glyph-name="brokenbar" horiz-adv-x="706" unicode="¦"/><glyph d="M908 848q73 -24 119.5 -48t82 -59.5t46.5 -86t0 -117.5q-26 -163 -179 -255q62 -74 42 -199q-15 -92 -71.5 -162.5t-141 -111.5t-183.5 -61t-210 -20q-119 0 -237.5 21t-177.5 57l40 284q129 -79 324 -98q69 -7 121.5 10.5t69.5 54.5q17 36 -64 65q-20 7 -130 37 q-188 51 -260 136.5t-50 224.5q24 153 181 237q-65 82 -44 217q17 110 105.5 184.5t214.5 106.5t285 32q112 0 216.5 -19.5t167.5 -54.5l-40 -286q-161 96 -334 96q-54 0 -97.5 -14t-51.5 -45q-4 -15 5 -27.5t39 -26t55 -22t84 -27.5q46 -15 73 -23zM690 511q9 20 -9 36 t-59 31q-94 -11 -107 -58q-6 -20 15 -36t69 -33q71 14 91 60z" glyph-name="section" horiz-adv-x="1207" unicode="§"/><glyph d="M255 1476h398l-42 -298h-398zM740 1476h398l-42 -298h-398z" glyph-name="dieresis" horiz-adv-x="1128" unicode="¨"/><glyph d="M762 -45q-165 0 -302 60t-226.5 161.5t-129 242.5t-17.5 298q30 211 156 385.5t320 275.5t413 101q220 0 386.5 -101t244 -275.5t48.5 -385.5q-23 -157 -102.5 -297.5t-198 -243t-273 -162t-319.5 -59.5zM794 173q240 0 415 155t209 389q22 154 -30.5 277.5t-168 195 t-273.5 71.5q-239 0 -414.5 -155.5t-208 -389t99.5 -388.5t371 -155zM1161 862q-90 40 -205 29q-76 -7 -123.5 -56t-56.5 -118q-10 -70 24 -119t108 -56q108 -10 211 28l-26 -196q-102 -30 -250 -30q-81 0 -153 22.5t-127 66.5t-81.5 117.5t-13.5 166.5t60 166t115.5 117 t146 67t158.5 23q142 0 241 -30z" glyph-name="copyright" horiz-adv-x="1690" unicode="©"/><glyph d="M540 1444q177 0 249.5 -69t58.5 -176l-58 -414h-265l-4 60q-113 -79 -257 -71q-78 5 -117 51t-38 104q1 60 27.5 112.5t79 93.5t144.5 57.5t210 2.5l3 23q2 17 -23 31t-68 17q-101 6 -212 -51l-57 151q170 78 327 78zM541 981l13 92q-82 18 -134 -10.5t-51 -76.5 q1 -24 20 -35t48 -8q54 5 104 38z" glyph-name="ordfeminine" horiz-adv-x="805" unicode="ª"/><glyph d="M982 947l-391 -384l283 -384h-463l-284 384l391 384h464zM1651 947l-391 -384l283 -384h-464l-283 384l391 384h464z" glyph-name="guillemotleft" horiz-adv-x="1716" unicode="«"/><glyph d="M1280 1049l-93 -664h-461l44 315h-625l50 349h1085z" glyph-name="logicalnot" horiz-adv-x="1331" unicode="¬"/><glyph d="M690 1504q142 0 249.5 -65t157 -177.5t29.5 -247.5q-29 -206 -194 -348.5t-380 -142.5q-140 0 -246.5 65t-156.5 178t-31 248q30 207 194 348.5t378 141.5zM964.5 1013.5q20.5 146.5 -62.5 243.5t-232 97q-148 0 -259 -97t-131.5 -243.5t63 -243t231.5 -96.5 q150 0 260 96.5t130.5 243zM662 1222q85 0 130 -37.5t34 -107.5q-12 -84 -82 -116l71 -155h-145l-58 125l-54 -3l-17 -122h-146l59 416h208zM586 1126l-15 -103q61 2 83.5 13.5t26.5 40.5q3 24 -9 36.5t-33 12.5h-53z" glyph-name="registered" horiz-adv-x="1111" unicode="®"/><glyph d="M249 1434h614l-36 -256h-614z" glyph-name="macron" horiz-adv-x="860" unicode="¯"/><glyph d="M453.5 891q-115.5 0 -186.5 83t-55 198.5t111 198.5t210.5 83t187 -83t55 -198.5t-111.5 -198.5t-210.5 -83zM478 1059q46 0 84.5 33.5t44.5 79.5q7 46 -22 80t-75 34t-84.5 -33.5t-45.5 -80.5q-6 -46 23 -79.5t75 -33.5z" glyph-name="degree" horiz-adv-x="808" unicode="°"/><glyph d="M1221 1060l-43 -307h-282l-32 -222h-461l32 222h-281l43 307h281l31 221h461l-31 -221h282zM1136 460l-43 -307h-1024l43 307h1024z" glyph-name="plusminus" horiz-adv-x="1269" unicode="±"/><glyph d="M870 974l-29 -209h-758l30 209q220 115 353.5 208t143.5 163q5 36 -15.5 59.5t-59.5 25.5q-130 2 -257 -64l-69 180q100 47 184 69.5t181 22.5q175 0 264 -66.5t73 -174.5q-8 -59 -35.5 -113t-60.5 -93.5t-87.5 -82t-96 -69t-107.5 -65.5h346z" glyph-name="uni00B2" horiz-adv-x="860" unicode="²"/><glyph d="M254 1638h683l-30 -208l-249 -147q52 -9 95 -26q166 -65 139 -235q-20 -130 -134.5 -195t-282.5 -61q-124 3 -201.5 21t-177.5 68l134 189q44 -30 124.5 -50.5t147.5 -19.5q43 0 76.5 13t38.5 38q7 37 -32 66t-113 29q-99 0 -142 -6l-27 184l289 132h-368z" glyph-name="uni00B3" horiz-adv-x="874" unicode="³"/><glyph d="M860 1485l-309 -307h-338l224 307h423z" glyph-name="acute" horiz-adv-x="849" unicode="´"/><glyph d="M905 1075h461l-152 -1075h-460l20 142q-129 -123 -308 -152l-56 -400h-461l108 768q2 25 4 36l97 681h460l-82 -590q-15 -92 -0.5 -140t72.5 -48q48 0 102 27t100 76z" glyph-name="uni00B5" unicode="µ"/><glyph d="M548 813q-174 0 -269 80t-74 226q43 314 464 315h912l-202 -1434h-409l152 1085h-127l-152 -1085h-410z" glyph-name="paragraph" horiz-adv-x="1577" unicode="¶"/><glyph d="M175 908h512l-54 -383h-512z" glyph-name="periodcentered" horiz-adv-x="757" unicode="·"/><glyph d="M283 -91q103 0 156.5 -44.5t43.5 -113.5q-12 -88 -99.5 -141t-251.5 -53q-70 0 -145 13l17 121q46 -8 112 -8q121 0 131 76q5 36 -20.5 52.5t-84.5 16.5q-27 0 -47 -2l11 77l95 102h143l-99 -98q13 2 38 2z" glyph-name="cedilla" horiz-adv-x="716" unicode="¸"/><glyph d="M600 987h209l-30 -209h-694l30 209h209l58 418q-87 -59 -171 -83l33 233q87 15 169 83h278z" glyph-name="uni00B9" horiz-adv-x="796" unicode="¹"/><glyph d="M881 1109q-12 -85 -55 -151.5t-104.5 -105.5t-131 -58.5t-142 -19.5t-136 19.5t-114.5 58.5t-75.5 105t-11.5 152q15 111 84 188.5t158.5 112t189.5 34.5q74 0 137.5 -20.5t113.5 -60t74 -105t13 -149.5zM474 952q56 0 88.5 45t41.5 112q9 68 -10.5 112.5t-75.5 44.5 q-57 0 -89.5 -44.5t-41.5 -112.5t11 -112.5t76 -44.5z" glyph-name="ordmasculine" horiz-adv-x="830" unicode="º"/><glyph d="M181 947h464l284 -384l-392 -384h-464l392 384zM850 947h464l283 -384l-392 -384h-464l393 384z" glyph-name="guillemotright" horiz-adv-x="1716" unicode="»"/><glyph d="M571 782h209l-29 -209h-695l30 209h209l58 418q-87 -59 -171 -83l33 234q87 15 169 83h279zM1422 1434h218l-967 -1434h-217zM1877 386l-29 -209h-124l-24 -177h-277l25 177h-402l28 209l428 474h319l-67 -474h123zM1329 386h149l30 217z" glyph-name="onequarter" horiz-adv-x="1949" unicode="¼"/><glyph d="M571 782h209l-29 -209h-695l30 209h209l58 418q-87 -59 -171 -83l33 234q87 15 169 83h279zM1430 1434h218l-968 -1434h-217zM1959 209l-30 -209h-758l30 209q220 115 354 208t144 163q5 36 -15.5 60t-60.5 25q-130 2 -257 -64l-69 180q100 47 184.5 69.5t181.5 22.5 q175 0 263.5 -66.5t73.5 -174.5q-8 -58 -36 -112.5t-60.5 -94t-87.5 -82t-96.5 -69t-106.5 -65.5h346z" glyph-name="onehalf" horiz-adv-x="2056" unicode="½"/><glyph d="M225 1434h683l-29 -209l-249 -147q52 -9 94 -25q166 -65 139 -236q-20 -130 -134.5 -195t-282.5 -61q-124 3 -201.5 21t-176.5 68l134 190q44 -30 124.5 -51t146.5 -20q43 0 77 13.5t39 37.5q7 37 -32.5 66t-113.5 29q-99 0 -142 -6l-27 185l289 131h-367zM1431 1434h218 l-968 -1434h-217zM1894 386l-28 -209h-124l-25 -177h-276l24 177h-402l29 209l428 474h318l-66 -474h122zM1347 386h148l31 217z" glyph-name="threequarters" horiz-adv-x="1966" unicode="¾"/><glyph d="M1114 1075l-40 -280h-512l40 280h512zM569 -358q-182 -4 -315.5 39.5t-205 142.5t-52.5 245q33 283 342 392q24 8 65.5 15.5t94 16t70.5 11.5l28 192h419l-39 -474q-69 10 -235 10q-123 0 -202.5 -49t-84.5 -109q-3 -42 47.5 -63.5t122.5 -21.5q109 -3 250.5 31t229.5 84 l-55 -391q-112 -37 -220 -52.5t-260 -18.5z" glyph-name="questiondown" horiz-adv-x="1225" unicode="¿"/><glyph d="M1172 1537h-337l-224 307h423zM1122 0l-40 233h-524l-105 -233h-529l717 1434h696l314 -1434h-529zM716 582h307l-85 493z" glyph-name="Agrave" horiz-adv-x="1726" unicode="À"/><glyph d="M1482 1844l-310 -307h-337l224 307h423zM1122 0l-40 233h-524l-105 -233h-529l717 1434h696l314 -1434h-529zM716 582h307l-85 493z" glyph-name="Aacute" horiz-adv-x="1726" unicode="Á"/><glyph d="M1030 1729l-158 -193h-337l275 307h473l190 -307h-338zM1122 0l-40 233h-524l-105 -233h-529l717 1434h696l314 -1434h-529zM716 582h307l-85 493z" glyph-name="Acircumflex" horiz-adv-x="1726" unicode="Â"/><glyph d="M886 1602q-54 0 -67 -66h-217q10 78 38 136.5t66 92t81 50t90 16.5q63 0 155 -33t130 -33q54 0 67 66h217q-10 -78 -38 -136.5t-66 -92t-81 -50t-90 -16.5q-62 0 -154 33t-131 33zM1122 0l-40 233h-524l-105 -233h-529l717 1434h696l314 -1434h-529zM716 582h307l-85 493 z" glyph-name="Atilde" horiz-adv-x="1726" unicode="Ã"/><glyph d="M1002 1834l-41 -298h-399l42 298h398zM1487 1834l-42 -298h-397l42 298h397zM1122 0l-40 233h-524l-105 -233h-529l717 1434h696l314 -1434h-529zM716 582h307l-85 493z" glyph-name="Adieresis" horiz-adv-x="1726" unicode="Ä"/><glyph d="M1122 0l-40 233h-524l-105 -233h-529l717 1434h134q-57 78 -43 183q17 116 111.5 198.5t210 82.5t187 -82.5t54.5 -198.5q-14 -104 -94 -183h136l314 -1434h-529zM936 1617q-4 -32 16 -55t51.5 -23t57.5 23t30.5 55t-15 55t-51.5 23t-58 -23t-31 -55zM716 582h307 l-85 493z" glyph-name="Aring" horiz-adv-x="1726" unicode="Å"/><glyph d="M2025 1085h-583l-28 -194h533l-49 -348h-532l-28 -195h584l-49 -348h-1086l59 417l-26 -184h-262l-105 -233h-529l717 1434h1434zM716 582h153l70 492z" glyph-name="AE" horiz-adv-x="2071" unicode="Æ"/><glyph d="M945 1106q-139 -12 -235.5 -114.5t-121 -274.5t43 -274.5t204.5 -114.5q172 -23 391 49l-49 -350q-155 -39 -337 -46l-75 -74q13 2 38 2q103 0 156.5 -44.5t44.5 -113.5q-12 -88 -100 -141t-252 -53q-70 0 -145 13l17 121q46 -8 112 -8q121 0 131 76q5 36 -20.5 52.5 t-83.5 16.5q-27 0 -48 -2l12 77l73 81q-144 12 -264.5 65.5t-207.5 144t-125.5 225.5t-16.5 298q19 140 79.5 260.5t149 207t199.5 148t232.5 91.5t248.5 30q204 0 375 -47l-49 -350q-199 72 -377 49z" glyph-name="Ccedilla" unicode="Ç"/><glyph d="M465 1844h423l138 -307h-338zM598 348h686l-49 -348h-1188l202 1434h1188l-49 -349h-687l-27 -194h594l-48 -348h-594z" glyph-name="Egrave" horiz-adv-x="1433" unicode="È"/><glyph d="M1335 1844l-309 -307h-338l224 307h423zM598 348h686l-49 -348h-1188l202 1434h1188l-49 -349h-687l-27 -194h594l-48 -348h-594z" glyph-name="Eacute" horiz-adv-x="1433" unicode="É"/><glyph d="M1326 1536h-338l-104 193l-158 -193h-338l276 307h473zM598 348h686l-49 -348h-1188l202 1434h1188l-49 -349h-687l-27 -194h594l-48 -348h-594z" glyph-name="Ecircumflex" horiz-adv-x="1433" unicode="Ê"/><glyph d="M458 1834h398l-42 -298h-398zM943 1834h397l-42 -298h-397zM598 348h686l-49 -348h-1188l202 1434h1188l-49 -349h-687l-27 -194h594l-48 -348h-594z" glyph-name="Edieresis" horiz-adv-x="1433" unicode="Ë"/><glyph d="M122 1844h423l138 -307h-338zM549 0h-502l202 1434h502z" glyph-name="Igrave" horiz-adv-x="747" unicode="Ì"/><glyph d="M992 1844l-309 -307h-338l224 307h423zM549 0h-502l202 1434h502z" glyph-name="Iacute" horiz-adv-x="747" unicode="Í"/><glyph d="M983 1536h-338l-104 193l-158 -193h-338l276 307h473zM549 0h-502l202 1434h502z" glyph-name="Icircumflex" horiz-adv-x="747" unicode="Î"/><glyph d="M115 1834h398l-42 -298h-398zM600 1834h397l-42 -298h-397zM549 0h-502l202 1434h502z" glyph-name="Idieresis" horiz-adv-x="747" unicode="Ï"/><glyph d="M976 1434q159 0 286.5 -45.5t216.5 -132.5t127 -225t13 -314q-19 -145 -74 -264.5t-134 -202.5t-181.5 -140t-216.5 -83.5t-239 -26.5h-717l86 614h-121l28 205h123l86 615h717zM1117 717q13 98 -7.5 180.5t-81 135t-152.5 52.5h-164l-37 -266h206l-29 -205h-207 l-37 -266h164q96 0 171.5 53.5t117.5 135t56 180.5z" glyph-name="Eth" horiz-adv-x="1654" unicode="Ð"/><glyph d="M594 1536q10 78 37.5 136.5t66 92t81.5 50t89 16.5q63 0 155.5 -33t130.5 -33q54 0 67 66h217q-10 -78 -38 -136.5t-66.5 -92t-81.5 -50t-89 -16.5q-62 0 -154.5 33t-130.5 33q-54 0 -67 -66h-217zM1211 1434h502l-202 -1434h-501l-363 694l-98 -694h-502l202 1434h502 l365 -675z" glyph-name="Ntilde" horiz-adv-x="1710" unicode="Ñ"/><glyph d="M614 1844h423l139 -307h-338zM1696 717q-19 -144 -81 -266t-150.5 -208t-200 -146t-232.5 -88.5t-245.5 -28.5t-237 28.5t-206.5 88.5t-158 146t-91 207.5t-7 266.5q19 140 79.5 261t148.5 207t199 147.5t232.5 91.5t247.5 30t240 -30t207 -91.5t157 -147.5t90.5 -207 t7.5 -261zM836 328q141 0 237 106.5t121 282.5q25 175 -44 282t-205 107q-135 0 -233.5 -107t-122.5 -282q-25 -176 41 -282.5t206 -106.5z" glyph-name="Ograve" horiz-adv-x="1731" unicode="Ò"/><glyph d="M1485 1844l-309 -307h-338l224 307h423zM1696 717q-19 -144 -81 -266t-150.5 -208t-200 -146t-232.5 -88.5t-245.5 -28.5t-237 28.5t-206.5 88.5t-158 146t-91 207.5t-7 266.5q19 140 79.5 261t148.5 207t199 147.5t232.5 91.5t247.5 30t240 -30t207 -91.5t157 -147.5 t90.5 -207t7.5 -261zM836 328q141 0 237 106.5t121 282.5q25 175 -44 282t-205 107q-135 0 -233.5 -107t-122.5 -282q-25 -176 41 -282.5t206 -106.5z" glyph-name="Oacute" horiz-adv-x="1731" unicode="Ó"/><glyph d="M1476 1536h-338l-105 193l-157 -193h-338l275 307h473zM1696 717q-19 -144 -81 -266t-150.5 -208t-200 -146t-232.5 -88.5t-245.5 -28.5t-237 28.5t-206.5 88.5t-158 146t-91 207.5t-7 266.5q19 140 79.5 261t148.5 207t199 147.5t232.5 91.5t247.5 30t240 -30t207 -91.5 t157 -147.5t90.5 -207t7.5 -261zM836 328q141 0 237 106.5t121 282.5q25 175 -44 282t-205 107q-135 0 -233.5 -107t-122.5 -282q-25 -176 41 -282.5t206 -106.5z" glyph-name="Ocircumflex" horiz-adv-x="1731" unicode="Ô"/><glyph d="M605 1536q10 78 38 136.5t66.5 92t81.5 50t89 16.5q63 0 155 -33t130 -33q54 0 67 66h217q-10 -78 -38 -136.5t-66 -92t-81 -50t-89 -16.5q-62 0 -154.5 33t-131.5 33q-54 0 -67 -66h-217zM1696 717q-19 -144 -81 -266t-150.5 -208t-200 -146t-232.5 -88.5t-245.5 -28.5 t-237 28.5t-206.5 88.5t-158 146t-91 207.5t-7 266.5q19 140 79.5 261t148.5 207t199 147.5t232.5 91.5t247.5 30t240 -30t207 -91.5t157 -147.5t90.5 -207t7.5 -261zM836 328q141 0 237 106.5t121 282.5q25 175 -44 282t-205 107q-135 0 -233.5 -107t-122.5 -282 q-25 -176 41 -282.5t206 -106.5z" glyph-name="Otilde" horiz-adv-x="1731" unicode="Õ"/><glyph d="M607 1834h399l-42 -298h-399zM1093 1834h397l-42 -298h-397zM1696 717q-19 -144 -81 -266t-150.5 -208t-200 -146t-232.5 -88.5t-245.5 -28.5t-237 28.5t-206.5 88.5t-158 146t-91 207.5t-7 266.5q19 140 79.5 261t148.5 207t199 147.5t232.5 91.5t247.5 30t240 -30 t207 -91.5t157 -147.5t90.5 -207t7.5 -261zM836 328q141 0 237 106.5t121 282.5q25 175 -44 282t-205 107q-135 0 -233.5 -107t-122.5 -282q-25 -176 41 -282.5t206 -106.5z" glyph-name="Odieresis" horiz-adv-x="1731" unicode="Ö"/><glyph d="M1055 464l-249 -218l-217 253l-289 -253l-187 218l288 253l-218 253l249 218l218 -253l288 253l187 -218l-287 -253z" glyph-name="multiply" horiz-adv-x="1187" unicode="×"/><glyph d="M1562 1230q178 -202 134 -513q-19 -144 -81 -266t-150.5 -208t-200 -146t-232.5 -88.5t-246 -28.5q-293 0 -485 145l-132 -116l-92 108l123 107q-155 195 -113 493q19 140 79.5 261t148.5 207t199 147.5t232.5 91.5t247.5 30q271 0 460 -130l115 100l92 -107zM589 717 q-11 -79 -3 -154l537 470q-68 73 -178 73q-135 0 -233 -107t-123 -282zM1194 717q15 104 -5 186l-551 -482q68 -93 198 -93q141 0 237 106.5t121 282.5z" glyph-name="Oslash" horiz-adv-x="1731" unicode="Ø"/><glyph d="M573 1844h423l139 -307h-338zM1653 1434l-113 -799q-25 -182 -91 -310.5t-170.5 -203.5t-235 -108t-298.5 -33q-111 0 -199.5 14t-165 45.5t-127.5 82t-85.5 123t-40 169.5t8.5 221l113 799h502l-125 -891q-13 -93 31 -154t138 -61t156 61t75 154l125 891h502z" glyph-name="Ugrave" horiz-adv-x="1649" unicode="Ù"/><glyph d="M1444 1844l-309 -307h-338l224 307h423zM1653 1434l-113 -799q-25 -182 -91 -310.5t-170.5 -203.5t-235 -108t-298.5 -33q-111 0 -199.5 14t-165 45.5t-127.5 82t-85.5 123t-40 169.5t8.5 221l113 799h502l-125 -891q-13 -93 31 -154t138 -61t156 61t75 154l125 891h502z " glyph-name="Uacute" horiz-adv-x="1649" unicode="Ú"/><glyph d="M1435 1536h-338l-105 193l-157 -193h-338l275 307h473zM1653 1434l-113 -799q-25 -182 -91 -310.5t-170.5 -203.5t-235 -108t-298.5 -33q-111 0 -199.5 14t-165 45.5t-127.5 82t-85.5 123t-40 169.5t8.5 221l113 799h502l-125 -891q-13 -93 31 -154t138 -61t156 61 t75 154l125 891h502z" glyph-name="Ucircumflex" horiz-adv-x="1649" unicode="Û"/><glyph d="M566 1834h399l-42 -298h-399zM1052 1834h397l-42 -298h-397zM1653 1434l-113 -799q-25 -182 -91 -310.5t-170.5 -203.5t-235 -108t-298.5 -33q-111 0 -199.5 14t-165 45.5t-127.5 82t-85.5 123t-40 169.5t8.5 221l113 799h502l-125 -891q-13 -93 31 -154t138 -61t156 61 t75 154l125 891h502z" glyph-name="Udieresis" horiz-adv-x="1649" unicode="Ü"/><glyph d="M1379 1844l-309 -307h-338l224 307h423zM1110 1434h527l-638 -983l-63 -451h-502l64 451l-362 983h531l148 -512z" glyph-name="Yacute" horiz-adv-x="1521" unicode="Ý"/><glyph d="M936 1224q292 0 448 -128.5t122 -368.5q-19 -140 -80 -235t-176 -155.5t-276 -89.5t-395 -37l-30 -210h-502l172 1224l30 210h502l-30 -210h215zM1005 727q11 78 -30.5 123.5t-115.5 45.5h-184l-25 -179l-25 -179q210 7 288 47t92 142z" glyph-name="Thorn" horiz-adv-x="1530" unicode="Þ"/><glyph d="M1381 416q-18 -141 -112.5 -235t-241.5 -136t-344 -42h-115l43 307h54q94 0 142 37t55 89q8 57 -29 91.5t-134 34.5h-53l44 308h53q86 0 130.5 39t52.5 97.5t-25.5 97.5t-119.5 39q-72 0 -118.5 -41t-56.5 -112l-139 -988h-461l137 974q20 147 121.5 256.5t246.5 163.5 t313 54q105 0 196.5 -16t165.5 -49t123.5 -82.5t71.5 -119.5t10 -156q-25 -183 -177 -295q196 -117 167 -316z" glyph-name="germandbls" horiz-adv-x="1460" unicode="ß"/><glyph d="M351 1486h423l138 -307h-338zM712 1096q153 0 264 -33.5t171.5 -91t84.5 -129t13 -154.5l-97 -689h-440l-7 98q-98 -68 -199.5 -96.5t-229.5 -20.5q-130 8 -196 85t-64 173q2 80 29 149.5t83.5 132.5t145.5 101t216 55t295 -5l4 26q5 40 -45 72.5t-124 39.5 q-165 15 -414 -78l39 280q225 85 471 85zM731 314l22 154q-135 31 -223 -17.5t-86 -127.5q1 -39 33 -58t82 -14q89 8 172 63z" glyph-name="agrave" horiz-adv-x="1305" unicode="à"/><glyph d="M1222 1486l-310 -307h-338l225 307h423zM712 1096q153 0 264 -33.5t171.5 -91t84.5 -129t13 -154.5l-97 -689h-440l-7 98q-98 -68 -199.5 -96.5t-229.5 -20.5q-130 8 -196 85t-64 173q2 80 29 149.5t83.5 132.5t145.5 101t216 55t295 -5l4 26q5 40 -45 72.5t-124 39.5 q-165 15 -414 -78l39 280q225 85 471 85zM731 314l22 154q-135 31 -223 -17.5t-86 -127.5q1 -39 33 -58t82 -14q89 8 172 63z" glyph-name="aacute" horiz-adv-x="1305" unicode="á"/><glyph d="M1212 1178h-338l-104 192l-158 -192h-338l276 307h473zM712 1096q153 0 264 -33.5t171.5 -91t84.5 -129t13 -154.5l-97 -689h-440l-7 98q-98 -68 -199.5 -96.5t-229.5 -20.5q-130 8 -196 85t-64 173q2 80 29 149.5t83.5 132.5t145.5 101t216 55t295 -5l4 26 q5 40 -45 72.5t-124 39.5q-165 15 -414 -78l39 280q225 85 471 85zM731 314l22 154q-135 31 -223 -17.5t-86 -127.5q1 -39 33 -58t82 -14q89 8 172 63z" glyph-name="acircumflex" horiz-adv-x="1305" unicode="â"/><glyph d="M342 1178q10 78 38 136t66 92t81 50.5t89 16.5q63 0 155.5 -33t130.5 -33q54 0 67 66h217q-10 -78 -38 -136.5t-66.5 -92.5t-81.5 -50t-89 -16q-62 0 -154 32.5t-131 32.5q-54 0 -67 -65h-217zM712 1096q153 0 264 -33.5t171.5 -91t84.5 -129t13 -154.5l-97 -689h-440 l-7 98q-98 -68 -199.5 -96.5t-229.5 -20.5q-130 8 -196 85t-64 173q2 80 29 149.5t83.5 132.5t145.5 101t216 55t295 -5l4 26q5 40 -45 72.5t-124 39.5q-165 15 -414 -78l39 280q225 85 471 85zM731 314l22 154q-135 31 -223 -17.5t-86 -127.5q1 -39 33 -58t82 -14 q89 8 172 63z" glyph-name="atilde" horiz-adv-x="1305" unicode="ã"/><glyph d="M344 1476h398l-42 -298h-398zM829 1476h398l-42 -298h-398zM712 1096q153 0 264 -33.5t171.5 -91t84.5 -129t13 -154.5l-97 -689h-440l-7 98q-98 -68 -199.5 -96.5t-229.5 -20.5q-130 8 -196 85t-64 173q2 80 29 149.5t83.5 132.5t145.5 101t216 55t295 -5l4 26 q5 40 -45 72.5t-124 39.5q-165 15 -414 -78l39 280q225 85 471 85zM731 314l22 154q-135 31 -223 -17.5t-86 -127.5q1 -39 33 -58t82 -14q89 8 172 63z" glyph-name="adieresis" horiz-adv-x="1305" unicode="ä"/><glyph d="M743.5 1178q-115.5 0 -187.5 82.5t-55 198.5t111.5 199t210 83t186.5 -83t55 -199t-110.5 -198.5t-210 -82.5zM772 1381q32 0 58 23t30 55t-15.5 55t-51 23t-57.5 -23t-31 -55q-4 -32 15.5 -55t51.5 -23zM712 1096q153 0 264 -33.5t171.5 -91t84.5 -129t13 -154.5 l-97 -689h-440l-7 98q-98 -68 -199.5 -96.5t-229.5 -20.5q-130 8 -196 85t-64 173q2 80 29 149.5t83.5 132.5t145.5 101t216 55t295 -5l4 26q5 40 -45 72.5t-124 39.5q-165 15 -414 -78l39 280q225 85 471 85zM731 314l22 154q-135 31 -223 -17.5t-86 -127.5q1 -39 33 -58 t82 -14q89 8 172 63z" glyph-name="aring" horiz-adv-x="1305" unicode="å"/><glyph d="M1692.5 1096q139.5 0 244.5 -35t167 -97.5t89.5 -147.5t19 -187t-51.5 -214h-720q26 -78 112 -110t232 -35q154 -3 295 49l-41 -294q-159 -45 -427 -45q-282 0 -450 119l-14 -100h-440l-7 98q-98 -68 -199.5 -96.5t-229.5 -20.5q-130 8 -196 85t-64 173q2 80 29 149.5 t83.5 132.5t145.5 101t216 55t295 -5l4 26q5 40 -45 72.5t-124 39.5q-165 15 -414 -78l39 280q225 85 471 85q355 0 482 -175q98 87 228.5 131t270 44zM1819 671q24 63 -16.5 107.5t-118.5 40.5q-141 -7 -211 -148h346zM731 314l22 154q-135 31 -223 -17.5t-86 -127.5 q1 -39 33 -58t82 -14q89 8 172 63z" glyph-name="ae" horiz-adv-x="2251" unicode="æ"/><glyph d="M783 799q-115 -12 -186 -84.5t-85 -177t36 -176.5t162 -85q164 -16 317 43l-41 -294q-139 -39 -322 -44l-74 -74q13 2 38 2q103 0 156.5 -44.5t43.5 -113.5q-12 -88 -99.5 -141t-251.5 -53q-70 0 -145 13l17 121q46 -8 112 -8q121 0 131 76q5 36 -20.5 52.5t-84.5 16.5 q-27 0 -47 -2l12 77l74 81q-86 9 -161.5 35t-140 72t-108 108.5t-61.5 149.5t-4 189q15 112 65 205.5t121 157.5t160 109t183.5 65.5t190.5 20.5q212 0 358 -45l-40 -295q-61 27 -143 39t-163 4z" glyph-name="ccedilla" horiz-adv-x="1108" unicode="ç"/><glyph d="M931 1179h-338l-223 307h423zM751 1096q139 0 244 -35t167 -97t89.5 -147.5t19 -187.5t-51.5 -214h-720q26 -78 112 -110t232 -35q154 -3 295 49l-41 -294q-159 -45 -427 -45q-143 0 -262 33.5t-207 100t-128.5 175t-21.5 249.5q15 112 63 205.5t116 157.5t154 109 t178.5 65.5t188.5 20.5zM877 671q24 63 -16.5 107.5t-118.5 40.5q-141 -7 -212 -148h347z" glyph-name="egrave" horiz-adv-x="1309" unicode="è"/><glyph d="M1240 1486l-309 -307h-338l224 307h423zM751 1096q139 0 244 -35t167 -97t89.5 -147.5t19 -187.5t-51.5 -214h-720q26 -78 112 -110t232 -35q154 -3 295 49l-41 -294q-159 -45 -427 -45q-143 0 -262 33.5t-207 100t-128.5 175t-21.5 249.5q15 112 63 205.5t116 157.5 t154 109t178.5 65.5t188.5 20.5zM877 671q24 63 -16.5 107.5t-118.5 40.5q-141 -7 -212 -148h347z" glyph-name="eacute" horiz-adv-x="1309" unicode="é"/><glyph d="M788 1370l-157 -192h-338l275 307h473l190 -307h-338zM751 1096q139 0 244 -35t167 -97t89.5 -147.5t19 -187.5t-51.5 -214h-720q26 -78 112 -110t232 -35q154 -3 295 49l-41 -294q-159 -45 -427 -45q-143 0 -262 33.5t-207 100t-128.5 175t-21.5 249.5q15 112 63 205.5 t116 157.5t154 109t178.5 65.5t188.5 20.5zM877 671q24 63 -16.5 107.5t-118.5 40.5q-141 -7 -212 -148h347z" glyph-name="ecircumflex" horiz-adv-x="1309" unicode="ê"/><glyph d="M761 1476l-42 -298h-398l41 298h399zM1245 1476l-42 -298h-397l42 298h397zM751 1096q139 0 244 -35t167 -97t89.5 -147.5t19 -187.5t-51.5 -214h-720q26 -78 112 -110t232 -35q154 -3 295 49l-41 -294q-159 -45 -427 -45q-143 0 -262 33.5t-207 100t-128.5 175 t-21.5 249.5q15 112 63 205.5t116 157.5t154 109t178.5 65.5t188.5 20.5zM877 671q24 63 -16.5 107.5t-118.5 40.5q-141 -7 -212 -148h347z" glyph-name="edieresis" horiz-adv-x="1309" unicode="ë"/><glyph d="M10 1486h423l138 -307h-338zM158 1075h460l-151 -1075h-461z" glyph-name="igrave" horiz-adv-x="624" unicode="ì"/><glyph d="M881 1486l-310 -307h-338l225 307h423zM158 1075h460l-151 -1075h-461z" glyph-name="iacute" horiz-adv-x="624" unicode="í"/><glyph d="M871 1178h-337l-105 192l-158 -192h-338l276 307h473zM158 1075h460l-151 -1075h-461z" glyph-name="icircumflex" horiz-adv-x="624" unicode="î"/><glyph d="M3 1476h398l-42 -298h-398zM488 1476h398l-42 -298h-398zM158 1075h460l-151 -1075h-461z" glyph-name="idieresis" horiz-adv-x="624" unicode="ï"/><glyph d="M1412 1355l-29 -206l-305 -43q170 -312 202 -384q50 -112 48 -197q0 -27 -5 -60q-17 -123 -86.5 -218.5t-170 -151.5t-215.5 -84t-237 -28q-96 0 -184 16.5t-166.5 54.5t-132.5 93t-79 137t-11 181q22 155 114 271.5t230 156.5q121 37 259 2l-73 138l-337 -48l30 206 l208 30l-113 213h543l75 -142zM862 465q4 30 -1 60t-21 59t-50 47t-82.5 18t-87.5 -18t-62.5 -47t-37.5 -59t-18 -60t1 -60.5t21 -59.5t50 -47t82.5 -18t87.5 18t62.5 47t37.5 59.5t18 60.5z" glyph-name="eth" horiz-adv-x="1384" unicode="ð"/><glyph d="M375 1178q10 78 37.5 136t66 92t81.5 50.5t89 16.5q63 0 155.5 -33t130.5 -33q54 0 66 66h218q-10 -78 -38 -136.5t-66.5 -92.5t-81.5 -50t-89 -16q-62 0 -154.5 32.5t-131.5 32.5q-54 0 -66 -65h-217zM467 0h-461l152 1075h460l-20 -142q170 163 439 163 q194 0 249.5 -94t24.5 -321l-97 -681h-460l79 558q19 108 6 164t-75 56q-48 0 -102 -27t-100 -76z" glyph-name="ntilde" unicode="ñ"/><glyph d="M390 1486h423l138 -307h-338zM1333 538q-15 -115 -65 -210t-121.5 -158.5t-161 -107.5t-182.5 -63t-189.5 -19t-184 19t-164.5 63t-130 107.5t-76.5 158.5t-7.5 210q15 112 65 205.5t121 157.5t160 109t183.5 65.5t190.5 20.5t184.5 -20.5t165 -65.5t129.5 -109 t75.5 -157.5t7.5 -205.5zM655 276q94 0 148 75t69 187q9 50 4.5 97t-18 83.5t-47 58.5t-82.5 22t-88.5 -21.5t-64.5 -59.5t-41 -83t-23 -97q-7 -69 -1.5 -127t42.5 -96.5t102 -38.5z" glyph-name="ograve" horiz-adv-x="1384" unicode="ò"/><glyph d="M1261 1486l-310 -307h-338l225 307h423zM1333 538q-15 -115 -65 -210t-121.5 -158.5t-161 -107.5t-182.5 -63t-189.5 -19t-184 19t-164.5 63t-130 107.5t-76.5 158.5t-7.5 210q15 112 65 205.5t121 157.5t160 109t183.5 65.5t190.5 20.5t184.5 -20.5t165 -65.5 t129.5 -109t75.5 -157.5t7.5 -205.5zM655 276q94 0 148 75t69 187q9 50 4.5 97t-18 83.5t-47 58.5t-82.5 22t-88.5 -21.5t-64.5 -59.5t-41 -83t-23 -97q-7 -69 -1.5 -127t42.5 -96.5t102 -38.5z" glyph-name="oacute" horiz-adv-x="1384" unicode="ó"/><glyph d="M1251 1178h-338l-104 192l-158 -192h-338l276 307h473zM1333 538q-15 -115 -65 -210t-121.5 -158.5t-161 -107.5t-182.5 -63t-189.5 -19t-184 19t-164.5 63t-130 107.5t-76.5 158.5t-7.5 210q15 112 65 205.5t121 157.5t160 109t183.5 65.5t190.5 20.5t184.5 -20.5 t165 -65.5t129.5 -109t75.5 -157.5t7.5 -205.5zM655 276q94 0 148 75t69 187q9 50 4.5 97t-18 83.5t-47 58.5t-82.5 22t-88.5 -21.5t-64.5 -59.5t-41 -83t-23 -97q-7 -69 -1.5 -127t42.5 -96.5t102 -38.5z" glyph-name="ocircumflex" horiz-adv-x="1384" unicode="ô"/><glyph d="M381 1178q10 78 37.5 136t66 92t81.5 50.5t89 16.5q63 0 155.5 -33t130.5 -33q54 0 67 66h217q-10 -78 -38 -136.5t-66.5 -92.5t-81.5 -50t-89 -16q-62 0 -154.5 32.5t-130.5 32.5q-54 0 -67 -65h-217zM1333 538q-15 -115 -65 -210t-121.5 -158.5t-161 -107.5t-182.5 -63 t-189.5 -19t-184 19t-164.5 63t-130 107.5t-76.5 158.5t-7.5 210q15 112 65 205.5t121 157.5t160 109t183.5 65.5t190.5 20.5t184.5 -20.5t165 -65.5t129.5 -109t75.5 -157.5t7.5 -205.5zM655 276q94 0 148 75t69 187q9 50 4.5 97t-18 83.5t-47 58.5t-82.5 22t-88.5 -21.5 t-64.5 -59.5t-41 -83t-23 -97q-7 -69 -1.5 -127t42.5 -96.5t102 -38.5z" glyph-name="otilde" horiz-adv-x="1384" unicode="õ"/><glyph d="M383 1476h398l-42 -298h-398zM868 1476h398l-42 -298h-398zM1333 538q-15 -115 -65 -210t-121.5 -158.5t-161 -107.5t-182.5 -63t-189.5 -19t-184 19t-164.5 63t-130 107.5t-76.5 158.5t-7.5 210q15 112 65 205.5t121 157.5t160 109t183.5 65.5t190.5 20.5t184.5 -20.5 t165 -65.5t129.5 -109t75.5 -157.5t7.5 -205.5zM655 276q94 0 148 75t69 187q9 50 4.5 97t-18 83.5t-47 58.5t-82.5 22t-88.5 -21.5t-64.5 -59.5t-41 -83t-23 -97q-7 -69 -1.5 -127t42.5 -96.5t102 -38.5z" glyph-name="odieresis" horiz-adv-x="1384" unicode="ö"/><glyph d="M526 1294h430l-45 -321h-430zM1151 563h-1024l43 307h1024zM409 461h430l-45 -322h-430z" glyph-name="divide" horiz-adv-x="1269" unicode="÷"/><glyph d="M1357 1047l-133 -117q144 -151 109 -392q-15 -115 -65 -210t-121.5 -158.5t-161 -107.5t-182.5 -63t-190 -19q-215 0 -365 92l-145 -127l-73 84l130 114q-143 146 -109 395q15 112 65 205.5t121 157.5t160 109t183.5 65.5t190.5 20.5q213 0 365 -95l147 129zM512 538 q-6 -49 -5 -89l337 295q-36 54 -115 55q-49 0 -88.5 -21.5t-64.5 -59.5t-41 -83t-23 -97zM872 538q6 48 6 87l-336 -295q37 -53 113 -54q94 0 148 75t69 187z" glyph-name="oslash" horiz-adv-x="1384" unicode="ø"/><glyph d="M389 1486h423l138 -307h-338zM905 1075h461l-152 -1075h-460l20 142q-170 -163 -439 -162q-194 0 -249.5 93.5t-24.5 320.5l97 681h460l-78 -558q-19 -108 -6.5 -164t74.5 -56q48 0 102 27t100 76z" glyph-name="ugrave" unicode="ù"/><glyph d="M1260 1486l-310 -307h-338l225 307h423zM905 1075h461l-152 -1075h-460l20 142q-170 -163 -439 -162q-194 0 -249.5 93.5t-24.5 320.5l97 681h460l-78 -558q-19 -108 -6.5 -164t74.5 -56q48 0 102 27t100 76z" glyph-name="uacute" unicode="ú"/><glyph d="M1250 1178h-338l-104 192l-158 -192h-338l276 307h473zM905 1075h461l-152 -1075h-460l20 142q-170 -163 -439 -162q-194 0 -249.5 93.5t-24.5 320.5l97 681h460l-78 -558q-19 -108 -6.5 -164t74.5 -56q48 0 102 27t100 76z" glyph-name="ucircumflex" unicode="û"/><glyph d="M382 1476h398l-42 -298h-398zM867 1476h398l-42 -298h-398zM905 1075h461l-152 -1075h-460l20 142q-170 -163 -439 -162q-194 0 -249.5 93.5t-24.5 320.5l97 681h460l-78 -558q-19 -108 -6.5 -164t74.5 -56q48 0 102 27t100 76z" glyph-name="udieresis" unicode="ü"/><glyph d="M1298 1486l-309 -307h-338l225 307h422zM1009 1075h486l-586 -1050q-274 -488 -869 -424l20 285q134 -29 211 4t99 135l-253 1050h489l96 -641z" glyph-name="yacute" horiz-adv-x="1460" unicode="ý"/><glyph d="M935 1096q121 0 214.5 -34t158.5 -100.5t90.5 -174.5t6 -249.5t-75.5 -249.5t-140 -174.5t-187.5 -100t-224.5 -33.5q-80 0 -152 21t-108 59l-74 -521h-460l280 1997h461l-74 -521q48 39 126.5 60t158.5 21zM726 266q95 0 148 76t70 196q8 74 2.5 134t-43 98.5 t-101.5 38.5q-102 0 -188 -59l-59 -424q69 -60 171 -60z" glyph-name="thorn" horiz-adv-x="1456" unicode="þ"/><glyph d="M421 1476h398l-42 -298h-398zM906 1476h398l-42 -298h-398zM1009 1075h486l-586 -1050q-274 -488 -869 -424l20 285q134 -29 211 4t99 135l-253 1050h489l96 -641z" glyph-name="ydieresis" horiz-adv-x="1460" unicode="ÿ"/><glyph d="M1347 1792l-36 -256h-615l36 256h615zM1122 0l-40 233h-524l-105 -233h-529l717 1434h696l314 -1434h-529zM716 582h307l-85 493z" glyph-name="Amacron" horiz-adv-x="1726" unicode="Ā"/><glyph d="M472 1434h614l-35 -256h-615zM712 1096q153 0 264 -33.5t171.5 -91t84.5 -129t13 -154.5l-97 -689h-440l-7 98q-98 -68 -199.5 -96.5t-229.5 -20.5q-130 8 -196 85t-64 173q2 80 29 149.5t83.5 132.5t145.5 101t216 55t295 -5l4 26q5 40 -45 72.5t-124 39.5 q-165 15 -414 -78l39 280q225 85 471 85zM731 314l22 154q-135 31 -223 -17.5t-86 -127.5q1 -39 33 -58t82 -14q89 8 172 63z" glyph-name="amacron" horiz-adv-x="1305" unicode="ā"/><glyph d="M1004 1536q-151 0 -241.5 81t-102.5 226h267q7 -97 106 -97q48 0 82 26.5t50 70.5h267q-53 -145 -165.5 -226t-262.5 -81zM1122 0l-40 233h-524l-105 -233h-529l717 1434h696l314 -1434h-529zM716 582h307l-85 493z" glyph-name="Abreve" horiz-adv-x="1726" unicode="Ă"/><glyph d="M1171 1485q-53 -145 -165.5 -226t-262.5 -81q-151 0 -241 80.5t-102 226.5h267q7 -97 106 -97q48 0 82 26.5t50 70.5h266zM712 1096q153 0 264 -33.5t171.5 -91t84.5 -129t13 -154.5l-97 -689h-440l-7 98q-98 -68 -199.5 -96.5t-229.5 -20.5q-130 8 -196 85t-64 173 q2 80 29 149.5t83.5 132.5t145.5 101t216 55t295 -5l4 26q5 40 -45 72.5t-124 39.5q-165 15 -414 -78l39 280q225 85 471 85zM731 314l22 154q-135 31 -223 -17.5t-86 -127.5q1 -39 33 -58t82 -14q89 8 172 63z" glyph-name="abreve" horiz-adv-x="1305" unicode="ă"/><glyph d="M1502 0q-205 -85 -216 -170q-8 -53 51 -66t133 9l-10 -183q-78 -23 -160.5 -19.5t-150.5 22.5t-106.5 67.5t-29.5 116.5q8 60 66 121.5t171 101.5h-128l-40 233h-524l-105 -233h-529l717 1434h696l314 -1434h-149zM716 582h307l-85 493z" glyph-name="Aogonek" horiz-adv-x="1726" unicode="Ą"/><glyph d="M712 1096q153 0 264 -33.5t171.5 -91t84.5 -129t13 -154.5l-97 -689h-115q-178 -79 -189 -159q-8 -53 50.5 -66t133.5 9l-10 -182q-78 -23 -161 -20t-150.5 22t-106.5 67.5t-30 116.5q7 56 58 114t150 98h-70l-7 98q-98 -68 -199.5 -96.5t-229.5 -20.5q-130 8 -196 85 t-64 173q2 80 29 149.5t83.5 132.5t145.5 101t216 55t295 -5l4 26q5 40 -45 72.5t-124 39.5q-165 15 -414 -78l39 280q225 85 471 85zM731 314l22 154q-135 31 -223 -17.5t-86 -127.5q1 -39 33 -58t82 -14q89 8 172 63z" glyph-name="aogonek" horiz-adv-x="1305" unicode="ą"/><glyph d="M1405 1844l-309 -307h-338l224 307h423zM1322 1057q-199 72 -377 49q-139 -12 -235.5 -114.5t-121 -274.5t43 -274.5t204.5 -114.5q172 -23 391 49l-49 -350q-185 -47 -390 -47q-127 0 -240.5 30t-206.5 91.5t-156.5 148t-90 207t-7.5 260.5t79.5 260.5t149 207 t199.5 148t232.5 91.5t248.5 30q204 0 375 -47z" glyph-name="Cacute" unicode="Ć"/><glyph d="M1261 1486l-310 -307h-338l225 307h423zM1089 756q-61 27 -143 39t-163 4q-115 -12 -186 -84.5t-85 -177t36 -176.5t162 -85q164 -16 317 43l-41 -294q-159 -45 -373 -45q-96 0 -184.5 20t-165 65.5t-129 109.5t-75.5 157.5t-7.5 205t65 205.5t120.5 158t160 109 t183.5 65.5t190.5 20.5q212 0 358 -45z" glyph-name="cacute" horiz-adv-x="1108" unicode="ć"/><glyph d="M769 1834h398l-42 -298h-398zM1322 1057q-199 72 -377 49q-139 -12 -235.5 -114.5t-121 -274.5t43 -274.5t204.5 -114.5q172 -23 391 49l-49 -350q-185 -47 -390 -47q-127 0 -240.5 30t-206.5 91.5t-156.5 148t-90 207t-7.5 260.5t79.5 260.5t149 207t199.5 148 t232.5 91.5t248.5 30q204 0 375 -47z" glyph-name="Cdotaccent" unicode="Ċ"/><glyph d="M625 1476h398l-42 -298h-398zM1089 756q-61 27 -143 39t-163 4q-115 -12 -186 -84.5t-85 -177t36 -176.5t162 -85q164 -16 317 43l-41 -294q-159 -45 -373 -45q-96 0 -184.5 20t-165 65.5t-129 109.5t-75.5 157.5t-7.5 205t65 205.5t120.5 158t160 109t183.5 65.5 t190.5 20.5q212 0 358 -45z" glyph-name="cdotaccent" horiz-adv-x="1108" unicode="ċ"/><glyph d="M1101 1843h338l-276 -307h-473l-189 307h338l104 -192zM1322 1057q-199 72 -377 49q-139 -12 -235.5 -114.5t-121 -274.5t43 -274.5t204.5 -114.5q172 -23 391 49l-49 -350q-185 -47 -390 -47q-127 0 -240.5 30t-206.5 91.5t-156.5 148t-90 207t-7.5 260.5t79.5 260.5 t149 207t199.5 148t232.5 91.5t248.5 30q204 0 375 -47z" glyph-name="Ccaron" unicode="Č"/><glyph d="M956 1485h338l-275 -307h-473l-190 307h338l105 -193zM1089 756q-61 27 -143 39t-163 4q-115 -12 -186 -84.5t-85 -177t36 -176.5t162 -85q164 -16 317 43l-41 -294q-159 -45 -373 -45q-96 0 -184.5 20t-165 65.5t-129 109.5t-75.5 157.5t-7.5 205t65 205.5t120.5 158 t160 109t183.5 65.5t190.5 20.5q212 0 358 -45z" glyph-name="ccaron" horiz-adv-x="1108" unicode="č"/><glyph d="M1121 1843h338l-275 -307h-473l-190 307h338l105 -192zM1609 717q-19 -145 -74 -264.5t-134 -202.5t-181.5 -140t-216.5 -83.5t-239 -26.5h-717l202 1434h717q159 0 286 -45.5t216.5 -132.5t127.5 -225t13 -314zM762 348q96 0 171.5 53.5t117.5 134.5t56 181 q13 98 -8 180.5t-81.5 135t-152.5 52.5h-164l-103 -737h164z" glyph-name="Dcaron" horiz-adv-x="1644" unicode="Ď"/><glyph d="M51 538q19 141 75.5 249t140.5 174.5t187.5 100.5t224.5 34q80 0 152 -21t108 -60l74 521h461l-217 -1536h-369l-7 90q-71 -60 -169 -85t-191 -25q-95 0 -174 19.5t-142.5 62t-102.5 109t-54 157.5t3 210zM1657 1382h461l-246 -654h-410zM655 276q106 0 193 91l53 383 q-69 59 -171 59q-95 0 -148 -76t-70 -195q-7 -69 -1.5 -127t42.5 -96.5t102 -38.5z" glyph-name="dcaron" horiz-adv-x="2080" unicode="ď"/><glyph d="M976 1434q159 0 286.5 -45.5t216.5 -132.5t127 -225t13 -314q-19 -145 -74 -264.5t-134 -202.5t-181.5 -140t-216.5 -83.5t-239 -26.5h-717l86 614h-121l28 205h123l86 615h717zM1117 717q13 98 -7.5 180.5t-81 135t-152.5 52.5h-164l-37 -266h206l-29 -205h-207 l-37 -266h164q96 0 171.5 53.5t117.5 135t56 180.5z" glyph-name="Dcroat" horiz-adv-x="1654" unicode="Đ"/><glyph d="M1538 1412l-29 -205h-82l-170 -1207h-369l-7 90q-71 -60 -169 -85t-191 -25q-95 0 -174 19.5t-142.5 62t-102.5 109t-54 157.5t3 210q19 141 75.5 249t140.5 174.5t187.5 100.5t224.5 34q80 0 152 -21t108 -60l28 192h-277l29 205h276l18 124h461l-18 -124h82zM848 367 l53 383q-69 59 -171 59q-95 0 -148 -76t-70 -195q-7 -69 -1.5 -127t43 -96.5t101.5 -38.5q107 1 193 91z" glyph-name="dcroat" horiz-adv-x="1456" unicode="đ"/><glyph d="M586 1792h614l-36 -256h-614zM598 348h686l-49 -348h-1188l202 1434h1188l-49 -349h-687l-27 -194h594l-48 -348h-594z" glyph-name="Emacron" horiz-adv-x="1433" unicode="Ē"/><glyph d="M1105 1434l-36 -256h-614l35 256h615zM751 1096q139 0 244 -35t167 -97t89.5 -147.5t19 -187.5t-51.5 -214h-720q26 -78 112 -110t232 -35q154 -3 295 49l-41 -294q-159 -45 -427 -45q-143 0 -262 33.5t-207 100t-128.5 175t-21.5 249.5q15 112 63 205.5t116 157.5 t154 109t178.5 65.5t188.5 20.5zM877 671q24 63 -16.5 107.5t-118.5 40.5q-141 -7 -212 -148h347z" glyph-name="emacron" horiz-adv-x="1309" unicode="ē"/><glyph d="M699 1834h399l-42 -298h-399zM598 348h686l-49 -348h-1188l202 1434h1188l-49 -349h-687l-27 -194h594l-48 -348h-594z" glyph-name="Edotaccent" horiz-adv-x="1433" unicode="Ė"/><glyph d="M1002 1476l-41 -298h-399l42 298h398zM751 1096q139 0 244 -35t167 -97t89.5 -147.5t19 -187.5t-51.5 -214h-720q26 -78 112 -110t232 -35q154 -3 295 49l-41 -294q-159 -45 -427 -45q-143 0 -262 33.5t-207 100t-128.5 175t-21.5 249.5q15 112 63 205.5t116 157.5 t154 109t178.5 65.5t188.5 20.5zM877 671q24 63 -16.5 107.5t-118.5 40.5q-141 -7 -212 -148h347z" glyph-name="edotaccent" horiz-adv-x="1309" unicode="ė"/><glyph d="M1388 1085h-687l-27 -194h594l-48 -348h-594l-28 -195h686l-49 -348h-468q-205 -85 -216 -170q-8 -53 50.5 -66t133.5 9l-10 -183q-78 -23 -161 -19.5t-150.5 22.5t-106.5 67.5t-29 116.5q8 60 65.5 121.5t171.5 101.5h-468l202 1434h1188z" glyph-name="Eogonek" horiz-adv-x="1433" unicode="Ę"/><glyph d="M751 1096q139 0 244 -35t167 -97t89.5 -147.5t19 -187.5t-51.5 -214h-720q26 -78 112 -110t232 -35q154 -3 295 49l-41 -294q-135 -38 -346 -44q-161 -75 -172 -151q-8 -53 50.5 -66t133.5 9l-10 -183q-78 -23 -161 -19.5t-150.5 22.5t-106.5 67.5t-30 116.5 q7 56 58.5 114.5t152.5 98.5q-115 16 -205.5 57.5t-155.5 107.5t-92.5 164t-11.5 219q15 112 63 205.5t116 157.5t154 109t178.5 65.5t188.5 20.5zM877 671q24 63 -16.5 107.5t-118.5 40.5q-141 -7 -212 -148h347z" glyph-name="eogonek" horiz-adv-x="1309" unicode="ę"/><glyph d="M1031 1843h338l-275 -307h-473l-190 307h338l104 -192zM598 348h686l-49 -348h-1188l202 1434h1188l-49 -349h-687l-27 -194h594l-48 -348h-594z" glyph-name="Ecaron" horiz-adv-x="1433" unicode="Ě"/><glyph d="M998 1178h-473l-189 307h338l104 -193l158 193h338zM751 1096q139 0 244 -35t167 -97t89.5 -147.5t19 -187.5t-51.5 -214h-720q26 -78 112 -110t232 -35q154 -3 295 49l-41 -294q-159 -45 -427 -45q-143 0 -262 33.5t-207 100t-128.5 175t-21.5 249.5q15 112 63 205.5 t116 157.5t154 109t178.5 65.5t188.5 20.5zM877 671q24 63 -16.5 107.5t-118.5 40.5q-141 -7 -212 -148h347z" glyph-name="ecaron" horiz-adv-x="1309" unicode="ě"/><glyph d="M1414 1843q-53 -145 -165.5 -226t-262.5 -81q-151 0 -241.5 81t-101.5 226h266q7 -97 107 -97q48 0 82 26.5t50 70.5h266zM883 886h580l-114 -813q-290 -93 -561 -93q-127 0 -240.5 30t-206.5 91.5t-156.5 148t-90 207t-7.5 260.5t79.5 260.5t149 207t199.5 148 t232.5 91.5t248.5 30q204 0 375 -47l-49 -350q-199 72 -377 49q-139 -12 -235.5 -114.5t-121 -274.5t43 -274.5t204.5 -114.5q59 -8 132 -3l33 243h-163z" glyph-name="Gbreve" horiz-adv-x="1537" unicode="Ğ"/><glyph d="M1246 1485q-53 -145 -165.5 -226t-262.5 -81q-151 0 -241.5 80.5t-101.5 226.5h266q7 -97 107 -97q48 0 82 26.5t50 70.5h266zM948 1075h459l-135 -957q-25 -171 -129 -296t-263.5 -188.5t-357.5 -63.5q-223 0 -369 45l42 295q134 -59 315 -43q134 12 207 52.5t84 119.5 l11 83q-46 -39 -124 -60t-158 -21q-120 0 -214.5 33.5t-159.5 97.5t-92 165t-9 231q18 133 70.5 235.5t130 165.5t171 95t201.5 32q196 0 302 -154zM516 568q-34 -241 146 -240q102 0 187 59l45 322q-60 90 -166 90q-95 0 -146.5 -64.5t-65.5 -166.5z" glyph-name="gbreve" horiz-adv-x="1413" unicode="ğ"/><glyph d="M828 1834h399l-42 -298h-399zM883 886h580l-114 -813q-290 -93 -561 -93q-127 0 -240.5 30t-206.5 91.5t-156.5 148t-90 207t-7.5 260.5t79.5 260.5t149 207t199.5 148t232.5 91.5t248.5 30q204 0 375 -47l-49 -350q-199 72 -377 49q-139 -12 -235.5 -114.5t-121 -274.5 t43 -274.5t204.5 -114.5q59 -8 132 -3l33 243h-163z" glyph-name="Gdotaccent" horiz-adv-x="1537" unicode="Ġ"/><glyph d="M660 1476h399l-42 -298h-399zM948 1075h459l-135 -957q-25 -171 -129 -296t-263.5 -188.5t-357.5 -63.5q-223 0 -369 45l42 295q134 -59 315 -43q134 12 207 52.5t84 119.5l11 83q-46 -39 -124 -60t-158 -21q-120 0 -214.5 33.5t-159.5 97.5t-92 165t-9 231 q18 133 70.5 235.5t130 165.5t171 95t201.5 32q196 0 302 -154zM516 568q-34 -241 146 -240q102 0 187 59l45 322q-60 90 -166 90q-95 0 -146.5 -64.5t-65.5 -166.5z" glyph-name="gdotaccent" horiz-adv-x="1413" unicode="ġ"/><glyph d="M883 886h580l-114 -813q-290 -93 -561 -93q-127 0 -240.5 30t-206.5 91.5t-156.5 148t-90 207t-7.5 260.5t79.5 260.5t149 207t199.5 148t232.5 91.5t248.5 30q204 0 375 -47l-49 -350q-199 72 -377 49q-139 -12 -235.5 -114.5t-121 -274.5t43 -274.5t204.5 -114.5 q59 -8 132 -3l33 243h-163zM558 -141h346l-184 -491h-307z" glyph-name="Gcommaaccent" horiz-adv-x="1537" unicode="Ģ"/><glyph d="M1010 1217h-345l184 490h307zM948 1075h459l-135 -957q-25 -171 -129 -296t-263.5 -188.5t-357.5 -63.5q-223 0 -369 45l42 295q134 -59 315 -43q134 12 207 52.5t84 119.5l11 83q-46 -39 -124 -60t-158 -21q-120 0 -214.5 33.5t-159.5 97.5t-92 165t-9 231 q18 133 70.5 235.5t130 165.5t171 95t201.5 32q196 0 302 -154zM516 568q-34 -241 146 -240q102 0 187 59l45 322q-60 90 -166 90q-95 0 -146.5 -64.5t-65.5 -166.5z" glyph-name="gcommaaccent" horiz-adv-x="1413" unicode="ģ"/><glyph d="M1791 1261l-29 -205h-123l-148 -1056h-502l77 543h-440l-77 -543h-502l149 1056h-123l28 205h123l25 173h502l-25 -173h440l25 173h502l-25 -173h123zM1114 891l24 165h-441l-23 -165h440z" glyph-name="Hbar" horiz-adv-x="1689" unicode="Ħ"/><glyph d="M1037 1096q194 0 249.5 -94t24.5 -321l-97 -681h-460l79 558q19 108 6 164t-75 56q-48 0 -102 -27t-100 -76l-95 -675h-461l170 1207h-82l29 205h82l17 124h461l-17 -124h276l-29 -205h-276l-39 -274q170 163 439 163z" glyph-name="hbar" unicode="ħ"/><glyph d="M113 1536q10 78 37.5 136.5t66 92t81.5 50t89 16.5q63 0 155.5 -33t130.5 -33q54 0 66 66h217q-10 -78 -37.5 -136.5t-66 -92t-81.5 -50t-89 -16.5q-62 0 -154.5 33t-131.5 33q-54 0 -66 -66h-217zM549 0h-502l202 1434h502z" glyph-name="Itilde" horiz-adv-x="747" unicode="Ĩ"/><glyph d="M1 1178q10 78 38 136t66 92t81 50.5t89 16.5q63 0 155.5 -33t130.5 -33q54 0 67 66h217q-10 -78 -38 -136.5t-66.5 -92.5t-81.5 -50t-89 -16q-62 0 -154 32.5t-131 32.5q-54 0 -67 -65h-217zM158 1075h460l-151 -1075h-461z" glyph-name="itilde" horiz-adv-x="624" unicode="ĩ"/><glyph d="M243 1792h614l-36 -256h-614zM549 0h-502l202 1434h502z" glyph-name="Imacron" horiz-adv-x="747" unicode="Ī"/><glyph d="M131 1434h614l-35 -256h-615zM158 1075h460l-151 -1075h-461z" glyph-name="imacron" horiz-adv-x="624" unicode="ī"/><glyph d="M249 1434h502l-202 -1434h-120q-205 -85 -216 -170q-8 -53 51 -66t133 9l-10 -183q-78 -23 -161 -19.5t-150.5 22.5t-106.5 67.5t-29 116.5q8 60 65.5 121.5t171.5 101.5h-130z" glyph-name="Iogonek" horiz-adv-x="747" unicode="Į"/><glyph d="M223 1434h512l-40 -281h-512zM47 0l152 1075h460l-151 -1075h-105q-205 -85 -216 -170q-8 -53 51 -66t134 9l-11 -183q-78 -23 -160.5 -19.5t-150 22.5t-106.5 67.5t-30 116.5q8 60 66 121.5t172 101.5h-105z" glyph-name="iogonek" horiz-adv-x="706" unicode="į"/><glyph d="M356 1834h399l-42 -298h-399zM549 0h-502l202 1434h502z" glyph-name="Idotaccent" horiz-adv-x="747" unicode="İ"/><glyph d="M158 1075h460l-151 -1075h-461z" glyph-name="dotlessi" horiz-adv-x="624" unicode="ı"/><glyph d="M549 0h-502l202 1434h502zM705 379q165 -52 263 -41q215 25 240 215l124 881h502l-125 -891q-18 -136 -65.5 -237t-113 -162.5t-159 -99t-191.5 -51t-223 -13.5q-178 0 -304 33z" glyph-name="IJ" horiz-adv-x="1830" unicode="Ĳ"/><glyph d="M1663 1434l-511 -686l309 -748h-547l-272 659l-93 -659h-502l202 1434h502l-85 -606l450 606h547zM356 -632l146 491h346l-184 -491h-308z" glyph-name="Kcommaaccent" horiz-adv-x="1537" unicode="Ķ"/><glyph d="M1459 1075l-493 -424l342 -651h-475l-171 390l-159 -137l-36 -253h-461l216 1536h461l-114 -808l415 347h475zM280 -632l145 491h346l-184 -491h-307z" glyph-name="kcommaaccent" horiz-adv-x="1424" unicode="ķ"/><glyph d="M1459 1075l-493 -424l342 -651h-475l-171 390l-159 -137l-36 -253h-461l152 1075h460l-49 -347l415 347h475z" glyph-name="kgreenlandic" horiz-adv-x="1424" unicode="ĸ"/><glyph d="M1320 1844l-309 -307h-338l224 307h423zM751 1434l-153 -1086h635l-49 -348h-1137l202 1434h502z" glyph-name="Lacute" horiz-adv-x="1310" unicode="Ĺ"/><glyph d="M945 1947l-309 -308h-338l224 308h423zM222 1536h461l-216 -1536h-461z" glyph-name="lacute" horiz-adv-x="624" unicode="ĺ"/><glyph d="M751 1434l-153 -1086h635l-49 -348h-1137l202 1434h502zM414 -141h346l-185 -491h-307z" glyph-name="Lcommaaccent" horiz-adv-x="1310" unicode="Ļ"/><glyph d="M222 1536h461l-216 -1536h-461zM25 -141h346l-185 -491h-308z" glyph-name="lcommaaccent" horiz-adv-x="624" unicode="ļ"/><glyph d="M751 1434l-153 -1086h635l-49 -348h-1137l202 1434h502zM909 1382h461l-246 -654h-409z" glyph-name="Lcaron" horiz-adv-x="1382" unicode="Ľ"/><glyph d="M222 1536h461l-216 -1536h-461zM866 1382h461l-246 -654h-409z" glyph-name="lcaron" horiz-adv-x="1331" unicode="ľ"/><glyph d="M751 1434l-153 -1086h635l-49 -348h-1137l202 1434h502zM800 908h512l-55 -383h-512z" glyph-name="Ldot" horiz-adv-x="1382" unicode="Ŀ"/><glyph d="M222 1536h461l-216 -1536h-461zM685 959h512l-54 -382h-512z" glyph-name="ldot" horiz-adv-x="1219" unicode="ŀ"/><glyph d="M598 348h635l-49 -348h-1137l96 686l-124 -13l26 184l125 13l79 564h502l-72 -511l353 36l-25 -184l-354 -37z" glyph-name="Lslash" horiz-adv-x="1310" unicode="Ł"/><glyph d="M684 959l-26 -184l-84 -13l-107 -762h-461l96 686l-83 -13l26 184l84 13l93 666h461l-83 -590z" glyph-name="lslash" horiz-adv-x="624" unicode="ł"/><glyph d="M1474 1844l-310 -307h-338l225 307h423zM1211 1434h502l-202 -1434h-501l-363 694l-98 -694h-502l202 1434h502l365 -675z" glyph-name="Nacute" horiz-adv-x="1710" unicode="Ń"/><glyph d="M1254 1486l-309 -307h-338l224 307h423zM467 0h-461l152 1075h460l-20 -142q170 163 439 163q194 0 249.5 -94t24.5 -321l-97 -681h-460l79 558q19 108 6 164t-75 56q-48 0 -102 -27t-100 -76z" glyph-name="nacute" unicode="ń"/><glyph d="M1211 1434h502l-202 -1434h-501l-363 694l-98 -694h-502l202 1434h502l365 -675zM567 -141h346l-184 -491h-307z" glyph-name="Ncommaaccent" horiz-adv-x="1710" unicode="Ņ"/><glyph d="M467 0h-461l152 1075h460l-20 -142q170 163 439 163q194 0 249.5 -94t24.5 -321l-97 -681h-460l79 558q19 108 6 164t-75 56q-48 0 -102 -27t-100 -76zM398 -141h346l-184 -491h-307z" glyph-name="ncommaaccent" unicode="ņ"/><glyph d="M1169 1843h338l-275 -307h-473l-190 307h338l105 -192zM1211 1434h502l-202 -1434h-501l-363 694l-98 -694h-502l202 1434h502l365 -675z" glyph-name="Ncaron" horiz-adv-x="1710" unicode="Ň"/><glyph d="M950 1485h338l-275 -307h-473l-190 307h338l105 -193zM467 0h-461l152 1075h460l-20 -142q170 163 439 163q194 0 249.5 -94t24.5 -321l-97 -681h-460l79 558q19 108 6 164t-75 56q-48 0 -102 -27t-100 -76z" glyph-name="ncaron" unicode="ň"/><glyph d="M370 1536h460l-245 -654h-410zM1136 0h-461l151 1075h461l-20 -142q170 163 439 163q194 0 249.5 -94t23.5 -321l-96 -681h-461l79 558q19 108 6.5 164t-74.5 56q-48 0 -102 -27t-100 -76z" glyph-name="napostrophe" horiz-adv-x="2040" unicode="ŉ"/><glyph d="M1576 456l-58 -411l-7 -45l-5 -36q-11 -82 -46.5 -142.5t-81.5 -94t-110.5 -53t-120.5 -25t-127 -4.5q-150 2 -229 55l35 178q105 -25 165 2q29 13 40.5 39.5t19.5 79.5v1h-41l-363 694l-98 -694h-502l202 1434h502l365 -675l95 675h502z" glyph-name="Eng" horiz-adv-x="1710" unicode="Ŋ"/><glyph d="M1037 1096q194 0 249.5 -94t24.5 -321l-32 -225l-45 -320l-20 -136l-5 -36q-11 -82 -46.5 -142.5t-81.5 -94t-110.5 -53t-120.5 -25t-127 -4.5q-150 2 -229 55l35 178q105 -25 165 2q29 13 40.5 39.5t19.5 79.5v1l79 558q19 108 6 164t-75 56q-48 0 -102 -27t-100 -76 l-95 -675h-461l152 1075h460l-20 -142q170 163 439 163z" glyph-name="eng" unicode="ŋ"/><glyph d="M735 1792h615l-36 -256h-615zM1696 717q-19 -144 -81 -266t-150.5 -208t-200 -146t-232.5 -88.5t-245.5 -28.5t-237 28.5t-206.5 88.5t-158 146t-91 207.5t-7 266.5q19 140 79.5 261t148.5 207t199 147.5t232.5 91.5t247.5 30t240 -30t207 -91.5t157 -147.5t90.5 -207 t7.5 -261zM836 328q141 0 237 106.5t121 282.5q25 175 -44 282t-205 107q-135 0 -233.5 -107t-122.5 -282q-25 -176 41 -282.5t206 -106.5z" glyph-name="Omacron" horiz-adv-x="1731" unicode="Ō"/><glyph d="M511 1434h614l-35 -256h-615zM1333 538q-15 -115 -65 -210t-121.5 -158.5t-161 -107.5t-182.5 -63t-189.5 -19t-184 19t-164.5 63t-130 107.5t-76.5 158.5t-7.5 210q15 112 65 205.5t121 157.5t160 109t183.5 65.5t190.5 20.5t184.5 -20.5t165 -65.5t129.5 -109 t75.5 -157.5t7.5 -205.5zM655 276q94 0 148 75t69 187q9 50 4.5 97t-18 83.5t-47 58.5t-82.5 22t-88.5 -21.5t-64.5 -59.5t-41 -83t-23 -97q-7 -69 -1.5 -127t42.5 -96.5t102 -38.5z" glyph-name="omacron" horiz-adv-x="1384" unicode="ō"/><glyph d="M1099 1884l-213 -348h-291l210 348h294zM1467 1884l-213 -348h-290l210 348h293zM1696 717q-19 -144 -81 -266t-150.5 -208t-200 -146t-232.5 -88.5t-245.5 -28.5t-237 28.5t-206.5 88.5t-158 146t-91 207.5t-7 266.5q19 140 79.5 261t148.5 207t199 147.5t232.5 91.5 t247.5 30t240 -30t207 -91.5t157 -147.5t90.5 -207t7.5 -261zM836 328q141 0 237 106.5t121 282.5q25 175 -44 282t-205 107q-135 0 -233.5 -107t-122.5 -282q-25 -176 41 -282.5t206 -106.5z" glyph-name="Ohungarumlaut" horiz-adv-x="1731" unicode="Ő"/><glyph d="M874 1526l-212 -348h-291l210 348h293zM1243 1526l-213 -348h-291l210 348h294zM1333 538q-15 -115 -65 -210t-121.5 -158.5t-161 -107.5t-182.5 -63t-189.5 -19t-184 19t-164.5 63t-130 107.5t-76.5 158.5t-7.5 210q15 112 65 205.5t121 157.5t160 109t183.5 65.5 t190.5 20.5t184.5 -20.5t165 -65.5t129.5 -109t75.5 -157.5t7.5 -205.5zM655 276q94 0 148 75t69 187q9 50 4.5 97t-18 83.5t-47 58.5t-82.5 22t-88.5 -21.5t-64.5 -59.5t-41 -83t-23 -97q-7 -69 -1.5 -127t42.5 -96.5t102 -38.5z" glyph-name="ohungarumlaut" horiz-adv-x="1384" unicode="ő"/><glyph d="M1726 1085l-25 -182q0 -2 0.5 -6t0.5 -6h591l-48 -348h-591q-1 -5 -5 -16l-26 -179h686l-49 -348h-1188l3 19q-141 -40 -289 -39q-125 0 -237 28.5t-206 88.5t-158 146t-91 207.5t-7 266.5q19 140 79.5 261t148.5 207t199 147.5t232.5 91.5t247.5 30q144 0 277 -41l3 21 h1188l-49 -349h-687zM836 328q105 0 186.5 61t128.5 168l44 315q-17 110 -82 172t-168 62q-135 0 -233.5 -107t-122.5 -282q-25 -176 41 -282.5t206 -106.5z" glyph-name="OE" horiz-adv-x="2458" unicode="Œ"/><glyph d="M1663 1096q139 0 244 -35t167 -97.5t89.5 -147.5t19 -187t-51.5 -214h-720q26 -78 112.5 -110t231.5 -35q154 -3 295 49l-41 -294q-159 -45 -427 -45q-316 0 -486 148q-100 -74 -226.5 -111t-256.5 -37q-96 0 -183.5 19t-164.5 63t-130 107.5t-76.5 158.5t-7.5 210 q15 112 65 205.5t121 157.5t160 109t183.5 65.5t190.5 20.5q126 0 239 -36.5t192 -108.5q192 145 461 145zM1789 671q24 63 -16 107.5t-118 40.5q-141 -7 -212 -148h346zM872 538q9 50 4.5 97t-18 83.5t-47 58.5t-82.5 22t-88.5 -21.5t-64.5 -59.5t-41 -83t-23 -97 q-7 -69 -1.5 -127t43 -96.5t101.5 -38.5q94 0 148 75t69 187z" glyph-name="oe" horiz-adv-x="2222" unicode="œ"/><glyph d="M1425 1844l-309 -307h-338l224 307h423zM1536 937q-20 -148 -89 -246.5t-194 -158.5l243 -532h-502l-196 431q-98 -8 -190 -11l-59 -420h-502l202 1434h717q292 0 448 -128.5t122 -368.5zM705 1106l-51 -358q210 7 288 47t92 142q10 78 -30.5 123.5t-114.5 45.5h-184z " glyph-name="Racute" horiz-adv-x="1633" unicode="Ŕ"/><glyph d="M1041 1486l-309 -307h-338l224 307h423zM467 0l-461 1l152 1074h449l-15 -108q59 49 179 89t212 40l-44 -313q-71 14 -199.5 -19.5t-175.5 -75.5z" glyph-name="racute" horiz-adv-x="924" unicode="ŕ"/><glyph d="M1536 937q-20 -148 -89 -246.5t-194 -158.5l243 -532h-502l-196 431q-98 -8 -190 -11l-59 -420h-502l202 1434h717q292 0 448 -128.5t122 -368.5zM705 1106l-51 -358q210 7 288 47t92 142q10 78 -30.5 123.5t-114.5 45.5h-184zM374 -632l145 491h346l-184 -491h-307z" glyph-name="Rcommaaccent" horiz-adv-x="1633" unicode="Ŗ"/><glyph d="M467 0l-461 1l152 1074h449l-15 -108q59 49 179 89t212 40l-44 -313q-71 14 -199.5 -19.5t-175.5 -75.5zM185 -141h346l-184 -491h-307z" glyph-name="rcommaaccent" horiz-adv-x="924" unicode="ŗ"/><glyph d="M1184 1536h-473l-190 307h338l105 -192l157 192h338zM1536 937q-20 -148 -89 -246.5t-194 -158.5l243 -532h-502l-196 431q-98 -8 -190 -11l-59 -420h-502l202 1434h717q292 0 448 -128.5t122 -368.5zM705 1106l-51 -358q210 7 288 47t92 142q10 78 -30.5 123.5 t-114.5 45.5h-184z" glyph-name="Rcaron" horiz-adv-x="1633" unicode="Ř"/><glyph d="M737 1485h338l-275 -307h-473l-190 307h338l105 -193zM467 0l-461 1l152 1074h449l-15 -108q59 49 179 89t212 40l-44 -313q-71 14 -199.5 -19.5t-175.5 -75.5z" glyph-name="rcaron" horiz-adv-x="924" unicode="ř"/><glyph d="M1316 1844l-309 -307h-338l224 307h423zM78 465q244 -137 457 -137q216 0 230 98q5 38 -41.5 66t-109 42.5t-144 35.5t-122.5 41q-134 67 -189.5 172t-23.5 270q35 180 219.5 291t476.5 111q251 0 432 -97l-54 -377q-114 71 -211 99.5t-216 26.5q-52 -1 -101 -20t-60 -59 q-7 -27 4.5 -48t34.5 -34.5t60 -26.5t71 -21t78 -19.5t73 -21.5q58 -20 107.5 -49t93 -71t68.5 -93t35 -117t-7 -144q-17 -93 -70.5 -165.5t-125 -116.5t-167.5 -72t-190 -38.5t-201 -10.5q-119 0 -244 28t-216 79z" glyph-name="Sacute" horiz-adv-x="1323" unicode="Ś"/><glyph d="M1145 1486l-309 -307h-338l224 307h423zM73 342q133 -80 325 -98q68 -7 120 10.5t71 54.5q7 15 -1 28t-32.5 23.5t-49 18t-63.5 18.5q-32 8 -48 14q-188 51 -260.5 136.5t-50.5 224.5q17 110 105.5 184.5t214.5 107t285 32.5q112 0 216.5 -19.5t166.5 -55.5l-40 -286 q-143 86 -334 96q-54 0 -97 -14t-51 -45q-8 -32 58 -60q20 -8 187 -62q5 -2 11 -4q73 -24 119.5 -48t81.5 -59.5t46.5 -86t0.5 -117.5q-14 -92 -70.5 -162.5t-141 -112t-184 -61t-211.5 -19.5q-118 0 -236.5 21t-177.5 57z" glyph-name="sacute" horiz-adv-x="1133" unicode="ś"/><glyph d="M942 857q58 -20 107.5 -49t93 -71t68.5 -93t35 -117t-7 -144q-17 -89 -66 -158.5t-115.5 -113.5t-155 -73.5t-177.5 -42t-190 -14.5l-74 -74q13 2 38 2q103 0 156.5 -44.5t43.5 -113.5q-12 -88 -99.5 -141t-251.5 -53q-70 0 -145 13l17 121q46 -8 112 -8q121 0 131 76 q5 36 -20.5 52.5t-84.5 16.5q-27 0 -47 -2l12 77l74 81q-222 19 -372 103l53 378q244 -137 457 -137q216 0 230 98q5 38 -41.5 66t-109 42.5t-144 35.5t-122.5 41q-134 67 -189.5 172t-23.5 270q35 180 219.5 291t476.5 111q251 0 432 -97l-54 -377q-114 71 -211 99.5 t-216 26.5q-52 -1 -101 -20t-60 -59q-7 -27 4.5 -48t34.5 -34.5t60 -26.5t71 -21t78 -19.5t73 -21.5z" glyph-name="Scedilla" horiz-adv-x="1323" unicode="Ş"/><glyph d="M806 646q73 -24 119.5 -48t81.5 -59.5t46.5 -86t0.5 -117.5q-17 -108 -91.5 -184.5t-178 -115.5t-232.5 -50l-78 -78q13 2 38 2q103 0 156.5 -44.5t44.5 -113.5q-12 -88 -100 -141t-252 -53q-70 0 -145 13l17 121q46 -8 112 -8q121 0 131 76q5 36 -20.5 52.5t-83.5 16.5 q-27 0 -47 -2l11 77l72 78q-112 3 -216 23.5t-159 53.5l40 284q133 -80 325 -98q68 -7 120 10.5t71 54.5q7 15 -1 28t-32.5 23.5t-49 18t-63.5 18.5q-32 8 -48 14q-188 51 -260.5 136.5t-50.5 224.5q17 110 105.5 184.5t214.5 107t285 32.5q112 0 216.5 -19.5t166.5 -55.5 l-40 -286q-143 86 -334 96q-54 0 -97 -14t-51 -45q-8 -32 58 -60q20 -8 187 -62q5 -2 11 -4z" glyph-name="scedilla" horiz-adv-x="1133" unicode="ş"/><glyph d="M1012 1843h338l-276 -307h-473l-189 307h338l104 -192zM78 465q244 -137 457 -137q216 0 230 98q5 38 -41.5 66t-109 42.5t-144 35.5t-122.5 41q-134 67 -189.5 172t-23.5 270q35 180 219.5 291t476.5 111q251 0 432 -97l-54 -377q-114 71 -211 99.5t-216 26.5 q-52 -1 -101 -20t-60 -59q-7 -27 4.5 -48t34.5 -34.5t60 -26.5t71 -21t78 -19.5t73 -21.5q58 -20 107.5 -49t93 -71t68.5 -93t35 -117t-7 -144q-17 -93 -70.5 -165.5t-125 -116.5t-167.5 -72t-190 -38.5t-201 -10.5q-119 0 -244 28t-216 79z" glyph-name="Scaron" horiz-adv-x="1323" unicode="Š"/><glyph d="M841 1485h338l-276 -307h-473l-189 307h338l104 -193zM73 342q133 -80 325 -98q68 -7 120 10.5t71 54.5q7 15 -1 28t-32.5 23.5t-49 18t-63.5 18.5q-32 8 -48 14q-188 51 -260.5 136.5t-50.5 224.5q17 110 105.5 184.5t214.5 107t285 32.5q112 0 216.5 -19.5t166.5 -55.5 l-40 -286q-143 86 -334 96q-54 0 -97 -14t-51 -45q-8 -32 58 -60q20 -8 187 -62q5 -2 11 -4q73 -24 119.5 -48t81.5 -59.5t46.5 -86t0.5 -117.5q-14 -92 -70.5 -162.5t-141 -112t-184 -61t-211.5 -19.5q-118 0 -236.5 21t-177.5 57z" glyph-name="scaron" horiz-adv-x="1133" unicode="š"/><glyph d="M1365 1434l-49 -349h-364l-152 -1085h-184l-94 -93q13 2 38 2q103 0 156.5 -44.5t44.5 -113.5q-12 -88 -100 -141t-251 -53q-70 0 -146 13l18 121q46 -8 111 -8q121 0 131 76q5 36 -20.5 52.5t-83.5 16.5q-27 0 -47 -2l11 77l89 97h-175l153 1085h-364l49 349h1229z" glyph-name="Tcommaaccent" horiz-adv-x="1249" unicode="Ţ"/><glyph d="M707 768l-56 -389q-6 -44 15.5 -68t65.5 -24h164l-41 -287h-320l-95 -93q13 2 38 2q103 0 156.5 -44.5t44.5 -113.5q-12 -88 -99.5 -141t-251.5 -53q-70 0 -146 13l18 121q46 -8 111 -8q121 0 131 76q5 36 -20.5 52.5t-83.5 16.5q-27 0 -47 -2l11 77l89 97h-11 q-101 0 -162 70.5t-47 171.5l75 526h-162l43 307h162l28 205h461l-28 -205h257l-43 -307h-257z" glyph-name="tcommaaccent" horiz-adv-x="1012" unicode="ţ"/><glyph d="M1001 1536h-473l-189 307h338l104 -192l158 192h338zM1365 1434l-49 -349h-364l-152 -1085h-502l153 1085h-364l49 349h1229z" glyph-name="Tcaron" horiz-adv-x="1249" unicode="Ť"/><glyph d="M1254 1382h461l-246 -654h-409zM855 0h-475q-101 0 -162 70.5t-47 171.5l75 526h-162l43 307h162l28 205h461l-28 -205h257l-43 -307h-257l-56 -389q-6 -44 15.5 -68t65.5 -24h164z" glyph-name="tcaron" horiz-adv-x="1719" unicode="ť"/><glyph d="M1316 1085h-364l-37 -266h292l-28 -205h-293l-86 -614h-502l86 614h-229l28 205h231l37 266h-364l49 349h1229z" glyph-name="Tbar" horiz-adv-x="1249" unicode="Ŧ"/><glyph d="M964 768h-257l-11 -72h257l-28 -204h-257l-17 -113q-6 -44 15.5 -68t65.5 -24h164l-41 -287h-475q-101 0 -162 70.5t-47 171.5l36 250h-162l29 204h162l10 72h-162l43 307h162l28 205h461l-28 -205h257z" glyph-name="tbar" horiz-adv-x="1012" unicode="ŧ"/><glyph d="M564 1536q10 78 38 136.5t66.5 92t81.5 50t89 16.5q63 0 155 -33t130 -33q54 0 67 66h217q-10 -78 -38 -136.5t-66 -92t-81 -50t-89 -16.5q-62 0 -154.5 33t-131.5 33q-54 0 -67 -66h-217zM1653 1434l-113 -799q-25 -182 -91 -310.5t-170.5 -203.5t-235 -108t-298.5 -33 q-111 0 -199.5 14t-165 45.5t-127.5 82t-85.5 123t-40 169.5t8.5 221l113 799h502l-125 -891q-13 -93 31 -154t138 -61t156 61t75 154l125 891h502z" glyph-name="Utilde" horiz-adv-x="1649" unicode="Ũ"/><glyph d="M380 1178q10 78 37.5 136t66 92t81.5 50.5t89 16.5q63 0 155.5 -33t130.5 -33q54 0 67 66h217q-10 -78 -38 -136.5t-66.5 -92.5t-81.5 -50t-89 -16q-62 0 -154.5 32.5t-130.5 32.5q-54 0 -67 -65h-217zM905 1075h461l-152 -1075h-460l20 142q-170 -163 -439 -162 q-194 0 -249.5 93.5t-24.5 320.5l97 681h460l-78 -558q-19 -108 -6.5 -164t74.5 -56q48 0 102 27t100 76z" glyph-name="utilde" unicode="ũ"/><glyph d="M694 1792h615l-36 -256h-615zM1653 1434l-113 -799q-25 -182 -91 -310.5t-170.5 -203.5t-235 -108t-298.5 -33q-111 0 -199.5 14t-165 45.5t-127.5 82t-85.5 123t-40 169.5t8.5 221l113 799h502l-125 -891q-13 -93 31 -154t138 -61t156 61t75 154l125 891h502z" glyph-name="Umacron" horiz-adv-x="1649" unicode="Ū"/><glyph d="M510 1434h614l-35 -256h-615zM905 1075h461l-152 -1075h-460l20 142q-170 -163 -439 -162q-194 0 -249.5 93.5t-24.5 320.5l97 681h460l-78 -558q-19 -108 -6.5 -164t74.5 -56q48 0 102 27t100 76z" glyph-name="umacron" unicode="ū"/><glyph d="M965.5 1536q-115.5 0 -187 83t-55.5 199q17 116 111.5 198.5t210 82.5t187 -83t55 -198.5t-111 -198.5t-210 -83zM994.5 1740q31.5 0 57.5 23t30 54.5t-15 54.5t-51 23t-58 -23t-31 -54q-4 -32 16 -55t51.5 -23zM1653 1434l-113 -799q-25 -182 -91 -310.5t-170.5 -203.5 t-235 -108t-298.5 -33q-111 0 -199.5 14t-165 45.5t-127.5 82t-85.5 123t-40 169.5t8.5 221l113 799h502l-125 -891q-13 -93 31 -154t138 -61t156 61t75 154l125 891h502z" glyph-name="Uring" horiz-adv-x="1649" unicode="Ů"/><glyph d="M781.5 1178q-115.5 0 -187.5 82.5t-55 198.5t111 199t210 83t187 -83t54.5 -199t-110.5 -198.5t-209.5 -82.5zM810 1381q32 0 58 23t30 55t-15.5 55t-51 23t-57.5 -23t-32 -55q-4 -32 16 -55t52 -23zM905 1075h461l-152 -1075h-460l20 142q-170 -163 -439 -162 q-194 0 -249.5 93.5t-24.5 320.5l97 681h460l-78 -558q-19 -108 -6.5 -164t74.5 -56q48 0 102 27t100 76z" glyph-name="uring" unicode="ů"/><glyph d="M1058 1884l-213 -348h-291l210 348h294zM1426 1884l-213 -348h-290l210 348h293zM1653 1434l-113 -799q-25 -182 -91 -310.5t-170.5 -203.5t-235 -108t-298.5 -33q-111 0 -199.5 14t-165 45.5t-127.5 82t-85.5 123t-40 169.5t8.5 221l113 799h502l-125 -891 q-13 -93 31 -154t138 -61t156 61t75 154l125 891h502z" glyph-name="Uhungarumlaut" horiz-adv-x="1649" unicode="Ű"/><glyph d="M873 1526l-213 -348h-290l210 348h293zM1242 1526l-213 -348h-291l210 348h294zM905 1075h461l-152 -1075h-460l20 142q-170 -163 -439 -162q-194 0 -249.5 93.5t-24.5 320.5l97 681h460l-78 -558q-19 -108 -6.5 -164t74.5 -56q48 0 102 27t100 76z" glyph-name="uhungarumlaut" unicode="ű"/><glyph d="M1151 1434h502l-113 -799q-23 -170 -82 -293.5t-152 -199t-208.5 -114t-264.5 -46.5q-163 -75 -175 -152q-8 -53 51 -66t134 9l-10 -183q-78 -23 -161 -19.5t-150.5 22.5t-106.5 67.5t-30 116.5q7 55 57.5 113t147.5 98q-129 14 -220 56t-154 119.5t-81 193t1 278.5 l113 799h502l-125 -891q-13 -93 31 -154t138 -61t156 61t75 154z" glyph-name="Uogonek" horiz-adv-x="1649" unicode="Ų"/><glyph d="M905 1075h461l-152 -1075h-99q-205 -85 -216 -170q-8 -53 51 -66t133 9l-10 -183q-78 -23 -161 -19.5t-150.5 22.5t-106.5 67.5t-29 116.5q8 60 66 121.5t171 101.5h-109l20 142q-170 -163 -439 -162q-194 0 -249.5 93.5t-24.5 320.5l97 681h460l-78 -558 q-19 -108 -6.5 -164t74.5 -56q48 0 102 27t100 76z" glyph-name="uogonek" unicode="ų"/><glyph d="M1758 1536h-338l-104 193l-158 -193h-338l276 307h473zM1890 1434h524l-584 -1434h-536l-100 859l-342 -859h-536l-180 1434h523l37 -795l289 795h580l65 -795z" glyph-name="Wcircumflex" horiz-adv-x="2297" unicode="Ŵ"/><glyph d="M1622 1178h-338l-104 192l-158 -192h-338l275 307h474zM1674 1075h486l-467 -1075h-541l-78 634l-253 -634h-540l-164 1075h485l73 -607l223 607h480l72 -607z" glyph-name="wcircumflex" horiz-adv-x="2124" unicode="ŵ"/><glyph d="M1370 1536h-338l-104 193l-158 -193h-338l276 307h473zM1110 1434h527l-638 -983l-63 -451h-502l64 451l-362 983h531l148 -512z" glyph-name="Ycircumflex" horiz-adv-x="1521" unicode="Ŷ"/><glyph d="M1289 1178h-338l-104 192l-158 -192h-338l276 307h473zM1009 1075h486l-586 -1050q-274 -488 -869 -424l20 285q134 -29 211 4t99 135l-253 1050h489l96 -641z" glyph-name="ycircumflex" horiz-adv-x="1460" unicode="ŷ"/><glyph d="M502 1834h398l-42 -298h-398zM987 1834h397l-42 -298h-397zM1110 1434h527l-638 -983l-63 -451h-502l64 451l-362 983h531l148 -512z" glyph-name="Ydieresis" horiz-adv-x="1521" unicode="Ÿ"/><glyph d="M1356 1844l-309 -307h-338l224 307h423zM1478 1434l-50 -349l-707 -737h604l-49 -348h-1229l49 348l698 737h-594l49 349h1229z" glyph-name="Zacute" horiz-adv-x="1474" unicode="Ź"/><glyph d="M1156 1486l-309 -307h-338l224 307h423zM1199 1075l-42 -307l-570 -461h505l-44 -307h-1073l43 307l570 461h-504l43 307h1072z" glyph-name="zacute" horiz-adv-x="1175" unicode="ź"/><glyph d="M1118 1834l-42 -298h-398l42 298h398zM1478 1434l-50 -349l-707 -737h604l-49 -348h-1229l49 348l698 737h-594l49 349h1229z" glyph-name="Zdotaccent" horiz-adv-x="1474" unicode="Ż"/><glyph d="M919 1476l-42 -298h-399l42 298h399zM1199 1075l-42 -307l-570 -461h505l-44 -307h-1073l43 307l570 461h-504l43 307h1072z" glyph-name="zdotaccent" horiz-adv-x="1175" unicode="ż"/><glyph d="M1114 1536h-473l-189 307h338l104 -192l158 192h338zM1478 1434l-50 -349l-707 -737h604l-49 -348h-1229l49 348l698 737h-594l49 349h1229z" glyph-name="Zcaron" horiz-adv-x="1474" unicode="Ž"/><glyph d="M914 1178h-473l-189 307h338l104 -193l158 193h338zM1199 1075l-42 -307l-570 -461h505l-44 -307h-1073l43 307l570 461h-504l43 307h1072z" glyph-name="zcaron" horiz-adv-x="1175" unicode="ž"/><glyph d="M1185 1336q148 -2 216 -55l-76 -178q-100 25 -166 -2q-31 -13 -48 -39t-38 -80l-135 -368h272l-29 -204h-319l-147 -402q-30 -82 -79 -142.5t-102.5 -94t-122.5 -53t-127 -25t-128 -4.5q-148 2 -216 55l76 178q99 -25 165 2q31 13 48.5 39t37.5 80l135 367h-221l30 204 h266l149 403q30 82 79 142.5t102 94t122 53t127 25t129 4.5z" glyph-name="florin" horiz-adv-x="1347" unicode="ƒ"/><glyph d="M787 819l-28 -205h-124l-86 -614h-502l86 614h-122l29 205h123l86 615h502l-86 -615h122z" glyph-name="uni0197" horiz-adv-x="747" unicode="Ɨ"/><glyph d="M1240 1536h-473l-189 307h337l105 -192l158 192h338zM1122 0l-40 233h-524l-105 -233h-529l717 1434h696l314 -1434h-529zM716 582h307l-85 493z" glyph-name="uni01CD" horiz-adv-x="1726" unicode="Ǎ"/><glyph d="M918 1485h337l-275 -307h-473l-190 307h338l105 -193zM712 1096q153 0 264 -33.5t171.5 -91t84.5 -129t13 -154.5l-97 -689h-440l-7 98q-98 -68 -199.5 -96.5t-229.5 -20.5q-130 8 -196 85t-64 173q2 80 29 149.5t83.5 132.5t145.5 101t216 55t295 -5l4 26q5 40 -45 72.5 t-124 39.5q-165 15 -414 -78l39 280q225 85 471 85zM731 314l22 154q-135 31 -223 -17.5t-86 -127.5q1 -39 33 -58t82 -14q89 8 172 63z" glyph-name="uni01CE" horiz-adv-x="1305" unicode="ǎ"/><glyph d="M688 1843h338l-275 -307h-473l-190 307h338l104 -192zM549 0h-502l202 1434h502z" glyph-name="uni01CF" horiz-adv-x="747" unicode="Ǐ"/><glyph d="M577 1485h337l-275 -307h-473l-190 307h338l105 -193zM158 1075h460l-151 -1075h-461z" glyph-name="uni01D0" horiz-adv-x="624" unicode="ǐ"/><glyph d="M1181 1843h338l-276 -307h-473l-189 307h338l104 -192zM1696 717q-19 -144 -81 -266t-150.5 -208t-200 -146t-232.5 -88.5t-245.5 -28.5t-237 28.5t-206.5 88.5t-158 146t-91 207.5t-7 266.5q19 140 79.5 261t148.5 207t199 147.5t232.5 91.5t247.5 30t240 -30t207 -91.5 t157 -147.5t90.5 -207t7.5 -261zM836 328q141 0 237 106.5t121 282.5q25 175 -44 282t-205 107q-135 0 -233.5 -107t-122.5 -282q-25 -176 41 -282.5t206 -106.5z" glyph-name="uni01D1" horiz-adv-x="1731" unicode="Ǒ"/><glyph d="M956 1485h338l-275 -307h-473l-190 307h338l105 -193zM1333 538q-15 -115 -65 -210t-121.5 -158.5t-161 -107.5t-182.5 -63t-189.5 -19t-184 19t-164.5 63t-130 107.5t-76.5 158.5t-7.5 210q15 112 65 205.5t121 157.5t160 109t183.5 65.5t190.5 20.5t184.5 -20.5 t165 -65.5t129.5 -109t75.5 -157.5t7.5 -205.5zM655 276q94 0 148 75t69 187q9 50 4.5 97t-18 83.5t-47 58.5t-82.5 22t-88.5 -21.5t-64.5 -59.5t-41 -83t-23 -97q-7 -69 -1.5 -127t42.5 -96.5t102 -38.5z" glyph-name="uni01D2" horiz-adv-x="1384" unicode="ǒ"/><glyph d="M1140 1843h338l-276 -307h-473l-189 307h338l104 -192zM1653 1434l-113 -799q-25 -182 -91 -310.5t-170.5 -203.5t-235 -108t-298.5 -33q-111 0 -199.5 14t-165 45.5t-127.5 82t-85.5 123t-40 169.5t8.5 221l113 799h502l-125 -891q-13 -93 31 -154t138 -61t156 61 t75 154l125 891h502z" glyph-name="uni01D3" horiz-adv-x="1649" unicode="Ǔ"/><glyph d="M955 1485h338l-275 -307h-473l-190 307h338l105 -193zM905 1075h461l-152 -1075h-460l20 142q-170 -163 -439 -162q-194 0 -249.5 93.5t-24.5 320.5l97 681h460l-78 -558q-19 -108 -6.5 -164t74.5 -56q48 0 102 27t100 76z" glyph-name="uni01D4" unicode="ǔ"/><glyph d="M1160 1843h338l-275 -307h-473l-190 307h338l104 -192zM883 886h580l-114 -813q-290 -93 -561 -93q-127 0 -240.5 30t-206.5 91.5t-156.5 148t-90 207t-7.5 260.5t79.5 260.5t149 207t199.5 148t232.5 91.5t248.5 30q204 0 375 -47l-49 -350q-199 72 -377 49 q-139 -12 -235.5 -114.5t-121 -274.5t43 -274.5t204.5 -114.5q59 -8 132 -3l33 243h-163z" glyph-name="Gcaron" horiz-adv-x="1537" unicode="Ǧ"/><glyph d="M992 1485h338l-275 -307h-473l-190 307h338l105 -193zM948 1075h459l-135 -957q-25 -171 -129 -296t-263.5 -188.5t-357.5 -63.5q-223 0 -369 45l42 295q134 -59 315 -43q134 12 207 52.5t84 119.5l11 83q-46 -39 -124 -60t-158 -21q-120 0 -214.5 33.5t-159.5 97.5 t-92 165t-9 231q18 133 70.5 235.5t130 165.5t171 95t201.5 32q196 0 302 -154zM516 568q-34 -241 146 -240q102 0 187 59l45 322q-60 90 -166 90q-95 0 -146.5 -64.5t-65.5 -166.5z" glyph-name="gcaron" horiz-adv-x="1413" unicode="ǧ"/><glyph d="M1655 1844l-309 -307h-338l224 307h423zM2025 1085h-583l-28 -194h533l-49 -348h-532l-28 -195h584l-49 -348h-1086l59 417l-26 -184h-262l-105 -233h-529l717 1434h1434zM716 582h153l70 492z" glyph-name="AEacute" horiz-adv-x="2071" unicode="Ǽ"/><glyph d="M1726 1486l-309 -307h-338l225 307h422zM1692.5 1096q139.5 0 244.5 -35t167 -97.5t89.5 -147.5t19 -187t-51.5 -214h-720q26 -78 112 -110t232 -35q154 -3 295 49l-41 -294q-159 -45 -427 -45q-282 0 -450 119l-14 -100h-440l-7 98q-98 -68 -199.5 -96.5t-229.5 -20.5 q-130 8 -196 85t-64 173q2 80 29 149.5t83.5 132.5t145.5 101t216 55t295 -5l4 26q5 40 -45 72.5t-124 39.5q-165 15 -414 -78l39 280q225 85 471 85q355 0 482 -175q98 87 228.5 131t270 44zM1819 671q24 63 -16.5 107.5t-118.5 40.5q-141 -7 -211 -148h346zM731 314 l22 154q-135 31 -223 -17.5t-86 -127.5q1 -39 33 -58t82 -14q89 8 172 63z" glyph-name="aeacute" horiz-adv-x="2251" unicode="ǽ"/><glyph d="M1485 1844l-309 -307h-338l224 307h423zM1562 1230q178 -202 134 -513q-19 -144 -81 -266t-150.5 -208t-200 -146t-232.5 -88.5t-246 -28.5q-293 0 -485 145l-132 -116l-92 108l123 107q-155 195 -113 493q19 140 79.5 261t148.5 207t199 147.5t232.5 91.5t247.5 30 q271 0 460 -130l115 100l92 -107zM589 717q-11 -79 -3 -154l537 470q-68 73 -178 73q-135 0 -233 -107t-123 -282zM1194 717q15 104 -5 186l-551 -482q68 -93 198 -93q141 0 237 106.5t121 282.5z" glyph-name="Oslashacute" horiz-adv-x="1731" unicode="Ǿ"/><glyph d="M1185 1486l-309 -307h-338l224 307h423zM1357 1047l-133 -117q144 -151 109 -392q-15 -115 -65 -210t-121.5 -158.5t-161 -107.5t-182.5 -63t-190 -19q-215 0 -365 92l-145 -127l-73 84l130 114q-143 146 -109 395q15 112 65 205.5t121 157.5t160 109t183.5 65.5 t190.5 20.5q213 0 365 -95l147 129zM512 538q-6 -49 -5 -89l337 295q-36 54 -115 55q-49 0 -88.5 -21.5t-64.5 -59.5t-41 -83t-23 -97zM872 538q6 48 6 87l-336 -295q37 -53 113 -54q94 0 148 75t69 187z" glyph-name="oslashacute" horiz-adv-x="1384" unicode="ǿ"/><glyph d="M78 465q244 -137 457 -137q216 0 230 98q5 38 -41.5 66t-109 42.5t-144 35.5t-122.5 41q-134 67 -189.5 172t-23.5 270q35 180 219.5 291t476.5 111q251 0 432 -97l-54 -377q-114 71 -211 99.5t-216 26.5q-52 -1 -101 -20t-60 -59q-7 -27 4.5 -48t34.5 -34.5t60 -26.5 t71 -21t78 -19.5t73 -21.5q58 -20 107.5 -49t93 -71t68.5 -93t35 -117t-7 -144q-17 -93 -70.5 -165.5t-125 -116.5t-167.5 -72t-190 -38.5t-201 -10.5q-119 0 -244 28t-216 79zM275 -141h347l-185 -491h-307z" glyph-name="Scommaaccent" horiz-adv-x="1323" unicode="Ș"/><glyph d="M73 342q133 -80 325 -98q68 -7 120 10.5t71 54.5q7 15 -1 28t-32.5 23.5t-49 18t-63.5 18.5q-32 8 -48 14q-188 51 -260.5 136.5t-50.5 224.5q17 110 105.5 184.5t214.5 107t285 32.5q112 0 216.5 -19.5t166.5 -55.5l-40 -286q-143 86 -334 96q-54 0 -97 -14t-51 -45 q-8 -32 58 -60q20 -8 187 -62q5 -2 11 -4q73 -24 119.5 -48t81.5 -59.5t46.5 -86t0.5 -117.5q-14 -92 -70.5 -162.5t-141 -112t-184 -61t-211.5 -19.5q-118 0 -236.5 21t-177.5 57zM289 -141h346l-184 -491h-308z" glyph-name="scommaaccent" horiz-adv-x="1133" unicode="ș"/><glyph d="M1365 1434l-49 -349h-364l-152 -1085h-502l153 1085h-364l49 349h1229zM191 -632l146 491h346l-184 -491h-308z" glyph-name="uni021A" horiz-adv-x="1249" unicode="Ț"/><glyph d="M855 0h-475q-101 0 -162 70.5t-47 171.5l75 526h-162l43 307h162l28 205h461l-28 -205h257l-43 -307h-257l-56 -389q-6 -44 15.5 -68t65.5 -24h164zM255 -141h346l-184 -491h-307z" glyph-name="uni021B" horiz-adv-x="1012" unicode="ț"/><glyph d="M1388 1085h-687l-27 -194h594l-48 -348h-594l-28 -195h686l-49 -348h-526l-95 -93q13 2 38 2q103 0 156.5 -44.5t44.5 -113.5q-12 -88 -99.5 -141t-251.5 -53q-70 0 -146 13l18 121q46 -8 111 -8q121 0 131 76q5 36 -20.5 52.5t-83.5 16.5q-27 0 -47 -2l11 77l89 97h-518 l202 1434h1188z" glyph-name="uni0228" horiz-adv-x="1433" unicode="Ȩ"/><glyph d="M751 1096q139 0 244 -35t167 -97t89.5 -147.5t19 -187.5t-51.5 -214h-720q26 -78 112 -110t232 -35q154 -3 295 49l-41 -294q-140 -40 -386 -45l-74 -73q13 2 38 2q103 0 156.5 -44.5t44.5 -113.5q-12 -88 -100 -141t-252 -53q-70 0 -145 13l17 121q46 -8 112 -8 q121 0 131 76q5 36 -20.5 52.5t-83.5 16.5q-27 0 -48 -2l12 77l74 81q-126 10 -227 49t-174.5 105.5t-105.5 169t-15 230.5q15 112 63 205.5t116 157.5t154 109t178.5 65.5t188.5 20.5zM877 671q24 63 -16.5 107.5t-118.5 40.5q-141 -7 -212 -148h347z" glyph-name="uni0229" horiz-adv-x="1309" unicode="ȩ"/><glyph d="M618 1075l-156 -1111q-11 -82 -46.5 -142.5t-81.5 -94t-110.5 -53t-121 -25t-127.5 -4.5q-150 2 -229 55l36 178q105 -25 165 2q29 13 40.5 39t18.5 80l152 1076h460z" glyph-name="uni0237" horiz-adv-x="624" unicode="ȷ"/><glyph d="M640 1096q143 0 262 -34t207 -100.5t128.5 -175t20.5 -248.5q-15 -112 -62.5 -205.5t-115.5 -157.5t-154 -109.5t-178.5 -65.5t-188.5 -20q-139 0 -244 34.5t-167 96.5t-89.5 147.5t-19 187.5t51.5 214h720q-26 78 -112.5 110t-231.5 35q-154 3 -295 -49l41 295 q159 45 427 45zM567 256q141 7 212 148h-346q-24 -63 16 -107.5t118 -40.5z" glyph-name="uni0259" horiz-adv-x="1309" unicode="ə"/><glyph d="M735 1434l-40 -281h-512l40 281h512zM659 1075l-39 -287h101l-48 -348h-103l-62 -440h-461l63 440h-103l48 348h104l40 287h460z" glyph-name="uni0268" horiz-adv-x="706" unicode="ɨ"/><glyph d="M1151 1178h-338l-104 192l-158 -192h-338l275 307h474z" glyph-name="circumflex" horiz-adv-x="1183" unicode="ˆ"/><glyph d="M856 1485h338l-275 -307h-474l-189 307h338l104 -193z" glyph-name="caron" horiz-adv-x="1183" unicode="ˇ"/><glyph d="M1027 1485q-53 -145 -165.5 -226t-262.5 -81q-151 0 -241.5 80.5t-101.5 226.5h266q7 -97 107 -97q48 0 81.5 26.5t50.5 70.5h266z" glyph-name="breve" horiz-adv-x="1016" unicode="˘"/><glyph d="M255 1476h398l-42 -298h-398z" glyph-name="dotaccent" horiz-adv-x="644" unicode="˙"/><glyph d="M494.5 1178q-115.5 0 -187 82.5t-55.5 198.5q17 116 111.5 199t210 83t186.5 -83t55 -199t-110.5 -198.5t-210 -82.5zM523.5 1381q31.5 0 57.5 23t30 55t-15 55t-51 23t-58 -23t-31 -55q-4 -32 16 -55t51.5 -23z" glyph-name="ring" horiz-adv-x="808" unicode="˚"/><glyph d="M16 -223q8 60 66 121.5t172 101.5h252q-205 -85 -216 -170q-8 -53 50.5 -66t133.5 9l-10 -183q-78 -23 -161 -19.5t-150.5 22.5t-106.5 67.5t-30 116.5z" glyph-name="ogonek" horiz-adv-x="719" unicode="˛"/><glyph d="M213 1178q10 78 38 136t66 92t81 50.5t89 16.5q63 0 155.5 -33t130.5 -33q54 0 67 66h217q-10 -78 -38 -136.5t-66.5 -92.5t-81.5 -50t-89 -16q-62 0 -154 32.5t-131 32.5q-54 0 -67 -65h-217z" glyph-name="tilde" horiz-adv-x="1048" unicode="˜"/><glyph d="M717 1526l-213 -348h-291l210 348h294zM1085 1526l-213 -348h-290l210 348h293z" glyph-name="hungarumlaut" horiz-adv-x="1069" unicode="˝"/><glyph d="M-594 1485h423l138 -307h-338z" glyph-name="gravecomb" horiz-adv-x="0" unicode="̀"/><glyph d="M10 1485l-309 -307h-338l224 307h423z" glyph-name="acutecomb" horiz-adv-x="0" unicode="́"/><glyph d="M-33 1178h-338l-104 192l-158 -192h-338l276 307h473z" glyph-name="uni0302" horiz-adv-x="0" unicode="̂"/><glyph d="M-836 1178q10 78 38 136t66.5 92t81.5 50.5t89 16.5q63 0 155.5 -33t130.5 -33q54 0 66 66h217q-10 -78 -37.5 -136.5t-66 -92.5t-81.5 -50t-89 -16q-62 0 -154.5 32.5t-131.5 32.5q-54 0 -66 -65h-218z" glyph-name="tildecomb" horiz-adv-x="0" unicode="̃"/><glyph d="M-611 1434h614l-36 -256h-614z" glyph-name="uni0304" horiz-adv-x="0" unicode="̄"/><glyph d="M10 1485q-53 -145 -165.5 -226t-262.5 -81q-151 0 -241.5 80.5t-101.5 226.5h266q7 -97 107 -97q48 0 82 26.5t50 70.5h266z" glyph-name="uni0306" horiz-adv-x="0" unicode="̆"/><glyph d="M-389 1476h398l-42 -298h-398z" glyph-name="uni0307" horiz-adv-x="0" unicode="̇"/><glyph d="M-873 1476h398l-42 -298h-398zM-388 1476h397l-42 -298h-397z" glyph-name="uni0308" horiz-adv-x="0" unicode="̈"/><glyph d="M-314.5 1178q-115.5 0 -187 82.5t-55.5 198.5q17 116 111.5 199t210 83t187 -83t55 -199t-111 -198.5t-210 -82.5zM-285.5 1381q31.5 0 57.5 23t30 55t-15 55t-51 23t-58 -23t-31 -55q-4 -32 16 -55t51.5 -23z" glyph-name="uni030A" horiz-adv-x="0" unicode="̊"/><glyph d="M-352 1526l-213 -348h-291l210 348h294zM16 1526l-213 -348h-290l209 348h294z" glyph-name="uni030B" horiz-adv-x="0" unicode="̋"/><glyph d="M-328 1485h338l-275 -307h-473l-190 307h338l105 -193z" glyph-name="uni030C" horiz-adv-x="0" unicode="̌"/><glyph d="M-13 1217h-345l184 490h307z" glyph-name="uni0312" horiz-adv-x="0" unicode="̒"/><glyph d="M-611 -102h398l-42 -298h-398z" glyph-name="dotbelowcomb" horiz-adv-x="0" unicode="̣"/><glyph d="M-586 -141h346l-184 -491h-308z" glyph-name="uni0326" horiz-adv-x="0" unicode="̦"/><glyph d="M-434 -91q103 0 156.5 -44.5t44.5 -113.5q-12 -88 -100 -141t-252 -53q-70 0 -145 13l17 121q46 -8 112 -8q121 0 131 76q5 36 -20.5 52.5t-83.5 16.5q-27 0 -48 -2l12 77l94 102h143l-99 -98q13 2 38 2z" glyph-name="uni0327" horiz-adv-x="0" unicode="̧"/><glyph d="M-703 -223q8 60 65.5 121.5t171.5 101.5h252q-205 -85 -216 -170q-8 -53 50.5 -66t133.5 9l-10 -183q-78 -23 -161 -19.5t-150.5 22.5t-106 67.5t-29.5 116.5z" glyph-name="uni0328" horiz-adv-x="0" unicode="̨"/><glyph d="M454 1803h398l-42 -298h-398zM939 1803h397l-42 -298h-397zM598 348h686l-49 -348h-1188l202 1434h1188l-49 -349h-687l-27 -194h594l-48 -348h-594z" glyph-name="afii10023" horiz-adv-x="1433" unicode="Ё"/><glyph d="M1122 0l-40 233h-524l-105 -233h-529l717 1434h696l314 -1434h-529zM716 582h307l-85 493z" glyph-name="afii10017" horiz-adv-x="1726" unicode="А"/><glyph d="M692 1014q185 -6 318.5 -26t232 -57.5t153.5 -97t74.5 -142t4.5 -194.5q-34 -240 -226 -368.5t-485 -128.5h-717l202 1434h1112l-43 -308h-610zM973 497q14 102 -52.5 142t-274.5 47l-51 -358h184q74 0 128.5 45.5t65.5 123.5z" glyph-name="afii10018" horiz-adv-x="1530" unicode="Б"/><glyph d="M249 1434h883q194 0 299 -95.5t80 -271.5q-13 -88 -64 -173t-117 -116q197 -78 158 -357q-19 -141 -107.5 -238t-214 -140t-280.5 -43h-839zM707 1121l-35 -247h188q77 0 119.5 28t51.5 93q10 74 -21 100t-115 26h-188zM807 302q161 -3 182 140q10 68 -25 99.5t-116 31.5 h-218l-38 -267z" glyph-name="afii10019" horiz-adv-x="1565" unicode="В"/><glyph d="M1114 1434l-49 -349h-364l-152 -1085h-502l202 1434h865z" glyph-name="afii10020" horiz-adv-x="998" unicode="Г"/><glyph d="M1580 348h154l-86 -614h-410l37 266h-815l-37 -266h-410l37 266l1 8q-1 1 -3 1l12 67l39 272h14l2 8q127 -4 184 65t81 239l108 774h1245zM941 1086l-82 -585q-12 -81 -43 -153h262l104 738h-241z" glyph-name="afii10021" horiz-adv-x="1883" unicode="Д"/><glyph d="M598 348h686l-49 -348h-1188l202 1434h1188l-49 -349h-687l-27 -194h594l-48 -348h-594z" glyph-name="afii10022" horiz-adv-x="1433" unicode="Е"/><glyph d="M2452 1434l-510 -686l309 -748h-547l-272 659l-94 -659h-501l93 660l-459 -660h-547l519 748l-317 686h547l280 -607l85 607h502l-85 -606l451 606h546z" glyph-name="afii10024" horiz-adv-x="2326" unicode="Ж"/><glyph d="M713.5 289q97.5 0 146.5 38.5t57.5 97.5t-30 97.5t-135.5 38.5h-228l41 308h231q88 0 133 39t53 97.5t-26 97.5t-122.5 39t-134 -38.5t-53.5 -97.5l-437 20q19 140 119 238t240.5 141.5t308.5 43.5q99 0 185.5 -16t159 -49t122 -82.5t72 -120t9.5 -155.5 q-25 -184 -179 -295q200 -117 171 -327q-11 -88 -56 -159t-113.5 -119.5t-161 -81.5t-196 -47.5t-220 -14.5t-216 14.5t-182 47.5t-137 81.5t-79.5 119.5t-13 159l506 21q-8 -58 29.5 -97t135 -39z" glyph-name="afii10025" horiz-adv-x="1497" unicode="З"/><glyph d="M751 1434l-95 -675l555 675h502l-202 -1434h-501l97 694l-558 -694h-502l202 1434h502z" glyph-name="afii10026" horiz-adv-x="1710" unicode="И"/><glyph d="M1423 1843q-53 -145 -165.5 -226t-262.5 -81q-151 0 -241 81t-102 226h267q7 -97 106 -97q48 0 82 26.5t50 70.5h266zM751 1434l-95 -675l555 675h502l-202 -1434h-501l97 694l-558 -694h-502l202 1434h502z" glyph-name="afii10027" horiz-adv-x="1710" unicode="Й"/><glyph d="M1663 1434l-511 -686l309 -748h-547l-272 659l-93 -659h-502l202 1434h502l-85 -606l450 606h547z" glyph-name="afii10028" horiz-adv-x="1537" unicode="К"/><glyph d="M1651 1434l-201 -1425h-502l152 1077h-241l-82 -585q-13 -93 -53 -174t-99 -140.5t-135 -104.5t-161.5 -66t-178 -25t-184.5 18l67 347q127 -4 184 65t81 239l109 774h1244z" glyph-name="afii10029" horiz-adv-x="1647" unicode="Л"/><glyph d="M1445 1434h694l-202 -1434h-501l112 797l-313 -675h-451l-122 675l-113 -797h-502l202 1434h694l146 -750z" glyph-name="afii10030" horiz-adv-x="2136" unicode="М"/><glyph d="M1191 1434h502l-202 -1434h-502l77 543h-440l-77 -543h-502l202 1434h502l-77 -543h440z" glyph-name="afii10031" horiz-adv-x="1689" unicode="Н"/><glyph d="M1696 717q-19 -144 -81 -266t-150.5 -208t-200 -146t-232.5 -88.5t-245.5 -28.5t-237 28.5t-206.5 88.5t-158 146t-91 207.5t-7 266.5q19 140 79.5 261t148.5 207t199 147.5t232.5 91.5t247.5 30t240 -30t207 -91.5t157 -147.5t90.5 -207t7.5 -261zM836 328 q141 0 237 106.5t121 282.5q25 175 -44 282t-205 107q-135 0 -233.5 -107t-122.5 -282q-25 -176 41 -282.5t206 -106.5z" glyph-name="afii10032" horiz-adv-x="1731" unicode="О"/><glyph d="M1641 1434l-201 -1434h-502l153 1085h-390l-152 -1085h-502l202 1434h1392z" glyph-name="afii10033" horiz-adv-x="1638" unicode="П"/><glyph d="M966 1434q292 0 448 -128.5t122 -368.5q-19 -140 -80 -235t-176.5 -155.5t-276 -89.5t-395.5 -37l-59 -420h-502l202 1434h717zM1034 937q10 78 -30.5 123.5t-114.5 45.5h-184l-51 -358q210 7 288 47t92 142z" glyph-name="afii10034" horiz-adv-x="1541" unicode="Р"/><glyph d="M1322 1057q-199 72 -377 49q-139 -12 -235.5 -114.5t-121 -274.5t43 -274.5t204.5 -114.5q172 -23 391 49l-49 -350q-185 -47 -390 -47q-127 0 -240.5 30t-206.5 91.5t-156.5 148t-90 207t-7.5 260.5t79.5 260.5t149 207t199.5 148t232.5 91.5t248.5 30q204 0 375 -47z " glyph-name="afii10035" unicode="С"/><glyph d="M1365 1434l-49 -349h-364l-152 -1085h-502l153 1085h-364l49 349h1229z" glyph-name="afii10036" horiz-adv-x="1249" unicode="Т"/><glyph d="M1118 1434h535l-644 -1051q-303 -488 -957 -424l23 286q147 -29 231.5 4t108.5 134l-279 1051h539l106 -641z" glyph-name="afii10037" horiz-adv-x="1537" unicode="У"/><glyph d="M1118 1355q161 -11 290.5 -58.5t219 -126t129 -194.5t20.5 -258q-27 -188 -145 -329t-295.5 -217.5t-397.5 -91.5l-11 -80h-205l11 80q-220 14 -376 91.5t-232 218t-49 328.5q26 187 141 327t292.5 217t402.5 93l12 79h204zM579 718q-17 -118 39.5 -189.5t165.5 -93.5 l79 565q-115 -23 -191.5 -94t-92.5 -188zM1275 718q15 113 -41.5 185.5t-165.5 95.5l-79 -564q115 24 192.5 96.5t93.5 186.5z" glyph-name="afii10038" horiz-adv-x="1802" unicode="Ф"/><glyph d="M1729 1434l-544 -700l384 -734h-553l-217 418l-322 -418h-553l593 734l-346 700h545l186 -378l280 378h547z" glyph-name="afii10039" horiz-adv-x="1644" unicode="Х"/><glyph d="M1489 348h165l-72 -512h-348l22 164h-1209l202 1434h502l-153 -1086h389l153 1086h501z" glyph-name="afii10040" horiz-adv-x="1803" unicode="Ц"/><glyph d="M1037 1434h502l-202 -1434h-501l71 511q-170 -163 -438 -163q-153 0 -228 43t-91.5 135t5.5 237l94 671h502l-58 -405q-19 -108 -6.5 -164t75.5 -56q48 0 102 27t100 76z" glyph-name="afii10041" horiz-adv-x="1536" unicode="Ч"/><glyph d="M2031 1434h501l-201 -1434h-2284l202 1434h502l-153 -1086h389l153 1086h501l-152 -1086h389z" glyph-name="afii10042" horiz-adv-x="2529" unicode="Ш"/><glyph d="M2380 348h164l-72 -512h-348l22 164h-2099l202 1434h502l-153 -1086h389l153 1086h501l-152 -1086h389l153 1086h501z" glyph-name="afii10043" horiz-adv-x="2693" unicode="Щ"/><glyph d="M845 1014q185 -6 318 -26t232 -57.5t154 -97t74 -142t4 -194.5q-34 -240 -226 -368.5t-485 -128.5h-716l152 1085h-275l49 349h777zM1125 497q14 102 -52 142t-274 47l-51 -358h184q74 0 128 45.5t65 123.5z" glyph-name="afii10044" horiz-adv-x="1683" unicode="Ъ"/><glyph d="M764 0h-717l202 1434h502l-59 -420q185 -6 318.5 -26t232 -57.5t153.5 -97t74.5 -142t4.5 -194.5q-34 -240 -226 -368.5t-485 -128.5zM2029 0h-502l202 1434h501zM646 686l-51 -358h184q74 0 128.5 45.5t65.5 123.5q14 102 -52.5 142t-274.5 47z" glyph-name="afii10045" horiz-adv-x="2227" unicode="Ы"/><glyph d="M764 0h-717l202 1434h502l-59 -420q185 -6 318.5 -26t232 -57.5t153.5 -97t74.5 -142t4.5 -194.5q-34 -240 -226 -368.5t-485 -128.5zM646 686l-51 -358h184q74 0 128.5 45.5t65.5 123.5q14 102 -52.5 142t-274.5 47z" glyph-name="afii10046" horiz-adv-x="1530" unicode="Ь"/><glyph d="M716 1454q105 0 202 -21t181 -63t150.5 -104t110 -144t59.5 -183.5t-1 -221.5q-19 -140 -79.5 -260.5t-149 -207t-199 -148t-232.5 -91.5t-249 -30q-203 0 -376 47l49 350q200 -72 378 -49q104 9 186 70t128 165h-541l43 307h542q-16 104 -81.5 165.5t-166.5 70.5 q-172 23 -391 -49l49 350q185 47 388 47z" glyph-name="afii10047" horiz-adv-x="1454" unicode="Э"/><glyph d="M1811 1454q126 0 240 -30t207 -91.5t157 -147.5t90.5 -207t7.5 -261q-19 -144 -80.5 -266t-150.5 -208t-200.5 -146t-232 -88.5t-245.5 -28.5q-109 0 -209 22t-187.5 67.5t-153.5 111.5t-107.5 158.5t-49.5 203.5h-271l-77 -543h-502l202 1434h502l-77 -543h273 q65 178 202 308t307 192.5t355 62.5zM2011 717q25 175 -44 282t-205 107q-135 0 -233 -107t-123 -282q-25 -176 40.5 -282.5t206.5 -106.5t237 106.5t121 282.5z" glyph-name="afii10048" horiz-adv-x="2548" unicode="Ю"/><glyph d="M920 1434h716l-201 -1434h-502l58 420q-92 3 -186 11l-318 -431h-501l392 532q-109 59 -149.5 157.5t-19.5 247.5q34 240 226 368.5t485 128.5zM1037 748l52 358h-185q-74 0 -128 -45.5t-65 -123.5q-14 -102 52 -142t274 -47z" glyph-name="afii10049" horiz-adv-x="1633" unicode="Я"/><glyph d="M712 1096q153 0 264 -33.5t171.5 -91t84.5 -129t13 -154.5l-97 -689h-440l-7 98q-98 -68 -199.5 -96.5t-229.5 -20.5q-130 8 -196 85t-64 173q2 80 29 149.5t83.5 132.5t145.5 101t216 55t295 -5l4 26q5 40 -45 72.5t-124 39.5q-165 15 -414 -78l39 280q225 85 471 85z M731 314l22 154q-135 31 -223 -17.5t-86 -127.5q1 -39 33 -58t82 -14q89 8 172 63z" glyph-name="afii10065" horiz-adv-x="1305" unicode="а"/><glyph d="M764 990q96 0 184.5 -18.5t165 -59.5t129 -98.5t75.5 -142t8 -186.5q-19 -128 -90.5 -227.5t-174 -158t-218 -88t-237.5 -29.5q-96 0 -183.5 17.5t-164.5 57t-130 97t-76.5 143t-7.5 188.5q37 265 107.5 452.5t175 301t235 164.5t298.5 51q250 0 453 51l5 -304 q-137 -33 -243 -42t-258 -9q-72 0 -122 -43t-86 -129q77 12 155 12zM865 485q15 102 -17 169.5t-126 67.5q-49 0 -88.5 -19.5t-64.5 -54t-41 -74.5t-23 -89q-7 -61 -1.5 -113.5t43 -87t101.5 -34.5q94 0 148 67t69 168z" glyph-name="afii10066" horiz-adv-x="1384" unicode="б"/><glyph d="M158 1075h811q194 0 302 -71t90 -203q-9 -67 -57.5 -130.5t-113.5 -86.5q100 -30 142.5 -98.5t28.5 -170.5q-15 -105 -99.5 -177.5t-208.5 -105t-280 -32.5h-767zM586 841l-27 -185h158q77 0 118.5 20.5t48.5 69.5q7 55 -25 75t-116 20h-157zM683 226q162 -3 178 106 q15 98 -146 98h-188l-27 -201z" glyph-name="afii10067" horiz-adv-x="1442" unicode="в"/><glyph d="M982 1075l-43 -307h-364l-108 -768h-461l152 1075h824z" glyph-name="afii10068" horiz-adv-x="926" unicode="г"/><glyph d="M1489 1075l-109 -768h87l-70 -507h-461l28 200h-497l-28 -200h-461l28 200l43 307h23q100 3 145.5 64.5t66.5 206.5l70 497h1135zM690 307h230l65 461h-213l-47 -333q-8 -63 -35 -128z" glyph-name="afii10069" horiz-adv-x="1582" unicode="д"/><glyph d="M751 1096q139 0 244 -35t167 -97t89.5 -147.5t19 -187.5t-51.5 -214h-720q26 -78 112 -110t232 -35q154 -3 295 49l-41 -294q-159 -45 -427 -45q-143 0 -262 33.5t-207 100t-128.5 175t-21.5 249.5q15 112 63 205.5t116 157.5t154 109t178.5 65.5t188.5 20.5zM877 671 q24 63 -16.5 107.5t-118.5 40.5q-141 -7 -212 -148h347z" glyph-name="afii10070" horiz-adv-x="1309" unicode="е"/><glyph d="M2140 1075l-404 -514l253 -561h-490l-222 494l-70 -494h-461l70 496l-362 -496h-489l411 561l-259 514h488l229 -453l64 453h461l-64 -451l356 451h489z" glyph-name="afii10072" horiz-adv-x="2105" unicode="ж"/><glyph d="M581 217q72 0 108 29t42 73q6 45 -22 74.5t-100 29.5h-167l31 231h169q66 0 99 29.5t39 73.5q6 45 -19 73.5t-90 28.5t-98 -28.5t-39 -73.5l-392 15q23 160 172.5 239.5t388.5 79.5q241 0 368 -79.5t105 -239.5q-17 -138 -133 -221q146 -89 125 -247 q-23 -163 -185 -240.5t-435.5 -77.5t-412.5 77.5t-117 240.5l442 15q-6 -42 22 -72t99 -30z" glyph-name="afii10073" horiz-adv-x="1252" unicode="з"/><glyph d="M618 1075l-65 -465l432 465h439l-151 -1075h-460l67 480l-434 -480h-440l152 1075h460z" glyph-name="afii10074" horiz-adv-x="1430" unicode="и"/><glyph d="M1234 1485q-53 -145 -166 -226t-262 -81q-151 0 -241.5 80.5t-101.5 226.5h266q7 -97 107 -97q48 0 81.5 26.5t50.5 70.5h266zM618 1075l-65 -465l432 465h439l-151 -1075h-460l67 480l-434 -480h-440l152 1075h460z" glyph-name="afii10075" horiz-adv-x="1430" unicode="й"/><glyph d="M1490 1075l-488 -514l336 -561h-505l-296 495l-70 -495h-461l152 1075h460l-63 -452l429 452h506z" glyph-name="afii10076" horiz-adv-x="1455" unicode="к"/><glyph d="M1458 1075l-151 -1075h-461l108 768h-213l-47 -333q-13 -98 -61 -181t-118.5 -138.5t-159 -91t-184.5 -39.5t-196 15l43 307q113 -3 163 58t72 213l71 497h1134z" glyph-name="afii10077" horiz-adv-x="1464" unicode="л"/><glyph d="M1190 1075h656l-151 -1075h-461l79 559l-230 -468h-440l-97 468l-79 -559h-461l152 1075h656l109 -562z" glyph-name="afii10078" horiz-adv-x="1852" unicode="м"/><glyph d="M956 1075h461l-151 -1075h-461l54 384h-338l-54 -384h-461l152 1075h460l-54 -384h338z" glyph-name="afii10079" horiz-adv-x="1423" unicode="н"/><glyph d="M1333 538q-15 -115 -65 -210t-121.5 -158.5t-161 -107.5t-182.5 -63t-189.5 -19t-184 19t-164.5 63t-130 107.5t-76.5 158.5t-7.5 210q15 112 65 205.5t121 157.5t160 109t183.5 65.5t190.5 20.5t184.5 -20.5t165 -65.5t129.5 -109t75.5 -157.5t7.5 -205.5zM655 276 q94 0 148 75t69 187q9 50 4.5 97t-18 83.5t-47 58.5t-82.5 22t-88.5 -21.5t-64.5 -59.5t-41 -83t-23 -97q-7 -69 -1.5 -127t42.5 -96.5t102 -38.5z" glyph-name="afii10080" horiz-adv-x="1384" unicode="о"/><glyph d="M1366 1075l-152 -1075h-460l108 768h-287l-108 -768h-461l152 1075h1208z" glyph-name="afii10081" unicode="п"/><glyph d="M1364 538q-19 -141 -75.5 -249.5t-140.5 -175t-187.5 -100t-224.5 -33.5q-80 0 -152 21t-108 59l-74 -521h-460l216 1536h369l8 -90q71 60 168.5 85.5t190.5 25.5q95 0 174 -20t142.5 -62.5t102.5 -108.5t54 -157t-3 -210zM760 799q-106 0 -193 -90l-53 -383 q69 -59 171 -60q95 0 148 76t70 196q7 69 1.5 126.5t-42.5 96t-102 38.5z" glyph-name="afii10082" horiz-adv-x="1415" unicode="р"/><glyph d="M1089 756q-61 27 -143 39t-163 4q-115 -12 -186 -84.5t-85 -177t36 -176.5t162 -85q164 -16 317 43l-41 -294q-159 -45 -373 -45q-96 0 -184.5 20t-165 65.5t-129 109.5t-75.5 157.5t-7.5 205t65 205.5t120.5 158t160 109t183.5 65.5t190.5 20.5q212 0 358 -45z" glyph-name="afii10083" horiz-adv-x="1108" unicode="с"/><glyph d="M1274 1075l-43 -307h-364l-108 -768h-461l109 768h-364l43 307h1188z" glyph-name="afii10084" horiz-adv-x="1208" unicode="т"/><glyph d="M1009 1075h486l-586 -1050q-274 -488 -869 -424l20 285q134 -29 211 4t99 135l-253 1050h489l96 -641z" glyph-name="afii10085" horiz-adv-x="1460" unicode="у"/><glyph d="M937 1092q120 -11 221.5 -50.5t177.5 -106t111 -168.5t14 -229q-15 -102 -60.5 -189.5t-111 -149t-149.5 -107t-173 -71t-186 -35.5l-22 -165h-205l23 163q-120 11 -220.5 48.5t-178 103t-112.5 169t-15 233.5q15 100 61 185.5t111.5 148t149 108.5t173 72.5t185.5 37.5 l24 164h204zM954 538q28 177 -62 236l-66 -468q102 63 128 232zM558 538q-28 -176 64 -237l65 469q-103 -61 -129 -232z" glyph-name="afii10086" horiz-adv-x="1512" unicode="ф"/><glyph d="M1397 1075l-395 -507l243 -568h-475l-124 291l-206 -291h-475l403 568l-251 507h475l128 -259l202 259h475z" glyph-name="afii10087" horiz-adv-x="1361" unicode="х"/><glyph d="M1298 307h164l-65 -471h-461l22 164h-911l152 1075h460l-108 -768h287l108 768h461z" glyph-name="afii10088" horiz-adv-x="1546" unicode="ц"/><glyph d="M848 1075h461l-152 -1075h-461l49 350q-135 -122 -349 -122q-179 0 -258 75.5t-56 235.5l76 536h460l-40 -291q-15 -81 -5 -122.5t61 -41.5q38 0 81 20t80 57z" glyph-name="afii10089" horiz-adv-x="1314" unicode="ч"/><glyph d="M1550 1075h461l-151 -1075h-1854l152 1075h460l-108 -768h235l109 768h461l-109 -768h236z" glyph-name="afii10090" horiz-adv-x="2017" unicode="ш"/><glyph d="M1903 307h163l-65 -471h-461l23 164h-1557l152 1075h460l-108 -768h235l109 768h461l-109 -768h236l108 768h461z" glyph-name="afii10091" horiz-adv-x="2150" unicode="щ"/><glyph d="M728 761q406 -11 558 -95.5t122 -292.5q-25 -182 -185.5 -277.5t-429.5 -95.5h-633l108 769h-184l43 307h644v-1h1zM955 373q11 77 -42 106.5t-220 35.5l-38 -269h148q59 0 101.5 34.5t50.5 92.5z" glyph-name="afii10092" horiz-adv-x="1482" unicode="ъ"/><glyph d="M639 0h-633l152 1075h460l-44 -314q406 -11 558 -95.5t122 -292.5q-25 -182 -185.5 -277.5t-429.5 -95.5zM1487 1075h461l-152 -1075h-461zM540 515l-38 -269h147q59 0 102 34t51 93q11 77 -42 106.5t-220 35.5z" glyph-name="afii10093" horiz-adv-x="1953" unicode="ы"/><glyph d="M639 0h-633l152 1075h460l-44 -314q406 -11 558 -95.5t122 -292.5q-25 -182 -185.5 -277.5t-429.5 -95.5zM540 515l-38 -269h147q59 0 102 34t51 93q11 77 -42 106.5t-220 35.5z" glyph-name="afii10094" horiz-adv-x="1329" unicode="ь"/><glyph d="M567 1096q96 0 185 -20.5t165 -65.5t129 -109t76.5 -158t8 -205.5t-65 -205t-121 -157.5t-160.5 -109.5t-183 -65.5t-190 -20q-213 0 -360 45l42 294q136 -60 305 -43q130 13 206 108h-380l43 307h381q-50 94 -177 108q-164 17 -317 -43l42 295q159 45 371 45z" glyph-name="afii10095" horiz-adv-x="1181" unicode="э"/><glyph d="M1449 1096q96 0 184.5 -20.5t165 -65.5t129 -109t75.5 -158t8 -205q-15 -115 -65.5 -210t-121.5 -158.5t-160.5 -107.5t-182.5 -63t-190 -19q-100 0 -191.5 22.5t-170 67.5t-131.5 120.5t-69 173.5h-211l-51 -364h-461l152 1075h460l-51 -363h212q43 95 117.5 170 t164.5 121t188.5 69.5t199.5 23.5zM1550 538q9 50 4.5 97t-18 83.5t-47 58.5t-82.5 22t-88.5 -21.5t-64.5 -59.5t-41 -83t-23 -97q-7 -69 -1.5 -127t43 -96.5t101.5 -38.5q94 0 148 75t69 187z" glyph-name="afii10096" horiz-adv-x="2062" unicode="ю"/><glyph d="M803 1075h633l-152 -1075h-461l45 315q-57 1 -150 8l-251 -323h-461l313 402q-89 44 -122 117t-18 183q26 182 188 277.5t436 95.5zM902 561l38 268h-147q-59 0 -102 -34t-51 -93q-11 -77 42.5 -106.5t219.5 -34.5z" glyph-name="afii10097" horiz-adv-x="1441" unicode="я"/><glyph d="M761 1476l-42 -298h-398l41 298h399zM1245 1476l-42 -298h-397l42 298h397zM751 1096q139 0 244 -35t167 -97t89.5 -147.5t19 -187.5t-51.5 -214h-720q26 -78 112 -110t232 -35q154 -3 295 49l-41 -294q-159 -45 -427 -45q-143 0 -262 33.5t-207 100t-128.5 175 t-21.5 249.5q15 112 63 205.5t116 157.5t154 109t178.5 65.5t188.5 20.5zM877 671q24 63 -16.5 107.5t-118.5 40.5q-141 -7 -212 -148h347z" glyph-name="afii10071" horiz-adv-x="1309" unicode="ё"/><glyph d="M1062 1486l-309 -307h-338l224 307h423zM982 1075l-43 -307h-364l-108 -768h-461l152 1075h824z" glyph-name="afii10100" horiz-adv-x="926" unicode="ѓ"/><glyph d="M223 1434h512l-40 -281h-512zM659 1075l-156 -1111q-11 -82 -46.5 -142.5t-81.5 -94t-110.5 -53t-121 -25t-127.5 -4.5q-150 2 -229 55l36 178q105 -25 165 2q29 13 40.5 39t18.5 80l152 1076h460z" glyph-name="afii10105" horiz-adv-x="706" unicode="ј"/><glyph d="M1276 1486l-309 -307h-338l224 307h423zM1490 1075l-488 -514l336 -561h-505l-296 495l-70 -495h-461l152 1075h460l-63 -452l429 452h506z" glyph-name="afii10109" horiz-adv-x="1455" unicode="ќ"/><glyph d="M249 1434h883q194 0 299 -95.5t80 -271.5q-13 -88 -64 -173t-117 -116q197 -78 158 -357q-19 -141 -107.5 -238t-214 -140t-280.5 -43h-839zM707 1121l-35 -247h188q77 0 119.5 28t51.5 93q10 74 -21 100t-115 26h-188zM807 302q161 -3 182 140q10 68 -25 99.5t-116 31.5 h-218l-38 -267zM488 -102h399l-42 -298h-399z" glyph-name="uni1E04" horiz-adv-x="1565" unicode="Ḅ"/><glyph d="M1364 538q-19 -144 -76 -253.5t-141.5 -175t-187.5 -97.5t-223 -32q-93 0 -183.5 25t-142.5 85l-34 -90h-370l216 1536h461l-74 -521q48 39 126.5 60t158.5 21q121 0 214.5 -34t158.5 -100.5t90.5 -174.5t6.5 -249zM686 276q94 0 148 75t69 187q8 74 2.5 134t-43 98.5 t-101.5 38.5q-102 0 -188 -59l-53 -383q61 -91 166 -91zM397 -102h399l-42 -298h-399z" glyph-name="uni1E05" horiz-adv-x="1415" unicode="ḅ"/><glyph d="M1609 717q-19 -145 -74 -264.5t-134 -202.5t-181.5 -140t-216.5 -83.5t-239 -26.5h-717l202 1434h717q159 0 286 -45.5t216.5 -132.5t127.5 -225t13 -314zM762 348q96 0 171.5 53.5t117.5 134.5t56 181q13 98 -8 180.5t-81.5 135t-152.5 52.5h-164l-103 -737h164z M517 -102h398l-42 -298h-398z" glyph-name="uni1E0C" horiz-adv-x="1644" unicode="Ḍ"/><glyph d="M51 538q19 141 75.5 249t140.5 174.5t187.5 100.5t224.5 34q80 0 152 -21t108 -60l74 521h461l-217 -1536h-369l-7 90q-71 -60 -169 -85t-191 -25q-95 0 -174 19.5t-142.5 62t-102.5 109t-54 157.5t3 210zM655 276q106 0 193 91l53 383q-69 59 -171 59q-95 0 -148 -76 t-70 -195q-7 -69 -1.5 -127t42.5 -96.5t102 -38.5zM438 -102h399l-42 -298h-399z" glyph-name="uni1E0D" horiz-adv-x="1415" unicode="ḍ"/><glyph d="M1191 1434h502l-202 -1434h-502l77 543h-440l-77 -543h-502l202 1434h502l-77 -543h440zM555 -102h398l-42 -298h-398z" glyph-name="uni1E24" horiz-adv-x="1689" unicode="Ḥ"/><glyph d="M467 0h-461l216 1536h461l-85 -603q170 163 439 163q194 0 249.5 -94t24.5 -321l-97 -681h-460l79 558q19 108 6 164t-75 56q-48 0 -102 -27t-100 -76zM360 -102h399l-42 -298h-399z" glyph-name="uni1E25" unicode="ḥ"/><glyph d="M751 1434l-153 -1086h635l-49 -348h-1137l202 1434h502zM412 -102h398l-42 -298h-398z" glyph-name="uni1E36" horiz-adv-x="1310" unicode="Ḷ"/><glyph d="M222 1536h461l-216 -1536h-461zM23 -102h398l-42 -298h-398z" glyph-name="uni1E37" horiz-adv-x="624" unicode="ḷ"/><glyph d="M1687 1844l-310 -307h-338l225 307h423zM1445 1434h694l-202 -1434h-501l112 797l-313 -675h-451l-122 675l-113 -797h-502l202 1434h694l146 -750z" glyph-name="uni1E3E" horiz-adv-x="2136" unicode="Ḿ"/><glyph d="M1592 1486l-309 -307h-338l224 307h423zM1739 1096q201 0 272 -125t30 -413l-79 -558h-461l79 558q15 113 -4.5 166.5t-84.5 53.5q-80 0 -131 -53.5t-64 -145.5v1l-3 -22l-79 -558h-460l79 558q15 113 -4.5 166.5t-85.5 53.5q-80 0 -131 -53.5t-63 -145.5l-82 -579h-461 l152 1075h460l-20 -142q93 89 180 126t213 37q132 0 206.5 -52t98.5 -163q176 215 443 215z" glyph-name="uni1E3F" horiz-adv-x="2119" unicode="ḿ"/><glyph d="M838 1834h398l-42 -298h-398zM1211 1434h502l-202 -1434h-501l-363 694l-98 -694h-502l202 1434h502l365 -675z" glyph-name="uni1E44" horiz-adv-x="1710" unicode="Ṅ"/><glyph d="M618 1476h399l-42 -298h-398zM467 0h-461l152 1075h460l-20 -142q170 163 439 163q194 0 249.5 -94t24.5 -321l-97 -681h-460l79 558q19 108 6 164t-75 56q-48 0 -102 -27t-100 -76z" glyph-name="uni1E45" unicode="ṅ"/><glyph d="M1211 1434h502l-202 -1434h-501l-363 694l-98 -694h-502l202 1434h502l365 -675zM565 -102h399l-42 -298h-399z" glyph-name="uni1E46" horiz-adv-x="1710" unicode="Ṇ"/><glyph d="M467 0h-461l152 1075h460l-20 -142q170 163 439 163q194 0 249.5 -94t24.5 -321l-97 -681h-460l79 558q19 108 6 164t-75 56q-48 0 -102 -27t-100 -76zM396 -102h399l-42 -298h-399z" glyph-name="uni1E47" unicode="ṇ"/><glyph d="M78 465q244 -137 457 -137q216 0 230 98q5 38 -41.5 66t-109 42.5t-144 35.5t-122.5 41q-134 67 -189.5 172t-23.5 270q35 180 219.5 291t476.5 111q251 0 432 -97l-54 -377q-114 71 -211 99.5t-216 26.5q-52 -1 -101 -20t-60 -59q-7 -27 4.5 -48t34.5 -34.5t60 -26.5 t71 -21t78 -19.5t73 -21.5q58 -20 107.5 -49t93 -71t68.5 -93t35 -117t-7 -144q-17 -93 -70.5 -165.5t-125 -116.5t-167.5 -72t-190 -38.5t-201 -10.5q-119 0 -244 28t-216 79zM273 -102h399l-42 -298h-399z" glyph-name="uni1E62" horiz-adv-x="1323" unicode="Ṣ"/><glyph d="M73 342q133 -80 325 -98q68 -7 120 10.5t71 54.5q7 15 -1 28t-32.5 23.5t-49 18t-63.5 18.5q-32 8 -48 14q-188 51 -260.5 136.5t-50.5 224.5q17 110 105.5 184.5t214.5 107t285 32.5q112 0 216.5 -19.5t166.5 -55.5l-40 -286q-143 86 -334 96q-54 0 -97 -14t-51 -45 q-8 -32 58 -60q20 -8 187 -62q5 -2 11 -4q73 -24 119.5 -48t81.5 -59.5t46.5 -86t0.5 -117.5q-14 -92 -70.5 -162.5t-141 -112t-184 -61t-211.5 -19.5q-118 0 -236.5 21t-177.5 57zM287 -102h398l-42 -298h-398z" glyph-name="uni1E63" horiz-adv-x="1133" unicode="ṣ"/><glyph d="M1365 1434l-49 -349h-364l-152 -1085h-502l153 1085h-364l49 349h1229zM293 -400l42 298h398l-42 -298h-398z" glyph-name="uni1E6C" horiz-adv-x="1249" unicode="Ṭ"/><glyph d="M855 0h-475q-101 0 -162 70.5t-47 171.5l75 526h-162l43 307h162l28 205h461l-28 -205h257l-43 -307h-257l-56 -389q-6 -44 15.5 -68t65.5 -24h164zM253 -102h398l-42 -298h-398z" glyph-name="uni1E6D" horiz-adv-x="1012" unicode="ṭ"/><glyph d="M897 1844h423l138 -307h-338zM1890 1434h524l-584 -1434h-536l-100 859l-342 -859h-536l-180 1434h523l37 -795l289 795h580l65 -795z" glyph-name="Wgrave" horiz-adv-x="2297" unicode="Ẁ"/><glyph d="M761 1486h423l138 -307h-338zM1674 1075h486l-467 -1075h-541l-78 634l-253 -634h-540l-164 1075h485l73 -607l223 607h480l72 -607z" glyph-name="wgrave" horiz-adv-x="2124" unicode="ẁ"/><glyph d="M1767 1844l-309 -307h-338l225 307h422zM1890 1434h524l-584 -1434h-536l-100 859l-342 -859h-536l-180 1434h523l37 -795l289 795h580l65 -795z" glyph-name="Wacute" horiz-adv-x="2297" unicode="Ẃ"/><glyph d="M1631 1486l-309 -307h-338l224 307h423zM1674 1075h486l-467 -1075h-541l-78 634l-253 -634h-540l-164 1075h485l73 -607l223 607h480l72 -607z" glyph-name="wacute" horiz-adv-x="2124" unicode="ẃ"/><glyph d="M890 1834h398l-42 -298h-398zM1375 1834h398l-42 -298h-398zM1890 1434h524l-584 -1434h-536l-100 859l-342 -859h-536l-180 1434h523l37 -795l289 795h580l65 -795z" glyph-name="Wdieresis" horiz-adv-x="2297" unicode="Ẅ"/><glyph d="M754 1476h398l-42 -298h-398zM1239 1476h397l-42 -298h-397zM1674 1075h486l-467 -1075h-541l-78 634l-253 -634h-540l-164 1075h485l73 -607l223 607h480l72 -607z" glyph-name="wdieresis" horiz-adv-x="2124" unicode="ẅ"/><glyph d="M1478 1434l-50 -349l-707 -737h604l-49 -348h-1229l49 348l698 737h-594l49 349h1229zM406 -400l41 298h399l-42 -298h-398z" glyph-name="uni1E92" horiz-adv-x="1474" unicode="Ẓ"/><glyph d="M1199 1075l-42 -307l-570 -461h505l-44 -307h-1073l43 307l570 461h-504l43 307h1072zM256 -400l42 298h398l-42 -298h-398z" glyph-name="uni1E93" horiz-adv-x="1175" unicode="ẓ"/><glyph d="M1651 0h-529l-40 233h-524l-105 -233h-529l717 1434h696zM716 582h307l-85 493zM531 -400l42 298h399l-42 -298h-399z" glyph-name="uni1EA0" horiz-adv-x="1726" unicode="Ạ"/><glyph d="M712 1096q153 0 264 -33.5t171.5 -91t84.5 -129t13 -154.5l-97 -689h-440l-7 98q-98 -68 -199.5 -96.5t-229.5 -20.5q-130 8 -196 85t-64 173q2 80 29 149.5t83.5 132.5t145.5 101t216 55t295 -5l4 26q5 40 -45 72.5t-124 39.5q-165 15 -414 -78l39 280q225 85 471 85z M731 314l22 154q-135 31 -223 -17.5t-86 -127.5q1 -39 33 -58t82 -14q89 8 172 63zM348 -102h398l-41 -298h-399z" glyph-name="uni1EA1" horiz-adv-x="1305" unicode="ạ"/><glyph d="M598 348h686l-49 -348h-1188l202 1434h1188l-49 -349h-687l-27 -194h594l-48 -348h-594zM427 -102h398l-42 -298h-398z" glyph-name="uni1EB8" horiz-adv-x="1433" unicode="Ẹ"/><glyph d="M751 1096q139 0 244 -35t167 -97t89.5 -147.5t19 -187.5t-51.5 -214h-720q26 -78 112 -110t232 -35q154 -3 295 49l-41 -294q-159 -45 -427 -45q-143 0 -262 33.5t-207 100t-128.5 175t-21.5 249.5q15 112 63 205.5t116 157.5t154 109t178.5 65.5t188.5 20.5zM877 671 q24 63 -16.5 107.5t-118.5 40.5q-141 -7 -212 -148h347zM408 -400l42 298h398l-42 -298h-398z" glyph-name="uni1EB9" horiz-adv-x="1309" unicode="ẹ"/><glyph d="M456 1536q10 78 37.5 136.5t66 92t81.5 50t89 16.5q63 0 155.5 -33t130.5 -33q54 0 66 66h217q-10 -78 -37.5 -136.5t-66 -92t-81.5 -50t-89 -16.5q-62 0 -154.5 33t-131.5 33q-54 0 -66 -66h-217zM598 348h686l-49 -348h-1188l202 1434h1188l-49 -349h-687l-27 -194h594 l-48 -348h-594z" glyph-name="uni1EBC" horiz-adv-x="1433" unicode="Ẽ"/><glyph d="M644 1243q-54 0 -66 -65h-218q10 78 38 136t66.5 92t81.5 50.5t89 16.5q63 0 155.5 -33t130.5 -33q54 0 66 66h217q-10 -78 -37.5 -136.5t-66 -92.5t-81.5 -50t-89 -16q-62 0 -154.5 32.5t-131.5 32.5zM751 1096q139 0 244 -35t167 -97t89.5 -147.5t19 -187.5t-51.5 -214 h-720q26 -78 112 -110t232 -35q154 -3 295 49l-41 -294q-159 -45 -427 -45q-143 0 -262 33.5t-207 100t-128.5 175t-21.5 249.5q15 112 63 205.5t116 157.5t154 109t178.5 65.5t188.5 20.5zM877 671q24 63 -16.5 107.5t-118.5 40.5q-141 -7 -212 -148h347z" glyph-name="uni1EBD" horiz-adv-x="1309" unicode="ẽ"/><glyph d="M549 0h-502l202 1434h502zM84 -102h398l-42 -298h-398z" glyph-name="uni1ECA" horiz-adv-x="747" unicode="Ị"/><glyph d="M223 1434h512l-40 -281h-512zM199 1075h460l-151 -1075h-461zM63 -102h399l-42 -298h-398z" glyph-name="uni1ECB" horiz-adv-x="706" unicode="ị"/><glyph d="M1696 717q-19 -144 -81 -266t-150.5 -208t-200 -146t-232.5 -88.5t-245.5 -28.5t-237 28.5t-206.5 88.5t-158 146t-91 207.5t-7 266.5q19 140 79.5 261t148.5 207t199 147.5t232.5 91.5t247.5 30t240 -30t207 -91.5t157 -147.5t90.5 -207t7.5 -261zM836 328 q141 0 237 106.5t121 282.5q25 175 -44 282t-205 107q-135 0 -233.5 -107t-122.5 -282q-25 -176 41 -282.5t206 -106.5zM577 -102h398l-42 -298h-398z" glyph-name="uni1ECC" horiz-adv-x="1731" unicode="Ọ"/><glyph d="M1333 538q-15 -115 -65 -210t-121.5 -158.5t-161 -107.5t-182.5 -63t-189.5 -19t-184 19t-164.5 63t-130 107.5t-76.5 158.5t-7.5 210q15 112 65 205.5t121 157.5t160 109t183.5 65.5t190.5 20.5t184.5 -20.5t165 -65.5t129.5 -109t75.5 -157.5t7.5 -205.5zM655 276 q94 0 148 75t69 187q9 50 4.5 97t-18 83.5t-47 58.5t-82.5 22t-88.5 -21.5t-64.5 -59.5t-41 -83t-23 -97q-7 -69 -1.5 -127t42.5 -96.5t102 -38.5zM402 -102h399l-42 -298h-399z" glyph-name="uni1ECD" horiz-adv-x="1384" unicode="ọ"/><glyph d="M1653 1434l-113 -799q-25 -182 -91 -310.5t-170.5 -203.5t-235 -108t-298.5 -33q-111 0 -199.5 14t-165 45.5t-127.5 82t-85.5 123t-40 169.5t8.5 221l113 799h502l-125 -891q-13 -93 31 -154t138 -61t156 61t75 154l125 891h502zM536 -102h398l-42 -298h-398z" glyph-name="uni1EE4" horiz-adv-x="1649" unicode="Ụ"/><glyph d="M905 1075h461l-152 -1075h-460l20 142q-170 -163 -439 -162q-194 0 -249.5 93.5t-24.5 320.5l97 681h460l-78 -558q-19 -108 -6.5 -164t74.5 -56q48 0 102 27t100 76zM401 -102h399l-42 -298h-399z" glyph-name="uni1EE5" unicode="ụ"/><glyph d="M509 1844h423l138 -307h-338zM1110 1434h527l-638 -983l-63 -451h-502l64 451l-362 983h531l148 -512z" glyph-name="Ygrave" horiz-adv-x="1521" unicode="Ỳ"/><glyph d="M428 1486h423l138 -307h-338zM1009 1075h486l-586 -1050q-274 -488 -869 -424l20 285q134 -29 211 4t99 135l-253 1050h489l96 -641z" glyph-name="ygrave" horiz-adv-x="1460" unicode="ỳ"/><glyph d="M1110 1434h527l-638 -983l-63 -451h-502l64 451l-362 983h531l148 -512zM471 -102h398l-42 -298h-398z" glyph-name="uni1EF4" horiz-adv-x="1521" unicode="Ỵ"/><glyph d="M1009 1075h486l-586 -1050q-274 -488 -869 -424l20 285q134 -29 211 4t99 135l-253 1050h489l96 -641zM1104 -27h372l-40 -301h-372z" glyph-name="uni1EF5" horiz-adv-x="1542" unicode="ỵ"/><glyph d="M500 1536q10 78 37.5 136.5t66 92t81.5 50t89 16.5q63 0 155.5 -33t130.5 -33q54 0 66 66h217q-10 -78 -37.5 -136.5t-66 -92t-81.5 -50t-89 -16.5q-62 0 -154.5 33t-131.5 33q-54 0 -66 -66h-217zM1110 1434h527l-638 -983l-63 -451h-502l64 451l-362 983h531l148 -512z " glyph-name="uni1EF8" horiz-adv-x="1521" unicode="Ỹ"/><glyph d="M419 1178q10 78 37.5 136t66 92t81.5 50.5t89 16.5q63 0 155.5 -33t130.5 -33q54 0 67 66h217q-10 -78 -38 -136.5t-66.5 -92.5t-81.5 -50t-89 -16q-62 0 -154.5 32.5t-131.5 32.5q-54 0 -66 -65h-217zM1009 1075h486l-586 -1050q-274 -488 -869 -424l20 285 q134 -29 211 4t99 135l-253 1050h489l96 -641z" glyph-name="uni1EF9" horiz-adv-x="1460" unicode="ỹ"/><glyph d="M147 712h1024l-49 -348h-1024z" glyph-name="endash" horiz-adv-x="1269" unicode="–"/><glyph d="M147 712h1434l-49 -348h-1434z" glyph-name="emdash" horiz-adv-x="1679" unicode="—"/><glyph d="M632 882h-461l246 654h409z" glyph-name="quoteleft" horiz-adv-x="808" unicode="‘"/><glyph d="M370 1536h460l-245 -654h-410z" glyph-name="quoteright" horiz-adv-x="808" unicode="’"/><glyph d="M98 364h461l-246 -655h-409z" glyph-name="quotesinglbase" horiz-adv-x="706" unicode="‚"/><glyph d="M632 883h-461l246 654h409zM1252 883h-460l245 654h410z" glyph-name="quotedblleft" horiz-adv-x="1429" unicode="“"/><glyph d="M366 1536h460l-245 -654h-410zM986 1536h461l-246 -654h-409z" glyph-name="quotedblright" horiz-adv-x="1429" unicode="”"/><glyph d="M94 332h461l-246 -655h-409zM715 332h461l-246 -655h-410z" glyph-name="quotedblbase" horiz-adv-x="1327" unicode="„"/><glyph d="M1089 1362l-43 -307h-246l-55 -389h-358l54 389h-245l43 307h245l25 174h358l-24 -174h246z" glyph-name="dagger" horiz-adv-x="1095" unicode="†"/><glyph d="M1046 1055h-246l-35 -246h246l-43 -307h-246l-25 -174h-358l25 174h-246l43 307h246l34 246h-245l43 307h245l25 174h358l-24 -174h246z" glyph-name="daggerdbl" horiz-adv-x="1095" unicode="‡"/><glyph d="M166 845h717l-86 -615h-717z" glyph-name="bullet" horiz-adv-x="962" unicode="•"/><glyph d="M101 383h512l-54 -383h-512zM716 383h512l-54 -383h-512zM1330 383h512l-54 -383h-512z" glyph-name="ellipsis" horiz-adv-x="1986" unicode="…"/><glyph d="M885 1001q-30 -216 -150 -329t-297 -113t-265 113t-57 329q30 213 149.5 328t296.5 115t265 -115t58 -328zM1374 1434h218l-967 -1434h-217zM466 762q33 0 57 19.5t39 56t24 74t16 89.5q34 240 -68 240q-101 0 -136 -240q-7 -62 -9.5 -115t16.5 -88.5t61 -35.5zM1864 430 q-30 -216 -150 -329t-297 -113t-265 113t-57 329q30 213 149.5 327.5t296.5 114.5t265 -114.5t58 -327.5zM2685 430q-30 -216 -149.5 -329t-297 -113t-265.5 113t-57 329q30 213 149.5 327.5t297 114.5t265 -114.5t57.5 -327.5zM1445 190q33 0 57 19.5t38.5 56.5t24 74.5 t16.5 89.5q34 240 -69 240q-101 0 -135 -240q-7 -62 -9.5 -115.5t16.5 -89t61 -35.5zM2266 190q33 0 57 19.5t39 56.5t24 74.5t16 89.5q34 240 -68 240q-101 0 -135 -240q-7 -62 -10 -115.5t16 -89t61 -35.5z" glyph-name="perthousand" horiz-adv-x="2751" unicode="‰"/><glyph d="M982 947l-391 -384l283 -384h-463l-284 384l391 384h464z" glyph-name="guilsinglleft" horiz-adv-x="1047" unicode="‹"/><glyph d="M180 947h464l285 -384l-392 -384h-464l392 384z" glyph-name="guilsinglright" horiz-adv-x="1047" unicode="›"/><glyph d="M656 1434q182 4 316 -39.5t205 -143t53 -244.5q-33 -283 -342 -393q-24 -8 -66 -15.5t-94 -16t-71 -11.5l-27 -192h-419l17 207l27 375h395l-3 -89q56 23 89 58t36 71q3 42 -47.5 63.5t-122.5 21.5q-109 3 -250.5 -31t-229.5 -84l55 391q112 37 219.5 53t259.5 19zM112 0 l40 281h512l-40 -281h-512z" glyph-name="uni203D" horiz-adv-x="1225" unicode="‽"/><glyph d="M891 1434h218l-968 -1434h-217z" glyph-name="fraction" horiz-adv-x="983" unicode="⁄"/><glyph d="M913 1206q-30 -216 -149.5 -329t-296.5 -113t-265 113t-58 329q30 213 150 328t297 115t264.5 -115t57.5 -328zM495 967q33 0 56.5 19.5t38.5 56t24.5 74t16.5 89.5q34 240 -69 240q-101 0 -135 -240q-7 -62 -9.5 -115.5t16.5 -88.5t61 -35z" glyph-name="uni2070" horiz-adv-x="871" unicode="⁰"/><glyph d="M942 1164l-29 -209h-123l-25 -177h-277l25 177h-402l28 209l428 474h319l-67 -474h123zM394 1164h149l30 217z" glyph-name="uni2074" horiz-adv-x="905" unicode="⁴"/><glyph d="M287 1638h642l-30 -208h-402l-23 -98q50 5 117.5 1t105.5 -14q106 -29 159.5 -102.5t37.5 -176.5q-23 -142 -136.5 -210t-282.5 -64q-124 3 -201.5 21t-177.5 68l134 189q43 -30 123.5 -50t148.5 -20q105 0 119 69q5 30 -32 57t-93 42t-109 15q-65 0 -143 -11l-40 60z " glyph-name="uni2075" horiz-adv-x="874" unicode="⁵"/><glyph d="M893 1058q-10 -74 -51.5 -132t-102.5 -91t-130 -50t-142 -17q-57 0 -110 10t-99.5 33t-79 56t-47.5 82t-7 109q4 27 9 45.5t20 46.5t30 49t51.5 67.5t70.5 87t102.5 124t132.5 160.5h325l-261 -322q89 19 155 -2q76 -24 111.5 -94t22.5 -162zM493 946q55 0 86 35t37 77 q6 41 -15.5 75.5t-77.5 34.5q-54 0 -85 -34.5t-38 -75.5q-3 -26 3 -49.5t29 -43t61 -19.5z" glyph-name="uni2076" horiz-adv-x="871" unicode="⁶"/><glyph d="M206 1638h670l-29 -208q-145 -154 -244 -309t-149 -343h-289q51 190 146.5 347t234.5 305h-369z" glyph-name="uni2077" horiz-adv-x="772" unicode="⁷"/><glyph d="M889 1022q-9 -66 -47 -115.5t-96.5 -79t-128 -44.5t-149.5 -15q-79 0 -144.5 15t-115.5 44.5t-73.5 79t-14.5 115.5q17 127 154 196q-73 68 -56 177q11 84 69.5 142.5t136.5 85t168 26.5q67 0 124 -15.5t101 -45.5t65.5 -80t12.5 -113q-14 -111 -107 -177 q118 -70 101 -196zM457 1382q-5 -36 15 -59t71 -23q98 0 110 82q4 36 -16 59t-71 23q-52 0 -78.5 -23t-30.5 -59zM495 952q56 0 85 23.5t33 58.5q5 36 -17 59t-79 23q-108 0 -120 -82q-5 -36 18 -59t80 -23z" glyph-name="uni2078" horiz-adv-x="871" unicode="⁸"/><glyph d="M166 1359q10 74 51.5 131.5t102.5 91t130 50.5t142 17t137 -17t115 -50.5t76 -91t15 -131.5q-4 -27 -8.5 -46t-20 -46.5t-30 -48t-52 -68t-70.5 -87t-102.5 -124t-132.5 -161.5h-325l262 323q-90 -19 -156 2q-76 24 -111 94t-23 162zM566.5 1470q-55.5 0 -86.5 -34.5 t-38 -76.5q-6 -41 16 -76t78 -35q54 0 85 35t37.5 76t-15 76t-77 35z" glyph-name="uni2079" horiz-adv-x="871" unicode="⁹"/><glyph d="M762 123q-30 -216 -149.5 -329t-297 -113t-265.5 113t-57 329q30 213 149.5 327.5t296.5 114.5t265 -114.5t58 -327.5zM343 -117q33 0 57 19.5t39 56.5t24 74.5t16 89.5q34 240 -68 239q-101 0 -136 -239q-7 -62 -9.5 -115.5t16.5 -89t61 -35.5z" glyph-name="uni2080" horiz-adv-x="871" unicode="₀"/><glyph d="M447 -98h209l-29 -209h-695l30 209h209l58 417q-87 -59 -171 -82l33 233q87 15 169 83h279z" glyph-name="uni2081" horiz-adv-x="796" unicode="₁"/><glyph d="M720 -98l-30 -209h-758l30 209q220 115 354 208t144 162q5 36 -15.5 60t-60.5 25q-130 2 -257 -63l-69 180q100 47 184.5 69.5t181.5 22.5q175 0 263.5 -66.5t73.5 -174.5q-8 -59 -36 -113t-60.5 -93.5t-87.5 -82t-96.5 -69t-106.5 -65.5h346z" glyph-name="uni2082" horiz-adv-x="860" unicode="₂"/><glyph d="M101 553h683l-29 -209l-249 -146q52 -9 94 -26q166 -65 139 -235q-20 -130 -134.5 -195.5t-281.5 -60.5q-124 3 -202 20.5t-177 68.5l134 189q44 -30 124.5 -51t146.5 -20q43 0 77 13.5t39 38.5q7 37 -32.5 66t-113.5 29q-99 0 -142 -6l-26 184l288 131h-367z" glyph-name="uni2083" horiz-adv-x="874" unicode="₃"/><glyph d="M790 79l-29 -209h-124l-25 -177h-276l24 177h-402l29 209l428 474h318l-66 -474h123zM242 79h148l31 217z" glyph-name="uni2084" horiz-adv-x="905" unicode="₄"/><glyph d="M134 553h642l-30 -209h-402l-22 -97q50 5 117.5 1t105.5 -15q106 -29 159.5 -102.5t36.5 -175.5q-23 -142 -136 -210.5t-282 -63.5q-124 3 -202 20.5t-177 68.5l134 189q43 -30 123.5 -50.5t147.5 -20.5q105 0 119 70q5 30 -32 57t-92.5 42t-109.5 15q-65 0 -143 -12 l-40 61z" glyph-name="uni2085" horiz-adv-x="874" unicode="₅"/><glyph d="M742 -15q-10 -74 -51.5 -132t-102.5 -91t-130 -50t-142 -17q-57 0 -109.5 10t-99.5 32.5t-79 56t-47.5 82.5t-7.5 109q4 27 9.5 45.5t20 46t29.5 48.5t52 68t70.5 87.5t102.5 123.5t132 161h326l-261 -322q89 19 154 -2q76 -24 111.5 -94t22.5 -162zM342 -127 q55 0 86.5 35t37.5 77q6 41 -16 75.5t-77 34.5q-54 0 -85.5 -34.5t-37.5 -75.5q-3 -26 2.5 -49.5t28.5 -43t61 -19.5z" glyph-name="uni2086" horiz-adv-x="871" unicode="₆"/><glyph d="M53 553h670l-29 -209q-145 -154 -244 -309t-149 -342h-289q51 190 146.5 347t234.5 304h-368z" glyph-name="uni2087" horiz-adv-x="772" unicode="₇"/><glyph d="M736 -65q-9 -66 -47 -115t-96 -79t-128 -44.5t-150 -14.5q-79 0 -144.5 14.5t-115.5 44.5t-73.5 79.5t-14.5 114.5q17 127 155 196q-73 68 -56 177q11 84 69.5 143t136 85t167.5 26q67 0 124.5 -15.5t101.5 -45.5t65.5 -79.5t11.5 -113.5q-14 -111 -106 -177 q117 -70 100 -196zM304 296q-5 -36 15 -59t71 -23q98 0 111 82q4 36 -16 59t-71 23q-52 0 -79 -23t-31 -59zM342 -134q56 0 85.5 23.5t33.5 58.5q5 36 -17 59t-79 23q-108 0 -120 -82q-5 -36 17.5 -59t79.5 -23z" glyph-name="uni2088" horiz-adv-x="871" unicode="₈"/><glyph d="M14 275q10 74 52 132t102.5 91t130 50t142 17t136.5 -17t115 -50t76.5 -91t14.5 -132q-4 -27 -8.5 -45.5t-20 -46t-29.5 -48t-51.5 -68.5t-71 -87t-103 -123.5t-131.5 -161.5h-326l262 322q-90 -19 -156 2q-76 24 -111 94t-23 162zM414.5 387q-55.5 0 -86.5 -35t-37 -77 q-6 -41 16 -75.5t77 -34.5q54 0 85.5 34.5t37.5 75.5t-15.5 76.5t-77 35.5z" glyph-name="uni2089" horiz-adv-x="871" unicode="₉"/><glyph d="M1092 1106q-170 -16 -268 -154h320l-29 -204h-375q-4 -20 -5 -31q0 -5 -1.5 -15.5t-2.5 -15.5h375l-29 -205h-319q60 -137 224 -153q172 -23 391 49l-49 -350q-185 -47 -389 -47q-175 0 -321 55.5t-248.5 171t-129.5 274.5h-193l29 205h157q0 5 2 15.5t2 15.5q1 10 6 31 h-158l29 204h191q73 160 208 275t297 171t337 56q204 0 375 -47l-50 -350q-198 72 -376 49z" glyph-name="Euro" horiz-adv-x="1518" unicode="€"/><glyph d="M249 1434h1229l-43 -308h-1229zM1418 1014l-43 -307h-363l-100 -707h-501l99 707h-364l43 307h1229z" glyph-name="uni20B8" horiz-adv-x="1474" unicode="₸"/><glyph d="M1167 1228h-186q55 -85 58 -200h100l-29 -205h-100q-65 -200 -258 -291l242 -532h-501l-197 431q-98 -8 -190 -11l47 328q138 5 214.5 22t114.5 54h-319l28 205h331q-34 77 -135 77h-184l46 328h215h25l707 -1z" glyph-name="uni20B9" horiz-adv-x="1192" unicode="₹"/><glyph d="M1016 800h412q-19 -140 -58 -259t-102.5 -220t-147.5 -171.5t-198 -110t-250 -39.5h-625l113 802l-124 -11l29 204l123 12l10 61l-125 -11l28 205l125 11l23 161h502l-17 -115l386 35l-28 -205l-386 -35l-9 -61l385 34l-28 -204l-386 -35l-66 -469h50q164 1 248.5 100 t115.5 321z" glyph-name="uni20BA" horiz-adv-x="1442" unicode="₺"/><glyph d="M1027 1246q94 -6 170 -25.5t140 -54t107 -85.5t70.5 -121.5t31 -161t-10.5 -204.5l-84 -594h-502l97 686q9 62 -9.5 112.5t-61.5 77.5l-123 -876h-205l123 877q-50 -27 -83 -77t-42 -114l-96 -686h-502l84 594q24 168 81.5 290.5t148.5 198t203.5 115t257.5 48.5l27 188 h205z" glyph-name="uni20BC" horiz-adv-x="1649" unicode="₼"/><glyph d="M1511 1067q-13 -88 -64 -173t-117 -116q197 -78 158 -357q-28 -194 -173.5 -299.5t-361.5 -119.5l-28 -207h-226l29 205h-205l-28 -205h-226l29 205h-251l202 1434h251l28 204h226l-29 -204h205l28 204h226l-29 -204q183 -6 281.5 -101t74.5 -266zM1031 995 q10 74 -21 100t-115 26h-188l-35 -247h188q77 0 119.5 27.5t51.5 93.5zM989 442q10 68 -25 99.5t-116 31.5h-218l-38 -267l215 -4q160 -3 182 140z" glyph-name="uni20BF" horiz-adv-x="1565" unicode="₿"/><glyph d="M851 1215q-98 42 -214 30q-80 -8 -129.5 -58.5t-60 -123.5t25 -124t113.5 -59q112 -12 222 29l-29 -206q-115 -32 -260 -31q-68 0 -129.5 14t-115.5 45.5t-91 76.5t-53 110.5t-5 144.5q13 97 63 174t121 123t153 69.5t167 23.5q153 0 251 -32zM1400 1434h218l-968 -1434 h-217zM1995 377q-13 -100 -63 -177.5t-122 -122.5t-153 -68t-166 -23t-159.5 23t-133 68t-87 122t-13.5 178q13 97 62.5 174t121 123t153.5 69.5t167 23.5t159.5 -23.5t133 -69.5t86 -123t14.5 -174zM1521 194q67 0 104 52t47 131q5 48 1 88.5t-30 67t-71 26.5 q-67 0 -103.5 -51.5t-48.5 -130.5q-5 -48 -1 -89t30.5 -67.5t71.5 -26.5z" glyph-name="afii61248" horiz-adv-x="2068" unicode="℅"/><glyph d="M975 153q-84 -81 -200.5 -131t-242.5 -50q-200 0 -285 104t-60 288l4 27q-116 -11 -162 -13l39 170q6 1 59 8t89 14l62 434q62 443 519 443q178 0 271 -88t67 -280q-28 -194 -166.5 -344t-345.5 -243l-11 -71q-11 -79 13 -114t67 -35q99 0 207 74zM654 717 q177 129 208 347q15 104 -54 104q-48 0 -75 -40.5t-39 -123.5z" glyph-name="afii61289" horiz-adv-x="1110" unicode="ℓ"/><glyph d="M2969 952q-14 -103 -59.5 -188.5t-109.5 -142.5t-144.5 -96.5t-164.5 -57t-171 -17.5q-72 0 -138 12.5t-127.5 38t-110.5 67t-82.5 96t-46.5 128t0 160.5q14 100 58.5 185t108 142t144 97.5t165 59t171.5 18.5t166 -18.5t148.5 -59t116.5 -97.5t68.5 -142t7.5 -185z M1211 1434h502l-202 -1434h-501l-363 694l-98 -694h-502l202 1434h502l365 -675zM2358 717q85 0 133.5 67t62.5 168q6 61 1 113.5t-38.5 87t-91.5 34.5q-86 0 -133.5 -66.5t-62.5 -168.5q-6 -62 -1 -114.5t38.5 -86.5t91.5 -34zM1789 358h1037l-36 -256h-1037z" glyph-name="afii61352" horiz-adv-x="3033" unicode="№"/><glyph d="M762 -45q-165 0 -302 60t-226.5 161.5t-129 242.5t-17.5 298q30 211 156 385.5t320 275.5t413 101q220 0 386.5 -101t244 -275.5t48.5 -385.5q-23 -157 -102.5 -297.5t-198 -243t-273 -162t-319.5 -59.5zM794 173q240 0 415 155t209 389q22 154 -30.5 277.5t-168 195 t-273.5 71.5q-239 0 -414.5 -155.5t-208 -389t99.5 -388.5t371 -155zM967 1062q140 0 215 -61.5t59 -177.5q-18 -133 -120 -187.5t-327 -62.5l-29 -202h-242l98 691h346zM999 823q5 37 -14.5 59t-55.5 22h-89l-24 -173q101 4 138.5 23t44.5 69z" glyph-name="uni2117" horiz-adv-x="1690" unicode="℗"/><glyph d="M154 944q125 -71 235 -71q113 0 119 51q3 25 -33.5 40.5t-97 30t-84.5 25.5q-141 68 -111 227q18 93 113.5 150.5t246.5 57.5q131 0 222 -50l-28 -195q-103 65 -220 65q-27 0 -52.5 -10t-30.5 -30q-5 -16 3.5 -28.5t28.5 -20.5t40 -14t49 -12.5t45 -12.5 q82 -30 127 -90.5t27 -154.5q-11 -60 -49 -102.5t-94.5 -64.5t-116.5 -32t-129 -10q-138 0 -238 56zM1535 1434h347l-100 -717h-251l52 373l-152 -312h-226l-65 312l-53 -373h-250l100 717h347l74 -375z" glyph-name="uni2120" horiz-adv-x="1838" unicode="℠"/><glyph d="M822 1434l-24 -174h-182l-75 -543h-251l76 543h-183l25 174h614zM1502 1434h347l-100 -717h-251l52 373l-152 -312h-226l-65 312l-52 -373h-251l100 717h347l74 -375z" glyph-name="trademark" horiz-adv-x="1805" unicode="™"/><glyph d="M571 782h209l-29 -209h-695l30 209h209l58 418q-87 -59 -171 -83l33 234q87 15 169 83h279zM1427 1434h219l-968 -1434h-217zM1898 243q-9 -66 -46.5 -115.5t-96 -79.5t-128 -44.5t-149.5 -14.5q-79 0 -144.5 14.5t-116 44.5t-74 79.5t-14.5 115.5q17 127 155 195 q-73 68 -56 177q11 84 69.5 143t136 85t168.5 26q67 0 124 -15t101 -45.5t65.5 -80t12.5 -113.5q-14 -111 -107 -177q117 -69 100 -195zM1466 603q-5 -36 15 -59t71 -23q98 0 111 82q4 36 -16 59t-71 23q-52 0 -79 -23t-31 -59zM1504 173q56 0 85.5 23.5t33.5 58.5 q5 36 -17 59t-79 23q-108 0 -120 -82q-5 -36 17.5 -59t79.5 -23z" glyph-name="oneeighth" horiz-adv-x="1990" unicode="⅛"/><glyph d="M225 1434h683l-29 -209l-249 -147q52 -9 94 -25q166 -65 139 -236q-20 -130 -134.5 -195t-282.5 -61q-124 3 -201.5 21t-176.5 68l134 190q44 -30 124.5 -51t146.5 -20q43 0 77 13.5t39 37.5q7 37 -32.5 66t-113.5 29q-99 0 -142 -6l-27 185l289 131h-367zM1427 1434h219 l-968 -1434h-217zM1898 243q-9 -66 -46.5 -115.5t-96 -79.5t-128 -44.5t-149.5 -14.5q-79 0 -144.5 14.5t-116 44.5t-74 79.5t-14.5 115.5q17 127 155 195q-73 68 -56 177q11 84 69.5 143t136 85t168.5 26q67 0 124 -15t101 -45.5t65.5 -80t12.5 -113.5q-14 -111 -107 -177 q117 -69 100 -195zM1466 603q-5 -36 15 -59t71 -23q98 0 111 82q4 36 -16 59t-71 23q-52 0 -79 -23t-31 -59zM1504 173q56 0 85.5 23.5t33.5 58.5q5 36 -17 59t-79 23q-108 0 -120 -82q-5 -36 17.5 -59t79.5 -23z" glyph-name="threeeighths" horiz-adv-x="1989" unicode="⅜"/><glyph d="M258 1434h642l-30 -209h-402l-23 -98q50 5 118 1t106 -14q106 -29 159.5 -102.5t36.5 -175.5q-23 -142 -136.5 -210.5t-282.5 -64.5q-124 3 -201.5 21t-176.5 68l134 190q43 -30 123.5 -50.5t147.5 -20.5q105 0 119 70q5 30 -32 57t-92.5 41.5t-109.5 14.5 q-65 0 -143 -11l-40 60zM1427 1434h219l-968 -1434h-217zM1898 243q-9 -66 -46.5 -115.5t-96 -79.5t-128 -44.5t-149.5 -14.5q-79 0 -144.5 14.5t-116 44.5t-74 79.5t-14.5 115.5q17 127 155 195q-73 68 -56 177q11 84 69.5 143t136 85t168.5 26q67 0 124 -15t101 -45.5 t65.5 -80t12.5 -113.5q-14 -111 -107 -177q117 -69 100 -195zM1466 603q-5 -36 15 -59t71 -23q98 0 111 82q4 36 -16 59t-71 23q-52 0 -79 -23t-31 -59zM1504 173q56 0 85.5 23.5t33.5 58.5q5 36 -17 59t-79 23q-108 0 -120 -82q-5 -36 17.5 -59t79.5 -23z" glyph-name="fiveeighths" horiz-adv-x="1990" unicode="⅝"/><glyph d="M177 1434h670l-29 -209q-145 -154 -244 -309t-149 -343h-289q51 190 146.5 347t234.5 305h-369zM1196 1434h218l-968 -1434h-217zM1667 243q-9 -66 -47 -115.5t-96.5 -79.5t-128 -44.5t-149.5 -14.5q-79 0 -144.5 14.5t-115.5 44.5t-73.5 79.5t-14.5 115.5 q17 127 155 195q-73 68 -57 177q11 84 69.5 143t136.5 85t168 26q67 0 124 -15t101 -45.5t65.5 -80t12.5 -113.5q-14 -111 -106 -177q117 -69 100 -195zM1235 603q-5 -36 15 -59t71 -23q98 0 111 82q4 36 -16 59t-71 23q-52 0 -79 -23t-31 -59zM1273 173q56 0 85.5 23.5 t33.5 58.5q5 36 -17 59t-80 23q-108 0 -119 -82q-5 -36 17.5 -59t79.5 -23z" glyph-name="seveneighths" horiz-adv-x="1758" unicode="⅞"/><glyph d="M678 0l-530 717l530 717h490l-359 -487h773v-461h-772l358 -486h-490z" glyph-name="arrowleft" horiz-adv-x="1712" unicode="←"/><glyph d="M1608 904v-490l-487 358v-772h-461v773l-486 -359v490l717 530z" glyph-name="arrowup" horiz-adv-x="1747" unicode="↑"/><glyph d="M1084 0h-490l358 486h-772v461h773l-359 487h490l530 -717z" glyph-name="arrowright" horiz-adv-x="1711" unicode="→"/><glyph d="M1624 529l-717 -529l-717 529v491l487 -360v774h461v-772l486 358v-491z" glyph-name="arrowdown" horiz-adv-x="1747" unicode="↓"/><glyph d="M2033 1434l529 -717l-529 -717h-491l359 486h-1091l358 -486h-490l-530 717l530 717h490l-359 -487h1093l-360 487h491z" glyph-name="arrowboth" horiz-adv-x="2659" unicode="↔"/><glyph d="M1639 639l-486 358v-766l486 359v-491l-716 -529l-717 529v491l486 -360v768l-486 -359v490l717 530l716 -530v-490z" glyph-name="arrowupdn" horiz-adv-x="1823" unicode="↕"/><glyph d="M1609 1086h-695l585 -584l-325 -326l-578 578v-680l-347 346v1014h1014z" glyph-name="uni2196" horiz-adv-x="1654" unicode="↖"/><glyph d="M546 1434h1014v-1014l-348 -346v680l-577 -578l-326 326l585 584h-694z" glyph-name="uni2197" horiz-adv-x="1698" unicode="↗"/><glyph d="M1109 1360l347 -346v-1014h-1014l-346 347h695l-585 585l325 325l578 -577v680z" glyph-name="uni2198" horiz-adv-x="1654" unicode="↘"/><glyph d="M855 347h694l-346 -347h-1014v1014l348 346v-680l577 577l326 -325z" glyph-name="uni2199" horiz-adv-x="1698" unicode="↙"/><glyph d="M782 1454q91 0 171.5 -25.5t141 -71t110 -108t80 -136.5t50 -155.5t20 -165.5t-8.5 -167q-19 -136 -72 -247t-125 -183.5t-162.5 -121.5t-182.5 -70t-190 -21q-122 0 -228.5 29.5t-191.5 88t-126.5 158t-23.5 227.5q17 127 83.5 228t163.5 163t217 91.5t248 22.5 q72 -4 137 -36q-19 99 -92.5 157.5t-229.5 105.5zM652 250q97 0 149.5 79.5t74.5 232.5q9 62 16 131q-77 29 -174 29q-95 0 -147 -67t-66 -170q-8 -45 -3 -87t19.5 -75t48 -53t82.5 -20z" glyph-name="partialdiff" horiz-adv-x="1384" unicode="∂"/><glyph d="M1204 932l-90 -79q78 -142 53 -315q-22 -152 -114 -280.5t-231.5 -203t-291.5 -74.5q-173 0 -301 97l-89 -78l-126 145l90 79q-78 140 -53 315q22 152 114.5 280t232 203t290.5 75q173 0 301 -98l89 79zM306 538q-9 -68 10 -128l460 403q-57 28 -124 28 q-126 0 -227.5 -88.5t-118.5 -214.5zM912 538q9 68 -10 129l-461 -404q57 -29 125 -29q126 0 227.5 89t118.5 215z" glyph-name="emptyset" horiz-adv-x="1218" unicode="∅"/><glyph d="M1699 1434l-245 -1741h-502l196 1392h-447l-195 -1392h-502l245 1741h1450z" glyph-name="product" horiz-adv-x="1695" unicode="∏"/><glyph d="M1273 151l-50 -356h-1205l47 324l599 598l-433 596l47 325h1184l-50 -355l-572 2l363 -568l-524 -571z" glyph-name="summation" horiz-adv-x="1449" unicode="∑"/><glyph d="M1151 563h-1024l43 307h1024z" glyph-name="minus" horiz-adv-x="1269" unicode="−"/><glyph d="M1753 1434l-832 -1741h-481l-157 734h-175l49 348h468l117 -642l610 1301h401z" glyph-name="radical" horiz-adv-x="1750" unicode="√"/><glyph d="M1339 967q187 0 282.5 -116t68 -313.5t-155.5 -313t-315 -115.5q-114 0 -211.5 56t-165.5 168q-203 -224 -441 -224q-187 0 -282 115.5t-67.5 313t155.5 313.5t315 116q114 0 211 -57t166 -169q202 226 440 226zM472 384q54 0 116.5 40t122.5 114q-38 74 -90 113.5 t-106 39.5q-60 0 -98.5 -40t-49 -113.5t17 -113.5t87.5 -40zM1224 384q60 0 99.5 40.5t49.5 113.5q10 74 -18 113.5t-88 39.5q-113 0 -237 -153q38 -74 89 -114t105 -40z" glyph-name="infinity" horiz-adv-x="1740" unicode="∞"/><glyph d="M831 1395q150 -2 230 -56l-36 -178q-105 25 -165 -2q-29 -13 -40.5 -38.5t-18.5 -80.5l-152 -1076q-11 -82 -46.5 -142.5t-81.5 -94t-110.5 -53t-121 -25t-126.5 -4.5q-150 2 -230 55l36 178q105 -25 165 2q29 13 40.5 39t19.5 80l151 1076q11 82 46.5 142.5t81.5 94.5 t110.5 53t120.5 25t127 5z" glyph-name="integral" horiz-adv-x="999" unicode="∫"/><glyph d="M152 741q28 191 126 284t225 93q81 0 197.5 -42t165.5 -42q70 0 86 84h277q-28 -191 -126 -284t-225 -93q-80 0 -197.5 42t-167.5 42q-69 0 -85 -84h-276zM92 319q28 191 126 284t225 93q81 0 198 -42t166 -42q70 0 86 84h276q-28 -191 -126 -284t-225 -93 q-80 0 -196.5 42t-166.5 42q-70 0 -86 -84h-277z" glyph-name="approxequal" horiz-adv-x="1269" unicode="≈"/><glyph d="M1182 788h-365l-108 -143h453l-43 -307h-643l-116 -154h-204l115 154h-176l43 307h366l108 143h-454l44 308h643l116 153h204l-115 -153h176z" glyph-name="notequal" horiz-adv-x="1269" unicode="≠"/><glyph d="M1203 1317l-49 -350l-622 -143l582 -143l-49 -350l-938 230l74 525zM44 -31l48 348h970l-49 -348h-969z" glyph-name="lessequal" horiz-adv-x="1216" unicode="≤"/><glyph d="M232 1317l938 -231l-73 -525l-1003 -230l49 350l622 142l-582 144zM45 -31l48 348h970l-49 -348h-969z" glyph-name="greaterequal" horiz-adv-x="1216" unicode="≥"/><glyph d="M965.5 -154q-177.5 0 -338.5 69.5t-277.5 185.5t-185.5 278t-69 339t69 338t185.5 277.5t277.5 185t338.5 68.5t338.5 -68.5t277.5 -185t185.5 -277.5t69 -338t-69 -339t-185.5 -278t-277.5 -185.5t-338.5 -69.5zM965.5 51q181.5 0 334.5 89t242 243t89 336 q0 180 -89 333t-242 241.5t-334.5 88.5t-334.5 -88.5t-242 -241.5t-89 -333q0 -182 89 -336t242 -243t334.5 -89zM1104 496h209v-209h-695v209h209v417q-80 -59 -159 -83v234q85 16 157 83h279v-651z" glyph-name="uni2460" horiz-adv-x="1881" unicode="①"/><glyph d="M965.5 -154q-177.5 0 -338.5 69.5t-277.5 185.5t-185.5 278t-69 339t69 338t185.5 277.5t277.5 185t338.5 68.5t338.5 -68.5t277.5 -185t185.5 -277.5t69 -338t-69 -339t-185.5 -278t-277.5 -185.5t-338.5 -69.5zM965.5 51q181.5 0 334.5 89t242 243t89 336 q0 180 -89 333t-242 241.5t-334.5 88.5t-334.5 -88.5t-242 -241.5t-89 -333q0 -182 89 -336t242 -243t334.5 -89zM1324 489v-208h-758v208q95 53 167.5 99t139.5 95.5t103 94.5t36 82q0 36 -24 60t-64 25q-130 2 -248 -63l-93 180q94 47 174.5 69.5t177.5 22.5 q175 0 273 -66.5t98 -175.5q0 -58 -20 -112.5t-47.5 -93t-76.5 -82t-86 -70t-97 -65.5h345z" glyph-name="uni2461" horiz-adv-x="1881" unicode="②"/><glyph d="M965.5 -154q-177.5 0 -338.5 69.5t-277.5 185.5t-185.5 278t-69 339t69 338t185.5 277.5t277.5 185t338.5 68.5t338.5 -68.5t277.5 -185t185.5 -277.5t69 -338t-69 -339t-185.5 -278t-277.5 -185.5t-338.5 -69.5zM965.5 51q181.5 0 334.5 89t242 243t89 336 q0 180 -89 333t-242 241.5t-334.5 88.5t-334.5 -88.5t-242 -241.5t-89 -333q0 -182 89 -336t242 -243t334.5 -89zM607 1153h682v-209l-228 -146q56 -9 98 -26q176 -66 172 -235q-2 -130 -107 -195.5t-273 -60.5q-124 3 -204.5 20.5t-187.5 68.5l109 189q47 -30 130.5 -51 t149.5 -20q43 0 75.5 13.5t33.5 38.5q2 37 -41.5 66t-117.5 29q-100 0 -141 -6l-52 184l270 131h-368v209z" glyph-name="uni2462" horiz-adv-x="1881" unicode="③"/><glyph d="M965.5 -154q-177.5 0 -338.5 69.5t-277.5 185.5t-185.5 278t-69 339t69 338t185.5 277.5t277.5 185t338.5 68.5t338.5 -68.5t277.5 -185t185.5 -277.5t69 -338t-69 -339t-185.5 -278t-277.5 -185.5t-338.5 -69.5zM965.5 51q181.5 0 334.5 89t242 243t89 336 q0 180 -89 333t-242 241.5t-334.5 88.5t-334.5 -88.5t-242 -241.5t-89 -333q0 -182 89 -336t242 -243t334.5 -89zM1347 673v-209h-123v-177h-277v177h-403v209l361 474h319v-474h123zM799 673h148v217z" glyph-name="uni2463" horiz-adv-x="1881" unicode="④"/><glyph d="M965.5 -154q-177.5 0 -338.5 69.5t-277.5 185.5t-185.5 278t-69 339t69 338t185.5 277.5t277.5 185t338.5 68.5t338.5 -68.5t277.5 -185t185.5 -277.5t69 -338t-69 -339t-185.5 -278t-277.5 -185.5t-338.5 -69.5zM965.5 51q181.5 0 334.5 89t242 243t89 336 q0 180 -89 333t-242 241.5t-334.5 88.5t-334.5 -88.5t-242 -241.5t-89 -333q0 -182 89 -336t242 -243t334.5 -89zM640 1153h642v-209h-403l-9 -97q129 11 226 -13q111 -29 173.5 -103t61.5 -176q-2 -142 -106.5 -210.5t-273.5 -63.5q-124 3 -204.5 20.5t-187.5 68.5l109 189 q46 -30 129.5 -50.5t150.5 -20.5q105 0 109 70q1 30 -40 57t-98.5 42t-110.5 15q-66 0 -142 -12l-49 61z" glyph-name="uni2464" horiz-adv-x="1881" unicode="⑤"/><glyph d="M965.5 -154q-177.5 0 -338.5 69.5t-277.5 185.5t-185.5 278t-69 339t69 338t185.5 277.5t277.5 185t338.5 68.5t338.5 -68.5t277.5 -185t185.5 -277.5t69 -338t-69 -339t-185.5 -278t-277.5 -185.5t-338.5 -69.5zM965.5 51q181.5 0 334.5 89t242 243t89 336 q0 180 -89 333t-242 241.5t-334.5 88.5t-334.5 -88.5t-242 -241.5t-89 -333q0 -182 89 -336t242 -243t334.5 -89zM1350 571q0 -74 -33.5 -131.5t-89.5 -91t-123 -50t-139 -16.5q-57 0 -111.5 10t-104.5 32.5t-87 56t-59 82.5t-22 108q0 27 2.5 46t13.5 46.5t22.5 48t42 68 t58.5 87.5t85 124t109 161h326l-216 -323q87 19 156 -2q79 -24 124.5 -94t45.5 -162zM964.5 460q55.5 0 82 34.5t26.5 76.5q0 41 -26.5 76t-81.5 35q-54 0 -81 -35t-27 -76q0 -42 26 -76.5t81.5 -34.5z" glyph-name="uni2465" horiz-adv-x="1881" unicode="⑥"/><glyph d="M965.5 -154q-177.5 0 -338.5 69.5t-277.5 185.5t-185.5 278t-69 339t69 338t185.5 277.5t277.5 185t338.5 68.5t338.5 -68.5t277.5 -185t185.5 -277.5t69 -338t-69 -339t-185.5 -278t-277.5 -185.5t-338.5 -69.5zM965.5 51q181.5 0 334.5 89t242 243t89 336 q0 180 -89 333t-242 241.5t-334.5 88.5t-334.5 -88.5t-242 -241.5t-89 -333q0 -182 89 -336t242 -243t334.5 -89zM627 1147h669v-209q-123 -155 -199.5 -310t-101.5 -341h-288q25 190 98 346.5t190 304.5h-368v209z" glyph-name="uni2466" horiz-adv-x="1881" unicode="⑦"/><glyph d="M965.5 -154q-177.5 0 -338.5 69.5t-277.5 185.5t-185.5 278t-69 339t69 338t185.5 277.5t277.5 185t338.5 68.5t338.5 -68.5t277.5 -185t185.5 -277.5t69 -338t-69 -339t-185.5 -278t-277.5 -185.5t-338.5 -69.5zM965.5 51q181.5 0 334.5 89t242 243t89 336 q0 180 -89 333t-242 241.5t-334.5 88.5t-334.5 -88.5t-242 -241.5t-89 -333q0 -182 89 -336t242 -243t334.5 -89zM1329 530q0 -66 -30.5 -115t-84.5 -79t-122 -45t-147 -15q-80 0 -147.5 15t-121.5 45t-85 79.5t-31 114.5q0 127 128 196q-82 67 -82 177q0 84 50 143 t124.5 85t164.5 26t164.5 -26t124 -85t49.5 -143q1 -110 -81 -177q127 -69 127 -196zM847 891q0 -36 23 -59t75 -23q51 0 74.5 23t23.5 59t-23.5 59t-74.5 23q-52 0 -75 -23t-23 -59zM945 461q56 0 82 23t26 59t-26 59t-82 23q-57 0 -82.5 -23t-25.5 -59t25.5 -59t82.5 -23z " glyph-name="uni2467" horiz-adv-x="1881" unicode="⑧"/><glyph d="M965.5 -154q-177.5 0 -338.5 69.5t-277.5 185.5t-185.5 278t-69 339t69 338t185.5 277.5t277.5 185t338.5 68.5t338.5 -68.5t277.5 -185t185.5 -277.5t69 -338t-69 -339t-185.5 -278t-277.5 -185.5t-338.5 -69.5zM965.5 51q181.5 0 334.5 89t242 243t89 336 q0 180 -89 333t-242 241.5t-334.5 88.5t-334.5 -88.5t-242 -241.5t-89 -333q0 -182 89 -336t242 -243t334.5 -89zM582 862q0 74 33 132t89 91t123 50t140 17q57 0 111.5 -10t104 -33t87 -56t59.5 -82t22 -109q0 -27 -2.5 -45.5t-14 -46.5t-23 -48.5t-42 -68t-58 -87.5 t-85 -124t-109.5 -160h-326l216 322q-87 -19 -155 2q-79 24 -124.5 94t-45.5 162zM966.5 974q-55.5 0 -82 -35t-26.5 -77q0 -41 26.5 -75.5t82.5 -34.5q54 0 80.5 34.5t26.5 75.5q0 42 -26 77t-81.5 35z" glyph-name="uni2468" horiz-adv-x="1881" unicode="⑨"/><glyph d="M965.5 -154q-177.5 0 -338.5 69.5t-277.5 185.5t-185.5 278t-69 339t69 338t185.5 277.5t277.5 185t338.5 68.5t338.5 -68.5t277.5 -185t185.5 -277.5t69 -338t-69 -339t-185.5 -278t-277.5 -185.5t-338.5 -69.5zM965.5 51q181.5 0 334.5 89t242 243t89 336 q0 180 -89 333t-242 241.5t-334.5 88.5t-334.5 -88.5t-242 -241.5t-89 -333q0 -182 89 -336t242 -243t334.5 -89zM1329 717q1 -217 -103 -330t-282 -113q-176 0 -280 113.5t-104 329.5q0 213 103.5 327.5t280.5 114.5q178 0 281.5 -114.5t103.5 -327.5zM945 477 q32 0 53.5 19.5t31 56.5t13.5 75t4 89q0 240 -101.5 239.5t-101.5 -239.5q0 -52 3.5 -89.5t13 -74.5t31 -56.5t53.5 -19.5z" glyph-name="uni24EA" horiz-adv-x="1881" unicode="⓪"/><glyph d="M965.5 -154q-177.5 0 -338.5 69t-278 185.5t-185.5 278t-68.5 339.5q0 142 44 274.5t124.5 239.5t187.5 187.5t239.5 124t275 43.5t275 -43.5t239.5 -124t187.5 -187.5t124.5 -239.5t44 -274.5q0 -178 -68.5 -339.5t-185.5 -278t-278 -185.5t-338.5 -69zM1350 717 q0 213 -104 327.5t-281.5 114.5t-280.5 -114.5t-103 -327.5q0 -217 103 -330t280.5 -113t282 113.5t103.5 329.5zM965 477q-32 0 -53.5 19.5t-31.5 56.5t-13.5 74.5t-3.5 89.5q0 240 102 239q102 0 102 -239q0 -52 -3.5 -89.5t-14 -74.5t-31 -56.5t-53.5 -19.5z" glyph-name="uni24FF" horiz-adv-x="1881" unicode="⓿"/><glyph d="M256 1485h1536v-1536h-1536v1536z" glyph-name="filledbox" horiz-adv-x="1997" unicode="■"/><glyph d="M249 1434h1433v-1434h-1433v1434zM454 1229v-1024h1024v1024h-1024z" glyph-name="H22073" horiz-adv-x="1881" unicode="□"/><glyph d="M1459 717l-497 -717h-519l-295 717l497 717h518zM1023 717l-163 402l-275 -402l161 -403z" glyph-name="lozenge" horiz-adv-x="1556" unicode="◊"/><glyph d="M965.5 -154q-177.5 0 -338.5 69.5t-277.5 185.5t-185.5 278t-69 339t69 338t185.5 277.5t277.5 185t338.5 68.5t338.5 -68.5t277.5 -185t185.5 -277.5t69 -338t-69 -339t-185.5 -278t-277.5 -185.5t-338.5 -69.5zM965.5 51q181.5 0 334.5 89t242 243t89 336 q0 180 -89 333t-242 241.5t-334.5 88.5t-334.5 -88.5t-242 -241.5t-89 -333q0 -182 89 -336t242 -243t334.5 -89z" glyph-name="circle" horiz-adv-x="1881" unicode="○"/><glyph d="M965.5 -154q-177.5 0 -338.5 69.5t-277.5 185.5t-185.5 278t-69 339t69 338t185.5 277.5t277.5 185t338.5 68.5t338.5 -68.5t277.5 -185t185.5 -277.5t69 -338t-69 -339t-185.5 -278t-277.5 -185.5t-338.5 -69.5z" glyph-name="H18533" horiz-adv-x="1881" unicode="●"/><glyph d="M965.5 -154q-177.5 0 -338.5 69t-278 185.5t-185.5 278t-68.5 339.5q0 142 44 274.5t124.5 239.5t187.5 187.5t239.5 124t275 43.5t275 -43.5t239.5 -124t187.5 -187.5t124.5 -239.5t44 -274.5q0 -178 -68.5 -339.5t-185.5 -278t-278 -185.5t-338.5 -69zM1104 496v651 h-279q-73 -67 -157 -83v-234q80 24 159 83v-417h-209v-209h695v209h-209z" glyph-name="uni2776" horiz-adv-x="1881" unicode="❶"/><glyph d="M965.5 -154q-177.5 0 -338.5 69t-278 185.5t-185.5 278t-68.5 339.5q0 142 44 274.5t124.5 239.5t187.5 187.5t239.5 124t275 43.5t275 -43.5t239.5 -124t187.5 -187.5t124.5 -239.5t44 -274.5q0 -178 -68.5 -339.5t-185.5 -278t-278 -185.5t-338.5 -69zM1345 489h-346 q60 39 97.5 65.5t86.5 70t76 82t47 93t20 112.5q0 109 -98 175.5t-273 66.5q-97 0 -177.5 -22.5t-174.5 -69.5l93 -180q118 66 248 63q40 -1 64 -25t24 -60q0 -37 -35.5 -82t-103 -94.5t-139.5 -95t-167 -99.5v-208h758v208z" glyph-name="uni2777" horiz-adv-x="1881" unicode="❷"/><glyph d="M965.5 -154q-177.5 0 -338.5 69t-278 185.5t-185.5 278t-68.5 339.5q0 142 44 274.5t124.5 239.5t187.5 187.5t239.5 124t275 43.5t275 -43.5t239.5 -124t187.5 -187.5t124.5 -239.5t44 -274.5q0 -178 -68.5 -339.5t-185.5 -278t-278 -185.5t-338.5 -69zM628 1153v-209 h367l-270 -131l52 -184q41 6 142 6q74 0 117 -29t41 -66q-1 -25 -33 -38.5t-75 -13.5q-67 -1 -150.5 20t-130.5 51l-108 -189q106 -50 187 -68t205 -21q168 -4 273 61t107 195q4 170 -172 235q-42 16 -99 26l229 146v209h-682z" glyph-name="uni2778" horiz-adv-x="1881" unicode="❸"/><glyph d="M965.5 -154q-177.5 0 -338.5 69t-278 185.5t-185.5 278t-68.5 339.5q0 142 44 274.5t124.5 239.5t187.5 187.5t239.5 124t275 43.5t275 -43.5t239.5 -124t187.5 -187.5t124.5 -239.5t44 -274.5q0 -178 -68.5 -339.5t-185.5 -278t-278 -185.5t-338.5 -69zM1367 673h-123 v474h-318l-362 -474v-209h404v-177h276v177h123v209zM819 673l149 217v-217h-149z" glyph-name="uni2779" horiz-adv-x="1881" unicode="❹"/><glyph d="M965.5 -154q-177.5 0 -338.5 69t-278 185.5t-185.5 278t-68.5 339.5q0 142 44 274.5t124.5 239.5t187.5 187.5t239.5 124t275 43.5t275 -43.5t239.5 -124t187.5 -187.5t124.5 -239.5t44 -274.5q0 -178 -68.5 -339.5t-185.5 -278t-278 -185.5t-338.5 -69zM660 1153 l-22 -432l48 -61q77 11 142 12q53 0 110.5 -15t98.5 -42t40 -57q-3 -70 -108 -70q-68 0 -151.5 20.5t-129.5 50.5l-108 -189q106 -50 187 -68t205 -21q169 -4 273.5 64t106.5 210q1 102 -62 176t-174 103q-96 25 -225 13l8 97h404v209h-643z" glyph-name="uni277A" horiz-adv-x="1881" unicode="❺"/><glyph d="M965.5 -154q-177.5 0 -338.5 69t-278 185.5t-185.5 278t-68.5 339.5q0 142 44 274.5t124.5 239.5t187.5 187.5t239.5 124t275 43.5t275 -43.5t239.5 -124t187.5 -187.5t124.5 -239.5t44 -274.5q0 -178 -68.5 -339.5t-185.5 -278t-278 -185.5t-338.5 -69zM1350 571 q0 92 -46 162.5t-124 93.5q-69 22 -156 2l216 323h-326q-52 -77 -109 -161t-85 -124t-58.5 -87.5t-42 -68t-22.5 -48t-13.5 -46.5t-2.5 -46q0 -59 22 -108t59 -82.5t87 -56t104 -32.5t112 -10q73 0 139.5 16.5t122.5 50t89.5 91t33.5 131.5zM964.5 460q-55.5 0 -81.5 34.5 t-26 76.5q0 41 26.5 76t81.5 35t81.5 -35t26.5 -76q0 -42 -26.5 -76.5t-82 -34.5z" glyph-name="uni277B" horiz-adv-x="1881" unicode="❻"/><glyph d="M965.5 -154q-177.5 0 -338.5 69t-278 185.5t-185.5 278t-68.5 339.5q0 142 44 274.5t124.5 239.5t187.5 187.5t239.5 124t275 43.5t275 -43.5t239.5 -124t187.5 -187.5t124.5 -239.5t44 -274.5q0 -178 -68.5 -339.5t-185.5 -278t-278 -185.5t-338.5 -69zM646 1147v-209 h369q-118 -148 -191 -304.5t-98 -346.5h289q25 186 101.5 341t199.5 310v209h-670z" glyph-name="uni277C" horiz-adv-x="1881" unicode="❼"/><glyph d="M965.5 -154q-177.5 0 -338.5 69t-278 185.5t-185.5 278t-68.5 339.5q0 142 44 274.5t124.5 239.5t187.5 187.5t239.5 124t275 43.5t275 -43.5t239.5 -124t187.5 -187.5t124.5 -239.5t44 -274.5q0 -178 -68.5 -339.5t-185.5 -278t-278 -185.5t-338.5 -69zM1350 530 q0 127 -127 196q82 68 81 177q0 84 -50 143t-124 85t-164 26t-165 -26t-124.5 -85t-49.5 -143q0 -111 82 -177q-128 -69 -128 -196q0 -66 30.5 -115t85 -79t122 -45t147.5 -15q79 0 147 15t121.5 45t84.5 79t31 115zM867 891q0 36 23 59t76 23q51 0 74.5 -23t23.5 -59 t-23.5 -59t-74.5 -23q-52 0 -75.5 23t-23.5 59zM966 461q-57 0 -83 23t-26 59t25.5 59t83.5 23q56 0 81.5 -23t25.5 -59t-25.5 -59t-81.5 -23z" glyph-name="uni277D" horiz-adv-x="1881" unicode="❽"/><glyph d="M965.5 -154q-177.5 0 -338.5 69t-278 185.5t-185.5 278t-68.5 339.5q0 142 44 274.5t124.5 239.5t187.5 187.5t239.5 124t275 43.5t275 -43.5t239.5 -124t187.5 -187.5t124.5 -239.5t44 -274.5q0 -178 -68.5 -339.5t-185.5 -278t-278 -185.5t-338.5 -69zM582 862 q0 -92 45.5 -162t124.5 -94q69 -22 155 -2l-216 -322h326q52 77 109.5 160.5t85 123.5t58 87.5t42 68t23 48.5t14 47t2.5 45q0 59 -22 108.5t-59.5 82.5t-87 56t-104 33t-111.5 10q-73 0 -140 -17t-123 -50t-89 -91t-33 -132zM966.5 974q55.5 0 81.5 -35t26 -77 q0 -41 -26.5 -75.5t-80.5 -34.5q-55 0 -82 34.5t-27 75.5q0 42 26.5 77t82 35z" glyph-name="uni277E" horiz-adv-x="1881" unicode="❾"/><glyph d="M245 1476h398l-42 -298h-398zM158 1075h460l-151 -1075h-461z" glyph-name="i.aalt" horiz-adv-x="624"/><glyph d="M1039 1075h370l-152 -1075h-369l-7 90q-71 -60 -169 -85t-191 -25q-95 0 -174 19.5t-142.5 62t-102.5 109t-54 157.5t3 210q19 144 76 253t141.5 174.5t187.5 98t223 32.5q93 0 183.5 -25t143.5 -86zM655 276q106 0 193 91l47 342q-60 90 -166 90q-94 0 -148 -75 t-69 -186q-7 -69 -1.5 -127t42.5 -96.5t102 -38.5z" glyph-name="a.salt" horiz-adv-x="1415"/><glyph d="M1276 1486l-309 -307h-338l224 307h423zM1039 1075h370l-152 -1075h-369l-7 90q-71 -60 -169 -85t-191 -25q-95 0 -174 19.5t-142.5 62t-102.5 109t-54 157.5t3 210q19 144 76 253t141.5 174.5t187.5 98t223 32.5q93 0 183.5 -25t143.5 -86zM655 276q106 0 193 91l47 342 q-60 90 -166 90q-94 0 -148 -75t-69 -186q-7 -69 -1.5 -127t42.5 -96.5t102 -38.5z" glyph-name="aacute.aalt" horiz-adv-x="1415"/><glyph d="M1226 1485q-53 -145 -166 -226t-262 -81q-151 0 -241.5 80.5t-101.5 226.5h266q7 -97 106 -97q48 0 82 26.5t50 70.5h267zM1039 1075h370l-152 -1075h-369l-7 90q-71 -60 -169 -85t-191 -25q-95 0 -174 19.5t-142.5 62t-102.5 109t-54 157.5t3 210q19 144 76 253 t141.5 174.5t187.5 98t223 32.5q93 0 183.5 -25t143.5 -86zM655 276q106 0 193 91l47 342q-60 90 -166 90q-94 0 -148 -75t-69 -186q-7 -69 -1.5 -127t42.5 -96.5t102 -38.5z" glyph-name="abreve.aalt" horiz-adv-x="1415"/><glyph d="M972 1485h338l-276 -307h-473l-189 307h338l104 -193zM1039 1075h370l-152 -1075h-369l-7 90q-71 -60 -169 -85t-191 -25q-95 0 -174 19.5t-142.5 62t-102.5 109t-54 157.5t3 210q19 144 76 253t141.5 174.5t187.5 98t223 32.5q93 0 183.5 -25t143.5 -86zM655 276 q106 0 193 91l47 342q-60 90 -166 90q-94 0 -148 -75t-69 -186q-7 -69 -1.5 -127t42.5 -96.5t102 -38.5z" glyph-name="uni01CE.aalt" horiz-adv-x="1415"/><glyph d="M1267 1178h-338l-105 192l-157 -192h-338l275 307h473zM1039 1075h370l-152 -1075h-369l-7 90q-71 -60 -169 -85t-191 -25q-95 0 -174 19.5t-142.5 62t-102.5 109t-54 157.5t3 210q19 144 76 253t141.5 174.5t187.5 98t223 32.5q93 0 183.5 -25t143.5 -86zM655 276 q106 0 193 91l47 342q-60 90 -166 90q-94 0 -148 -75t-69 -186q-7 -69 -1.5 -127t42.5 -96.5t102 -38.5z" glyph-name="acircumflex.aalt" horiz-adv-x="1415"/><glyph d="M398 1476h399l-42 -298h-399zM884 1476h397l-42 -298h-397zM1039 1075h370l-152 -1075h-369l-7 90q-71 -60 -169 -85t-191 -25q-95 0 -174 19.5t-142.5 62t-102.5 109t-54 157.5t3 210q19 144 76 253t141.5 174.5t187.5 98t223 32.5q93 0 183.5 -25t143.5 -86zM655 276 q106 0 193 91l47 342q-60 90 -166 90q-94 0 -148 -75t-69 -186q-7 -69 -1.5 -127t42.5 -96.5t102 -38.5z" glyph-name="adieresis.aalt" horiz-adv-x="1415"/><glyph d="M1039 1075h370l-152 -1075h-369l-7 90q-71 -60 -169 -85t-191 -25q-95 0 -174 19.5t-142.5 62t-102.5 109t-54 157.5t3 210q19 144 76 253t141.5 174.5t187.5 98t223 32.5q93 0 183.5 -25t143.5 -86zM655 276q106 0 193 91l47 342q-60 90 -166 90q-94 0 -148 -75 t-69 -186q-7 -69 -1.5 -127t42.5 -96.5t102 -38.5zM418 -102h398l-42 -298h-398z" glyph-name="uni1EA1.aalt" horiz-adv-x="1415"/><glyph d="M406 1486h422l139 -307h-338zM1039 1075h370l-152 -1075h-369l-7 90q-71 -60 -169 -85t-191 -25q-95 0 -174 19.5t-142.5 62t-102.5 109t-54 157.5t3 210q19 144 76 253t141.5 174.5t187.5 98t223 32.5q93 0 183.5 -25t143.5 -86zM655 276q106 0 193 91l47 342 q-60 90 -166 90q-94 0 -148 -75t-69 -186q-7 -69 -1.5 -127t42.5 -96.5t102 -38.5z" glyph-name="agrave.aalt" horiz-adv-x="1415"/><glyph d="M526 1434h615l-36 -256h-615zM1039 1075h370l-152 -1075h-369l-7 90q-71 -60 -169 -85t-191 -25q-95 0 -174 19.5t-142.5 62t-102.5 109t-54 157.5t3 210q19 144 76 253t141.5 174.5t187.5 98t223 32.5q93 0 183.5 -25t143.5 -86zM655 276q106 0 193 91l47 342 q-60 90 -166 90q-94 0 -148 -75t-69 -186q-7 -69 -1.5 -127t42.5 -96.5t102 -38.5z" glyph-name="amacron.aalt" horiz-adv-x="1415"/><glyph d="M1196 0q-203 -85 -214 -169q-8 -53 51 -66t133 9l-10 -183q-78 -23 -161 -19.5t-150.5 22.5t-106.5 67.5t-29 116.5q8 60 64.5 121t169.5 101h-55l-7 90q-71 -60 -169 -85t-191 -25q-95 0 -174 19.5t-142.5 62t-102.5 109t-54 157.5t3 210q19 144 76 253t141.5 174.5 t187.5 98t223 32.5q93 0 183.5 -25t143.5 -86l33 90h370l-152 -1075h-61zM848 367l47 342q-60 90 -166 90q-94 0 -148 -75t-69 -186q-7 -69 -1.5 -127t43 -96.5t101.5 -38.5q107 1 193 91z" glyph-name="aogonek.aalt" horiz-adv-x="1415"/><glyph d="M797.5 1178q-115.5 0 -187 82.5t-55.5 198.5q17 116 111.5 199t210 83t187 -83t55 -199t-111 -198.5t-210 -82.5zM826.5 1381q31.5 0 57.5 23t30.5 55t-15 55t-51.5 23t-58 -23t-31 -55q-4 -32 16 -55t51.5 -23zM1039 1075h370l-152 -1075h-369l-7 90q-71 -60 -169 -85 t-191 -25q-95 0 -174 19.5t-142.5 62t-102.5 109t-54 157.5t3 210q19 144 76 253t141.5 174.5t187.5 98t223 32.5q93 0 183.5 -25t143.5 -86zM655 276q106 0 193 91l47 342q-60 90 -166 90q-94 0 -148 -75t-69 -186q-7 -69 -1.5 -127t42.5 -96.5t102 -38.5z" glyph-name="aring.aalt" horiz-adv-x="1415"/><glyph d="M396 1178q10 78 38 136t66.5 92t81.5 50.5t89 16.5q63 0 155.5 -33t129.5 -33q54 0 67 66h217q-10 -78 -37.5 -136.5t-66 -92.5t-81.5 -50t-89 -16q-62 0 -154.5 32.5t-131.5 32.5q-54 0 -67 -65h-217zM1039 1075h370l-152 -1075h-369l-7 90q-71 -60 -169 -85t-191 -25 q-95 0 -174 19.5t-142.5 62t-102.5 109t-54 157.5t3 210q19 144 76 253t141.5 174.5t187.5 98t223 32.5q93 0 183.5 -25t143.5 -86zM655 276q106 0 193 91l47 342q-60 90 -166 90q-94 0 -148 -75t-69 -186q-7 -69 -1.5 -127t42.5 -96.5t102 -38.5z" glyph-name="atilde.aalt" horiz-adv-x="1415"/><glyph d="M683 0h-393q-101 0 -162 70.5t-47 171.5l182 1294h461l-163 -1157q-6 -44 15.5 -68t65.5 -24h82z" glyph-name="l.aalt" horiz-adv-x="809"/><glyph d="M1038 1947l-309 -308h-338l224 308h423zM683 0h-393q-101 0 -162 70.5t-47 171.5l182 1294h461l-163 -1157q-6 -44 15.5 -68t65.5 -24h82z" glyph-name="lacute.aalt" horiz-adv-x="809"/><glyph d="M642 0h-393q-101 0 -162 70.5t-47 171.5l182 1294h461l-163 -1157q-6 -44 15.5 -68t65.5 -24h82zM877 1382h460l-245 -654h-410z" glyph-name="lcaron.aalt" horiz-adv-x="1341"/><glyph d="M683 0h-393q-101 0 -162 70.5t-47 171.5l182 1294h461l-163 -1157q-6 -44 15.5 -68t65.5 -24h82zM118 -141h346l-184 -491h-309z" glyph-name="lcommaaccent.aalt" horiz-adv-x="809"/><glyph d="M683 0h-393q-101 0 -162 70.5t-47 171.5l182 1294h461l-163 -1157q-6 -44 15.5 -68t65.5 -24h82zM116 -102h398l-42 -298h-398z" glyph-name="uni1E37.aalt" horiz-adv-x="809"/><glyph d="M614 756l-53 -377q-6 -44 15.5 -68t65.5 -24h82l-41 -287h-393q-101 0 -162 70.5t-47 171.5l62 442l-72 -11l25 184l73 11l94 668h461l-84 -596l126 19l-26 -184z" glyph-name="lslash.aalt" horiz-adv-x="809"/><glyph d="M1009 1075h486l-683 -1485h-418l170 410h-237l-210 1075h489l99 -735z" glyph-name="y.aalt" horiz-adv-x="1460"/><glyph d="M1298 1486l-309 -307h-338l225 307h422zM1009 1075h486l-683 -1485h-418l170 410h-237l-210 1075h489l99 -735z" glyph-name="yacute.aalt" horiz-adv-x="1460"/><glyph d="M847 1370l-158 -192h-338l276 307h473l189 -307h-338zM1009 1075h486l-683 -1485h-418l170 410h-237l-210 1075h489l99 -735z" glyph-name="ycircumflex.aalt" horiz-adv-x="1460"/><glyph d="M819 1476l-42 -298h-398l42 298h398zM1304 1476l-42 -298h-398l42 298h398zM1009 1075h486l-683 -1485h-418l170 410h-237l-210 1075h489l99 -735z" glyph-name="ydieresis.aalt" horiz-adv-x="1460"/><glyph d="M1009 1075h486l-683 -1485h-418l170 410h-237l-210 1075h489l99 -735zM1074 -410l40 301h372l-40 -301h-372z" glyph-name="uni1EF5.aalt" horiz-adv-x="1542"/><glyph d="M989 1179h-338l-223 307h423zM1009 1075h486l-683 -1485h-418l170 410h-237l-210 1075h489l99 -735z" glyph-name="ygrave.aalt" horiz-adv-x="1460"/><glyph d="M702 1243q-54 0 -66 -65h-217q10 78 37.5 136t66 92t81.5 50.5t89 16.5q63 0 155.5 -33t130.5 -33q54 0 67 66h217q-10 -78 -38 -136.5t-66.5 -92.5t-81.5 -50t-89 -16q-62 0 -154.5 32.5t-131.5 32.5zM1009 1075h486l-683 -1485h-418l170 410h-237l-210 1075h489 l99 -735z" glyph-name="uni1EF9.aalt" horiz-adv-x="1460"/><glyph d="M2594 1434l-49 -349h-364l-152 -1085h-502l152 1085h-727l-152 -1085h-502l153 1085h-364l49 349h2458z" glyph-name="T_T.dlig" horiz-adv-x="2478"/><glyph d="M1668 768l-55 -389q-6 -44 15.5 -68t65.5 -24h164l-41 -287h-476q-101 0 -162 70.5t-46 171.5l74 526h-500l-109 -768h-461l109 768h-162l43 307h162l30 219q14 100 95 171t182 71h475l-40 -287h-164q-44 0 -72 -24t-34 -68l-11 -82h500l29 205h461l-29 -205h257 l-43 -307h-257z" glyph-name="f_t.dlig" horiz-adv-x="1974"/><glyph d="M1236 1434h512l-40 -281h-512zM1672 1075l-43 -307l-108 -768h-461l108 768h-461l-56 -389q-6 -44 15.5 -68t65.5 -24h164l-41 -287h-475q-101 0 -162 70.5t-47 171.5l75 526h-162l43 307h162l28 205h461l-28 -205h922z" glyph-name="t_i.dlig" horiz-adv-x="1719"/><glyph d="M1719 768l-55 -389q-6 -44 15.5 -68t65.5 -24h164l-41 -287h-475q-101 0 -162.5 70.5t-46.5 171.5l74 526h-551l-56 -389q-6 -44 15.5 -68t65.5 -24h164l-41 -287h-475q-101 0 -162 70.5t-47 171.5l75 526h-162l43 307h162l28 205h461l-28 -205h552l28 205h461l-29 -205 h257l-43 -307h-257z" glyph-name="t_t.dlig" horiz-adv-x="2025"/><glyph d="M2249 1434h512l-40 -281h-512zM2685 1075l-152 -1075h-460l108 768h-462l-55 -389q-6 -44 15.5 -68t65.5 -24h164l-41 -287h-475q-101 0 -162.5 70.5t-46.5 171.5l74 526h-551l-56 -389q-6 -44 15.5 -68t65.5 -24h164l-41 -287h-475q-101 0 -162 70.5t-47 171.5l75 526 h-162l43 307h162l28 205h461l-28 -205h552l28 205h461l-29 -205h923z" glyph-name="t_t_i.dlig" horiz-adv-x="2732"/><glyph d="M1523 379q-6 -44 15.5 -68t65.5 -24h82l-41 -287h-394q-101 0 -162 70.5t-47 171.5l143 1007h-318q-44 0 -72 -24t-34 -68l-11 -82h257l-43 -307h-257l-109 -768h-461l109 768h-162l43 307h162l30 219q14 100 95 171t182 71h1090z" glyph-name="uniFB02.aalt" horiz-adv-x="1771"/><glyph d="M725 1434h221l-91 -646h-221l-4 55q-78 -67 -215 -67q-150 0 -228.5 82.5t-54.5 252.5q23 170 125 252.5t252 82.5q137 0 197 -67zM495 954q62 0 115 55l29 204q-38 54 -100 55q-56 0 -88.5 -44.5t-41.5 -112.5q-4 -41 -1 -76t25.5 -58t61.5 -23z" glyph-name="ordfeminine.aalt" horiz-adv-x="871"/><glyph d="M1028 1434h486l-683 -1434h-417l169 395h-237l-210 1039h490l98 -711z" glyph-name="afii10037.aalt" horiz-adv-x="1398"/><glyph d="M1039 1075h370l-152 -1075h-369l-7 90q-71 -60 -169 -85t-191 -25q-95 0 -174 19.5t-142.5 62t-102.5 109t-54 157.5t3 210q19 144 76 253t141.5 174.5t187.5 98t223 32.5q93 0 183.5 -25t143.5 -86zM655 276q106 0 193 91l47 342q-60 90 -166 90q-94 0 -148 -75 t-69 -186q-7 -69 -1.5 -127t42.5 -96.5t102 -38.5z" glyph-name="afii10065.aalt" horiz-adv-x="1415"/><glyph d="M1342 540q-37 -274 -230 -417t-489 -143q-294 0 -446.5 142.5t-115.5 417.5q38 269 230.5 414.5t488.5 145.5q195 0 329 -63t196.5 -190.5t36.5 -306.5zM659 236q53 0 92.5 24.5t63 71t35.5 94.5t21 114q7 50 9 91t-4 81.5t-20 68t-42.5 45t-69.5 17.5q-170 0 -212 -303 q-7 -51 -9.5 -91t2.5 -82t19 -69.5t43 -44.5t72 -17z" glyph-name="zero.oldstyle" horiz-adv-x="1403"/><glyph d="M838 307h286l-43 -307h-1034l43 307h287l58 410q-151 -100 -285 -138l50 358q142 26 281 138h465z" glyph-name="one.oldstyle" horiz-adv-x="1280"/><glyph d="M1069 307l-43 -307h-1020l43 307q51 27 127.5 65.5t123 62.5t105.5 55.5t95 55t70 52t51.5 55t21.5 53.5q6 44 -19.5 74.5t-75.5 30.5q-117 0 -292 -89l-92 256q126 59 230.5 87t227.5 28q117 0 209 -17t161.5 -52t102 -94.5t21.5 -138.5q-7 -49 -25.5 -94t-43 -81 t-64.5 -72.5t-76 -63.5t-91.5 -60.5t-98.5 -56t-110 -56.5h462z" glyph-name="two.oldstyle" horiz-adv-x="1183"/><glyph d="M267 1075h1138l-49 -348l-415 -244q94 -18 157 -43q279 -110 232 -392q-23 -145 -122 -244.5t-245 -143t-327 -39.5q-206 5 -336 35t-296 114l224 316q73 -51 206.5 -86t245.5 -32q72 0 128.5 21.5t64.5 63.5q12 60 -54 109.5t-189 49.5q-166 0 -237 -10l-44 307l481 218 h-612z" glyph-name="three.oldstyle" horiz-adv-x="1410"/><glyph d="M1507 286l-49 -348h-206l-42 -296h-460l42 296h-703l49 348l744 789h530l-110 -789h205zM563 286h278l50 360z" glyph-name="four.oldstyle" horiz-adv-x="1614"/><glyph d="M339 1075h1053l-50 -348h-654l-37 -162q84 7 187.5 1t168.5 -23q178 -48 266 -171t61 -293q-18 -121 -80 -211.5t-156 -145t-210 -79.5t-252 -22q-206 5 -336 35t-296 114l224 316q71 -50 204.5 -84t247.5 -34q76 0 131.5 27.5t66.5 88.5q9 50 -48.5 95t-146.5 69.5 t-177 24.5q-95 0 -232 -19l-73 101z" glyph-name="five.oldstyle" horiz-adv-x="1410"/><glyph d="M1333 465q-16 -123 -85 -218.5t-170.5 -151.5t-216.5 -84t-236 -28q-96 0 -184.5 16.5t-166 54.5t-132 93t-80 137t-11.5 181q6 44 15 75.5t34 77.5t49.5 81t86.5 113.5t118.5 145.5t170.5 206.5t219 269.5h543l-436 -539q147 35 259 -2q126 -40 185.5 -157t37.5 -271z M666.5 280q48.5 0 88 18t63 47t37 59.5t18 60.5t-1 60t-21 59t-50 47t-82.5 18t-87.5 -18t-63 -47t-37.5 -59t-18 -60t1 -60.5t21 -59.5t50 -47t82.5 -18z" glyph-name="six.oldstyle" horiz-adv-x="1404"/><glyph d="M187 1075h1117l-50 -348q-116 -123 -207.5 -237.5t-179.5 -249.5t-155.5 -285.5t-111.5 -312.5h-481q86 317 244 578t390 507h-615z" glyph-name="seven.oldstyle" horiz-adv-x="1239"/><glyph d="M1325 404q-14 -109 -77 -192t-160.5 -132t-214 -73.5t-248.5 -24.5q-104 0 -195.5 14.5t-169 47.5t-129.5 81.5t-76 119.5t-12 159q29 212 259 327q-121 112 -95 295q14 105 73.5 188t146.5 133.5t190 76t213.5 25.5t206 -25.5t169 -76t109 -133t20.5 -188.5 q-25 -183 -176 -295q195 -117 166 -327zM604 1005.5q-8 -59.5 26 -98t120 -38.5t130 39t52 97.5t-25.5 97.5t-119.5 39t-130.5 -38.5t-52.5 -98zM668 289q94 0 142.5 38.5t57 97.5t-29.5 97.5t-132 38.5q-95 0 -143 -39t-56 -97t29 -97t132 -39z" glyph-name="eight.oldstyle" horiz-adv-x="1404"/><glyph d="M123 613q16 123 85.5 219t170.5 151.5t216 84t236 28.5q96 0 184.5 -17t166.5 -55t132 -92.5t79.5 -136.5t11.5 -182q-6 -44 -15 -75.5t-34 -77t-49.5 -81t-86.5 -114t-118 -145.5t-170.5 -206t-219.5 -269h-543l436 538q-148 -35 -259 2q-127 40 -186 156.5t-37 271.5z M789.5 799q-48.5 0 -87.5 -18.5t-63 -47t-37.5 -59.5t-17.5 -61q-6 -42 3.5 -81t48 -71t101.5 -32q48 0 87.5 18t63 47t38 59.5t18.5 60t-1 60.5t-21 59.5t-50 47t-82.5 18.5z" glyph-name="nine.oldstyle" horiz-adv-x="1404"/><glyph d="M1434 717q-25 -182 -91.5 -323.5t-164.5 -231.5t-221.5 -136t-268.5 -46q-143 0 -253 46t-183 136t-99 231.5t0 323.5q50 354 249 545.5t494 191.5q145 0 256.5 -48t182.5 -139.5t97.5 -231.5t1.5 -318zM736 317q36 0 66.5 15t53 44.5t39 64.5t29.5 83t21.5 92t17.5 101 q12 104 13.5 193t-30.5 147.5t-98 58.5q-170 0 -224 -399q-12 -86 -15.5 -149t5 -124.5t39 -94t83.5 -32.5z" glyph-name="zero.tnum" horiz-adv-x="1536"/><glyph d="M972 348h348l-49 -348h-1157l49 348h348l98 696q-151 -100 -285 -138l54 389q142 26 281 139h465z" glyph-name="one.tnum" horiz-adv-x="1536"/><glyph d="M1373 348l-49 -348h-1263l50 348q135 70 242.5 130.5t218 129.5t185 128.5t125.5 119.5t58 111q8 58 -26 98.5t-101 41.5q-215 3 -427 -105l-115 300q168 80 307.5 116.5t302.5 36.5q293 0 440 -111t122 -291q-10 -71 -37 -137.5t-60 -120t-86 -108.5t-99 -95t-116 -88 t-120.5 -79t-126.5 -77h575z" glyph-name="two.tnum" horiz-adv-x="1536"/><glyph d="M330 1434h1137l-49 -349l-414 -243q94 -18 156 -43q279 -110 233 -392q-23 -145 -122.5 -245t-245 -143.5t-327.5 -38.5q-206 5 -336 34.5t-295 113.5l224 316q73 -51 206.5 -85.5t244.5 -31.5q72 0 129 21.5t65 63.5q12 60 -54.5 109t-189.5 49q-166 0 -236 -10l-44 307 l481 218h-612z" glyph-name="three.tnum" horiz-adv-x="1536"/><glyph d="M1467 644l-49 -348h-206l-42 -296h-460l42 296h-703l49 348l744 790h530l-110 -790h205zM523 644h278l50 361z" glyph-name="four.tnum" horiz-adv-x="1536"/><glyph d="M402 1434h1053l-49 -349h-654l-37 -161q84 7 187.5 1t167.5 -24q178 -48 266 -171t62 -293q-18 -121 -80.5 -211.5t-156.5 -144.5t-209.5 -79.5t-252.5 -21.5q-206 5 -336 34.5t-295 113.5l224 316q71 -50 204.5 -83.5t246.5 -33.5q76 0 132 27t66 88q9 50 -48 95.5 t-146.5 70t-177.5 24.5q-95 0 -231 -20l-74 102z" glyph-name="five.tnum" horiz-adv-x="1536"/><glyph d="M1399 466q-16 -123 -85.5 -218.5t-171 -151.5t-216 -84t-236.5 -28q-96 0 -184 16.5t-166 54.5t-132 93t-80 137t-11 181q6 44 14.5 75.5t33.5 77.5t50 81t87 113.5t118 145.5t170.5 206.5t219.5 269.5h543l-437 -539q147 35 260 -2q126 -40 185.5 -157t37.5 -271z M732 281q48 0 87.5 18t63 47t37.5 59.5t18 60.5t-1 60t-21 59t-50.5 47t-82.5 18t-87.5 -18t-63 -47t-37 -59t-18 -60t1 -60.5t21 -59.5t50 -47t82.5 -18z" glyph-name="six.tnum" horiz-adv-x="1536"/><glyph d="M336 1434h1116l-49 -349q-116 -123 -207.5 -237.5t-179.5 -249t-155.5 -285t-111.5 -313.5h-482q86 317 244.5 578.5t389.5 506.5h-614z" glyph-name="seven.tnum" horiz-adv-x="1536"/><glyph d="M1391 404q-14 -109 -77.5 -192t-160.5 -132t-214 -73.5t-249 -24.5q-104 0 -195.5 14.5t-168.5 47.5t-129.5 81.5t-76.5 119.5t-11 159q29 212 259 327q-121 112 -96 295q14 105 74 188t147 133.5t189.5 76t213.5 25.5t206 -25.5t169 -76t109 -133t21 -188.5 q-25 -183 -176 -295q195 -117 166 -327zM670 1005.5q-8 -59.5 25.5 -98t119.5 -38.5t130 39t52.5 97.5t-25 97.5t-119.5 39t-130.5 -38.5t-52.5 -98zM733 289q94 0 143 38.5t57 97.5t-30 97.5t-132 38.5q-95 0 -142.5 -39t-56 -97t28.5 -97t132 -39z" glyph-name="eight.tnum" horiz-adv-x="1536"/><glyph d="M188 972q16 123 85.5 218.5t171 151.5t216 84t236.5 28q96 0 184 -17t166 -54.5t132.5 -92.5t80 -137t10.5 -181q-6 -44 -14.5 -76t-33.5 -77.5t-49.5 -81t-86.5 -113.5t-118.5 -145t-170.5 -206.5t-220 -269.5h-543l437 539q-148 -35 -259 2q-127 40 -186.5 156.5 t-37.5 271.5zM855 1157q-48 0 -87.5 -18.5t-63 -47t-37.5 -59.5t-18 -60q-6 -42 4 -81.5t48 -71.5t102 -32q48 0 87.5 18t63 47.5t38 59.5t18.5 59.5t-1 60.5t-21 59.5t-50.5 47t-82.5 18.5z" glyph-name="nine.tnum" horiz-adv-x="1536"/><glyph d="M830 1454q145 0 256.5 -48t182.5 -139.5t97.5 -231.5t1.5 -318q-25 -182 -91.5 -323.5t-164 -231.5t-221.5 -136t-268 -46q-143 0 -253.5 46t-183 136t-99 231.5t-0.5 323.5q50 354 249 545.5t494 191.5zM782 1116q-170 0 -224 -399q-7 -49 -12 -100l320 462 q-32 37 -84 37zM671 317q36 0 66 15t52.5 44.5t39.5 64.5t29.5 83t21.5 92t17 101q13 103 14 163l-345 -498q32 -65 105 -65z" glyph-name="zero.zero" horiz-adv-x="1403"/><glyph d="M805 430q-30 -216 -149.5 -329t-297 -113t-265.5 113t-57 329q30 213 149.5 327.5t296.5 114.5t265 -114.5t58 -327.5zM386 190q33 0 57 19.5t39 56.5t24 74.5t16 89.5q34 240 -68 240q-101 0 -136 -240q-7 -62 -9.5 -115.5t16.5 -89t61 -35.5z" glyph-name="zero.dnom" horiz-adv-x="871"/><glyph d="M490 209h209l-29 -209h-695l30 209h209l58 418q-87 -59 -171 -83l33 233q87 15 169 83h279z" glyph-name="one.dnom" horiz-adv-x="796"/><glyph d="M763 209l-30 -209h-758l30 209q220 115 354 208t144 163q5 36 -15.5 60t-60.5 25q-130 2 -257 -64l-69 180q100 47 184.5 69.5t181.5 22.5q175 0 263.5 -66.5t73.5 -174.5q-8 -59 -36 -113t-60.5 -93.5t-87.5 -82t-96.5 -69t-106.5 -65.5h346z" glyph-name="two.dnom" horiz-adv-x="860"/><glyph d="M144 860h683l-29 -209l-249 -146q52 -9 94 -26q166 -65 139 -235q-20 -130 -134 -195t-282 -61q-124 3 -202 21t-177 68l134 189q44 -30 124.5 -50.5t146.5 -19.5q43 0 77 13t39 38q7 37 -32.5 66t-113.5 29q-99 0 -142 -6l-26 184l288 131h-367z" glyph-name="three.dnom" horiz-adv-x="874"/><glyph d="M833 386l-29 -209h-124l-25 -177h-276l24 177h-402l29 209l428 474h318l-66 -474h123zM285 386h148l31 217z" glyph-name="four.dnom" horiz-adv-x="905"/><glyph d="M177 860h642l-29 -209h-403l-22 -97q50 5 117.5 1t105.5 -14q106 -29 159.5 -102.5t36.5 -176.5q-23 -142 -136 -210t-282 -64q-124 3 -202 21t-177 68l134 189q43 -30 123.5 -50t147.5 -20q105 0 119 69q5 30 -32 57t-92.5 42t-108.5 15q-65 0 -144 -11l-40 60z" glyph-name="five.dnom" horiz-adv-x="874"/><glyph d="M785 292q-10 -74 -51.5 -132t-102.5 -91t-130 -50t-142 -17q-57 0 -109.5 10.5t-99.5 33t-79 55.5t-47.5 82t-7.5 109q4 27 9.5 45.5t20 46.5t29.5 49t52 67.5t70.5 87t102.5 124t132 160.5h326l-261 -322q89 19 154 -2q76 -24 111.5 -94t22.5 -162zM385 180 q55 0 86.5 35t37.5 77q6 41 -16 75.5t-77 34.5q-54 0 -85.5 -34.5t-37.5 -75.5q-3 -26 2.5 -49.5t28.5 -43t61 -19.5z" glyph-name="six.dnom" horiz-adv-x="871"/><glyph d="M96 860h670l-29 -209q-145 -154 -244 -309t-149 -342h-289q51 190 146.5 347t234.5 304h-368z" glyph-name="seven.dnom" horiz-adv-x="772"/><glyph d="M779 243q-9 -66 -47 -115.5t-96 -79.5t-128 -44.5t-150 -14.5q-79 0 -144.5 14.5t-115.5 44.5t-73.5 79.5t-14.5 115.5q17 127 155 195q-73 68 -56 177q11 84 69.5 143t136 85t167.5 26q67 0 124.5 -15t101.5 -45.5t65.5 -80t11.5 -113.5q-14 -111 -106 -177 q117 -69 100 -195zM347 603q-5 -36 15 -59t71 -23q98 0 111 82q4 36 -16 59t-71 23q-52 0 -79 -23t-31 -59zM385 173q56 0 85.5 23.5t33.5 58.5q5 36 -17 59t-79 23q-108 0 -120 -82q-5 -36 17.5 -59t79.5 -23z" glyph-name="eight.dnom" horiz-adv-x="871"/><glyph d="M57 583q10 74 52 131.5t102.5 91t130 50t142 16.5t136.5 -16.5t115 -50t76.5 -91.5t14.5 -131q-4 -27 -8.5 -46t-20 -46.5t-29.5 -48t-51.5 -68t-71 -87t-103 -124t-131.5 -161.5h-326l262 323q-90 -19 -156 2q-76 24 -111 94t-23 162zM457.5 694q-55.5 0 -86.5 -34.5 t-37 -76.5q-6 -41 16 -76t77 -35q54 0 85.5 35t37.5 76t-15.5 76t-77 35z" glyph-name="nine.dnom" horiz-adv-x="871"/><glyph d="M885 1001q-30 -216 -150 -329t-297 -113t-265 113t-57 329q30 213 149.5 328t296.5 115t265 -115t58 -328zM466 762q33 0 57 19.5t39 56t24 74t16 89.5q34 240 -68 240q-101 0 -136 -240q-7 -62 -9.5 -115t16.5 -88.5t61 -35.5z" glyph-name="zero.numr" horiz-adv-x="871"/><glyph d="M571 782h209l-29 -209h-695l30 209h209l58 418q-87 -59 -171 -83l33 234q87 15 169 83h279z" glyph-name="one.numr" horiz-adv-x="796"/><glyph d="M842 769l-30 -209h-758l30 209q220 115 353.5 208t144.5 163q5 36 -15.5 60t-60.5 25q-130 2 -257 -64l-69 180q100 47 184.5 70t181.5 23q175 0 263.5 -67t73.5 -175q-8 -59 -36 -113t-60.5 -93.5t-87.5 -82t-96.5 -69t-106.5 -65.5h346z" glyph-name="two.numr" horiz-adv-x="860"/><glyph d="M225 1434h683l-29 -209l-249 -147q52 -9 94 -25q166 -65 139 -236q-20 -130 -134.5 -195t-282.5 -61q-124 3 -201.5 21t-176.5 68l134 190q44 -30 124.5 -51t146.5 -20q43 0 77 13.5t39 37.5q7 37 -32.5 66t-113.5 29q-99 0 -142 -6l-27 185l289 131h-367z" glyph-name="three.numr" horiz-adv-x="874"/><glyph d="M913 959l-28 -208h-124l-25 -178h-276l24 178h-402l29 208l428 475h318l-66 -475h122zM366 959h148l31 218z" glyph-name="four.numr" horiz-adv-x="905"/><glyph d="M258 1434h642l-30 -209h-402l-23 -98q50 5 118 1t106 -14q106 -29 159.5 -102.5t36.5 -175.5q-23 -142 -136.5 -210.5t-282.5 -64.5q-124 3 -201.5 21t-176.5 68l134 190q43 -30 123.5 -50.5t147.5 -20.5q105 0 119 70q5 30 -32 57t-92.5 41.5t-109.5 14.5 q-65 0 -143 -11l-40 60z" glyph-name="five.numr" horiz-adv-x="874"/><glyph d="M864 853q-10 -74 -51.5 -131.5t-102.5 -91t-130 -50.5t-142 -17q-57 0 -110 10.5t-99.5 33t-78.5 55.5t-47.5 82.5t-7.5 108.5q4 27 9.5 46t20 46.5t29.5 48.5t52 67.5t70.5 87t102 124t132.5 161.5h326l-262 -323q89 19 155 -2q76 -24 111.5 -94t22.5 -162zM464 741 q55 0 86.5 35t37.5 77q6 41 -16 76t-77 35q-54 0 -85.5 -35t-37.5 -76q-3 -26 2.5 -49.5t28.5 -43t61 -19.5z" glyph-name="six.numr" horiz-adv-x="871"/><glyph d="M177 1434h670l-29 -209q-145 -154 -244 -309t-149 -343h-289q51 190 146.5 347t234.5 305h-369z" glyph-name="seven.numr" horiz-adv-x="772"/><glyph d="M860 817q-9 -66 -47 -115.5t-96.5 -79t-128 -44.5t-149.5 -15q-79 0 -144.5 15t-115.5 44.5t-73.5 79.5t-14.5 115q17 127 155 196q-73 68 -57 177q11 84 69.5 143t136.5 85t168 26q67 0 124 -15.5t101.5 -45.5t66 -80t11.5 -113q-14 -111 -106 -177q117 -70 100 -196z M428 1178q-5 -36 15 -59t71 -23q98 0 111 82q4 36 -16 59t-71 23q-52 0 -79 -23t-31 -59zM466 748q56 0 85.5 23.5t33.5 57.5q5 36 -17 59t-80 23q-108 0 -119 -82q-5 -36 17.5 -58.5t79.5 -22.5z" glyph-name="eight.numr" horiz-adv-x="871"/><glyph d="M137 1154q10 74 51.5 131.5t102.5 91t130 50.5t142 17t137 -17t115 -50.5t76 -91t15 -131.5q-4 -27 -8.5 -45.5t-20 -46.5t-29.5 -48.5t-51.5 -68t-71 -87t-103 -124t-132.5 -161.5h-325l262 323q-90 -19 -156 2q-76 24 -111 94t-23 162zM537.5 1266q-55.5 0 -86.5 -35 t-37 -77q-6 -41 16 -76t77 -35q54 0 85.5 35t37.5 76t-15.5 76.5t-77 35.5z" glyph-name="nine.numr" horiz-adv-x="871"/><glyph d="M191 1024h717l-86 -614h-717z" glyph-name="bullet.aalt" horiz-adv-x="963"/><glyph d="M229 -307q-155 505 -80.5 1027t368.5 1021h424q-123 -219 -207.5 -484t-121.5 -532.5t-27 -535.5t68 -496h-424z" glyph-name="parenleft.aalt" horiz-adv-x="894"/><glyph d="M428 -307h-424q250 464 331 1031.5t-43 1016.5h424q155 -497 81.5 -1021t-369.5 -1027z" glyph-name="parenright.aalt" horiz-adv-x="893"/><glyph d="M595 -282q-420 0 -365 398l45 320q8 60 -24 92t-124 35l43 307q92 3 134 35t50 92l45 321q55 397 477 397h250l-44 -307h-75q-77 0 -110 -28.5t-43 -105.5l-51 -363q-25 -184 -265 -192l-1 -4q126 -4 175 -55.5t37 -137.5l-52 -362q-10 -77 14.5 -105.5t101.5 -28.5h76 l-43 -308h-251z" glyph-name="braceleft.aalt" horiz-adv-x="1083"/><glyph d="M259 -282h-251l43 308h76q77 0 109.5 28.5t43.5 105.5l51 362q27 184 265 193l1 4q-126 4 -174.5 54.5t-37.5 137.5l51 363q10 77 -14.5 105.5t-100.5 28.5h-76l44 307h251q419 0 363 -397l-45 -321q-8 -60 24.5 -92t125.5 -35l-43 -307q-93 -3 -135.5 -34.5t-50.5 -92.5 l-45 -320q-55 -398 -475 -398z" glyph-name="braceright.aalt" horiz-adv-x="1083"/><glyph d="M289 1715h728l-43 -307h-267l-195 -1382h267l-43 -308h-728z" glyph-name="bracketleft.aalt" horiz-adv-x="974"/><glyph d="M1017 1715l-281 -1997h-728l43 308h267l195 1382h-267l43 307h728z" glyph-name="bracketright.aalt" horiz-adv-x="973"/><glyph d="M173 891h614l-49 -348h-614z" glyph-name="hyphen.aalt" horiz-adv-x="861"/><glyph d="M173 891h1024l-49 -348h-1024z" glyph-name="endash.aalt" horiz-adv-x="1270"/><glyph d="M173 891h1434l-49 -348h-1434z" glyph-name="emdash.aalt" horiz-adv-x="1680"/><glyph d="M999 1075l-391 -384l284 -384h-464l-284 384l392 384h463zM1668 1075l-391 -384l284 -384h-464l-284 384l391 384h464z" glyph-name="guillemotleft.aalt" horiz-adv-x="1716"/><glyph d="M199 1075h464l283 -384l-392 -384h-464l392 384zM867 1075h464l284 -384l-392 -384h-464l392 384z" glyph-name="guillemotright.aalt" horiz-adv-x="1716"/><glyph d="M999 1075l-391 -384l284 -384h-464l-284 384l392 384h463z" glyph-name="guilsinglleft.aalt" horiz-adv-x="1047"/><glyph d="M199 1075h464l284 -384l-392 -384h-464l392 384z" glyph-name="guilsinglright.aalt" horiz-adv-x="1048"/><glyph d="M1591 607q-66 -177 -215 -321l258 -286h-507l-67 76q-211 -96 -432 -96q-307 0 -464.5 118.5t-129.5 316.5q20 141 127.5 248t263.5 134q-51 22 -84.5 59.5t-44 78t-14.5 84.5t4 78q23 165 187 261t417 96q250 0 396.5 -98t123.5 -259q-16 -112 -131.5 -208t-305.5 -159 l192 -211q55 78 84 179zM877 1180q-61 0 -104 -30t-49 -72q-4 -34 14 -67t74 -101q85 31 134 76.5t55.5 89.5t-26.5 74t-98 30zM711 271q82 0 155 25l-269 307q-94 -58 -108 -150q-10 -77 49 -129.5t173 -52.5z" glyph-name="ampersand.aalt" horiz-adv-x="1761"/><glyph d="M-827 1803h398l-42 -298h-398zM-342 1803h397l-42 -298h-397z" glyph-name="uni0308.aalt" horiz-adv-x="0"/><glyph d="M-343 1803h398l-42 -298h-398z" glyph-name="uni0307.aalt" horiz-adv-x="0"/><glyph d="M-548 1812h423l138 -307h-338z" glyph-name="gravecomb.aalt" horiz-adv-x="0"/><glyph d="M56 1812l-309 -307h-338l224 307h423z" glyph-name="acutecomb.aalt" horiz-adv-x="0"/><glyph d="M-309 1833l-213 -348h-291l210 348h294zM59 1833l-213 -348h-290l210 348h293z" glyph-name="uni030B.aalt" horiz-adv-x="0"/><glyph d="M10 1485h-338l-104 192l-158 -192h-338l276 307h473z" glyph-name="uni0302.aalt" horiz-adv-x="0"/><glyph d="M-285 1792h338l-275 -307h-473l-190 307h338l105 -193z" glyph-name="uni030C.aalt" horiz-adv-x="0"/><glyph d="M53 1792q-53 -145 -165.5 -226t-262.5 -81q-151 0 -241.5 81t-101.5 226h266q7 -97 107 -97q48 0 82 26.5t50 70.5h266z" glyph-name="uni0306.aalt" horiz-adv-x="0"/><glyph d="M-270.5 1485q-115.5 0 -187 83t-55.5 198q17 116 111.5 199t210 83t187 -83t55 -198.5t-111 -198.5t-210 -83zM-241.5 1689q31.5 0 57.5 23t30 54.5t-15 54.5t-51 23t-58 -23t-31 -55q-4 -32 16 -54.5t51.5 -22.5z" glyph-name="uni030A.aalt" horiz-adv-x="0"/><glyph d="M-793 1485q10 78 38 136t66.5 92t81.5 50.5t89 16.5q63 0 155.5 -33t130.5 -33q54 0 66 66h217q-10 -78 -37.5 -136.5t-66 -92t-81.5 -50t-89 -16.5q-62 0 -154.5 32.5t-131.5 32.5q-54 0 -66 -65h-218z" glyph-name="tildecomb.aalt" horiz-adv-x="0"/><glyph d="M-568 1741h614l-36 -256h-614z" glyph-name="uni0304.aalt" horiz-adv-x="0"/><glyph d="M-16 1574h-345l184 490h307z" glyph-name="uni0312.aalt" horiz-adv-x="0"/><glyph d="M10 1485q-53 -145 -165.5 -226t-262.5 -81q-151 0 -241.5 80.5t-101.5 226.5h266q7 -97 107 -97q48 0 82 26.5t50 70.5h266z" glyph-name="glyph666" horiz-adv-x="0"/><glyph d="M811 0q-195 0 -359.5 96.5t-261 261t-96.5 359t96.5 359.5t261 261.5t359.5 96.5t359.5 -96.5t261 -261.5t96.5 -359.5t-96.5 -359t-261 -261t-359.5 -96.5zM1200 977l-163 32v-420q0 -11 -12.5 -20t-32.5 -9q-17 0 -30 9t-13 20v322h-537l-31 -135h138v-337h162v337h104 v-220q0 -53 61 -91.5t146 -38.5q86 0 147 38t61 92v421z" glyph-name="glyph667" horiz-adv-x="1570"/></font>
</defs>
</svg>
