<?xml version="1.0" standalone="no"?>
<!DOCTYPE svg PUBLIC "-//W3C//DTD SVG 1.1//EN" "http://www.w3.org/Graphics/SVG/1.1/DTD/svg11.dtd">
<svg xmlns="http://www.w3.org/2000/svg"><metadata>This SVG WebFont was generated by YouWorkForThem.
Copyright Â© 2019 by TypeUnion. All rights reserved.</metadata><defs><font horiz-adv-x="0" id="ywftsvg"><font-face ascent="1638" bbox="-1002 -611 2835.03 2068" cap-height="1434" descent="-410" font-family="" font-stretch="normal" font-weight="700" panose-1="0 0 8 0 0 0 0 0 0 0" underline-position="0" underline-thickness="0" unicode-range="U+0020-FB02" units-per-em="2048" x-height="1083"/><missing-glyph d="M140 1434h1103v-1434h-1103v1434zM952 258v918h-520v-918h520z" horiz-adv-x="1383"/><glyph d="M1485 1083v-1083h-390v821h-466v-821h-390v821h-165v262h165v214q0 100 66 169.5t163 69.5h423v-246h-163q-47 0 -73 -28t-26 -78v-101h856zM1070 1434h440v-245h-440v245z" glyph-name="uniFB01" horiz-adv-x="1625" unicode="fi"/><glyph d="M1451 1536v-1536h-390v1290h-333q-47 0 -73 -28t-26 -78v-101h262v-262h-262v-821h-390v821h-165v262h165v214q0 100 66 169.5t163 69.5h983z" glyph-name="uniFB02" horiz-adv-x="1556" unicode="fl"/><glyph d="M1708 1290q-47 0 -73 -28t-26 -78v-101h262v-262h-262v-821h-390v821h-590v-821h-390v821h-165v262h165v214q0 100 66 169.5t163 69.5h423v-246h-163q-47 0 -73 -28t-26 -78v-101h590v214q0 100 66 169.5t163 69.5h423v-246h-163z" glyph-name="f_f.liga" horiz-adv-x="1977" unicode="ff"/><glyph d="M2508 1083v-1083h-390v821h-509v-821h-390v821h-590v-821h-390v821h-165v262h165v214q0 100 66 169.5t163 69.5h423v-246h-163q-47 0 -73 -28t-26 -78v-101h590v214q0 100 66 169.5t163 69.5h423v-246h-163q-47 0 -73 -28t-26 -78v-101h899zM2092 1434h440v-245h-440v245 z" glyph-name="f_f_i.liga" horiz-adv-x="2648" unicode="ffi"/><glyph d="M140 1434h1103v-1434h-1103v1434zM952 258v918h-520v-918h520z" glyph-name=".notdef" horiz-adv-x="1383"/><glyph glyph-name="glyph1"/><glyph glyph-name="glyph2" horiz-adv-x="681"/><glyph glyph-name="space" horiz-adv-x="427" unicode=" "/><glyph d="M209 350l-44 1084h390l-43 -1084h-303zM140 0v245h441v-245h-441z" glyph-name="exclam" horiz-adv-x="720" unicode="!"/><glyph d="M140 1451h347l-26 -623h-294zM590 1451h348l-27 -623h-295z" glyph-name="quotedbl" horiz-adv-x="1077" unicode="&quot;"/><glyph d="M1362 859l-63 -282h194l-52 -255h-194l-70 -322h-406l71 322h-236l-70 -322h-407l71 322h-190l52 255h189l62 282h-191l52 254h192l70 321h407l-71 -321h236l70 321h406l-71 -321h190l-53 -254h-188zM955 859h-235l-63 -282h236z" glyph-name="numbersign" horiz-adv-x="1620" unicode="#"/><glyph d="M858 836q399 -127 383 -460q-4 -89 -45 -159.5t-110.5 -115t-153 -71t-183.5 -38.5v-160h-178v150q-123 0 -248.5 28.5t-222.5 81.5l1 323q249 -137 472 -137q48 0 93 7t83.5 22t62 42t23.5 63q0 37 -29.5 65t-82 47.5t-107 33.5t-123 33t-111.5 37q-156 66 -232.5 166.5 t-69.5 260.5q7 158 135.5 263t355.5 129v155h178v-150q207 -8 376 -96l-1 -322q-116 67 -215.5 95.5t-213.5 27.5q-79 -1 -137.5 -32.5t-63.5 -90.5q-3 -26 6.5 -47t31.5 -37.5t48 -29.5t63.5 -24t69 -20t74 -20t71.5 -20z" glyph-name="dollar" horiz-adv-x="1320" unicode="$"/><glyph d="M817 1002q1 -216 -99.5 -328.5t-272.5 -112.5q-171 0 -271 112t-100 329q0 213 99.5 327.5t271.5 114.5t272 -114.5t100 -327.5zM1252 1434h190l-766 -1434h-189zM445 736q130 0 130 266.5t-130 266.5t-130 -266.5t130 -266.5zM1843 430q1 -216 -100 -328.5t-273 -112.5 q-171 0 -271 112t-100 329q0 213 99.5 327t271.5 114t272.5 -114t100.5 -327zM1470 164q131 0 131.5 266t-131.5 266q-130 0 -130 -266t130 -266z" glyph-name="percent" horiz-adv-x="1916" unicode="%"/><glyph d="M1439 597h-126v-194q1 -108 -50 -190.5t-138.5 -131.5t-196.5 -73.5t-235 -24.5t-234.5 24.5t-196 73.5t-138 132t-50.5 190q0 117 63.5 202t171.5 136q-158 108 -157 299q0 82 29.5 149.5t80.5 115t120.5 80t147.5 48t163 15.5t163.5 -15.5t147.5 -48t120.5 -80t81 -115 t29.5 -149.5l-340 -17q0 73 -51 118t-150.5 45t-150.5 -45t-51 -118q0 -72 52.5 -117.5t148.5 -45.5h746v-263zM923 421v176h-230q-110 0 -169.5 -49t-59.5 -127q0 -79 60 -127t169.5 -48t169.5 48t60 127z" glyph-name="ampersand" horiz-adv-x="1512" unicode="&amp;"/><glyph d="M140 1451h347l-26 -623h-294z" glyph-name="quotesingle" horiz-adv-x="627" unicode="'"/><glyph d="M362 -482q-223 505 -222.5 1027t222.5 1021h360q-190 -460 -189 -1017t189 -1031h-360z" glyph-name="parenleft" horiz-adv-x="862" unicode="("/><glyph d="M500 -482h-360q189 474 190.5 1031t-190.5 1017h360q222 -499 222.5 -1021t-222.5 -1027z" glyph-name="parenright" horiz-adv-x="862" unicode=")"/><glyph d="M831 1089l-235 -81l148 -194l-147 -118l-145 189l-144 -189l-148 118l148 194l-234 81l61 175l223 -78v248h189v-248l223 78z" glyph-name="asterisk" horiz-adv-x="905" unicode="*"/><glyph d="M1129 848v-262h-299v-335h-390v335h-300v262h300v335h390v-335h299z" glyph-name="plus" horiz-adv-x="1269" unicode="+"/><glyph d="M148 291h393l-141 -614h-345z" glyph-name="comma" horiz-adv-x="680" unicode=","/><glyph d="M140 690h580v-297h-580v297z" glyph-name="hyphen" horiz-adv-x="860" unicode="-"/><glyph d="M140 333h441v-333h-441v333z" glyph-name="period" horiz-adv-x="720" unicode="."/><glyph d="M905 1434l-453 -1434h-398l454 1434h397z" glyph-name="slash" horiz-adv-x="960" unicode="/"/><glyph d="M1318 717q1 -360 -166.5 -547.5t-454.5 -187.5q-286 0 -452 187t-166 548q0 355 166 545t452 190q288 0 454.5 -190t166.5 -545zM697 269q222 0 223 448q0 96 -12 174.5t-37 141.5t-69 97t-105 34q-59 0 -102.5 -34t-68.5 -97t-37 -141.5t-12 -174.5q0 -448 220 -448z " glyph-name="zero" horiz-adv-x="1396" unicode="0"/><glyph d="M881 297h349v-297h-1090v297h350v806q-138 -96 -272 -134v331q140 27 268 134h395v-1137z" glyph-name="one" horiz-adv-x="1370" unicode="1"/><glyph d="M1299 297v-297h-1220v297q133 82 226.5 142.5t206 141.5t181.5 145t116 132.5t47 124.5q0 75 -52.5 124t-144.5 50q-219 2 -411 -111l-135 253q144 79 274.5 116.5t286.5 37.5q283 0 440 -109.5t157 -288.5q0 -70 -20 -138t-50.5 -124t-82 -116t-97 -104t-115.5 -98 t-118 -88.5t-122 -85.5q-4 -2 -7 -4h640z" glyph-name="two" horiz-adv-x="1378" unicode="2"/><glyph d="M151 1434h1099v-297l-419 -302q94 -11 165 -33q157 -45 239.5 -144t80.5 -250q-3 -214 -170 -323t-443 -103q-195 4 -328.5 34.5t-295.5 113.5l154 268q80 -53 216.5 -88.5t249.5 -33.5q98 1 163 36t67 100q3 80 -78 136.5t-216 56.5q-154 0 -239 -17l-78 260l486 289 h-653v297z" glyph-name="three" horiz-adv-x="1394" unicode="3"/><glyph d="M1456 611v-296h-220v-315h-390v315h-706v296l646 823h450v-823h220zM502 611h344v455z" glyph-name="four" horiz-adv-x="1596" unicode="4"/><glyph d="M224 1434h1008v-297h-670l-20 -234q88 10 191 7t176 -17q189 -41 299 -161.5t108 -295.5q-1 -119 -47 -208.5t-128.5 -143t-192 -80t-245.5 -22.5q-195 4 -328.5 34.5t-295.5 113.5l154 268q79 -52 215 -87t251 -35q101 1 164.5 40.5t65.5 123.5q1 61 -61.5 113.5 t-155 80.5t-188.5 28q-120 0 -262 -25l-77 88z" glyph-name="five" horiz-adv-x="1394" unicode="5"/><glyph d="M1328 468q1 -99 -35 -181t-96.5 -137.5t-141.5 -93.5t-169.5 -55t-182 -17t-181.5 17t-169.5 55t-141.5 93.5t-96 137.5t-36 181q0 46 4 78.5t23.5 79.5t39 80.5t72.5 112.5t100 144t146 205t187 266h461l-376 -536q140 40 264 9q146 -35 237 -153t91 -286zM703.5 238 q109.5 0 172 69t62.5 161q0 93 -62.5 161.5t-172.5 68.5q-109 0 -171.5 -69.5t-62.5 -160.5q0 -92 62.5 -161t172 -69z" glyph-name="six" horiz-adv-x="1406" unicode="6"/><glyph d="M79 1434h1078v-297q-208 -262 -339.5 -536.5t-175.5 -600.5h-408q45 332 170.5 608t327.5 529h-653v297z" glyph-name="seven" horiz-adv-x="1235" unicode="7"/><glyph d="M1318 403q1 -108 -49.5 -190.5t-138.5 -131.5t-197 -73.5t-235 -24.5t-234.5 24.5t-196 73.5t-138 132t-50.5 190q0 117 63.5 202t171.5 136q-158 108 -157 299q0 82 29.5 149.5t80.5 115t120.5 80t147.5 48t163 15.5t163.5 -15.5t147.5 -48t120.5 -80t81 -115 t29.5 -149.5q1 -190 -157 -299q108 -52 171.5 -137t63.5 -201zM497 1023q0 -72 52.5 -117.5t149 -45.5t149 45.5t52.5 117.5q0 73 -51 118t-150.5 45t-150.5 -45t-51 -118zM698.5 246q109.5 0 169.5 48t60 127q0 78 -60 127t-169.5 49t-169.5 -49t-60 -127q0 -79 60 -127 t169.5 -48z" glyph-name="eight" horiz-adv-x="1396" unicode="8"/><glyph d="M79 968q-1 99 35 181t96.5 137t141.5 93.5t169.5 55.5t182 17t181.5 -17t169.5 -55.5t141.5 -93.5t96 -137t36 -181q0 -45 -4 -78t-23.5 -79.5t-38.5 -81t-72.5 -113t-100.5 -143.5t-146 -205t-187 -266h-461l375 536q-141 -40 -263 -10q-146 35 -237 153.5t-91 286.5z M703.5 1198q-109.5 0 -172 -68.5t-62.5 -162t62.5 -161.5t171.5 -68t172 69.5t63 160.5q0 93 -62.5 161.5t-172 68.5z" glyph-name="nine" horiz-adv-x="1406" unicode="9"/><glyph d="M140 1083h441v-332h-441v332zM140 333h441v-333h-441v333z" glyph-name="colon" horiz-adv-x="720" unicode=":"/><glyph d="M140 1083h441v-332h-441v332zM165 291h391l-139 -614h-346z" glyph-name="semicolon" horiz-adv-x="720" unicode=";"/><glyph d="M1093 1205v-331l-642 -172l642 -173v-330l-953 256v494z" glyph-name="less" horiz-adv-x="1232" unicode="&lt;"/><glyph d="M1129 800h-989v262h989v-262zM1129 372h-989v262h989v-262z" glyph-name="equal" horiz-adv-x="1269" unicode="="/><glyph d="M140 1205l953 -256v-494l-953 -256v330l642 173l-642 172v331z" glyph-name="greater" horiz-adv-x="1232" unicode=">"/><glyph d="M523 1434q175 4 309.5 -41t214.5 -143.5t82 -241.5q3 -151 -76 -251t-230 -145q-20 -7 -56 -13t-82.5 -12t-61.5 -9v-211h-355l-23 454q65 -11 216 -11q131 0 207.5 57t73.5 137q-2 65 -66.5 99.5t-156.5 34.5q-108 3 -235 -29.5t-205 -81.5v334q184 69 444 73zM226 0 v245h441v-245h-441z" glyph-name="question" horiz-adv-x="1208" unicode="?"/><glyph d="M1380 -83q-178 -69 -409 -69q-199 0 -365.5 62t-282 174t-180 271.5t-64.5 351.5q0 177 63 332.5t176 269.5t279.5 180t363.5 66q255 0 455.5 -101t311.5 -280.5t111 -403.5q0 -239 -110 -383t-301 -144q-108 0 -187 42.5t-108 121.5q-44 -55 -117.5 -80t-147.5 -25 q-175 0 -283.5 100.5t-109.5 304t108 304.5t285 101q74 0 147.5 -25t117.5 -79l12 90h232v-534q0 -48 29 -69t64 -21q74 0 111 80t37 209q0 267 -175.5 428.5t-488.5 161.5q-296 0 -474 -179t-178 -467q0 -310 185 -489t484 -179q188 0 353 54zM1087 602v210 q-50 113 -162 113q-79 0 -120.5 -61t-42.5 -157q0 -95 42 -156.5t121 -61.5q115 0 162 113z" glyph-name="at" horiz-adv-x="1917" unicode="@"/><glyph d="M1204 0l-85 257h-577l-85 -257h-447l527 1434h587l528 -1434h-448zM640 553h381l-191 575z" glyph-name="A" horiz-adv-x="1661" unicode="A"/><glyph d="M140 1434h828q185 0 301 -95.5t116 -271.5q1 -95 -41 -180t-109 -117q106 -38 162 -129.5t55 -228.5q0 -104 -40 -184.5t-111 -129.5t-161.5 -73.5t-198.5 -24.5h-801v1434zM564 1167v-316h243q181 0 181 156q0 90 -44.5 125t-136.5 35h-243zM840 258q187 -3 188 172 q1 84 -47 124t-139 40h-278v-333z" glyph-name="B" horiz-adv-x="1530" unicode="B"/><glyph d="M1241 1095q-201 78 -379 58q-159 -11 -259 -125t-100 -311.5t100 -311t259 -124.5q178 -19 379 58v-302q-174 -55 -378 -55q-154 0 -293.5 48t-249.5 137.5t-175.5 232t-65.5 317.5t65.5 317.5t175.5 232t250 137.5t293 48q204 0 378 -55v-302z" glyph-name="C" horiz-adv-x="1381" unicode="C"/><glyph d="M1545 717q0 -145 -37.5 -264t-103.5 -202.5t-158.5 -140.5t-201 -83.5t-232.5 -26.5h-672v1434h672q156 0 288 -45.5t232 -132t156.5 -225t56.5 -314.5zM769 297q165 0 258 117.5t93 302.5q0 183 -95 301.5t-256 118.5h-205v-840h205z" glyph-name="D" horiz-adv-x="1623" unicode="D"/><glyph d="M564 297h724v-297h-1148v1434h1148v-297h-724v-272h634v-297h-634v-271z" glyph-name="E" horiz-adv-x="1428" unicode="E"/><glyph d="M564 0h-424v1434h1107v-297h-683v-272h601v-297h-601v-568z" glyph-name="F" horiz-adv-x="1387" unicode="F"/><glyph d="M834 862h557v-778q-264 -102 -528 -102q-154 0 -293.5 48t-249.5 137.5t-175.5 232t-65.5 317.5t65.5 317.5t175.5 232t250 137.5t293 48q204 0 378 -55v-300q-200 78 -380 59q-158 -11 -258 -126.5t-100 -313t100 -312.5t258 -126q84 -6 176 19v294h-203v271z" glyph-name="G" horiz-adv-x="1530" unicode="G"/><glyph d="M1085 1434h424v-1434h-424v568h-521v-568h-424v1434h424v-569h521v569z" glyph-name="H" horiz-adv-x="1649" unicode="H"/><glyph d="M564 0h-424v1434h424v-1434z" glyph-name="I" horiz-adv-x="704" unicode="I"/><glyph d="M140 327q158 -51 261 -40q222 19 223 241v906h424v-914q1 -126 -29 -220.5t-81 -154.5t-130 -97.5t-168.5 -51.5t-204.5 -14q-170 0 -295 33v312z" glyph-name="J" horiz-adv-x="1187" unicode="J"/><glyph d="M1471 1434l-482 -692l482 -742h-464l-443 680v-680h-424v1434h424v-633l443 633h464z" glyph-name="K" horiz-adv-x="1488" unicode="K"/><glyph d="M564 1434v-1137h675v-297h-1099v1434h424z" glyph-name="L" horiz-adv-x="1312" unicode="L"/><glyph d="M1353 1434h587v-1434h-423v897l-285 -761h-383l-285 761v-897h-424v1434h589l311 -824z" glyph-name="M" horiz-adv-x="2080" unicode="M"/><glyph d="M1116 1434h425v-1434h-427l-550 810v-810h-424v1434h427l549 -794v794z" glyph-name="N" horiz-adv-x="1680" unicode="N"/><glyph d="M1646 717q1 -144 -42.5 -266t-118 -207t-175 -145t-214 -88.5t-235.5 -28.5q-121 0 -234 28.5t-213 88.5t-174.5 145t-117.5 206.5t-43 266.5q0 140 42.5 261t116.5 207t173.5 147t213.5 90.5t236 29.5t236.5 -29.5t214 -90.5t174 -147t117.5 -207t43 -261zM861 278 q161 0 261 119t100 320q0 200 -102 319.5t-259 119.5q-155 0 -256.5 -120t-101.5 -319q0 -201 99 -320t259 -119z" glyph-name="O" horiz-adv-x="1724" unicode="O"/><glyph d="M827 1434q276 0 441 -125.5t165 -357.5q0 -269 -200.5 -381.5t-668.5 -125.5v-444h-424v1434h687zM1008 951q0 95 -57 149t-149 54h-238v-431q254 7 349 56.5t95 171.5z" glyph-name="P" horiz-adv-x="1510" unicode="P"/><glyph d="M1646 717q1 -136 -37.5 -253t-108 -202t-159.5 -145t-198 -93q90 -106 232 -171l-186 -220q-103 39 -210 137.5t-176 213.5q-144 8 -272.5 58.5t-230 139t-161.5 227t-60 308.5q0 140 42.5 261t116.5 207t173.5 147t213.5 90.5t236 29.5t236.5 -29.5t214 -90.5t174 -147 t117.5 -207t43 -261zM861 278q161 0 261 119t100 320q0 200 -102 319.5t-259 119.5q-155 0 -256.5 -120t-101.5 -319q0 -201 99 -320t259 -119z" glyph-name="Q" horiz-adv-x="1724" unicode="Q"/><glyph d="M1508 0h-425l-275 459q-118 -11 -244 -15v-444h-424v1434h687q276 0 441 -125.5t165 -357.5q0 -151 -60.5 -250t-189.5 -156zM564 1154v-431q172 5 267.5 28t136 70t40.5 130q0 95 -57 149t-149 54h-238z" glyph-name="R" horiz-adv-x="1587" unicode="R"/><glyph d="M101 415q249 -137 472 -137q48 0 93 7t83.5 22t62 42t23.5 63q0 37 -29.5 65t-82 47.5t-107 33.5t-123 33t-111.5 37q-156 66 -232.5 166.5t-69.5 260.5q8 179 170.5 288.5t444.5 109.5q242 0 430 -97l-1 -322q-116 67 -215.5 95.5t-213.5 27.5q-79 -1 -137.5 -32.5 t-63.5 -90.5q-3 -26 6.5 -47t31.5 -37.5t48 -29.5t63.5 -24t69 -20t74 -20t71.5 -20q399 -127 383 -460q-4 -88 -44.5 -156.5t-104.5 -113t-150.5 -73t-177 -40t-191.5 -11.5q-123 0 -249 28.5t-224 81.5z" glyph-name="S" horiz-adv-x="1320" unicode="S"/><glyph d="M1204 1434v-297h-380v-1137h-425v1137h-381v297h1186z" glyph-name="T" horiz-adv-x="1223" unicode="T"/><glyph d="M1471 1434v-819q1 -175 -43.5 -298t-133 -196.5t-208 -106t-281.5 -32.5t-280.5 32.5t-207 106t-133 196.5t-44.5 298v819h424v-894q0 -122 61.5 -192t179.5 -70q119 0 181 70t62 192v894h423z" glyph-name="U" horiz-adv-x="1611" unicode="U"/><glyph d="M1111 1434h447l-476 -1434h-587l-477 1434h448l322 -1104z" glyph-name="V" horiz-adv-x="1576" unicode="V"/><glyph d="M1763 1434h443l-388 -1434h-455l-251 943l-251 -943h-453l-390 1434h443l191 -892l215 892h490l215 -892z" glyph-name="W" horiz-adv-x="2224" unicode="W"/><glyph d="M1541 1434l-462 -703l497 -731h-469l-316 463l-306 -463h-468l498 731l-461 703h462l287 -429l274 429h464z" glyph-name="X" horiz-adv-x="1593" unicode="X"/><glyph d="M1006 1434h446l-505 -955v-479h-424v479l-505 955h450l267 -555z" glyph-name="Y" horiz-adv-x="1470" unicode="Y"/><glyph d="M1327 1434v-297l-659 -840h659v-297h-1187v297l652 840h-652v297h1187z" glyph-name="Z" horiz-adv-x="1467" unicode="Z"/><glyph d="M140 1533h676v-262h-286v-1458h286v-263h-676v1983z" glyph-name="bracketleft" horiz-adv-x="955" unicode="["/><glyph d="M54 1434h398l453 -1434h-397z" glyph-name="backslash" horiz-adv-x="960" unicode="\"/><glyph d="M816 1533v-1983h-676v263h285v1458h-285v262h676z" glyph-name="bracketright" horiz-adv-x="955" unicode="]"/><glyph d="M802 829h-214l-117 415l-117 -415h-214l170 605h321z" glyph-name="asciicircum" horiz-adv-x="942" unicode="^"/><glyph d="M140 -125h1434v-262h-1434v262z" glyph-name="underscore" horiz-adv-x="1714" unicode="_"/><glyph d="M140 1502h361l195 -307h-289z" glyph-name="grave" horiz-adv-x="836" unicode="`"/><glyph d="M643 1103q285 0 425 -113t140 -301v-690h-373l-17 114q-175 -143 -429 -131q-141 6 -222.5 83t-90.5 181q-7 83 13 153t72.5 130t141 95.5t216.5 50.5t299 -5v30q-1 66 -60.5 106.5t-159.5 47.5q-172 12 -392 -79v244q197 84 437 84zM818 309v174q-189 31 -292 -18 t-94 -148q10 -106 166 -98q123 6 220 90z" glyph-name="a" horiz-adv-x="1313" unicode="a"/><glyph d="M1349 542q1 -144 -41 -254t-118 -175.5t-172.5 -98t-213.5 -32.5q-250 0 -367 138l-17 -120h-314v1536h391v-548q48 58 130 86.5t177 28.5q117 0 214.5 -34t172.5 -101.5t116.5 -176t41.5 -249.5zM730 236q112 0 172 85.5t60 220.5q0 141 -60 228t-172 87 q-73 0 -133.5 -35t-96.5 -105v-317q65 -164 230 -164z" glyph-name="b" horiz-adv-x="1422" unicode="b"/><glyph d="M1057 794q-141 63 -314 50q-128 -10 -203.5 -91.5t-75.5 -210.5t75 -210t204 -92q172 -13 314 50v-258q-148 -50 -359 -50q-94 0 -182.5 21t-169.5 65.5t-141 109t-95.5 158t-35.5 206t35.5 206.5t95.5 158.5t141 109.5t169.5 66t182.5 21q207 0 359 -51v-258z" glyph-name="c" horiz-adv-x="1130" unicode="c"/><glyph d="M74 542q0 141 41.5 249.5t116 176t172.5 101.5t214 34q95 0 177.5 -28t130.5 -87v548h390v-1536h-314l-17 120q-117 -138 -367 -138q-117 0 -213.5 32.5t-172 98t-117.5 175.5t-41 254zM692 236q165 0 231 164v317q-36 71 -97 105.5t-134 34.5q-112 0 -171.5 -87 t-59.5 -228q0 -135 59.5 -220.5t171.5 -85.5z" glyph-name="d" horiz-adv-x="1422" unicode="d"/><glyph d="M676 1103q108 0 199 -23t157.5 -65.5t115 -102.5t72 -134.5t28.5 -160.5t-16 -180h-771q60 -202 399 -207q161 -3 294 56v-254q-148 -50 -403 -50q-108 0 -206.5 20.5t-185 65t-150 109t-99.5 158t-36 207.5q0 139 50.5 249t136.5 176.5t192 101t223 34.5zM910 663 q13 91 -49.5 147.5t-159.5 53.5q-92 -4 -153.5 -58t-85.5 -143h448z" glyph-name="e" horiz-adv-x="1324" unicode="e"/><glyph d="M891 1536v-246h-163q-47 0 -73 -28t-26 -78v-101h262v-262h-262v-821h-390v821h-165v262h165v214q0 100 66 169.5t163 69.5h423z" glyph-name="f" horiz-adv-x="997" unicode="f"/><glyph d="M927 1083h388v-968q0 -173 -85.5 -297.5t-230 -185t-332.5 -60.5q-217 0 -368 50v256q144 -63 323 -50q145 10 224 62.5t79 158.5v95q-89 -112 -307 -111q-157 0 -277.5 57t-193.5 179.5t-73 297.5q-1 135 38 239.5t108.5 168t159 96t195.5 32.5q224 0 351 -168zM461 567 q0 -133 59 -211t171 -78q75 0 137.5 33.5t93.5 103.5v271q-67 163 -231 163q-112 0 -171 -77t-59 -205z" glyph-name="g" horiz-adv-x="1420" unicode="g"/><glyph d="M496 0h-390v1536h391v-608q147 175 432 175q189 0 268.5 -99.5t79.5 -325.5v-678h-390v577q0 133 -34 193.5t-115 60.5q-73 0 -141.5 -45.5t-99.5 -127.5z" glyph-name="h" horiz-adv-x="1383" unicode="h"/><glyph d="M115 1434h440v-245h-440v245zM140 1083h390v-1083h-390v1083z" glyph-name="i" horiz-adv-x="670" unicode="i"/><glyph d="M115 1434h440v-245h-440v245zM530 1083v-1113q0 -77 -23.5 -133t-59.5 -88.5t-90.5 -51.5t-106.5 -25t-117 -5q-134 2 -211 47l9 155q95 -22 150 1q36 11 47.5 40t11.5 89v1084h390z" glyph-name="j" horiz-adv-x="670" unicode="j"/><glyph d="M1326 1083l-452 -436l452 -647h-404l-273 429l-152 -147v-282h-391v1536h391v-850l424 397h405z" glyph-name="k" horiz-adv-x="1381" unicode="k"/><glyph d="M106 1536h391v-1536h-391v1536z" glyph-name="l" horiz-adv-x="602" unicode="l"/><glyph d="M1652 1103q199 0 290.5 -123t91.5 -403v-577h-390v577q0 130 -39 192t-122 62q-97 0 -157 -66t-61 -183v-5v-577h-391v577q0 130 -38 192t-121 62q-97 0 -155.5 -65.5t-62.5 -183.5l-1 -582h-390v1083h391v-155q80 97 167 136t219 39q133 0 217.5 -54t124.5 -169 q66 109 174.5 166t252.5 57z" glyph-name="m" horiz-adv-x="2140" unicode="m"/><glyph d="M496 0h-390v1083h391v-155q147 175 432 175q189 0 268.5 -99.5t79.5 -325.5v-678h-390v577q0 133 -34 193.5t-115 60.5q-73 0 -141.5 -45.5t-99.5 -127.5z" glyph-name="n" horiz-adv-x="1383" unicode="n"/><glyph d="M1323 542q1 -115 -35.5 -210t-97 -159t-141.5 -107.5t-169 -63.5t-181.5 -20t-181.5 20t-169 63.5t-141.5 107.5t-96.5 159t-36 210q0 113 35.5 206.5t95.5 158t141 109.5t169.5 66t183 21t183 -21t169.5 -66t140.5 -109.5t95.5 -158t36 -206.5zM698.5 236 q111.5 0 173 85.5t61.5 220.5t-61.5 221t-173 86t-173 -86t-61.5 -221t61.5 -220.5t173 -85.5z" glyph-name="o" horiz-adv-x="1396" unicode="o"/><glyph d="M1349 542q0 -141 -41.5 -250t-116.5 -176t-172.5 -100.5t-214.5 -33.5q-95 0 -177 27.5t-130 85.5v-548h-391v1536h314l17 -119q117 139 367 139q117 0 213.5 -33t172.5 -99t118 -175.5t41 -253.5zM730 849q-166 0 -230 -166v-316q36 -71 96.5 -106t133.5 -35 q112 0 172 87t60 229q0 135 -60 221t-172 86z" glyph-name="p" horiz-adv-x="1422" unicode="p"/><glyph d="M74 542q-1 144 41 253.5t117.5 175.5t172.5 99t213 33q250 0 367 -139l16 119h315v-1536h-390v548q-48 -58 -130 -85.5t-178 -27.5q-117 0 -214.5 33.5t-172 100.5t-116 176t-41.5 250zM692 849q-112 0 -171.5 -86t-59.5 -221q0 -141 60 -228.5t171 -87.5q73 0 134 35 t97 106v316q-67 166 -231 166z" glyph-name="q" horiz-adv-x="1422" unicode="q"/><glyph d="M496 0l-390 1v1082h380v-130q62 67 176 108.5t222 41.5v-267q-61 8 -143.5 -12t-152.5 -62.5t-91 -92.5z" glyph-name="r" horiz-adv-x="920" unicode="r"/><glyph d="M114 309q148 -81 348 -96q82 -6 141.5 18t69.5 71q10 49 -76 83q-27 10 -164 47q-191 50 -276 134t-83 219q1 105 73.5 178.5t189.5 106.5t269 33q111 0 214 -20t169 -56v-251q-153 86 -343 94q-75 1 -124.5 -19.5t-53.5 -65.5q-2 -23 14 -40.5t52.5 -34t78 -30 t109.5 -34.5q23 -6 35 -10q80 -25 132.5 -49t95 -59.5t61.5 -85.5t18 -118q-1 -86 -45.5 -154t-119.5 -107.5t-167.5 -60t-197.5 -20.5q-117 0 -236 21t-184 57v249z" glyph-name="s" horiz-adv-x="1137" unicode="s"/><glyph d="M901 0h-431q-98 0 -164.5 69t-66.5 170v582h-165v262h165v209h390v-209h272v-262h-272v-469q0 -50 27 -78t73 -28h172v-246z" glyph-name="t" horiz-adv-x="1007" unicode="t"/><glyph d="M888 1083h389v-1083h-390v156q-147 -175 -432 -175q-189 0 -269 99t-80 326v677h391v-576q0 -133 33.5 -194t114.5 -61q73 0 141.5 45.5t100.5 127.5z" glyph-name="u" horiz-adv-x="1383" unicode="u"/><glyph d="M946 1083h413l-367 -1083h-571l-367 1083h415l238 -831z" glyph-name="v" horiz-adv-x="1413" unicode="v"/><glyph d="M1581 1083h412l-321 -1083h-458l-192 705l-189 -705h-458l-321 1083h412l186 -686l168 686h407l185 -686z" glyph-name="w" horiz-adv-x="2046" unicode="w"/><glyph d="M1276 1083l-341 -516l341 -567h-405l-205 344l-207 -344h-405l341 567l-341 516h405l207 -313l205 313h405z" glyph-name="x" horiz-adv-x="1330" unicode="x"/><glyph d="M946 1083h413l-439 -1051q-200 -473 -750 -426l-16 244q280 -36 309 183l-409 1050h415l227 -701z" glyph-name="y" horiz-adv-x="1413" unicode="y"/><glyph d="M1118 821l-563 -559h563l-1 -262h-1043v262l561 559h-561v262h1043z" glyph-name="z" horiz-adv-x="1190" unicode="z"/><glyph d="M686 -457q-186 0 -282.5 93t-96.5 289v345q0 135 -167 141v262q167 5 167 141v344q0 197 96.5 289.5t282.5 92.5h221v-262h-76q-75 0 -104.5 -34.5t-29.5 -113.5v-385q0 -88 -53 -142.5t-172 -58.5v-4q119 -4 172 -58.5t53 -142.5v-386q0 -79 30 -113.5t104 -34.5h76 v-262h-221z" glyph-name="braceleft" horiz-adv-x="1047" unicode="{"/><glyph d="M140 1553h390v-1963h-390v1963z" glyph-name="bar" horiz-adv-x="670" unicode="|"/><glyph d="M361 -457h-221v262h76q75 0 104.5 34.5t29.5 113.5v386q0 88 53.5 142.5t170.5 58.5v4q-118 4 -171 58.5t-53 142.5v385q0 79 -29.5 113.5t-104.5 34.5h-76v262h221q379 0 379 -382v-344q0 -136 167 -141v-262q-167 -5 -167 -141v-345q0 -382 -379 -382z" glyph-name="braceright" horiz-adv-x="1047" unicode="}"/><glyph d="M140 521q0 88 22 155t60.5 107t86 59.5t103.5 19.5q61 0 128 -23t126.5 -46t102.5 -23q72 0 77 90h236q0 -88 -22.5 -155t-61.5 -106.5t-86.5 -59t-101.5 -19.5q-58 0 -125.5 22.5t-127 45.5t-101.5 23q-74 0 -79 -90h-237z" glyph-name="asciitilde" horiz-adv-x="1222" unicode="~"/><glyph d="M140 1083h441v-243h-441v243zM209 734h303l43 -1084h-390z" glyph-name="exclamdown" horiz-adv-x="720" unicode="¡"/><glyph d="M1057 794q-90 40 -198 49v-602q108 9 198 49v-258q-83 -28 -198 -41v-155h-177v146q-92 2 -178.5 24t-165.5 67t-137.5 109.5t-92.5 156.5t-34 203q0 137 52 245.5t139.5 175t193.5 102.5t223 38v144h177v-153q111 -12 198 -42v-258zM464 541.5q0 -112.5 58 -189.5 t160 -102v584q-102 -26 -160 -103t-58 -189.5z" glyph-name="cent" horiz-adv-x="1130" unicode="¢"/><glyph d="M604 297h728v-297h-1130v297q87 73 121 140t31 138h-214v263h144q-54 163 -55 302q0 143 163.5 227.5t450.5 84.5q203 0 380 -56v-300q-199 78 -381 61q-92 -7 -144.5 -53.5t-52.5 -120.5q0 -31 26 -145h464v-263h-416q11 -202 -115 -278z" glyph-name="sterling" horiz-adv-x="1472" unicode="£"/><glyph d="M1139 717q0 -177 -112 -310l153 -153l-99 -98l-155 155q-130 -91 -294 -91q-169 0 -299 96l-161 -160l-98 98l157 158q-106 134 -106 305q0 170 106 305l-157 158l98 98l161 -161q130 96 299 96q164 0 294 -91l155 156l99 -98l-153 -152q112 -133 112 -311zM632 484 q98 0 166 66.5t68 166t-68 166t-166 66.5t-166.5 -66.5t-68.5 -166t68.5 -166t166.5 -66.5z" glyph-name="currency" horiz-adv-x="1253" unicode="¤"/><glyph d="M1452 1434l-450 -849h296v-161h-351v-70h351v-160h-351v-194h-424v194h-350v160h350v70h-350v161h295l-450 849h450l267 -555l271 555h446z" glyph-name="yen" horiz-adv-x="1470" unicode="¥"/><glyph d="M140 1553h390v-879h-390v879zM140 469h390v-879h-390v879z" glyph-name="brokenbar" horiz-adv-x="670" unicode="¦"/><glyph d="M1125 539q-3 -164 -154 -255q97 -77 94 -216q-2 -86 -46.5 -154t-120 -107.5t-168 -60t-198.5 -20.5q-116 0 -232.5 22.5t-183.5 63.5l1 243q146 -89 344 -103q81 -6 142 20.5t71 73.5q4 24 -10.5 43t-48 33.5t-69 25.5t-87.5 24q-16 4 -25 6q-191 49 -276 132.5 t-83 218.5q1 157 156 241q-99 86 -96 230q1 105 74 178t189.5 106t269.5 33q110 0 212.5 -20t170.5 -58l-1 -245q-165 96 -343 97q-73 0 -123 -22.5t-55 -68.5q-4 -46 79 -81q43 -19 210 -70q80 -25 133 -48.5t95.5 -59t61 -85t17.5 -117.5zM469 529q-3 -32 31 -55t106 -48 q52 9 86.5 33t41.5 58t-25 57t-99 43q-136 -13 -141 -88z" glyph-name="section" horiz-adv-x="1200" unicode="§"/><glyph d="M140 1457h346v-262h-346v262zM599 1457h345v-262h-345v262z" glyph-name="dieresis" horiz-adv-x="1083" unicode="¨"/><glyph d="M855 -39q-163 0 -308 59t-247 160.5t-161.5 241t-59.5 295.5q0 157 59.5 296.5t161.5 240.5t246.5 160t308.5 59t309.5 -59t248.5 -160t162 -241t59 -296t-59 -295.5t-162 -241t-248.5 -160.5t-309.5 -59zM856 150q165 0 297 74t205 203.5t73 289.5t-73 289.5t-205 203.5 t-297 74q-250 0 -411.5 -161.5t-161.5 -405.5t161.5 -405.5t411.5 -161.5zM1120 890q-93 44 -212 35q-87 -6 -138 -63t-51 -145t51 -145t138 -64q118 -8 212 35v-171q-97 -35 -242 -35q-80 0 -154 23t-135 68t-97 120t-36 169q0 76 24 139.5t65 107.5t95 74t114 44.5 t124 14.5q141 0 242 -35v-172z" glyph-name="copyright" horiz-adv-x="1713" unicode="©"/><glyph d="M423 1444q169 0 249 -67t80 -182v-414h-227l-10 69q-102 -86 -254 -79q-84 4 -132 50.5t-53 108.5q-12 132 95.5 206t343.5 48v27q-1 72 -120 78q-105 4 -200 -52l-70 131q145 76 298 76zM515 972v104q-112 18 -170.5 -11t-52.5 -87q4 -31 29 -46.5t65 -12.5q69 3 129 53 z" glyph-name="ordfeminine" horiz-adv-x="825" unicode="ª"/><glyph d="M873 947l-337 -384l337 -384h-395l-338 384l338 384h395zM1490 947l-338 -384l338 -384h-395l-338 384l338 384h395z" glyph-name="guillemotleft" horiz-adv-x="1629" unicode="«"/><glyph d="M1190 1023v-638h-390v341h-660v297h1050z" glyph-name="logicalnot" horiz-adv-x="1330" unicode="¬"/><glyph d="M575 1504q142 0 258.5 -65t182 -177.5t65.5 -247.5q0 -206 -145 -348.5t-361 -142.5q-214 0 -357.5 142.5t-143.5 348.5q0 207 143.5 348.5t357.5 141.5zM576.5 655q157.5 0 260 102.5t102.5 256t-102.5 256t-260 102.5t-259.5 -102.5t-102 -256t102 -256t259.5 -102.5z M776 1089q0 -94 -80 -128l103 -171h-129l-88 145q-24 -2 -76 -4v-141h-128v448h212q87 0 136.5 -38.5t49.5 -110.5zM506 1152v-135q83 2 112.5 17.5t29.5 54.5q0 63 -65 63h-77z" glyph-name="registered" horiz-adv-x="1154" unicode="®"/><glyph d="M140 1414h589v-219h-589v219z" glyph-name="macron" horiz-adv-x="869" unicode="¯"/><glyph d="M412.5 906q-112.5 0 -192.5 80.5t-80 193t80.5 192.5t192.5 80q113 0 193 -80t80 -192.5t-80.5 -193t-193 -80.5zM412.5 1053q51.5 0 89.5 37.5t38 89t-38 89t-89.5 37.5t-88.5 -37.5t-37 -89t37 -89t88.5 -37.5z" glyph-name="degree" horiz-adv-x="826" unicode="°"/><glyph d="M1129 1022v-262h-299v-224h-390v224h-300v262h300v223h390v-223h299zM1129 453v-264h-989v264h989z" glyph-name="plusminus" horiz-adv-x="1269" unicode="±"/><glyph d="M806 945v-180h-732v180q80 49 135.5 85.5t122.5 84.5t108 86.5t69.5 79.5t28.5 75q0 45 -31.5 73.5t-85.5 29.5q-131 2 -246 -66l-83 154q87 47 166 69.5t172 22.5q171 0 265.5 -66t94.5 -174q0 -42 -12.5 -83.5t-29.5 -74t-49.5 -70t-57.5 -62t-71 -59.5t-69.5 -52.5 t-73.5 -52.5h379z" glyph-name="uni00B2" horiz-adv-x="879" unicode="²"/><glyph d="M117 1638h659v-180l-251 -181q62 -7 100 -19q196 -57 192 -237q-1 -129 -101 -194.5t-265 -62.5q-116 2 -197.5 21.5t-179.5 69.5l95 163q48 -32 129.5 -54t148.5 -20q58 1 96 21t39 59q2 47 -45.5 80.5t-128.5 33.5q-92 0 -144 -12l-48 162l289 170h-388v180z" glyph-name="uni00B3" horiz-adv-x="890" unicode="³"/><glyph d="M696 1502l-266 -307h-290l195 307h361z" glyph-name="acute" horiz-adv-x="836" unicode="´"/><glyph d="M888 1083h389v-1083h-390v156q-136 -163 -390 -174v-392h-391v1493h391v-576q0 -133 33.5 -194t114.5 -61q73 0 141.5 45.5t100.5 127.5z" glyph-name="uni00B5" horiz-adv-x="1372" unicode="µ"/><glyph d="M508 843q-166 0 -267 75.5t-101 215.5q0 152 101.5 226t294.5 74h807v-1434h-347v1137h-141v-1137h-347v843z" glyph-name="paragraph" horiz-adv-x="1483" unicode="¶"/><glyph d="M140 884h441v-334h-441v334z" glyph-name="periodcentered" horiz-adv-x="720" unicode="·"/><glyph d="M367 -84q94 0 148 -40.5t54 -104.5q0 -82 -72.5 -130t-218.5 -48q-58 0 -138 13v107q44 -8 105 -8q120 0 120 72q0 35 -28 49.5t-84 14.5q-27 0 -45 -2v71l76 95h127l-80 -91q11 2 36 2z" glyph-name="cedilla" horiz-adv-x="709" unicode="¸"/><glyph d="M519 958h208v-180h-653v180h209v479q-85 -58 -162 -80v202q81 15 160 79h238v-680z" glyph-name="uni00B9" horiz-adv-x="800" unicode="¹"/><glyph d="M794 1107q0 -69 -21.5 -126t-58 -95t-85 -64.5t-101.5 -38.5t-109.5 -12t-109 12t-101 38.5t-85 64.5t-58 95t-21.5 126q0 84 32.5 150t86.5 106t119.5 60.5t136.5 20.5q72 0 137 -20.5t119 -60.5t86.5 -106t32.5 -150zM418.5 926q65.5 0 102 50.5t36.5 130.5t-36.5 131 t-102 51t-101.5 -51t-36 -131t36 -130.5t101.5 -50.5z" glyph-name="ordmasculine" horiz-adv-x="837" unicode="º"/><glyph d="M140 947h396l337 -384l-337 -384h-396l338 384zM757 947h395l338 -384l-338 -384h-395l338 384z" glyph-name="guillemotright" horiz-adv-x="1629" unicode="»"/><glyph d="M519 754h208v-181h-653v181h209v478q-85 -58 -162 -80v202q81 15 160 80h238v-680zM1288 1434h190l-766 -1434h-189zM1841 368v-181h-131v-187h-236v187h-408v181l372 492h272v-492h131zM1287 368h187v269z" glyph-name="onequarter" horiz-adv-x="1914" unicode="¼"/><glyph d="M519 754h208v-181h-653v181h209v478q-85 -58 -162 -80v202q81 15 160 80h238v-680zM1294 1434h189l-766 -1434h-188zM1949 180v-180h-732v180q81 50 135.5 85.5t122 84.5t108.5 87t69 79t28 75q0 45 -31 73.5t-85 29.5q-131 2 -247 -66l-83 154q169 92 339 92 q171 0 265 -66t94 -174q0 -42 -12.5 -83.5t-29 -74t-50 -70t-57.5 -61t-70.5 -60t-70 -53t-73.5 -52.5h380z" glyph-name="onehalf" horiz-adv-x="2022" unicode="½"/><glyph d="M117 1434h659v-181l-251 -181q62 -7 100 -18q196 -57 192 -238q-1 -129 -101 -194.5t-265 -62.5q-116 2 -197.5 21.5t-179.5 69.5l95 163q48 -32 129.5 -54t148.5 -20q58 1 96 21t39 59q2 47 -45.5 80.5t-128.5 33.5q-92 0 -144 -11l-48 161l289 170h-388v181zM1310 1434 h189l-766 -1434h-188zM1869 368v-181h-131v-187h-237v187h-407v181l372 492h272v-492h131zM1315 368h186v269z" glyph-name="threequarters" horiz-adv-x="1942" unicode="¾"/><glyph d="M982 1067v-245h-440v245h440zM685 -367q-175 -4 -309 40.5t-214.5 143.5t-82.5 241q-2 152 76.5 251.5t229.5 144.5q16 5 44.5 10.5t51.5 9t58 8t47 6.5l1 211h353l24 -453q-70 11 -216 11q-131 0 -208 -57t-74 -137q2 -65 66.5 -100t156.5 -35q108 -2 235.5 30.5 t204.5 80.5v-333q-99 -38 -201 -54.5t-243 -18.5z" glyph-name="questiondown" horiz-adv-x="1208" unicode="¿"/><glyph d="M976 1545h-290l-266 307h360zM1204 0l-85 257h-577l-85 -257h-447l527 1434h587l528 -1434h-448zM640 553h381l-191 575z" glyph-name="Agrave" horiz-adv-x="1661" unicode="À"/><glyph d="M1242 1852l-266 -307h-290l195 307h361zM1204 0l-85 257h-577l-85 -257h-447l527 1434h587l528 -1434h-448zM640 553h381l-191 575z" glyph-name="Aacute" horiz-adv-x="1661" unicode="Á"/><glyph d="M830 1751l-141 -206h-290l229 307h404l230 -307h-290zM1204 0l-85 257h-577l-85 -257h-447l527 1434h587l528 -1434h-448zM640 553h381l-191 575z" glyph-name="Acircumflex" horiz-adv-x="1661" unicode="Â"/><glyph d="M639 1545h-187q-1 136 61 204.5t157 68.5q62 0 156.5 -38t132.5 -38q60 0 63 75h187q0 -137 -62.5 -205t-155.5 -68q-59 0 -154 38t-134 38q-61 0 -64 -75zM1204 0l-85 257h-577l-85 -257h-447l527 1434h587l528 -1434h-448zM640 553h381l-191 575z" glyph-name="Atilde" horiz-adv-x="1661" unicode="Ã"/><glyph d="M775 1807v-262h-346v262h346zM1233 1807v-262h-345v262h345zM1204 0l-85 257h-577l-85 -257h-447l527 1434h587l528 -1434h-448zM640 553h381l-191 575z" glyph-name="Adieresis" horiz-adv-x="1661" unicode="Ä"/><glyph d="M1204 0l-85 257h-577l-85 -257h-447l527 1434h100q-68 74 -68 174q0 109 77 185.5t184 76.5q109 0 186 -77t77 -185q0 -100 -68 -174h99l528 -1434h-448zM830.5 1694q-34.5 0 -60 -26t-25.5 -60.5t25.5 -59.5t60 -25t60 25t25.5 59.5t-25.5 60.5t-60 26zM640 553h381 l-191 575z" glyph-name="Aring" horiz-adv-x="1661" unicode="Å"/><glyph d="M1858 1137h-602v-272h545v-297h-545v-271h602v-297h-1025v257h-291l-85 -257h-447l527 1434h1321v-297zM833 553v577l-192 -577h192z" glyph-name="AE" horiz-adv-x="1997" unicode="Æ"/><glyph d="M862 1153q-159 -11 -259 -125t-100 -311.5t100 -311t259 -124.5q178 -19 379 58v-302q-147 -47 -333 -54l-60 -70q11 2 36 2q94 0 148 -40.5t54 -104.5q0 -82 -72.5 -130t-218.5 -48q-58 0 -138 13v107q44 -8 105 -8q120 0 120 72q0 35 -28 49.5t-84 14.5q-27 0 -45 -2 v71l60 76q-142 11 -268 64t-224.5 143t-156 225.5t-57.5 299.5q0 175 65.5 317.5t175.5 232t250 137.5t293 48q204 0 378 -55v-302q-201 77 -379 58z" glyph-name="Ccedilla" horiz-adv-x="1381" unicode="Ç"/><glyph d="M303 1852h361l195 -307h-290zM564 297h724v-297h-1148v1434h1148v-297h-724v-272h634v-297h-634v-271z" glyph-name="Egrave" horiz-adv-x="1428" unicode="È"/><glyph d="M1125 1852l-266 -307h-290l195 307h361zM564 297h724v-297h-1148v1434h1148v-297h-724v-272h634v-297h-634v-271z" glyph-name="Eacute" horiz-adv-x="1428" unicode="É"/><glyph d="M1146 1545h-290l-141 206l-142 -206h-289l228 307h404zM564 297h724v-297h-1148v1434h1148v-297h-724v-272h634v-297h-634v-271z" glyph-name="Ecircumflex" horiz-adv-x="1428" unicode="Ê"/><glyph d="M312 1807h346v-262h-346v262zM771 1807h345v-262h-345v262zM564 297h724v-297h-1148v1434h1148v-297h-724v-272h634v-297h-634v-271z" glyph-name="Edieresis" horiz-adv-x="1428" unicode="Ë"/><glyph d="M-58 1852h360l196 -307h-290zM564 0h-424v1434h424v-1434z" glyph-name="Igrave" horiz-adv-x="704" unicode="Ì"/><glyph d="M764 1852l-266 -307h-290l194 307h362zM564 0h-424v1434h424v-1434z" glyph-name="Iacute" horiz-adv-x="704" unicode="Í"/><glyph d="M783 1545h-289l-142 206l-141 -206h-290l229 307h404zM564 0h-424v1434h424v-1434z" glyph-name="Icircumflex" horiz-adv-x="704" unicode="Î"/><glyph d="M-49 1807h346v-262h-346v262zM410 1807h345v-262h-345v262zM564 0h-424v1434h424v-1434z" glyph-name="Idieresis" horiz-adv-x="704" unicode="Ï"/><glyph d="M1553 717q1 -145 -36 -264t-103.5 -202.5t-159.5 -140.5t-201.5 -83.5t-232.5 -26.5h-672v628h-130v178h130v628h672q157 0 288.5 -45.5t232 -132t156.5 -225t56 -314.5zM778 297q165 0 258 117.5t93 302.5q0 183 -95 301.5t-256 118.5h-206v-331h243v-178h-243v-331h206 z" glyph-name="Eth" horiz-adv-x="1632" unicode="Ð"/><glyph d="M462 1545q-1 136 61.5 204.5t156.5 68.5q62 0 156.5 -38t133.5 -38q60 0 62 75h188q0 -137 -62.5 -205t-156.5 -68q-59 0 -153.5 38t-133.5 38q-61 0 -65 -75h-187zM1116 1434h425v-1434h-427l-550 810v-810h-424v1434h427l549 -794v794z" glyph-name="Ntilde" horiz-adv-x="1680" unicode="Ñ"/><glyph d="M452 1852h360l196 -307h-290zM1646 717q1 -144 -42.5 -266t-118 -207t-175 -145t-214 -88.5t-235.5 -28.5q-121 0 -234 28.5t-213 88.5t-174.5 145t-117.5 206.5t-43 266.5q0 140 42.5 261t116.5 207t173.5 147t213.5 90.5t236 29.5t236.5 -29.5t214 -90.5t174 -147 t117.5 -207t43 -261zM861 278q161 0 261 119t100 320q0 200 -102 319.5t-259 119.5q-155 0 -256.5 -120t-101.5 -319q0 -201 99 -320t259 -119z" glyph-name="Ograve" horiz-adv-x="1724" unicode="Ò"/><glyph d="M1274 1852l-266 -307h-290l194 307h362zM1646 717q1 -144 -42.5 -266t-118 -207t-175 -145t-214 -88.5t-235.5 -28.5q-121 0 -234 28.5t-213 88.5t-174.5 145t-117.5 206.5t-43 266.5q0 140 42.5 261t116.5 207t173.5 147t213.5 90.5t236 29.5t236.5 -29.5t214 -90.5 t174 -147t117.5 -207t43 -261zM861 278q161 0 261 119t100 320q0 200 -102 319.5t-259 119.5q-155 0 -256.5 -120t-101.5 -319q0 -201 99 -320t259 -119z" glyph-name="Oacute" horiz-adv-x="1724" unicode="Ó"/><glyph d="M1293 1545h-289l-142 206l-141 -206h-290l228 307h405zM1646 717q1 -144 -42.5 -266t-118 -207t-175 -145t-214 -88.5t-235.5 -28.5q-121 0 -234 28.5t-213 88.5t-174.5 145t-117.5 206.5t-43 266.5q0 140 42.5 261t116.5 207t173.5 147t213.5 90.5t236 29.5t236.5 -29.5 t214 -90.5t174 -147t117.5 -207t43 -261zM861 278q161 0 261 119t100 320q0 200 -102 319.5t-259 119.5q-155 0 -256.5 -120t-101.5 -319q0 -201 99 -320t259 -119z" glyph-name="Ocircumflex" horiz-adv-x="1724" unicode="Ô"/><glyph d="M483 1545q-1 136 61.5 204.5t156.5 68.5q62 0 156.5 -38t133.5 -38q60 0 63 75h187q0 -137 -62.5 -205t-155.5 -68q-59 0 -154 38t-134 38q-61 0 -64 -75h-188zM1646 717q1 -144 -42.5 -266t-118 -207t-175 -145t-214 -88.5t-235.5 -28.5q-121 0 -234 28.5t-213 88.5 t-174.5 145t-117.5 206.5t-43 266.5q0 140 42.5 261t116.5 207t173.5 147t213.5 90.5t236 29.5t236.5 -29.5t214 -90.5t174 -147t117.5 -207t43 -261zM861 278q161 0 261 119t100 320q0 200 -102 319.5t-259 119.5q-155 0 -256.5 -120t-101.5 -319q0 -201 99 -320t259 -119z " glyph-name="Otilde" horiz-adv-x="1724" unicode="Õ"/><glyph d="M461 1807h346v-262h-346v262zM920 1807h345v-262h-345v262zM1646 717q1 -144 -42.5 -266t-118 -207t-175 -145t-214 -88.5t-235.5 -28.5q-121 0 -234 28.5t-213 88.5t-174.5 145t-117.5 206.5t-43 266.5q0 140 42.5 261t116.5 207t173.5 147t213.5 90.5t236 29.5 t236.5 -29.5t214 -90.5t174 -147t117.5 -207t43 -261zM861 278q161 0 261 119t100 320q0 200 -102 319.5t-259 119.5q-155 0 -256.5 -120t-101.5 -319q0 -201 99 -320t259 -119z" glyph-name="Odieresis" horiz-adv-x="1724" unicode="Ö"/><glyph d="M1026 460l-186 -187l-257 257l-256 -257l-187 187l257 257l-257 257l187 185l256 -256l257 256l186 -185l-257 -257z" glyph-name="multiply" horiz-adv-x="1166" unicode="×"/><glyph d="M1646 717q1 -144 -42.5 -266t-118 -207t-175 -145t-214 -88.5t-235.5 -28.5q-292 0 -504 153l-119 -120l-96 96l115 114q-178 194 -178 492q0 140 42.5 261t116.5 207t173.5 147t213.5 90.5t236 29.5q275 0 482 -140l107 106l95 -95l-97 -97q198 -200 198 -509zM503 717 q0 -118 36 -210l556 556q-96 93 -234 93q-155 0 -256.5 -119.5t-101.5 -319.5zM861 278q161 0 261 119t100 320q0 133 -48 234l-564 -563q96 -110 251 -110z" glyph-name="Oslash" horiz-adv-x="1689" unicode="Ø"/><glyph d="M395 1852h361l195 -307h-289zM1471 1434v-819q1 -175 -43.5 -298t-133 -196.5t-208 -106t-281.5 -32.5t-280.5 32.5t-207 106t-133 196.5t-44.5 298v819h424v-894q0 -122 61.5 -192t179.5 -70q119 0 181 70t62 192v894h423z" glyph-name="Ugrave" horiz-adv-x="1611" unicode="Ù"/><glyph d="M1218 1852l-267 -307h-289l194 307h362zM1471 1434v-819q1 -175 -43.5 -298t-133 -196.5t-208 -106t-281.5 -32.5t-280.5 32.5t-207 106t-133 196.5t-44.5 298v819h424v-894q0 -122 61.5 -192t179.5 -70q119 0 181 70t62 192v894h423z" glyph-name="Uacute" horiz-adv-x="1611" unicode="Ú"/><glyph d="M1237 1545h-290l-141 206l-141 -206h-290l228 307h405zM1471 1434v-819q1 -175 -43.5 -298t-133 -196.5t-208 -106t-281.5 -32.5t-280.5 32.5t-207 106t-133 196.5t-44.5 298v819h424v-894q0 -122 61.5 -192t179.5 -70q119 0 181 70t62 192v894h423z" glyph-name="Ucircumflex" horiz-adv-x="1611" unicode="Û"/><glyph d="M404 1807h347v-262h-347v262zM863 1807h345v-262h-345v262zM1471 1434v-819q1 -175 -43.5 -298t-133 -196.5t-208 -106t-281.5 -32.5t-280.5 32.5t-207 106t-133 196.5t-44.5 298v819h424v-894q0 -122 61.5 -192t179.5 -70q119 0 181 70t62 192v894h423z" glyph-name="Udieresis" horiz-adv-x="1611" unicode="Ü"/><glyph d="M1147 1852l-266 -307h-290l194 307h362zM1006 1434h446l-505 -955v-479h-424v479l-505 955h450l267 -555z" glyph-name="Yacute" horiz-adv-x="1470" unicode="Ý"/><glyph d="M827 1211q276 0 441 -125t165 -356q0 -269 -201 -382.5t-668 -125.5v-222h-424v1434h424v-223h263zM564 502q254 6 349 55.5t95 172.5q0 94 -57 148t-149 54h-238v-430z" glyph-name="Thorn" horiz-adv-x="1505" unicode="Þ"/><glyph d="M1348 413q1 -207 -166 -309t-448 -102h-125v263h74q105 0 164 46t59 119q0 77 -57.5 122.5t-165.5 45.5h-74v263h74q94 0 145.5 45t51.5 118q0 72 -51.5 117.5t-145.5 45.5q-85 0 -135.5 -47t-50.5 -129v-1009h-391v996q0 140 80.5 245t209.5 155.5t287 50.5 q166 0 295.5 -42.5t211 -136t81.5 -229.5q1 -189 -156 -299q233 -114 233 -329z" glyph-name="germandbls" horiz-adv-x="1426" unicode="ß"/><glyph d="M248 1503h360l196 -307h-290zM643 1103q285 0 425 -113t140 -301v-690h-373l-17 114q-175 -143 -429 -131q-141 6 -222.5 83t-90.5 181q-7 83 13 153t72.5 130t141 95.5t216.5 50.5t299 -5v30q-1 66 -60.5 106.5t-159.5 47.5q-172 12 -392 -79v244q197 84 437 84z M818 309v174q-189 31 -292 -18t-94 -148q10 -106 166 -98q123 6 220 90z" glyph-name="agrave" horiz-adv-x="1313" unicode="à"/><glyph d="M1070 1503l-266 -307h-290l195 307h361zM643 1103q285 0 425 -113t140 -301v-690h-373l-17 114q-175 -143 -429 -131q-141 6 -222.5 83t-90.5 181q-7 83 13 153t72.5 130t141 95.5t216.5 50.5t299 -5v30q-1 66 -60.5 106.5t-159.5 47.5q-172 12 -392 -79v244 q197 84 437 84zM818 309v174q-189 31 -292 -18t-94 -148q10 -106 166 -98q123 6 220 90z" glyph-name="aacute" horiz-adv-x="1313" unicode="á"/><glyph d="M1090 1195h-290l-142 206l-141 -206h-290l229 307h404zM643 1103q285 0 425 -113t140 -301v-690h-373l-17 114q-175 -143 -429 -131q-141 6 -222.5 83t-90.5 181q-7 83 13 153t72.5 130t141 95.5t216.5 50.5t299 -5v30q-1 66 -60.5 106.5t-159.5 47.5q-172 12 -392 -79 v244q197 84 437 84zM818 309v174q-189 31 -292 -18t-94 -148q10 -106 166 -98q123 6 220 90z" glyph-name="acircumflex" horiz-adv-x="1313" unicode="â"/><glyph d="M280 1195q-1 136 61 204t157 68q62 0 156.5 -37.5t132.5 -37.5q60 0 63 74h187q0 -137 -62.5 -204.5t-155.5 -67.5q-59 0 -154 38t-134 38q-61 0 -64 -75h-187zM643 1103q285 0 425 -113t140 -301v-690h-373l-17 114q-175 -143 -429 -131q-141 6 -222.5 83t-90.5 181 q-7 83 13 153t72.5 130t141 95.5t216.5 50.5t299 -5v30q-1 66 -60.5 106.5t-159.5 47.5q-172 12 -392 -79v244q197 84 437 84zM818 309v174q-189 31 -292 -18t-94 -148q10 -106 166 -98q123 6 220 90z" glyph-name="atilde" horiz-adv-x="1313" unicode="ã"/><glyph d="M256 1457h346v-262h-346v262zM715 1457h345v-262h-345v262zM643 1103q285 0 425 -113t140 -301v-690h-373l-17 114q-175 -143 -429 -131q-141 6 -222.5 83t-90.5 181q-7 83 13 153t72.5 130t141 95.5t216.5 50.5t299 -5v30q-1 66 -60.5 106.5t-159.5 47.5 q-172 12 -392 -79v244q197 84 437 84zM818 309v174q-189 31 -292 -18t-94 -148q10 -106 166 -98q123 6 220 90z" glyph-name="adieresis" horiz-adv-x="1313" unicode="ä"/><glyph d="M657 1195q-108 0 -184.5 77t-76.5 184q0 109 77 185.5t184 76.5q109 0 186 -76.5t77 -185.5q0 -108 -77 -184.5t-186 -76.5zM657.5 1371q34.5 0 60 25t25.5 60t-25.5 60.5t-60 25.5t-60 -25.5t-25.5 -60.5t25.5 -60t60 -25zM643 1103q285 0 425 -113t140 -301v-690h-373 l-17 114q-175 -143 -429 -131q-141 6 -222.5 83t-90.5 181q-7 83 13 153t72.5 130t141 95.5t216.5 50.5t299 -5v30q-1 66 -60.5 106.5t-159.5 47.5q-172 12 -392 -79v244q197 84 437 84zM818 309v174q-189 31 -292 -18t-94 -148q10 -106 166 -98q123 6 220 90z" glyph-name="aring" horiz-adv-x="1313" unicode="å"/><glyph d="M1613 1103q213 0 353.5 -88t191 -238t10.5 -340h-770q60 -202 399 -207q160 -3 294 56v-254q-148 -50 -404 -50q-293 0 -479 140v-123h-373l-17 114q-175 -143 -429 -131q-141 6 -222.5 83t-90.5 181q-7 83 13 153t72.5 130t141 95.5t216.5 50.5t299 -5v30 q-1 66 -60.5 106.5t-159.5 47.5q-172 12 -392 -79v244q198 84 437 84q362 0 499 -189q83 93 207.5 141t263.5 48zM1847 663q12 91 -50 147.5t-159 53.5q-93 -4 -154 -58t-85 -143h448zM818 309v174q-189 31 -292 -18t-94 -148q10 -106 166 -98q123 6 220 90z" glyph-name="ae" horiz-adv-x="2260" unicode="æ"/><glyph d="M743 844q-128 -10 -203.5 -91.5t-75.5 -210.5t75 -210t204 -92q172 -13 314 50v-258q-133 -44 -315 -49l-60 -70q11 2 36 2q94 0 148.5 -40.5t54.5 -104.5q0 -82 -73 -130t-219 -48q-58 0 -137 13v107q44 -8 104 -8q120 0 120 72q0 35 -28 49.5t-84 14.5q-27 0 -45 -2v71 l61 77q-109 10 -204 49t-173 105.5t-123.5 170t-45.5 231.5q0 113 35.5 206.5t95.5 158t141 109.5t169.5 66t182.5 21q207 0 359 -51v-258q-142 63 -314 50z" glyph-name="ccedilla" horiz-adv-x="1130" unicode="ç"/><glyph d="M821 1196h-290l-266 307h361zM676 1103q108 0 199 -23t157.5 -65.5t115 -102.5t72 -134.5t28.5 -160.5t-16 -180h-771q60 -202 399 -207q161 -3 294 56v-254q-148 -50 -403 -50q-108 0 -206.5 20.5t-185 65t-150 109t-99.5 158t-36 207.5q0 139 50.5 249t136.5 176.5 t192 101t223 34.5zM910 663q13 91 -49.5 147.5t-159.5 53.5q-92 -4 -153.5 -58t-85.5 -143h448z" glyph-name="egrave" horiz-adv-x="1324" unicode="è"/><glyph d="M1087 1503l-266 -307h-290l195 307h361zM676 1103q108 0 199 -23t157.5 -65.5t115 -102.5t72 -134.5t28.5 -160.5t-16 -180h-771q60 -202 399 -207q161 -3 294 56v-254q-148 -50 -403 -50q-108 0 -206.5 20.5t-185 65t-150 109t-99.5 158t-36 207.5q0 139 50.5 249 t136.5 176.5t192 101t223 34.5zM910 663q13 91 -49.5 147.5t-159.5 53.5q-92 -4 -153.5 -58t-85.5 -143h448z" glyph-name="eacute" horiz-adv-x="1324" unicode="é"/><glyph d="M677 1401l-141 -206h-290l228 307h405l229 -307h-290zM676 1103q108 0 199 -23t157.5 -65.5t115 -102.5t72 -134.5t28.5 -160.5t-16 -180h-771q60 -202 399 -207q161 -3 294 56v-254q-148 -50 -403 -50q-108 0 -206.5 20.5t-185 65t-150 109t-99.5 158t-36 207.5 q0 139 50.5 249t136.5 176.5t192 101t223 34.5zM910 663q13 91 -49.5 147.5t-159.5 53.5q-92 -4 -153.5 -58t-85.5 -143h448z" glyph-name="ecircumflex" horiz-adv-x="1324" unicode="ê"/><glyph d="M621 1457v-262h-347v262h347zM1078 1457v-262h-345v262h345zM676 1103q108 0 199 -23t157.5 -65.5t115 -102.5t72 -134.5t28.5 -160.5t-16 -180h-771q60 -202 399 -207q161 -3 294 56v-254q-148 -50 -403 -50q-108 0 -206.5 20.5t-185 65t-150 109t-99.5 158t-36 207.5 q0 139 50.5 249t136.5 176.5t192 101t223 34.5zM910 663q13 91 -49.5 147.5t-159.5 53.5q-92 -4 -153.5 -58t-85.5 -143h448z" glyph-name="edieresis" horiz-adv-x="1324" unicode="ë"/><glyph d="M-110 1503h361l195 -307h-289zM106 1083h391v-1083h-391v1083z" glyph-name="igrave" horiz-adv-x="602" unicode="ì"/><glyph d="M713 1503l-267 -307h-289l194 307h362zM106 1083h391v-1083h-391v1083z" glyph-name="iacute" horiz-adv-x="602" unicode="í"/><glyph d="M732 1195h-290l-141 206l-141 -206h-290l228 307h405zM106 1083h391v-1083h-391v1083z" glyph-name="icircumflex" horiz-adv-x="602" unicode="î"/><glyph d="M-100 1457h346v-262h-346v262zM358 1457h345v-262h-345v262zM106 1083h391v-1083h-391v1083z" glyph-name="idieresis" horiz-adv-x="602" unicode="ï"/><glyph d="M972 1120q220 -309 266 -383q70 -114 81 -199q4 -30 4 -70q0 -99 -36 -181t-96.5 -137.5t-141.5 -93.5t-169 -55t-181.5 -17t-182 17t-169.5 55t-142 93.5t-96.5 137.5t-34.5 181q0 168 90.5 286t236.5 153q124 31 265 -9l-112 160l-320 -48v178l206 31l-150 215h461 q70 -100 107 -153l408 61v-178zM698.5 238q109.5 0 172 69t62.5 161q0 91 -63 160.5t-172 69.5q-110 0 -172 -68.5t-62 -161.5q0 -92 62.5 -161t172 -69z" glyph-name="eth" horiz-adv-x="1396" unicode="ð"/><glyph d="M312 1195q-1 136 61.5 204t156.5 68q62 0 156.5 -37.5t133.5 -37.5q60 0 63 74h187q0 -137 -62.5 -204.5t-155.5 -67.5q-59 0 -154 38t-134 38q-61 0 -64 -75h-188zM496 0h-390v1083h391v-155q147 175 432 175q189 0 268.5 -99.5t79.5 -325.5v-678h-390v577 q0 133 -34 193.5t-115 60.5q-73 0 -141.5 -45.5t-99.5 -127.5z" glyph-name="ntilde" horiz-adv-x="1383" unicode="ñ"/><glyph d="M288 1503h360l196 -307h-290zM1323 542q1 -115 -35.5 -210t-97 -159t-141.5 -107.5t-169 -63.5t-181.5 -20t-181.5 20t-169 63.5t-141.5 107.5t-96.5 159t-36 210q0 113 35.5 206.5t95.5 158t141 109.5t169.5 66t183 21t183 -21t169.5 -66t140.5 -109.5t95.5 -158 t36 -206.5zM698.5 236q111.5 0 173 85.5t61.5 220.5t-61.5 221t-173 86t-173 -86t-61.5 -221t61.5 -220.5t173 -85.5z" glyph-name="ograve" horiz-adv-x="1396" unicode="ò"/><glyph d="M1110 1503l-266 -307h-290l195 307h361zM1323 542q1 -115 -35.5 -210t-97 -159t-141.5 -107.5t-169 -63.5t-181.5 -20t-181.5 20t-169 63.5t-141.5 107.5t-96.5 159t-36 210q0 113 35.5 206.5t95.5 158t141 109.5t169.5 66t183 21t183 -21t169.5 -66t140.5 -109.5 t95.5 -158t36 -206.5zM698.5 236q111.5 0 173 85.5t61.5 220.5t-61.5 221t-173 86t-173 -86t-61.5 -221t61.5 -220.5t173 -85.5z" glyph-name="oacute" horiz-adv-x="1396" unicode="ó"/><glyph d="M1129 1195h-289l-142 206l-141 -206h-290l229 307h404zM1323 542q1 -115 -35.5 -210t-97 -159t-141.5 -107.5t-169 -63.5t-181.5 -20t-181.5 20t-169 63.5t-141.5 107.5t-96.5 159t-36 210q0 113 35.5 206.5t95.5 158t141 109.5t169.5 66t183 21t183 -21t169.5 -66 t140.5 -109.5t95.5 -158t36 -206.5zM698.5 236q111.5 0 173 85.5t61.5 220.5t-61.5 221t-173 86t-173 -86t-61.5 -221t61.5 -220.5t173 -85.5z" glyph-name="ocircumflex" horiz-adv-x="1396" unicode="ô"/><glyph d="M319 1195q-1 136 61.5 204t157.5 68q62 0 156 -37.5t133 -37.5q60 0 63 74h187q0 -137 -62.5 -204.5t-155.5 -67.5q-59 0 -154 38t-134 38q-61 0 -64 -75h-188zM1323 542q1 -115 -35.5 -210t-97 -159t-141.5 -107.5t-169 -63.5t-181.5 -20t-181.5 20t-169 63.5 t-141.5 107.5t-96.5 159t-36 210q0 113 35.5 206.5t95.5 158t141 109.5t169.5 66t183 21t183 -21t169.5 -66t140.5 -109.5t95.5 -158t36 -206.5zM698.5 236q111.5 0 173 85.5t61.5 220.5t-61.5 221t-173 86t-173 -86t-61.5 -221t61.5 -220.5t173 -85.5z" glyph-name="otilde" horiz-adv-x="1396" unicode="õ"/><glyph d="M297 1457h346v-262h-346v262zM756 1457h345v-262h-345v262zM1323 542q1 -115 -35.5 -210t-97 -159t-141.5 -107.5t-169 -63.5t-181.5 -20t-181.5 20t-169 63.5t-141.5 107.5t-96.5 159t-36 210q0 113 35.5 206.5t95.5 158t141 109.5t169.5 66t183 21t183 -21t169.5 -66 t140.5 -109.5t95.5 -158t36 -206.5zM698.5 236q111.5 0 173 85.5t61.5 220.5t-61.5 221t-173 86t-173 -86t-61.5 -221t61.5 -220.5t173 -85.5z" glyph-name="odieresis" horiz-adv-x="1396" unicode="ö"/><glyph d="M449 1258h372v-282h-372v282zM1129 586h-989v262h989v-262zM449 458h372v-283h-372v283z" glyph-name="divide" horiz-adv-x="1269" unicode="÷"/><glyph d="M1323 542q1 -115 -35.5 -210t-97 -159t-141.5 -107.5t-169 -63.5t-182 -20q-219 0 -382 101l-129 -129l-75 75l119 119q-158 150 -157 394q0 113 35.5 206.5t95.5 158t141 109.5t169.5 66t182.5 21q217 0 381 -104l131 131l76 -74l-122 -122q159 -150 159 -392zM464 542 q0 -75 20 -140l375 376q-62 71 -161 71q-112 0 -173 -86t-61 -221zM698 236q112 0 173.5 85.5t61.5 220.5q0 75 -21 139l-374 -376q61 -69 160 -69z" glyph-name="oslash" horiz-adv-x="1396" unicode="ø"/><glyph d="M280 1503h360l196 -307h-290zM888 1083h389v-1083h-390v156q-147 -175 -432 -175q-189 0 -269 99t-80 326v677h391v-576q0 -133 33.5 -194t114.5 -61q73 0 141.5 45.5t100.5 127.5z" glyph-name="ugrave" horiz-adv-x="1383" unicode="ù"/><glyph d="M1102 1503l-266 -307h-290l194 307h362zM888 1083h389v-1083h-390v156q-147 -175 -432 -175q-189 0 -269 99t-80 326v677h391v-576q0 -133 33.5 -194t114.5 -61q73 0 141.5 45.5t100.5 127.5z" glyph-name="uacute" horiz-adv-x="1383" unicode="ú"/><glyph d="M1121 1195h-290l-141 206l-141 -206h-290l228 307h405zM888 1083h389v-1083h-390v156q-147 -175 -432 -175q-189 0 -269 99t-80 326v677h391v-576q0 -133 33.5 -194t114.5 -61q73 0 141.5 45.5t100.5 127.5z" glyph-name="ucircumflex" horiz-adv-x="1383" unicode="û"/><glyph d="M289 1457h346v-262h-346v262zM748 1457h345v-262h-345v262zM888 1083h389v-1083h-390v156q-147 -175 -432 -175q-189 0 -269 99t-80 326v677h391v-576q0 -133 33.5 -194t114.5 -61q73 0 141.5 45.5t100.5 127.5z" glyph-name="udieresis" horiz-adv-x="1383" unicode="ü"/><glyph d="M1118 1503l-266 -307h-290l195 307h361zM946 1083h413l-439 -1051q-200 -473 -750 -426l-16 244q280 -36 309 183l-409 1050h415l227 -701z" glyph-name="yacute" horiz-adv-x="1413" unicode="ý"/><glyph d="M838 1103q118 0 215 -34t171.5 -101.5t116 -176t41.5 -250t-41.5 -250t-116 -175.5t-172 -100.5t-214.5 -33.5q-93 0 -178 31.5t-130 89.5v-556h-390v1989h390v-556q45 59 130 91t178 32zM761 226q112 0 171.5 87t59.5 228.5t-60 228.5t-171 87q-160 0 -230 -137v-356 q36 -70 96 -104t134 -34z" glyph-name="thorn" horiz-adv-x="1456" unicode="þ"/><glyph d="M305 1457h346v-262h-346v262zM764 1457h345v-262h-345v262zM946 1083h413l-439 -1051q-200 -473 -750 -426l-16 244q280 -36 309 183l-409 1050h415l227 -701z" glyph-name="ydieresis" horiz-adv-x="1413" unicode="ÿ"/><glyph d="M1125 1764v-219h-588v219h588zM1204 0l-85 257h-577l-85 -257h-447l527 1434h587l528 -1434h-448zM640 553h381l-191 575z" glyph-name="Amacron" horiz-adv-x="1661" unicode="Ā"/><glyph d="M364 1414h588v-219h-588v219zM643 1103q285 0 425 -113t140 -301v-690h-373l-17 114q-175 -143 -429 -131q-141 6 -222.5 83t-90.5 181q-7 83 13 153t72.5 130t141 95.5t216.5 50.5t299 -5v30q-1 66 -60.5 106.5t-159.5 47.5q-172 12 -392 -79v244q197 84 437 84z M818 309v174q-189 31 -292 -18t-94 -148q10 -106 166 -98q123 6 220 90z" glyph-name="amacron" horiz-adv-x="1313" unicode="ā"/><glyph d="M831 1545q-140 0 -235 78t-122 214h228q8 -50 41.5 -80.5t87.5 -30.5q52 0 86 31t42 80h229q-27 -136 -122.5 -214t-234.5 -78zM1204 0l-85 257h-577l-85 -257h-447l527 1434h587l528 -1434h-448zM640 553h381l-191 575z" glyph-name="Abreve" horiz-adv-x="1661" unicode="Ă"/><glyph d="M1015 1487q-27 -136 -122 -214t-235 -78t-235 78t-122 214h228q8 -50 41.5 -80.5t87.5 -30.5q52 0 86 31t42 80h229zM643 1103q285 0 425 -113t140 -301v-690h-373l-17 114q-175 -143 -429 -131q-141 6 -222.5 83t-90.5 181q-7 83 13 153t72.5 130t141 95.5t216.5 50.5 t299 -5v30q-1 66 -60.5 106.5t-159.5 47.5q-172 12 -392 -79v244q197 84 437 84zM818 309v174q-189 31 -292 -18t-94 -148q10 -106 166 -98q123 6 220 90z" glyph-name="abreve" horiz-adv-x="1313" unicode="ă"/><glyph d="M1346 -164q1 -51 60 -65t131 7l13 -157q-71 -22 -147 -18.5t-139.5 21t-105 61.5t-41.5 105q-1 59 44.5 116.5t149.5 93.5h-107l-85 257h-577l-85 -257h-447l527 1434h587l528 -1434h-124q-109 -45 -146 -86t-36 -78zM640 553h381l-191 575z" glyph-name="Aogonek" horiz-adv-x="1661" unicode="Ą"/><glyph d="M1111 -1q-95 -43 -128.5 -81.5t-32.5 -73.5q1 -51 60.5 -64.5t131.5 6.5l13 -157q-71 -22 -147 -18.5t-139.5 21t-105 61.5t-41.5 105q-1 55 39 109.5t130 91.5h-56l-17 114q-175 -143 -429 -131q-141 6 -222.5 83t-90.5 181q-7 83 13 153t72.5 130t141 95.5t216.5 50.5 t299 -5v30q-1 66 -60.5 106.5t-159.5 47.5q-172 12 -392 -79v244q198 84 437 84q285 0 425 -113t140 -301v-690h-97zM818 309v174q-189 31 -292 -18t-94 -148q10 -106 166 -98q123 6 220 90z" glyph-name="aogonek" horiz-adv-x="1313" unicode="ą"/><glyph d="M1207 1852l-266 -307h-290l195 307h361zM1241 1095q-201 78 -379 58q-159 -11 -259 -125t-100 -311.5t100 -311t259 -124.5q178 -19 379 58v-302q-174 -55 -378 -55q-154 0 -293.5 48t-249.5 137.5t-175.5 232t-65.5 317.5t65.5 317.5t175.5 232t250 137.5t293 48 q204 0 378 -55v-302z" glyph-name="Cacute" horiz-adv-x="1381" unicode="Ć"/><glyph d="M1110 1503l-266 -307h-290l195 307h361zM1057 794q-141 63 -314 50q-128 -10 -203.5 -91.5t-75.5 -210.5t75 -210t204 -92q172 -13 314 50v-258q-148 -50 -359 -50q-94 0 -182.5 21t-169.5 65.5t-141 109t-95.5 158t-35.5 206t35.5 206.5t95.5 158.5t141 109.5t169.5 66 t182.5 21q207 0 359 -51v-258z" glyph-name="cacute" horiz-adv-x="1130" unicode="ć"/><glyph d="M623 1807h346v-262h-346v262zM1241 1095q-201 78 -379 58q-159 -11 -259 -125t-100 -311.5t100 -311t259 -124.5q178 -19 379 58v-302q-174 -55 -378 -55q-154 0 -293.5 48t-249.5 137.5t-175.5 232t-65.5 317.5t65.5 317.5t175.5 232t250 137.5t293 48q204 0 378 -55 v-302z" glyph-name="Cdotaccent" horiz-adv-x="1381" unicode="Ċ"/><glyph d="M525 1457h346v-262h-346v262zM1057 794q-141 63 -314 50q-128 -10 -203.5 -91.5t-75.5 -210.5t75 -210t204 -92q172 -13 314 50v-258q-148 -50 -359 -50q-94 0 -182.5 21t-169.5 65.5t-141 109t-95.5 158t-35.5 206t35.5 206.5t95.5 158.5t141 109.5t169.5 66t182.5 21 q207 0 359 -51v-258z" glyph-name="cdotaccent" horiz-adv-x="1130" unicode="ċ"/><glyph d="M938 1852h290l-230 -307h-404l-228 307h289l142 -206zM1241 1095q-201 78 -379 58q-159 -11 -259 -125t-100 -311.5t100 -311t259 -124.5q178 -19 379 58v-302q-174 -55 -378 -55q-154 0 -293.5 48t-249.5 137.5t-175.5 232t-65.5 317.5t65.5 317.5t175.5 232t250 137.5 t293 48q204 0 378 -55v-302z" glyph-name="Ccaron" horiz-adv-x="1381" unicode="Č"/><glyph d="M840 1502h289l-229 -307h-404l-229 307h290l141 -207zM1057 794q-141 63 -314 50q-128 -10 -203.5 -91.5t-75.5 -210.5t75 -210t204 -92q172 -13 314 50v-258q-148 -50 -359 -50q-94 0 -182.5 21t-169.5 65.5t-141 109t-95.5 158t-35.5 206t35.5 206.5t95.5 158.5 t141 109.5t169.5 66t182.5 21q207 0 359 -51v-258z" glyph-name="ccaron" horiz-adv-x="1130" unicode="č"/><glyph d="M940 1852h290l-230 -307h-404l-228 307h289l142 -206zM1545 717q0 -145 -37.5 -264t-103.5 -202.5t-158.5 -140.5t-201 -83.5t-232.5 -26.5h-672v1434h672q156 0 288 -45.5t232 -132t156.5 -225t56.5 -314.5zM769 297q165 0 258 117.5t93 302.5q0 183 -95 301.5 t-256 118.5h-205v-840h205z" glyph-name="Dcaron" horiz-adv-x="1623" unicode="Ď"/><glyph d="M74 542q0 141 41.5 249.5t116 176t172.5 101.5t214 34q95 0 177.5 -28t130.5 -87v548h390v-1536h-314l-17 120q-117 -138 -367 -138q-117 0 -213.5 32.5t-172 98t-117.5 175.5t-41 254zM1543 1391h392l-140 -613h-345zM692 236q165 0 231 164v317q-36 71 -97 105.5 t-134 34.5q-112 0 -171.5 -87t-59.5 -228q0 -135 59.5 -220.5t171.5 -85.5z" glyph-name="dcaron" horiz-adv-x="2040" unicode="ď"/><glyph d="M1553 717q1 -145 -36 -264t-103.5 -202.5t-159.5 -140.5t-201.5 -83.5t-232.5 -26.5h-672v628h-130v178h130v628h672q157 0 288.5 -45.5t232 -132t156.5 -225t56 -314.5zM778 297q165 0 258 117.5t93 302.5q0 183 -95 301.5t-256 118.5h-206v-331h243v-178h-243v-331h206 z" glyph-name="Dcroat" horiz-adv-x="1632" unicode="Đ"/><glyph d="M1408 1402v-177h-92v-1225h-314l-17 120q-117 -138 -367 -138q-117 0 -213.5 32.5t-172 98t-117.5 175t-41 254.5q0 141 41.5 249.5t116 176t172.5 101.5t214 34q95 0 177.5 -28t130.5 -87v237h-306v177h306v134h390v-134h92zM923 400v317q-36 71 -97 105.5t-134 34.5 q-112 0 -171.5 -87t-59.5 -228q0 -135 60 -220.5t171 -85.5q165 -1 231 164z" glyph-name="dcroat" horiz-adv-x="1456" unicode="đ"/><glyph d="M420 1764h589v-219h-589v219zM564 297h724v-297h-1148v1434h1148v-297h-724v-272h634v-297h-634v-271z" glyph-name="Emacron" horiz-adv-x="1428" unicode="Ē"/><glyph d="M971 1414v-219h-589v219h589zM676 1103q108 0 199 -23t157.5 -65.5t115 -102.5t72 -134.5t28.5 -160.5t-16 -180h-771q60 -202 399 -207q161 -3 294 56v-254q-148 -50 -403 -50q-108 0 -206.5 20.5t-185 65t-150 109t-99.5 158t-36 207.5q0 139 50.5 249t136.5 176.5 t192 101t223 34.5zM910 663q13 91 -49.5 147.5t-159.5 53.5q-92 -4 -153.5 -58t-85.5 -143h448z" glyph-name="emacron" horiz-adv-x="1324" unicode="ē"/><glyph d="M541 1807h346v-262h-346v262zM564 297h724v-297h-1148v1434h1148v-297h-724v-272h634v-297h-634v-271z" glyph-name="Edotaccent" horiz-adv-x="1428" unicode="Ė"/><glyph d="M849 1457v-262h-346v262h346zM676 1103q108 0 199 -23t157.5 -65.5t115 -102.5t72 -134.5t28.5 -160.5t-16 -180h-771q60 -202 399 -207q161 -3 294 56v-254q-148 -50 -403 -50q-108 0 -206.5 20.5t-185 65t-150 109t-99.5 158t-36 207.5q0 139 50.5 249t136.5 176.5 t192 101t223 34.5zM910 663q13 91 -49.5 147.5t-159.5 53.5q-92 -4 -153.5 -58t-85.5 -143h448z" glyph-name="edotaccent" horiz-adv-x="1324" unicode="ė"/><glyph d="M1288 1137h-724v-272h634v-297h-634v-271h724v-297h-466q-109 -45 -146 -86t-36 -78q1 -51 60.5 -65t130.5 7l14 -157q-71 -22 -147 -18.5t-139.5 21t-105 61.5t-41.5 105q-1 59 44.5 116.5t148.5 93.5h-465v1434h1148v-297z" glyph-name="Eogonek" horiz-adv-x="1428" unicode="Ę"/><glyph d="M676 1103q108 0 199 -23t157.5 -65.5t115 -102.5t72 -134.5t28.5 -160.5t-16 -180h-771q60 -202 399 -207q161 -3 294 56v-254q-132 -44 -343 -49q-145 -70 -143 -147q1 -51 60 -65t131 7l13 -157q-71 -22 -147 -18.5t-139.5 21t-105 61.5t-41.5 105q-1 55 39 110t131 91 q-114 15 -208.5 56.5t-168.5 107.5t-116 165.5t-42 221.5q0 139 50.5 249t136.5 176.5t192 101t223 34.5zM910 663q13 91 -49.5 147.5t-159.5 53.5q-92 -4 -153.5 -58t-85.5 -143h448z" glyph-name="eogonek" horiz-adv-x="1324" unicode="ę"/><glyph d="M856 1852h290l-230 -307h-404l-228 307h289l142 -206zM564 297h724v-297h-1148v1434h1148v-297h-724v-272h634v-297h-634v-271z" glyph-name="Ecaron" horiz-adv-x="1428" unicode="Ě"/><glyph d="M879 1195h-405l-228 307h290l141 -207l141 207h290zM676 1103q108 0 199 -23t157.5 -65.5t115 -102.5t72 -134.5t28.5 -160.5t-16 -180h-771q60 -202 399 -207q161 -3 294 56v-254q-148 -50 -403 -50q-108 0 -206.5 20.5t-185 65t-150 109t-99.5 158t-36 207.5 q0 139 50.5 249t136.5 176.5t192 101t223 34.5zM910 663q13 91 -49.5 147.5t-159.5 53.5q-92 -4 -153.5 -58t-85.5 -143h448z" glyph-name="ecaron" horiz-adv-x="1324" unicode="ě"/><glyph d="M1202 1837q-27 -136 -122 -214t-234 -78q-140 0 -235.5 78t-122.5 214h229q8 -50 41.5 -80.5t87.5 -30.5q52 0 86 31t42 80h228zM834 862h557v-778q-264 -102 -528 -102q-154 0 -293.5 48t-249.5 137.5t-175.5 232t-65.5 317.5t65.5 317.5t175.5 232t250 137.5t293 48 q204 0 378 -55v-300q-200 78 -380 59q-158 -11 -258 -126.5t-100 -313t100 -312.5t258 -126q84 -6 176 19v294h-203v271z" glyph-name="Gbreve" horiz-adv-x="1530" unicode="Ğ"/><glyph d="M1085 1487q-27 -136 -122 -214t-234 -78q-140 0 -235.5 78t-121.5 214h228q8 -50 41.5 -80.5t87.5 -30.5q52 0 86 31t42 80h228zM927 1083h388v-968q0 -173 -85.5 -297.5t-230 -185t-332.5 -60.5q-217 0 -368 50v256q144 -63 323 -50q145 10 224 62.5t79 158.5v95 q-89 -112 -307 -111q-157 0 -277.5 57t-193.5 179.5t-73 297.5q-1 135 38 239.5t108.5 168t159 96t195.5 32.5q224 0 351 -168zM461 567q0 -133 59 -211t171 -78q75 0 137.5 33.5t93.5 103.5v271q-67 163 -231 163q-112 0 -171 -77t-59 -205z" glyph-name="gbreve" horiz-adv-x="1420" unicode="ğ"/><glyph d="M672 1807h346v-262h-346v262zM834 862h557v-778q-264 -102 -528 -102q-154 0 -293.5 48t-249.5 137.5t-175.5 232t-65.5 317.5t65.5 317.5t175.5 232t250 137.5t293 48q204 0 378 -55v-300q-200 78 -380 59q-158 -11 -258 -126.5t-100 -313t100 -312.5t258 -126 q84 -6 176 19v294h-203v271z" glyph-name="Gdotaccent" horiz-adv-x="1530" unicode="Ġ"/><glyph d="M555 1457h346v-262h-346v262zM927 1083h388v-968q0 -173 -85.5 -297.5t-230 -185t-332.5 -60.5q-217 0 -368 50v256q144 -63 323 -50q145 10 224 62.5t79 158.5v95q-89 -112 -307 -111q-157 0 -277.5 57t-193.5 179.5t-73 297.5q-1 135 38 239.5t108.5 168t159 96 t195.5 32.5q224 0 351 -168zM461 567q0 -133 59 -211t171 -78q75 0 137.5 33.5t93.5 103.5v271q-67 163 -231 163q-112 0 -171 -77t-59 -205z" glyph-name="gdotaccent" horiz-adv-x="1420" unicode="ġ"/><glyph d="M834 862h557v-778q-264 -102 -528 -102q-154 0 -293.5 48t-249.5 137.5t-175.5 232t-65.5 317.5t65.5 317.5t175.5 232t250 137.5t293 48q204 0 378 -55v-300q-200 78 -380 59q-158 -11 -258 -126.5t-100 -313t100 -312.5t258 -126q84 -6 176 19v294h-203v271zM694 -126 h311l-111 -485h-273z" glyph-name="Gcommaaccent" horiz-adv-x="1530" unicode="Ģ"/><glyph d="M874 1219h-310l111 485h273zM927 1083h388v-968q0 -173 -85.5 -297.5t-230 -185t-332.5 -60.5q-217 0 -368 50v256q144 -63 323 -50q145 10 224 62.5t79 158.5v95q-89 -112 -307 -111q-157 0 -277.5 57t-193.5 179.5t-73 297.5q-1 135 38 239.5t108.5 168t159 96 t195.5 32.5q224 0 351 -168zM461 567q0 -133 59 -211t171 -78q75 0 137.5 33.5t93.5 103.5v271q-67 163 -231 163q-112 0 -171 -77t-59 -205z" glyph-name="gcommaaccent" horiz-adv-x="1420" unicode="ģ"/><glyph d="M1645 1242v-177h-136v-1065h-424v568h-521v-568h-424v1065h-135v177h135v192h424v-192h521v192h424v-192h136zM1085 865v200h-521v-200h521z" glyph-name="Hbar" horiz-adv-x="1649" unicode="Ħ"/><glyph d="M929 1103q189 0 268.5 -99.5t79.5 -325.5v-678h-390v577q0 133 -34 193.5t-115 60.5q-73 0 -141.5 -45.5t-99.5 -127.5l-1 -658h-390v1225h-93v177h93v134h391v-134h306v-177h-306v-297q147 175 432 175z" glyph-name="hbar" horiz-adv-x="1383" unicode="ħ"/><glyph d="M-27 1545q-1 136 61.5 204.5t156.5 68.5q62 0 156.5 -38t133.5 -38q60 0 63 75h187q0 -137 -62.5 -205t-155.5 -68q-59 0 -154 38t-134 38q-61 0 -64 -75h-188zM564 0h-424v1434h424v-1434z" glyph-name="Itilde" horiz-adv-x="704" unicode="Ĩ"/><glyph d="M-78 1195q-1 136 61.5 204t156.5 68q62 0 156.5 -37.5t133.5 -37.5q60 0 63 74h187q0 -137 -62.5 -204.5t-155.5 -67.5q-59 0 -154 38t-134 38q-61 0 -64 -75h-188zM106 1083h391v-1083h-391v1083z" glyph-name="itilde" horiz-adv-x="602" unicode="ĩ"/><glyph d="M58 1764h589v-219h-589v219zM564 0h-424v1434h424v-1434z" glyph-name="Imacron" horiz-adv-x="704" unicode="Ī"/><glyph d="M7 1414h589v-219h-589v219zM106 1083h391v-1083h-391v1083z" glyph-name="imacron" horiz-adv-x="602" unicode="ī"/><glyph d="M465 0q-109 -45 -146 -86t-36 -78q1 -51 60 -65t131 7l13 -157q-71 -22 -147 -18.5t-139.5 21t-105 61.5t-41.5 105q-1 59 44.5 116.5t149.5 93.5h-108v1434h424v-1434h-99z" glyph-name="Iogonek" horiz-adv-x="704" unicode="Į"/><glyph d="M115 1434h440v-245h-440v245zM140 0v1083h390v-1083h-87q-109 -45 -146 -86t-36 -78q1 -51 60.5 -65t131.5 7l13 -157q-71 -22 -147 -18.5t-139.5 21t-105 61.5t-41.5 105q-1 59 44.5 116.5t148.5 93.5h-86z" glyph-name="iogonek" horiz-adv-x="670" unicode="į"/><glyph d="M179 1807h346v-262h-346v262zM564 0h-424v1434h424v-1434z" glyph-name="Idotaccent" horiz-adv-x="704" unicode="İ"/><glyph d="M106 1083h391v-1083h-391v1083z" glyph-name="dotlessi" horiz-adv-x="602" unicode="ı"/><glyph d="M564 0h-424v1434h424v-1434zM715 327q160 -51 261 -40q222 19 222 241v906h425v-914q0 -126 -29 -220.5t-80.5 -155t-130.5 -97.5t-168.5 -51t-203.5 -14q-171 0 -296 33v312z" glyph-name="IJ" horiz-adv-x="1762" unicode="Ĳ"/><glyph d="M1471 1434l-482 -692l482 -742h-464l-443 680v-680h-424v1434h424v-633l443 633h464zM541 -611l73 485h311l-111 -485h-273z" glyph-name="Kcommaaccent" horiz-adv-x="1488" unicode="Ķ"/><glyph d="M1326 1083l-452 -436l452 -647h-404l-273 429l-152 -147v-282h-391v1536h391v-850l424 397h405zM466 -611l74 485h310l-111 -485h-273z" glyph-name="kcommaaccent" horiz-adv-x="1381" unicode="ķ"/><glyph d="M1326 1083l-452 -436l452 -647h-404l-273 429l-152 -147v-282h-391v1083h391v-397l424 397h405z" glyph-name="kgreenlandic" horiz-adv-x="1381" unicode="ĸ"/><glyph d="M1109 1852l-266 -307h-290l195 307h361zM564 1434v-1137h675v-297h-1099v1434h424z" glyph-name="Lacute" horiz-adv-x="1312" unicode="Ĺ"/><glyph d="M713 1955l-267 -307h-289l194 307h362zM106 1536h391v-1536h-391v1536z" glyph-name="lacute" horiz-adv-x="602" unicode="ĺ"/><glyph d="M564 1434v-1137h675v-297h-1099v1434h424zM547 -126h310l-111 -485h-273z" glyph-name="Lcommaaccent" horiz-adv-x="1312" unicode="Ļ"/><glyph d="M106 1536h391v-1536h-391v1536zM150 -126h310l-111 -485h-273z" glyph-name="lcommaaccent" horiz-adv-x="602" unicode="ļ"/><glyph d="M564 1434v-1137h675v-297h-1099v1434h424zM949 1391h392l-140 -613h-346z" glyph-name="Lcaron" horiz-adv-x="1379" unicode="Ľ"/><glyph d="M106 1536h391v-1536h-391v1536zM725 1391h392l-140 -613h-345z" glyph-name="lcaron" horiz-adv-x="1257" unicode="ľ"/><glyph d="M564 1434v-1137h675v-297h-1099v1434h424zM812 884h440v-334h-440v334z" glyph-name="Ldot" horiz-adv-x="1392" unicode="Ŀ"/><glyph d="M106 1536h391v-1536h-391v1536zM583 935h440v-334h-440v334z" glyph-name="ldot" horiz-adv-x="1128" unicode="ŀ"/><glyph d="M564 297h675v-297h-1099v686l-125 -13v160l125 13v588h424v-541l381 42v-160l-381 -42v-436z" glyph-name="Lslash" horiz-adv-x="1312" unicode="Ł"/><glyph d="M597 939v-160l-100 -17v-762h-391v694l-101 -17v160l101 17v682h391v-614z" glyph-name="lslash" horiz-adv-x="602" unicode="ł"/><glyph d="M1251 1852l-266 -307h-290l195 307h361zM1116 1434h425v-1434h-427l-550 810v-810h-424v1434h427l549 -794v794z" glyph-name="Nacute" horiz-adv-x="1680" unicode="Ń"/><glyph d="M1103 1503l-266 -307h-290l194 307h362zM496 0h-390v1083h391v-155q147 175 432 175q189 0 268.5 -99.5t79.5 -325.5v-678h-390v577q0 133 -34 193.5t-115 60.5q-73 0 -141.5 -45.5t-99.5 -127.5z" glyph-name="nacute" horiz-adv-x="1383" unicode="ń"/><glyph d="M1116 1434h425v-1434h-427l-550 810v-810h-424v1434h427l549 -794v794zM689 -126h310l-110 -485h-274z" glyph-name="Ncommaaccent" horiz-adv-x="1680" unicode="Ņ"/><glyph d="M496 0h-390v1083h391v-155q147 175 432 175q189 0 268.5 -99.5t79.5 -325.5v-678h-390v577q0 133 -34 193.5t-115 60.5q-73 0 -141.5 -45.5t-99.5 -127.5zM541 -126h310l-111 -485h-273z" glyph-name="ncommaaccent" horiz-adv-x="1383" unicode="ņ"/><glyph d="M982 1852h290l-230 -307h-404l-228 307h289l142 -206zM1116 1434h425v-1434h-427l-550 810v-810h-424v1434h427l549 -794v794z" glyph-name="Ncaron" horiz-adv-x="1680" unicode="Ň"/><glyph d="M833 1502h289l-229 -307h-405l-228 307h290l141 -207zM496 0h-390v1083h391v-155q147 175 432 175q189 0 268.5 -99.5t79.5 -325.5v-678h-390v577q0 133 -34 193.5t-115 60.5q-73 0 -141.5 -45.5t-99.5 -127.5z" glyph-name="ncaron" horiz-adv-x="1383" unicode="ň"/><glyph d="M233 1536h393l-140 -613h-346zM1084 0h-389v1083h390v-155q147 175 433 175q189 0 268.5 -99.5t79.5 -325.5v-678h-390v577q0 133 -34 193.5t-115 60.5q-72 0 -141 -45.5t-101 -127.5z" glyph-name="napostrophe" horiz-adv-x="1972" unicode="ŉ"/><glyph d="M1116 1434h425v-1464q0 -77 -23.5 -133t-60 -88.5t-90.5 -51.5t-106.5 -25t-116.5 -5q-131 2 -213 47l11 155q95 -22 150 1q36 11 47.5 40t11.5 89v1h-37l-550 810v-810h-424v1434h427l549 -794v794z" glyph-name="Eng" horiz-adv-x="1680" unicode="Ŋ"/><glyph d="M929 1103q189 0 268.5 -99.5t79.5 -325.5v-708q0 -77 -23.5 -133t-60 -88.5t-90.5 -51.5t-106.5 -25t-116.5 -5q-132 2 -212 47l10 155q95 -22 150 1q36 11 47.5 40t11.5 89v578q0 133 -34 193.5t-115 60.5q-73 0 -141.5 -45.5t-99.5 -127.5l-1 -658h-390v1083h391v-155 q147 175 432 175z" glyph-name="eng" horiz-adv-x="1383" unicode="ŋ"/><glyph d="M568 1764h589v-219h-589v219zM1646 717q1 -144 -42.5 -266t-118 -207t-175 -145t-214 -88.5t-235.5 -28.5q-121 0 -234 28.5t-213 88.5t-174.5 145t-117.5 206.5t-43 266.5q0 140 42.5 261t116.5 207t173.5 147t213.5 90.5t236 29.5t236.5 -29.5t214 -90.5t174 -147 t117.5 -207t43 -261zM861 278q161 0 261 119t100 320q0 200 -102 319.5t-259 119.5q-155 0 -256.5 -120t-101.5 -319q0 -201 99 -320t259 -119z" glyph-name="Omacron" horiz-adv-x="1724" unicode="Ō"/><glyph d="M404 1414h589v-219h-589v219zM1323 542q1 -115 -35.5 -210t-97 -159t-141.5 -107.5t-169 -63.5t-181.5 -20t-181.5 20t-169 63.5t-141.5 107.5t-96.5 159t-36 210q0 113 35.5 206.5t95.5 158t141 109.5t169.5 66t183 21t183 -21t169.5 -66t140.5 -109.5t95.5 -158 t36 -206.5zM698.5 236q111.5 0 173 85.5t61.5 220.5t-61.5 221t-173 86t-173 -86t-61.5 -221t61.5 -220.5t173 -85.5z" glyph-name="omacron" horiz-adv-x="1396" unicode="ō"/><glyph d="M901 1886l-164 -341h-249l161 341h252zM1236 1886l-164 -341h-250l161 341h253zM1646 717q1 -144 -42.5 -266t-118 -207t-175 -145t-214 -88.5t-235.5 -28.5q-121 0 -234 28.5t-213 88.5t-174.5 145t-117.5 206.5t-43 266.5q0 140 42.5 261t116.5 207t173.5 147 t213.5 90.5t236 29.5t236.5 -29.5t214 -90.5t174 -147t117.5 -207t43 -261zM861 278q161 0 261 119t100 320q0 200 -102 319.5t-259 119.5q-155 0 -256.5 -120t-101.5 -319q0 -201 99 -320t259 -119z" glyph-name="Ohungarumlaut" horiz-adv-x="1724" unicode="Ő"/><glyph d="M737 1536l-164 -341h-248l160 341h252zM1072 1536l-164 -341h-250l161 341h253zM1323 542q1 -115 -35.5 -210t-97 -159t-141.5 -107.5t-169 -63.5t-181.5 -20t-181.5 20t-169 63.5t-141.5 107.5t-96.5 159t-36 210q0 113 35.5 206.5t95.5 158t141 109.5t169.5 66t183 21 t183 -21t169.5 -66t140.5 -109.5t95.5 -158t36 -206.5zM698.5 236q111.5 0 173 85.5t61.5 220.5t-61.5 221t-173 86t-173 -86t-61.5 -221t61.5 -220.5t173 -85.5z" glyph-name="ohungarumlaut" horiz-adv-x="1396" unicode="ő"/><glyph d="M2352 1137h-724v-249q2 -6 4 -23h630v-297h-629q-1 -11 -5 -28v-243h724v-297h-1148v46q-160 -65 -343 -64q-121 0 -234 28.5t-213 88.5t-174.5 145t-117.5 206.5t-43 266.5q0 140 42.5 261t116.5 207t173.5 147t213.5 90.5t236 29.5q181 0 343 -66v48h1148v-297z M861 278q127 0 218 76t125 212v299q-34 136 -126.5 213.5t-216.5 77.5q-155 0 -256.5 -120t-101.5 -319q0 -201 99 -320t259 -119z" glyph-name="OE" horiz-adv-x="2492" unicode="Œ"/><glyph d="M1612 1103q213 0 353.5 -88t191 -238t10.5 -340h-770q60 -202 398 -207q162 -3 295 56v-254q-148 -50 -404 -50q-154 0 -288 43t-228 128q-88 -85 -212.5 -128t-259.5 -43q-93 0 -181 20t-169 63.5t-141.5 107.5t-96.5 159t-36 210q0 113 35.5 206.5t95.5 158t141 109.5 t169.5 66t182.5 21q131 0 253 -42t210 -125q84 83 202 125t249 42zM1846 663q12 91 -50.5 147.5t-158.5 53.5q-93 -4 -154 -58t-85 -143h448zM698.5 236q111.5 0 173 85.5t61.5 220.5t-61.5 221t-173 86t-173 -86t-61.5 -221t61.5 -220.5t173 -85.5z" glyph-name="oe" horiz-adv-x="2259" unicode="œ"/><glyph d="M1197 1852l-266 -307h-290l195 307h361zM1508 0h-425l-275 459q-118 -11 -244 -15v-444h-424v1434h687q276 0 441 -125.5t165 -357.5q0 -151 -60.5 -250t-189.5 -156zM564 1154v-431q172 5 267.5 28t136 70t40.5 130q0 95 -57 149t-149 54h-238z" glyph-name="Racute" horiz-adv-x="1587" unicode="Ŕ"/><glyph d="M881 1503l-267 -307h-289l194 307h362zM496 0l-390 1v1082h380v-130q62 67 176 108.5t222 41.5v-267q-61 8 -143.5 -12t-152.5 -62.5t-91 -92.5z" glyph-name="racute" horiz-adv-x="920" unicode="ŕ"/><glyph d="M1183 545l325 -545h-425l-275 459q-118 -11 -244 -15v-444h-424v1434h687q276 0 441 -125.5t165 -357.5q0 -151 -60.5 -250t-189.5 -156zM564 1154v-431q172 5 267.5 28t136 70t40.5 130q0 95 -57 149t-149 54h-238zM561 -611l74 485h310l-110 -485h-274z" glyph-name="Rcommaaccent" horiz-adv-x="1587" unicode="Ŗ"/><glyph d="M496 0l-390 1v1082h380v-130q62 67 176 108.5t222 41.5v-267q-61 8 -143.5 -12t-152.5 -62.5t-91 -92.5zM318 -126h311l-111 -485h-273z" glyph-name="rcommaaccent" horiz-adv-x="920" unicode="ŗ"/><glyph d="M987 1545h-404l-229 307h290l141 -206l142 206h290zM1508 0h-425l-275 459q-118 -11 -244 -15v-444h-424v1434h687q276 0 441 -125.5t165 -357.5q0 -151 -60.5 -250t-189.5 -156zM564 1154v-431q172 5 267.5 28t136 70t40.5 130q0 95 -57 149t-149 54h-238z" glyph-name="Rcaron" horiz-adv-x="1587" unicode="Ř"/><glyph d="M611 1502h290l-229 -307h-405l-228 307h290l141 -207zM496 0l-390 1v1082h380v-130q62 67 176 108.5t222 41.5v-267q-61 8 -143.5 -12t-152.5 -62.5t-91 -92.5z" glyph-name="rcaron" horiz-adv-x="920" unicode="ř"/><glyph d="M1099 1852l-266 -307h-290l194 307h362zM101 415q249 -137 472 -137q48 0 93 7t83.5 22t62 42t23.5 63q0 37 -29.5 65t-82 47.5t-107 33.5t-123 33t-111.5 37q-156 66 -232.5 166.5t-69.5 260.5q8 179 170.5 288.5t444.5 109.5q242 0 430 -97l-1 -322 q-116 67 -215.5 95.5t-213.5 27.5q-79 -1 -137.5 -32.5t-63.5 -90.5q-3 -26 6.5 -47t31.5 -37.5t48 -29.5t63.5 -24t69 -20t74 -20t71.5 -20q399 -127 383 -460q-4 -88 -44.5 -156.5t-104.5 -113t-150.5 -73t-177 -40t-191.5 -11.5q-123 0 -249 28.5t-224 81.5z" glyph-name="Sacute" horiz-adv-x="1320" unicode="Ś"/><glyph d="M990 1503l-266 -307h-290l195 307h361zM114 309q148 -81 348 -96q82 -6 141.5 18t69.5 71q10 49 -76 83q-27 10 -164 47q-191 50 -276 134t-83 219q1 105 73.5 178.5t189.5 106.5t269 33q111 0 214 -20t169 -56v-251q-153 86 -343 94q-75 1 -124.5 -19.5t-53.5 -65.5 q-2 -23 14 -40.5t52.5 -34t78 -30t109.5 -34.5q23 -6 35 -10q80 -25 132.5 -49t95 -59.5t61.5 -85.5t18 -118q-1 -86 -45.5 -154t-119.5 -107.5t-167.5 -60t-197.5 -20.5q-117 0 -236 21t-184 57v249z" glyph-name="sacute" horiz-adv-x="1137" unicode="ś"/><glyph d="M858 836q399 -127 383 -460q-4 -84 -41 -150.5t-95.5 -110t-139 -73.5t-165.5 -43t-180 -16l-61 -70q11 2 36 2q94 0 148.5 -40.5t54.5 -104.5q0 -82 -73 -130t-219 -48q-58 0 -137 13v107q44 -8 104 -8q120 0 120 72q0 35 -27.5 49.5t-84.5 14.5q-27 0 -45 -2v71l61 76 q-232 17 -397 107l1 323q249 -137 472 -137q48 0 93 7t83.5 22t62 42t23.5 63q0 37 -29.5 65t-82 47.5t-107 33.5t-123 33t-111.5 37q-156 66 -232.5 166.5t-69.5 260.5q8 179 170.5 288.5t444.5 109.5q242 0 430 -97l-1 -322q-116 67 -215.5 95.5t-213.5 27.5 q-79 -1 -137.5 -32.5t-63.5 -90.5q-3 -26 6.5 -47t31.5 -37.5t48 -29.5t63.5 -24t69 -20t74 -20t71.5 -20z" glyph-name="Scedilla" horiz-adv-x="1320" unicode="Ş"/><glyph d="M757 636q80 -25 132.5 -49t95 -59.5t61.5 -85.5t18 -118q-1 -77 -37 -139t-97.5 -102.5t-138.5 -64.5t-168 -32l-64 -73q11 2 36 2q94 0 148.5 -40.5t54.5 -104.5q0 -82 -73 -130t-219 -48q-58 0 -137 13v107q44 -8 104 -8q120 0 120 72q0 35 -27.5 49.5t-84.5 14.5 q-27 0 -45 -2v71l59 74q-112 3 -217 23.5t-164 53.5v249q148 -81 348 -96q82 -6 141.5 18t69.5 71q10 49 -76 83q-27 10 -164 47q-191 50 -276 134t-83 219q1 105 73.5 178.5t189.5 106.5t269 33q111 0 214 -20t169 -56v-251q-153 86 -343 94q-75 1 -124.5 -19.5 t-53.5 -65.5q-2 -23 14 -40.5t52.5 -34t78 -30t109.5 -34.5q23 -6 35 -10z" glyph-name="scedilla" horiz-adv-x="1137" unicode="ş"/><glyph d="M828 1852h290l-229 -307h-405l-228 307h290l141 -206zM101 415q249 -137 472 -137q48 0 93 7t83.5 22t62 42t23.5 63q0 37 -29.5 65t-82 47.5t-107 33.5t-123 33t-111.5 37q-156 66 -232.5 166.5t-69.5 260.5q8 179 170.5 288.5t444.5 109.5q242 0 430 -97l-1 -322 q-116 67 -215.5 95.5t-213.5 27.5q-79 -1 -137.5 -32.5t-63.5 -90.5q-3 -26 6.5 -47t31.5 -37.5t48 -29.5t63.5 -24t69 -20t74 -20t71.5 -20q399 -127 383 -460q-4 -88 -44.5 -156.5t-104.5 -113t-150.5 -73t-177 -40t-191.5 -11.5q-123 0 -249 28.5t-224 81.5z" glyph-name="Scaron" horiz-adv-x="1320" unicode="Š"/><glyph d="M720 1502h290l-230 -307h-404l-229 307h290l142 -207zM114 309q148 -81 348 -96q82 -6 141.5 18t69.5 71q10 49 -76 83q-27 10 -164 47q-191 50 -276 134t-83 219q1 105 73.5 178.5t189.5 106.5t269 33q111 0 214 -20t169 -56v-251q-153 86 -343 94q-75 1 -124.5 -19.5 t-53.5 -65.5q-2 -23 14 -40.5t52.5 -34t78 -30t109.5 -34.5q23 -6 35 -10q80 -25 132.5 -49t95 -59.5t61.5 -85.5t18 -118q-1 -86 -45.5 -154t-119.5 -107.5t-167.5 -60t-197.5 -20.5q-117 0 -236 21t-184 57v249z" glyph-name="scaron" horiz-adv-x="1137" unicode="š"/><glyph d="M824 0h-153l-76 -87q11 2 36 2q94 0 148.5 -40.5t54.5 -104.5q0 -82 -73 -130t-219 -48q-58 0 -138 13v107q44 -8 105 -8q120 0 120 72q0 35 -28 49.5t-84 14.5q-27 0 -45 -2v71l73 91h-146v1137h-381v297h1186v-297h-380v-1137z" glyph-name="Tcommaaccent" horiz-adv-x="1223" unicode="Ţ"/><glyph d="M901 821h-272v-469q0 -50 27 -78t73 -28h172v-246h-350l-76 -87q11 2 36 2q94 0 148.5 -40.5t54.5 -104.5q0 -82 -73 -130t-219 -48q-58 0 -137 13v107q44 -8 104 -8q120 0 120 72q0 35 -27.5 49.5t-84.5 14.5q-27 0 -45 -2v71l76 95q-83 14 -136 80t-53 155v582h-165 v262h165v209h390v-209h272v-262z" glyph-name="tcommaaccent" horiz-adv-x="1007" unicode="ţ"/><glyph d="M813 1545h-404l-229 307h290l141 -206l142 206h289zM1204 1434v-297h-380v-1137h-425v1137h-381v297h1186z" glyph-name="Tcaron" horiz-adv-x="1223" unicode="Ť"/><glyph d="M1104 1391h391l-139 -613h-346zM901 0h-431q-98 0 -164.5 69t-66.5 170v582h-165v262h165v209h390v-209h272v-262h-272v-469q0 -50 27 -78t73 -28h172v-246z" glyph-name="tcaron" horiz-adv-x="1635" unicode="ť"/><glyph d="M1204 1137h-380v-327h317v-177h-317v-633h-425v633h-265v177h265v327h-381v297h1186v-297z" glyph-name="Tbar" horiz-adv-x="1223" unicode="Ŧ"/><glyph d="M901 821h-272v-94h272v-177h-272v-198q0 -50 27 -78t73 -28h172v-246h-431q-98 0 -164.5 69t-66.5 170v311h-165v177h165v94h-165v262h165v209h390v-209h272v-262z" glyph-name="tbar" horiz-adv-x="1007" unicode="ŧ"/><glyph d="M427 1545q-1 136 61.5 204.5t156.5 68.5q62 0 156.5 -38t133.5 -38q60 0 62 75h188q0 -137 -62.5 -205t-155.5 -68q-59 0 -154 38t-134 38q-61 0 -65 -75h-187zM1471 1434v-819q1 -175 -43.5 -298t-133 -196.5t-208 -106t-281.5 -32.5t-280.5 32.5t-207 106t-133 196.5 t-44.5 298v819h424v-894q0 -122 61.5 -192t179.5 -70q119 0 181 70t62 192v894h423z" glyph-name="Utilde" horiz-adv-x="1611" unicode="Ũ"/><glyph d="M311 1195q-1 136 61.5 204t156.5 68q62 0 156.5 -37.5t133.5 -37.5q60 0 63 74h187q0 -137 -62.5 -204.5t-155.5 -67.5q-59 0 -154 38t-134 38q-61 0 -64 -75h-188zM888 1083h389v-1083h-390v156q-147 -175 -432 -175q-189 0 -269 99t-80 326v677h391v-576 q0 -133 33.5 -194t114.5 -61q73 0 141.5 45.5t100.5 127.5z" glyph-name="utilde" horiz-adv-x="1383" unicode="ũ"/><glyph d="M512 1764h589v-219h-589v219zM1471 1434v-819q1 -175 -43.5 -298t-133 -196.5t-208 -106t-281.5 -32.5t-280.5 32.5t-207 106t-133 196.5t-44.5 298v819h424v-894q0 -122 61.5 -192t179.5 -70q119 0 181 70t62 192v894h423z" glyph-name="Umacron" horiz-adv-x="1611" unicode="Ū"/><glyph d="M396 1414h589v-219h-589v219zM888 1083h389v-1083h-390v156q-147 -175 -432 -175q-189 0 -269 99t-80 326v677h391v-576q0 -133 33.5 -194t114.5 -61q73 0 141.5 45.5t100.5 127.5z" glyph-name="umacron" horiz-adv-x="1383" unicode="ū"/><glyph d="M806 1545q-108 0 -184.5 77t-76.5 184q0 109 76.5 185.5t184.5 76.5q109 0 185.5 -76.5t76.5 -185.5q0 -108 -76.5 -184.5t-185.5 -76.5zM806 1721q35 0 60.5 25.5t25.5 60t-25 60t-61 25.5q-35 0 -60 -25.5t-25 -60t25 -60t60 -25.5zM1471 1434v-819q1 -175 -43.5 -298 t-133 -196.5t-208 -106t-281.5 -32.5t-280.5 32.5t-207 106t-133 196.5t-44.5 298v819h424v-894q0 -122 61.5 -192t179.5 -70q119 0 181 70t62 192v894h423z" glyph-name="Uring" horiz-adv-x="1611" unicode="Ů"/><glyph d="M690 1195q-108 0 -184.5 77t-76.5 184q0 109 77 185.5t184 76.5q109 0 185.5 -76.5t76.5 -185.5q0 -108 -76.5 -184.5t-185.5 -76.5zM690 1371q35 0 60.5 25t25.5 60t-25.5 60.5t-60.5 25.5t-60 -25.5t-25 -60.5t25 -60t60 -25zM888 1083h389v-1083h-390v156 q-147 -175 -432 -175q-189 0 -269 99t-80 326v677h391v-576q0 -133 33.5 -194t114.5 -61q73 0 141.5 45.5t100.5 127.5z" glyph-name="uring" horiz-adv-x="1383" unicode="ů"/><glyph d="M846 1886l-164 -341h-249l161 341h252zM1181 1886l-164 -341h-250l161 341h253zM1471 1434v-819q1 -175 -43.5 -298t-133 -196.5t-208 -106t-281.5 -32.5t-280.5 32.5t-207 106t-133 196.5t-44.5 298v819h424v-894q0 -122 61.5 -192t179.5 -70q119 0 181 70t62 192v894 h423z" glyph-name="Uhungarumlaut" horiz-adv-x="1611" unicode="Ű"/><glyph d="M729 1536l-164 -341h-249l161 341h252zM1064 1536l-164 -341h-250l161 341h253zM888 1083h389v-1083h-390v156q-147 -175 -432 -175q-189 0 -269 99t-80 326v677h391v-576q0 -133 33.5 -194t114.5 -61q73 0 141.5 45.5t100.5 127.5z" glyph-name="uhungarumlaut" horiz-adv-x="1383" unicode="ű"/><glyph d="M876 -16q-146 -70 -145 -148q1 -51 60.5 -65t131.5 7l13 -157q-71 -22 -147 -18.5t-139.5 21t-105 61.5t-41.5 105q-1 54 37.5 108t125.5 91q-128 13 -223 54t-164 114.5t-104 188.5t-35 269v819h424v-894q0 -122 61.5 -192t179.5 -70q119 0 181 70t62 192v894h423v-819 q1 -165 -38 -284t-118 -192.5t-186.5 -110.5t-252.5 -44z" glyph-name="Uogonek" horiz-adv-x="1611" unicode="Ų"/><glyph d="M1195 0q-109 -45 -146 -86t-36 -78q1 -51 60.5 -65t130.5 7l14 -157q-71 -22 -147.5 -18.5t-140 21t-105 61.5t-41.5 105q-1 59 44.5 116.5t149.5 93.5h-91v156q-147 -175 -432 -175q-189 0 -269 99t-80 326v677h391v-576q0 -133 33.5 -194t114.5 -61q73 0 141.5 45.5 t100.5 127.5l1 658h389v-1083h-82z" glyph-name="uogonek" horiz-adv-x="1383" unicode="ų"/><glyph d="M1543 1545h-290l-141 206l-141 -206h-290l228 307h405zM1763 1434h443l-388 -1434h-455l-251 943l-251 -943h-453l-390 1434h443l191 -892l215 892h490l215 -892z" glyph-name="Wcircumflex" horiz-adv-x="2224" unicode="Ŵ"/><glyph d="M1455 1195h-290l-141 206l-141 -206h-290l228 307h405zM1581 1083h412l-321 -1083h-458l-192 705l-189 -705h-458l-321 1083h412l186 -686l168 686h407l185 -686z" glyph-name="wcircumflex" horiz-adv-x="2046" unicode="ŵ"/><glyph d="M1166 1545h-289l-142 206l-141 -206h-290l228 307h405zM1006 1434h446l-505 -955v-479h-424v479l-505 955h450l267 -555z" glyph-name="Ycircumflex" horiz-adv-x="1470" unicode="Ŷ"/><glyph d="M1138 1195h-290l-141 206l-142 -206h-290l229 307h404zM946 1083h413l-439 -1051q-200 -473 -750 -426l-16 244q280 -36 309 183l-409 1050h415l227 -701z" glyph-name="ycircumflex" horiz-adv-x="1413" unicode="ŷ"/><glyph d="M334 1807h346v-262h-346v262zM793 1807h345v-262h-345v262zM1006 1434h446l-505 -955v-479h-424v479l-505 955h450l267 -555z" glyph-name="Ydieresis" horiz-adv-x="1470" unicode="Ÿ"/><glyph d="M1145 1852l-266 -307h-290l194 307h362zM1327 1434v-297l-659 -840h659v-297h-1187v297l652 840h-652v297h1187z" glyph-name="Zacute" horiz-adv-x="1467" unicode="Ź"/><glyph d="M1007 1503l-267 -307h-289l194 307h362zM1118 821l-563 -559h563l-1 -262h-1043v262l561 559h-561v262h1043z" glyph-name="zacute" horiz-adv-x="1190" unicode="ź"/><glyph d="M907 1807v-262h-346v262h346zM1327 1434v-297l-659 -840h659v-297h-1187v297l652 840h-652v297h1187z" glyph-name="Zdotaccent" horiz-adv-x="1467" unicode="Ż"/><glyph d="M769 1457v-262h-346v262h346zM1118 821l-563 -559h563l-1 -262h-1043v262l561 559h-561v262h1043z" glyph-name="zdotaccent" horiz-adv-x="1190" unicode="ż"/><glyph d="M936 1545h-405l-228 307h290l141 -206l142 206h289zM1327 1434v-297l-659 -840h659v-297h-1187v297l652 840h-652v297h1187z" glyph-name="Zcaron" horiz-adv-x="1467" unicode="Ž"/><glyph d="M798 1195h-405l-228 307h290l141 -207l141 207h290zM1118 821l-563 -559h563l-1 -262h-1043v262l561 559h-561v262h1043z" glyph-name="zcaron" horiz-adv-x="1190" unicode="ž"/><glyph d="M1050 1132q-39 -11 -56.5 -39.5t-30.5 -90.5l-89 -393h280v-177h-319l-95 -422q-14 -65 -40.5 -114.5t-63.5 -81.5t-77.5 -54t-90.5 -33.5t-95 -15.5t-99 -4q-131 2 -200 48l45 154q90 -22 150 1q39 11 56.5 39.5t30.5 89.5l88 393h-229v177h269l95 423q17 76 53 132.5 t80 88.5t102.5 51t112 25t117.5 5q130 0 201 -47l-45 -154q-93 22 -150 -1z" glyph-name="florin" horiz-adv-x="1318" unicode="ƒ"/><glyph d="M699 810v-177h-135v-633h-424v633h-135v177h135v624h424v-624h135z" glyph-name="uni0197" horiz-adv-x="704" unicode="Ɨ"/><glyph d="M1032 1545h-404l-229 307h290l141 -206l142 206h290zM1204 0l-85 257h-577l-85 -257h-447l527 1434h587l528 -1434h-448zM640 553h381l-191 575z" glyph-name="uni01CD" horiz-adv-x="1661" unicode="Ǎ"/><glyph d="M800 1502h290l-230 -307h-404l-229 307h290l141 -207zM643 1103q285 0 425 -113t140 -301v-690h-373l-17 114q-175 -143 -429 -131q-141 6 -222.5 83t-90.5 181q-7 83 13 153t72.5 130t141 95.5t216.5 50.5t299 -5v30q-1 66 -60.5 106.5t-159.5 47.5q-172 12 -392 -79 v244q197 84 437 84zM818 309v174q-189 31 -292 -18t-94 -148q10 -106 166 -98q123 6 220 90z" glyph-name="uni01CE" horiz-adv-x="1313" unicode="ǎ"/><glyph d="M494 1852h289l-229 -307h-404l-229 307h290l141 -206zM564 0h-424v1434h424v-1434z" glyph-name="uni01CF" horiz-adv-x="704" unicode="Ǐ"/><glyph d="M442 1502h290l-229 -307h-405l-228 307h290l141 -207zM106 1083h391v-1083h-391v1083z" glyph-name="uni01D0" horiz-adv-x="602" unicode="ǐ"/><glyph d="M1004 1852h289l-229 -307h-405l-228 307h290l141 -206zM1646 717q1 -144 -42.5 -266t-118 -207t-175 -145t-214 -88.5t-235.5 -28.5q-121 0 -234 28.5t-213 88.5t-174.5 145t-117.5 206.5t-43 266.5q0 140 42.5 261t116.5 207t173.5 147t213.5 90.5t236 29.5t236.5 -29.5 t214 -90.5t174 -147t117.5 -207t43 -261zM861 278q161 0 261 119t100 320q0 200 -102 319.5t-259 119.5q-155 0 -256.5 -120t-101.5 -319q0 -201 99 -320t259 -119z" glyph-name="uni01D1" horiz-adv-x="1724" unicode="Ǒ"/><glyph d="M840 1502h289l-229 -307h-404l-229 307h290l141 -207zM1323 542q1 -115 -35.5 -210t-97 -159t-141.5 -107.5t-169 -63.5t-181.5 -20t-181.5 20t-169 63.5t-141.5 107.5t-96.5 159t-36 210q0 113 35.5 206.5t95.5 158t141 109.5t169.5 66t183 21t183 -21t169.5 -66 t140.5 -109.5t95.5 -158t36 -206.5zM698.5 236q111.5 0 173 85.5t61.5 220.5t-61.5 221t-173 86t-173 -86t-61.5 -221t61.5 -220.5t173 -85.5z" glyph-name="uni01D2" horiz-adv-x="1396" unicode="ǒ"/><glyph d="M947 1852h290l-229 -307h-405l-228 307h290l141 -206zM1471 1434v-819q1 -175 -43.5 -298t-133 -196.5t-208 -106t-281.5 -32.5t-280.5 32.5t-207 106t-133 196.5t-44.5 298v819h424v-894q0 -122 61.5 -192t179.5 -70q119 0 181 70t62 192v894h423z" glyph-name="uni01D3" horiz-adv-x="1611" unicode="Ǔ"/><glyph d="M831 1502h290l-229 -307h-405l-228 307h290l141 -207zM888 1083h389v-1083h-390v156q-147 -175 -432 -175q-189 0 -269 99t-80 326v677h391v-576q0 -133 33.5 -194t114.5 -61q73 0 141.5 45.5t100.5 127.5z" glyph-name="uni01D4" horiz-adv-x="1383" unicode="ǔ"/><glyph d="M986 1852h290l-229 -307h-405l-228 307h289l142 -206zM834 862h557v-778q-264 -102 -528 -102q-154 0 -293.5 48t-249.5 137.5t-175.5 232t-65.5 317.5t65.5 317.5t175.5 232t250 137.5t293 48q204 0 378 -55v-300q-200 78 -380 59q-158 -11 -258 -126.5t-100 -313 t100 -312.5t258 -126q84 -6 176 19v294h-203v271z" glyph-name="Gcaron" horiz-adv-x="1530" unicode="Ǧ"/><glyph d="M869 1502h290l-229 -307h-405l-228 307h290l141 -207zM927 1083h388v-968q0 -173 -85.5 -297.5t-230 -185t-332.5 -60.5q-217 0 -368 50v256q144 -63 323 -50q145 10 224 62.5t79 158.5v95q-89 -112 -307 -111q-157 0 -277.5 57t-193.5 179.5t-73 297.5q-1 135 38 239.5 t108.5 168t159 96t195.5 32.5q224 0 351 -168zM461 567q0 -133 59 -211t171 -78q75 0 137.5 33.5t93.5 103.5v271q-67 163 -231 163q-112 0 -171 -77t-59 -205z" glyph-name="gcaron" horiz-adv-x="1420" unicode="ǧ"/><glyph d="M1411 1852l-266 -307h-290l195 307h361zM1858 1137h-602v-272h545v-297h-545v-271h602v-297h-1025v257h-291l-85 -257h-447l527 1434h1321v-297zM833 553v577l-192 -577h192z" glyph-name="AEacute" horiz-adv-x="1997" unicode="Ǽ"/><glyph d="M1566 1503l-267 -307h-289l194 307h362zM1613 1103q213 0 353.5 -88t191 -238t10.5 -340h-770q60 -202 399 -207q160 -3 294 56v-254q-148 -50 -404 -50q-293 0 -479 140v-123h-373l-17 114q-175 -143 -429 -131q-141 6 -222.5 83t-90.5 181q-7 83 13 153t72.5 130 t141 95.5t216.5 50.5t299 -5v30q-1 66 -60.5 106.5t-159.5 47.5q-172 12 -392 -79v244q198 84 437 84q362 0 499 -189q83 93 207.5 141t263.5 48zM1847 663q12 91 -50 147.5t-159 53.5q-93 -4 -154 -58t-85 -143h448zM818 309v174q-189 31 -292 -18t-94 -148 q10 -106 166 -98q123 6 220 90z" glyph-name="aeacute" horiz-adv-x="2260" unicode="ǽ"/><glyph d="M1274 1852l-266 -307h-290l194 307h362zM1646 717q1 -144 -42.5 -266t-118 -207t-175 -145t-214 -88.5t-235.5 -28.5q-292 0 -504 153l-119 -120l-96 96l115 114q-178 194 -178 492q0 140 42.5 261t116.5 207t173.5 147t213.5 90.5t236 29.5q275 0 482 -140l107 106 l95 -95l-97 -97q198 -200 198 -509zM503 717q0 -118 36 -210l556 556q-96 93 -234 93q-155 0 -256.5 -119.5t-101.5 -319.5zM861 278q161 0 261 119t100 320q0 133 -48 234l-564 -563q96 -110 251 -110z" glyph-name="Oslashacute" horiz-adv-x="1689" unicode="Ǿ"/><glyph d="M1110 1503l-266 -307h-290l195 307h361zM1323 542q1 -115 -35.5 -210t-97 -159t-141.5 -107.5t-169 -63.5t-182 -20q-219 0 -382 101l-129 -129l-75 75l119 119q-158 150 -157 394q0 113 35.5 206.5t95.5 158t141 109.5t169.5 66t182.5 21q217 0 381 -104l131 131l76 -74 l-122 -122q159 -150 159 -392zM464 542q0 -75 20 -140l375 376q-62 71 -161 71q-112 0 -173 -86t-61 -221zM698 236q112 0 173.5 85.5t61.5 220.5q0 75 -21 139l-374 -376q61 -69 160 -69z" glyph-name="oslashacute" horiz-adv-x="1396" unicode="ǿ"/><glyph d="M101 415q249 -137 472 -137q48 0 93 7t83.5 22t62 42t23.5 63q0 37 -29.5 65t-82 47.5t-107 33.5t-123 33t-111.5 37q-156 66 -232.5 166.5t-69.5 260.5q8 179 170.5 288.5t444.5 109.5q242 0 430 -97l-1 -322q-116 67 -215.5 95.5t-213.5 27.5q-79 -1 -137.5 -32.5 t-63.5 -90.5q-3 -26 6.5 -47t31.5 -37.5t48 -29.5t63.5 -24t69 -20t74 -20t71.5 -20q399 -127 383 -460q-4 -88 -44.5 -156.5t-104.5 -113t-150.5 -73t-177 -40t-191.5 -11.5q-123 0 -249 28.5t-224 81.5zM425 -126h310l-110 -485h-274z" glyph-name="Scommaaccent" horiz-adv-x="1320" unicode="Ș"/><glyph d="M114 309q148 -81 348 -96q82 -6 141.5 18t69.5 71q10 49 -76 83q-27 10 -164 47q-191 50 -276 134t-83 219q1 105 73.5 178.5t189.5 106.5t269 33q111 0 214 -20t169 -56v-251q-153 86 -343 94q-75 1 -124.5 -19.5t-53.5 -65.5q-2 -23 14 -40.5t52.5 -34t78 -30 t109.5 -34.5q23 -6 35 -10q80 -25 132.5 -49t95 -59.5t61.5 -85.5t18 -118q-1 -86 -45.5 -154t-119.5 -107.5t-167.5 -60t-197.5 -20.5q-117 0 -236 21t-184 57v249zM424 -126h310l-110 -485h-274z" glyph-name="scommaaccent" horiz-adv-x="1137" unicode="ș"/><glyph d="M1204 1434v-297h-380v-1137h-425v1137h-381v297h1186zM387 -611l74 485h310l-111 -485h-273z" glyph-name="uni021A" horiz-adv-x="1223" unicode="Ț"/><glyph d="M901 0h-431q-98 0 -164.5 69t-66.5 170v582h-165v262h165v209h390v-209h272v-262h-272v-469q0 -50 27 -78t73 -28h172v-246zM340 -126h310l-110 -485h-274z" glyph-name="uni021B" horiz-adv-x="1007" unicode="ț"/><glyph d="M1288 1137h-724v-272h634v-297h-634v-271h724v-297h-515l-76 -87q11 2 36 2q94 0 148.5 -40.5t54.5 -104.5q0 -82 -72.5 -130t-219.5 -48q-58 0 -137 13v107q44 -8 104 -8q120 0 120 72q0 35 -27.5 49.5t-83.5 14.5q-27 0 -46 -2v71l73 91h-507v1434h1148v-297z" glyph-name="uni0228" horiz-adv-x="1428" unicode="Ȩ"/><glyph d="M676 1103q108 0 199 -23t157.5 -65.5t115 -102.5t72 -134.5t28.5 -160.5t-16 -180h-771q60 -202 399 -207q161 -3 294 56v-254q-139 -47 -373 -50l-60 -69q11 2 36 2q94 0 148 -40.5t54 -104.5q0 -82 -72.5 -130t-218.5 -48q-58 0 -138 13v107q44 -8 105 -8q120 0 120 72 q0 35 -28 49.5t-84 14.5q-27 0 -45 -2v71l61 77q-122 10 -225.5 49t-185 105.5t-128 169.5t-46.5 232q0 139 50.5 249t136.5 176.5t192 101t223 34.5zM910 663q13 91 -49.5 147.5t-159.5 53.5q-92 -4 -153.5 -58t-85.5 -143h448z" glyph-name="uni0229" horiz-adv-x="1324" unicode="ȩ"/><glyph d="M489 1083v-1113q0 -77 -23.5 -133t-59.5 -88.5t-90.5 -51.5t-106.5 -25t-117 -5q-134 2 -211 47l9 155q95 -22 150 1q36 11 47.5 40t11.5 89v1084h390z" glyph-name="uni0237" horiz-adv-x="588" unicode="ȷ"/><glyph d="M573 1102q108 0 206.5 -20.5t185 -65t150 -109t99.5 -158.5t36 -207q0 -139 -50.5 -249.5t-136.5 -177t-192 -100.5t-223 -34q-108 0 -199 23t-157.5 65.5t-115 102t-72 134t-28.5 160.5t16 180h771q-60 202 -399 207q-161 3 -294 -55v254q148 50 403 50zM623 219 q92 4 153.5 58.5t85.5 143.5h-448q-13 -91 50 -148t159 -54z" glyph-name="uni0259" horiz-adv-x="1324" unicode="ə"/><glyph d="M555 1434v-245h-440v245h440zM645 763v-297h-115v-466h-390v466h-114v297h114v320h390v-320h115z" glyph-name="uni0268" horiz-adv-x="670" unicode="ɨ"/><glyph d="M1002 1195h-289l-142 206l-141 -206h-290l229 307h404z" glyph-name="circumflex" horiz-adv-x="1142" unicode="ˆ"/><glyph d="M713 1502h289l-229 -307h-404l-229 307h290l141 -207z" glyph-name="caron" horiz-adv-x="1142" unicode="ˇ"/><glyph d="M854 1487q-27 -136 -122 -214t-234 -78q-140 0 -235.5 78t-122.5 214h229q8 -50 41 -80.5t88 -30.5q52 0 85.5 31t42.5 80h228z" glyph-name="breve" horiz-adv-x="994" unicode="˘"/><glyph d="M140 1457h346v-262h-346v262z" glyph-name="dotaccent" horiz-adv-x="625" unicode="˙"/><glyph d="M401 1195q-108 0 -184.5 77t-76.5 184q0 109 77 185.5t184 76.5q109 0 186 -76.5t77 -185.5q0 -108 -77 -184.5t-186 -76.5zM401.5 1371q34.5 0 60 25t25.5 60t-25.5 60.5t-60 25.5t-60 -25.5t-25.5 -60.5t25.5 -60t60 -25z" glyph-name="ring" horiz-adv-x="803" unicode="˚"/><glyph d="M140 -210q-1 59 44.5 116.5t149.5 93.5h217q-109 -45 -146 -86t-36 -78q1 -51 60 -65t131 7l13 -157q-71 -22 -147 -18.5t-139.5 21t-105 61.5t-41.5 105z" glyph-name="ogonek" horiz-adv-x="713" unicode="˛"/><glyph d="M140 1195q-1 136 61.5 204t156.5 68q62 0 156.5 -37.5t133.5 -37.5q60 0 63 74h187q0 -137 -62.5 -204.5t-155.5 -67.5q-59 0 -154 38t-134 38q-61 0 -64 -75h-188z" glyph-name="tilde" horiz-adv-x="1038" unicode="˜"/><glyph d="M553 1536l-164 -341h-249l161 341h252zM888 1536l-164 -341h-250l161 341h253z" glyph-name="hungarumlaut" horiz-adv-x="1028" unicode="˝"/><glyph d="M-696 1502h360l196 -307h-290z" glyph-name="gravecomb" unicode="̀"/><glyph d="M-140 1502l-267 -307h-289l194 307h362z" glyph-name="acutecomb" unicode="́"/><glyph d="M-140 1195h-290l-141 206l-142 -206h-289l228 307h404z" glyph-name="uni0302" unicode="̂"/><glyph d="M-898 1195q-1 136 61.5 204t156.5 68q62 0 156.5 -37.5t133.5 -37.5q60 0 62 74h188q0 -137 -62.5 -204.5t-155.5 -67.5q-59 0 -154 38t-134 38q-61 0 -65 -75h-187z" glyph-name="tildecomb" unicode="̃"/><glyph d="M-729 1414h589v-219h-589v219z" glyph-name="uni0304" unicode="̄"/><glyph d="M-140 1487q-27 -136 -122 -214t-235 -78t-235 78t-122 214h228q8 -50 41.5 -80.5t87.5 -30.5q52 0 86 31t42 80h229z" glyph-name="uni0306" unicode="̆"/><glyph d="M-485 1457h346v-262h-346v262z" glyph-name="uni0307" unicode="̇"/><glyph d="M-943 1457h346v-262h-346v262zM-484 1457h345v-262h-345v262z" glyph-name="uni0308" unicode="̈"/><glyph d="M-402 1195q-108 0 -185 77t-77 184q0 109 77 185.5t185 76.5q109 0 185.5 -76.5t76.5 -185.5q0 -108 -76.5 -184.5t-185.5 -76.5zM-402.5 1371q34.5 0 60.5 25t26 60t-25.5 60.5t-60.5 25.5t-60 -25.5t-25 -60.5t25 -60t59.5 -25z" glyph-name="uni030A" unicode="̊"/><glyph d="M-475 1536l-164 -341h-249l161 341h252zM-140 1536l-164 -341h-250l161 341h253z" glyph-name="uni030B" unicode="̋"/><glyph d="M-430 1502h290l-230 -307h-404l-228 307h289l142 -207z" glyph-name="uni030C" unicode="̌"/><glyph d="M-207 1219h-310l110 485h274z" glyph-name="uni0312" unicode="̒"/><glyph d="M-485 -128h346v-262h-346v262z" glyph-name="dotbelowcomb" unicode="̣"/><glyph d="M-441 -126h310l-111 -485h-273z" glyph-name="uni0326" unicode="̦"/><glyph d="M-343 -84q94 0 148.5 -40.5t54.5 -104.5q0 -82 -73 -130t-219 -48q-58 0 -137 13v107q44 -8 104 -8q120 0 120 72q0 35 -27.5 49.5t-84.5 14.5q-27 0 -45 -2v71l76 95h127l-80 -91q11 2 36 2z" glyph-name="uni0327" unicode="̧"/><glyph d="M-573 -210q-1 59 44.5 116.5t148.5 93.5h217q-109 -45 -146 -86t-36 -78q1 -51 60.5 -65t130.5 7l14 -157q-71 -22 -147.5 -18.5t-139.5 21t-104.5 61.5t-41.5 105z" glyph-name="uni0328" unicode="̨"/><glyph d="M312 1782h346v-263h-346v263zM771 1782h345v-263h-345v263zM564 297h724v-297h-1148v1434h1148v-297h-724v-272h634v-297h-634v-271z" glyph-name="afii10023" horiz-adv-x="1428" unicode="Ё"/><glyph d="M1204 0l-85 257h-577l-85 -257h-447l527 1434h587l528 -1434h-448zM640 553h381l-191 575z" glyph-name="afii10017" horiz-adv-x="1661" unicode="А"/><glyph d="M564 989q468 -12 668.5 -124.5t200.5 -382.5q0 -231 -164.5 -356.5t-441.5 -125.5h-687v1434h1053v-263h-629v-182zM802 280q92 0 149 53.5t57 148.5q0 122 -95 171.5t-349 57.5v-431h238z" glyph-name="afii10018" horiz-adv-x="1505" unicode="Б"/><glyph d="M140 1434h828q185 0 301 -95.5t116 -271.5q1 -95 -41 -180t-109 -117q106 -38 162 -129.5t55 -228.5q0 -104 -40 -184.5t-111 -129.5t-161.5 -73.5t-198.5 -24.5h-801v1434zM564 1167v-316h243q181 0 181 156q0 90 -44.5 125t-136.5 35h-243zM840 258q187 -3 188 172 q1 84 -47 124t-139 40h-278v-333z" glyph-name="afii10019" horiz-adv-x="1530" unicode="В"/><glyph d="M963 1434v-297h-399v-1137h-424v1434h823z" glyph-name="afii10020" horiz-adv-x="980" unicode="Г"/><glyph d="M1552 297h141v-563h-348v266h-855v-266h-348v273h-2l2 42v248h13v6q126 -3 171.5 67.5t45.5 249.5v814h1180v-1137zM797 1138v-651q0 -103 -32 -190h362v841h-330z" glyph-name="afii10021" horiz-adv-x="1832" unicode="Д"/><glyph d="M564 297h724v-297h-1148v1434h1148v-297h-724v-272h634v-297h-634v-271z" glyph-name="afii10022" horiz-adv-x="1428" unicode="Е"/><glyph d="M2256 1434l-483 -692l483 -742h-466l-441 679v-679h-424v680l-443 -680h-465l483 742l-483 692h465l443 -633v633h424v-633l441 633h466z" glyph-name="afii10024" horiz-adv-x="2272" unicode="Ж"/><glyph d="M729 246q109 0 167.5 48t58.5 127q0 78 -59 127t-167 49h-217l-3 263h220q96 0 148 45.5t52 117.5q0 73 -52 118t-148 45q-95 0 -147 -45.5t-52 -117.5l-372 17q0 82 30.5 149.5t84 115t126 80t156 48t174.5 15.5q92 0 175.5 -15.5t156.5 -48t126 -80t84 -115t31 -149.5 q1 -191 -158 -299q109 -52 172.5 -137.5t63.5 -200.5q1 -109 -50.5 -191t-142.5 -131t-206.5 -73.5t-251.5 -24.5q-135 0 -250 24.5t-206 73.5t-142.5 131.5t-51.5 190.5l425 18q0 -79 58.5 -127t166.5 -48z" glyph-name="afii10025" horiz-adv-x="1459" unicode="З"/><glyph d="M564 1434v-794l550 794h427v-1434h-425v810l-549 -810h-427v1434h424z" glyph-name="afii10026" horiz-adv-x="1681" unicode="И"/><glyph d="M1197 1837q-27 -136 -122 -214t-234 -78q-140 0 -235.5 78t-122.5 214h229q8 -50 41 -80.5t88 -30.5q52 0 86 31t42 80h228zM564 1434v-794l550 794h427v-1434h-425v810l-549 -810h-427v1434h424z" glyph-name="afii10027" horiz-adv-x="1681" unicode="Й"/><glyph d="M1471 1434l-482 -692l482 -742h-464l-443 680v-680h-424v1434h424v-633l443 633h464z" glyph-name="afii10028" horiz-adv-x="1488" unicode="К"/><glyph d="M1466 1434v-1427h-424v1131h-331v-651q0 -91 -24.5 -169t-69 -135t-105 -100.5t-133.5 -64t-155.5 -25.5t-169.5 14l16 296q125 -3 171 67.5t46 249.5v814h1179z" glyph-name="afii10029" horiz-adv-x="1606" unicode="Л"/><glyph d="M1353 1434h587v-1434h-423v897l-285 -761h-383l-285 761v-897h-424v1434h589l311 -824z" glyph-name="afii10030" horiz-adv-x="2080" unicode="М"/><glyph d="M1085 1434h424v-1434h-424v568h-521v-568h-424v1434h424v-569h521v569z" glyph-name="afii10031" horiz-adv-x="1649" unicode="Н"/><glyph d="M1646 717q1 -144 -42.5 -266t-118 -207t-175 -145t-214 -88.5t-235.5 -28.5q-121 0 -234 28.5t-213 88.5t-174.5 145t-117.5 206.5t-43 266.5q0 140 42.5 261t116.5 207t173.5 147t213.5 90.5t236 29.5t236.5 -29.5t214 -90.5t174 -147t117.5 -207t43 -261zM861 278 q161 0 261 119t100 320q0 200 -102 319.5t-259 119.5q-155 0 -256.5 -120t-101.5 -319q0 -201 99 -320t259 -119z" glyph-name="afii10032" horiz-adv-x="1724" unicode="О"/><glyph d="M1455 1434v-1434h-424v1137h-467v-1137h-424v1434h1315z" glyph-name="afii10033" horiz-adv-x="1595" unicode="П"/><glyph d="M827 1434q276 0 441 -125.5t165 -357.5q0 -269 -200.5 -381.5t-668.5 -125.5v-444h-424v1434h687zM1008 951q0 95 -57 149t-149 54h-238v-431q254 7 349 56.5t95 171.5z" glyph-name="afii10034" horiz-adv-x="1510" unicode="Р"/><glyph d="M1241 1095q-201 78 -379 58q-159 -11 -259 -125t-100 -311.5t100 -311t259 -124.5q178 -19 379 58v-302q-174 -55 -378 -55q-154 0 -293.5 48t-249.5 137.5t-175.5 232t-65.5 317.5t65.5 317.5t175.5 232t250 137.5t293 48q204 0 378 -55v-302z" glyph-name="afii10035" horiz-adv-x="1381" unicode="С"/><glyph d="M1204 1434v-297h-380v-1137h-425v1137h-381v297h1186z" glyph-name="afii10036" horiz-adv-x="1223" unicode="Т"/><glyph d="M986 1434h447l-477 -1053q-214 -472 -811 -425l-18 245q303 -36 336 181l-443 1052h449l246 -702z" glyph-name="afii10037" horiz-adv-x="1456" unicode="У"/><glyph d="M1732 718q0 -183 -95 -320t-260.5 -211t-385.5 -88v-99h-177v99q-340 19 -540 182t-200 436.5t200 435.5t540 181v100h177v-100q220 -13 385.5 -86.5t260.5 -210t95 -319.5zM498 718q0 -137 85 -218t231 -101v636q-146 -19 -231 -100t-85 -217zM991 400q145 19 231 102 t86 216q0 132 -85.5 214.5t-231.5 101.5v-634z" glyph-name="afii10038" horiz-adv-x="1805" unicode="Ф"/><glyph d="M1541 1434l-462 -703l497 -731h-469l-316 463l-306 -463h-468l498 731l-461 703h462l287 -429l274 429h464z" glyph-name="afii10039" horiz-adv-x="1593" unicode="Х"/><glyph d="M1455 297h140v-461h-297v164h-1158v1434h424v-1137h467v1137h424v-1137z" glyph-name="afii10040" horiz-adv-x="1662" unicode="Ц"/><glyph d="M944 1434h424v-1434h-424v567q-142 -183 -427 -183q-112 0 -185 24.5t-115.5 79t-59.5 129t-17 186.5v631h424v-407q0 -131 31 -192t115 -61q70 0 132.5 38t101.5 106v516z" glyph-name="afii10041" horiz-adv-x="1508" unicode="Ч"/><glyph d="M1922 1434h424v-1434h-2206v1434h424v-1137h467v1137h424v-1137h467v1137z" glyph-name="afii10042" horiz-adv-x="2486" unicode="Ш"/><glyph d="M2346 297h115v-461h-297v164h-2024v1434h424v-1137h467v1137h424v-1137h467v1137h424v-1137z" glyph-name="afii10043" horiz-adv-x="2529" unicode="Щ"/><glyph d="M649 989q468 -12 668.5 -124.5t200.5 -382.5q0 -231 -164.5 -356.5t-440.5 -125.5h-688v1137h-225v297h649v-445zM888 280q91 0 148 53.5t57 148.5q0 122 -95 171.5t-349 57.5v-431h239z" glyph-name="afii10044" horiz-adv-x="1591" unicode="Ъ"/><glyph d="M827 0h-687v1434h424v-445q468 -12 668.5 -124.5t200.5 -382.5q0 -231 -165 -356.5t-441 -125.5zM2002 0h-425v1434h425v-1434zM564 711v-431h238q92 0 149 53.5t57 148.5q0 122 -95 172t-349 57z" glyph-name="afii10045" horiz-adv-x="2142" unicode="Ы"/><glyph d="M827 0h-687v1434h424v-445q468 -12 668.5 -124.5t200.5 -382.5q0 -231 -165 -356.5t-441 -125.5zM564 711v-431h238q92 0 149 53.5t57 148.5q0 122 -95 172t-349 57z" glyph-name="afii10046" horiz-adv-x="1510" unicode="Ь"/><glyph d="M590 1452q154 0 293.5 -48t249.5 -137.5t175.5 -232t65.5 -317.5t-65.5 -317.5t-175.5 -232t-250 -137.5t-293 -48q-206 0 -378 55v302q201 -78 379 -58q130 9 222 87.5t124 217.5h-593v262h593q-32 138 -124 217t-222 88q-178 19 -379 -58v302q172 55 378 55z" glyph-name="afii10047" horiz-adv-x="1453" unicode="Э"/><glyph d="M2407 717q1 -144 -42.5 -266t-117.5 -207t-174.5 -145t-214 -88.5t-234.5 -28.5q-136 0 -261.5 36.5t-231 108t-179 185t-99.5 256.5h-289v-568h-424v1434h424v-569h290q26 140 99 253.5t177.5 185.5t231 110t262.5 38q122 0 236 -29.5t213.5 -90.5t173.5 -147t117 -207 t43 -261zM1624 278q160 0 259.5 119t99.5 320q0 200 -101.5 319.5t-257.5 119.5t-257 -120t-101 -319q0 -201 99 -320t259 -119z" glyph-name="afii10048" horiz-adv-x="2486" unicode="Ю"/><glyph d="M760 1434h687v-1434h-424v444q-126 3 -244 15l-275 -459h-425l327 544q-129 58 -190 157.5t-60 249.5q0 231 164 357t440 126zM1023 723v431h-238q-92 0 -148.5 -53.5t-56.5 -149.5q0 -83 40 -130t135.5 -70t267.5 -28z" glyph-name="afii10049" horiz-adv-x="1587" unicode="Я"/><glyph d="M643 1103q285 0 425 -113t140 -301v-690h-373l-17 114q-175 -143 -429 -131q-141 6 -222.5 83t-90.5 181q-7 83 13 153t72.5 130t141 95.5t216.5 50.5t299 -5v30q-1 66 -60.5 106.5t-159.5 47.5q-172 12 -392 -79v244q197 84 437 84zM818 309v174q-189 31 -292 -18 t-94 -148q10 -106 166 -98q123 6 220 90z" glyph-name="afii10065" horiz-adv-x="1313" unicode="а"/><glyph d="M1323 485q1 -103 -35.5 -188t-97 -142.5t-141.5 -97t-169 -56.5t-181.5 -17t-181.5 17t-169 56.5t-141.5 97t-96.5 142.5t-36 187v1q0 212 28.5 373.5t82 271.5t134.5 179.5t182 100.5t230 31q251 0 446 51l40 -260q-128 -33 -234 -42t-252 -9q-90 0 -145 -52.5 t-83 -162.5q95 22 195 21q94 0 183 -18.5t170 -59t140.5 -98t95.5 -142t36 -184.5zM698.5 211q111.5 0 173 77t61.5 197t-61.5 197.5t-173 77.5t-173 -77.5t-61.5 -197.5q0 -121 61.5 -197.5t173 -76.5z" glyph-name="afii10066" horiz-adv-x="1396" unicode="б"/><glyph d="M106 1083h759q187 0 302.5 -71t115.5 -205q1 -73 -41 -137.5t-109 -87.5q105 -27 161 -96.5t56 -174t-70 -176.5t-182.5 -103.5t-258.5 -31.5h-733v1083zM497 882v-238h208q88 0 134.5 27t46.5 91q0 68 -44 94t-137 26h-208zM737 196q187 -3 189 129q1 65 -47.5 95 t-138.5 30h-243v-252z" glyph-name="afii10067" horiz-adv-x="1423" unicode="в"/><glyph d="M895 1083v-262h-398v-821h-391v1083h789z" glyph-name="afii10068" horiz-adv-x="932" unicode="г"/><glyph d="M1369 262h91v-464h-390v202h-573v-202h-391v464h17q100 2 138.5 65.5t38.5 215.5v540h1069v-821zM664 262h315v559h-289v-396q1 -89 -26 -163z" glyph-name="afii10069" horiz-adv-x="1566" unicode="д"/><glyph d="M676 1103q108 0 199 -23t157.5 -65.5t115 -102.5t72 -134.5t28.5 -160.5t-16 -180h-771q60 -202 399 -207q161 -3 294 56v-254q-148 -50 -403 -50q-108 0 -206.5 20.5t-185 65t-150 109t-99.5 158t-36 207.5q0 139 50.5 249t136.5 176.5t192 101t223 34.5zM910 663 q13 91 -49.5 147.5t-159.5 53.5q-92 -4 -153.5 -58t-85.5 -143h448z" glyph-name="afii10070" horiz-adv-x="1324" unicode="е"/><glyph d="M1981 1083l-384 -522l384 -561h-416l-352 512v-512h-390v515l-352 -515h-417l385 561l-385 522h417l352 -479v479h390v-476l352 476h416z" glyph-name="afii10072" horiz-adv-x="2036" unicode="ж"/><glyph d="M622 186q86 0 131.5 36.5t45.5 95.5q0 60 -45.5 97.5t-131.5 37.5h-168l-1 199h169q76 0 115.5 34.5t39.5 89.5q0 54 -40 88t-115 34q-74 0 -114.5 -34t-40.5 -88l-334 12q0 154 132 232t357 78t357.5 -78t132.5 -232q1 -145 -119 -225q81 -40 129.5 -105t48.5 -152 q0 -110 -70 -182.5t-190.5 -104.5t-288.5 -32q-167 0 -287 32t-190.5 105t-70.5 182l371 12q0 -58 47 -95t130 -37z" glyph-name="afii10073" horiz-adv-x="1244" unicode="з"/><glyph d="M497 1083v-569l428 569h375v-1083h-389l-1 583l-427 -583h-377v1083h391z" glyph-name="afii10074" horiz-adv-x="1406" unicode="и"/><glyph d="M1061 1487q-27 -136 -122 -214t-234 -78q-140 0 -235.5 78t-122.5 214h228q8 -50 41.5 -80.5t88.5 -30.5q52 0 85.5 31t42.5 80h228zM497 1083v-569l428 569h375v-1083h-389l-1 583l-427 -583h-377v1083h391z" glyph-name="afii10075" horiz-adv-x="1406" unicode="й"/><glyph d="M1352 1083l-465 -522l465 -561h-432l-423 512v-512h-391v1083h391v-476l423 476h432z" glyph-name="afii10076" horiz-adv-x="1406" unicode="к"/><glyph d="M1336 1083v-1083h-390v821h-289v-396q0 -158 -82 -267t-215 -149t-286 -9v262q112 -2 152.5 61t40.5 220v540h1069z" glyph-name="afii10077" horiz-adv-x="1442" unicode="л"/><glyph d="M1139 1083h557v-1083h-390v649l-219 -547h-373l-217 547v-649h-391v1083h558l237 -622z" glyph-name="afii10078" horiz-adv-x="1802" unicode="м"/><glyph d="M905 1083h390v-1083h-390v415h-408v-415h-391v1083h391v-405h408v405z" glyph-name="afii10079" horiz-adv-x="1400" unicode="н"/><glyph d="M1323 542q1 -115 -35.5 -210t-97 -159t-141.5 -107.5t-169 -63.5t-181.5 -20t-181.5 20t-169 63.5t-141.5 107.5t-96.5 159t-36 210q0 113 35.5 206.5t95.5 158t141 109.5t169.5 66t183 21t183 -21t169.5 -66t140.5 -109.5t95.5 -158t36 -206.5zM698.5 236 q111.5 0 173 85.5t61.5 220.5t-61.5 221t-173 86t-173 -86t-61.5 -221t61.5 -220.5t173 -85.5z" glyph-name="afii10080" horiz-adv-x="1396" unicode="о"/><glyph d="M1250 1083v-1083h-390v821h-363v-821h-391v1083h1144z" glyph-name="afii10081" horiz-adv-x="1356" unicode="п"/><glyph d="M1349 542q0 -141 -41.5 -250t-116.5 -176t-172.5 -100.5t-214.5 -33.5q-95 0 -177 27.5t-130 85.5v-548h-391v1536h314l17 -119q117 139 367 139q117 0 213.5 -33t172.5 -99t118 -175.5t41 -253.5zM730 849q-166 0 -230 -166v-316q36 -71 96.5 -106t133.5 -35 q112 0 172 87t60 229q0 135 -60 221t-172 86z" glyph-name="afii10082" horiz-adv-x="1422" unicode="р"/><glyph d="M1057 794q-141 63 -314 50q-128 -10 -203.5 -91.5t-75.5 -210.5t75 -210t204 -92q172 -13 314 50v-258q-148 -50 -359 -50q-94 0 -182.5 21t-169.5 65.5t-141 109t-95.5 158t-35.5 206t35.5 206.5t95.5 158.5t141 109.5t169.5 66t182.5 21q207 0 359 -51v-258z" glyph-name="afii10083" horiz-adv-x="1130" unicode="с"/><glyph d="M1165 1083v-262h-378v-821h-390v821h-379v262h1147z" glyph-name="afii10084" horiz-adv-x="1183" unicode="т"/><glyph d="M946 1083h413l-439 -1051q-200 -473 -750 -426l-16 244q280 -36 309 183l-409 1050h415l227 -701z" glyph-name="afii10085" horiz-adv-x="1413" unicode="у"/><glyph d="M1428 542q1 -130 -48 -234t-133.5 -169.5t-187 -103.5t-218.5 -49v-165h-177v165q-92 8 -176 33t-160 70.5t-131.5 108t-88 151t-32.5 193.5q0 127 48.5 230.5t132.5 170t187 105.5t220 51v155h177v-155q92 -9 177 -35.5t160 -73t130.5 -109t87.5 -150t32 -189.5z M498 541.5q0 -106.5 43 -184.5t123 -107v585q-80 -30 -123 -108.5t-43 -185zM841 250q80 30 123 107.5t43 184t-43 185t-123 108.5v-585z" glyph-name="afii10086" horiz-adv-x="1503" unicode="ф"/><glyph d="M1276 1083l-341 -516l341 -567h-405l-205 344l-207 -344h-405l341 567l-341 516h405l207 -313l205 313h405z" glyph-name="afii10087" horiz-adv-x="1330" unicode="х"/><glyph d="M1285 262h148v-426h-391v164h-902v1083h390v-821h365v821h390v-821z" glyph-name="afii10088" horiz-adv-x="1501" unicode="ц"/><glyph d="M810 1083h390v-1083h-390v396q-115 -140 -343 -140q-360 0 -361 317v510h391v-303q0 -99 26.5 -145t98.5 -46q56 0 107 28.5t81 80.5v385z" glyph-name="afii10089" horiz-adv-x="1306" unicode="ч"/><glyph d="M1495 1083h390v-1083h-1779v1083h391v-821h304v821h390v-821h304v821z" glyph-name="afii10090" horiz-adv-x="1991" unicode="ш"/><glyph d="M1885 262h166v-426h-390v164h-1555v1083h391v-821h304v821h390v-821h304v821h390v-821z" glyph-name="afii10091" horiz-adv-x="2119" unicode="щ"/><glyph d="M655 750q403 -10 570 -95.5t167 -289.5q0 -177 -138.5 -271t-388.5 -94h-600v822h-191v262h580v-1h1v-333zM845 211q73 0 118.5 41t45.5 113q0 92 -76 130.5t-278 42.5v-327h190z" glyph-name="afii10092" horiz-adv-x="1465" unicode="ъ"/><glyph d="M707 0h-601v1083h391v-333q403 -10 569.5 -95.5t166.5 -289.5q0 -177 -138 -271t-388 -94zM1389 1083h390v-1083h-390v1083zM497 538v-327h189q73 0 118.5 41t45.5 113q0 92 -75.5 130.5t-277.5 42.5z" glyph-name="afii10093" horiz-adv-x="1885" unicode="ы"/><glyph d="M707 0h-601v1083h391v-333q403 -10 569.5 -95.5t166.5 -289.5q0 -177 -138 -271t-388 -94zM497 538v-327h189q73 0 118.5 41t45.5 113q0 92 -75.5 130.5t-277.5 42.5z" glyph-name="afii10094" horiz-adv-x="1306" unicode="ь"/><glyph d="M499 1103q94 0 182.5 -21t169.5 -66t141.5 -109.5t96 -158.5t35.5 -206q0 -139 -54 -249.5t-144 -176.5t-199.5 -100t-227.5 -34q-210 0 -359 50v258q141 -63 314 -50q92 7 158 51.5t98 119.5h-456v262h456q-32 75 -98 119.5t-158 51.5q-172 13 -314 -50v258 q152 51 359 51z" glyph-name="afii10095" horiz-adv-x="1197" unicode="э"/><glyph d="M1957 542q0 -115 -36 -210t-96.5 -159t-141.5 -107.5t-170 -63.5t-182 -20q-101 0 -196 24.5t-179 72.5t-145 129t-87 185h-227v-393h-391v1083h391v-393h227q26 102 87 183t144 130.5t179 74.5t197 25q94 0 183.5 -21t169.5 -66t140.5 -109.5t96.5 -158t36 -206.5z M1331 236q113 0 174.5 85.5t61.5 220.5q0 134 -62 220.5t-173.5 86.5t-173 -86.5t-61.5 -220.5q0 -135 61 -220.5t173 -85.5z" glyph-name="afii10096" horiz-adv-x="2030" unicode="ю"/><glyph d="M700 1083h600v-1083h-390v337q-131 4 -193 9l-219 -346h-392l264 415q-105 43 -154 117t-49 188q0 177 139 270t394 93zM910 548v324h-189q-73 0 -118.5 -40.5t-45.5 -111.5q0 -92 75 -130t278 -42z" glyph-name="afii10097" horiz-adv-x="1406" unicode="я"/><glyph d="M621 1457v-262h-347v262h347zM1078 1457v-262h-345v262h345zM676 1103q108 0 199 -23t157.5 -65.5t115 -102.5t72 -134.5t28.5 -160.5t-16 -180h-771q60 -202 399 -207q161 -3 294 56v-254q-148 -50 -403 -50q-108 0 -206.5 20.5t-185 65t-150 109t-99.5 158t-36 207.5 q0 139 50.5 249t136.5 176.5t192 101t223 34.5zM910 663q13 91 -49.5 147.5t-159.5 53.5q-92 -4 -153.5 -58t-85.5 -143h448z" glyph-name="afii10071" horiz-adv-x="1324" unicode="ё"/><glyph d="M911 1503l-266 -307h-290l195 307h361zM895 1083v-262h-398v-821h-391v1083h789z" glyph-name="afii10100" horiz-adv-x="932" unicode="ѓ"/><glyph d="M115 1434h440v-245h-440v245zM530 1083v-1113q0 -77 -23.5 -133t-59.5 -88.5t-90.5 -51.5t-106.5 -25t-117 -5q-134 2 -211 47l9 155q95 -22 150 1q36 11 47.5 40t11.5 89v1084h390z" glyph-name="afii10105" horiz-adv-x="670" unicode="ј"/><glyph d="M1107 1503l-266 -307h-290l194 307h362zM1352 1083l-465 -522l465 -561h-432l-423 512v-512h-391v1083h391v-476l423 476h432z" glyph-name="afii10109" horiz-adv-x="1406" unicode="ќ"/><glyph d="M140 1434h828q185 0 301 -95.5t116 -271.5q1 -95 -41 -180t-109 -117q106 -38 162 -129.5t55 -228.5q0 -104 -40 -184.5t-111 -129.5t-161.5 -73.5t-198.5 -24.5h-801v1434zM564 1167v-316h243q181 0 181 156q0 90 -44.5 125t-136.5 35h-243zM840 258q187 -3 188 172 q1 84 -47 124t-139 40h-278v-333zM594 -128h346v-262h-346v262z" glyph-name="uni1E04" horiz-adv-x="1530" unicode="Ḅ"/><glyph d="M1349 542q1 -144 -41 -254t-118 -175.5t-172.5 -98t-213.5 -32.5q-250 0 -367 138l-17 -120h-314v1536h391v-548q48 58 130 86.5t177 28.5q117 0 214.5 -34t172.5 -101.5t116.5 -176t41.5 -249.5zM730 236q112 0 172 85.5t60 220.5q0 141 -60 228t-172 87 q-73 0 -133.5 -35t-96.5 -105v-317q65 -164 230 -164zM521 -128h346v-262h-346v262z" glyph-name="uni1E05" horiz-adv-x="1422" unicode="ḅ"/><glyph d="M1545 717q0 -145 -37.5 -264t-103.5 -202.5t-158.5 -140.5t-201 -83.5t-232.5 -26.5h-672v1434h672q156 0 288 -45.5t232 -132t156.5 -225t56.5 -314.5zM769 297q165 0 258 117.5t93 302.5q0 183 -95 301.5t-256 118.5h-205v-840h205zM626 -128h346v-262h-346v262z" glyph-name="uni1E0C" horiz-adv-x="1623" unicode="Ḍ"/><glyph d="M74 542q0 141 41.5 249.5t116 176t172.5 101.5t214 34q95 0 177.5 -28t130.5 -87v548h390v-1536h-314l-17 120q-117 -138 -367 -138q-117 0 -213.5 32.5t-172 98t-117.5 175.5t-41 254zM692 236q165 0 231 164v317q-36 71 -97 105.5t-134 34.5q-112 0 -171.5 -87 t-59.5 -228q0 -135 59.5 -220.5t171.5 -85.5zM548 -128h346v-262h-346v262z" glyph-name="uni1E0D" horiz-adv-x="1422" unicode="ḍ"/><glyph d="M1085 1434h424v-1434h-424v568h-521v-568h-424v1434h424v-569h521v569zM652 -128h346v-262h-346v262z" glyph-name="uni1E24" horiz-adv-x="1649" unicode="Ḥ"/><glyph d="M496 0h-390v1536h391v-608q147 175 432 175q189 0 268.5 -99.5t79.5 -325.5v-678h-390v577q0 133 -34 193.5t-115 60.5q-73 0 -141.5 -45.5t-99.5 -127.5zM486 -128h347v-262h-347v262z" glyph-name="uni1E25" horiz-adv-x="1383" unicode="ḥ"/><glyph d="M564 1434v-1137h675v-297h-1099v1434h424zM525 -128h346v-262h-346v262z" glyph-name="uni1E36" horiz-adv-x="1312" unicode="Ḷ"/><glyph d="M106 1536h391v-1536h-391v1536zM128 -128h346v-262h-346v262z" glyph-name="uni1E37" horiz-adv-x="602" unicode="ḷ"/><glyph d="M1452 1852l-266 -307h-290l195 307h361zM1353 1434h587v-1434h-423v897l-285 -761h-383l-285 761v-897h-424v1434h589l311 -824z" glyph-name="uni1E3E" horiz-adv-x="2080" unicode="Ḿ"/><glyph d="M1451 1503l-266 -307h-290l195 307h361zM1652 1103q199 0 290.5 -123t91.5 -403v-577h-390v577q0 130 -39 192t-122 62q-97 0 -157 -66t-61 -183v-5v-577h-391v577q0 130 -38 192t-121 62q-97 0 -155.5 -65.5t-62.5 -183.5l-1 -582h-390v1083h391v-155q80 97 167 136 t219 39q133 0 217.5 -54t124.5 -169q66 109 174.5 166t252.5 57z" glyph-name="uni1E3F" horiz-adv-x="2140" unicode="ḿ"/><glyph d="M668 1807h346v-262h-346v262zM1116 1434h425v-1434h-427l-550 810v-810h-424v1434h427l549 -794v794z" glyph-name="uni1E44" horiz-adv-x="1680" unicode="Ṅ"/><glyph d="M518 1457h346v-262h-346v262zM496 0h-390v1083h391v-155q147 175 432 175q189 0 268.5 -99.5t79.5 -325.5v-678h-390v577q0 133 -34 193.5t-115 60.5q-73 0 -141.5 -45.5t-99.5 -127.5z" glyph-name="uni1E45" horiz-adv-x="1383" unicode="ṅ"/><glyph d="M1116 1434h425v-1434h-427l-550 810v-810h-424v1434h427l549 -794v794zM668 -128h346v-262h-346v262z" glyph-name="uni1E46" horiz-adv-x="1680" unicode="Ṇ"/><glyph d="M496 0h-390v1083h391v-155q147 175 432 175q189 0 268.5 -99.5t79.5 -325.5v-678h-390v577q0 133 -34 193.5t-115 60.5q-73 0 -141.5 -45.5t-99.5 -127.5zM518 -128h346v-262h-346v262z" glyph-name="uni1E47" horiz-adv-x="1383" unicode="ṇ"/><glyph d="M101 415q249 -137 472 -137q48 0 93 7t83.5 22t62 42t23.5 63q0 37 -29.5 65t-82 47.5t-107 33.5t-123 33t-111.5 37q-156 66 -232.5 166.5t-69.5 260.5q8 179 170.5 288.5t444.5 109.5q242 0 430 -97l-1 -322q-116 67 -215.5 95.5t-213.5 27.5q-79 -1 -137.5 -32.5 t-63.5 -90.5q-3 -26 6.5 -47t31.5 -37.5t48 -29.5t63.5 -24t69 -20t74 -20t71.5 -20q399 -127 383 -460q-4 -88 -44.5 -156.5t-104.5 -113t-150.5 -73t-177 -40t-191.5 -11.5q-123 0 -249 28.5t-224 81.5zM402 -128h347v-262h-347v262z" glyph-name="uni1E62" horiz-adv-x="1320" unicode="Ṣ"/><glyph d="M114 309q148 -81 348 -96q82 -6 141.5 18t69.5 71q10 49 -76 83q-27 10 -164 47q-191 50 -276 134t-83 219q1 105 73.5 178.5t189.5 106.5t269 33q111 0 214 -20t169 -56v-251q-153 86 -343 94q-75 1 -124.5 -19.5t-53.5 -65.5q-2 -23 14 -40.5t52.5 -34t78 -30 t109.5 -34.5q23 -6 35 -10q80 -25 132.5 -49t95 -59.5t61.5 -85.5t18 -118q-1 -86 -45.5 -154t-119.5 -107.5t-167.5 -60t-197.5 -20.5q-117 0 -236 21t-184 57v249zM402 -128h347v-262h-347v262z" glyph-name="uni1E63" horiz-adv-x="1137" unicode="ṣ"/><glyph d="M1204 1434v-297h-380v-1137h-425v1137h-381v297h1186zM438 -390v262h346v-262h-346z" glyph-name="uni1E6C" horiz-adv-x="1223" unicode="Ṭ"/><glyph d="M901 0h-431q-98 0 -164.5 69t-66.5 170v582h-165v262h165v209h390v-209h272v-262h-272v-469q0 -50 27 -78t73 -28h172v-246zM318 -128h347v-262h-347v262z" glyph-name="uni1E6D" horiz-adv-x="1007" unicode="ṭ"/><glyph d="M701 1852h361l195 -307h-289zM1763 1434h443l-388 -1434h-455l-251 943l-251 -943h-453l-390 1434h443l191 -892l215 892h490l215 -892z" glyph-name="Wgrave" horiz-adv-x="2224" unicode="Ẁ"/><glyph d="M613 1503h361l195 -307h-289zM1581 1083h412l-321 -1083h-458l-192 705l-189 -705h-458l-321 1083h412l186 -686l168 686h407l185 -686z" glyph-name="wgrave" horiz-adv-x="2046" unicode="ẁ"/><glyph d="M1524 1852l-267 -307h-289l194 307h362zM1763 1434h443l-388 -1434h-455l-251 943l-251 -943h-453l-390 1434h443l191 -892l215 892h490l215 -892z" glyph-name="Wacute" horiz-adv-x="2224" unicode="Ẃ"/><glyph d="M1436 1503l-267 -307h-289l194 307h362zM1581 1083h412l-321 -1083h-458l-192 705l-189 -705h-458l-321 1083h412l186 -686l168 686h407l185 -686z" glyph-name="wacute" horiz-adv-x="2046" unicode="ẃ"/><glyph d="M711 1807h346v-262h-346v262zM1169 1807h345v-262h-345v262zM1763 1434h443l-388 -1434h-455l-251 943l-251 -943h-453l-390 1434h443l191 -892l215 892h490l215 -892z" glyph-name="Wdieresis" horiz-adv-x="2224" unicode="Ẅ"/><glyph d="M623 1457h346v-262h-346v262zM1081 1457h345v-262h-345v262zM1581 1083h412l-321 -1083h-458l-192 705l-189 -705h-458l-321 1083h412l186 -686l168 686h407l185 -686z" glyph-name="wdieresis" horiz-adv-x="2046" unicode="ẅ"/><glyph d="M1327 1434v-297l-659 -840h659v-297h-1187v297l652 840h-652v297h1187zM561 -390v262h346v-262h-346z" glyph-name="uni1E92" horiz-adv-x="1467" unicode="Ẓ"/><glyph d="M1118 821l-563 -559h563l-1 -262h-1043v262l561 559h-561v262h1043zM423 -390v262h346v-262h-346z" glyph-name="uni1E93" horiz-adv-x="1190" unicode="ẓ"/><glyph d="M1652 0h-448l-85 257h-577l-85 -257h-447l527 1434h587zM640 553h381l-191 575zM657 -390v262h347v-262h-347z" glyph-name="uni1EA0" horiz-adv-x="1661" unicode="Ạ"/><glyph d="M643 1103q285 0 425 -113t140 -301v-690h-373l-17 114q-175 -143 -429 -131q-141 6 -222.5 83t-90.5 181q-7 83 13 153t72.5 130t141 95.5t216.5 50.5t299 -5v30q-1 66 -60.5 106.5t-159.5 47.5q-172 12 -392 -79v244q197 84 437 84zM818 309v174q-189 31 -292 -18 t-94 -148q10 -106 166 -98q123 6 220 90zM455 -128h346v-262h-346v262z" glyph-name="uni1EA1" horiz-adv-x="1313" unicode="ạ"/><glyph d="M564 297h724v-297h-1148v1434h1148v-297h-724v-272h634v-297h-634v-271zM541 -128h346v-262h-346v262z" glyph-name="uni1EB8" horiz-adv-x="1428" unicode="Ẹ"/><glyph d="M676 1103q108 0 199 -23t157.5 -65.5t115 -102.5t72 -134.5t28.5 -160.5t-16 -180h-771q60 -202 399 -207q161 -3 294 56v-254q-148 -50 -403 -50q-108 0 -206.5 20.5t-185 65t-150 109t-99.5 158t-36 207.5q0 139 50.5 249t136.5 176.5t192 101t223 34.5zM910 663 q13 91 -49.5 147.5t-159.5 53.5q-92 -4 -153.5 -58t-85.5 -143h448zM564 -390v262h346v-262h-346z" glyph-name="uni1EB9" horiz-adv-x="1324" unicode="ẹ"/><glyph d="M336 1545q-1 136 61.5 204.5t156.5 68.5q62 0 156.5 -38t133.5 -38q60 0 62 75h188q0 -137 -62.5 -205t-155.5 -68q-59 0 -154 38t-134 38q-61 0 -65 -75h-187zM564 297h724v-297h-1148v1434h1148v-297h-724v-272h634v-297h-634v-271z" glyph-name="uni1EBC" horiz-adv-x="1428" unicode="Ẽ"/><glyph d="M485 1195h-187q-1 136 61.5 204t156.5 68q62 0 156.5 -37.5t133.5 -37.5q60 0 62 74h188q0 -137 -62.5 -204.5t-155.5 -67.5q-59 0 -154 38t-134 38q-62 0 -65 -75zM676 1103q108 0 199 -23t157.5 -65.5t115 -102.5t72 -134.5t28.5 -160.5t-16 -180h-771 q60 -202 399 -207q161 -3 294 56v-254q-148 -50 -403 -50q-108 0 -206.5 20.5t-185 65t-150 109t-99.5 158t-36 207.5q0 139 50.5 249t136.5 176.5t192 101t223 34.5zM910 663q13 91 -49.5 147.5t-159.5 53.5q-92 -4 -153.5 -58t-85.5 -143h448z" glyph-name="uni1EBD" horiz-adv-x="1324" unicode="ẽ"/><glyph d="M564 0h-424v1434h424v-1434zM179 -128h346v-262h-346v262z" glyph-name="uni1ECA" horiz-adv-x="704" unicode="Ị"/><glyph d="M115 1434h440v-245h-440v245zM140 1083h390v-1083h-390v1083zM162 -128h346v-262h-346v262z" glyph-name="uni1ECB" horiz-adv-x="670" unicode="ị"/><glyph d="M1646 717q1 -144 -42.5 -266t-118 -207t-175 -145t-214 -88.5t-235.5 -28.5q-121 0 -234 28.5t-213 88.5t-174.5 145t-117.5 206.5t-43 266.5q0 140 42.5 261t116.5 207t173.5 147t213.5 90.5t236 29.5t236.5 -29.5t214 -90.5t174 -147t117.5 -207t43 -261zM861 278 q161 0 261 119t100 320q0 200 -102 319.5t-259 119.5q-155 0 -256.5 -120t-101.5 -319q0 -201 99 -320t259 -119zM689 -128h346v-262h-346v262z" glyph-name="uni1ECC" horiz-adv-x="1724" unicode="Ọ"/><glyph d="M1323 542q1 -115 -35.5 -210t-97 -159t-141.5 -107.5t-169 -63.5t-181.5 -20t-181.5 20t-169 63.5t-141.5 107.5t-96.5 159t-36 210q0 113 35.5 206.5t95.5 158t141 109.5t169.5 66t183 21t183 -21t169.5 -66t140.5 -109.5t95.5 -158t36 -206.5zM698.5 236 q111.5 0 173 85.5t61.5 220.5t-61.5 221t-173 86t-173 -86t-61.5 -221t61.5 -220.5t173 -85.5zM525 -128h346v-262h-346v262z" glyph-name="uni1ECD" horiz-adv-x="1396" unicode="ọ"/><glyph d="M1471 1434v-819q1 -175 -43.5 -298t-133 -196.5t-208 -106t-281.5 -32.5t-280.5 32.5t-207 106t-133 196.5t-44.5 298v819h424v-894q0 -122 61.5 -192t179.5 -70q119 0 181 70t62 192v894h423zM633 -128h346v-262h-346v262z" glyph-name="uni1EE4" horiz-adv-x="1611" unicode="Ụ"/><glyph d="M888 1083h389v-1083h-390v156q-147 -175 -432 -175q-189 0 -269 99t-80 326v677h391v-576q0 -133 33.5 -194t114.5 -61q73 0 141.5 45.5t100.5 127.5zM517 -128h346v-262h-346v262z" glyph-name="uni1EE5" horiz-adv-x="1383" unicode="ụ"/><glyph d="M325 1852h360l196 -307h-290zM1006 1434h446l-505 -955v-479h-424v479l-505 955h450l267 -555z" glyph-name="Ygrave" horiz-adv-x="1470" unicode="Ỳ"/><glyph d="M296 1503h360l196 -307h-290zM946 1083h413l-439 -1051q-200 -473 -750 -426l-16 244q280 -36 309 183l-409 1050h415l227 -701z" glyph-name="ygrave" horiz-adv-x="1413" unicode="ỳ"/><glyph d="M1006 1434h446l-505 -955v-479h-424v479l-505 955h450l267 -555zM562 -128h346v-262h-346v262z" glyph-name="uni1EF4" horiz-adv-x="1470" unicode="Ỵ"/><glyph d="M946 1083h413l-439 -1051q-200 -473 -750 -426l-16 244q280 -36 309 183l-409 1050h415l227 -701zM1078 -51h340v-274h-340v274z" glyph-name="uni1EF5" horiz-adv-x="1481" unicode="ỵ"/><glyph d="M356 1545q-1 136 61.5 204.5t156.5 68.5q62 0 156.5 -38t133.5 -38q60 0 63 75h187q0 -137 -62.5 -205t-155.5 -68q-59 0 -154 38t-134 38q-61 0 -64 -75h-188zM1006 1434h446l-505 -955v-479h-424v479l-505 955h450l267 -555z" glyph-name="uni1EF8" horiz-adv-x="1470" unicode="Ỹ"/><glyph d="M328 1195q-1 136 61.5 204t156.5 68q62 0 156.5 -37.5t133.5 -37.5q60 0 62 74h187q0 -137 -62 -204.5t-156 -67.5q-59 0 -154 38t-133 38q-61 0 -65 -75h-187zM946 1083h413l-439 -1051q-200 -473 -750 -426l-16 244q280 -36 309 183l-409 1050h415l227 -701z" glyph-name="uni1EF9" horiz-adv-x="1413" unicode="ỹ"/><glyph d="M140 690h1007v-297h-1007v297z" glyph-name="endash" horiz-adv-x="1287" unicode="–"/><glyph d="M140 690h1468v-297h-1468v297z" glyph-name="emdash" horiz-adv-x="1747" unicode="—"/><glyph d="M532 923h-392l140 613h346z" glyph-name="quoteleft" horiz-adv-x="765" unicode="‘"/><glyph d="M233 1536h393l-140 -613h-346z" glyph-name="quoteright" horiz-adv-x="765" unicode="’"/><glyph d="M148 316h393l-141 -612h-345z" glyph-name="quotesinglbase" horiz-adv-x="680" unicode="‚"/><glyph d="M532 924h-392l140 613h346zM1079 924h-392l140 613h345z" glyph-name="quotedblleft" horiz-adv-x="1312" unicode="“"/><glyph d="M233 1536h393l-140 -613h-346zM781 1536h391l-139 -613h-346z" glyph-name="quotedblright" horiz-adv-x="1312" unicode="”"/><glyph d="M148 291h393l-141 -614h-345zM696 291h391l-139 -614h-346z" glyph-name="quotedblbase" horiz-adv-x="1227" unicode="„"/><glyph d="M955 1342v-262h-255v-414h-305v414h-255v262h255v194h305v-194h255z" glyph-name="dagger" horiz-adv-x="1095" unicode="†"/><glyph d="M955 1080h-255v-258h255v-262h-255v-192h-305v192h-255v262h255v258h-255v262h255v194h305v-194h255v-262z" glyph-name="daggerdbl" horiz-adv-x="1095" unicode="‡"/><glyph d="M140 823h648v-563h-648v563z" glyph-name="bullet" horiz-adv-x="927" unicode="•"/><glyph d="M140 333h441v-333h-441v333zM709 333h440v-333h-440v333zM1277 333h440v-333h-440v333z" glyph-name="ellipsis" horiz-adv-x="1857" unicode="…"/><glyph d="M817 1002q1 -216 -99.5 -328.5t-272.5 -112.5q-171 0 -271 112t-100 329q0 213 99.5 327.5t271.5 114.5t272 -114.5t100 -327.5zM1252 1434h190l-766 -1434h-189zM445 736q130 0 130 266.5t-130 266.5t-130 -266.5t130 -266.5zM1843 430q1 -216 -100 -328.5t-273 -112.5 q-171 0 -271 112t-100 329q0 213 99.5 327t271.5 114t272.5 -114t100.5 -327zM2646 430q1 -217 -99.5 -329t-272.5 -112q-171 0 -271 112t-100 329q0 213 99.5 327t271.5 114t272 -114t100 -327zM1470 164q131 0 131.5 266t-131.5 266q-130 0 -130 -266t130 -266zM2274 164 q131 0 131 266t-131 266q-130 0 -130 -266t130 -266z" glyph-name="perthousand" horiz-adv-x="2720" unicode="‰"/><glyph d="M873 947l-337 -384l337 -384h-395l-338 384l338 384h395z" glyph-name="guilsinglleft" horiz-adv-x="1012" unicode="‹"/><glyph d="M140 947h396l337 -384l-337 -384h-396l338 384z" glyph-name="guilsinglright" horiz-adv-x="1012" unicode="›"/><glyph d="M1129 1008q3 -151 -76 -251t-230 -145q-20 -7 -56 -13t-82.5 -12t-61.5 -9v-211h-355l-15 291l-17 300h336l12 -132q77 23 118.5 71t39.5 107q-2 65 -66.5 99.5t-156.5 34.5q-108 3 -235 -29.5t-205 -81.5v334q184 69 444 73q175 4 309.5 -41t214.5 -143.5t82 -241.5z M226 0v245h441v-245h-441z" glyph-name="uni203D" horiz-adv-x="1208" unicode="‽"/><glyph d="M765 1434h189l-766 -1434h-188z" glyph-name="fraction" horiz-adv-x="954" unicode="⁄"/><glyph d="M817 1207q1 -216 -99.5 -328.5t-272.5 -112.5q-171 0 -271 112t-100 329q0 213 99.5 327.5t271.5 114.5t272 -114.5t100 -327.5zM445 941q130 0 130 266.5t-130 266.5t-130 -266.5t130 -266.5z" glyph-name="uni2070" horiz-adv-x="890" unicode="⁰"/><glyph d="M848 1146v-180h-131v-188h-236v188h-407v180l371 492h272v-492h131zM295 1146h186v269z" glyph-name="uni2074" horiz-adv-x="921" unicode="⁴"/><glyph d="M154 1638h611v-180h-407l-11 -138q119 14 225 -6q114 -25 179.5 -96t64.5 -178q-2 -141 -101.5 -208.5t-265.5 -64.5q-117 2 -197.5 21t-177.5 68l94 164q46 -32 127 -52.5t151 -20.5q131 0 135 95q1 54 -78 92t-170 38q-72 0 -158 -14l-46 52z" glyph-name="uni2075" horiz-adv-x="888" unicode="⁵"/><glyph d="M823 1060q0 -74 -32 -132t-87 -91t-120 -50.5t-135.5 -17.5t-135.5 17.5t-119.5 50.5t-87 91t-32.5 132q0 25 3 43.5t7 36.5t19 44.5t27.5 48.5t44.5 67.5t58.5 83t80.5 113.5t100 142h279l-224 -321q85 25 158 5q88 -20 142 -91.5t54 -171.5zM448.5 924q64.5 0 101.5 41 t37 95t-37 94.5t-101.5 40.5t-101.5 -41t-37 -94q1 -54 37.5 -95t101 -41z" glyph-name="uni2076" horiz-adv-x="897" unicode="⁶"/><glyph d="M74 1638h647v-180q-126 -158 -205 -321.5t-104 -358.5h-248q49 362 296 680h-386v180z" glyph-name="uni2077" horiz-adv-x="794" unicode="⁷"/><glyph d="M817 1020q0 -65 -30 -114.5t-83 -78.5t-118 -44t-140.5 -15t-140.5 15t-118 44t-83 78.5t-30 114.5q0 136 141 204q-95 66 -95 178q0 119 95 182t230.5 63t230.5 -63t95 -182q0 -114 -94 -178q140 -71 140 -204zM328 1392q0 -42 30.5 -69.5t87 -27.5t87 27.5t30.5 69.5 q0 43 -29.5 69.5t-88 26.5t-88 -26.5t-29.5 -69.5zM445.5 928q64.5 0 99.5 28t35 74t-35 75.5t-99.5 29.5t-99.5 -29.5t-35 -75.5t35 -74t99.5 -28z" glyph-name="uni2078" horiz-adv-x="890" unicode="⁸"/><glyph d="M74 1356q0 74 32 131t87 91t120 51.5t135.5 17.5t135.5 -17.5t119.5 -51t87 -91t32.5 -131.5q0 -25 -3 -44t-7 -37t-19 -44.5t-27.5 -48.5t-44.5 -67t-58.5 -83t-80.5 -113.5t-100 -142.5h-279l224 322q-85 -25 -158 -5q-88 20 -142 91.5t-54 171.5zM448.5 1492 q-64.5 0 -101.5 -41t-37 -95t37 -94.5t101.5 -40.5t101.5 41t37 94q-1 54 -37.5 95t-101 41z" glyph-name="uni2079" horiz-adv-x="897" unicode="⁹"/><glyph d="M817 123q1 -216 -99.5 -328.5t-272.5 -112.5q-171 0 -271 112t-100 329q0 213 99.5 327t271.5 114t272 -114t100 -327zM445 -143q130 0 130 266t-130 266t-130 -266t130 -266z" glyph-name="uni2080" horiz-adv-x="890" unicode="₀"/><glyph d="M519 -127h208v-180h-653v180h209v478q-85 -58 -162 -80v202q81 15 160 80h238v-680z" glyph-name="uni2081" horiz-adv-x="800" unicode="₁"/><glyph d="M806 -127v-180h-732v180q80 49 135.5 85.5t122.5 84.5t108 86.5t69.5 79.5t28.5 75q0 45 -31.5 73.5t-85.5 29.5q-131 2 -246 -66l-83 154q87 47 166 69.5t172 22.5q171 0 265.5 -66t94.5 -174q0 -42 -12.5 -83.5t-29.5 -74t-49.5 -70.5t-57.5 -62t-71 -59t-69.5 -52.5 t-73.5 -52.5h379z" glyph-name="uni2082" horiz-adv-x="879" unicode="₂"/><glyph d="M117 555h659v-180l-251 -181q62 -7 100 -19q196 -57 192 -237q-1 -129 -101 -195t-265 -62q-116 2 -197.5 21t-179.5 70l95 162q48 -32 129.5 -53.5t148.5 -19.5q58 1 96 21t39 59q2 47 -45.5 80t-128.5 33q-92 0 -144 -11l-48 162l289 170h-388v180z" glyph-name="uni2083" horiz-adv-x="890" unicode="₃"/><glyph d="M848 60v-180h-131v-187h-236v187h-407v180l371 493h272v-493h131zM295 60h186v270z" glyph-name="uni2084" horiz-adv-x="921" unicode="₄"/><glyph d="M154 553h611v-180h-407l-11 -139q119 14 225 -6q114 -25 179.5 -96t64.5 -177q-2 -141 -101.5 -209t-265.5 -64q-117 2 -197.5 20.5t-177.5 68.5l94 163q46 -32 127 -52t151 -20q131 0 135 95q1 54 -78 92t-170 38q-72 0 -158 -14l-46 52z" glyph-name="uni2085" horiz-adv-x="888" unicode="₅"/><glyph d="M823 -14q0 -74 -32 -132t-87 -91.5t-120 -50.5t-135 -17q-56 0 -109 10t-102 33t-85 56t-57.5 82.5t-21.5 109.5q0 25 3 43.5t7 36.5t19 44.5t27.5 48.5t44.5 67t58.5 83t80.5 113.5t100 141.5h279l-225 -321q84 24 159 6q88 -22 142 -92.5t54 -170.5zM448.5 -151 q64.5 0 101 40.5t36.5 96.5q0 54 -36.5 94.5t-101 40.5t-101.5 -41t-37 -94q0 -55 37 -96t101.5 -41z" glyph-name="uni2086" horiz-adv-x="897" unicode="₆"/><glyph d="M74 553h647v-180q-126 -158 -205 -322t-104 -358h-248q49 362 296 680h-386v180z" glyph-name="uni2087" horiz-adv-x="794" unicode="₇"/><glyph d="M817 -66q0 -65 -30 -114t-83 -78.5t-118 -44t-140.5 -14.5t-140.5 14.5t-118 44t-83 79t-30 113.5q0 136 141 204q-95 66 -95 178q0 119 95 182t230.5 63t230.5 -63t95 -182q0 -114 -94 -178q140 -71 140 -204zM328 306q0 -42 30.5 -69t87 -27t87 27t30.5 69 q0 43 -29.5 69.5t-88 26.5t-88 -26.5t-29.5 -69.5zM445.5 -158q64.5 0 99.5 28.5t35 74.5t-35 75t-99.5 29t-99.5 -29t-35 -75t35 -74.5t99.5 -28.5z" glyph-name="uni2088" horiz-adv-x="890" unicode="₈"/><glyph d="M74 273q0 74 32 132t87 91t120 50.5t135.5 17.5t135.5 -17.5t119.5 -50.5t87 -91t32.5 -132q0 -25 -3 -43.5t-7 -36.5t-19 -44.5t-27.5 -48.5t-44.5 -67t-58.5 -83t-80.5 -114t-100 -142h-279l224 321q-85 -25 -158 -5q-88 20 -142 91.5t-54 171.5zM448.5 410 q-64.5 0 -101.5 -41t-37 -95.5t37 -95t101.5 -40.5t101.5 41t37 94q-1 54 -37.5 95.5t-101 41.5z" glyph-name="uni2089" horiz-adv-x="897" unicode="₉"/><glyph d="M1006 1153q-105 -8 -188 -62.5t-127 -151.5h417v-178h-460q-1 -14 -1 -44t1 -44h460v-178h-417q44 -97 126.5 -151.5t188.5 -62.5q178 -19 379 58v-302q-173 -55 -377 -55q-128 0 -247 33t-220 96t-176.5 161.5t-111.5 222.5h-179v178h150q-1 14 -1 43.5t1 44.5h-150v178 h179q36 124 111.5 222.5t176.5 161t220 96t247 33.5q205 0 377 -55v-302q-201 77 -379 58z" glyph-name="Euro" horiz-adv-x="1525" unicode="€"/><glyph d="M140 1434h1186v-263h-1186v263zM1326 1033v-263h-381v-770h-424v770h-381v263h1186z" glyph-name="uni20B8" horiz-adv-x="1466" unicode="₸"/><glyph d="M1094 1255h-194q83 -92 102 -226h92v-177h-94q-33 -213 -242 -308l326 -544h-425l-275 459q-118 -11 -244 -15v279q197 5 294.5 34.5t129.5 95.5h-424v177h431q-20 59 -71 91.5t-122 32.5h-238v280h263h27l664 -1v-178z" glyph-name="uni20B9" horiz-adv-x="1232" unicode="₹"/><glyph d="M1020 785h350q0 -176 -38.5 -317.5t-115.5 -247t-202.5 -163t-290.5 -57.5h-583v835l-140 -14v177l140 14v70l-140 -13v177l140 14v174h424v-137l442 41v-177l-442 -41v-70l442 41v-178l-442 -41v-550h99q183 1 270 111.5t87 351.5z" glyph-name="uni20BA" horiz-adv-x="1443" unicode="₺"/><glyph d="M895 1244q140 -8 244.5 -46.5t180.5 -112t114.5 -192t36.5 -280.5v-613h-423v689q0 96 -38.5 160.5t-114.5 89.5v-939h-177v939q-76 -24 -115 -89t-39 -161v-689h-424v613q0 163 38.5 281.5t115 192t180.5 112t244 46.5v189h177v-190z" glyph-name="uni20BC" horiz-adv-x="1611" unicode="₼"/><glyph d="M1235 770q106 -38 162 -129.5t55 -228.5q0 -191 -128 -295.5t-333 -115.5v-201h-194v200h-223v-200h-193v200h-241v1434h241v199h193v-199h223v199h194v-199q176 -6 285 -101t109 -266q1 -95 -41 -180t-109 -117zM564 1167v-316h243q181 0 181 156q0 90 -44.5 125 t-136.5 35h-243zM1028 430q1 84 -47 124t-139 40h-278v-333l276 -3q187 -3 188 172z" glyph-name="uni20BF" horiz-adv-x="1530" unicode="₿"/><glyph d="M762 1235q-101 45 -220 35q-89 -7 -141 -64.5t-52 -147.5q0 -91 52 -148.5t141 -64.5q122 -9 220 35v-180q-108 -36 -251 -35q-83 0 -159.5 24t-139 70.5t-100.5 124t-38 174.5t38 174.5t100.5 123.5t139 70t159.5 24q148 0 251 -36v-179zM1289 1434h190l-766 -1434h-189 zM1990 379q1 -100 -37 -177.5t-102 -123t-140 -68.5t-159 -23q-82 0 -157.5 23t-139.5 68.5t-102 123t-38 177.5q0 97 38 174.5t101 124t139 70.5t159 24t159.5 -24t139.5 -70.5t101 -124t38 -174.5zM1552 167q78 0 120.5 59.5t42.5 152.5q0 94 -42.5 153.5t-120.5 59.5 q-77 0 -119 -60t-42 -153t42 -152.5t119 -59.5z" glyph-name="afii61248" horiz-adv-x="2063" unicode="℅"/><glyph d="M1001 140q-71 -75 -170.5 -120t-214.5 -45q-189 -1 -283 99t-94 277v64q-98 -17 -165 -24l12 148q11 3 65 13.5t88 18.5v449q0 202 102 312t311 113q79 2 143.5 -16.5t115.5 -57.5t80 -105.5t31 -156.5q9 -197 -109.5 -351.5t-320.5 -256.5v-102q0 -88 33.5 -128 t88.5 -40q101 0 197 76zM592 696q213 162 199 398q-3 55 -28.5 85t-68.5 27q-102 -6 -102 -187v-323z" glyph-name="afii61289" horiz-adv-x="1099" unicode="ℓ"/><glyph d="M2835 950q1 -103 -31 -188t-86.5 -142.5t-127.5 -97t-152 -56.5t-163 -17q-83 0 -161.5 17t-151.5 56.5t-127 97t-86.5 142.5t-32.5 188q0 100 32 185t86 142t126.5 97.5t151.5 59t163 18.5t164 -18.5t152 -59t126.5 -97.5t86 -142t31.5 -185zM1116 1434h425v-1434h-427 l-550 810v-810h-424v1434h427l549 -794v794zM2275 677q99 0 154 76.5t55 196.5t-54 197t-155 77q-99 0 -153.5 -77t-54.5 -197t55 -196.5t153 -76.5zM1764 339h1023v-219h-1023v219z" glyph-name="afii61352" horiz-adv-x="2975" unicode="№"/><glyph d="M855 -41q-218 0 -396 101t-279 274.5t-101 382.5q0 210 101 383.5t279 274t396 100.5q165 0 310 -59t248.5 -160.5t162.5 -242t59 -297t-59 -296t-162.5 -241t-248.5 -161t-310 -59.5zM856 147q166 0 298 75t205 204.5t73 290.5t-73 290.5t-205 204t-298 74.5 q-250 0 -411.5 -162t-161.5 -407t161.5 -407.5t411.5 -162.5zM911 1075q136 0 218 -63t82 -177q0 -135 -99.5 -192t-336.5 -63v-223h-208v718h344zM1004 835q0 46 -29.5 74t-76.5 28h-123v-219q130 3 179.5 29t49.5 88z" glyph-name="uni2117" horiz-adv-x="1714" unicode="℗"/><glyph d="M119 925q127 -71 242 -71q130 0 131 65q0 23 -25.5 39.5t-56 25t-76.5 21t-72 22.5q-80 33 -120 85.5t-36 135.5q4 92 86.5 149.5t227.5 57.5q127 0 225 -52v-170q-112 66 -225 65q-38 0 -66.5 -16t-30.5 -44q-2 -17 7.5 -30.5t31 -23t41.5 -16.5t53 -15t51 -14 q205 -66 198 -238q-3 -57 -33 -98t-80 -63.5t-107 -32.5t-124 -10q-138 0 -242 56v172zM1433 1434h301v-717h-216v424l-141 -356h-193l-143 356v-424h-215v717h301l153 -407z" glyph-name="uni2120" horiz-adv-x="1840" unicode="℠"/><glyph d="M699 1434v-152h-188v-565h-216v565h-189v152h593zM1399 1434h301v-717h-215v424l-142 -356h-193l-141 356v-424h-216v717h302l152 -407z" glyph-name="trademark" horiz-adv-x="1806" unicode="™"/><glyph d="M519 754h208v-181h-653v181h209v478q-85 -58 -162 -80v202q81 15 160 80h238v-680zM1287 1434h190l-766 -1434h-189zM1879 242q0 -65 -30 -114.5t-83 -79t-118 -44t-140.5 -14.5t-140.5 14.5t-118 44t-83 79t-30 114.5q0 136 141 203q-94 65 -94 179q0 81 47.5 137.5 t118.5 81.5t158 25t159 -25t119.5 -81.5t47.5 -137.5q1 -113 -94 -179q140 -69 140 -203zM1390 613q0 -42 30.5 -69t86.5 -27q57 0 88 27t31 69q0 43 -30 70t-88.5 27t-88 -27t-29.5 -70zM1507.5 150q64.5 0 99 28t34.5 74t-34.5 75t-99 29t-99.5 -29t-35 -75t35 -74 t99.5 -28z" glyph-name="oneeighth" horiz-adv-x="1952" unicode="⅛"/><glyph d="M117 1434h659v-181l-251 -181q62 -7 100 -18q196 -57 192 -238q-1 -129 -101 -194.5t-265 -62.5q-116 2 -197.5 21.5t-179.5 69.5l95 163q48 -32 129.5 -54t148.5 -20q58 1 96 21t39 59q2 47 -45.5 80.5t-128.5 33.5q-92 0 -144 -11l-48 161l289 170h-388v181zM1307 1434 h189l-766 -1434h-188zM1907 242q0 -65 -30.5 -114.5t-83 -79t-117.5 -44t-141 -14.5t-141 14.5t-117.5 44t-83 79t-30.5 114.5q0 136 142 203q-95 65 -96 179q0 81 48 137.5t119.5 81.5t158.5 25t158 -25t119 -81.5t48 -137.5q1 -114 -95 -179q142 -69 142 -203zM1416 613 q0 -42 31 -69t88 -27q56 0 87 27t31 69q0 43 -30 70t-88 27t-88.5 -27t-30.5 -70zM1534.5 150q64.5 0 99.5 28t35 74t-35 75t-99.5 29t-99 -29t-34.5 -75t34.5 -74t99 -28z" glyph-name="threeeighths" horiz-adv-x="1980" unicode="⅜"/><glyph d="M154 1434h611v-181h-407l-11 -138q119 14 225 -6q114 -25 179.5 -96t64.5 -177q-2 -141 -101.5 -209t-265.5 -65q-117 2 -197.5 21t-177.5 68l94 164q46 -32 127 -52.5t151 -20.5q131 0 135 96q1 54 -78 92t-170 38q-72 0 -158 -15l-46 53zM1308 1434h189l-766 -1434 h-188zM1903 242q0 -65 -30.5 -114.5t-83 -79t-117.5 -44t-141 -14.5t-141 14.5t-117.5 44t-83 79t-30.5 114.5q0 136 141 203q-95 66 -95 179q0 119 95.5 181.5t230.5 62.5t230.5 -63t95.5 -181q0 -114 -95 -179q141 -69 141 -203zM1413 613q0 -42 31 -69t87 -27t87 27 t31 69q0 43 -30 70t-88 27t-88 -27t-30 -70zM1530.5 150q64.5 0 99.5 28t35 74t-35 75t-99.5 29t-99 -29t-34.5 -75t34.5 -74t99 -28z" glyph-name="fiveeighths" horiz-adv-x="1976" unicode="⅝"/><glyph d="M74 1434h647v-181q-126 -158 -205 -321.5t-104 -358.5h-248q49 362 296 680h-386v181zM1073 1434h189l-766 -1434h-188zM1667 242q1 -65 -29 -114.5t-83.5 -79t-118.5 -44t-140.5 -14.5t-140.5 14.5t-118 44t-83 79t-30 114.5q0 136 141 203q-94 65 -94 179 q0 81 47.5 137.5t118.5 81.5t158 25t159 -25t119.5 -81.5t47.5 -137.5q1 -113 -94 -179q140 -69 140 -203zM1178 613q0 -42 30.5 -69t86.5 -27q57 0 88 27t31 69q0 43 -30 70t-88.5 27t-88 -27t-29.5 -70zM1295.5 150q64.5 0 99.5 28t35 74t-35 75t-100 29q-63 0 -98.5 -29 t-35.5 -75t35 -74t99.5 -28z" glyph-name="seveneighths" horiz-adv-x="1740" unicode="⅞"/><glyph d="M670 0l-530 717l530 717h416l-386 -522h874v-390h-873l384 -522h-415z" glyph-name="arrowleft" horiz-adv-x="1714" unicode="←"/><glyph d="M1574 904v-417l-522 385v-872h-390v873l-522 -386v417l717 530z" glyph-name="arrowup" horiz-adv-x="1714" unicode="↑"/><glyph d="M1044 0h-416l385 522h-873v390h874l-386 522h416l530 -717z" glyph-name="arrowright" horiz-adv-x="1714" unicode="→"/><glyph d="M1574 529l-717 -529l-717 529v417l522 -386v874h390v-873l522 385v-417z" glyph-name="arrowdown" horiz-adv-x="1714" unicode="↓"/><glyph d="M1950 1434l529 -717l-529 -717h-416l384 522h-1217l384 -522h-415l-530 717l530 717h416l-386 -522h1219l-385 522h416z" glyph-name="arrowboth" horiz-adv-x="2619" unicode="↔"/><glyph d="M1052 152l522 385v-417l-717 -530l-717 530v417l522 -386v927l-522 -386v417l717 529l717 -529v-417l-522 385v-925z" glyph-name="arrowupdn" horiz-adv-x="1714" unicode="↕"/><glyph d="M1445 1138h-739l659 -661l-275 -276l-654 655v-727l-296 291v1014h1014z" glyph-name="uni2196" horiz-adv-x="1596" unicode="↖"/><glyph d="M442 1434h1014v-1014l-295 -291v727l-654 -655l-276 276l660 661h-739z" glyph-name="uni2197" horiz-adv-x="1596" unicode="↗"/><glyph d="M1161 1305l295 -291v-1014h-1014l-290 296h739l-660 660l276 277l654 -655v727z" glyph-name="uni2198" horiz-adv-x="1596" unicode="↘"/><glyph d="M706 296h739l-291 -296h-1014v1014l296 291v-727l654 655l275 -277z" glyph-name="uni2199" horiz-adv-x="1596" unicode="↙"/><glyph d="M646 1435q145 -1 270 -71t207.5 -184.5t129 -261.5t46.5 -304q0 -133 -35 -241.5t-94.5 -179.5t-139.5 -119t-166 -69t-178 -21q-91 0 -177.5 17.5t-166.5 57t-139.5 97t-94.5 142.5t-34 188q0 101 32 187t88.5 146t132.5 101t166.5 58t187.5 12q101 -4 188 -51 q-38 119 -122.5 184t-247.5 108zM686 213q111 0 167 90t56 259q0 90 -4 152q-96 47 -224 47q-106 0 -161.5 -76.5t-55.5 -198.5q0 -121 57 -197t165 -76z" glyph-name="partialdiff" horiz-adv-x="1373" unicode="∂"/><glyph d="M1087 871q108 -146 108 -329q0 -114 -44.5 -218t-120 -178.5t-179 -119t-217.5 -44.5q-180 0 -330 106l-87 -87l-126 126l88 88q-105 146 -105 327q0 153 74.5 281.5t203.5 204t282 75.5q181 0 328 -106l86 86l127 -125zM293 542q0 -89 44 -169l466 466q-77 45 -169 45 q-141 0 -241 -100t-100 -242zM634 201q142 0 242 99.5t100 241.5q0 94 -46 172l-467 -467q78 -46 171 -46z" glyph-name="emptyset" horiz-adv-x="1268" unicode="∅"/><glyph d="M1506 1434v-1723h-424v1426h-518v-1426h-424v1723h1366z" glyph-name="product" horiz-adv-x="1646" unicode="∏"/><glyph d="M1319 89v-302h-1179v276l515 636l-515 635v278h1159v-302l-643 2l456 -613l-456 -613z" glyph-name="summation" horiz-adv-x="1458" unicode="∑"/><glyph d="M1129 586h-989v262h989v-262z" glyph-name="minus" horiz-adv-x="1269" unicode="−"/><glyph d="M1622 1434l-601 -1741h-410l-261 760h-210v297h459l217 -684l465 1368h341z" glyph-name="radical" horiz-adv-x="1762" unicode="√"/><glyph d="M1275 950q174 0 279.5 -110.5t105.5 -297.5q0 -185 -105.5 -296t-279.5 -111q-110 0 -215.5 60t-193.5 173q-88 -113 -193 -173t-215 -60q-174 0 -279 110.5t-105 296.5q0 187 105 297.5t279 110.5q225 0 408 -233q186 233 409 233zM484 372q122 0 245 171 q-126 171 -245 171q-66 0 -103 -46t-37 -126q0 -78 37 -124t103 -46zM1247 372q67 0 105 46t38 124q0 80 -38.5 126t-104.5 46q-117 0 -242 -171q122 -171 242 -171z" glyph-name="infinity" horiz-adv-x="1733" unicode="∞"/><glyph d="M690 1404q135 -2 212 -47l-10 -155q-97 22 -150 -1q-37 -11 -48 -39t-11 -90v-1099q0 -76 -23.5 -132t-60 -88.5t-90.5 -51.5t-106.5 -25t-116.5 -6q-133 2 -212 48l10 155q97 -22 150 0q36 11 47.5 40t11.5 90v1099q0 76 23.5 132t60 88.5t90.5 51.5t106 25t117 5z" glyph-name="integral" horiz-adv-x="975" unicode="∫"/><glyph d="M140 755q0 88 22 155t60.5 107t86 59.5t103.5 19.5q61 0 128 -23t126.5 -46t102.5 -23q72 0 77 90h236q0 -88 -22.5 -155.5t-61.5 -106.5t-86.5 -58.5t-101.5 -19.5q-58 0 -125.5 22.5t-127 45.5t-101.5 23q-74 0 -79 -90h-237zM140 346q0 88 22 155t60.5 107t86 59.5 t103.5 19.5q61 0 128 -23t126.5 -45.5t102.5 -22.5q72 0 77 90h236q0 -171 -78 -256t-194 -85q-58 0 -125.5 23t-127 46t-101.5 23q-74 -1 -79 -91h-237z" glyph-name="approxequal" horiz-adv-x="1222" unicode="≈"/><glyph d="M1129 800h-352l-106 -166h458v-262h-624l-109 -170h-178l109 170h-187v262h353l106 166h-459v262h625l108 170h179l-109 -170h186v-262z" glyph-name="notequal" horiz-adv-x="1269" unicode="≠"/><glyph d="M1093 1253v-303l-642 -157l642 -159v-303l-953 234v454zM140 -5v297h952v-297h-952z" glyph-name="lessequal" horiz-adv-x="1232" unicode="≤"/><glyph d="M140 1253l953 -234v-454l-953 -234v303l642 159l-642 157v303zM140 -5v297h953v-297h-953z" glyph-name="greaterequal" horiz-adv-x="1232" unicode="≥"/><glyph d="M949 -154q-177 0 -338 69.5t-277.5 185.5t-185.5 278t-69 339t69 338t185.5 277.5t277.5 185t338 68.5t338.5 -68.5t277.5 -185t185.5 -277.5t69.5 -338t-69.5 -339t-185.5 -278t-277.5 -185.5t-338.5 -69.5zM949 24q141 0 269.5 54.5t221.5 147t147.5 222t54.5 271.5 q0 187 -92.5 346.5t-252 252t-348 92.5t-348.5 -92.5t-252.5 -251.5t-92.5 -347q0 -189 92.5 -349.5t252 -253t348.5 -92.5zM1067 467h209v-180h-653v180h207v478q-83 -58 -161 -80v202q83 15 159 80h239v-680z" glyph-name="uni2460" horiz-adv-x="1898" unicode="①"/><glyph d="M949 -154q-177 0 -338 69.5t-277.5 185.5t-185.5 278t-69 339t69 338t185.5 277.5t277.5 185t338 68.5t338.5 -68.5t277.5 -185t185.5 -277.5t69.5 -338t-69.5 -339t-185.5 -278t-277.5 -185.5t-338.5 -69.5zM949 24q141 0 269.5 54.5t221.5 147t147.5 222t54.5 271.5 q0 187 -92.5 346.5t-252 252t-348 92.5t-348.5 -92.5t-252.5 -251.5t-92.5 -347q0 -189 92.5 -349.5t252 -253t348.5 -92.5zM1298 461v-181h-733v181q101 62 170 107.5t143.5 103t113 107.5t38.5 91q0 45 -31 74t-86 30q-131 2 -246 -67l-83 155q169 92 339 92t264.5 -66 t94.5 -174q0 -42 -12.5 -83t-29 -74t-50 -70.5t-58 -62t-70 -60t-70 -52.5l-73.5 -51h379z" glyph-name="uni2461" horiz-adv-x="1898" unicode="②"/><glyph d="M949 -154q-177 0 -338 69.5t-277.5 185.5t-185.5 278t-69 339t69 338t185.5 277.5t277.5 185t338 68.5t338.5 -68.5t277.5 -185t185.5 -277.5t69.5 -338t-69.5 -339t-185.5 -278t-277.5 -185.5t-338.5 -69.5zM949 24q141 0 269.5 54.5t221.5 147t147.5 222t54.5 271.5 q0 187 -92.5 346.5t-252 252t-348 92.5t-348.5 -92.5t-252.5 -251.5t-92.5 -347q0 -189 92.5 -349.5t252 -253t348.5 -92.5zM603 1154h661v-181l-252 -180q54 -6 99 -19q196 -57 193 -237q-1 -129 -101 -195t-266 -62q-116 2 -197.5 21.5t-179.5 69.5l95 163q48 -32 130 -54 t150 -20q58 0 95.5 20.5t38.5 59.5q2 47 -45.5 80t-129.5 33q-92 0 -143 -11l-49 162l289 169h-388v181z" glyph-name="uni2462" horiz-adv-x="1898" unicode="③"/><glyph d="M949 -154q-177 0 -338 69.5t-277.5 185.5t-185.5 278t-69 339t69 338t185.5 277.5t277.5 185t338 68.5t338.5 -68.5t277.5 -185t185.5 -277.5t69.5 -338t-69.5 -339t-185.5 -278t-277.5 -185.5t-338.5 -69.5zM949 24q141 0 269.5 54.5t221.5 147t147.5 222t54.5 271.5 q0 187 -92.5 346.5t-252 252t-348 92.5t-348.5 -92.5t-252.5 -251.5t-92.5 -347q0 -189 92.5 -349.5t252 -253t348.5 -92.5zM1320 654v-180h-132v-187h-236v187h-407v180l371 493h272v-493h132zM766 654h186v270z" glyph-name="uni2463" horiz-adv-x="1898" unicode="④"/><glyph d="M949 -154q-177 0 -338 69.5t-277.5 185.5t-185.5 278t-69 339t69 338t185.5 277.5t277.5 185t338 68.5t338.5 -68.5t277.5 -185t185.5 -277.5t69.5 -338t-69.5 -339t-185.5 -278t-277.5 -185.5t-338.5 -69.5zM949 24q141 0 269.5 54.5t221.5 147t147.5 222t54.5 271.5 q0 187 -92.5 346.5t-252 252t-348 92.5t-348.5 -92.5t-252.5 -251.5t-92.5 -347q0 -189 92.5 -349.5t252 -253t348.5 -92.5zM640 1152h612v-180h-406l-11 -138q119 15 225 -7q114 -24 179.5 -95.5t64.5 -177.5q-2 -141 -101.5 -208t-266.5 -64q-116 2 -196.5 20.5 t-178.5 68.5l94 164q47 -32 128 -53t151 -21q131 2 134 96q1 54 -78 91.5t-170 37.5q-72 0 -157 -14l-47 52z" glyph-name="uni2464" horiz-adv-x="1898" unicode="⑤"/><glyph d="M949 -154q-177 0 -338 69.5t-277.5 185.5t-185.5 278t-69 339t69 338t185.5 277.5t277.5 185t338 68.5t338.5 -68.5t277.5 -185t185.5 -277.5t69.5 -338t-69.5 -339t-185.5 -278t-277.5 -185.5t-338.5 -69.5zM949 24q141 0 269.5 54.5t221.5 147t147.5 222t54.5 271.5 q0 187 -92.5 346.5t-252 252t-348 92.5t-348.5 -92.5t-252.5 -251.5t-92.5 -347q0 -189 92.5 -349.5t252 -253t348.5 -92.5zM1307 572q0 -59 -21.5 -108t-58 -82.5t-85 -56.5t-101.5 -33t-109 -10q-71 0 -136 16.5t-119.5 51t-87 92t-32.5 130.5q0 25 3 44t7 37t19 44.5 t28 48.5t44.5 67t58 83t80.5 113.5t100 142.5h280l-226 -322q84 24 159 7q88 -22 142.5 -93.5t54.5 -171.5zM931.5 437q64.5 0 101 40.5t36.5 95t-37 95t-100 40.5q-65 0 -101.5 -41t-36.5 -95t36.5 -94.5t101 -40.5z" glyph-name="uni2465" horiz-adv-x="1898" unicode="⑥"/><glyph d="M949 -154q-177 0 -338 69.5t-277.5 185.5t-185.5 278t-69 339t69 338t185.5 277.5t277.5 185t338 68.5t338.5 -68.5t277.5 -185t185.5 -277.5t69.5 -338t-69.5 -339t-185.5 -278t-277.5 -185.5t-338.5 -69.5zM949 24q141 0 269.5 54.5t221.5 147t147.5 222t54.5 271.5 q0 187 -92.5 346.5t-252 252t-348 92.5t-348.5 -92.5t-252.5 -251.5t-92.5 -347q0 -189 92.5 -349.5t252 -253t348.5 -92.5zM622 1137h648v-182q-126 -158 -205 -321t-106 -358h-246q27 197 101.5 361t194.5 318h-387v182z" glyph-name="uni2466" horiz-adv-x="1898" unicode="⑦"/><glyph d="M949 -154q-177 0 -338 69.5t-277.5 185.5t-185.5 278t-69 339t69 338t185.5 277.5t277.5 185t338 68.5t338.5 -68.5t277.5 -185t185.5 -277.5t69.5 -338t-69.5 -339t-185.5 -278t-277.5 -185.5t-338.5 -69.5zM949 24q141 0 269.5 54.5t221.5 147t147.5 222t54.5 271.5 q0 187 -92.5 346.5t-252 252t-348 92.5t-348.5 -92.5t-252.5 -251.5t-92.5 -347q0 -189 92.5 -349.5t252 -253t348.5 -92.5zM1304 529q0 -65 -30.5 -114t-83 -78.5t-117.5 -44t-141 -14.5t-141 14.5t-117.5 44t-83 79t-30.5 113.5q0 137 141 203q-95 66 -95 179 q0 80 47.5 137.5t119.5 82.5t159 25q86 0 157.5 -25t119 -82.5t47.5 -137.5q1 -113 -93 -179q141 -69 141 -203zM814 901q0 -43 30 -69.5t87.5 -26.5t88 26.5t30.5 69.5t-30 69t-88.5 26t-88 -26t-29.5 -69zM931.5 437q64.5 0 99.5 28.5t35 74.5t-35 75t-99.5 29t-99 -29 t-34.5 -75t34.5 -74.5t99 -28.5z" glyph-name="uni2467" horiz-adv-x="1898" unicode="⑧"/><glyph d="M949 -154q-177 0 -338 69.5t-277.5 185.5t-185.5 278t-69 339t69 338t185.5 277.5t277.5 185t338 68.5t338.5 -68.5t277.5 -185t185.5 -277.5t69.5 -338t-69.5 -339t-185.5 -278t-277.5 -185.5t-338.5 -69.5zM949 24q141 0 269.5 54.5t221.5 147t147.5 222t54.5 271.5 q0 187 -92.5 346.5t-252 252t-348 92.5t-348.5 -92.5t-252.5 -251.5t-92.5 -347q0 -189 92.5 -349.5t252 -253t348.5 -92.5zM574 861q0 59 21.5 108.5t58 82.5t85 56.5t101.5 33.5t109 10q71 0 136 -17t120 -51t87 -91.5t32 -131.5q0 -24 -3 -43t-7 -37t-19 -44.5t-28 -48.5 t-44 -67.5t-57.5 -83.5t-80.5 -113.5t-100 -141.5h-280l225 321q-84 -24 -159 -6q-88 22 -142.5 93t-54.5 171zM949.5 996q-64.5 0 -101 -40.5t-36.5 -94.5t36.5 -94.5t101 -40.5t101 41t36.5 94q0 54 -36.5 94.5t-101 40.5z" glyph-name="uni2468" horiz-adv-x="1898" unicode="⑨"/><glyph d="M949 -154q-177 0 -338 69.5t-277.5 185.5t-185.5 278t-69 339t69 338t185.5 277.5t277.5 185t338 68.5t338.5 -68.5t277.5 -185t185.5 -277.5t69.5 -338t-69.5 -339t-185.5 -278t-277.5 -185.5t-338.5 -69.5zM949 24q141 0 269.5 54.5t221.5 147t147.5 222t54.5 271.5 q0 187 -92.5 346.5t-252 252t-348 92.5t-348.5 -92.5t-252.5 -251.5t-92.5 -347q0 -189 92.5 -349.5t252 -253t348.5 -92.5zM1304 717q1 -217 -99.5 -329.5t-273.5 -112.5q-171 0 -271 113t-100 329q0 213 99.5 327t271.5 114q173 0 273 -114t100 -327zM932 451 q132 0 130 266q0 266 -130 266q-129 0 -129 -266t129 -266z" glyph-name="uni24EA" horiz-adv-x="1898" unicode="⓪"/><glyph d="M940 -145q-175 0 -335 68t-275 183.5t-183 275.5t-68 336q0 175 68 334.5t183 275t275 183.5t335 68q176 0 336 -68t275 -183.5t183 -275t68 -334.5q0 -176 -68 -336t-183 -275.5t-275 -183.5t-336 -68zM1312 717q0 213 -100 327t-272 114t-272 -114t-100 -327 q0 -217 100.5 -329.5t271.5 -112.5q172 0 272.5 113t99.5 329zM940 451q-130 0 -130 266t130 266t130 -266t-130 -266z" glyph-name="uni24FF" horiz-adv-x="1881" unicode="⓿"/><glyph d="M140 1485h1536v-1536h-1536v1536z" glyph-name="filledbox" horiz-adv-x="1816" unicode="■"/><glyph d="M140 1434h1434v-1434h-1434v1434zM317 1256v-1079h1080v1079h-1080z" glyph-name="H22073" horiz-adv-x="1714" unicode="□"/><glyph d="M1402 717l-411 -717h-440l-411 717l411 717h440zM1031 717l-260 449l-260 -449l260 -450z" glyph-name="lozenge" horiz-adv-x="1542" unicode="◊"/><glyph d="M949 -154q-177 0 -338 69.5t-277.5 185.5t-185.5 278t-69 339t69 338t185.5 277.5t277.5 185t338 68.5t338.5 -68.5t277.5 -185t185.5 -277.5t69.5 -338t-69.5 -339t-185.5 -278t-277.5 -185.5t-338.5 -69.5zM949 24q141 0 269.5 54.5t221.5 147t147.5 222t54.5 271.5 q0 187 -92.5 346.5t-252 252t-348 92.5t-348.5 -92.5t-252.5 -251.5t-92.5 -347q0 -189 92.5 -349.5t252 -253t348.5 -92.5z" glyph-name="circle" horiz-adv-x="1898" unicode="○"/><glyph d="M940 -145q-175 0 -334.5 68t-275 183.5t-183.5 275.5t-68 336q0 175 68 334t183.5 275t275 184t334.5 68t335 -68t275.5 -184t183.5 -275t68 -334q0 -176 -68 -336t-183.5 -275.5t-275.5 -183.5t-335 -68z" glyph-name="H18533" horiz-adv-x="1881" unicode="●"/><glyph d="M949 -154q-177 0 -338 69t-278 185.5t-185.5 278t-68.5 339.5q0 142 44 274.5t124.5 239.5t187.5 187.5t239.5 124t275 43.5t275 -43.5t239.5 -124t187.5 -187.5t124.5 -239.5t44 -274.5q0 -178 -69 -339.5t-185.5 -278t-278 -185.5t-338.5 -69zM1067 467v680h-239 q-77 -65 -159 -80v-202q79 22 161 80v-478h-207v-180h653v180h-209z" glyph-name="uni2776" horiz-adv-x="1898" unicode="❶"/><glyph d="M949 -154q-177 0 -338 69t-278 185.5t-185.5 278t-68.5 339.5q0 142 44 274.5t124.5 239.5t187.5 187.5t239.5 124t275 43.5t275 -43.5t239.5 -124t187.5 -187.5t124.5 -239.5t44 -274.5q0 -178 -69 -339.5t-185.5 -278t-278 -185.5t-338.5 -69zM1315 461h-379 q56 39 86 61t80.5 62t78.5 72t59 75t44.5 88.5t13.5 94.5q0 109 -94 174.5t-265 65.5q-93 0 -172 -22.5t-166 -69.5l83 -155q115 69 246 67q55 -1 86.5 -30t31.5 -74q0 -41 -38.5 -91t-113.5 -107.5t-143.5 -103t-169.5 -107.5v-181h732v181z" glyph-name="uni2777" horiz-adv-x="1898" unicode="❷"/><glyph d="M949 -154q-177 0 -338 69t-278 185.5t-185.5 278t-68.5 339.5q0 142 44 274.5t124.5 239.5t187.5 187.5t239.5 124t275 43.5t275 -43.5t239.5 -124t187.5 -187.5t124.5 -239.5t44 -274.5q0 -178 -69 -339.5t-185.5 -278t-278 -185.5t-338.5 -69zM621 1154v-181h387 l-288 -169l48 -162q51 11 143 11q81 0 128.5 -33t45.5 -80q-1 -39 -38 -59.5t-96 -20.5q-68 -2 -149 20t-129 54l-95 -163q98 -50 179.5 -69.5t196.5 -21.5q165 -3 265.5 62.5t101.5 194.5q1 90 -49 149.5t-144 87.5q-48 12 -99 19l251 180v181h-659z" glyph-name="uni2778" horiz-adv-x="1898" unicode="❸"/><glyph d="M949 -154q-177 0 -338 69t-278 185.5t-185.5 278t-68.5 339.5q0 142 44 274.5t124.5 239.5t187.5 187.5t239.5 124t275 43.5t275 -43.5t239.5 -124t187.5 -187.5t124.5 -239.5t44 -274.5q0 -178 -69 -339.5t-185.5 -278t-278 -185.5t-338.5 -69zM1336 654h-131v493h-271 l-372 -493v-180h408v-187h235v187h131v180zM782 654l188 270v-270h-188z" glyph-name="uni2779" horiz-adv-x="1898" unicode="❹"/><glyph d="M949 -154q-177 0 -338 69t-278 185.5t-185.5 278t-68.5 339.5q0 142 44 274.5t124.5 239.5t187.5 187.5t239.5 124t275 43.5t275 -43.5t239.5 -124t187.5 -187.5t124.5 -239.5t44 -274.5q0 -178 -69 -339.5t-185.5 -278t-278 -185.5t-338.5 -69zM657 1152l-23 -428 l45 -52q88 14 159 14q91 0 169.5 -37.5t77.5 -91.5q-3 -94 -135 -96q-69 0 -150 21t-128 53l-94 -164q98 -50 179 -68.5t196 -20.5q167 -3 266.5 64.5t100.5 207.5q1 106 -64.5 178t-179.5 95q-105 22 -225 7l11 138h408v180h-613z" glyph-name="uni277A" horiz-adv-x="1898" unicode="❺"/><glyph d="M949 -154q-177 0 -338 69t-278 185.5t-185.5 278t-68.5 339.5q0 142 44 274.5t124.5 239.5t187.5 187.5t239.5 124t275 43.5t275 -43.5t239.5 -124t187.5 -187.5t124.5 -239.5t44 -274.5q0 -178 -69 -339.5t-185.5 -278t-278 -185.5t-338.5 -69zM1323 572 q0 100 -54.5 171.5t-141.5 93.5q-75 17 -158 -7l225 322h-281q-47 -68 -99.5 -142.5t-79.5 -113t-58.5 -83.5t-45 -67t-28 -48.5t-18.5 -44.5t-7.5 -37.5t-3.5 -43.5q0 -74 33 -131.5t87.5 -91t119.5 -50.5t135.5 -17t135.5 17t119.5 50.5t87 91t32.5 131.5zM948.5 437 q-64.5 0 -101 40.5t-36.5 94.5q0 53 37 94.5t100 41.5q65 0 101.5 -40.5t36.5 -95t-36.5 -95t-101 -40.5z" glyph-name="uni277B" horiz-adv-x="1898" unicode="❻"/><glyph d="M949 -154q-177 0 -338 69t-278 185.5t-185.5 278t-68.5 339.5q0 142 44 274.5t124.5 239.5t187.5 187.5t239.5 124t275 43.5t275 -43.5t239.5 -124t187.5 -187.5t124.5 -239.5t44 -274.5q0 -178 -69 -339.5t-185.5 -278t-278 -185.5t-338.5 -69zM638 1147v-180h387 q-120 -154 -194.5 -318.5t-101.5 -361.5h247q27 195 105.5 358t203.5 322v180h-647z" glyph-name="uni277C" horiz-adv-x="1898" unicode="❼"/><glyph d="M949 -154q-177 0 -338 69t-278 185.5t-185.5 278t-68.5 339.5q0 142 44 274.5t124.5 239.5t187.5 187.5t239.5 124t275 43.5t275 -43.5t239.5 -124t187.5 -187.5t124.5 -239.5t44 -274.5q0 -178 -69 -339.5t-185.5 -278t-278 -185.5t-338.5 -69zM1321 529q0 135 -141 203 q95 68 94 179q0 80 -47.5 137.5t-119.5 82.5t-159 25q-86 0 -157.5 -25t-119 -82.5t-47.5 -137.5q0 -113 94 -179q-141 -67 -141 -203q0 -65 30 -114t82.5 -78.5t117.5 -44t141 -14.5t141.5 14.5t118.5 44t83 78.5t30 114zM830 901q0 43 30 69t88 26q59 0 89 -26t30 -69 t-30.5 -69.5t-88.5 -26.5q-56 0 -87 27t-31 69zM948.5 437q-64.5 0 -99.5 28.5t-35 74.5t35.5 75t98.5 29q65 0 100 -29t35 -75t-35 -74.5t-99.5 -28.5z" glyph-name="uni277D" horiz-adv-x="1898" unicode="❽"/><glyph d="M949 -154q-177 0 -338 69t-278 185.5t-185.5 278t-68.5 339.5q0 142 44 274.5t124.5 239.5t187.5 187.5t239.5 124t275 43.5t275 -43.5t239.5 -124t187.5 -187.5t124.5 -239.5t44 -274.5q0 -178 -69 -339.5t-185.5 -278t-278 -185.5t-338.5 -69zM574 861 q0 -100 54.5 -171.5t142.5 -92.5q75 -17 159 6l-225 -321h280q46 67 100 142t80.5 113t57.5 83.5t44 67.5t28 48.5t19 44.5t7 37.5t3 42.5q0 74 -32 131.5t-87 91.5t-120 51t-136 17q-56 0 -109 -10t-101.5 -33.5t-85 -56.5t-58 -82.5t-21.5 -108.5zM949.5 996 q64.5 0 101 -40.5t36.5 -94.5q0 -53 -36.5 -94t-101 -41t-101 40.5t-36.5 94.5t36.5 94.5t101 40.5z" glyph-name="uni277E" horiz-adv-x="1898" unicode="❾"/><glyph d="M128 1457h346v-262h-346v262zM106 1083h391v-1083h-391v1083z" glyph-name="i.aalt" horiz-adv-x="602"/><glyph d="M1001 1083h315v-1083h-315l-16 120q-117 -138 -367 -138q-117 0 -213.5 32.5t-172 98t-117.5 175t-41 254.5q-1 144 41 253.5t117 175.5t172.5 99t213.5 33q104 0 204.5 -31.5t162.5 -104.5zM692 236q165 0 231 162v288q-69 163 -231 163q-112 0 -171.5 -86t-59.5 -221 t59.5 -220.5t171.5 -85.5z" glyph-name="a.salt" horiz-adv-x="1422"/><glyph d="M1122 1503l-266 -307h-290l195 307h361zM1001 1083h315v-1083h-315l-16 120q-117 -138 -367 -138q-117 0 -213.5 32.5t-172 98t-117.5 175t-41 254.5q-1 144 41 253.5t117 175.5t172.5 99t213.5 33q104 0 204.5 -31.5t162.5 -104.5zM692 236q165 0 231 162v288 q-69 163 -231 163q-112 0 -171.5 -86t-59.5 -221t59.5 -220.5t171.5 -85.5z" glyph-name="aacute.aalt" horiz-adv-x="1422"/><glyph d="M1068 1487q-27 -136 -122 -214t-234 -78q-140 0 -235.5 78t-122.5 214h229q8 -50 41 -80.5t88 -30.5q52 0 85.5 31t42.5 80h228zM1001 1083h315v-1083h-315l-16 120q-117 -138 -367 -138q-117 0 -213.5 32.5t-172 98t-117.5 175t-41 254.5q-1 144 41 253.5t117 175.5 t172.5 99t213.5 33q104 0 204.5 -31.5t162.5 -104.5zM692 236q165 0 231 162v288q-69 163 -231 163q-112 0 -171.5 -86t-59.5 -221t59.5 -220.5t171.5 -85.5z" glyph-name="abreve.aalt" horiz-adv-x="1422"/><glyph d="M852 1502h290l-230 -307h-404l-228 307h289l142 -207zM1001 1083h315v-1083h-315l-16 120q-117 -138 -367 -138q-117 0 -213.5 32.5t-172 98t-117.5 175t-41 254.5q-1 144 41 253.5t117 175.5t172.5 99t213.5 33q104 0 204.5 -31.5t162.5 -104.5zM692 236q165 0 231 162 v288q-69 163 -231 163q-112 0 -171.5 -86t-59.5 -221t59.5 -220.5t171.5 -85.5z" glyph-name="uni01CE.aalt" horiz-adv-x="1422"/><glyph d="M1142 1195h-290l-141 206l-142 -206h-289l228 307h404zM1001 1083h315v-1083h-315l-16 120q-117 -138 -367 -138q-117 0 -213.5 32.5t-172 98t-117.5 175t-41 254.5q-1 144 41 253.5t117 175.5t172.5 99t213.5 33q104 0 204.5 -31.5t162.5 -104.5zM692 236q165 0 231 162 v288q-69 163 -231 163q-112 0 -171.5 -86t-59.5 -221t59.5 -220.5t171.5 -85.5z" glyph-name="acircumflex.aalt" horiz-adv-x="1422"/><glyph d="M309 1457h346v-262h-346v262zM768 1457h345v-262h-345v262zM1001 1083h315v-1083h-315l-16 120q-117 -138 -367 -138q-117 0 -213.5 32.5t-172 98t-117.5 175t-41 254.5q-1 144 41 253.5t117 175.5t172.5 99t213.5 33q104 0 204.5 -31.5t162.5 -104.5zM692 236 q165 0 231 162v288q-69 163 -231 163q-112 0 -171.5 -86t-59.5 -221t59.5 -220.5t171.5 -85.5z" glyph-name="adieresis.aalt" horiz-adv-x="1422"/><glyph d="M1001 1083h315v-1083h-315l-16 120q-117 -138 -367 -138q-117 0 -213.5 32.5t-172 98t-117.5 175t-41 254.5q-1 144 41 253.5t117 175.5t172.5 99t213.5 33q104 0 204.5 -31.5t162.5 -104.5zM692 236q165 0 231 162v288q-69 163 -231 163q-112 0 -171.5 -86t-59.5 -221 t59.5 -220.5t171.5 -85.5zM538 -128h346v-262h-346v262z" glyph-name="uni1EA1.aalt" horiz-adv-x="1422"/><glyph d="M300 1503h360l196 -307h-290zM1001 1083h315v-1083h-315l-16 120q-117 -138 -367 -138q-117 0 -213.5 32.5t-172 98t-117.5 175t-41 254.5q-1 144 41 253.5t117 175.5t172.5 99t213.5 33q104 0 204.5 -31.5t162.5 -104.5zM692 236q165 0 231 162v288q-69 163 -231 163 q-112 0 -171.5 -86t-59.5 -221t59.5 -220.5t171.5 -85.5z" glyph-name="agrave.aalt" horiz-adv-x="1422"/><glyph d="M417 1414h589v-219h-589v219zM1001 1083h315v-1083h-315l-16 120q-117 -138 -367 -138q-117 0 -213.5 32.5t-172 98t-117.5 175t-41 254.5q-1 144 41 253.5t117 175.5t172.5 99t213.5 33q104 0 204.5 -31.5t162.5 -104.5zM692 236q165 0 231 162v288q-69 163 -231 163 q-112 0 -171.5 -86t-59.5 -221t59.5 -220.5t171.5 -85.5z" glyph-name="amacron.aalt" horiz-adv-x="1422"/><glyph d="M1265 0q-106 -45 -144 -85.5t-37 -77.5q1 -51 60.5 -65t131.5 7l13 -157q-71 -22 -147 -18.5t-139.5 21t-105 61.5t-41.5 105q-1 59 43.5 116t147.5 93h-46l-16 120q-117 -138 -367 -138q-117 0 -213.5 32.5t-172 98t-117.5 175t-41 254.5q-1 144 41 253.5t117 175.5 t172.5 99t213.5 33q104 0 204.5 -31.5t162.5 -104.5l16 116h315v-1083h-51zM923 398v288q-69 163 -231 163q-112 0 -171.5 -86t-59.5 -221t60 -220.5t171 -85.5q165 -1 231 162z" glyph-name="aogonek.aalt" horiz-adv-x="1422"/><glyph d="M711 1195q-108 0 -184.5 77t-76.5 184q0 109 76.5 185.5t184.5 76.5q109 0 185.5 -76.5t76.5 -185.5q0 -108 -76.5 -184.5t-185.5 -76.5zM710.5 1371q34.5 0 60.5 25t26 60t-26 60.5t-60.5 25.5t-59.5 -25.5t-25 -60.5t25 -60t59.5 -25zM1001 1083h315v-1083h-315 l-16 120q-117 -138 -367 -138q-117 0 -213.5 32.5t-172 98t-117.5 175t-41 254.5q-1 144 41 253.5t117 175.5t172.5 99t213.5 33q104 0 204.5 -31.5t162.5 -104.5zM692 236q165 0 231 162v288q-69 163 -231 163q-112 0 -171.5 -86t-59.5 -221t59.5 -220.5t171.5 -85.5z" glyph-name="aring.aalt" horiz-adv-x="1422"/><glyph d="M332 1195q-1 136 61.5 204t156.5 68q62 0 156.5 -37.5t133.5 -37.5q60 0 62 74h188q0 -137 -62.5 -204.5t-156.5 -67.5q-59 0 -153.5 38t-133.5 38q-61 0 -65 -75h-187zM1001 1083h315v-1083h-315l-16 120q-117 -138 -367 -138q-117 0 -213.5 32.5t-172 98t-117.5 175 t-41 254.5q-1 144 41 253.5t117 175.5t172.5 99t213.5 33q104 0 204.5 -31.5t162.5 -104.5zM692 236q165 0 231 162v288q-69 163 -231 163q-112 0 -171.5 -86t-59.5 -221t59.5 -220.5t171.5 -85.5z" glyph-name="atilde.aalt" horiz-adv-x="1422"/><glyph d="M718 0h-346q-98 0 -165 68.5t-67 170.5v1297h390v-1184q0 -50 27 -78t74 -28h87v-246z" glyph-name="l.aalt" horiz-adv-x="790"/><glyph d="M807 1955l-266 -307h-290l194 307h362zM718 0h-346q-98 0 -165 68.5t-67 170.5v1297h390v-1184q0 -50 27 -78t74 -28h87v-246z" glyph-name="lacute.aalt" horiz-adv-x="790"/><glyph d="M683 0h-346q-98 0 -164.5 68.5t-66.5 170.5v1297h391v-1184q0 -50 26.5 -78t73.5 -28h86v-246zM708 1391h392l-139 -613h-347z" glyph-name="lcaron.aalt" horiz-adv-x="1240"/><glyph d="M718 0h-346q-98 0 -165 68.5t-67 170.5v1297h390v-1184q0 -50 27 -78t74 -28h87v-246zM245 -126h310l-111 -485h-273z" glyph-name="lcommaaccent.aalt" horiz-adv-x="790"/><glyph d="M718 0h-346q-98 0 -165 68.5t-67 170.5v1297h390v-1184q0 -50 27 -78t74 -28h87v-246zM223 -128h346v-262h-346v262z" glyph-name="uni1E37.aalt" horiz-adv-x="790"/><glyph d="M631 246h87v-246h-346q-98 0 -165 68.5t-67 170.5v451l-82 -13v160l82 13v686h390v-621l144 24v-160l-144 -23v-404q0 -50 27 -78t74 -28z" glyph-name="lslash.aalt" horiz-adv-x="790"/><glyph d="M946 1083h413l-505 -1493h-355l127 423h-199l-373 1070h415l238 -799z" glyph-name="y.aalt" horiz-adv-x="1413"/><glyph d="M1118 1503l-266 -307h-290l195 307h361zM946 1083h413l-505 -1493h-355l127 423h-199l-373 1070h415l238 -799z" glyph-name="yacute.aalt" horiz-adv-x="1413"/><glyph d="M707 1401l-142 -206h-290l229 307h404l230 -307h-290zM946 1083h413l-505 -1493h-355l127 423h-199l-373 1070h415l238 -799z" glyph-name="ycircumflex.aalt" horiz-adv-x="1413"/><glyph d="M651 1457v-262h-346v262h346zM1109 1457v-262h-345v262h345zM946 1083h413l-505 -1493h-355l127 423h-199l-373 1070h415l238 -799z" glyph-name="ydieresis.aalt" horiz-adv-x="1413"/><glyph d="M946 1083h413l-505 -1493h-355l127 423h-199l-373 1070h415l238 -799zM1086 -119h340v-273h-340v273z" glyph-name="uni1EF5.aalt" horiz-adv-x="1481"/><glyph d="M852 1196h-290l-266 307h360zM946 1083h413l-505 -1493h-355l127 423h-199l-373 1070h415l238 -799z" glyph-name="ygrave.aalt" horiz-adv-x="1413"/><glyph d="M515 1195h-187q-1 136 61.5 204t156.5 68q62 0 156.5 -37.5t133.5 -37.5q60 0 62 74h187q0 -137 -62 -204.5t-156 -67.5q-59 0 -154 38t-133 38q-62 0 -65 -75zM946 1083h413l-505 -1493h-355l127 423h-199l-373 1070h415l238 -799z" glyph-name="uni1EF9.aalt" horiz-adv-x="1413"/><glyph d="M2390 1434v-297h-381v-1137h-424v1137h-761v-1137h-425v1137h-381v297h2372z" glyph-name="T_T.dlig" horiz-adv-x="2409"/><glyph d="M1857 821h-273v-469q0 -50 26.5 -78t73.5 -28h173v-246h-433q-98 0 -164 68.5t-66 170.5v582h-565v-821h-390v821h-165v262h165v214q0 100 66 169.5t163 69.5h423v-246h-163q-47 0 -73 -28t-26 -78v-101h565v209h390v-209h273v-262z" glyph-name="f_t.dlig" horiz-adv-x="1961"/><glyph d="M1122 1434h441v-245h-441v245zM1538 1083v-1083h-390v821h-519v-469q0 -50 27 -78t73 -28h172v-246h-431q-98 0 -164.5 69t-66.5 170v582h-165v262h165v209h390v-209h909z" glyph-name="t_i.dlig" horiz-adv-x="1678"/><glyph d="M1909 821h-273v-469q0 -50 27.5 -78t73.5 -28h172v-246h-431q-98 0 -165 68.5t-67 170.5v582h-617v-469q0 -50 27 -78t73 -28h172v-246h-431q-98 0 -164.5 69t-66.5 170v582h-165v262h165v209h390v-209h617v209h390v-209h273v-262z" glyph-name="t_t.dlig" horiz-adv-x="2015"/><glyph d="M2130 1434h440v-245h-440v245zM2546 1083v-1083h-390v821h-520v-469q0 -50 27.5 -78t73.5 -28h172v-246h-431q-98 0 -165 68.5t-67 170.5v582h-617v-469q0 -50 27 -78t73 -28h172v-246h-431q-98 0 -164.5 69t-66.5 170v582h-165v262h165v209h390v-209h617v209h390v-209 h910z" glyph-name="t_t_i.dlig" horiz-adv-x="2685"/><glyph d="M1585 246h87v-246h-346q-98 0 -164.5 68.5t-66.5 170.5v1051h-367q-47 0 -73 -28t-26 -78v-101h262v-262h-262v-821h-390v821h-165v262h165v214q0 100 66 169.5t163 69.5h1017v-1184q0 -50 27 -78t73 -28z" glyph-name="uniFB02.aalt" horiz-adv-x="1745"/><glyph d="M631 1434h191v-651h-191l-10 77q-37 -46 -98 -67t-123 -21q-145 0 -236 83.5t-90 252.5q-1 169 89.5 253t236.5 84q61 0 122.5 -21t98.5 -68zM446 927q97 0 138 95v173q-42 95 -138 95q-66 0 -101 -51t-35 -131t35 -130.5t101 -50.5z" glyph-name="ordfeminine.aalt" horiz-adv-x="896"/><glyph d="M910 1434h413l-505 -1434h-355l127 407h-199l-373 1027h415l238 -768z" glyph-name="afii10037.aalt" horiz-adv-x="1341"/><glyph d="M1001 1083h315v-1083h-315l-16 120q-117 -138 -367 -138q-117 0 -213.5 32.5t-172 98t-117.5 175t-41 254.5q-1 144 41 253.5t117 175.5t172.5 99t213.5 33q104 0 204.5 -31.5t162.5 -104.5zM692 236q165 0 231 162v288q-69 163 -231 163q-112 0 -171.5 -86t-59.5 -221 t59.5 -220.5t171.5 -85.5z" glyph-name="afii10065.aalt" horiz-adv-x="1422"/><glyph d="M1300 544q1 -275 -164.5 -418.5t-446.5 -143.5q-280 0 -445 143t-165 419q0 270 165 416t445.5 146t445.5 -146t165 -416zM689 202q213 0 213 342q0 154 -51 248t-162 94q-110 0 -161 -94.5t-51 -247.5q0 -342 212 -342z" glyph-name="zero.oldstyle" horiz-adv-x="1379"/><glyph d="M829 262h298v-262h-987v262h299v516q-136 -95 -272 -133v305q144 29 268 133h394v-821z" glyph-name="one.oldstyle" horiz-adv-x="1267"/><glyph d="M1108 262v-262h-1002v262q48 29 122.5 72.5t121.5 71.5t107 65.5t97.5 66.5t72.5 62.5t50.5 65t15.5 62.5q0 57 -41.5 94t-112.5 37q-133 0 -294 -92l-112 218q111 58 213.5 86.5t221.5 28.5q233 0 374 -75t141 -226q0 -39 -9.5 -77t-24 -70t-41.5 -66.5t-50.5 -60 t-64.5 -58t-69 -53.5t-79 -52.5t-80 -49t-83 -50.5h526z" glyph-name="two.oldstyle" horiz-adv-x="1213"/><glyph d="M151 1083h1099v-296l-419 -303q100 -12 165 -31q324 -94 320 -396q-2 -143 -82 -241.5t-215 -143.5t-316 -41q-194 4 -327.5 35.5t-296.5 114.5l154 268q80 -54 216.5 -89.5t249.5 -32.5q98 0 163 35t67 99q3 80 -78 137.5t-216 57.5q-150 0 -239 -18l-78 261l486 288 h-653v296z" glyph-name="three.oldstyle" horiz-adv-x="1394"/><glyph d="M1456 261v-296h-220v-315h-390v315h-706v296l646 822h450v-822h220zM502 261h344v456z" glyph-name="four.oldstyle" horiz-adv-x="1591"/><glyph d="M224 1083h1008v-296h-670l-20 -234q88 10 191 7t176 -17q189 -41 299 -161.5t108 -295.5q-1 -119 -47 -208t-128.5 -143t-192 -80.5t-245.5 -23.5q-194 4 -327.5 35.5t-296.5 114.5l154 268q79 -53 214.5 -87.5t251.5 -34.5q101 0 164.5 39.5t65.5 124.5q1 61 -61.5 113 t-155 80t-188.5 28q-114 0 -262 -25l-77 88z" glyph-name="five.oldstyle" horiz-adv-x="1394"/><glyph d="M1328 468q1 -99 -35 -181t-96.5 -137.5t-141.5 -93.5t-169.5 -55t-182 -17t-181.5 17t-169.5 55t-141.5 93.5t-96 137.5t-36 181q0 46 4 78.5t23.5 79.5t39 80.5t72.5 112.5t100 144t146 205t187 266h461l-376 -536q140 40 264 9q146 -35 237 -153t91 -286zM703.5 238 q109.5 0 172 69t62.5 161q0 93 -62.5 161.5t-172.5 68.5q-109 0 -171.5 -69.5t-62.5 -160.5q0 -92 62.5 -161t172 -69z" glyph-name="six.oldstyle" horiz-adv-x="1406"/><glyph d="M79 1083h1078v-296q-209 -263 -340 -537.5t-175 -599.5h-408q45 332 170.5 608t327.5 529h-653v296z" glyph-name="seven.oldstyle" horiz-adv-x="1235"/><glyph d="M1318 403q1 -108 -49.5 -190.5t-138.5 -131.5t-197 -73.5t-235 -24.5t-234.5 24.5t-196 73.5t-138 132t-50.5 190q0 117 63.5 202t171.5 136q-158 108 -157 299q0 82 29.5 149.5t80.5 115t120.5 80t147.5 48t163 15.5t163.5 -15.5t147.5 -48t120.5 -80t81 -115 t29.5 -149.5q1 -190 -157 -299q108 -52 171.5 -137t63.5 -201zM497 1023q0 -72 52.5 -117.5t149 -45.5t149 45.5t52.5 117.5q0 73 -51 118t-150.5 45t-150.5 -45t-51 -118zM698.5 246q109.5 0 169.5 48t60 127q0 78 -60 127t-169.5 49t-169.5 -49t-60 -127q0 -79 60 -127 t169.5 -48z" glyph-name="eight.oldstyle" horiz-adv-x="1396"/><glyph d="M79 618q-1 99 35 181.5t96.5 137.5t141.5 93t169.5 55.5t182 17.5t181.5 -17.5t169.5 -55.5t141.5 -93t96 -137t36 -182q0 -46 -4 -78t-23.5 -79t-39 -81t-72.5 -113t-100 -144t-146 -204.5t-187 -265.5h-461l375 535q-141 -41 -263 -9q-146 35 -237 153t-91 286z M703.5 849q-109.5 0 -172 -69t-62.5 -162t62.5 -161.5t171.5 -68.5t172 69.5t63 160.5q0 92 -62.5 161.5t-172 69.5z" glyph-name="nine.oldstyle" horiz-adv-x="1406"/><glyph d="M1378 717q1 -360 -165.5 -547.5t-453.5 -187.5q-286 0 -453 187t-167 548q0 355 166.5 545t453.5 190t453 -190t166 -545zM759 269q221 0 221 448q0 96 -12 174.5t-37 141.5t-69 97t-103.5 34t-103.5 -34t-69 -97t-36.5 -141.5t-11.5 -174.5q0 -448 221 -448z" glyph-name="zero.tnum" horiz-adv-x="1518"/><glyph d="M954 297h351v-297h-1091v297h350v806q-138 -96 -271 -134v331q140 27 268 134h393v-1137z" glyph-name="one.tnum" horiz-adv-x="1518"/><glyph d="M1370 297v-297h-1220v297q133 82 226.5 142.5t205.5 141.5t181.5 145t116.5 132.5t47 124.5q0 75 -53 124t-144 50q-219 2 -412 -111l-135 253q144 79 275.5 116.5t286.5 37.5q283 0 440 -109.5t157 -288.5q0 -96 -40.5 -191.5t-87 -160t-148.5 -152.5t-153.5 -125.5 t-174.5 -122.5q-5 -4 -8 -6h640z" glyph-name="two.tnum" horiz-adv-x="1518"/><glyph d="M213 1434h1099v-297l-419 -302q93 -11 166 -33q156 -45 238.5 -144.5t79.5 -249.5q-3 -214 -170 -323t-441 -103q-195 4 -329 34.5t-297 113.5l155 268q80 -53 216 -88.5t250 -33.5q98 1 162.5 36t66.5 100q3 80 -78 136.5t-216 56.5q-153 0 -237 -17l-78 260l484 289 h-652v297z" glyph-name="three.tnum" horiz-adv-x="1518"/><glyph d="M1419 611v-296h-220v-315h-390v315h-706v296l647 823h449v-823h220zM465 611h344v455z" glyph-name="four.tnum" horiz-adv-x="1518"/><glyph d="M287 1434h1007v-297h-669l-21 -234q88 10 191 7t177 -17q189 -41 298.5 -161.5t107.5 -295.5q-1 -119 -47 -208.5t-128.5 -143t-192 -80t-244.5 -22.5q-195 4 -329 34.5t-296 113.5l155 268q79 -52 214.5 -87t251.5 -35q101 1 164 40.5t65 123.5q1 61 -61.5 113.5 t-155 80.5t-187.5 28q-120 0 -262 -25l-77 88z" glyph-name="five.tnum" horiz-adv-x="1518"/><glyph d="M1384 469q0 -123 -54 -218.5t-145 -152t-199 -85t-226 -28.5q-93 0 -181.5 17t-169.5 55t-141.5 93.5t-97 137.5t-36.5 181q0 46 4 78.5t23.5 79t39 81t73 113t100.5 144t145 204.5t188 266h460l-374 -536q139 40 264 9q146 -35 236.5 -153t90.5 -286zM760 239 q109 0 171.5 69t62.5 161q0 93 -62.5 161t-172 68t-172.5 -69t-63 -160q1 -92 63.5 -161t172.5 -69z" glyph-name="six.tnum" horiz-adv-x="1518"/><glyph d="M220 1434h1078v-297q-208 -262 -339.5 -536.5t-175.5 -600.5h-407q45 332 170.5 608t326.5 529h-653v297z" glyph-name="seven.tnum" horiz-adv-x="1518"/><glyph d="M1379 403q0 -108 -50 -190.5t-138 -131.5t-197 -73.5t-235 -24.5q-125 0 -234 24.5t-196.5 73.5t-138.5 132t-51 190q0 117 63.5 202t172.5 136q-158 109 -158 299q0 82 29.5 149.5t81 115t121 80t148 48t162.5 15.5q106 0 202 -25t172.5 -73t122.5 -128t46 -182 q1 -190 -157 -299q108 -52 171 -137t63 -201zM557 1023q0 -72 53 -117.5t149 -45.5q97 0 150 45.5t53 117.5q0 73 -52 118t-151.5 45t-150.5 -45t-51 -118zM758.5 246q109.5 0 169.5 48t60 127q0 78 -60 127t-169.5 49t-169 -49t-59.5 -127q0 -79 59.5 -127t169 -48z" glyph-name="eight.tnum" horiz-adv-x="1518"/><glyph d="M134 968q0 99 36 181t96.5 137t141.5 93.5t169.5 55.5t181.5 17t181 -17t169.5 -55.5t142 -93.5t96.5 -137t36 -181q0 -45 -4 -78t-23.5 -79.5t-39 -81t-72.5 -113t-100 -143.5t-146 -204.5t-187 -266.5h-461l375 536q-142 -39 -264 -10q-146 35 -237 153.5t-91 286.5z M758.5 1198q-109.5 0 -172 -68.5t-62.5 -162t62.5 -161.5t172 -68t172.5 69.5t63 160.5q-1 93 -63.5 161.5t-172 68.5z" glyph-name="nine.tnum" horiz-adv-x="1518"/><glyph d="M1318 717q1 -360 -166.5 -547.5t-454.5 -187.5q-286 0 -452 187t-166 548q0 355 166 545t452 190q288 0 454.5 -190t166.5 -545zM697 1164q-59 0 -102.5 -34t-68.5 -97t-37 -141.5t-12 -174.5q0 -104 11 -180l342 564q-52 63 -133 63zM697 269q222 0 223 448 q0 131 -21 226l-354 -585q53 -89 152 -89z" glyph-name="zero.zero" horiz-adv-x="1396"/><glyph d="M817 430q1 -216 -99.5 -328.5t-272.5 -112.5q-171 0 -271 112t-100 329q0 213 99.5 327t271.5 114t272 -114t100 -327zM445 164q130 0 130 266t-130 266t-130 -266t130 -266z" glyph-name="zero.dnom" horiz-adv-x="890"/><glyph d="M519 180h208v-180h-653v180h209v478q-85 -58 -162 -79v201q81 15 160 80h238v-680z" glyph-name="one.dnom" horiz-adv-x="800"/><glyph d="M806 180v-180h-732v180q80 49 135.5 85.5t122.5 84.5t108 86.5t69.5 79.5t28.5 75q0 45 -31.5 73.5t-85.5 29.5q-131 2 -246 -66l-83 154q87 47 166 69.5t172 22.5q171 0 265.5 -66t94.5 -174q0 -42 -12.5 -83.5t-29.5 -74t-49.5 -70t-57.5 -61.5t-71 -59.5t-69.5 -53 t-73.5 -52.5h379z" glyph-name="two.dnom" horiz-adv-x="879"/><glyph d="M117 862h659v-180l-251 -181q62 -7 100 -19q196 -57 192 -237q-1 -129 -101 -194.5t-265 -62.5q-116 2 -197.5 21.5t-179.5 69.5l95 163q48 -32 129.5 -54t148.5 -20q58 1 96 21t39 59q2 47 -45.5 80t-128.5 33q-92 0 -144 -11l-48 162l289 170h-388v180z" glyph-name="three.dnom" horiz-adv-x="890"/><glyph d="M848 368v-181h-131v-187h-236v187h-407v181l371 492h272v-492h131zM295 368h186v269z" glyph-name="four.dnom" horiz-adv-x="921"/><glyph d="M154 860h611v-180h-407l-11 -138q119 14 225 -6q114 -25 179.5 -96t64.5 -178q-2 -141 -101.5 -208.5t-265.5 -64.5q-117 2 -197.5 21t-177.5 68l94 164q46 -32 127 -52.5t151 -20.5q131 0 135 95q1 54 -78 92t-170 38q-72 0 -158 -14l-46 52z" glyph-name="five.dnom" horiz-adv-x="888"/><glyph d="M823 293q0 -74 -32 -132t-87 -91t-120 -50.5t-135.5 -17.5t-135.5 17.5t-119.5 50.5t-87 91t-32.5 132q0 25 3 43.5t7 36.5t19 44.5t27.5 48.5t44.5 67.5t58.5 83t80.5 113.5t100 142h279l-224 -321q85 25 158 5q88 -20 142 -91.5t54 -171.5zM448.5 157q64.5 0 101.5 41 t37 95t-37 94.5t-101.5 40.5t-101.5 -41t-37 -94q1 -54 37.5 -95t101 -41z" glyph-name="six.dnom" horiz-adv-x="897"/><glyph d="M74 860h647v-180q-126 -158 -205 -321.5t-104 -358.5h-248q49 362 296 680h-386v180z" glyph-name="seven.dnom" horiz-adv-x="794"/><glyph d="M817 242q0 -65 -30 -114.5t-83 -79t-118 -44t-140.5 -14.5t-140.5 14.5t-118 44t-83 79t-30 114.5q0 136 141 203q-95 66 -95 179q0 119 95 181.5t230.5 62.5t230.5 -63t95 -181q0 -114 -94 -179q140 -70 140 -203zM328 613q0 -42 30.5 -69t87 -27t87 27t30.5 69 q0 43 -29.5 70t-88 27t-88 -27t-29.5 -70zM445.5 150q64.5 0 99.5 28t35 74t-35 75t-99.5 29t-99.5 -29t-35 -75t35 -74t99.5 -28z" glyph-name="eight.dnom" horiz-adv-x="890"/><glyph d="M74 581q0 74 32 131.5t87 91t120 50.5t135.5 17t135.5 -17t119.5 -50.5t87 -91.5t32.5 -131q0 -25 -3 -44t-7 -37t-19 -44.5t-27.5 -48.5t-44.5 -67t-58.5 -83t-80.5 -113.5t-100 -142.5h-279l224 322q-85 -25 -158 -6q-88 20 -142 92t-54 172zM448.5 717 q-64.5 0 -101.5 -41t-37 -95.5t37 -95t101.5 -40.5t101.5 41t37 95q-1 54 -37.5 95t-101 41z" glyph-name="nine.dnom" horiz-adv-x="897"/><glyph d="M817 1002q1 -216 -99.5 -328.5t-272.5 -112.5q-171 0 -271 112t-100 329q0 213 99.5 327.5t271.5 114.5t272 -114.5t100 -327.5zM445 736q130 0 130 266.5t-130 266.5t-130 -266.5t130 -266.5z" glyph-name="zero.numr" horiz-adv-x="890"/><glyph d="M519 754h208v-181h-653v181h209v478q-85 -58 -162 -80v202q81 15 160 80h238v-680z" glyph-name="one.numr" horiz-adv-x="800"/><glyph d="M806 740v-180h-732v180q80 49 135.5 85.5t122.5 84.5t108 86.5t69.5 79.5t28.5 75q0 45 -31.5 73.5t-85.5 29.5q-131 2 -246 -66l-83 154q87 47 166 70t172 23q171 0 265.5 -66t94.5 -175q0 -42 -12.5 -83.5t-29.5 -73.5t-49.5 -70t-57.5 -62t-71 -59.5t-69.5 -53 t-73.5 -52.5h379z" glyph-name="two.numr" horiz-adv-x="879"/><glyph d="M117 1434h659v-181l-251 -181q62 -7 100 -18q196 -57 192 -238q-1 -129 -101 -194.5t-265 -62.5q-116 2 -197.5 21.5t-179.5 69.5l95 163q48 -32 129.5 -54t148.5 -20q58 1 96 21t39 59q2 47 -45.5 80.5t-128.5 33.5q-92 0 -144 -11l-48 161l289 170h-388v181z" glyph-name="three.numr" horiz-adv-x="890"/><glyph d="M848 941v-180h-131v-188h-236v188h-407v180l371 493h272v-493h131zM295 941h186v269z" glyph-name="four.numr" horiz-adv-x="921"/><glyph d="M154 1434h611v-181h-407l-11 -138q119 14 225 -6q114 -25 179.5 -96t64.5 -177q-2 -141 -101.5 -209t-265.5 -65q-117 2 -197.5 21t-177.5 68l94 164q46 -32 127 -52.5t151 -20.5q131 0 135 96q1 54 -78 92t-170 38q-72 0 -158 -15l-46 53z" glyph-name="five.numr" horiz-adv-x="888"/><glyph d="M823 855q0 -74 -32 -131.5t-87 -91t-120 -51t-135.5 -17.5t-135.5 17.5t-119.5 51t-87 91t-32.5 131.5q0 25 3 44t7 36.5t19 44.5t27.5 49t44.5 67t58.5 83t80.5 113.5t100 142.5h279l-224 -322q85 25 158 5q88 -20 142 -91.5t54 -171.5zM448.5 719q64.5 0 101.5 41 t37 95t-37 94.5t-101.5 40.5t-101.5 -41t-37 -94q1 -54 37.5 -95t101 -41z" glyph-name="six.numr" horiz-adv-x="897"/><glyph d="M74 1434h647v-181q-126 -158 -205 -321.5t-104 -358.5h-248q49 362 296 680h-386v181z" glyph-name="seven.numr" horiz-adv-x="794"/><glyph d="M817 815q0 -65 -30 -114.5t-83 -78.5t-118 -44t-140.5 -15t-140.5 15t-118 44t-83 79t-30 114q0 136 141 204q-95 66 -95 178q0 119 95 182t230.5 63t230.5 -63t95 -182q0 -114 -94 -178q140 -71 140 -204zM328 1187q0 -42 30.5 -69t87 -27t87 27t30.5 69 q0 43 -29.5 69.5t-88 26.5t-88 -26.5t-29.5 -69.5zM445.5 723q64.5 0 99.5 28t35 74t-35 75.5t-99.5 29.5t-99.5 -29.5t-35 -75.5t35 -74t99.5 -28z" glyph-name="eight.numr" horiz-adv-x="890"/><glyph d="M74 1151q0 74 32 131.5t87 91t120 51t135.5 17.5t135.5 -17.5t119.5 -51t87 -91t32.5 -131.5q0 -25 -3 -43.5t-7 -36.5t-19 -45t-27.5 -49t-44.5 -67t-58.5 -82.5t-80.5 -113.5t-100 -143h-279l224 322q-85 -25 -158 -5q-88 20 -142 91.5t-54 171.5zM448.5 1287 q-64.5 0 -101.5 -41t-37 -95t37 -94.5t101.5 -40.5t101.5 41t37 94q-1 54 -37.5 95t-101 41z" glyph-name="nine.numr" horiz-adv-x="897"/><glyph d="M140 998h648v-563h-648v563z" glyph-name="bullet.aalt" horiz-adv-x="927"/><glyph d="M362 -315q-223 505 -222.5 1027t222.5 1021h360q-190 -461 -189 -1017.5t189 -1030.5h-360z" glyph-name="parenleft.aalt" horiz-adv-x="862"/><glyph d="M500 -315h-360q189 474 190.5 1030.5t-190.5 1017.5h360q222 -499 222.5 -1021t-222.5 -1027z" glyph-name="parenright.aalt" horiz-adv-x="862"/><glyph d="M686 -286q-186 0 -282.5 93t-96.5 289v344q0 136 -167 142v262q167 5 167 140v345q0 197 96.5 289.5t282.5 92.5h221v-262h-76q-75 0 -104.5 -34.5t-29.5 -112.5v-387q0 -88 -53 -142t-172 -58v-4q119 -4 172 -59t53 -143v-385q0 -79 30 -113.5t104 -34.5h76v-262h-221z " glyph-name="braceleft.aalt" horiz-adv-x="1047"/><glyph d="M361 -286h-221v262h76q75 0 104.5 34.5t29.5 113.5v385q0 88 53.5 143t170.5 59v4q-118 4 -171 58t-53 142v387q0 79 -29.5 113t-104.5 34h-76v262h221q379 0 379 -382v-345q0 -135 167 -140v-262q-167 -5 -167 -142v-344q0 -382 -379 -382z" glyph-name="braceright.aalt" horiz-adv-x="1047"/><glyph d="M140 1708h676v-262h-286v-1458h286v-262h-676v1982z" glyph-name="bracketleft.aalt" horiz-adv-x="955"/><glyph d="M816 1708v-1982h-676v262h285v1458h-285v262h676z" glyph-name="bracketright.aalt" horiz-adv-x="955"/><glyph d="M140 865h580v-297h-580v297z" glyph-name="hyphen.aalt" horiz-adv-x="860"/><glyph d="M140 865h1007v-297h-1007v297z" glyph-name="endash.aalt" horiz-adv-x="1287"/><glyph d="M140 865h1468v-297h-1468v297z" glyph-name="emdash.aalt" horiz-adv-x="1747"/><glyph d="M873 1079l-337 -384l337 -384h-395l-338 384l338 384h395zM1490 1079l-338 -384l338 -384h-395l-338 384l338 384h395z" glyph-name="guillemotleft.aalt" horiz-adv-x="1629"/><glyph d="M140 1079h396l337 -384l-337 -384h-396l338 384zM757 1079h395l338 -384l-338 -384h-395l338 384z" glyph-name="guillemotright.aalt" horiz-adv-x="1629"/><glyph d="M873 1079l-337 -384l337 -384h-395l-338 384l338 384h395z" glyph-name="guilsinglleft.aalt" horiz-adv-x="1012"/><glyph d="M140 1079h396l337 -384l-337 -384h-396l338 384z" glyph-name="guilsinglright.aalt" horiz-adv-x="1012"/><glyph d="M1542 609q-37 -178 -166 -326l290 -283h-431l-102 102q-207 -120 -442 -119q-285 0 -450.5 113.5t-166.5 304.5q-1 146 91 253t258 143q-53 27 -91.5 65t-58 81t-28 83.5t-8.5 82.5q1 158 142 251t376 93q148 0 267 -40t190.5 -120t71.5 -186q0 -116 -101.5 -210 t-283.5 -159l269 -257q56 91 72 205zM775 1218q-73 0 -118.5 -36t-46.5 -88q0 -42 27 -82t102 -118q95 37 147.5 88.5t52.5 107.5q0 59 -46 93.5t-118 34.5zM726 232q118 0 215 59l-347 339q-139 -66 -139 -197q0 -87 74.5 -144t196.5 -57z" glyph-name="ampersand.aalt" horiz-adv-x="1739"/><glyph d="M-943 1782h346v-263h-346v263zM-484 1782h345v-263h-345v263z" glyph-name="uni0308.aalt"/><glyph d="M-485 1782h346v-263h-346v263z" glyph-name="uni0307.aalt"/><glyph d="M-696 1826h360l196 -307h-290z" glyph-name="gravecomb.aalt"/><glyph d="M-140 1826l-267 -307h-289l194 307h362z" glyph-name="acutecomb.aalt"/><glyph d="M-475 1843l-164 -341h-249l161 341h252zM-140 1843l-164 -341h-250l161 341h253z" glyph-name="uni030B.aalt"/><glyph d="M-140 1502h-290l-141 206l-142 -206h-289l228 307h404z" glyph-name="uni0302.aalt"/><glyph d="M-430 1757h290l-230 -307h-404l-228 307h289l142 -206z" glyph-name="uni030C.aalt"/><glyph d="M-140 1794q-27 -136 -122 -214t-235 -78t-235 78t-122 214h228q8 -50 41.5 -80.5t87.5 -30.5q52 0 86 31t42 80h229z" glyph-name="uni0306.aalt"/><glyph d="M-402 1502q-108 0 -185 77t-77 184q0 109 77 185.5t185 76.5q109 0 185.5 -76.5t76.5 -185.5q0 -108 -76.5 -184.5t-185.5 -76.5zM-402.5 1678q34.5 0 60.5 25.5t26 60t-25.5 60t-60.5 25.5t-60 -25.5t-25 -60t25 -60t59.5 -25.5z" glyph-name="uni030A.aalt"/><glyph d="M-898 1502q-1 136 61.5 204.5t156.5 68.5q62 0 156.5 -38t133.5 -38q60 0 62 75h188q0 -137 -62.5 -205t-155.5 -68q-59 0 -154 38t-134 38q-61 0 -65 -75h-187z" glyph-name="tildecomb.aalt"/><glyph d="M-729 1721h589v-219h-589v219z" glyph-name="uni0304.aalt"/><glyph d="M-173 1568h-310l110 485h274z" glyph-name="uni0312.aalt"/><glyph d="M-140 1487q-27 -136 -122 -214t-235 -78t-235 78t-122 214h228q8 -50 41.5 -80.5t87.5 -30.5q52 0 86 31t42 80h229z" glyph-name="glyph666"/><glyph d="M795.5 0q-194.5 0 -359.5 96.5t-261 261t-96 359t96 359.5t261 261.5t359.5 96.5t359.5 -96.5t261 -261.5t96 -359.5t-96 -359t-261 -261t-359.5 -96.5zM1185 977l-163 32v-420q0 -11 -13 -20t-32 -9q-17 0 -30 9t-13 20v322h-538l-30 -135h138v-337h162v337h104v-220 q0 -53 61 -91.5t146 -38.5q86 0 147 38t61 92v421z" glyph-name="glyph667" horiz-adv-x="1591"/></font>
</defs>
</svg>
