<svg width="174" height="50" viewBox="0 0 174 50" fill="none" xmlns="http://www.w3.org/2000/svg">
<path d="M66.215 25.1446V19.7641C64.179 19.0809 61.5215 18.6966 58.7141 18.6966C52.3062 18.6966 45.6411 22.3476 45.6411 30.397C45.6411 38.4463 52.3062 42.076 58.7141 42.076C61.5215 42.076 64.179 41.713 66.215 41.0298V35.6493C64.4576 36.4393 62.0573 36.8877 59.657 36.6955C56.078 36.3966 53.8063 33.9839 53.8063 30.397C53.8063 26.81 56.078 24.376 59.657 24.0984C62.0573 23.9062 64.4576 24.3546 66.215 25.1446Z" fill="#7800FF"/>
<path d="M94.8087 30.397C94.8087 22.3476 88.1437 18.6966 81.7358 18.6966C75.3279 18.6966 68.6628 22.3476 68.6628 30.397C68.6628 38.6598 75.4136 42.076 81.7358 42.076C88.0579 42.076 94.8516 38.6598 94.8087 30.397ZM81.7358 36.7809C78.5211 36.7809 76.828 34.0053 76.828 30.397C76.828 26.81 78.4997 23.9916 81.7358 23.9916C84.9719 23.9916 86.6435 26.81 86.6435 30.397C86.6435 34.0053 84.9504 36.7809 81.7358 36.7809Z" fill="#7800FF"/>
<path d="M106.709 41.6917L106.73 27.9629C107.673 25.5503 109.902 24.3546 111.788 24.3546C114.103 24.3546 114.896 26.0627 114.896 29.671V41.6917H123.061V27.5573C123.061 21.3441 121.111 18.6966 115.774 18.6966C112.11 18.6966 109.045 19.6147 106.73 22.3476V19.1022H98.5652V41.6917H106.709Z" fill="#7800FF"/>
<path d="M143.324 41.6917V36.5674H139.724C138.438 36.5674 137.623 35.7561 137.623 34.3469V24.5681H143.324V19.1022H137.623V14.7466H129.458V19.1022H126.008V24.5681H129.458V36.7169C129.458 39.5139 131.558 41.6917 134.302 41.6917H143.324Z" fill="#7800FF"/>
<path d="M165.363 19.1022L160.134 33.7277L155.376 19.1022H146.697L155.248 41.0084C154.841 43.9976 152.762 45.3214 148.776 44.8089L149.118 49.9118C159.213 50.7659 163.027 45.236 164.806 41.0298L174 19.1022H165.363Z" fill="#7800FF"/>
<path d="M14.5433 42.0721L14.6176 42.183H14.7511H15.0844H15.3144L15.3336 41.9539C15.418 40.9441 15.4188 39.9258 15.2477 38.9028C15.0792 37.8959 14.825 36.8778 14.3971 35.9386C13.6343 34.0825 12.4513 32.3169 11.104 30.8068L11.1041 30.8067L11.0992 30.8016C9.74915 29.3725 8.15026 28.116 6.47676 26.9489L6.47279 26.9461C5.64214 26.3668 4.80276 25.7815 3.96182 25.2788L3.96184 25.2788L3.95874 25.277L1.3752 23.7824L1.18349 23.6715L1.05029 23.8485L0.80027 24.1806L0.713024 24.2965L0.770348 24.4298C1.78376 26.7856 3.05069 28.4671 4.21987 29.9647L4.21976 29.9648L4.22517 29.9713C5.47753 31.4685 6.64727 32.8004 7.73433 33.9667C8.81815 35.1295 9.89868 36.2889 10.9788 37.5305L10.9787 37.5307L10.985 37.5374C12.1421 38.7725 13.2171 40.0902 14.5433 42.0721Z" fill="#7800FF" stroke="#7800FF" stroke-width="0.5"/>
<path d="M25.7586 41.9088L25.8048 42.1001H26.0016H26.5016H26.7233L26.7498 41.88C26.9982 39.8178 27.4122 37.7552 27.992 35.6918C28.5724 33.7095 29.3188 31.6442 30.1477 29.7449L30.1484 29.7431C31.8058 25.8627 34.0455 22.2251 36.4578 18.7445C38.8695 15.2648 41.5268 11.8736 44.5128 8.89877C46.0065 7.4106 47.5794 6.00902 49.315 4.77392L49.315 4.77398L49.3197 4.7705C50.9692 3.53797 52.8688 2.468 54.7698 1.64455L54.9931 1.54782L54.9025 1.32199L54.7358 0.906851L54.6704 0.743915L54.4949 0.750158C52.1146 0.834851 49.9135 1.59689 47.7395 2.51323L47.7395 2.51321L47.7362 2.51463C45.6307 3.43761 43.6132 4.69443 41.767 6.11574L41.767 6.11572L41.7642 6.1179C38.0749 9.04163 35.0588 12.4646 32.5476 16.0504C29.9504 19.7231 27.8543 23.8153 26.5124 28.2439L26.5123 28.2439L26.5111 28.2481C25.2548 32.6706 24.6611 37.3674 25.7586 41.9088Z" fill="#7800FF" stroke="#7800FF" stroke-width="0.5"/>
<path d="M24.3347 21.8471L24.3347 21.8459C24.4215 17.9526 21.2074 15.2801 17.8343 15.2801C14.041 15.2801 11.0838 18.0375 11.0838 21.7573C11.0838 25.2217 14.1178 28.1514 17.5843 28.1514C21.4733 28.1514 24.2478 25.0512 24.3347 21.8471ZM21.5014 21.5819L21.5013 21.5819V21.5912C21.5013 23.8569 19.7005 25.5757 17.5009 25.5757C15.3944 25.5757 13.6673 23.7836 13.6673 21.6742C13.6673 19.5714 15.4713 17.7728 17.5843 17.7728C19.7928 17.7728 21.5789 19.498 21.5014 21.5819Z" fill="#7800FF" stroke="#7800FF" stroke-width="0.5"/>
</svg>
