<?xml version="1.0" standalone="no"?>
<!DOCTYPE svg PUBLIC "-//W3C//DTD SVG 1.1//EN" "http://www.w3.org/Graphics/SVG/1.1/DTD/svg11.dtd">
<svg xmlns="http://www.w3.org/2000/svg"><metadata>This SVG WebFont was generated by YouWorkForThem.
Copyright Â© 2019 by TypeUnion. All rights reserved.</metadata><defs><font horiz-adv-x="0" id="ywftsvg"><font-face ascent="1638" bbox="-772.024 -519 2493 2001" cap-height="1434" descent="-410" font-family="" font-stretch="normal" font-weight="200" panose-1="0 0 3 0 0 0 0 0 0 0" underline-position="0" underline-thickness="0" unicode-range="U+0020-FB02" units-per-em="2048" x-height="1123"/><missing-glyph d="M219 1434h870v-1434h-870v1434zM1030 55v1323h-752v-1323h752z" horiz-adv-x="1307"/><glyph d="M1207 1123v-1123h-64v1068h-720v-1068h-65v1068h-181v55h181v191q0 97 45.5 159.5t123.5 62.5h182v-54h-161q-59 0 -92 -47t-33 -129v-183h784zM1119 1434h111v-78h-111v78z" glyph-name="uniFB01" horiz-adv-x="1426" unicode="fi"/><glyph d="M1204 1536v-1536h-64v1482h-592q-59 0 -92 -47t-33 -129v-183h286v-55h-286v-1068h-65v1068h-181v55h181v191q0 97 45.5 159.5t123.5 62.5h677z" glyph-name="uniFB02" horiz-adv-x="1422" unicode="fl"/><glyph d="M1376 1482q-58 0 -91.5 -48t-33.5 -128v-183h287v-55h-287v-1068h-64v1068h-764v-1068h-65v1068h-181v55h181v191q0 97 45.5 159.5t123.5 62.5h182v-54h-161q-59 0 -92 -47t-33 -129v-183h764v191q0 97 45.5 159.5t124.5 62.5h181v-54h-162z" glyph-name="f_f.liga" horiz-adv-x="1755" unicode="ff"/><glyph d="M2039 1123v-1123h-65v1068h-723v-1068h-64v1068h-764v-1068h-65v1068h-181v55h181v191q0 97 45.5 159.5t123.5 62.5h182v-54h-161q-59 0 -92 -47t-33 -129v-183h764v191q0 97 45.5 159.5t124.5 62.5h181v-54h-162q-58 0 -91.5 -48t-33.5 -128v-183h788zM1952 1434h109 v-78h-109v78z" glyph-name="f_f_i.liga" horiz-adv-x="2257" unicode="ffi"/><glyph d="M219 1434h870v-1434h-870v1434zM1030 55v1323h-752v-1323h752z" glyph-name=".notdef" horiz-adv-x="1307"/><glyph glyph-name="glyph1"/><glyph glyph-name="glyph2" horiz-adv-x="681"/><glyph glyph-name="space" horiz-adv-x="505" unicode=" "/><glyph d="M250 310l-7 1124h64l-8 -1124h-49zM219 0v78h111v-78h-111z" glyph-name="exclam" horiz-adv-x="548" unicode="!"/><glyph d="M219 1530h63l-8 -424h-48zM384 1530h61l-7 -424h-48z" glyph-name="quotedbl" horiz-adv-x="664" unicode="&quot;"/><glyph d="M1048 975l-138 -516h298l-13 -56h-297l-107 -403h-68l107 403h-433l-107 -403h-68l108 403h-272l13 56h272l136 516h-297l13 55h298l106 404h68l-107 -404h433l107 404h67l-106 -404h271l-13 -55h-271zM980 975h-433l-136 -516h433z" glyph-name="numbersign" horiz-adv-x="1390" unicode="#"/><glyph d="M681 738q100 -28 167.5 -51t130 -56.5t98 -72t55.5 -91.5t19 -122q-2 -93 -70.5 -172t-174 -124.5t-226.5 -55.5v-161h-50v158h-14q-282 0 -456 123l1 71q174 -136 455 -136q114 0 221 38.5t177 108.5t71 153q1 46 -10 84t-31.5 66.5t-54 53.5t-70.5 43t-89 35.5 t-102.5 32.5t-116.5 32q-15 4 -23 6q-102 28 -175.5 59t-134.5 74t-91 100t-29 130q4 167 127.5 270t344.5 110v158h50v-157q189 -5 344 -98l-1 -69q-162 109 -360 108q-206 0 -321.5 -88.5t-117.5 -235.5q-1 -45 14 -83.5t47.5 -68.5t69 -53t95.5 -45t107.5 -38t123.5 -36z " glyph-name="dollar" horiz-adv-x="1309" unicode="$"/><glyph d="M805 1008q0 -216 -83.5 -326.5t-231.5 -110.5q-146 0 -229.5 110.5t-83.5 326.5t83.5 326t229.5 110q147 0 231 -110t84 -326zM1294 1434h57l-766 -1434h-56zM490 622q125 0 194 97.5t69 288t-69.5 288.5t-193 98t-192.5 -98t-69 -288.5t68.5 -288t192.5 -97.5zM1701 430 q0 -216 -83.5 -326t-231.5 -110q-146 0 -229.5 110t-83.5 326t83.5 326t229.5 110q147 0 231 -110t84 -326zM1386 44q125 0 194 98t69 288.5t-69.5 288t-193 97.5t-192.5 -97.5t-69 -288t68.5 -288.5t192.5 -98z" glyph-name="percent" horiz-adv-x="1878" unicode="%"/><glyph d="M1322 761h-103v-362q0 -103 -47 -184t-123.5 -128.5t-166.5 -72t-184.5 -24.5t-184 24.5t-166.5 72t-123.5 128.5t-46.5 184q0 79 27.5 146t76 114.5t107 80.5t126.5 52q-112 36 -184.5 115.5t-72.5 197.5q0 109 62.5 187t160.5 115t217.5 37t217.5 -37t160.5 -115.5 t62.5 -186.5l-64 -1q0 93 -53 159t-136.5 96t-187 30t-187 -30t-136.5 -96t-53 -159q0 -72 33.5 -128t89 -90t120.5 -51.5t133 -17.5h625v-56zM1152 400v361h-455q-84 0 -163 -23t-144.5 -66.5t-105.5 -114t-40 -157.5q0 -90 40 -160.5t106.5 -111.5t144.5 -62t162 -21 t162.5 21t145 62t107 111.5t40.5 160.5z" glyph-name="ampersand" horiz-adv-x="1499" unicode="&amp;"/><glyph d="M219 1530h63l-8 -424h-48z" glyph-name="quotesingle" horiz-adv-x="500" unicode="'"/><glyph d="M436 -462q-217 505 -216.5 1028t216.5 1020h62q-143 -340 -189.5 -681t1 -679t188.5 -688h-62z" glyph-name="parenleft" horiz-adv-x="716" unicode="("/><glyph d="M281 -462h-62q140 350 188 688t1.5 679t-189.5 681h62q216 -498 216.5 -1020.5t-216.5 -1027.5z" glyph-name="parenright" horiz-adv-x="716" unicode=")"/><glyph d="M694 1238l-218 -98l158 -192l-41 -32l-158 192l-157 -192l-40 32l157 192l-218 98l21 46l212 -96v246h51v-246l213 96z" glyph-name="asterisk" horiz-adv-x="870" unicode="*"/><glyph d="M1051 744v-55h-384v-386h-65v386h-383v55h383v386h65v-386h384z" glyph-name="plus" horiz-adv-x="1269" unicode="+"/><glyph d="M268 99h74l-76 -423h-52z" glyph-name="comma" horiz-adv-x="561" unicode=","/><glyph d="M219 591h422v-59h-422v59z" glyph-name="hyphen" horiz-adv-x="860" unicode="-"/><glyph d="M219 102h111v-102h-111v102z" glyph-name="period" horiz-adv-x="548" unicode="."/><glyph d="M639 1434l-454 -1434h-66l453 1434h67z" glyph-name="slash" horiz-adv-x="756" unicode="/"/><glyph d="M1204 717q0 -360 -138.5 -544t-384.5 -184q-245 0 -384 184t-139 543.5t138.5 544t384.5 184.5t384.5 -184.5t138.5 -543.5zM681 47q217 0 337.5 169.5t120.5 500.5t-120.5 500t-337.5 169t-337.5 -169t-120.5 -500t120.5 -500.5t337.5 -169.5z" glyph-name="zero" horiz-adv-x="1361" unicode="0"/><glyph d="M642 58h357v-58h-780v58h359v1313q-151 -73 -297 -113v63q157 42 297 113h64v-1376z" glyph-name="one" horiz-adv-x="1219" unicode="1"/><glyph d="M1186 58v-58h-1028v58q70 62 187.5 159.5t210.5 173.5t199.5 173.5t177.5 176t118.5 163.5t47.5 155q0 148 -113.5 237.5t-319.5 89.5q-230 0 -405 -140l-37 46q193 153 444 153q237 0 367 -104t130 -277q0 -78 -47.5 -169t-117 -172.5t-175 -179t-195 -170.5t-204 -166 t-176.5 -149h936z" glyph-name="two" horiz-adv-x="1343" unicode="2"/><glyph d="M196 1434h921v-59l-595 -576q84 22 179 19q208 -3 336 -112t128 -296q-1 -203 -130.5 -312t-381.5 -109q-140 1 -270 39.5t-225 112.5l39 47q84 -69 206.5 -105.5t248.5 -35.5q223 1 336 95t113 269q0 165 -117.5 260.5t-306.5 95.5q-145 0 -250 -53l-36 46l642 615h-837 v59z" glyph-name="three" horiz-adv-x="1323" unicode="3"/><glyph d="M1292 461v-59h-288v-402h-65v402h-720v59l711 973h74v-973h288zM291 461h648v891z" glyph-name="four" horiz-adv-x="1511" unicode="4"/><glyph d="M273 1434h802v-59h-742l-43 -567q193 47 409 45q207 -3 336.5 -113t129.5 -309q-1 -217 -130 -329.5t-382 -112.5q-140 1 -270 39.5t-225 112.5l39 47q84 -69 206.5 -105.5t248.5 -35.5q449 3 449 385q0 172 -118.5 269.5t-308.5 97.5q-205 0 -419 -48l-30 24z" glyph-name="five" horiz-adv-x="1323" unicode="5"/><glyph d="M1257 484.5q0 -98.5 -31.5 -181.5t-85.5 -140t-125 -96.5t-148 -58t-158 -18.5t-159.5 18.5t-149.5 58t-125 96.5t-85.5 140t-31.5 181q0 41 2.5 71.5t14 66.5t23 61.5t42.5 72t58 80.5t84.5 104t107.5 127t140.5 164.5t170.5 202.5h82l-442 -521q131 65 287 62 q78 -1 152.5 -19.5t143.5 -57.5t120.5 -95.5t82 -138t30.5 -180zM708.5 45q92.5 0 177 27t154 79t111.5 138.5t42 194.5q0 89 -28 163.5t-75 124.5t-109.5 84.5t-131 50.5t-140.5 16t-141.5 -17.5t-132 -54t-110 -87.5t-75.5 -123.5t-28 -156.5q0 -109 42.5 -195t112 -138 t154.5 -79t177.5 -27z" glyph-name="six" horiz-adv-x="1415" unicode="6"/><glyph d="M158 1434h907v-59q-459 -584 -580 -1375h-66q123 803 572 1375h-833v59z" glyph-name="seven" horiz-adv-x="1222" unicode="7"/><glyph d="M1199 399q0 -83 -30.5 -152t-82 -116t-119.5 -79.5t-141 -47t-148 -14.5t-147 14.5t-140 47t-119.5 79.5t-82.5 116t-31 152q0 79 27.5 146t76 114.5t107.5 80.5t127 52q-112 35 -184.5 115t-72.5 198q0 109 62.5 187t159.5 115t217 37t218 -37t160.5 -115.5t62.5 -186.5 q1 -118 -72 -198t-185 -115q68 -18 127 -51.5t107 -81t75.5 -114.5t27.5 -146zM302 1104q0 -72 34 -128t89 -90t119.5 -51.5t133.5 -17.5q93 0 176.5 29.5t142.5 96.5t59 161q0 93 -53.5 159t-137 96t-187.5 30q-103 0 -186 -30t-136.5 -96t-53.5 -159zM677.5 45 q66.5 0 130 13t123 40.5t104 68t71.5 101t27 132.5q0 87 -40 157.5t-105.5 114t-145.5 66.5t-164 23q-83 0 -162.5 -23t-145 -66.5t-106 -114t-40.5 -157.5q0 -73 27 -133t71.5 -100.5t103.5 -68t122 -40.5t129.5 -13z" glyph-name="eight" horiz-adv-x="1357" unicode="8"/><glyph d="M158 949q0 98 31.5 181t85.5 140t125 97.5t149 59t158.5 18.5t158.5 -18.5t149 -59t125 -97.5t85.5 -139.5t31.5 -181.5q0 -41 -2.5 -71t-14 -66.5t-23 -61.5t-42.5 -71.5t-57.5 -81t-84.5 -104t-107.5 -127t-140.5 -165t-171 -201.5h-82l443 520q-129 -63 -288 -61 q-98 1 -189.5 31t-169 87.5t-124 153.5t-46.5 218zM707.5 1390q-92.5 0 -177 -27.5t-154.5 -79.5t-112 -138.5t-42 -195.5q0 -89 28.5 -163t75 -124.5t109.5 -84.5t131.5 -50t141.5 -16q72 0 141 17.5t131.5 53.5t110 87.5t75 123.5t27.5 156q0 109 -42 195.5t-112 138.5 t-154.5 79.5t-177 27.5z" glyph-name="nine" horiz-adv-x="1415" unicode="9"/><glyph d="M219 1123h111v-102h-111v102zM219 102h111v-102h-111v102z" glyph-name="colon" horiz-adv-x="548" unicode=":"/><glyph d="M219 1123h111v-102h-111v102zM239 99h73l-75 -423h-53z" glyph-name="semicolon" horiz-adv-x="548" unicode=";"/><glyph d="M1093 933v-63l-805 -235l805 -237v-62l-874 256v85z" glyph-name="less" horiz-adv-x="1311" unicode="&lt;"/><glyph d="M1051 851h-832v56h832v-56zM1051 526h-832v57h832v-57z" glyph-name="equal" horiz-adv-x="1269" unicode="="/><glyph d="M219 933l874 -256v-85l-874 -256v62l805 237l-805 235v63z" glyph-name="greater" horiz-adv-x="1311" unicode=">"/><glyph d="M493 1434q220 0 349 -111t129 -309q0 -188 -108.5 -297.5t-285.5 -111.5q-46 -2 -90 3l-4 -297h-52l-7 361q58 -15 129 -16q161 0 257.5 95.5t95.5 260.5q0 172 -111 267.5t-302 95.5q-189 0 -335 -87v67q139 79 335 79zM403 0v78h111v-78h-111z" glyph-name="question" horiz-adv-x="1129" unicode="?"/><glyph d="M1294 -72q-163 -80 -350 -80q-161 0 -306.5 61.5t-250.5 166.5t-167 250.5t-62 306.5q0 213 104.5 393t285 285t395.5 105q161 0 306.5 -61.5t250.5 -166t167 -248t62 -303.5q0 -219 -73 -324.5t-205 -105.5q-105 0 -166.5 65.5t-62.5 183.5q-41 -105 -129.5 -159 t-193.5 -54q-70 0 -132 23t-114 68.5t-82 122.5t-30 175q0 97 30 173.5t81 122.5t114 70t133 24q104 0 193 -55t130 -160l1 208h53v-561q0 -90 50.5 -141.5t127.5 -51.5q99 0 160 89t61 287t-97 364.5t-265.5 264.5t-369.5 98q-150 0 -285.5 -58t-233 -156t-155.5 -233.5 t-58 -283.5q0 -150 58 -286t156 -234t234 -155.5t285 -57.5q168 0 330 76zM1208 620v26q-5 157 -94 241.5t-211 84.5q-127 0 -215 -87.5t-89 -252.5q0 -86 25 -152t68.5 -106t97 -60t113.5 -20q59 0 111.5 18.5t96.5 56t70 102t27 149.5z" glyph-name="at" horiz-adv-x="1886" unicode="@"/><glyph d="M1234 0l-148 364h-810l-147 -364h-71l580 1434h87l580 -1434h-71zM300 422h763l-381 944z" glyph-name="A" horiz-adv-x="1362" unicode="A"/><glyph d="M219 1434h572q55 0 106.5 -14t98 -43.5t81 -72t55 -104t20.5 -135.5q0 -127 -55 -211.5t-145 -123.5q115 -28 188.5 -118t72.5 -240q0 -92 -31 -165.5t-83.5 -117.5t-116.5 -66.5t-135 -22.5h-628v1434zM287 1377v-632h493q61 0 114 17t97.5 52.5t69.5 98.5t25 148 q0 161 -87 238.5t-219 77.5h-493zM840 55q62 0 115.5 18t97.5 55t69 99.5t25 145.5q0 69 -17 123.5t-45.5 90t-68.5 59t-83.5 33.5t-92.5 10h-553v-633z" glyph-name="B" horiz-adv-x="1371" unicode="B"/><glyph d="M1204 1280q-163 106 -359 104q-93 0 -181.5 -26t-168 -80t-139.5 -131.5t-95.5 -188t-35.5 -241.5t35.5 -241.5t95.5 -188t139.5 -132t168 -80.5t181.5 -26q197 -2 359 105v-69q-164 -96 -359 -96q-103 0 -201.5 28t-186.5 87.5t-154.5 144t-105.5 205t-39 263t39 263.5 t105.5 205.5t154.5 144t186 87.5t202 28q196 0 359 -96v-69z" glyph-name="C" horiz-adv-x="1423" unicode="C"/><glyph d="M1368 717q0 -144 -35 -263t-96 -202.5t-148 -140.5t-188 -84t-216 -27h-466v1434h466q144 0 266.5 -44t216.5 -129.5t147 -225t53 -318.5zM682 58q131 0 242 40.5t196 120t133.5 207t48.5 291.5t-48.5 291.5t-133.5 206.5t-196 119.5t-242 40.5h-395v-1317h395z" glyph-name="D" horiz-adv-x="1526" unicode="D"/><glyph d="M287 58h898v-58h-966v1434h966v-59h-898v-630h816v-57h-816v-630z" glyph-name="E" horiz-adv-x="1404" unicode="E"/><glyph d="M287 0h-68v1434h925v-59h-857v-630h775v-57h-775v-688z" glyph-name="F" horiz-adv-x="1363" unicode="F"/><glyph d="M835 752h448v-617q-90 -70 -204.5 -108t-233.5 -38q-103 0 -201.5 28t-186.5 87.5t-154.5 144t-105.5 205t-39 263t39 263.5t105.5 205.5t154.5 144t186 87.5t202 28q194 0 359 -96v-67q-163 106 -359 104q-117 0 -225.5 -42t-197.5 -122.5t-143 -211t-54 -293.5 t54 -293.5t143 -211t197.5 -123t225.5 -42.5q99 0 209 37t167 87v524h-386v57z" glyph-name="G" horiz-adv-x="1502" unicode="G"/><glyph d="M1181 1434h67v-1434h-67v688h-894v-688h-68v1434h68v-689h894v689z" glyph-name="H" horiz-adv-x="1467" unicode="H"/><glyph d="M287 0h-68v1434h68v-1434z" glyph-name="I" horiz-adv-x="505" unicode="I"/><glyph d="M219 85q96 -39 231 -37q272 1 272 367v1019h66v-1020q0 -425 -336 -425q-136 0 -233 34v62z" glyph-name="J" horiz-adv-x="1008" unicode="J"/><glyph d="M1168 1434l-795 -715l795 -719h-88l-793 716v-716h-68v1434h68v-712l793 712h88z" glyph-name="K" horiz-adv-x="1265" unicode="K"/><glyph d="M287 1434v-1376h857v-58h-925v1434h68z" glyph-name="L" horiz-adv-x="1319" unicode="L"/><glyph d="M1506 1434h103v-1434h-68v1359l-591 -1159h-72l-591 1159v-1359h-68v1434h103l592 -1165z" glyph-name="M" horiz-adv-x="1827" unicode="M"/><glyph d="M1260 1434h66v-1434h-81l-958 1343v-1343h-68v1434h82l959 -1343v1343z" glyph-name="N" horiz-adv-x="1546" unicode="N"/><glyph d="M1532 716.5q0 -142.5 -39 -263t-105.5 -205t-154.5 -144t-186.5 -87.5t-202 -28t-201.5 28t-186 87.5t-154.5 144t-105.5 205t-39 263t39 263.5t105.5 205.5t154.5 144t186 87.5t201.5 28t202 -28t187 -87.5t154.5 -144t105 -205.5t39 -263.5zM845 47q93 0 181.5 26 t168.5 80.5t140 132.5t95 189t35 242t-35 242t-95 189t-140 132t-168.5 80t-181.5 26t-181.5 -26t-168 -80t-139.5 -132t-95.5 -189t-35.5 -242t35.5 -242t95.5 -189t139.5 -132.5t168 -80.5t181.5 -26z" glyph-name="O" horiz-adv-x="1689" unicode="O"/><glyph d="M773 1434q202 0 320.5 -111.5t118.5 -303.5q1 -243 -220.5 -353t-704.5 -111v-555h-68v1434h554zM1146 1019q0 170 -101 263.5t-274 93.5h-484v-764q456 0 657.5 97t201.5 310z" glyph-name="P" horiz-adv-x="1371" unicode="P"/><glyph d="M1532 717q0 -137 -36.5 -255t-99 -201.5t-146.5 -144t-177.5 -91t-193.5 -35.5q54 -109 133.5 -180.5t198.5 -121.5l-31 -47q-124 46 -218 136.5t-149 212.5q-126 5 -241 53.5t-209 136t-149.5 227t-55.5 310.5q0 142 39 263t105.5 205.5t154.5 144t186 87.5t201.5 28 t202 -28t187 -87.5t154.5 -144t105 -205.5t39 -263zM845 47q93 0 181.5 26t168.5 80.5t140 132.5t95 189t35 242t-35 242t-95 189t-140 132t-168.5 80t-181.5 26t-181.5 -26t-168 -80t-139.5 -132t-95.5 -189t-35.5 -242t35.5 -242t95.5 -189t139.5 -132.5t168 -80.5 t181.5 -26z" glyph-name="Q" horiz-adv-x="1689" unicode="Q"/><glyph d="M1218 0h-74l-366 596q-195 -41 -491 -41v-555h-68v1434h554q202 0 320.5 -111.5t118.5 -303.5q1 -158 -89.5 -257.5t-279.5 -150.5zM287 1376v-764q458 0 658.5 96.5t200.5 310.5q0 170 -101 263.5t-274 93.5h-484z" glyph-name="R" horiz-adv-x="1376" unicode="R"/><glyph d="M161 184q174 -136 455 -136q114 0 221 38.5t177 108.5t71 153q1 46 -10 84t-31.5 66.5t-54 53.5t-70.5 43t-89 35.5t-102.5 32.5t-116.5 32q-15 4 -23 6q-102 28 -175.5 59t-134.5 74t-91 100t-29 130q4 173 136 277t369 104q199 0 361 -98l-1 -69q-162 109 -360 108 q-206 0 -321.5 -88.5t-117.5 -235.5q-1 -45 14 -83.5t47.5 -68.5t69 -53t95.5 -45t107.5 -37.5t123.5 -36.5q100 -28 167.5 -51t130 -56.5t98 -72t55.5 -91.5t19 -122q-2 -101 -82 -184.5t-201.5 -127t-251.5 -43.5q-282 0 -456 123z" glyph-name="S" horiz-adv-x="1309" unicode="S"/><glyph d="M1046 1434v-59h-460v-1375h-67v1375h-461v59h988z" glyph-name="T" horiz-adv-x="1103" unicode="T"/><glyph d="M1217 1434v-906q0 -285 -117 -412t-382 -127q-264 0 -381.5 127.5t-117.5 411.5v906h68v-911q0 -253 98.5 -364.5t332 -111.5t333 111.5t99.5 364.5v911h67z" glyph-name="U" horiz-adv-x="1435" unicode="U"/><glyph d="M1228 1434h70l-576 -1434h-87l-577 1434h72l549 -1364z" glyph-name="V" horiz-adv-x="1356" unicode="V"/><glyph d="M1757 1434h71l-418 -1434h-79l-388 1332l-388 -1332h-79l-418 1434h71l388 -1340l389 1340h74l389 -1340z" glyph-name="W" horiz-adv-x="1886" unicode="W"/><glyph d="M1255 1434l-534 -716l536 -718h-78l-502 670l-501 -670h-80l538 718l-535 716h79l500 -668l499 668h78z" glyph-name="X" horiz-adv-x="1354" unicode="X"/><glyph d="M1102 1434h75l-526 -821v-613h-66v613l-527 821h76l483 -753z" glyph-name="Y" horiz-adv-x="1235" unicode="Y"/><glyph d="M1217 1434v-59l-915 -1317h915v-58h-998v58l915 1317h-915v59h998z" glyph-name="Z" horiz-adv-x="1435" unicode="Z"/><glyph d="M219 1522h434v-57h-369v-1807h369v-56h-434v1920z" glyph-name="bracketleft" horiz-adv-x="872" unicode="["/><glyph d="M119 1434h66l454 -1434h-67z" glyph-name="backslash" horiz-adv-x="756" unicode="\"/><glyph d="M653 1522v-1920h-434v56h370v1807h-370v57h434z" glyph-name="bracketright" horiz-adv-x="872" unicode="]"/><glyph d="M730 878h-62l-193 510l-192 -510h-64l212 556h89z" glyph-name="asciicircum" horiz-adv-x="949" unicode="^"/><glyph d="M219 -227h1434v-56h-1434v56z" glyph-name="underscore" horiz-adv-x="1872" unicode="_"/><glyph d="M219 1581h76l258 -307h-68z" glyph-name="grave" horiz-adv-x="772" unicode="`"/><glyph d="M683 1135q115 0 196.5 -21t141 -71.5t89 -137t29.5 -214.5v-691h-64l-1 183q-26 -32 -67 -63t-102.5 -62t-149 -50t-186.5 -19q-194 1 -293 77t-99 220q-1 120 58.5 193.5t173.5 104t281.5 36.5t383.5 -12v94q-5 140 -44 220t-122.5 117t-227.5 38q-93 1 -187.5 -22.5 t-160.5 -62.5v63q65 37 158.5 58.5t192.5 21.5zM1074 257v294q-278 18 -463.5 10t-278.5 -72t-93 -197q0 -130 88 -188t268 -58q88 0 169 20.5t140.5 53.5t101 67t68.5 70z" glyph-name="a" horiz-adv-x="1355" unicode="a"/><glyph d="M1278 562q0 -145 -44.5 -258.5t-120.5 -180.5t-167.5 -100.5t-192.5 -33.5q-155 0 -284.5 76.5t-190.5 232.5l-3 -298h-58v1536h65v-712q60 154 188 232.5t283 78.5q102 0 194 -35.5t167 -103.5t119.5 -180.5t44.5 -253.5zM749 44q91 0 172 30.5t148.5 91.5t106.5 163 t39 233q0 127 -38.5 228.5t-105 163t-149 93.5t-173.5 32q-88 0 -169 -31t-146.5 -91t-106 -157t-43.5 -218v-38q1 -129 41 -228t107 -157t147 -86.5t170 -28.5z" glyph-name="b" horiz-adv-x="1455" unicode="b"/><glyph d="M1055 992q-139 85 -326 84q-92 0 -177 -32t-155.5 -93t-112.5 -162t-42 -227q0 -102 27.5 -187.5t74.5 -145t110 -101.5t132.5 -61.5t142.5 -19.5q184 -1 326 84v-64q-138 -78 -329 -78q-102 0 -197.5 35t-175.5 103.5t-128 181t-48 253.5q0 114 32 209.5t85.5 161.5 t124 112.5t148.5 68t159 21.5q191 0 329 -77v-66z" glyph-name="c" horiz-adv-x="1231" unicode="c"/><glyph d="M177 562q0 141 44.5 253.5t119.5 180.5t167 103.5t194 35.5q155 0 283 -78.5t189 -232.5v712h64v-1536h-58l-2 298q-61 -156 -191 -232.5t-285 -76.5q-101 0 -192.5 33.5t-167.5 100.5t-120.5 180.5t-44.5 258.5zM707 44q90 0 169.5 28.5t147 86.5t107 157t40.5 228v38 q-3 122 -43.5 218.5t-106 156.5t-146 91t-168.5 31q-91 0 -173.5 -32t-149.5 -93.5t-105.5 -163t-38.5 -228.5q0 -131 39 -233t106.5 -163t149 -91.5t172.5 -30.5z" glyph-name="d" horiz-adv-x="1455" unicode="d"/><glyph d="M696 1135q81 0 159 -22.5t147 -70.5t119.5 -115t76 -163.5t14.5 -210.5h-971q1 -103 34 -190.5t86.5 -144.5t122.5 -97.5t140 -58.5t142 -18q185 0 325 84v-61q-138 -78 -333 -78q-79 0 -158.5 20.5t-156 66t-135.5 110.5t-95 162.5t-36 213.5q0 141 45 253.5t120 180.5 t165.5 103.5t188.5 35.5zM1153 609q5 115 -34 207.5t-107 148.5t-149 85t-166 29q-84 0 -161 -29.5t-141 -85.5t-105 -147.5t-48 -207.5h911z" glyph-name="e" horiz-adv-x="1392" unicode="e"/><glyph d="M709 1536v-54h-161q-59 0 -92 -47t-33 -129v-183h286v-55h-286v-1068h-65v1068h-181v55h181v191q0 97 45.5 159.5t123.5 62.5h182z" glyph-name="f" horiz-adv-x="925" unicode="f"/><glyph d="M1175 1123h62v-1020q0 -140 -44.5 -245t-121.5 -164t-168.5 -87t-196.5 -28q-190 0 -329 78v63q137 -84 325 -84q75 0 141 15t127.5 49t105.5 85.5t70 131.5t26 181v203q-59 -153 -187 -230.5t-283 -77.5q-102 0 -194 35t-167 103t-119.5 179.5t-44.5 252.5 q0 117 29.5 213t79.5 162t117.5 111t142 65.5t153.5 20.5q100 0 190.5 -31.5t167.5 -102.5t117 -175zM240 563q0 -127 38.5 -228t105.5 -162t149 -93.5t174 -32.5q88 0 169 31.5t147.5 90.5t106 156t41.5 219v37q-1 104 -27.5 189t-71 141.5t-104.5 95.5t-125 55.5 t-136 16.5q-91 0 -173 -30.5t-149.5 -91t-106 -162.5t-38.5 -232z" glyph-name="g" horiz-adv-x="1455" unicode="g"/><glyph d="M281 0h-64v1536h65v-712q41 103 124.5 175.5t180.5 104t203 31.5q90 0 164 -25.5t134 -78.5t93.5 -145.5t33.5 -218.5v-667h-64v659q0 114 -28.5 197t-81.5 130.5t-118.5 69.5t-146.5 22q-71 0 -138.5 -17t-131.5 -55t-112.5 -93t-78.5 -136.5t-33 -179.5z" glyph-name="h" horiz-adv-x="1432" unicode="h"/><glyph d="M197 1434h110v-78h-110v78zM219 1123h65v-1123h-65v1123z" glyph-name="i" horiz-adv-x="503" unicode="i"/><glyph d="M197 1434h110v-78h-110v78zM284 1123v-1127q0 -120 -45 -172t-148 -52q-47 0 -90 10l1 46q37 -6 86 -5q79 1 105 43t26 134v1123h65z" glyph-name="j" horiz-adv-x="503" unicode="j"/><glyph d="M1064 1123l-546 -497l546 -626h-78l-512 586l-192 -176v-410h-65v1536h65v-1048l697 635h85z" glyph-name="k" horiz-adv-x="1181" unicode="k"/><glyph d="M217 1536h65v-1536h-65v1536z" glyph-name="l" horiz-adv-x="498" unicode="l"/><glyph d="M1615 1135q399 0 399 -476v-659h-64v659q0 223 -91 321t-255 98q-83 0 -161 -28.5t-144.5 -85t-107.5 -152.5t-43 -219v-593h-65v659q0 223 -90.5 321t-256.5 98q-83 0 -160 -28.5t-142.5 -85t-107 -152.5t-44.5 -219l-1 -593h-64v1123h65v-299q58 155 183 233t284 78 q334 0 388 -332q38 153 177 242.5t301 89.5z" glyph-name="m" horiz-adv-x="2232" unicode="m"/><glyph d="M281 0h-64v1123h65v-299q41 103 124.5 175.5t180.5 104t203 31.5q90 0 164 -25.5t134 -78.5t93.5 -145.5t33.5 -218.5v-667h-64v659q0 114 -28.5 197t-81.5 130.5t-118.5 69.5t-146.5 22q-71 0 -138.5 -17t-131.5 -55t-112.5 -93t-78.5 -136.5t-33 -179.5z" glyph-name="n" horiz-adv-x="1432" unicode="n"/><glyph d="M1276 562q0 -117 -32 -214t-85.5 -162.5t-125 -110.5t-149 -65.5t-158.5 -20.5t-157.5 20.5t-148.5 65.5t-125 110.5t-85.5 162.5t-32.5 214q0 114 32 209.5t85.5 161.5t124 112.5t148.5 68t159 21.5t159 -21.5t149 -68t124.5 -112.5t85.5 -161.5t32 -209.5zM726 44 q73 0 141.5 19t131.5 60t110 100.5t74.5 147t27.5 191.5q0 126 -42 227.5t-111.5 163.5t-154.5 94t-177 32q-91 0 -176 -32t-154.5 -94t-111.5 -163.5t-42 -227.5q0 -104 28 -191.5t74.5 -147t109.5 -100.5t131.5 -60t140.5 -19z" glyph-name="o" horiz-adv-x="1453" unicode="o"/><glyph d="M1278 562q0 -141 -44.5 -253.5t-119.5 -181t-167 -103.5t-194 -35q-155 0 -283 78t-188 232v-712h-65v1536h58l3 -298q61 156 190.5 233t284.5 77q80 0 155 -20.5t142.5 -65.5t118.5 -111t80 -162.5t29 -213.5zM749 1079q-90 0 -170 -28.5t-147 -86.5t-107 -156.5 t-41 -227.5v-38q3 -122 43.5 -219t106 -157t146 -91t169.5 -31q91 0 173.5 32.5t149 94t105 163t38.5 228.5q0 130 -39 232t-105.5 163t-148.5 91.5t-173 30.5z" glyph-name="p" horiz-adv-x="1455" unicode="p"/><glyph d="M177 562q0 145 44.5 258.5t120.5 180t167.5 100.5t192.5 34q155 0 284.5 -77t190.5 -233l2 298h59v-1536h-64v712q-60 -154 -188.5 -232t-283.5 -78q-102 0 -194 35t-167 103.5t-119.5 181t-44.5 253.5zM707 1079q-91 0 -173 -30.5t-149.5 -91.5t-106 -163t-38.5 -232 q0 -127 38.5 -228.5t105.5 -163t149 -94t174 -32.5q88 0 168.5 31t146 91t106 157t43.5 219v38q-1 129 -40.5 227.5t-107 156.5t-147 86.5t-169.5 28.5z" glyph-name="q" horiz-adv-x="1455" unicode="q"/><glyph d="M281 0h-64v1123h65v-299q60 152 201 231.5t303 79.5v-57q-72 0 -140.5 -17t-134 -55t-115.5 -93t-80.5 -136.5t-33.5 -179.5z" glyph-name="r" horiz-adv-x="903" unicode="r"/><glyph d="M179 132q76 -39 181 -62.5t209 -23.5q140 -1 245.5 63t106.5 161q0 28 -6.5 51.5t-15 42.5t-27.5 36.5t-35 30t-46 26.5t-52.5 22.5t-62.5 21t-67 20t-75 20.5q-170 43 -261 117t-91 191q0 133 110 209.5t302 76.5q194 0 331 -79v-65q-141 86 -328 87q-163 0 -256.5 -60 t-93.5 -170q0 -100 88.5 -158.5t272.5 -107.5q81 -22 135 -40.5t103.5 -44.5t77.5 -56t44.5 -72t16.5 -97q0 -81 -60 -147t-153.5 -101t-197.5 -35q-111 0 -216.5 21.5t-178.5 57.5v64z" glyph-name="s" horiz-adv-x="1162" unicode="s"/><glyph d="M767 0h-230q-85 0 -132 60t-47 162v846h-181v55h181v225h65v-225h344v-55h-344v-838q0 -80 37 -128t97 -48h210v-54z" glyph-name="t" horiz-adv-x="984" unicode="t"/><glyph d="M1152 1123h63v-1123h-64v299q-41 -103 -125 -175.5t-180.5 -103.5t-202.5 -31q-90 0 -164.5 25t-134 78t-93.5 146t-34 219v666h65v-659q0 -114 28.5 -197t81 -130.5t118 -69.5t146.5 -22q71 0 138.5 17t131.5 55.5t112.5 93t79 136t33.5 179.5z" glyph-name="u" horiz-adv-x="1433" unicode="u"/><glyph d="M1011 1123h68l-438 -1123h-85l-437 1123h68l411 -1062z" glyph-name="v" horiz-adv-x="1197" unicode="v"/><glyph d="M1500 1123h71l-340 -1123h-78l-308 1028l-310 -1028h-78l-338 1123h70l310 -1051l310 1051h72l309 -1051z" glyph-name="w" horiz-adv-x="1688" unicode="w"/><glyph d="M1066 1123l-421 -560l421 -563h-75l-399 531l-398 -531h-75l421 563l-421 560h75l398 -529l399 529h75z" glyph-name="x" horiz-adv-x="1183" unicode="x"/><glyph d="M1011 1123h68l-444 -1058q-18 -43 -34 -77t-41.5 -78.5t-51.5 -79t-63 -70.5t-77.5 -61t-93.5 -43t-111 -25l-2 56q69 9 127 36.5t98 62.5t76 87t57 95t45 102l-445 1053h68l413 -981z" glyph-name="y" horiz-adv-x="1197" unicode="y"/><glyph d="M1087 1123v-55l-828 -1012h828v-56h-910v56l829 1012h-829v55h910z" glyph-name="z" horiz-adv-x="1264" unicode="z"/><glyph d="M575 -436q-42 0 -73.5 13t-58.5 46t-42 96.5t-15 154.5v456q0 31 -8 63t-26 64t-52.5 53.5t-80.5 23.5v56q46 1 80.5 22.5t52.5 53.5t26 64.5t8 63.5v456q0 91 15 154.5t42 96.5t59 46.5t73 13.5h85v-57h-75q-48 0 -79.5 -31.5t-43 -76t-11.5 -101.5v-490q0 -43 -9 -83 t-27.5 -75.5t-50.5 -58t-74 -24.5v-4q55 -3 93 -42t53 -90t15 -110v-490q0 -56 11.5 -100.5t43 -76.5t79.5 -32h75v-55h-85z" glyph-name="braceleft" horiz-adv-x="880" unicode="{"/><glyph d="M219 1632h65v-2042h-65v2042z" glyph-name="bar" horiz-adv-x="503" unicode="|"/><glyph d="M305 -436h-86v55h76q48 0 79.5 32t43 76.5t11.5 100.5v490q0 58 15 109.5t53 90.5t94 42v4q-56 3 -94 42t-53 89.5t-15 109.5v490q0 56 -11.5 101t-43 76.5t-79.5 31.5h-76v57h86q42 0 73.5 -13.5t59 -46.5t42 -96.5t14.5 -154.5v-456q0 -31 8 -63.5t26 -64.5t52 -53.5 t80 -22.5v-56q-46 -1 -80 -23t-52 -54t-26 -64.5t-8 -62.5v-456q0 -91 -14.5 -154.5t-42 -96.5t-59 -46t-73.5 -13z" glyph-name="braceright" horiz-adv-x="880" unicode="}"/><glyph d="M219 488q-1 75 40 125.5t112 50.5q38 0 77.5 -20t67.5 -44.5t62 -44t64 -19.5q36 0 62 36.5t26 82.5h54q0 -76 -43.5 -125t-108.5 -49q-30 0 -67 20t-66 44t-64 43.5t-61 19.5q-45 -1 -73 -35.5t-28 -85.5z" glyph-name="asciitilde" horiz-adv-x="1003" unicode="~"/><glyph d="M219 1123h111v-77h-111v77zM250 813h49l8 -1123h-64z" glyph-name="exclamdown" horiz-adv-x="548" unicode="¡"/><glyph d="M1055 992q-130 80 -299 84v-1029q167 4 299 84v-64q-128 -73 -299 -78v-132h-50v132q-79 3 -154.5 26t-143.5 70t-119 112.5t-81.5 160t-30.5 205t30.5 204t81.5 159t119 112.5t143.5 70.5t154.5 26.5v133h50v-133q173 -5 299 -77v-66zM242 562q0 -123 39.5 -221 t106 -159.5t147.5 -95.5t171 -38v1027q-71 -3 -137.5 -24.5t-126 -63.5t-104 -101t-70.5 -142.5t-26 -181.5z" glyph-name="cent" horiz-adv-x="1231" unicode="¢"/><glyph d="M408 58h875v-58h-945v58q44 47 70 106.5t36 116.5t7.5 130t-11 131t-23.5 137h-198v55h188q-47 236 -48 336q0 170 131 272.5t368 102.5q201 0 370 -102v-68q-167 114 -370 111q-207 -1 -320 -90t-113 -237q0 -96 44 -325h607v-55h-597q18 -102 26 -174.5t6.5 -160 t-27.5 -159.5t-76 -127z" glyph-name="sterling" horiz-adv-x="1503" unicode="£"/><glyph d="M1185 718q0 -181 -122 -319l183 -183l-33 -34l-184 185q-135 -122 -316 -122q-182 0 -318 122l-185 -185l-33 34l184 184q-122 135 -121.5 317.5t122.5 315.5l-185 186l33 33l186 -185q133 122 317 122q180 0 316 -121l184 184l33 -33l-183 -185q122 -137 122 -316z M713 301q172 0 293 122t121 295q0 172 -121 293.5t-293 121.5q-173 0 -295 -121.5t-122 -293.5q0 -173 121.5 -295t295.5 -122z" glyph-name="currency" horiz-adv-x="1423" unicode="¤"/><glyph d="M651 613v-124h447v-49h-447v-157h447v-50h-447v-233h-66v233h-447v50h447v157h-447v49h447v124l-527 821h76l483 -753l485 753h75z" glyph-name="yen" horiz-adv-x="1235" unicode="¥"/><glyph d="M219 1632h65v-918h-65v918zM219 509h65v-919h-65v919z" glyph-name="brokenbar" horiz-adv-x="503" unicode="¦"/><glyph d="M700 279q148 -46 216 -107.5t68 -174.5q-1 -120 -130 -201.5t-291 -81.5q-213 0 -374 119l1 62q69 -57 165.5 -91.5t202.5 -35.5q141 0 251 65.5t111 162.5q0 35 -10 64t-25.5 51t-44.5 42t-56 34t-73 29t-82.5 25t-96.5 25q-171 44 -261.5 118t-90.5 189q1 104 69.5 173 t194.5 94q-263 92 -263 281q0 133 110 210t302 77q194 0 328 -94l-1 -59q-124 98 -324 99q-162 0 -256 -61t-94 -173q0 -99 88.5 -158t272.5 -108q81 -23 134.5 -40.5t103.5 -44t78 -56t44.5 -72t16.5 -96.5q0 -93 -81 -164.5t-203 -101.5zM246 572q-1 -94 78 -151t242 -105 q139 2 246 67.5t108 160.5q0 55 -21.5 95t-70.5 69t-101 48t-139 43q-161 -2 -251.5 -59.5t-90.5 -167.5z" glyph-name="section" horiz-adv-x="1164" unicode="§"/><glyph d="M219 1372h105v-98h-105v98zM555 1372h103v-98h-103v98z" glyph-name="dieresis" horiz-adv-x="878" unicode="¨"/><glyph d="M906 -12q-157 0 -296.5 57t-238.5 154.5t-156 232.5t-57 285q0 151 57 285.5t156 232t238.5 154.5t296.5 57q211 0 383.5 -97t270.5 -263.5t98 -368.5q0 -201 -98 -368t-270.5 -264t-383.5 -97zM907 39q199 0 359 88t250.5 243t90.5 346.5t-90.5 347t-250.5 243.5 t-359 88q-198 0 -357.5 -88t-249.5 -243.5t-90 -347t90 -346.5t249.5 -243t357.5 -88zM1146 1020q-99 59 -235 59q-66 0 -126 -23t-108.5 -66.5t-77.5 -114t-29 -158.5t29 -159t77.5 -114.5t109 -66.5t125.5 -23q133 -1 235 60v-54q-100 -56 -237 -56q-74 0 -142.5 25.5 t-125 74.5t-91.5 130t-35 182.5t35 183t91.5 130t125.5 74t142 25.5q136 0 237 -56v-53z" glyph-name="copyright" horiz-adv-x="1816" unicode="©"/><glyph d="M469 1444q133 0 201 -59.5t68 -206.5v-415h-53l-1 109q-36 -44 -108 -79.5t-176 -35.5q-108 0 -165.5 46t-57.5 132q0 95 57.5 143.5t170 58t279.5 -1.5v50q-4 120 -53.5 165.5t-163.5 44.5q-106 2 -184 -59l-28 39q88 69 214 69zM684 928v161q-160 11 -260.5 3.5 t-147.5 -43t-47 -110.5q1 -63 49 -98.5t139 -35.5t161.5 38t105.5 85z" glyph-name="ordfeminine" horiz-adv-x="915" unicode="ª"/><glyph d="M635 947l-338 -384l338 -384h-78l-338 384l338 384h78zM1011 947l-338 -384l338 -384h-78l-338 384l338 384h78z" glyph-name="guillemotleft" horiz-adv-x="1229" unicode="«"/><glyph d="M1107 903v-518h-65v461h-823v57h888z" glyph-name="logicalnot" horiz-adv-x="1326" unicode="¬"/><glyph d="M676 1504q215 0 358.5 -141.5t143.5 -348.5t-143.5 -349t-358.5 -142q-140 0 -255 65.5t-179.5 178t-64.5 247.5q0 207 142.5 348.5t356.5 141.5zM677 570q197 0 325 126.5t128 317t-128.5 317t-324.5 126.5t-324.5 -126.5t-128.5 -317t128.5 -317t324.5 -126.5z M896 1140q1 -70 -34.5 -112.5t-119.5 -62.5l154 -249h-52l-149 239q-69 -10 -174 -10v-229h-47v597h231q95 0 143 -45t48 -128zM521 989q184 0 256 34t72 117q0 71 -35.5 100t-110.5 29h-182v-280z" glyph-name="registered" horiz-adv-x="1354" unicode="®"/><glyph d="M219 1327h471v-53h-471v53z" glyph-name="macron" horiz-adv-x="909" unicode="¯"/><glyph d="M452.5 978q-96.5 0 -165 68.5t-68.5 165t68.5 165t165 68.5t165 -68.5t68.5 -165.5t-68.5 -165t-165 -68zM452.5 1025q75.5 0 131 55.5t55.5 131t-55.5 131t-131 55.5t-131 -55.5t-55.5 -131t55.5 -131t131 -55.5z" glyph-name="degree" horiz-adv-x="905" unicode="°"/><glyph d="M1051 847v-55h-384v-235h-65v235h-383v55h383v235h65v-235h384zM1051 417v-56h-832v56h832z" glyph-name="plusminus" horiz-adv-x="1269" unicode="±"/><glyph d="M794 816v-50h-617v50q42 38 111.5 96t124 102.5t117 101t103.5 103.5t68.5 97t27.5 92q0 89 -64 139t-188 50q-139 0 -238 -81l-33 38q117 93 272 94q148 0 226 -63.5t79 -172.5q0 -47 -27 -101.5t-65.5 -102t-99.5 -106t-111 -99.5t-118 -98t-104 -89h536z" glyph-name="uni00B2" horiz-adv-x="970" unicode="²"/><glyph d="M199 1638h554v-50l-358 -338q50 11 108 12q126 -2 205.5 -68t79.5 -178q0 -260 -305 -259q-82 0 -164.5 26t-141.5 72l35 40q52 -41 126 -65t145 -23q131 1 191 52.5t60 157.5q0 98 -65.5 148t-181.5 50q-84 0 -149 -31l-30 55l371 349h-480v50z" glyph-name="uni00B3" horiz-adv-x="965" unicode="³"/><glyph d="M553 1581l-266 -307h-68l259 307h75z" glyph-name="acute" horiz-adv-x="772" unicode="´"/><glyph d="M1152 1123h63v-1123h-64v299q-41 -103 -125 -175.5t-180.5 -103.5t-202.5 -31q-256 0 -361 183v-582h-65v1533h65v-659q0 -114 28.5 -197t81 -130.5t118 -69.5t146.5 -22q71 0 138.5 17t131.5 55.5t112.5 93t79 136t33.5 179.5z" glyph-name="uni00B5" horiz-adv-x="1370" unicode="µ"/><glyph d="M503 977q-130 0 -207 59t-77 166q0 116 76 174t210 58h325v-1434h-61v1375h-204v-1375h-62v977z" glyph-name="paragraph" horiz-adv-x="1050" unicode="¶"/><glyph d="M219 768h111v-102h-111v102z" glyph-name="periodcentered" horiz-adv-x="548" unicode="·"/><glyph d="M349 -52q46 0 77 -22t31 -68q0 -94 -149 -95q-39 0 -89 8v46q36 -5 68 -5q113 0 112 46q0 29 -23 38t-73 9q-28 0 -39 -1v40l60 61h47l-56 -58q6 1 34 1z" glyph-name="cedilla" horiz-adv-x="675" unicode="¸"/><glyph d="M438 828h207v-50h-468v50h207v758q-95 -48 -171 -68v53q80 23 171 67h54v-810z" glyph-name="uni00B9" horiz-adv-x="822" unicode="¹"/><glyph d="M766 1101q0 -87 -29 -155.5t-77.5 -108t-105.5 -60t-118.5 -20.5t-118 20.5t-104.5 60t-77.5 108t-29.5 155.5q0 84 29 151.5t77 108.5t105 62t118.5 21t119 -21t106 -62t77 -108t28.5 -152zM436 806q52 0 100.5 17.5t88.5 52t64 93t24 132.5q0 140 -82.5 217t-194 77 t-194 -77t-82.5 -217q0 -74 24 -132.5t64 -93t88 -52t100 -17.5z" glyph-name="ordmasculine" horiz-adv-x="872" unicode="º"/><glyph d="M219 947h78l338 -384l-338 -384h-78l338 384zM595 947h78l338 -384l-338 -384h-78l338 384z" glyph-name="guillemotright" horiz-adv-x="1229" unicode="»"/><glyph d="M438 624h207v-51h-468v51h207v757q-95 -48 -171 -68v53q80 23 171 68h54v-810zM1252 1434h57l-766 -1434h-56zM1575 284v-50h-167v-234h-49v234h-428v50l421 576h56v-576h167zM994 284h365v509z" glyph-name="onequarter" horiz-adv-x="1751" unicode="¼"/><glyph d="M438 624h207v-51h-468v51h207v757q-95 -48 -171 -68v53q80 23 171 68h54v-810zM1249 1434h58l-766 -1434h-57zM1689 50v-50h-617v50q42 38 111.5 96t124 102.5t117 101.5t103.5 103.5t68.5 96.5t27.5 92q0 89 -64 139t-188 50q-139 0 -238 -81l-33 38q118 93 272 94 q148 0 226.5 -63.5t79.5 -172.5q0 -47 -27 -101.5t-65.5 -101.5t-100 -105.5t-111 -100t-118.5 -99t-104 -88.5h536z" glyph-name="onehalf" horiz-adv-x="1865" unicode="½"/><glyph d="M199 1434h554v-51l-358 -337q50 11 108 11q126 -2 205.5 -67.5t79.5 -178.5q0 -260 -305 -259q-82 0 -164.5 26t-141.5 72l35 40q52 -41 126 -65t145 -23q131 1 191 53t60 157q0 98 -65.5 148.5t-181.5 50.5q-84 0 -149 -32l-30 55l371 349h-480v51zM1333 1434h58 l-766 -1434h-57zM1650 284v-50h-166v-234h-49v234h-429v50l421 576h57v-576h166zM1069 284h366v509z" glyph-name="threequarters" horiz-adv-x="1826" unicode="¾"/><glyph d="M725 1027v-78h-110v78h110zM636 -407q-219 -1 -348 110.5t-130 309.5q0 188 108.5 297t285.5 112q46 2 90 -3l4 297h52l7 -362q-56 16 -128 17q-161 0 -258 -95.5t-97 -261.5q0 -172 111 -267t304 -95q190 -1 334 87v-68q-139 -78 -335 -78z" glyph-name="questiondown" horiz-adv-x="1129" unicode="¿"/><glyph d="M715 1584h-68l-266 307h76zM1234 0l-148 364h-810l-147 -364h-71l580 1434h87l580 -1434h-71zM300 422h763l-381 944z" glyph-name="Agrave" horiz-adv-x="1362" unicode="À"/><glyph d="M981 1891l-266 -307h-68l259 307h75zM1234 0l-148 364h-810l-147 -364h-71l580 1434h87l580 -1434h-71zM300 422h763l-381 944z" glyph-name="Aacute" horiz-adv-x="1362" unicode="Á"/><glyph d="M682 1855l-190 -271h-68l214 307h87l213 -307h-68zM1234 0l-148 364h-810l-147 -364h-71l580 1434h87l580 -1434h-71zM300 422h763l-381 944z" glyph-name="Acircumflex" horiz-adv-x="1362" unicode="Â"/><glyph d="M457 1584l-51 1q-1 73 38.5 122t108.5 49q38 0 77 -20t66 -44t61.5 -44t62.5 -20q36 0 61.5 36.5t25.5 82.5h51q0 -73 -42.5 -121t-106.5 -48q-36 0 -83 31.5t-92.5 63t-77.5 31.5q-45 -1 -72 -36t-27 -84zM1234 0l-148 364h-810l-147 -364h-71l580 1434h87l580 -1434 h-71zM300 422h763l-381 944z" glyph-name="Atilde" horiz-adv-x="1362" unicode="Ã"/><glyph d="M565 1682v-98h-104v98h104zM900 1682v-98h-103v98h103zM1234 0l-148 364h-810l-147 -364h-71l580 1434h87l580 -1434h-71zM300 422h763l-381 944z" glyph-name="Adieresis" horiz-adv-x="1362" unicode="Ä"/><glyph d="M1234 0l-148 364h-810l-147 -364h-71l569 1405q-51 17 -83.5 61.5t-32.5 100.5q0 70 50 120t121 50q70 0 120 -50.5t50 -119.5q0 -55 -32.5 -100t-83.5 -62l569 -1405h-71zM561 1567q0 -50 35.5 -85.5t85.5 -35.5q49 0 84.5 35.5t35.5 85.5t-35.5 85t-84.5 35 q-50 0 -85.5 -35t-35.5 -85zM300 422h763l-381 944z" glyph-name="Aring" horiz-adv-x="1362" unicode="Å"/><glyph d="M1438 1375h-681v-630h600v-57h-600v-630h681v-58h-748v364h-414l-147 -364h-71l580 1434h800v-59zM690 422v964l-390 -964h390z" glyph-name="AE" horiz-adv-x="1656" unicode="Æ"/><glyph d="M845 1384q-93 0 -181.5 -26t-168 -80t-139.5 -131.5t-95.5 -188t-35.5 -241.5t35.5 -241.5t95.5 -188t139.5 -132t168 -80.5t181.5 -26q197 -2 359 105v-69q-157 -93 -346 -96l-45 -47q6 1 34 1q46 0 76.5 -22t30.5 -68q0 -94 -148 -95q-39 0 -89 8v46q36 -5 67 -6 q113 0 113 47q0 29 -23 38t-73 9q-28 0 -39 -1v40l49 51q-100 5 -194 35.5t-178 91t-146.5 144t-98.5 201.5t-36 255q0 142 39 263t105.5 205.5t154.5 144t186 87.5t202 28q196 0 359 -96v-69q-162 106 -359 104z" glyph-name="Ccedilla" horiz-adv-x="1423" unicode="Ç"/><glyph d="M402 1891h76l258 -307h-67zM287 58h898v-58h-966v1434h966v-59h-898v-630h816v-57h-816v-630z" glyph-name="Egrave" horiz-adv-x="1404" unicode="È"/><glyph d="M1002 1891l-266 -307h-67l259 307h74zM287 58h898v-58h-966v1434h966v-59h-898v-630h816v-57h-816v-630z" glyph-name="Eacute" horiz-adv-x="1404" unicode="É"/><glyph d="M958 1584h-67l-189 271l-190 -271h-68l214 307h87zM287 58h898v-58h-966v1434h966v-59h-898v-630h816v-57h-816v-630z" glyph-name="Ecircumflex" horiz-adv-x="1404" unicode="Ê"/><glyph d="M482 1682h105v-98h-105v98zM818 1682h104v-98h-104v98zM287 58h898v-58h-966v1434h966v-59h-898v-630h816v-57h-816v-630z" glyph-name="Edieresis" horiz-adv-x="1404" unicode="Ë"/><glyph d="M-47 1891h76l258 -307h-68zM287 0h-68v1434h68v-1434z" glyph-name="Igrave" horiz-adv-x="505" unicode="Ì"/><glyph d="M553 1891l-266 -307h-68l259 307h75zM287 0h-68v1434h68v-1434z" glyph-name="Iacute" horiz-adv-x="505" unicode="Í"/><glyph d="M509 1584h-68l-188 271l-191 -271h-67l214 307h87zM287 0h-68v1434h68v-1434z" glyph-name="Icircumflex" horiz-adv-x="505" unicode="Î"/><glyph d="M33 1682h104v-98h-104v98zM369 1682h103v-98h-103v98zM287 0h-68v1434h68v-1434z" glyph-name="Idieresis" horiz-adv-x="505" unicode="Ï"/><glyph d="M686 1434q144 0 266.5 -44t216.5 -129.5t147 -225t53 -318.5t-53 -318.5t-147 -225.5t-216.5 -129.5t-266.5 -43.5h-466v692h-162v49h162v693h466zM683 58q131 0 242 40.5t196 120t133.5 207t48.5 291.5t-48.5 291.5t-133.5 206.5t-196 119.5t-242 40.5h-396v-634h408 v-49h-408v-634h396z" glyph-name="Eth" horiz-adv-x="1526" unicode="Ð"/><glyph d="M497 1585q-1 73 38.5 122t108.5 49q38 0 77 -20t66 -44t61.5 -44t62.5 -20q35 0 61 36.5t26 82.5h52q0 -73 -42.5 -121t-107.5 -48q-36 0 -83 31.5t-92.5 63t-77.5 31.5q-45 -1 -72 -36t-27 -84zM1260 1434h66v-1434h-81l-958 1343v-1343h-68v1434h82l959 -1343v1343z " glyph-name="Ntilde" horiz-adv-x="1546" unicode="Ñ"/><glyph d="M545 1891h76l258 -307h-68zM1532 716.5q0 -142.5 -39 -263t-105.5 -205t-154.5 -144t-186.5 -87.5t-202 -28t-201.5 28t-186 87.5t-154.5 144t-105.5 205t-39 263t39 263.5t105.5 205.5t154.5 144t186 87.5t201.5 28t202 -28t187 -87.5t154.5 -144t105 -205.5t39 -263.5z M845 47q93 0 181.5 26t168.5 80.5t140 132.5t95 189t35 242t-35 242t-95 189t-140 132t-168.5 80t-181.5 26t-181.5 -26t-168 -80t-139.5 -132t-95.5 -189t-35.5 -242t35.5 -242t95.5 -189t139.5 -132.5t168 -80.5t181.5 -26z" glyph-name="Ograve" horiz-adv-x="1689" unicode="Ò"/><glyph d="M1145 1891l-266 -307h-68l259 307h75zM1532 716.5q0 -142.5 -39 -263t-105.5 -205t-154.5 -144t-186.5 -87.5t-202 -28t-201.5 28t-186 87.5t-154.5 144t-105.5 205t-39 263t39 263.5t105.5 205.5t154.5 144t186 87.5t201.5 28t202 -28t187 -87.5t154.5 -144t105 -205.5 t39 -263.5zM845 47q93 0 181.5 26t168.5 80.5t140 132.5t95 189t35 242t-35 242t-95 189t-140 132t-168.5 80t-181.5 26t-181.5 -26t-168 -80t-139.5 -132t-95.5 -189t-35.5 -242t35.5 -242t95.5 -189t139.5 -132.5t168 -80.5t181.5 -26z" glyph-name="Oacute" horiz-adv-x="1689" unicode="Ó"/><glyph d="M1102 1584h-68l-188 271l-191 -271h-67l214 307h87zM1532 716.5q0 -142.5 -39 -263t-105.5 -205t-154.5 -144t-186.5 -87.5t-202 -28t-201.5 28t-186 87.5t-154.5 144t-105.5 205t-39 263t39 263.5t105.5 205.5t154.5 144t186 87.5t201.5 28t202 -28t187 -87.5 t154.5 -144t105 -205.5t39 -263.5zM845 47q93 0 181.5 26t168.5 80.5t140 132.5t95 189t35 242t-35 242t-95 189t-140 132t-168.5 80t-181.5 26t-181.5 -26t-168 -80t-139.5 -132t-95.5 -189t-35.5 -242t35.5 -242t95.5 -189t139.5 -132.5t168 -80.5t181.5 -26z" glyph-name="Ocircumflex" horiz-adv-x="1689" unicode="Ô"/><glyph d="M569 1585q-1 73 39 122t109 49q38 0 77 -20t66 -44t61 -44t63 -20q36 0 61.5 36.5t25.5 82.5h51q0 -73 -42.5 -121t-106.5 -48q-36 0 -83 31.5t-92.5 63t-77.5 31.5q-45 -1 -72 -36t-27 -84zM1532 716.5q0 -142.5 -39 -263t-105.5 -205t-154.5 -144t-186.5 -87.5 t-202 -28t-201.5 28t-186 87.5t-154.5 144t-105.5 205t-39 263t39 263.5t105.5 205.5t154.5 144t186 87.5t201.5 28t202 -28t187 -87.5t154.5 -144t105 -205.5t39 -263.5zM845 47q93 0 181.5 26t168.5 80.5t140 132.5t95 189t35 242t-35 242t-95 189t-140 132t-168.5 80 t-181.5 26t-181.5 -26t-168 -80t-139.5 -132t-95.5 -189t-35.5 -242t35.5 -242t95.5 -189t139.5 -132.5t168 -80.5t181.5 -26z" glyph-name="Otilde" horiz-adv-x="1689" unicode="Õ"/><glyph d="M625 1682h104v-98h-104v98zM961 1682h103v-98h-103v98zM1532 716.5q0 -142.5 -39 -263t-105.5 -205t-154.5 -144t-186.5 -87.5t-202 -28t-201.5 28t-186 87.5t-154.5 144t-105.5 205t-39 263t39 263.5t105.5 205.5t154.5 144t186 87.5t201.5 28t202 -28t187 -87.5 t154.5 -144t105 -205.5t39 -263.5zM845 47q93 0 181.5 26t168.5 80.5t140 132.5t95 189t35 242t-35 242t-95 189t-140 132t-168.5 80t-181.5 26t-181.5 -26t-168 -80t-139.5 -132t-95.5 -189t-35.5 -242t35.5 -242t95.5 -189t139.5 -132.5t168 -80.5t181.5 -26z" glyph-name="Odieresis" horiz-adv-x="1689" unicode="Ö"/><glyph d="M847 442l-40 -40l-273 275l-275 -275l-39 40l274 275l-274 273l39 40l275 -274l273 274l40 -40l-274 -273z" glyph-name="multiply" horiz-adv-x="1065" unicode="×"/><glyph d="M1369 1208q163 -195 163 -491q0 -142 -39 -263t-105.5 -205.5t-154.5 -144t-186.5 -87.5t-201.5 -28q-138 0 -267 51.5t-226 150.5l-145 -145l-34 34l146 146q-162 196 -161 491q0 142 39 263t105.5 205.5t154.5 144t186 87.5t202 28q138 0 266.5 -51.5t225.5 -149.5 l144 144l33 -34zM225 717q0 -266 142 -444l924 925q-87 92 -204 140t-242 48q-93 0 -181.5 -26t-168 -80t-139.5 -132t-95.5 -189t-35.5 -242zM845 47q93 0 181.5 26t168.5 80.5t140 132.5t95 189t35 242q0 268 -142 445l-926 -925q87 -93 204.5 -141.5t243.5 -48.5z" glyph-name="Oslash" horiz-adv-x="1687" unicode="Ø"/><glyph d="M418 1891h76l258 -307h-68zM1217 1434v-906q0 -285 -117 -412t-382 -127q-264 0 -381.5 127.5t-117.5 411.5v906h68v-911q0 -253 98.5 -364.5t332 -111.5t333 111.5t99.5 364.5v911h67z" glyph-name="Ugrave" horiz-adv-x="1435" unicode="Ù"/><glyph d="M1018 1891l-266 -307h-68l259 307h75zM1217 1434v-906q0 -285 -117 -412t-382 -127q-264 0 -381.5 127.5t-117.5 411.5v906h68v-911q0 -253 98.5 -364.5t332 -111.5t333 111.5t99.5 364.5v911h67z" glyph-name="Uacute" horiz-adv-x="1435" unicode="Ú"/><glyph d="M975 1584h-68l-188 271l-191 -271h-67l214 307h87zM1217 1434v-906q0 -285 -117 -412t-382 -127q-264 0 -381.5 127.5t-117.5 411.5v906h68v-911q0 -253 98.5 -364.5t332 -111.5t333 111.5t99.5 364.5v911h67z" glyph-name="Ucircumflex" horiz-adv-x="1435" unicode="Û"/><glyph d="M498 1682h104v-98h-104v98zM834 1682h103v-98h-103v98zM1217 1434v-906q0 -285 -117 -412t-382 -127q-264 0 -381.5 127.5t-117.5 411.5v906h68v-911q0 -253 98.5 -364.5t332 -111.5t333 111.5t99.5 364.5v911h67z" glyph-name="Udieresis" horiz-adv-x="1435" unicode="Ü"/><glyph d="M918 1891l-267 -307h-67l259 307h75zM1102 1434h75l-526 -821v-613h-66v613l-527 821h76l483 -753z" glyph-name="Yacute" horiz-adv-x="1235" unicode="Ý"/><glyph d="M1212 741q1 -244 -220 -353t-705 -110v-278h-68v1434h68v-278h486q202 0 320.5 -111t118.5 -304zM287 335q456 0 657.5 96.5t201.5 309.5q0 170 -101 264t-274 94h-484v-764z" glyph-name="Thorn" horiz-adv-x="1389" unicode="Þ"/><glyph d="M1110 400q0 -83 -29 -151.5t-77.5 -113.5t-112.5 -76t-130 -45t-133 -14h-177v56h173q58 0 115.5 11.5t112 38t96.5 65.5t67.5 98.5t25.5 131.5q0 86 -38 157t-99.5 114t-134 66t-145.5 23h-173v56h173q46 0 93.5 10.5t92.5 33.5t80.5 55.5t56.5 81.5t21 106 q0 70 -32 126t-82.5 89.5t-110 51.5t-119.5 18q-146 0 -244 -73.5t-98 -212.5v-1103h-65v1103q0 109 57 187.5t147.5 116t202.5 37.5q74 0 145 -22t130 -62.5t96 -107t37 -147.5q1 -118 -69 -198.5t-179 -114.5q139 -40 232.5 -141t93.5 -251z" glyph-name="germandbls" horiz-adv-x="1267" unicode="ß"/><glyph d="M383 1581h76l258 -307h-68zM683 1135q115 0 196.5 -21t141 -71.5t89 -137t29.5 -214.5v-691h-64l-1 183q-26 -32 -67 -63t-102.5 -62t-149 -50t-186.5 -19q-194 1 -293 77t-99 220q-1 120 58.5 193.5t173.5 104t281.5 36.5t383.5 -12v94q-5 140 -44 220t-122.5 117 t-227.5 38q-93 1 -187.5 -22.5t-160.5 -62.5v63q65 37 158.5 58.5t192.5 21.5zM1074 257v294q-278 18 -463.5 10t-278.5 -72t-93 -197q0 -130 88 -188t268 -58q88 0 169 20.5t140.5 53.5t101 67t68.5 70z" glyph-name="agrave" horiz-adv-x="1355" unicode="à"/><glyph d="M983 1581l-266 -307h-68l259 307h75zM683 1135q115 0 196.5 -21t141 -71.5t89 -137t29.5 -214.5v-691h-64l-1 183q-26 -32 -67 -63t-102.5 -62t-149 -50t-186.5 -19q-194 1 -293 77t-99 220q-1 120 58.5 193.5t173.5 104t281.5 36.5t383.5 -12v94q-5 140 -44 220 t-122.5 117t-227.5 38q-93 1 -187.5 -22.5t-160.5 -62.5v63q65 37 158.5 58.5t192.5 21.5zM1074 257v294q-278 18 -463.5 10t-278.5 -72t-93 -197q0 -130 88 -188t268 -58q88 0 169 20.5t140.5 53.5t101 67t68.5 70z" glyph-name="aacute" horiz-adv-x="1355" unicode="á"/><glyph d="M939 1274h-68l-188 271l-190 -271h-68l214 307h87zM683 1135q115 0 196.5 -21t141 -71.5t89 -137t29.5 -214.5v-691h-64l-1 183q-26 -32 -67 -63t-102.5 -62t-149 -50t-186.5 -19q-194 1 -293 77t-99 220q-1 120 58.5 193.5t173.5 104t281.5 36.5t383.5 -12v94 q-5 140 -44 220t-122.5 117t-227.5 38q-93 1 -187.5 -22.5t-160.5 -62.5v63q65 37 158.5 58.5t192.5 21.5zM1074 257v294q-278 18 -463.5 10t-278.5 -72t-93 -197q0 -130 88 -188t268 -58q88 0 169 20.5t140.5 53.5t101 67t68.5 70z" glyph-name="acircumflex" horiz-adv-x="1355" unicode="â"/><glyph d="M407 1275q-1 73 38.5 122t108.5 49q38 0 77 -20t66 -44t61.5 -44t62.5 -20q35 0 61 36.5t26 82.5h51q0 -73 -42.5 -121t-106.5 -48q-36 0 -83 31.5t-92.5 63t-77.5 31.5q-45 -1 -72 -36t-27 -84zM683 1135q115 0 196.5 -21t141 -71.5t89 -137t29.5 -214.5v-691h-64 l-1 183q-26 -32 -67 -63t-102.5 -62t-149 -50t-186.5 -19q-194 1 -293 77t-99 220q-1 120 58.5 193.5t173.5 104t281.5 36.5t383.5 -12v94q-5 140 -44 220t-122.5 117t-227.5 38q-93 1 -187.5 -22.5t-160.5 -62.5v63q65 37 158.5 58.5t192.5 21.5zM1074 257v294 q-278 18 -463.5 10t-278.5 -72t-93 -197q0 -130 88 -188t268 -58q88 0 169 20.5t140.5 53.5t101 67t68.5 70z" glyph-name="atilde" horiz-adv-x="1355" unicode="ã"/><glyph d="M463 1372h104v-98h-104v98zM799 1372h103v-98h-103v98zM683 1135q115 0 196.5 -21t141 -71.5t89 -137t29.5 -214.5v-691h-64l-1 183q-26 -32 -67 -63t-102.5 -62t-149 -50t-186.5 -19q-194 1 -293 77t-99 220q-1 120 58.5 193.5t173.5 104t281.5 36.5t383.5 -12v94 q-5 140 -44 220t-122.5 117t-227.5 38q-93 1 -187.5 -22.5t-160.5 -62.5v63q65 37 158.5 58.5t192.5 21.5zM1074 257v294q-278 18 -463.5 10t-278.5 -72t-93 -197q0 -130 88 -188t268 -58q88 0 169 20.5t140.5 53.5t101 67t68.5 70z" glyph-name="adieresis" horiz-adv-x="1355" unicode="ä"/><glyph d="M683 1274q-71 0 -121 50t-50 121q0 70 50 120t121 50q70 0 120 -50.5t50 -119.5q0 -71 -50 -121t-120 -50zM683 1324q49 0 84.5 35.5t35.5 85.5q0 49 -35.5 84.5t-84.5 35.5q-50 0 -85.5 -35.5t-35.5 -84.5q0 -50 35.5 -85.5t85.5 -35.5zM683 1135q115 0 196.5 -21 t141 -71.5t89 -137t29.5 -214.5v-691h-64l-1 183q-26 -32 -67 -63t-102.5 -62t-149 -50t-186.5 -19q-194 1 -293 77t-99 220q-1 120 58.5 193.5t173.5 104t281.5 36.5t383.5 -12v94q-5 140 -44 220t-122.5 117t-227.5 38q-93 1 -187.5 -22.5t-160.5 -62.5v63 q65 37 158.5 58.5t192.5 21.5zM1074 257v294q-278 18 -463.5 10t-278.5 -72t-93 -197q0 -130 88 -188t268 -58q88 0 169 20.5t140.5 53.5t101 67t68.5 70z" glyph-name="aring" horiz-adv-x="1355" unicode="å"/><glyph d="M1606 1135q102 0 197 -37t172.5 -106.5t118.5 -184t29 -254.5h-973q1 -103 35 -190.5t87 -144.5t122 -97.5t140.5 -58.5t141.5 -18q184 0 324 84v-61q-138 -78 -332 -78q-75 0 -150.5 19.5t-147.5 56.5t-133 100.5t-98 143.5v-309h-64l-1 183q-26 -32 -67 -63t-102.5 -62 t-149 -50t-186.5 -19q-194 1 -293 77t-99 220q-1 120 58.5 193.5t173.5 104t281.5 36.5t383.5 -12v94q-5 140 -44 220t-122.5 117t-227.5 38q-93 1 -187.5 -22.5t-160.5 -62.5v63q65 37 158.5 58.5t192.5 21.5q203 0 312.5 -72.5t134.5 -249.5q42 105 119 179.5t168 108.5 t189 34zM2063 609q4 93 -21 171.5t-70 133t-105.5 92t-126.5 55.5t-132 18q-84 0 -161.5 -29.5t-141.5 -85.5t-105.5 -147.5t-48.5 -207.5h912zM1074 257v294q-278 18 -463.5 10t-278.5 -72t-93 -197q0 -130 88 -188t268 -58q88 0 169 20.5t140.5 53.5t101 67t68.5 70z" glyph-name="ae" horiz-adv-x="2302" unicode="æ"/><glyph d="M729 1076q-92 0 -177 -32t-155.5 -93t-112.5 -162t-42 -227q0 -102 27.5 -187.5t74.5 -145t110 -101.5t132.5 -61.5t142.5 -19.5q184 -1 326 84v-64q-135 -75 -315 -78l-45 -47q6 1 34 1q46 0 77 -22t31 -68q0 -94 -149 -95q-39 0 -89 8v46q36 -5 68 -6q113 0 112 47 q0 29 -23 38t-73 9q-28 0 -39 -1v40l49 51q-98 5 -188 43.5t-164.5 106.5t-119 177.5t-44.5 244.5q0 114 32 209.5t85.5 161.5t124 112.5t148.5 68t159 21.5q191 0 329 -77v-66q-140 85 -326 84z" glyph-name="ccedilla" horiz-adv-x="1231" unicode="ç"/><glyph d="M731 1274h-67l-267 307h76zM696 1135q81 0 159 -22.5t147 -70.5t119.5 -115t76 -163.5t14.5 -210.5h-971q1 -103 34 -190.5t86.5 -144.5t122.5 -97.5t140 -58.5t142 -18q185 0 325 84v-61q-138 -78 -333 -78q-79 0 -158.5 20.5t-156 66t-135.5 110.5t-95 162.5t-36 213.5 q0 141 45 253.5t120 180.5t165.5 103.5t188.5 35.5zM1153 609q5 115 -34 207.5t-107 148.5t-149 85t-166 29q-84 0 -161 -29.5t-141 -85.5t-105 -147.5t-48 -207.5h911z" glyph-name="egrave" horiz-adv-x="1392" unicode="è"/><glyph d="M997 1581l-266 -307h-67l259 307h74zM696 1135q81 0 159 -22.5t147 -70.5t119.5 -115t76 -163.5t14.5 -210.5h-971q1 -103 34 -190.5t86.5 -144.5t122.5 -97.5t140 -58.5t142 -18q185 0 325 84v-61q-138 -78 -333 -78q-79 0 -158.5 20.5t-156 66t-135.5 110.5t-95 162.5 t-36 213.5q0 141 45 253.5t120 180.5t165.5 103.5t188.5 35.5zM1153 609q5 115 -34 207.5t-107 148.5t-149 85t-166 29q-84 0 -161 -29.5t-141 -85.5t-105 -147.5t-48 -207.5h911z" glyph-name="eacute" horiz-adv-x="1392" unicode="é"/><glyph d="M698 1545l-190 -271h-68l214 307h87l213 -307h-67zM696 1135q81 0 159 -22.5t147 -70.5t119.5 -115t76 -163.5t14.5 -210.5h-971q1 -103 34 -190.5t86.5 -144.5t122.5 -97.5t140 -58.5t142 -18q185 0 325 84v-61q-138 -78 -333 -78q-79 0 -158.5 20.5t-156 66 t-135.5 110.5t-95 162.5t-36 213.5q0 141 45 253.5t120 180.5t165.5 103.5t188.5 35.5zM1153 609q5 115 -34 207.5t-107 148.5t-149 85t-166 29q-84 0 -161 -29.5t-141 -85.5t-105 -147.5t-48 -207.5h911z" glyph-name="ecircumflex" horiz-adv-x="1392" unicode="ê"/><glyph d="M582 1372v-98h-105v98h105zM916 1372v-98h-103v98h103zM696 1135q81 0 159 -22.5t147 -70.5t119.5 -115t76 -163.5t14.5 -210.5h-971q1 -103 34 -190.5t86.5 -144.5t122.5 -97.5t140 -58.5t142 -18q185 0 325 84v-61q-138 -78 -333 -78q-79 0 -158.5 20.5t-156 66 t-135.5 110.5t-95 162.5t-36 213.5q0 141 45 253.5t120 180.5t165.5 103.5t188.5 35.5zM1153 609q5 115 -34 207.5t-107 148.5t-149 85t-166 29q-84 0 -161 -29.5t-141 -85.5t-105 -147.5t-48 -207.5h911z" glyph-name="edieresis" horiz-adv-x="1392" unicode="ë"/><glyph d="M-51 1581h76l258 -307h-68zM217 1123h65v-1123h-65v1123z" glyph-name="igrave" horiz-adv-x="498" unicode="ì"/><glyph d="M549 1581l-266 -307h-68l259 307h75zM217 1123h65v-1123h-65v1123z" glyph-name="iacute" horiz-adv-x="498" unicode="í"/><glyph d="M506 1274h-68l-188 271l-191 -271h-67l214 307h87zM217 1123h65v-1123h-65v1123z" glyph-name="icircumflex" horiz-adv-x="498" unicode="î"/><glyph d="M29 1372h104v-98h-104v98zM365 1372h103v-98h-103v98zM217 1123h65v-1123h-65v1123z" glyph-name="idieresis" horiz-adv-x="498" unicode="ï"/><glyph d="M844 1185q253 -297 309 -373q91 -122 112 -209q11 -48 11 -119q0 -122 -48 -219t-128 -156t-176 -89t-198 -30t-197.5 30t-175.5 89t-128 156t-48 219t46.5 218.5t123.5 153.5t168.5 87.5t190.5 31.5q156 3 287 -62l-218 258l-252 -49v50l215 42l-186 220h81 q73 -87 174 -206l314 60v-50zM726 45q73 0 142 16.5t131.5 51.5t109.5 86t74.5 124.5t27.5 160.5q0 84 -27.5 156.5t-74.5 123.5t-110 87.5t-132 54t-141 17.5q-73 0 -141 -16t-131 -50.5t-109.5 -84.5t-74.5 -124.5t-28 -163.5q0 -109 42 -195t111.5 -138t154 -79 t176.5 -27z" glyph-name="eth" horiz-adv-x="1453" unicode="ð"/><glyph d="M440 1275q-1 73 39 122t109 49q38 0 76.5 -20t66 -44t61.5 -44t63 -20q36 0 61.5 36.5t25.5 82.5h51q0 -73 -42.5 -121t-106.5 -48q-36 0 -83 31.5t-92.5 63t-77.5 31.5q-45 -1 -72 -36t-27 -84zM281 0h-64v1123h65v-299q41 103 124.5 175.5t180.5 104t203 31.5 q90 0 164 -25.5t134 -78.5t93.5 -145.5t33.5 -218.5v-667h-64v659q0 114 -28.5 197t-81.5 130.5t-118.5 69.5t-146.5 22q-71 0 -138.5 -17t-131.5 -55t-112.5 -93t-78.5 -136.5t-33 -179.5z" glyph-name="ntilde" horiz-adv-x="1432" unicode="ñ"/><glyph d="M427 1581h76l258 -307h-68zM1276 562q0 -117 -32 -214t-85.5 -162.5t-125 -110.5t-149 -65.5t-158.5 -20.5t-157.5 20.5t-148.5 65.5t-125 110.5t-85.5 162.5t-32.5 214q0 114 32 209.5t85.5 161.5t124 112.5t148.5 68t159 21.5t159 -21.5t149 -68t124.5 -112.5 t85.5 -161.5t32 -209.5zM726 44q73 0 141.5 19t131.5 60t110 100.5t74.5 147t27.5 191.5q0 126 -42 227.5t-111.5 163.5t-154.5 94t-177 32q-91 0 -176 -32t-154.5 -94t-111.5 -163.5t-42 -227.5q0 -104 28 -191.5t74.5 -147t109.5 -100.5t131.5 -60t140.5 -19z" glyph-name="ograve" horiz-adv-x="1453" unicode="ò"/><glyph d="M1027 1581l-266 -307h-68l259 307h75zM1276 562q0 -117 -32 -214t-85.5 -162.5t-125 -110.5t-149 -65.5t-158.5 -20.5t-157.5 20.5t-148.5 65.5t-125 110.5t-85.5 162.5t-32.5 214q0 114 32 209.5t85.5 161.5t124 112.5t148.5 68t159 21.5t159 -21.5t149 -68 t124.5 -112.5t85.5 -161.5t32 -209.5zM726 44q73 0 141.5 19t131.5 60t110 100.5t74.5 147t27.5 191.5q0 126 -42 227.5t-111.5 163.5t-154.5 94t-177 32q-91 0 -176 -32t-154.5 -94t-111.5 -163.5t-42 -227.5q0 -104 28 -191.5t74.5 -147t109.5 -100.5t131.5 -60t140.5 -19 z" glyph-name="oacute" horiz-adv-x="1453" unicode="ó"/><glyph d="M983 1274h-68l-188 271l-190 -271h-68l214 307h87zM1276 562q0 -117 -32 -214t-85.5 -162.5t-125 -110.5t-149 -65.5t-158.5 -20.5t-157.5 20.5t-148.5 65.5t-125 110.5t-85.5 162.5t-32.5 214q0 114 32 209.5t85.5 161.5t124 112.5t148.5 68t159 21.5t159 -21.5t149 -68 t124.5 -112.5t85.5 -161.5t32 -209.5zM726 44q73 0 141.5 19t131.5 60t110 100.5t74.5 147t27.5 191.5q0 126 -42 227.5t-111.5 163.5t-154.5 94t-177 32q-91 0 -176 -32t-154.5 -94t-111.5 -163.5t-42 -227.5q0 -104 28 -191.5t74.5 -147t109.5 -100.5t131.5 -60t140.5 -19 z" glyph-name="ocircumflex" horiz-adv-x="1453" unicode="ô"/><glyph d="M451 1275q-1 73 38.5 122t108.5 49q38 0 77 -20t66 -44t61.5 -44t62.5 -20q35 0 61 36.5t26 82.5h52q0 -73 -42.5 -121t-107.5 -48q-36 0 -83 31.5t-92.5 63t-77.5 31.5q-45 -1 -72 -36t-27 -84zM1276 562q0 -117 -32 -214t-85.5 -162.5t-125 -110.5t-149 -65.5 t-158.5 -20.5t-157.5 20.5t-148.5 65.5t-125 110.5t-85.5 162.5t-32.5 214q0 114 32 209.5t85.5 161.5t124 112.5t148.5 68t159 21.5t159 -21.5t149 -68t124.5 -112.5t85.5 -161.5t32 -209.5zM726 44q73 0 141.5 19t131.5 60t110 100.5t74.5 147t27.5 191.5q0 126 -42 227.5 t-111.5 163.5t-154.5 94t-177 32q-91 0 -176 -32t-154.5 -94t-111.5 -163.5t-42 -227.5q0 -104 28 -191.5t74.5 -147t109.5 -100.5t131.5 -60t140.5 -19z" glyph-name="otilde" horiz-adv-x="1453" unicode="õ"/><glyph d="M507 1372h104v-98h-104v98zM843 1372h103v-98h-103v98zM1276 562q0 -117 -32 -214t-85.5 -162.5t-125 -110.5t-149 -65.5t-158.5 -20.5t-157.5 20.5t-148.5 65.5t-125 110.5t-85.5 162.5t-32.5 214q0 114 32 209.5t85.5 161.5t124 112.5t148.5 68t159 21.5t159 -21.5 t149 -68t124.5 -112.5t85.5 -161.5t32 -209.5zM726 44q73 0 141.5 19t131.5 60t110 100.5t74.5 147t27.5 191.5q0 126 -42 227.5t-111.5 163.5t-154.5 94t-177 32q-91 0 -176 -32t-154.5 -94t-111.5 -163.5t-42 -227.5q0 -104 28 -191.5t74.5 -147t109.5 -100.5t131.5 -60 t140.5 -19z" glyph-name="odieresis" horiz-adv-x="1453" unicode="ö"/><glyph d="M583 1092h104v-100h-104v100zM1051 689h-832v55h832v-55zM583 441h104v-99h-104v99z" glyph-name="divide" horiz-adv-x="1269" unicode="÷"/><glyph d="M1146 948q130 -152 130 -386q0 -117 -32 -214t-85.5 -162.5t-125 -110.5t-149 -65.5t-158.5 -20.5q-108 0 -209.5 38t-178.5 112l-144 -144l-33 33l145 145q-129 150 -129 389q0 114 32 209.5t85.5 161.5t124 112.5t148.5 68t159 21.5q108 0 209.5 -38.5t178.5 -114.5 l147 146l32 -32zM242 562q0 -210 108 -345l721 722q-68 69 -158.5 104.5t-186.5 35.5q-91 0 -176 -32t-154.5 -94t-111.5 -163.5t-42 -227.5zM726 44q73 0 141.5 19t131.5 60t110 100.5t74.5 147t27.5 191.5q0 208 -109 342l-721 -722q68 -69 158.5 -103.5t186.5 -34.5z" glyph-name="oslash" horiz-adv-x="1453" unicode="ø"/><glyph d="M385 1581h76l258 -307h-68zM1152 1123h63v-1123h-64v299q-41 -103 -125 -175.5t-180.5 -103.5t-202.5 -31q-90 0 -164.5 25t-134 78t-93.5 146t-34 219v666h65v-659q0 -114 28.5 -197t81 -130.5t118 -69.5t146.5 -22q71 0 138.5 17t131.5 55.5t112.5 93t79 136 t33.5 179.5z" glyph-name="ugrave" horiz-adv-x="1433" unicode="ù"/><glyph d="M985 1581l-266 -307h-68l259 307h75zM1152 1123h63v-1123h-64v299q-41 -103 -125 -175.5t-180.5 -103.5t-202.5 -31q-90 0 -164.5 25t-134 78t-93.5 146t-34 219v666h65v-659q0 -114 28.5 -197t81 -130.5t118 -69.5t146.5 -22q71 0 138.5 17t131.5 55.5t112.5 93t79 136 t33.5 179.5z" glyph-name="uacute" horiz-adv-x="1433" unicode="ú"/><glyph d="M942 1274h-68l-188 271l-190 -271h-68l214 307h87zM1152 1123h63v-1123h-64v299q-41 -103 -125 -175.5t-180.5 -103.5t-202.5 -31q-90 0 -164.5 25t-134 78t-93.5 146t-34 219v666h65v-659q0 -114 28.5 -197t81 -130.5t118 -69.5t146.5 -22q71 0 138.5 17t131.5 55.5 t112.5 93t79 136t33.5 179.5z" glyph-name="ucircumflex" horiz-adv-x="1433" unicode="û"/><glyph d="M465 1372h104v-98h-104v98zM801 1372h103v-98h-103v98zM1152 1123h63v-1123h-64v299q-41 -103 -125 -175.5t-180.5 -103.5t-202.5 -31q-90 0 -164.5 25t-134 78t-93.5 146t-34 219v666h65v-659q0 -114 28.5 -197t81 -130.5t118 -69.5t146.5 -22q71 0 138.5 17t131.5 55.5 t112.5 93t79 136t33.5 179.5z" glyph-name="udieresis" horiz-adv-x="1433" unicode="ü"/><glyph d="M898 1581l-266 -307h-68l259 307h75zM1011 1123h68l-444 -1058q-18 -43 -34 -77t-41.5 -78.5t-51.5 -79t-63 -70.5t-77.5 -61t-93.5 -43t-111 -25l-2 56q69 9 127 36.5t98 62.5t76 87t57 95t45 102l-445 1053h68l413 -981z" glyph-name="yacute" horiz-adv-x="1197" unicode="ý"/><glyph d="M755 1135q102 0 194 -35.5t167 -103.5t119.5 -180.5t44.5 -253.5t-44.5 -253.5t-119.5 -181t-167 -103.5t-194 -35q-154 0 -283.5 81t-187.5 234v-717h-65v1949h65v-717q58 154 187.5 235t283.5 81zM750 44q91 0 173.5 32.5t148.5 94t104.5 163t38.5 228.5t-38.5 228.5 t-104.5 163t-148.5 93.5t-173.5 32q-88 0 -169 -30.5t-146.5 -90t-106.5 -156t-44 -218.5v-43q3 -122 44 -219.5t106.5 -157t146.5 -90t169 -30.5z" glyph-name="thorn" horiz-adv-x="1457" unicode="þ"/><glyph d="M378 1372h104v-98h-104v98zM714 1372h103v-98h-103v98zM1011 1123h68l-444 -1058q-18 -43 -34 -77t-41.5 -78.5t-51.5 -79t-63 -70.5t-77.5 -61t-93.5 -43t-111 -25l-2 56q69 9 127 36.5t98 62.5t76 87t57 95t45 102l-445 1053h68l413 -981z" glyph-name="ydieresis" horiz-adv-x="1197" unicode="ÿ"/><glyph d="M916 1637v-53h-471v53h471zM1234 0l-148 364h-810l-147 -364h-71l580 1434h87l580 -1434h-71zM300 422h763l-381 944z" glyph-name="Amacron" horiz-adv-x="1362" unicode="Ā"/><glyph d="M446 1327h472v-53h-472v53zM683 1135q115 0 196.5 -21t141 -71.5t89 -137t29.5 -214.5v-691h-64l-1 183q-26 -32 -67 -63t-102.5 -62t-149 -50t-186.5 -19q-194 1 -293 77t-99 220q-1 120 58.5 193.5t173.5 104t281.5 36.5t383.5 -12v94q-5 140 -44 220t-122.5 117 t-227.5 38q-93 1 -187.5 -22.5t-160.5 -62.5v63q65 37 158.5 58.5t192.5 21.5zM1074 257v294q-278 18 -463.5 10t-278.5 -72t-93 -197q0 -130 88 -188t268 -58q88 0 169 20.5t140.5 53.5t101 67t68.5 70z" glyph-name="amacron" horiz-adv-x="1355" unicode="ā"/><glyph d="M682 1584q-92 0 -157.5 64.5t-67.5 155.5h54q0 -70 49.5 -119.5t121.5 -49.5q70 0 120 50t51 119h53q-2 -91 -67 -155.5t-157 -64.5zM1234 0l-148 364h-810l-147 -364h-71l580 1434h87l580 -1434h-71zM300 422h763l-381 944z" glyph-name="Abreve" horiz-adv-x="1362" unicode="Ă"/><glyph d="M907 1494q-2 -91 -67 -155.5t-157 -64.5t-157.5 64.5t-67.5 155.5h54q0 -70 49.5 -119.5t121.5 -49.5q70 0 120 49.5t51 119.5h53zM683 1135q115 0 196.5 -21t141 -71.5t89 -137t29.5 -214.5v-691h-64l-1 183q-26 -32 -67 -63t-102.5 -62t-149 -50t-186.5 -19 q-194 1 -293 77t-99 220q-1 120 58.5 193.5t173.5 104t281.5 36.5t383.5 -12v94q-5 140 -44 220t-122.5 117t-227.5 38q-93 1 -187.5 -22.5t-160.5 -62.5v63q65 37 158.5 58.5t192.5 21.5zM1074 257v294q-278 18 -463.5 10t-278.5 -72t-93 -197q0 -130 88 -188t268 -58 q88 0 169 20.5t140.5 53.5t101 67t68.5 70z" glyph-name="abreve" horiz-adv-x="1355" unicode="ă"/><glyph d="M1346 -197l6 -43q-97 -28 -168.5 1t-76.5 92q-8 114 135 147h-8l-148 364h-810l-147 -364h-71l580 1434h87l580 -1434h-11q-146 -46 -133 -137q5 -41 60 -58.5t125 -1.5zM300 422h763l-381 944z" glyph-name="Aogonek" horiz-adv-x="1362" unicode="Ą"/><glyph d="M1183 -196l6 -43q-97 -28 -168.5 1t-76.5 92q-8 113 131 146l-1 183q-26 -32 -67 -63t-102.5 -62t-149 -50t-186.5 -19q-194 1 -293 77t-99 220q-1 120 58.5 193.5t173.5 104t281.5 36.5t383.5 -12v94q-5 140 -44 220t-122.5 117t-227.5 38q-93 1 -187.5 -22.5 t-160.5 -62.5v63q65 37 158.5 58.5t192.5 21.5q115 0 196.5 -21t141 -71.5t89 -137t29.5 -214.5v-691h-11q-143 -46 -130 -136q5 -41 60 -58.5t125 -1.5zM1074 257v294q-278 18 -463.5 10t-278.5 -72t-93 -197q0 -130 88 -188t268 -58q88 0 169 20.5t140.5 53.5t101 67 t68.5 70z" glyph-name="aogonek" horiz-adv-x="1355" unicode="ą"/><glyph d="M1141 1891l-267 -307h-67l259 307h75zM1204 1280q-163 106 -359 104q-93 0 -181.5 -26t-168 -80t-139.5 -131.5t-95.5 -188t-35.5 -241.5t35.5 -241.5t95.5 -188t139.5 -132t168 -80.5t181.5 -26q197 -2 359 105v-69q-164 -96 -359 -96q-103 0 -201.5 28t-186.5 87.5 t-154.5 144t-105.5 205t-39 263t39 263.5t105.5 205.5t154.5 144t186 87.5t202 28q196 0 359 -96v-69z" glyph-name="Cacute" horiz-adv-x="1423" unicode="Ć"/><glyph d="M1027 1581l-266 -307h-68l259 307h75zM1055 992q-139 85 -326 84q-92 0 -177 -32t-155.5 -93t-112.5 -162t-42 -227q0 -102 27.5 -187.5t74.5 -145t110 -101.5t132.5 -61.5t142.5 -19.5q184 -1 326 84v-64q-138 -78 -329 -78q-102 0 -197.5 35t-175.5 103.5t-128 181 t-48 253.5q0 114 32 209.5t85.5 161.5t124 112.5t148.5 68t159 21.5q191 0 329 -77v-66z" glyph-name="cacute" horiz-adv-x="1231" unicode="ć"/><glyph d="M788 1682h105v-98h-105v98zM1204 1280q-163 106 -359 104q-93 0 -181.5 -26t-168 -80t-139.5 -131.5t-95.5 -188t-35.5 -241.5t35.5 -241.5t95.5 -188t139.5 -132t168 -80.5t181.5 -26q197 -2 359 105v-69q-164 -96 -359 -96q-103 0 -201.5 28t-186.5 87.5t-154.5 144 t-105.5 205t-39 263t39 263.5t105.5 205.5t154.5 144t186 87.5t202 28q196 0 359 -96v-69z" glyph-name="Cdotaccent" horiz-adv-x="1423" unicode="Ċ"/><glyph d="M675 1372h104v-98h-104v98zM1055 992q-139 85 -326 84q-92 0 -177 -32t-155.5 -93t-112.5 -162t-42 -227q0 -102 27.5 -187.5t74.5 -145t110 -101.5t132.5 -61.5t142.5 -19.5q184 -1 326 84v-64q-138 -78 -329 -78q-102 0 -197.5 35t-175.5 103.5t-128 181t-48 253.5 q0 114 32 209.5t85.5 161.5t124 112.5t148.5 68t159 21.5q191 0 329 -77v-66z" glyph-name="cdotaccent" horiz-adv-x="1231" unicode="ċ"/><glyph d="M1029 1891h68l-213 -307h-87l-214 307h67l191 -270zM1204 1280q-163 106 -359 104q-93 0 -181.5 -26t-168 -80t-139.5 -131.5t-95.5 -188t-35.5 -241.5t35.5 -241.5t95.5 -188t139.5 -132t168 -80.5t181.5 -26q197 -2 359 105v-69q-164 -96 -359 -96q-103 0 -201.5 28 t-186.5 87.5t-154.5 144t-105.5 205t-39 263t39 263.5t105.5 205.5t154.5 144t186 87.5t202 28q196 0 359 -96v-69z" glyph-name="Ccaron" horiz-adv-x="1423" unicode="Č"/><glyph d="M915 1581h68l-213 -307h-87l-214 307h68l190 -270zM1055 992q-139 85 -326 84q-92 0 -177 -32t-155.5 -93t-112.5 -162t-42 -227q0 -102 27.5 -187.5t74.5 -145t110 -101.5t132.5 -61.5t142.5 -19.5q184 -1 326 84v-64q-138 -78 -329 -78q-102 0 -197.5 35t-175.5 103.5 t-128 181t-48 253.5q0 114 32 209.5t85.5 161.5t124 112.5t148.5 68t159 21.5q191 0 329 -77v-66z" glyph-name="ccaron" horiz-adv-x="1231" unicode="č"/><glyph d="M951 1891h68l-213 -307h-87l-214 307h67l191 -270zM1368 717q0 -144 -35 -263t-96 -202.5t-148 -140.5t-188 -84t-216 -27h-466v1434h466q144 0 266.5 -44t216.5 -129.5t147 -225t53 -318.5zM682 58q131 0 242 40.5t196 120t133.5 207t48.5 291.5t-48.5 291.5 t-133.5 206.5t-196 119.5t-242 40.5h-395v-1317h395z" glyph-name="Dcaron" horiz-adv-x="1526" unicode="Ď"/><glyph d="M177 562q0 141 44.5 253.5t119.5 180.5t167 103.5t194 35.5q155 0 283 -78.5t189 -232.5v712h64v-1536h-58l-2 298q-61 -156 -191 -232.5t-285 -76.5q-101 0 -192.5 33.5t-167.5 100.5t-120.5 180.5t-44.5 258.5zM1568 1431h74l-76 -423h-53zM707 44q90 0 169.5 28.5 t147 86.5t107 157t40.5 228v38q-3 122 -43.5 218.5t-106 156.5t-146 91t-168.5 31q-91 0 -173.5 -32t-149.5 -93.5t-105.5 -163t-38.5 -228.5q0 -131 39 -233t106.5 -163t149 -91.5t172.5 -30.5z" glyph-name="dcaron" horiz-adv-x="1859" unicode="ď"/><glyph d="M686 1434q144 0 266.5 -44t216.5 -129.5t147 -225t53 -318.5t-53 -318.5t-147 -225.5t-216.5 -129.5t-266.5 -43.5h-466v692h-162v49h162v693h466zM683 58q131 0 242 40.5t196 120t133.5 207t48.5 291.5t-48.5 291.5t-133.5 206.5t-196 119.5t-242 40.5h-396v-634h408 v-49h-408v-634h396z" glyph-name="Dcroat" horiz-adv-x="1526" unicode="Đ"/><glyph d="M1377 1353v-50h-139v-1303h-58l-2 298q-61 -156 -191 -232.5t-285 -76.5q-101 0 -192.5 33.5t-167.5 100.5t-120.5 180.5t-44.5 258.5q0 141 44.5 253.5t119.5 180.5t167 103.5t194 35.5q155 0 283 -78.5t189 -232.5v479h-444v50h444v183h64v-183h139zM1171 544v38 q-3 122 -43.5 218.5t-106 156.5t-146 91t-168.5 31q-91 0 -173.5 -32t-149.5 -93.5t-105.5 -163t-38.5 -228.5q0 -131 39 -233t106.5 -163t148.5 -91.5t173 -30.5q90 0 169.5 28.5t147 86.5t107 157t40.5 228z" glyph-name="dcroat" horiz-adv-x="1457" unicode="đ"/><glyph d="M466 1637h471v-53h-471v53zM287 58h898v-58h-966v1434h966v-59h-898v-630h816v-57h-816v-630z" glyph-name="Emacron" horiz-adv-x="1404" unicode="Ē"/><glyph d="M933 1327v-53h-471v53h471zM696 1135q81 0 159 -22.5t147 -70.5t119.5 -115t76 -163.5t14.5 -210.5h-971q1 -103 34 -190.5t86.5 -144.5t122.5 -97.5t140 -58.5t142 -18q185 0 325 84v-61q-138 -78 -333 -78q-79 0 -158.5 20.5t-156 66t-135.5 110.5t-95 162.5t-36 213.5 q0 141 45 253.5t120 180.5t165.5 103.5t188.5 35.5zM1153 609q5 115 -34 207.5t-107 148.5t-149 85t-166 29q-84 0 -161 -29.5t-141 -85.5t-105 -147.5t-48 -207.5h911z" glyph-name="emacron" horiz-adv-x="1392" unicode="ē"/><glyph d="M650 1682h105v-98h-105v98zM287 58h898v-58h-966v1434h966v-59h-898v-630h816v-57h-816v-630z" glyph-name="Edotaccent" horiz-adv-x="1404" unicode="Ė"/><glyph d="M750 1372v-98h-105v98h105zM696 1135q81 0 159 -22.5t147 -70.5t119.5 -115t76 -163.5t14.5 -210.5h-971q1 -103 34 -190.5t86.5 -144.5t122.5 -97.5t140 -58.5t142 -18q185 0 325 84v-61q-138 -78 -333 -78q-79 0 -158.5 20.5t-156 66t-135.5 110.5t-95 162.5t-36 213.5 q0 141 45 253.5t120 180.5t165.5 103.5t188.5 35.5zM1153 609q5 115 -34 207.5t-107 148.5t-149 85t-166 29q-84 0 -161 -29.5t-141 -85.5t-105 -147.5t-48 -207.5h911z" glyph-name="edotaccent" horiz-adv-x="1392" unicode="ė"/><glyph d="M1185 1375h-898v-630h816v-57h-816v-630h898v-58h-456q-146 -46 -133 -137q5 -41 60 -58.5t124 -1.5l6 -43q-97 -28 -168 1t-76 92q-8 114 135 147h-458v1434h966v-59z" glyph-name="Eogonek" horiz-adv-x="1404" unicode="Ę"/><glyph d="M696 1135q81 0 159 -22.5t147 -70.5t119.5 -115t76 -163.5t14.5 -210.5h-971q1 -103 34 -190.5t86.5 -144.5t122.5 -97.5t140 -58.5t142 -18q185 0 325 84v-61q-138 -78 -333 -78h-8q-112 -45 -102 -126q5 -41 60 -58.5t125 -1.5l6 -43q-97 -28 -168.5 1t-76.5 92 q-8 101 105 139q-76 7 -148 32t-140.5 72t-119.5 111t-82.5 156t-31.5 199q0 141 45 253.5t120 180.5t165.5 103.5t188.5 35.5zM1153 609q5 115 -34 207.5t-107 148.5t-149 85t-166 29q-84 0 -161 -29.5t-141 -85.5t-105 -147.5t-48 -207.5h911z" glyph-name="eogonek" horiz-adv-x="1392" unicode="ę"/><glyph d="M891 1891h67l-213 -307h-87l-214 307h68l190 -270zM287 58h898v-58h-966v1434h966v-59h-898v-630h816v-57h-816v-630z" glyph-name="Ecaron" horiz-adv-x="1404" unicode="Ě"/><glyph d="M741 1274h-87l-214 307h68l190 -270l189 270h67zM696 1135q81 0 159 -22.5t147 -70.5t119.5 -115t76 -163.5t14.5 -210.5h-971q1 -103 34 -190.5t86.5 -144.5t122.5 -97.5t140 -58.5t142 -18q185 0 325 84v-61q-138 -78 -333 -78q-79 0 -158.5 20.5t-156 66t-135.5 110.5 t-95 162.5t-36 213.5q0 141 45 253.5t120 180.5t165.5 103.5t188.5 35.5zM1153 609q5 115 -34 207.5t-107 148.5t-149 85t-166 29q-84 0 -161 -29.5t-141 -85.5t-105 -147.5t-48 -207.5h911z" glyph-name="ecaron" horiz-adv-x="1392" unicode="ě"/><glyph d="M1066 1804q-2 -91 -67 -155.5t-157 -64.5t-158 64.5t-68 155.5h55q0 -70 49.5 -119.5t121.5 -49.5q70 0 120 50t51 119h53zM835 752h448v-617q-90 -70 -204.5 -108t-233.5 -38q-103 0 -201.5 28t-186.5 87.5t-154.5 144t-105.5 205t-39 263t39 263.5t105.5 205.5 t154.5 144t186 87.5t202 28q194 0 359 -96v-67q-163 106 -359 104q-117 0 -225.5 -42t-197.5 -122.5t-143 -211t-54 -293.5t54 -293.5t143 -211t197.5 -123t225.5 -42.5q99 0 209 37t167 87v524h-386v57z" glyph-name="Gbreve" horiz-adv-x="1502" unicode="Ğ"/><glyph d="M953 1494q-2 -91 -67 -155.5t-157 -64.5t-157.5 64.5t-67.5 155.5h54q0 -70 49.5 -119.5t121.5 -49.5q70 0 120 49.5t51 119.5h53zM1175 1123h62v-1020q0 -140 -44.5 -245t-121.5 -164t-168.5 -87t-196.5 -28q-190 0 -329 78v63q137 -84 325 -84q75 0 141 15t127.5 49 t105.5 85.5t70 131.5t26 181v203q-59 -153 -187 -230.5t-283 -77.5q-102 0 -194 35t-167 103t-119.5 179.5t-44.5 252.5q0 117 29.5 213t79.5 162t117.5 111t142 65.5t153.5 20.5q100 0 190.5 -31.5t167.5 -102.5t117 -175zM240 563q0 -127 38.5 -228t105.5 -162t149 -93.5 t174 -32.5q88 0 169 31.5t147.5 90.5t106 156t41.5 219v37q-1 104 -27.5 189t-71 141.5t-104.5 95.5t-125 55.5t-136 16.5q-91 0 -173 -30.5t-149.5 -91t-106 -162.5t-38.5 -232z" glyph-name="gbreve" horiz-adv-x="1455" unicode="ğ"/><glyph d="M790 1682h104v-98h-104v98zM835 752h448v-617q-90 -70 -204.5 -108t-233.5 -38q-103 0 -201.5 28t-186.5 87.5t-154.5 144t-105.5 205t-39 263t39 263.5t105.5 205.5t154.5 144t186 87.5t202 28q194 0 359 -96v-67q-163 106 -359 104q-117 0 -225.5 -42t-197.5 -122.5 t-143 -211t-54 -293.5t54 -293.5t143 -211t197.5 -123t225.5 -42.5q99 0 209 37t167 87v524h-386v57z" glyph-name="Gdotaccent" horiz-adv-x="1502" unicode="Ġ"/><glyph d="M677 1372h104v-98h-104v98zM1175 1123h62v-1020q0 -140 -44.5 -245t-121.5 -164t-168.5 -87t-196.5 -28q-190 0 -329 78v63q137 -84 325 -84q75 0 141 15t127.5 49t105.5 85.5t70 131.5t26 181v203q-59 -153 -187 -230.5t-283 -77.5q-102 0 -194 35t-167 103 t-119.5 179.5t-44.5 252.5q0 117 29.5 213t79.5 162t117.5 111t142 65.5t153.5 20.5q100 0 190.5 -31.5t167.5 -102.5t117 -175zM240 563q0 -127 38.5 -228t105.5 -162t149 -93.5t174 -32.5q88 0 169 31.5t147.5 90.5t106 156t41.5 219v37q-1 104 -27.5 189t-71 141.5 t-104.5 95.5t-125 55.5t-136 16.5q-91 0 -173 -30.5t-149.5 -91t-106 -162.5t-38.5 -232z" glyph-name="gdotaccent" horiz-adv-x="1455" unicode="ġ"/><glyph d="M835 752h448v-617q-90 -70 -204.5 -108t-233.5 -38q-103 0 -201.5 28t-186.5 87.5t-154.5 144t-105.5 205t-39 263t39 263.5t105.5 205.5t154.5 144t186 87.5t202 28q194 0 359 -96v-67q-163 106 -359 104q-117 0 -225.5 -42t-197.5 -122.5t-143 -211t-54 -293.5 t54 -293.5t143 -211t197.5 -123t225.5 -42.5q99 0 209 37t167 87v524h-386v57zM807 -101h73l-75 -418h-51z" glyph-name="Gcommaaccent" horiz-adv-x="1502" unicode="Ģ"/><glyph d="M764 1273h-73l75 418h52zM1175 1123h62v-1020q0 -140 -44.5 -245t-121.5 -164t-168.5 -87t-196.5 -28q-190 0 -329 78v63q137 -84 325 -84q75 0 141 15t127.5 49t105.5 85.5t70 131.5t26 181v203q-59 -153 -187 -230.5t-283 -77.5q-102 0 -194 35t-167 103t-119.5 179.5 t-44.5 252.5q0 117 29.5 213t79.5 162t117.5 111t142 65.5t153.5 20.5q100 0 190.5 -31.5t167.5 -102.5t117 -175zM240 563q0 -127 38.5 -228t105.5 -162t149 -93.5t174 -32.5q88 0 169 31.5t147.5 90.5t106 156t41.5 219v37q-1 104 -27.5 189t-71 141.5t-104.5 95.5 t-125 55.5t-136 16.5q-91 0 -173 -30.5t-149.5 -91t-106 -162.5t-38.5 -232z" glyph-name="gcommaaccent" horiz-adv-x="1455" unicode="ģ"/><glyph d="M1439 1158v-50h-191v-1108h-67v688h-894v-688h-68v1108h-190v50h190v276h68v-276h894v276h67v-276h191zM1181 745v363h-894v-363h894z" glyph-name="Hbar" horiz-adv-x="1467" unicode="Ħ"/><glyph d="M790 1135q90 0 164 -25.5t134 -78.5t93.5 -145.5t33.5 -218.5v-667h-64v659q0 114 -28.5 197t-81.5 130.5t-118.5 69.5t-146.5 22q-71 0 -138.5 -17t-131.5 -55t-112.5 -93t-78.5 -136.5t-33 -179.5l-1 -597h-64v1303h-139v50h139v183h65v-183h442v-50h-442v-479 q41 103 124.5 175.5t181 104t202.5 31.5z" glyph-name="hbar" horiz-adv-x="1432" unicode="ħ"/><glyph d="M-24 1585q-1 73 39 122t109 49q38 0 77 -20t66 -44t61 -44t63 -20q36 0 61.5 36.5t25.5 82.5h51q0 -73 -42.5 -121t-106.5 -48q-36 0 -83 31.5t-92.5 63t-77.5 31.5q-45 -1 -72 -36t-27 -84zM287 0h-68v1434h68v-1434z" glyph-name="Itilde" horiz-adv-x="505" unicode="Ĩ"/><glyph d="M-27 1275q-1 73 39 122t109 49q38 0 77 -20t66 -44t61 -44t63 -20q36 0 61.5 36.5t25.5 82.5h51q0 -73 -42.5 -121t-106.5 -48q-36 0 -83 31.5t-92.5 63t-77.5 31.5q-45 -1 -72 -36t-27 -84zM217 1123h65v-1123h-65v1123z" glyph-name="itilde" horiz-adv-x="498" unicode="ĩ"/><glyph d="M16 1637h471v-53h-471v53zM287 0h-68v1434h68v-1434z" glyph-name="Imacron" horiz-adv-x="505" unicode="Ī"/><glyph d="M13 1327h471v-53h-471v53zM217 1123h65v-1123h-65v1123z" glyph-name="imacron" horiz-adv-x="498" unicode="ī"/><glyph d="M331 -197l6 -43q-97 -28 -168.5 1t-76.5 92q-8 114 135 147h-8v1434h68v-1434h-7q-146 -46 -134 -137q5 -41 60 -58.5t125 -1.5z" glyph-name="Iogonek" horiz-adv-x="505" unicode="Į"/><glyph d="M307 1434v-78h-110v78h110zM330 -197l6 -43q-97 -28 -168.5 1t-76.5 92q-8 114 135 147h-7v1123h65v-1123h-5q-146 -46 -134 -137q5 -41 60 -58.5t125 -1.5z" glyph-name="iogonek" horiz-adv-x="503" unicode="į"/><glyph d="M201 1682h104v-98h-104v98zM287 0h-68v1434h68v-1434z" glyph-name="Idotaccent" horiz-adv-x="505" unicode="İ"/><glyph d="M217 1123h65v-1123h-65v1123z" glyph-name="dotlessi" horiz-adv-x="498" unicode="ı"/><glyph d="M287 0h-68v1434h68v-1434zM659 85q95 -39 230 -37q273 1 273 367v1019h67v-1020q0 -425 -338 -425q-137 0 -232 34v62z" glyph-name="IJ" horiz-adv-x="1447" unicode="Ĳ"/><glyph d="M1168 1434l-795 -715l795 -719h-88l-793 716v-716h-68v1434h68v-712l793 712h88zM565 -519l53 418h73l-75 -418h-51z" glyph-name="Kcommaaccent" horiz-adv-x="1265" unicode="Ķ"/><glyph d="M1064 1123l-546 -497l546 -626h-78l-512 586l-192 -176v-410h-65v1536h65v-1048l697 635h85zM503 -519l53 418h73l-75 -418h-51z" glyph-name="kcommaaccent" horiz-adv-x="1181" unicode="ķ"/><glyph d="M1064 1123l-546 -497l546 -626h-78l-512 586l-192 -176v-410h-65v1123h65v-635l697 635h85z" glyph-name="kgreenlandic" horiz-adv-x="1181" unicode="ĸ"/><glyph d="M982 1891l-266 -307h-68l259 307h75zM287 1434v-1376h857v-58h-925v1434h68z" glyph-name="Lacute" horiz-adv-x="1319" unicode="Ĺ"/><glyph d="M549 1994l-266 -307h-68l259 307h75zM217 1536h65v-1536h-65v1536z" glyph-name="lacute" horiz-adv-x="498" unicode="ĺ"/><glyph d="M287 1434v-1376h857v-58h-925v1434h68zM647 -101h73l-75 -418h-51z" glyph-name="Lcommaaccent" horiz-adv-x="1319" unicode="Ļ"/><glyph d="M217 1536h65v-1536h-65v1536zM215 -101h73l-75 -418h-51z" glyph-name="lcommaaccent" horiz-adv-x="498" unicode="ļ"/><glyph d="M287 1434v-1376h857v-58h-925v1434h68zM1076 1431h74l-76 -423h-52z" glyph-name="Lcaron" horiz-adv-x="1362" unicode="Ľ"/><glyph d="M217 1536h65v-1536h-65v1536zM622 1431h74l-76 -423h-53z" glyph-name="lcaron" horiz-adv-x="915" unicode="ľ"/><glyph d="M287 1434v-1376h857v-58h-925v1434h68zM1111 768h110v-102h-110v102z" glyph-name="Ldot" horiz-adv-x="1440" unicode="Ŀ"/><glyph d="M217 1536h65v-1536h-65v1536zM383 819h110v-102h-110v102z" glyph-name="ldot" horiz-adv-x="710" unicode="ŀ"/><glyph d="M287 58h857v-58h-925v691l-132 -18v49l132 18v694h68v-684l531 74v-49l-531 -75v-642z" glyph-name="Lslash" horiz-adv-x="1319" unicode="Ł"/><glyph d="M470 848v-50l-188 -44v-754h-65v739l-188 -44v50l188 45v746h65v-732z" glyph-name="lslash" horiz-adv-x="498" unicode="ł"/><glyph d="M1073 1891l-266 -307h-68l259 307h75zM1260 1434h66v-1434h-81l-958 1343v-1343h-68v1434h82l959 -1343v1343z" glyph-name="Nacute" horiz-adv-x="1546" unicode="Ń"/><glyph d="M1017 1581l-266 -307h-68l259 307h75zM281 0h-64v1123h65v-299q41 103 124.5 175.5t180.5 104t203 31.5q90 0 164 -25.5t134 -78.5t93.5 -145.5t33.5 -218.5v-667h-64v659q0 114 -28.5 197t-81.5 130.5t-118.5 69.5t-146.5 22q-71 0 -138.5 -17t-131.5 -55t-112.5 -93 t-78.5 -136.5t-33 -179.5z" glyph-name="nacute" horiz-adv-x="1432" unicode="ń"/><glyph d="M1260 1434h66v-1434h-81l-958 1343v-1343h-68v1434h82l959 -1343v1343zM738 -101h73l-75 -418h-51z" glyph-name="Ncommaaccent" horiz-adv-x="1546" unicode="Ņ"/><glyph d="M281 0h-64v1123h65v-299q41 103 124.5 175.5t180.5 104t203 31.5q90 0 164 -25.5t134 -78.5t93.5 -145.5t33.5 -218.5v-667h-64v659q0 114 -28.5 197t-81.5 130.5t-118.5 69.5t-146.5 22q-71 0 -138.5 -17t-131.5 -55t-112.5 -93t-78.5 -136.5t-33 -179.5zM682 -101h73 l-75 -418h-51z" glyph-name="ncommaaccent" horiz-adv-x="1432" unicode="ņ"/><glyph d="M962 1891h67l-213 -307h-87l-214 307h68l190 -270zM1260 1434h66v-1434h-81l-958 1343v-1343h-68v1434h82l959 -1343v1343z" glyph-name="Ncaron" horiz-adv-x="1546" unicode="Ň"/><glyph d="M905 1581h68l-213 -307h-87l-214 307h67l191 -270zM281 0h-64v1123h65v-299q41 103 124.5 175.5t180.5 104t203 31.5q90 0 164 -25.5t134 -78.5t93.5 -145.5t33.5 -218.5v-667h-64v659q0 114 -28.5 197t-81.5 130.5t-118.5 69.5t-146.5 22q-71 0 -138.5 -17t-131.5 -55 t-112.5 -93t-78.5 -136.5t-33 -179.5z" glyph-name="ncaron" horiz-adv-x="1432" unicode="ň"/><glyph d="M273 1536h75l-77 -423h-52zM502 0h-64v1123h65v-299q41 103 125 175.5t180.5 104t202.5 31.5q90 0 164 -25.5t134 -78.5t94 -145.5t34 -218.5v-667h-65v659q0 114 -28.5 197t-81.5 130.5t-118.5 69.5t-146.5 22q-71 0 -138 -17t-131 -55t-113 -93t-79 -136.5t-33 -179.5z " glyph-name="napostrophe" horiz-adv-x="1653" unicode="ŉ"/><glyph d="M1260 1434h66v-1438q0 -120 -45 -172t-147 -52q-54 0 -97 11l7 45q37 -6 85 -5q80 1 106.5 43t26.5 134h-17l-958 1343v-1343h-68v1434h82l959 -1343v1343z" glyph-name="Eng" horiz-adv-x="1546" unicode="Ŋ"/><glyph d="M790 1135q90 0 164 -25.5t134 -78.5t93.5 -145.5t33.5 -218.5v-671q0 -120 -45 -172t-147 -52q-53 0 -96 11l7 45q37 -6 85 -5q80 1 106 43t26 134v659q0 114 -28.5 197t-81.5 130.5t-118.5 69.5t-146.5 22q-71 0 -138.5 -17t-131.5 -55t-112.5 -93t-78.5 -136.5 t-33 -179.5l-1 -597h-64v1123h65v-299q41 103 124.5 175.5t181 104t202.5 31.5z" glyph-name="eng" horiz-adv-x="1432" unicode="ŋ"/><glyph d="M609 1637h471v-53h-471v53zM1532 716.5q0 -142.5 -39 -263t-105.5 -205t-154.5 -144t-186.5 -87.5t-202 -28t-201.5 28t-186 87.5t-154.5 144t-105.5 205t-39 263t39 263.5t105.5 205.5t154.5 144t186 87.5t201.5 28t202 -28t187 -87.5t154.5 -144t105 -205.5t39 -263.5z M845 47q93 0 181.5 26t168.5 80.5t140 132.5t95 189t35 242t-35 242t-95 189t-140 132t-168.5 80t-181.5 26t-181.5 -26t-168 -80t-139.5 -132t-95.5 -189t-35.5 -242t35.5 -242t95.5 -189t139.5 -132.5t168 -80.5t181.5 -26z" glyph-name="Omacron" horiz-adv-x="1689" unicode="Ō"/><glyph d="M490 1327h472v-53h-472v53zM1276 562q0 -117 -32 -214t-85.5 -162.5t-125 -110.5t-149 -65.5t-158.5 -20.5t-157.5 20.5t-148.5 65.5t-125 110.5t-85.5 162.5t-32.5 214q0 114 32 209.5t85.5 161.5t124 112.5t148.5 68t159 21.5t159 -21.5t149 -68t124.5 -112.5 t85.5 -161.5t32 -209.5zM726 44q73 0 141.5 19t131.5 60t110 100.5t74.5 147t27.5 191.5q0 126 -42 227.5t-111.5 163.5t-154.5 94t-177 32q-91 0 -176 -32t-154.5 -94t-111.5 -163.5t-42 -227.5q0 -104 28 -191.5t74.5 -147t109.5 -100.5t131.5 -60t140.5 -19z" glyph-name="omacron" horiz-adv-x="1453" unicode="ō"/><glyph d="M869 1894l-163 -310h-60l161 310h62zM1044 1894l-163 -310h-59l161 310h61zM1532 716.5q0 -142.5 -39 -263t-105.5 -205t-154.5 -144t-186.5 -87.5t-202 -28t-201.5 28t-186 87.5t-154.5 144t-105.5 205t-39 263t39 263.5t105.5 205.5t154.5 144t186 87.5t201.5 28 t202 -28t187 -87.5t154.5 -144t105 -205.5t39 -263.5zM845 47q93 0 181.5 26t168.5 80.5t140 132.5t95 189t35 242t-35 242t-95 189t-140 132t-168.5 80t-181.5 26t-181.5 -26t-168 -80t-139.5 -132t-95.5 -189t-35.5 -242t35.5 -242t95.5 -189t139.5 -132.5t168 -80.5 t181.5 -26z" glyph-name="Ohungarumlaut" horiz-adv-x="1689" unicode="Ő"/><glyph d="M751 1584l-164 -310h-60l161 310h63zM926 1584l-164 -310h-59l161 310h62zM1276 562q0 -117 -32 -214t-85.5 -162.5t-125 -110.5t-149 -65.5t-158.5 -20.5t-157.5 20.5t-148.5 65.5t-125 110.5t-85.5 162.5t-32.5 214q0 114 32 209.5t85.5 161.5t124 112.5t148.5 68 t159 21.5t159 -21.5t149 -68t124.5 -112.5t85.5 -161.5t32 -209.5zM726 44q73 0 141.5 19t131.5 60t110 100.5t74.5 147t27.5 191.5q0 126 -42 227.5t-111.5 163.5t-154.5 94t-177 32q-91 0 -176 -32t-154.5 -94t-111.5 -163.5t-42 -227.5q0 -104 28 -191.5t74.5 -147 t109.5 -100.5t131.5 -60t140.5 -19z" glyph-name="ohungarumlaut" horiz-adv-x="1453" unicode="ő"/><glyph d="M2431 1375h-899v-630h816v-57h-816v-630h899v-58h-966v381q-56 -127 -157 -217.5t-218.5 -132.5t-244.5 -42q-103 0 -201.5 28t-186.5 87.5t-154.5 144t-105.5 205t-39 263t39 263.5t105.5 205.5t154.5 144t186 87.5t202 28q128 0 245.5 -42t218 -132t156.5 -217v380h966 v-59zM845 47q93 0 181.5 26t168.5 80.5t140 132.5t95 189t35 242t-35 242t-95 189t-140 132t-168.5 80t-181.5 26t-181.5 -26t-168 -80t-139.5 -132t-95.5 -189t-35.5 -242t35.5 -242t95.5 -189t139.5 -132.5t168 -80.5t181.5 -26z" glyph-name="OE" horiz-adv-x="2650" unicode="Œ"/><glyph d="M1737 1135q81 0 158.5 -22.5t147.5 -70.5t120 -115t75.5 -163.5t15.5 -210.5h-973q1 -103 34.5 -190.5t86.5 -144.5t122 -97.5t140.5 -58.5t141.5 -18q185 0 325 84v-61q-138 -78 -332 -78q-81 0 -162.5 22.5t-157.5 66t-137.5 117t-93.5 166.5q-28 -94 -83.5 -167 t-126.5 -117t-150 -66t-162 -22q-81 0 -157.5 20.5t-148.5 65.5t-125 110.5t-85.5 162.5t-32.5 214q0 114 32 209.5t85.5 161.5t124 112.5t148.5 68t159 21.5q82 0 161 -23t149 -67.5t125.5 -115.5t84.5 -162q53 178 190 273t301 95zM726 44q73 0 141.5 19t131.5 60 t110 100.5t74.5 147t27.5 191.5q0 126 -42 227.5t-111.5 163.5t-154.5 94t-177 32q-91 0 -176 -32t-154.5 -94t-111.5 -163.5t-42 -227.5q0 -104 28 -191.5t74.5 -147t109.5 -100.5t131.5 -60t140.5 -19zM2193 609q4 93 -20.5 171.5t-69.5 133t-105.5 92t-126.5 55.5 t-132 18q-84 0 -161.5 -29.5t-141.5 -85.5t-105.5 -147.5t-48.5 -207.5h911z" glyph-name="oe" horiz-adv-x="2434" unicode="œ"/><glyph d="M988 1891l-266 -307h-68l259 307h75zM1218 0h-74l-366 596q-195 -41 -491 -41v-555h-68v1434h554q202 0 320.5 -111.5t118.5 -303.5q1 -158 -89.5 -257.5t-279.5 -150.5zM287 1376v-764q458 0 658.5 96.5t200.5 310.5q0 170 -101 263.5t-274 93.5h-484z" glyph-name="Racute" horiz-adv-x="1376" unicode="Ŕ"/><glyph d="M753 1581l-267 -307h-67l259 307h75zM281 0h-64v1123h65v-299q60 152 201 231.5t303 79.5v-57q-72 0 -140.5 -17t-134 -55t-115.5 -93t-80.5 -136.5t-33.5 -179.5z" glyph-name="racute" horiz-adv-x="903" unicode="ŕ"/><glyph d="M1218 0h-74l-366 596q-195 -41 -491 -41v-555h-68v1434h554q202 0 320.5 -111.5t118.5 -303.5q1 -158 -89.5 -257.5t-279.5 -150.5zM287 1376v-764q458 0 658.5 96.5t200.5 310.5q0 170 -101 263.5t-274 93.5h-484zM600 -519l53 418h73l-75 -418h-51z" glyph-name="Rcommaaccent" horiz-adv-x="1376" unicode="Ŗ"/><glyph d="M281 0h-64v1123h65v-299q60 152 201 231.5t303 79.5v-57q-72 0 -140.5 -17t-134 -55t-115.5 -93t-80.5 -136.5t-33.5 -179.5zM418 -101h72l-74 -418h-51z" glyph-name="rcommaaccent" horiz-adv-x="903" unicode="ŗ"/><glyph d="M731 1584h-87l-214 307h68l190 -270l189 270h67zM1218 0h-74l-366 596q-195 -41 -491 -41v-555h-68v1434h554q202 0 320.5 -111.5t118.5 -303.5q1 -158 -89.5 -257.5t-279.5 -150.5zM287 1376v-764q458 0 658.5 96.5t200.5 310.5q0 170 -101 263.5t-274 93.5h-484z" glyph-name="Rcaron" horiz-adv-x="1376" unicode="Ř"/><glyph d="M642 1581h68l-213 -307h-87l-214 307h67l191 -270zM281 0h-64v1123h65v-299q60 152 201 231.5t303 79.5v-57q-72 0 -140.5 -17t-134 -55t-115.5 -93t-80.5 -136.5t-33.5 -179.5z" glyph-name="rcaron" horiz-adv-x="903" unicode="ř"/><glyph d="M942 1891l-266 -307h-68l259 307h75zM161 184q174 -136 455 -136q114 0 221 38.5t177 108.5t71 153q1 46 -10 84t-31.5 66.5t-54 53.5t-70.5 43t-89 35.5t-102.5 32.5t-116.5 32q-15 4 -23 6q-102 28 -175.5 59t-134.5 74t-91 100t-29 130q4 173 136 277t369 104 q199 0 361 -98l-1 -69q-162 109 -360 108q-206 0 -321.5 -88.5t-117.5 -235.5q-1 -45 14 -83.5t47.5 -68.5t69 -53t95.5 -45t107.5 -37.5t123.5 -36.5q100 -28 167.5 -51t130 -56.5t98 -72t55.5 -91.5t19 -122q-2 -101 -82 -184.5t-201.5 -127t-251.5 -43.5q-282 0 -456 123 z" glyph-name="Sacute" horiz-adv-x="1309" unicode="Ś"/><glyph d="M892 1581l-266 -307h-68l259 307h75zM179 132q76 -39 181 -62.5t209 -23.5q140 -1 245.5 63t106.5 161q0 28 -6.5 51.5t-15 42.5t-27.5 36.5t-35 30t-46 26.5t-52.5 22.5t-62.5 21t-67 20t-75 20.5q-170 43 -261 117t-91 191q0 133 110 209.5t302 76.5q194 0 331 -79v-65 q-141 86 -328 87q-163 0 -256.5 -60t-93.5 -170q0 -100 88.5 -158.5t272.5 -107.5q81 -22 135 -40.5t103.5 -44.5t77.5 -56t44.5 -72t16.5 -97q0 -81 -60 -147t-153.5 -101t-197.5 -35q-111 0 -216.5 21.5t-178.5 57.5v64z" glyph-name="sacute" horiz-adv-x="1162" unicode="ś"/><glyph d="M681 738q100 -28 167.5 -51t130 -56.5t98 -72t55.5 -91.5t19 -122q-2 -97 -76.5 -178t-187 -125.5t-238.5 -50.5l-46 -49q6 1 34 1q46 0 76.5 -22t30.5 -68q0 -94 -148 -95q-39 0 -89 8v46q36 -5 67 -6q113 0 113 47q0 29 -23 38t-73 9q-28 0 -39 -1v40l49 51 q-270 3 -441 123l1 71q174 -136 455 -136q114 0 221 38.5t177 108.5t71 153q1 46 -10 84t-31.5 66.5t-54 53.5t-70.5 43t-89 35.5t-102.5 32.5t-116.5 32q-15 4 -23 6q-102 28 -175.5 59t-134.5 74t-91 100t-29 130q4 173 136 277t369 104q199 0 361 -98l-1 -69 q-162 109 -360 108q-206 0 -321.5 -88.5t-117.5 -235.5q-1 -45 14 -83.5t47.5 -68.5t69 -53t95.5 -45t107.5 -38t123.5 -36z" glyph-name="Scedilla" horiz-adv-x="1309" unicode="Ş"/><glyph d="M985 272q0 -118 -119.5 -198t-275.5 -85l-45 -47q6 1 34 1q46 0 76.5 -22t30.5 -68q0 -94 -148 -95q-39 0 -89 8v46q36 -5 67 -6q113 0 113 47q0 29 -23 38t-74 9q-28 0 -38 -1v40l49 50q-220 6 -364 79v64q76 -39 181 -62.5t209 -23.5q140 -1 245.5 63t106.5 161 q0 28 -6.5 51.5t-15 42.5t-27.5 36.5t-35 30t-46 26.5t-52.5 22.5t-62.5 21t-67 20t-75 20.5q-170 43 -261 117t-91 191q0 133 110 209.5t302 76.5q194 0 331 -79v-65q-141 86 -328 87q-163 0 -256.5 -60t-93.5 -170q0 -100 88.5 -158.5t272.5 -107.5q81 -22 135 -40.5 t103.5 -44.5t77.5 -56t44.5 -72.5t16.5 -96.5z" glyph-name="scedilla" horiz-adv-x="1162" unicode="ş"/><glyph d="M831 1891h68l-213 -307h-87l-214 307h68l190 -270zM161 184q174 -136 455 -136q114 0 221 38.5t177 108.5t71 153q1 46 -10 84t-31.5 66.5t-54 53.5t-70.5 43t-89 35.5t-102.5 32.5t-116.5 32q-15 4 -23 6q-102 28 -175.5 59t-134.5 74t-91 100t-29 130q4 173 136 277 t369 104q199 0 361 -98l-1 -69q-162 109 -360 108q-206 0 -321.5 -88.5t-117.5 -235.5q-1 -45 14 -83.5t47.5 -68.5t69 -53t95.5 -45t107.5 -37.5t123.5 -36.5q100 -28 167.5 -51t130 -56.5t98 -72t55.5 -91.5t19 -122q-2 -101 -82 -184.5t-201.5 -127t-251.5 -43.5 q-282 0 -456 123z" glyph-name="Scaron" horiz-adv-x="1309" unicode="Š"/><glyph d="M781 1581h68l-213 -307h-87l-214 307h67l191 -270zM179 132q76 -39 181 -62.5t209 -23.5q140 -1 245.5 63t106.5 161q0 28 -6.5 51.5t-15 42.5t-27.5 36.5t-35 30t-46 26.5t-52.5 22.5t-62.5 21t-67 20t-75 20.5q-170 43 -261 117t-91 191q0 133 110 209.5t302 76.5 q194 0 331 -79v-65q-141 86 -328 87q-163 0 -256.5 -60t-93.5 -170q0 -100 88.5 -158.5t272.5 -107.5q81 -22 135 -40.5t103.5 -44.5t77.5 -56t44.5 -72t16.5 -97q0 -81 -60 -147t-153.5 -101t-197.5 -35q-111 0 -216.5 21.5t-178.5 57.5v64z" glyph-name="scaron" horiz-adv-x="1162" unicode="š"/><glyph d="M586 0h-11l-55 -58q6 1 34 1q46 0 77 -22t31 -68q0 -94 -149 -95q-39 0 -89 8v46q36 -5 68 -6q113 0 112 47q0 29 -23 38t-73 9q-28 0 -39 -1v40l59 61h-9v1375h-461v59h988v-59h-460v-1375z" glyph-name="Tcommaaccent" horiz-adv-x="1103" unicode="Ţ"/><glyph d="M767 0h-230q-85 0 -132 60t-47 162v846h-181v55h181v225h65v-225h344v-55h-344v-838q0 -80 37 -128t97 -48h210v-54zM494 -57q46 0 76.5 -22t30.5 -68q0 -94 -148 -95q-39 0 -89 8v46q36 -5 67 -6q113 0 113 47q0 29 -23 38t-74 9q-28 0 -38 -1v40l59 61h47l-55 -58 q6 1 34 1z" glyph-name="tcommaaccent" horiz-adv-x="984" unicode="ţ"/><glyph d="M596 1584h-87l-214 307h67l191 -270l188 270h68zM1046 1434v-59h-460v-1375h-67v1375h-461v59h988z" glyph-name="Tcaron" horiz-adv-x="1103" unicode="Ť"/><glyph d="M955 1431h75l-77 -423h-51zM767 0h-230q-85 0 -132 60t-47 162v846h-181v55h181v225h65v-225h344v-55h-344v-838q0 -80 37 -128t97 -48h210v-54z" glyph-name="tcaron" horiz-adv-x="1249" unicode="ť"/><glyph d="M1046 1375h-460v-609h432v-50h-432v-716h-67v716h-429v50h429v609h-461v59h988v-59z" glyph-name="Tbar" horiz-adv-x="1103" unicode="Ŧ"/><glyph d="M767 1068h-344v-197h344v-50h-344v-591q0 -80 37 -128t97 -48h210v-54h-230q-85 0 -132 60t-47 162v599h-181v50h181v197h-181v55h181v225h65v-225h344v-55z" glyph-name="tbar" horiz-adv-x="984" unicode="ŧ"/><glyph d="M442 1585q-1 73 39 122t109 49q38 0 77 -20t66 -44t61 -44t63 -20q36 0 61.5 36.5t25.5 82.5h51q0 -73 -42.5 -121t-106.5 -48q-36 0 -83 31.5t-92.5 63t-77.5 31.5q-45 -1 -72 -36t-27 -84zM1217 1434v-906q0 -285 -117 -412t-382 -127q-264 0 -381.5 127.5 t-117.5 411.5v906h68v-911q0 -253 98.5 -364.5t332 -111.5t333 111.5t99.5 364.5v911h67z" glyph-name="Utilde" horiz-adv-x="1435" unicode="Ũ"/><glyph d="M410 1275q-1 73 38.5 122t108.5 49q38 0 77 -20t66 -44t61.5 -44t62.5 -20q36 0 61.5 36.5t25.5 82.5h52q0 -73 -42.5 -121t-107.5 -48q-36 0 -83 31.5t-92.5 63t-77.5 31.5q-45 -1 -72 -36t-27 -84zM1152 1123h63v-1123h-64v299q-41 -103 -125 -175.5t-180.5 -103.5 t-202.5 -31q-90 0 -164.5 25t-134 78t-93.5 146t-34 219v666h65v-659q0 -114 28.5 -197t81 -130.5t118 -69.5t146.5 -22q71 0 138.5 17t131.5 55.5t112.5 93t79 136t33.5 179.5z" glyph-name="utilde" horiz-adv-x="1433" unicode="ũ"/><glyph d="M482 1637h471v-53h-471v53zM1217 1434v-906q0 -285 -117 -412t-382 -127q-264 0 -381.5 127.5t-117.5 411.5v906h68v-911q0 -253 98.5 -364.5t332 -111.5t333 111.5t99.5 364.5v911h67z" glyph-name="Umacron" horiz-adv-x="1435" unicode="Ū"/><glyph d="M450 1327h471v-53h-471v53zM1152 1123h63v-1123h-64v299q-41 -103 -125 -175.5t-180.5 -103.5t-202.5 -31q-90 0 -164.5 25t-134 78t-93.5 146t-34 219v666h65v-659q0 -114 28.5 -197t81 -130.5t118 -69.5t146.5 -22q71 0 138.5 17t131.5 55.5t112.5 93t79 136 t33.5 179.5z" glyph-name="umacron" horiz-adv-x="1433" unicode="ū"/><glyph d="M718 1584q-71 0 -121 50t-50 121q0 70 50 120t121 50q70 0 120 -50t50 -120q0 -71 -50 -121t-120 -50zM718 1634q49 0 84.5 35.5t35.5 85.5q0 49 -35.5 84.5t-84.5 35.5q-50 0 -85.5 -35.5t-35.5 -84.5q0 -50 35.5 -85.5t85.5 -35.5zM1217 1434v-906q0 -285 -117 -412 t-382 -127q-264 0 -381.5 127.5t-117.5 411.5v906h68v-911q0 -253 98.5 -364.5t332 -111.5t333 111.5t99.5 364.5v911h67z" glyph-name="Uring" horiz-adv-x="1435" unicode="Ů"/><glyph d="M685 1274q-71 0 -121 50t-50 121q0 70 50 120t121 50q70 0 120 -50.5t50 -119.5q0 -71 -50 -121t-120 -50zM685 1324q49 0 84.5 35.5t35.5 85.5q0 49 -35.5 84.5t-84.5 35.5q-50 0 -85.5 -35.5t-35.5 -84.5q0 -50 35.5 -85.5t85.5 -35.5zM1152 1123h63v-1123h-64v299 q-41 -103 -125 -175.5t-180.5 -103.5t-202.5 -31q-90 0 -164.5 25t-134 78t-93.5 146t-34 219v666h65v-659q0 -114 28.5 -197t81 -130.5t118 -69.5t146.5 -22q71 0 138.5 17t131.5 55.5t112.5 93t79 136t33.5 179.5z" glyph-name="uring" horiz-adv-x="1433" unicode="ů"/><glyph d="M741 1894l-163 -310h-60l161 310h62zM916 1894l-163 -310h-59l161 310h61zM1217 1434v-906q0 -285 -117 -412t-382 -127q-264 0 -381.5 127.5t-117.5 411.5v906h68v-911q0 -253 98.5 -364.5t332 -111.5t333 111.5t99.5 364.5v911h67z" glyph-name="Uhungarumlaut" horiz-adv-x="1435" unicode="Ű"/><glyph d="M710 1584l-164 -310h-60l161 310h63zM885 1584l-164 -310h-58l160 310h62zM1152 1123h63v-1123h-64v299q-41 -103 -125 -175.5t-180.5 -103.5t-202.5 -31q-90 0 -164.5 25t-134 78t-93.5 146t-34 219v666h65v-659q0 -114 28.5 -197t81 -130.5t118 -69.5t146.5 -22 q71 0 138.5 17t131.5 55.5t112.5 93t79 136t33.5 179.5z" glyph-name="uhungarumlaut" horiz-adv-x="1433" unicode="ű"/><glyph d="M1150 1434h67v-906q0 -285 -117 -412t-382 -127h-5q-112 -45 -102 -126q5 -41 60 -58.5t125 -1.5l6 -43q-97 -28 -168.5 1t-76.5 92q-8 99 101 138q-231 13 -335 141t-104 396v906h68v-911q0 -253 98.5 -364.5t332 -111.5t333 111.5t99.5 364.5v911z" glyph-name="Uogonek" horiz-adv-x="1435" unicode="Ų"/><glyph d="M1263 -197l6 -43q-97 -28 -168.5 1t-76.5 92q-8 114 135 147h-8v299q-41 -103 -125 -175.5t-180.5 -103.5t-202.5 -31q-90 0 -164.5 25t-134 78t-93.5 146t-34 219v666h65v-659q0 -114 28.5 -197t81 -130.5t118 -69.5t146.5 -22q71 0 138.5 17t131.5 55.5t112.5 93 t79 136t33.5 179.5l1 597h63v-1123h-4q-146 -46 -133 -137q5 -41 60 -58.5t125 -1.5z" glyph-name="uogonek" horiz-adv-x="1433" unicode="ų"/><glyph d="M1199 1584h-67l-189 271l-190 -271h-68l214 307h87zM1757 1434h71l-418 -1434h-79l-388 1332l-388 -1332h-79l-418 1434h71l388 -1340l389 1340h74l389 -1340z" glyph-name="Wcircumflex" horiz-adv-x="1886" unicode="Ŵ"/><glyph d="M1101 1274h-68l-188 271l-191 -271h-67l214 307h87zM1500 1123h71l-340 -1123h-78l-308 1028l-310 -1028h-78l-338 1123h70l310 -1051l310 1051h72l309 -1051z" glyph-name="wcircumflex" horiz-adv-x="1688" unicode="ŵ"/><glyph d="M874 1584h-67l-189 271l-190 -271h-68l214 307h88zM1102 1434h75l-526 -821v-613h-66v613l-527 821h76l483 -753z" glyph-name="Ycircumflex" horiz-adv-x="1235" unicode="Ŷ"/><glyph d="M855 1274h-68l-188 271l-190 -271h-68l214 307h87zM1011 1123h68l-444 -1058q-18 -43 -34 -77t-41.5 -78.5t-51.5 -79t-63 -70.5t-77.5 -61t-93.5 -43t-111 -25l-2 56q69 9 127 36.5t98 62.5t76 87t57 95t45 102l-445 1053h68l413 -981z" glyph-name="ycircumflex" horiz-adv-x="1197" unicode="ŷ"/><glyph d="M397 1682h105v-98h-105v98zM733 1682h104v-98h-104v98zM1102 1434h75l-526 -821v-613h-66v613l-527 821h76l483 -753z" glyph-name="Ydieresis" horiz-adv-x="1235" unicode="Ÿ"/><glyph d="M1018 1891l-266 -307h-68l259 307h75zM1217 1434v-59l-915 -1317h915v-58h-998v58l915 1317h-915v59h998z" glyph-name="Zacute" horiz-adv-x="1435" unicode="Ź"/><glyph d="M932 1581l-266 -307h-68l259 307h75zM1087 1123v-55l-828 -1012h828v-56h-910v56l829 1012h-829v55h910z" glyph-name="zacute" horiz-adv-x="1264" unicode="ź"/><glyph d="M770 1682v-98h-104v98h104zM1217 1434v-59l-915 -1317h915v-58h-998v58l915 1317h-915v59h998z" glyph-name="Zdotaccent" horiz-adv-x="1435" unicode="Ż"/><glyph d="M684 1372v-98h-104v98h104zM1087 1123v-55l-828 -1012h828v-56h-910v56l829 1012h-829v55h910z" glyph-name="zdotaccent" horiz-adv-x="1264" unicode="ż"/><glyph d="M761 1584h-87l-214 307h67l191 -270l188 270h68zM1217 1434v-59l-915 -1317h915v-58h-998v58l915 1317h-915v59h998z" glyph-name="Zcaron" horiz-adv-x="1435" unicode="Ž"/><glyph d="M676 1274h-87l-214 307h67l191 -270l188 270h68zM1087 1123v-55l-828 -1012h828v-56h-910v56l829 1012h-829v55h910z" glyph-name="zcaron" horiz-adv-x="1264" unicode="ž"/><glyph d="M907 1276q-80 -1 -115 -43t-54 -134l-107 -513h318v-50h-329l-109 -519q-26 -120 -82 -172t-159 -52q-46 0 -93 11l17 45q44 -6 84 -4q80 1 115 42.5t54 134.5l108 514h-267v50h277l109 517q26 121 82 173t158 52q54 -1 95 -12l-17 -45q-37 6 -85 5z" glyph-name="florin" horiz-adv-x="1184" unicode="ƒ"/><glyph d="M477 766v-50h-190v-716h-68v716h-190v50h190v668h68v-668h190z" glyph-name="uni0197" horiz-adv-x="505" unicode="Ɨ"/><glyph d="M725 1584h-87l-214 307h68l190 -270l188 270h68zM1234 0l-148 364h-810l-147 -364h-71l580 1434h87l580 -1434h-71zM300 422h763l-381 944z" glyph-name="uni01CD" horiz-adv-x="1362" unicode="Ǎ"/><glyph d="M871 1581h68l-213 -307h-87l-214 307h68l190 -270zM683 1135q115 0 196.5 -21t141 -71.5t89 -137t29.5 -214.5v-691h-64l-1 183q-26 -32 -67 -63t-102.5 -62t-149 -50t-186.5 -19q-194 1 -293 77t-99 220q-1 120 58.5 193.5t173.5 104t281.5 36.5t383.5 -12v94 q-5 140 -44 220t-122.5 117t-227.5 38q-93 1 -187.5 -22.5t-160.5 -62.5v63q65 37 158.5 58.5t192.5 21.5zM1074 257v294q-278 18 -463.5 10t-278.5 -72t-93 -197q0 -130 88 -188t268 -58q88 0 169 20.5t140.5 53.5t101 67t68.5 70z" glyph-name="uni01CE" horiz-adv-x="1355" unicode="ǎ"/><glyph d="M441 1891h68l-213 -307h-87l-214 307h67l191 -270zM287 0h-68v1434h68v-1434z" glyph-name="uni01CF" horiz-adv-x="505" unicode="Ǐ"/><glyph d="M438 1581h68l-213 -307h-87l-214 307h67l191 -270zM217 1123h65v-1123h-65v1123z" glyph-name="uni01D0" horiz-adv-x="498" unicode="ǐ"/><glyph d="M1034 1891h68l-213 -307h-87l-214 307h67l191 -270zM1532 716.5q0 -142.5 -39 -263t-105.5 -205t-154.5 -144t-186.5 -87.5t-202 -28t-201.5 28t-186 87.5t-154.5 144t-105.5 205t-39 263t39 263.5t105.5 205.5t154.5 144t186 87.5t201.5 28t202 -28t187 -87.5 t154.5 -144t105 -205.5t39 -263.5zM845 47q93 0 181.5 26t168.5 80.5t140 132.5t95 189t35 242t-35 242t-95 189t-140 132t-168.5 80t-181.5 26t-181.5 -26t-168 -80t-139.5 -132t-95.5 -189t-35.5 -242t35.5 -242t95.5 -189t139.5 -132.5t168 -80.5t181.5 -26z" glyph-name="uni01D1" horiz-adv-x="1689" unicode="Ǒ"/><glyph d="M915 1581h68l-213 -307h-87l-214 307h68l190 -270zM1276 562q0 -117 -32 -214t-85.5 -162.5t-125 -110.5t-149 -65.5t-158.5 -20.5t-157.5 20.5t-148.5 65.5t-125 110.5t-85.5 162.5t-32.5 214q0 114 32 209.5t85.5 161.5t124 112.5t148.5 68t159 21.5t159 -21.5t149 -68 t124.5 -112.5t85.5 -161.5t32 -209.5zM726 44q73 0 141.5 19t131.5 60t110 100.5t74.5 147t27.5 191.5q0 126 -42 227.5t-111.5 163.5t-154.5 94t-177 32q-91 0 -176 -32t-154.5 -94t-111.5 -163.5t-42 -227.5q0 -104 28 -191.5t74.5 -147t109.5 -100.5t131.5 -60t140.5 -19 z" glyph-name="uni01D2" horiz-adv-x="1453" unicode="ǒ"/><glyph d="M907 1891h68l-213 -307h-87l-214 307h67l191 -270zM1217 1434v-906q0 -285 -117 -412t-382 -127q-264 0 -381.5 127.5t-117.5 411.5v906h68v-911q0 -253 98.5 -364.5t332 -111.5t333 111.5t99.5 364.5v911h67z" glyph-name="uni01D3" horiz-adv-x="1435" unicode="Ǔ"/><glyph d="M874 1581h68l-213 -307h-87l-214 307h68l190 -270zM1152 1123h63v-1123h-64v299q-41 -103 -125 -175.5t-180.5 -103.5t-202.5 -31q-90 0 -164.5 25t-134 78t-93.5 146t-34 219v666h65v-659q0 -114 28.5 -197t81 -130.5t118 -69.5t146.5 -22q71 0 138.5 17t131.5 55.5 t112.5 93t79 136t33.5 179.5z" glyph-name="uni01D4" horiz-adv-x="1433" unicode="ǔ"/><glyph d="M1031 1891h68l-213 -307h-87l-214 307h67l191 -270zM835 752h448v-617q-90 -70 -204.5 -108t-233.5 -38q-103 0 -201.5 28t-186.5 87.5t-154.5 144t-105.5 205t-39 263t39 263.5t105.5 205.5t154.5 144t186 87.5t202 28q194 0 359 -96v-67q-163 106 -359 104 q-117 0 -225.5 -42t-197.5 -122.5t-143 -211t-54 -293.5t54 -293.5t143 -211t197.5 -123t225.5 -42.5q99 0 209 37t167 87v524h-386v57z" glyph-name="Gcaron" horiz-adv-x="1502" unicode="Ǧ"/><glyph d="M918 1581h67l-213 -307h-87l-214 307h68l190 -270zM1175 1123h62v-1020q0 -140 -44.5 -245t-121.5 -164t-168.5 -87t-196.5 -28q-190 0 -329 78v63q137 -84 325 -84q75 0 141 15t127.5 49t105.5 85.5t70 131.5t26 181v203q-59 -153 -187 -230.5t-283 -77.5 q-102 0 -194 35t-167 103t-119.5 179.5t-44.5 252.5q0 117 29.5 213t79.5 162t117.5 111t142 65.5t153.5 20.5q100 0 190.5 -31.5t167.5 -102.5t117 -175zM240 563q0 -127 38.5 -228t105.5 -162t149 -93.5t174 -32.5q88 0 169 31.5t147.5 90.5t106 156t41.5 219v37 q-1 104 -27.5 189t-71 141.5t-104.5 95.5t-125 55.5t-136 16.5q-91 0 -173 -30.5t-149.5 -91t-106 -162.5t-38.5 -232z" glyph-name="gcaron" horiz-adv-x="1455" unicode="ǧ"/><glyph d="M1128 1891l-266 -307h-67l259 307h74zM1438 1375h-681v-630h600v-57h-600v-630h681v-58h-748v364h-414l-147 -364h-71l580 1434h800v-59zM690 422v964l-390 -964h390z" glyph-name="AEacute" horiz-adv-x="1656" unicode="Ǽ"/><glyph d="M1434 1581l-267 -307h-67l259 307h75zM1606 1135q102 0 197 -37t172.5 -106.5t118.5 -184t29 -254.5h-973q1 -103 35 -190.5t87 -144.5t122 -97.5t140.5 -58.5t141.5 -18q184 0 324 84v-61q-138 -78 -332 -78q-75 0 -150.5 19.5t-147.5 56.5t-133 100.5t-98 143.5v-309 h-64l-1 183q-26 -32 -67 -63t-102.5 -62t-149 -50t-186.5 -19q-194 1 -293 77t-99 220q-1 120 58.5 193.5t173.5 104t281.5 36.5t383.5 -12v94q-5 140 -44 220t-122.5 117t-227.5 38q-93 1 -187.5 -22.5t-160.5 -62.5v63q65 37 158.5 58.5t192.5 21.5q203 0 312.5 -72.5 t134.5 -249.5q42 105 119 179.5t168 108.5t189 34zM2063 609q4 93 -21 171.5t-70 133t-105.5 92t-126.5 55.5t-132 18q-84 0 -161.5 -29.5t-141.5 -85.5t-105.5 -147.5t-48.5 -207.5h912zM1074 257v294q-278 18 -463.5 10t-278.5 -72t-93 -197q0 -130 88 -188t268 -58 q88 0 169 20.5t140.5 53.5t101 67t68.5 70z" glyph-name="aeacute" horiz-adv-x="2302" unicode="ǽ"/><glyph d="M1145 1891l-266 -307h-68l259 307h75zM1369 1208q163 -195 163 -491q0 -142 -39 -263t-105.5 -205.5t-154.5 -144t-186.5 -87.5t-201.5 -28q-138 0 -267 51.5t-226 150.5l-145 -145l-34 34l146 146q-162 196 -161 491q0 142 39 263t105.5 205.5t154.5 144t186 87.5 t202 28q138 0 266.5 -51.5t225.5 -149.5l144 144l33 -34zM225 717q0 -266 142 -444l924 925q-87 92 -204 140t-242 48q-93 0 -181.5 -26t-168 -80t-139.5 -132t-95.5 -189t-35.5 -242zM845 47q93 0 181.5 26t168.5 80.5t140 132.5t95 189t35 242q0 268 -142 445l-926 -925 q87 -93 204.5 -141.5t243.5 -48.5z" glyph-name="Oslashacute" horiz-adv-x="1687" unicode="Ǿ"/><glyph d="M1027 1581l-266 -307h-68l259 307h75zM1146 948q130 -152 130 -386q0 -117 -32 -214t-85.5 -162.5t-125 -110.5t-149 -65.5t-158.5 -20.5q-108 0 -209.5 38t-178.5 112l-144 -144l-33 33l145 145q-129 150 -129 389q0 114 32 209.5t85.5 161.5t124 112.5t148.5 68 t159 21.5q108 0 209.5 -38.5t178.5 -114.5l147 146l32 -32zM242 562q0 -210 108 -345l721 722q-68 69 -158.5 104.5t-186.5 35.5q-91 0 -176 -32t-154.5 -94t-111.5 -163.5t-42 -227.5zM726 44q73 0 141.5 19t131.5 60t110 100.5t74.5 147t27.5 191.5q0 208 -109 342 l-721 -722q68 -69 158.5 -103.5t186.5 -34.5z" glyph-name="oslashacute" horiz-adv-x="1453" unicode="ǿ"/><glyph d="M161 184q174 -136 455 -136q114 0 221 38.5t177 108.5t71 153q1 46 -10 84t-31.5 66.5t-54 53.5t-70.5 43t-89 35.5t-102.5 32.5t-116.5 32q-15 4 -23 6q-102 28 -175.5 59t-134.5 74t-91 100t-29 130q4 173 136 277t369 104q199 0 361 -98l-1 -69q-162 109 -360 108 q-206 0 -321.5 -88.5t-117.5 -235.5q-1 -45 14 -83.5t47.5 -68.5t69 -53t95.5 -45t107.5 -37.5t123.5 -36.5q100 -28 167.5 -51t130 -56.5t98 -72t55.5 -91.5t19 -122q-2 -101 -82 -184.5t-201.5 -127t-251.5 -43.5q-282 0 -456 123zM600 -101h73l-75 -418h-51z" glyph-name="Scommaaccent" horiz-adv-x="1309" unicode="Ș"/><glyph d="M179 132q76 -39 181 -62.5t209 -23.5q140 -1 245.5 63t106.5 161q0 28 -6.5 51.5t-15 42.5t-27.5 36.5t-35 30t-46 26.5t-52.5 22.5t-62.5 21t-67 20t-75 20.5q-170 43 -261 117t-91 191q0 133 110 209.5t302 76.5q194 0 331 -79v-65q-141 86 -328 87q-163 0 -256.5 -60 t-93.5 -170q0 -100 88.5 -158.5t272.5 -107.5q81 -22 135 -40.5t103.5 -44.5t77.5 -56t44.5 -72t16.5 -97q0 -81 -60 -147t-153.5 -101t-197.5 -35q-111 0 -216.5 21.5t-178.5 57.5v64zM543 -101h72l-74 -418h-52z" glyph-name="scommaaccent" horiz-adv-x="1162" unicode="ș"/><glyph d="M1046 1434v-59h-460v-1375h-67v1375h-461v59h988zM464 -519l53 418h73l-75 -418h-51z" glyph-name="uni021A" horiz-adv-x="1103" unicode="Ț"/><glyph d="M767 0h-230q-85 0 -132 60t-47 162v846h-181v55h181v225h65v-225h344v-55h-344v-838q0 -80 37 -128t97 -48h210v-54zM457 -101h72l-74 -418h-52z" glyph-name="uni021B" horiz-adv-x="984" unicode="ț"/><glyph d="M1185 1375h-898v-630h816v-57h-816v-630h898v-58h-459l-55 -58q6 1 34 1q46 0 76.5 -22t30.5 -68q0 -94 -148 -95q-39 0 -90 8v46q36 -5 68 -6q113 0 113 47q0 29 -23 38t-74 9q-28 0 -38 -1v40l59 61h-460v1434h966v-59z" glyph-name="uni0228" horiz-adv-x="1404" unicode="Ȩ"/><glyph d="M696 1135q81 0 159 -22.5t147 -70.5t119.5 -115t76 -163.5t14.5 -210.5h-971q1 -103 34 -190.5t86.5 -144.5t122.5 -97.5t140 -58.5t142 -18q185 0 325 84v-61q-136 -77 -323 -78l-45 -47q6 1 34 1q46 0 76.5 -22t30.5 -68q0 -94 -148 -95q-39 0 -89 8v46q36 -5 67 -6 q113 0 113 47q0 29 -23 38t-73 9q-28 0 -39 -1v40l49 51q-77 5 -152 28t-146.5 69.5t-125.5 111t-87 159t-33 204.5q0 141 45 253.5t120 180.5t165.5 103.5t188.5 35.5zM1153 609q5 115 -34 207.5t-107 148.5t-149 85t-166 29q-84 0 -161 -29.5t-141 -85.5t-105 -147.5 t-48 -207.5h911z" glyph-name="uni0229" horiz-adv-x="1392" unicode="ȩ"/><glyph d="M243 1123v-1127q0 -120 -45 -172t-148 -52q-47 0 -90 10l1 46q37 -6 86 -5q79 1 105 43t26 134v1123h65z" glyph-name="uni0237" horiz-adv-x="421" unicode="ȷ"/><glyph d="M635 1135q79 0 158 -20.5t156 -66.5t136 -111t94.5 -162.5t35.5 -213.5q0 -141 -45 -253t-119.5 -180.5t-165 -103.5t-189.5 -35q-81 0 -158.5 22.5t-146.5 70t-120 114.5t-76 164t-15 210h972q-1 103 -34.5 190.5t-86.5 145t-122 97.5t-140.5 58t-141.5 18 q-185 0 -325 -84v62q138 78 333 78zM695 44q84 0 161.5 29.5t141.5 85.5t105 147.5t48 207.5h-911q-5 -115 33.5 -207.5t107 -148.5t149 -85t165.5 -29z" glyph-name="uni0259" horiz-adv-x="1392" unicode="ə"/><glyph d="M307 1434v-78h-110v78h110zM454 643v-57h-170v-586h-65v586h-170v57h170v480h65v-480h170z" glyph-name="uni0268" horiz-adv-x="503" unicode="ɨ"/><glyph d="M733 1274h-67l-189 271l-190 -271h-68l214 307h87z" glyph-name="circumflex" horiz-adv-x="952" unicode="ˆ"/><glyph d="M666 1581h67l-213 -307h-87l-214 307h68l190 -270z" glyph-name="caron" horiz-adv-x="952" unicode="ˇ"/><glyph d="M669 1494q-2 -91 -67 -155.5t-157.5 -64.5t-158 64.5t-67.5 155.5h54q0 -70 50 -119.5t121 -49.5q70 0 120 49.5t51 119.5h54z" glyph-name="breve" horiz-adv-x="887" unicode="˘"/><glyph d="M219 1372h105v-98h-105v98z" glyph-name="dotaccent" horiz-adv-x="542" unicode="˙"/><glyph d="M390 1274q-71 0 -121 50t-50 121q0 70 50 120t121 50q70 0 120 -50.5t50 -119.5q0 -71 -50 -121t-120 -50zM390 1324q49 0 84.5 35.5t35.5 85.5q0 49 -35.5 84.5t-84.5 35.5q-50 0 -85.5 -35.5t-35.5 -84.5q0 -50 35.5 -85.5t85.5 -35.5z" glyph-name="ring" horiz-adv-x="780" unicode="˚"/><glyph d="M220 -147q-8 114 135 147h53q-146 -46 -134 -137q5 -41 60 -58.5t125 -1.5l6 -43q-97 -28 -168.5 1.5t-76.5 91.5z" glyph-name="ogonek" horiz-adv-x="684" unicode="˛"/><glyph d="M219 1275q-1 73 39 122t109 49q38 0 76.5 -20t66 -44t61.5 -44t63 -20q36 0 61.5 36.5t25.5 82.5h51q0 -73 -42.5 -121t-106.5 -48q-36 0 -83 31.5t-93 63t-77 31.5q-45 -1 -72.5 -36t-27.5 -84z" glyph-name="tilde" horiz-adv-x="991" unicode="˜"/><glyph d="M442 1584l-163 -310h-60l161 310h62zM617 1584l-163 -310h-59l161 310h61z" glyph-name="hungarumlaut" horiz-adv-x="836" unicode="˝"/><glyph d="M-553 1581h76l258 -307h-68z" glyph-name="gravecomb" unicode="̀"/><glyph d="M-219 1581l-266 -307h-68l259 307h75z" glyph-name="acutecomb" unicode="́"/><glyph d="M-219 1274h-68l-188 271l-191 -271h-67l214 307h87z" glyph-name="uni0302" unicode="̂"/><glyph d="M-772 1275q-1 73 39 122t108 49q38 0 77 -20t66 -44t61.5 -44t63.5 -20q36 0 61.5 36.5t25.5 82.5h51q0 -73 -42.5 -121t-107.5 -48q-36 0 -83 31.5t-92.5 63t-77.5 31.5q-45 -1 -72 -36t-27 -84z" glyph-name="tildecomb" unicode="̃"/><glyph d="M-690 1327h471v-53h-471v53z" glyph-name="uni0304" unicode="̄"/><glyph d="M-219 1494q-2 -91 -67 -155.5t-157.5 -64.5t-158 64.5t-67.5 155.5h55q0 -70 49.5 -119.5t121.5 -49.5q70 0 120 49.5t51 119.5h53z" glyph-name="uni0306" unicode="̆"/><glyph d="M-324 1372h105v-98h-105v98z" glyph-name="uni0307" unicode="̇"/><glyph d="M-659 1372h104v-98h-104v98zM-324 1372h104v-98h-104v98z" glyph-name="uni0308" unicode="̈"/><glyph d="M-390 1274q-71 0 -121 50t-50 121q0 70 50 120t121 50q70 0 120 -50.5t50 -119.5q0 -71 -50 -121t-120 -50zM-390 1324q49 0 84.5 35.5t35.5 85.5q0 49 -35.5 84.5t-84.5 35.5q-50 0 -85.5 -35.5t-35.5 -84.5q0 -50 35.5 -85.5t85.5 -35.5z" glyph-name="uni030A" unicode="̊"/><glyph d="M-394 1584l-164 -310h-59l160 310h63zM-219 1584l-164 -310h-58l160 310h62z" glyph-name="uni030B" unicode="̋"/><glyph d="M-287 1581h68l-213 -307h-87l-214 307h67l191 -270z" glyph-name="uni030C" unicode="̌"/><glyph d="M-270 1273h-73l75 418h52z" glyph-name="uni0312" unicode="̒"/><glyph d="M-324 -248h105v-97h-105v97z" glyph-name="dotbelowcomb" unicode="̣"/><glyph d="M-289 -101h73l-75 -418h-51z" glyph-name="uni0326" unicode="̦"/><glyph d="M-327 -52q46 0 77 -22t31 -68q0 -94 -149 -95q-39 0 -89 8v46q36 -5 68 -5q113 0 113 46q0 29 -23.5 38t-73.5 9q-28 0 -39 -1v40l60 61h47l-55 -58q5 1 33 1z" glyph-name="uni0327" unicode="̧"/><glyph d="M-464 -147q-8 114 135 147h53q-146 -46 -134 -137q5 -41 60 -58.5t125 -1.5l6 -43q-97 -28 -168.5 1.5t-76.5 91.5z" glyph-name="uni0328" unicode="̨"/><glyph d="M482 1680h105v-97h-105v97zM818 1680h104v-97h-104v97zM287 58h898v-58h-966v1434h966v-59h-898v-630h816v-57h-816v-630z" glyph-name="afii10023" horiz-adv-x="1404" unicode="Ё"/><glyph d="M1234 0l-148 364h-810l-147 -364h-71l580 1434h87l580 -1434h-71zM300 422h763l-381 944z" glyph-name="afii10017" horiz-adv-x="1362" unicode="А"/><glyph d="M287 879q483 -1 704.5 -111.5t220.5 -352.5q0 -193 -118.5 -304t-320.5 -111h-554v1434h782v-57h-714v-498zM771 57q173 0 274 94t101 264q0 213 -202 309.5t-657 96.5v-764h484z" glyph-name="afii10018" horiz-adv-x="1389" unicode="Б"/><glyph d="M219 1434h572q55 0 106.5 -14t98 -43.5t81 -72t55 -104t20.5 -135.5q0 -127 -55 -211.5t-145 -123.5q115 -28 188.5 -118t72.5 -240q0 -92 -31 -165.5t-83.5 -117.5t-116.5 -66.5t-135 -22.5h-628v1434zM287 1377v-632h493q61 0 114 17t97.5 52.5t69.5 98.5t25 148 q0 161 -87 238.5t-219 77.5h-493zM840 55q62 0 115.5 18t97.5 55t69 99.5t25 145.5q0 69 -17 123.5t-45.5 90t-68.5 59t-83.5 33.5t-92.5 10h-553v-633z" glyph-name="afii10019" horiz-adv-x="1371" unicode="В"/><glyph d="M843 1434v-59h-556v-1375h-68v1434h624z" glyph-name="afii10020" horiz-adv-x="902" unicode="Г"/><glyph d="M1380 58v-324h-61v266h-1037v-266h-62v267h-1l1 57q119 0 157.5 78.5t38.5 292.5v1005h884v-1376h80zM482 423q0 -281 -80 -365h832v1317h-752v-952z" glyph-name="afii10021" horiz-adv-x="1599" unicode="Д"/><glyph d="M287 58h898v-58h-966v1434h966v-59h-898v-630h816v-57h-816v-630z" glyph-name="afii10022" horiz-adv-x="1404" unicode="Е"/><glyph d="M1928 1434l-795 -715l795 -719h-88l-794 717v-717h-67v716l-794 -716h-89l796 719l-796 715h89l794 -712v712h67v-713l794 713h88z" glyph-name="afii10024" horiz-adv-x="2025" unicode="Ж"/><glyph d="M642 45q58 0 115.5 12.5t113 40.5t97.5 68.5t67.5 101t25.5 132.5q0 70 -25 130t-67 101.5t-97 71.5t-113.5 44t-116.5 14h-174v56h174q46 0 93.5 10.5t92.5 33.5t80.5 55.5t56.5 81.5t21 106q0 70 -31.5 126t-82.5 89.5t-110.5 51.5t-119.5 18t-119 -18t-110 -51.5 t-82.5 -89.5t-31.5 -126l-63 1q0 81 36.5 147.5t96 107t130 62.5t143.5 22t144 -22t130.5 -62.5t96.5 -107t37 -147.5q1 -118 -70 -198t-178 -115q139 -40 232 -141t93 -252q0 -102 -44.5 -183.5t-116.5 -129t-155.5 -72t-168.5 -24.5t-167.5 24.5t-155 72t-117 129 t-44.5 183.5l67 1q0 -73 25 -133t67 -100.5t97.5 -68.5t113 -40.5t114.5 -12.5z" glyph-name="afii10025" horiz-adv-x="1285" unicode="З"/><glyph d="M287 1434v-1343l958 1343h82v-1434h-67v1343l-959 -1343h-81v1434h67z" glyph-name="afii10026" horiz-adv-x="1546" unicode="И"/><glyph d="M997 1804q-2 -91 -67 -155.5t-157 -64.5t-157.5 64.5t-67.5 155.5h54q0 -70 49.5 -119.5t121.5 -49.5q70 0 120 50t51 119h53zM287 1434v-1343l958 1343h82v-1434h-67v1343l-959 -1343h-81v1434h67z" glyph-name="afii10027" horiz-adv-x="1546" unicode="Й"/><glyph d="M1168 1434l-795 -715l795 -719h-88l-793 716v-716h-68v1434h68v-712l793 712h88z" glyph-name="afii10028" horiz-adv-x="1265" unicode="К"/><glyph d="M1199 1434v-1433h-66v1374h-752v-952q0 -166 -25.5 -257.5t-81.5 -130t-155 -34.5v57q119 0 157 78.5t38 292.5v1005h885z" glyph-name="afii10029" horiz-adv-x="1418" unicode="Л"/><glyph d="M1506 1434h103v-1434h-68v1359l-591 -1159h-72l-591 1159v-1359h-68v1434h103l592 -1165z" glyph-name="afii10030" horiz-adv-x="1827" unicode="М"/><glyph d="M1181 1434h67v-1434h-67v688h-894v-688h-68v1434h68v-689h894v689z" glyph-name="afii10031" horiz-adv-x="1467" unicode="Н"/><glyph d="M1532 716.5q0 -142.5 -39 -263t-105.5 -205t-154.5 -144t-186.5 -87.5t-202 -28t-201.5 28t-186 87.5t-154.5 144t-105.5 205t-39 263t39 263.5t105.5 205.5t154.5 144t186 87.5t201.5 28t202 -28t187 -87.5t154.5 -144t105 -205.5t39 -263.5zM845 47q93 0 181.5 26 t168.5 80.5t140 132.5t95 189t35 242t-35 242t-95 189t-140 132t-168.5 80t-181.5 26t-181.5 -26t-168 -80t-139.5 -132t-95.5 -189t-35.5 -242t35.5 -242t95.5 -189t139.5 -132.5t168 -80.5t181.5 -26z" glyph-name="afii10032" horiz-adv-x="1689" unicode="О"/><glyph d="M1178 1434v-1434h-68v1375h-823v-1375h-68v1434h959z" glyph-name="afii10033" horiz-adv-x="1396" unicode="П"/><glyph d="M773 1434q202 0 320.5 -111.5t118.5 -303.5q1 -243 -220.5 -353t-704.5 -111v-555h-68v1434h554zM1146 1019q0 170 -101 263.5t-274 93.5h-484v-764q456 0 657.5 97t201.5 310z" glyph-name="afii10034" horiz-adv-x="1371" unicode="Р"/><glyph d="M1204 1280q-163 106 -359 104q-93 0 -181.5 -26t-168 -80t-139.5 -131.5t-95.5 -188t-35.5 -241.5t35.5 -241.5t95.5 -188t139.5 -132t168 -80.5t181.5 -26q197 -2 359 105v-69q-164 -96 -359 -96q-103 0 -201.5 28t-186.5 87.5t-154.5 144t-105.5 205t-39 263t39 263.5 t105.5 205.5t154.5 144t186 87.5t202 28q196 0 359 -96v-69z" glyph-name="afii10035" horiz-adv-x="1423" unicode="С"/><glyph d="M1046 1434v-59h-460v-1375h-67v1375h-461v59h988z" glyph-name="afii10036" horiz-adv-x="1103" unicode="Т"/><glyph d="M956 1434h69l-446 -1059q-26 -62 -50 -109.5t-66.5 -108.5t-89.5 -102t-117.5 -73t-152.5 -40l-1 54q69 9 128 36.5t98.5 62.5t75.5 88t57 95.5t46 101.5l-448 1054h69l416 -981z" glyph-name="afii10037" horiz-adv-x="1085" unicode="У"/><glyph d="M1645 716.5q0 -241.5 -180 -379.5t-529 -143v-194h-50v194q-349 5 -529 143t-180 379.5t180 380t529 143.5v194h50v-194q349 -5 529 -143.5t180 -380zM244 717q0 -215 162 -338t480 -127v930q-317 -4 -479.5 -127t-162.5 -338zM936 252q317 5 479.5 127.5t162.5 337.5 t-162.5 337.5t-479.5 127.5v-930z" glyph-name="afii10038" horiz-adv-x="1821" unicode="Ф"/><glyph d="M1255 1434l-534 -716l536 -718h-78l-502 670l-501 -670h-80l538 718l-535 716h79l500 -668l499 668h78z" glyph-name="afii10039" horiz-adv-x="1354" unicode="Х"/><glyph d="M1178 58h75v-222h-58v164h-976v1434h68v-1376h823v1376h68v-1376z" glyph-name="afii10040" horiz-adv-x="1401" unicode="Ц"/><glyph d="M1093 1434h67v-1434h-67v829q-54 -137 -177 -207.5t-298 -70.5q-191 0 -295 118t-104 319v446h68v-414q0 -194 86.5 -299.5t269.5 -105.5q169 0 293.5 89.5t156.5 237.5v492z" glyph-name="afii10041" horiz-adv-x="1379" unicode="Ч"/><glyph d="M2001 1434h67v-1434h-1849v1434h68v-1376h823v1376h68v-1376h823v1376z" glyph-name="afii10042" horiz-adv-x="2287" unicode="Ш"/><glyph d="M2068 58h74v-222h-57v164h-1866v1434h68v-1376h823v1376h68v-1376h823v1376h67v-1376z" glyph-name="afii10043" horiz-adv-x="2290" unicode="Щ"/><glyph d="M292 879q484 -1 706 -111.5t221 -352.5q0 -193 -119 -304t-322 -111h-553v1375h-225v59h292v-555zM777 57q172 0 273.5 94t101.5 264q0 213 -202 309.5t-658 96.5v-764h485z" glyph-name="afii10044" horiz-adv-x="1395" unicode="Ъ"/><glyph d="M773 0h-554v1434h68v-555q483 -1 704.5 -111.5t220.5 -352.5q0 -193 -118.5 -304t-320.5 -111zM1528 0h-67v1434h67v-1434zM287 821v-764h484q173 0 274 94t101 264q0 213 -201.5 309.5t-657.5 96.5z" glyph-name="afii10045" horiz-adv-x="1747" unicode="Ы"/><glyph d="M773 0h-554v1434h68v-555q483 -1 704.5 -111.5t220.5 -352.5q0 -193 -118.5 -304t-320.5 -111zM287 821v-764h484q173 0 274 94t101 264q0 213 -201.5 309.5t-657.5 96.5z" glyph-name="afii10046" horiz-adv-x="1371" unicode="Ь"/><glyph d="M598 1445q103 0 201.5 -28t186.5 -87.5t154 -144t105 -205.5t39 -263.5t-39 -263t-105 -205t-154 -144t-186.5 -87.5t-201.5 -28q-196 0 -359 96v69q163 -106 359 -105q90 0 177 24.5t165.5 77t139 126.5t97 180t41.5 232h-802v55h802q-4 126 -41 232t-97.5 180.5 t-139 126.5t-165.5 76.5t-177 24.5q-197 2 -359 -104v69q163 96 359 96z" glyph-name="afii10047" horiz-adv-x="1442" unicode="Э"/><glyph d="M1355 1445q103 0 201.5 -28t187 -87.5t154.5 -144t105 -205.5t39 -263.5t-39 -263t-105.5 -205t-154.5 -144t-186.5 -87.5t-201.5 -28q-101 0 -197.5 27t-184 84.5t-153.5 138t-107 196.5t-45 253h-381v-688h-68v1434h68v-689h381q4 137 45 253t107 197t153.5 138.5 t184 84.5t197.5 27zM1355 47q93 0 181.5 26t168.5 80.5t140 132.5t95 189t35 242t-35 242t-95 189t-140 132t-168.5 80t-181.5 26t-182 -26t-168.5 -80t-139.5 -132t-95.5 -189t-35.5 -242t35.5 -242t95.5 -189t139.5 -132.5t168.5 -80.5t182 -26z" glyph-name="afii10048" horiz-adv-x="2199" unicode="Ю"/><glyph d="M603 1434h554v-1434h-67v555q-297 0 -492 41l-366 -596h-73l375 611q-189 50 -280 150t-90 258q0 193 118.5 304t320.5 111zM1090 612v764h-485q-173 0 -274 -93.5t-101 -263.5q0 -214 201 -310.5t659 -96.5z" glyph-name="afii10049" horiz-adv-x="1376" unicode="Я"/><glyph d="M683 1135q115 0 196.5 -21t141 -71.5t89 -137t29.5 -214.5v-691h-64l-1 183q-26 -32 -67 -63t-102.5 -62t-149 -50t-186.5 -19q-194 1 -293 77t-99 220q-1 120 58.5 193.5t173.5 104t281.5 36.5t383.5 -12v94q-5 140 -44 220t-122.5 117t-227.5 38q-93 1 -187.5 -22.5 t-160.5 -62.5v63q65 37 158.5 58.5t192.5 21.5zM1074 257v294q-278 18 -463.5 10t-278.5 -72t-93 -197q0 -130 88 -188t268 -58q88 0 169 20.5t140.5 53.5t101 67t68.5 70z" glyph-name="afii10065" horiz-adv-x="1355" unicode="а"/><glyph d="M1276 481q0 -100 -32 -183t-85.5 -139t-125 -94.5t-149 -56t-158.5 -17.5q-101 0 -196.5 29t-175.5 86t-128.5 154t-48.5 221q0 211 25.5 367.5t70.5 256.5t116 161.5t153 85.5t189 24q251 0 446 51l3 -55q-197 -51 -449 -51q-82 0 -146 -16t-121 -55.5t-98 -104 t-70.5 -164t-42.5 -233.5q74 110 202.5 167.5t270.5 57.5q81 0 159 -18.5t149 -58.5t124.5 -96.5t85.5 -139t32 -179.5zM726 38q91 0 175.5 26.5t155 78.5t112.5 139.5t42 198.5q0 109 -42 196t-111.5 139.5t-154.5 80.5t-177 28q-91 0 -176 -28t-154.5 -80.5t-111.5 -139.5 t-42 -196q0 -90 28 -164.5t74.5 -125.5t109.5 -86t131.5 -51t140.5 -16z" glyph-name="afii10066" horiz-adv-x="1453" unicode="б"/><glyph d="M217 1123h519q102 0 181.5 -29.5t129.5 -96t50 -162.5q1 -103 -53 -172t-146 -91q112 -14 186.5 -87.5t74.5 -193.5q0 -143 -103.5 -217t-263.5 -74h-575v1123zM282 1072v-484h444q62 0 114.5 12.5t97 40t69.5 76t25 114.5t-25 114t-69 75t-97 39.5t-115 12.5h-444z M785 51q133 0 220 58t87 183q0 67 -25.5 116t-70 76t-96.5 40t-115 13h-503v-486h503z" glyph-name="afii10067" horiz-adv-x="1335" unicode="в"/><glyph d="M844 1123v-55h-562v-1068h-65v1123h627z" glyph-name="afii10068" horiz-adv-x="960" unicode="г"/><glyph d="M1277 56v-264h-65v208h-930v-208h-65v264h8q96 1 134.5 76t38.5 248v743h766v-1067h113zM382 56h718v1012h-637v-693q0 -234 -81 -319z" glyph-name="afii10069" horiz-adv-x="1494" unicode="д"/><glyph d="M696 1135q81 0 159 -22.5t147 -70.5t119.5 -115t76 -163.5t14.5 -210.5h-971q1 -103 34 -190.5t86.5 -144.5t122.5 -97.5t140 -58.5t142 -18q185 0 325 84v-61q-138 -78 -333 -78q-79 0 -158.5 20.5t-156 66t-135.5 110.5t-95 162.5t-36 213.5q0 141 45 253.5t120 180.5 t165.5 103.5t188.5 35.5zM1153 609q5 115 -34 207.5t-107 148.5t-149 85t-166 29q-84 0 -161 -29.5t-141 -85.5t-105 -147.5t-48 -207.5h911z" glyph-name="afii10070" horiz-adv-x="1392" unicode="е"/><glyph d="M1601 1123l-627 -560l627 -563h-87l-622 561v-561h-65v561l-623 -561h-85l625 563l-625 560h85l623 -558v558h65v-558l622 558h87z" glyph-name="afii10072" horiz-adv-x="1718" unicode="ж"/><glyph d="M604 43q98 0 178.5 27.5t133.5 90t53 152.5t-52.5 154.5t-133.5 93.5t-179 29h-172l-1 52h173q83 0 149.5 22.5t110 74t43.5 125.5q0 103 -87.5 158.5t-215.5 55.5q-56 0 -108.5 -12t-97 -37t-71.5 -67.5t-27 -97.5l-61 1q0 125 106.5 195t258.5 70q154 0 260.5 -70 t106.5 -195q0 -92 -56 -155t-142 -92q111 -31 185 -109.5t74 -196.5q0 -81 -35.5 -144.5t-97 -100.5t-137 -56t-158.5 -19t-157.5 19t-136 56t-97.5 100.5t-36 144.5l64 1q0 -57 21.5 -103t57 -77t84 -51.5t98.5 -29.5t102 -9z" glyph-name="afii10073" horiz-adv-x="1209" unicode="з"/><glyph d="M282 1123v-1051l714 1051h85v-1123h-64v1053l-715 -1053h-85v1123h65z" glyph-name="afii10074" horiz-adv-x="1298" unicode="и"/><glyph d="M873 1494q-2 -91 -67 -155.5t-157 -64.5t-157.5 64.5t-67.5 155.5h54q0 -70 50 -119.5t121 -49.5q70 0 120 49.5t51 119.5h53zM282 1123v-1051l714 1051h85v-1123h-64v1053l-715 -1053h-85v1123h65z" glyph-name="afii10075" horiz-adv-x="1298" unicode="й"/><glyph d="M1065 1123l-696 -560l696 -563h-93l-690 561v-561h-65v1123h65v-558l690 558h93z" glyph-name="afii10076" horiz-adv-x="1183" unicode="к"/><glyph d="M1124 1123v-1123h-64v1068h-637v-693q0 -204 -59.5 -292t-186.5 -83v56q100 -1 140.5 73.5t40.5 250.5v743h766z" glyph-name="afii10077" horiz-adv-x="1341" unicode="л"/><glyph d="M1249 1123h105v-1123h-65v1065l-473 -908h-62l-472 908v-1065h-65v1123h105l463 -901z" glyph-name="afii10078" horiz-adv-x="1570" unicode="м"/><glyph d="M1016 1123h64v-1123h-64v558h-734v-558h-65v1123h65v-510h734v510z" glyph-name="afii10079" horiz-adv-x="1297" unicode="н"/><glyph d="M1276 562q0 -117 -32 -214t-85.5 -162.5t-125 -110.5t-149 -65.5t-158.5 -20.5t-157.5 20.5t-148.5 65.5t-125 110.5t-85.5 162.5t-32.5 214q0 114 32 209.5t85.5 161.5t124 112.5t148.5 68t159 21.5t159 -21.5t149 -68t124.5 -112.5t85.5 -161.5t32 -209.5zM726 44 q73 0 141.5 19t131.5 60t110 100.5t74.5 147t27.5 191.5q0 126 -42 227.5t-111.5 163.5t-154.5 94t-177 32q-91 0 -176 -32t-154.5 -94t-111.5 -163.5t-42 -227.5q0 -104 28 -191.5t74.5 -147t109.5 -100.5t131.5 -60t140.5 -19z" glyph-name="afii10080" horiz-adv-x="1453" unicode="о"/><glyph d="M1068 1123v-1123h-64v1068h-722v-1068h-65v1123h851z" glyph-name="afii10081" horiz-adv-x="1285" unicode="п"/><glyph d="M1278 562q0 -141 -44.5 -253.5t-119.5 -181t-167 -103.5t-194 -35q-155 0 -283 78t-188 232v-712h-65v1536h58l3 -298q61 156 190.5 233t284.5 77q80 0 155 -20.5t142.5 -65.5t118.5 -111t80 -162.5t29 -213.5zM749 1079q-90 0 -170 -28.5t-147 -86.5t-107 -156.5 t-41 -227.5v-38q3 -122 43.5 -219t106 -157t146 -91t169.5 -31q91 0 173.5 32.5t149 94t105 163t38.5 228.5q0 130 -39 232t-105.5 163t-148.5 91.5t-173 30.5z" glyph-name="afii10082" horiz-adv-x="1455" unicode="р"/><glyph d="M1055 992q-139 85 -326 84q-92 0 -177 -32t-155.5 -93t-112.5 -162t-42 -227q0 -102 27.5 -187.5t74.5 -145t110 -101.5t132.5 -61.5t142.5 -19.5q184 -1 326 84v-64q-138 -78 -329 -78q-102 0 -197.5 35t-175.5 103.5t-128 181t-48 253.5q0 114 32 209.5t85.5 161.5 t124 112.5t148.5 68t159 21.5q191 0 329 -77v-66z" glyph-name="afii10083" horiz-adv-x="1231" unicode="с"/><glyph d="M1015 1123v-55h-447v-1068h-64v1068h-446v55h957z" glyph-name="afii10084" horiz-adv-x="1073" unicode="т"/><glyph d="M1011 1123h68l-444 -1058q-18 -43 -34 -77t-41.5 -78.5t-51.5 -79t-63 -70.5t-77.5 -61t-93.5 -43t-111 -25l-2 56q69 9 127 36.5t98 62.5t76 87t57 95t45 102l-445 1053h68l413 -981z" glyph-name="afii10085" horiz-adv-x="1197" unicode="у"/><glyph d="M1283 562q0 -140 -45.5 -251t-122.5 -178t-168.5 -103t-190.5 -40v-169h-50v168q-100 4 -191.5 40.5t-168.5 103t-123 178t-46 251.5q0 110 30.5 203.5t81.5 159t119 112t143.5 70t154.5 27.5v120h50v-120q100 -4 192 -41.5t168 -105.5t121.5 -178.5t45.5 -246.5z M243 562q0 -126 39.5 -225.5t106.5 -160.5t147 -94t170 -37v1033q-89 -4 -170.5 -38t-147.5 -96t-105.5 -161t-39.5 -221zM756 45q71 3 136 24t125 62.5t104.5 100.5t71 144t26.5 186q0 122 -39.5 221t-105.5 161t-147.5 96t-170.5 38v-1033z" glyph-name="afii10086" horiz-adv-x="1460" unicode="ф"/><glyph d="M1066 1123l-421 -560l421 -563h-75l-399 531l-398 -531h-75l421 563l-421 560h75l398 -529l399 529h75z" glyph-name="afii10087" horiz-adv-x="1183" unicode="х"/><glyph d="M1070 56h77v-220h-65v164h-863v1123h65v-1067h722v1067h64v-1067z" glyph-name="afii10088" horiz-adv-x="1295" unicode="ц"/><glyph d="M985 1123h65v-1123h-65v608q-44 -109 -144.5 -166.5t-244.5 -57.5q-178 0 -278.5 92.5t-100.5 257.5v389h65v-362q0 -151 82 -234t250 -83q143 0 244 70t127 186v423z" glyph-name="afii10089" horiz-adv-x="1266" unicode="ч"/><glyph d="M1590 1123h65v-1123h-1438v1123h65v-1067h622v1067h65v-1067h621v1067z" glyph-name="afii10090" horiz-adv-x="1871" unicode="ш"/><glyph d="M1655 56h174v-220h-65v164h-1547v1123h65v-1067h622v1067h65v-1067h621v1067h65v-1067z" glyph-name="afii10091" horiz-adv-x="1976" unicode="щ"/><glyph d="M464 695q388 -1 566.5 -90t177.5 -280q0 -151 -97 -238t-261 -87h-451v1068h-222v55h287v-428zM849 51q138 0 216.5 71t78.5 203q0 168 -158 243t-522 76v-593h385z" glyph-name="afii10092" horiz-adv-x="1385" unicode="ъ"/><glyph d="M668 0h-451v1123h65v-428q387 -1 566 -90t178 -280q0 -151 -97 -238t-261 -87zM1284 1123h65v-1123h-65v1123zM282 644v-593h384q138 0 217 71t79 203q0 168 -157.5 243t-522.5 76z" glyph-name="afii10093" horiz-adv-x="1565" unicode="ы"/><glyph d="M668 0h-451v1123h65v-428q387 -1 566 -90t178 -280q0 -151 -97 -238t-261 -87zM282 644v-593h384q138 0 217 71t79 203q0 168 -157.5 243t-522.5 76z" glyph-name="afii10094" horiz-adv-x="1202" unicode="ь"/><glyph d="M549 1135q81 0 158 -21.5t148.5 -68t125 -112.5t85.5 -161.5t32 -209t-32 -210t-85.5 -162t-125 -112t-148.5 -68t-158 -21.5q-191 0 -330 78v64q141 -85 326 -84q90 0 173.5 30.5t152.5 88t113 153t48 215.5h-733v56h733q-4 120 -48 215t-113 152.5t-152.5 88 t-173.5 30.5q-186 1 -326 -84v66q137 77 330 77z" glyph-name="afii10095" horiz-adv-x="1274" unicode="э"/><glyph d="M1705 562q0 -117 -32 -214t-86 -162.5t-125.5 -110.5t-148.5 -65.5t-158 -20.5q-79 0 -154 19.5t-145.5 62.5t-124 105t-87.5 154t-38 202h-324v-532h-65v1123h65v-532h324q4 108 37.5 199t87 153.5t124 106.5t146 64.5t154.5 20.5q81 0 159 -21.5t149 -68t124.5 -112.5 t85.5 -161.5t32 -209.5zM1155 44q73 0 141.5 19t131.5 60t110 100.5t74.5 147t27.5 191.5q0 126 -42 227.5t-111.5 163.5t-154.5 94t-177 32t-177 -32t-154.5 -94t-111.5 -163.5t-42 -227.5q0 -104 28 -191.5t74.5 -147t109.5 -100.5t131.5 -60t141.5 -19z" glyph-name="afii10096" horiz-adv-x="1881" unicode="ю"/><glyph d="M577 1123h449v-1123h-64v435q-228 0 -381 29l-291 -464h-72l300 478q-153 39 -225.5 118t-71.5 203q0 152 96 238t260 86zM962 488v583h-384q-136 0 -214 -72t-78 -200q0 -163 155.5 -236.5t520.5 -74.5z" glyph-name="afii10097" horiz-adv-x="1244" unicode="я"/><glyph d="M582 1372v-98h-105v98h105zM916 1372v-98h-103v98h103zM696 1135q81 0 159 -22.5t147 -70.5t119.5 -115t76 -163.5t14.5 -210.5h-971q1 -103 34 -190.5t86.5 -144.5t122.5 -97.5t140 -58.5t142 -18q185 0 325 84v-61q-138 -78 -333 -78q-79 0 -158.5 20.5t-156 66 t-135.5 110.5t-95 162.5t-36 213.5q0 141 45 253.5t120 180.5t165.5 103.5t188.5 35.5zM1153 609q5 115 -34 207.5t-107 148.5t-149 85t-166 29q-84 0 -161 -29.5t-141 -85.5t-105 -147.5t-48 -207.5h911z" glyph-name="afii10071" horiz-adv-x="1392" unicode="ё"/><glyph d="M830 1581l-266 -307h-67l259 307h74zM844 1123v-55h-562v-1068h-65v1123h627z" glyph-name="afii10100" horiz-adv-x="960" unicode="ѓ"/><glyph d="M197 1434h110v-78h-110v78zM284 1123v-1127q0 -120 -45 -172t-148 -52q-47 0 -90 10l1 46q37 -6 86 -5q79 1 105 43t26 134v1123h65z" glyph-name="afii10105" horiz-adv-x="503" unicode="ј"/><glyph d="M939 1581l-266 -307h-68l259 307h75zM1065 1123l-696 -560l696 -563h-93l-690 561v-561h-65v1123h65v-558l690 558h93z" glyph-name="afii10109" horiz-adv-x="1183" unicode="ќ"/><glyph d="M219 1434h572q55 0 106.5 -14t98 -43.5t81 -72t55 -104t20.5 -135.5q0 -127 -55 -211.5t-145 -123.5q115 -28 188.5 -118t72.5 -240q0 -92 -31 -165.5t-83.5 -117.5t-116.5 -66.5t-135 -22.5h-628v1434zM287 1377v-632h493q61 0 114 17t97.5 52.5t69.5 98.5t25 148 q0 161 -87 238.5t-219 77.5h-493zM840 55q62 0 115.5 18t97.5 55t69 99.5t25 145.5q0 69 -17 123.5t-45.5 90t-68.5 59t-83.5 33.5t-92.5 10h-553v-633zM663 -248h104v-97h-104v97z" glyph-name="uni1E04" horiz-adv-x="1371" unicode="Ḅ"/><glyph d="M1278 562q0 -145 -44.5 -258.5t-120.5 -180.5t-167.5 -100.5t-192.5 -33.5q-155 0 -284.5 76.5t-190.5 232.5l-3 -298h-58v1536h65v-712q60 154 188 232.5t283 78.5q102 0 194 -35.5t167 -103.5t119.5 -180.5t44.5 -253.5zM749 44q91 0 172 30.5t148.5 91.5t106.5 163 t39 233q0 127 -38.5 228.5t-105 163t-149 93.5t-173.5 32q-88 0 -169 -31t-146.5 -91t-106 -157t-43.5 -218v-38q1 -129 41 -228t107 -157t147 -86.5t170 -28.5zM675 -248h104v-97h-104v97z" glyph-name="uni1E05" horiz-adv-x="1455" unicode="ḅ"/><glyph d="M1368 717q0 -144 -35 -263t-96 -202.5t-148 -140.5t-188 -84t-216 -27h-466v1434h466q144 0 266.5 -44t216.5 -129.5t147 -225t53 -318.5zM682 58q131 0 242 40.5t196 120t133.5 207t48.5 291.5t-48.5 291.5t-133.5 206.5t-196 119.5t-242 40.5h-395v-1317h395zM711 -248 h104v-97h-104v97z" glyph-name="uni1E0C" horiz-adv-x="1526" unicode="Ḍ"/><glyph d="M177 562q0 141 44.5 253.5t119.5 180.5t167 103.5t194 35.5q155 0 283 -78.5t189 -232.5v712h64v-1536h-58l-2 298q-61 -156 -191 -232.5t-285 -76.5q-101 0 -192.5 33.5t-167.5 100.5t-120.5 180.5t-44.5 258.5zM707 44q90 0 169.5 28.5t147 86.5t107 157t40.5 228v38 q-3 122 -43.5 218.5t-106 156.5t-146 91t-168.5 31q-91 0 -173.5 -32t-149.5 -93.5t-105.5 -163t-38.5 -228.5q0 -131 39 -233t106.5 -163t149 -91.5t172.5 -30.5zM638 -248h104v-97h-104v97z" glyph-name="uni1E0D" horiz-adv-x="1455" unicode="ḍ"/><glyph d="M1181 1434h67v-1434h-67v688h-894v-688h-68v1434h68v-689h894v689zM681 -248h104v-97h-104v97z" glyph-name="uni1E24" horiz-adv-x="1467" unicode="Ḥ"/><glyph d="M281 0h-64v1536h65v-712q41 103 124.5 175.5t180.5 104t203 31.5q90 0 164 -25.5t134 -78.5t93.5 -145.5t33.5 -218.5v-667h-64v659q0 114 -28.5 197t-81.5 130.5t-118.5 69.5t-146.5 22q-71 0 -138.5 -17t-131.5 -55t-112.5 -93t-78.5 -136.5t-33 -179.5zM662 -248h104 v-97h-104v97z" glyph-name="uni1E25" horiz-adv-x="1432" unicode="ḥ"/><glyph d="M287 1434v-1376h857v-58h-925v1434h68zM630 -248h104v-97h-104v97z" glyph-name="uni1E36" horiz-adv-x="1319" unicode="Ḷ"/><glyph d="M217 1536h65v-1536h-65v1536zM198 -248h104v-97h-104v97z" glyph-name="uni1E37" horiz-adv-x="498" unicode="ḷ"/><glyph d="M1214 1891l-266 -307h-67l259 307h74zM1506 1434h103v-1434h-68v1359l-591 -1159h-72l-591 1159v-1359h-68v1434h103l592 -1165z" glyph-name="uni1E3E" horiz-adv-x="1827" unicode="Ḿ"/><glyph d="M1414 1581l-266 -307h-68l259 307h75zM1615 1135q399 0 399 -476v-659h-64v659q0 223 -91 321t-255 98q-83 0 -161 -28.5t-144.5 -85t-107.5 -152.5t-43 -219v-593h-65v659q0 223 -90.5 321t-256.5 98q-83 0 -160 -28.5t-142.5 -85t-107 -152.5t-44.5 -219l-1 -593h-64 v1123h65v-299q58 155 183 233t284 78q334 0 388 -332q38 153 177 242.5t301 89.5z" glyph-name="uni1E3F" horiz-adv-x="2232" unicode="ḿ"/><glyph d="M721 1682h104v-98h-104v98zM1260 1434h66v-1434h-81l-958 1343v-1343h-68v1434h82l959 -1343v1343z" glyph-name="uni1E44" horiz-adv-x="1546" unicode="Ṅ"/><glyph d="M665 1372h104v-98h-104v98zM281 0h-64v1123h65v-299q41 103 124.5 175.5t180.5 104t203 31.5q90 0 164 -25.5t134 -78.5t93.5 -145.5t33.5 -218.5v-667h-64v659q0 114 -28.5 197t-81.5 130.5t-118.5 69.5t-146.5 22q-71 0 -138.5 -17t-131.5 -55t-112.5 -93t-78.5 -136.5 t-33 -179.5z" glyph-name="uni1E45" horiz-adv-x="1432" unicode="ṅ"/><glyph d="M1260 1434h66v-1434h-81l-958 1343v-1343h-68v1434h82l959 -1343v1343zM721 -248h104v-97h-104v97z" glyph-name="uni1E46" horiz-adv-x="1546" unicode="Ṇ"/><glyph d="M281 0h-64v1123h65v-299q41 103 124.5 175.5t180.5 104t203 31.5q90 0 164 -25.5t134 -78.5t93.5 -145.5t33.5 -218.5v-667h-64v659q0 114 -28.5 197t-81.5 130.5t-118.5 69.5t-146.5 22q-71 0 -138.5 -17t-131.5 -55t-112.5 -93t-78.5 -136.5t-33 -179.5zM665 -248h104 v-97h-104v97z" glyph-name="uni1E47" horiz-adv-x="1432" unicode="ṇ"/><glyph d="M161 184q174 -136 455 -136q114 0 221 38.5t177 108.5t71 153q1 46 -10 84t-31.5 66.5t-54 53.5t-70.5 43t-89 35.5t-102.5 32.5t-116.5 32q-15 4 -23 6q-102 28 -175.5 59t-134.5 74t-91 100t-29 130q4 173 136 277t369 104q199 0 361 -98l-1 -69q-162 109 -360 108 q-206 0 -321.5 -88.5t-117.5 -235.5q-1 -45 14 -83.5t47.5 -68.5t69 -53t95.5 -45t107.5 -37.5t123.5 -36.5q100 -28 167.5 -51t130 -56.5t98 -72t55.5 -91.5t19 -122q-2 -101 -82 -184.5t-201.5 -127t-251.5 -43.5q-282 0 -456 123zM583 -248h104v-97h-104v97z" glyph-name="uni1E62" horiz-adv-x="1309" unicode="Ṣ"/><glyph d="M179 132q76 -39 181 -62.5t209 -23.5q140 -1 245.5 63t106.5 161q0 28 -6.5 51.5t-15 42.5t-27.5 36.5t-35 30t-46 26.5t-52.5 22.5t-62.5 21t-67 20t-75 20.5q-170 43 -261 117t-91 191q0 133 110 209.5t302 76.5q194 0 331 -79v-65q-141 86 -328 87q-163 0 -256.5 -60 t-93.5 -170q0 -100 88.5 -158.5t272.5 -107.5q81 -22 135 -40.5t103.5 -44.5t77.5 -56t44.5 -72t16.5 -97q0 -81 -60 -147t-153.5 -101t-197.5 -35q-111 0 -216.5 21.5t-178.5 57.5v64zM524 -248h105v-97h-105v97z" glyph-name="uni1E63" horiz-adv-x="1162" unicode="ṣ"/><glyph d="M1046 1434v-59h-460v-1375h-67v1375h-461v59h988zM500 -345v97h104v-97h-104z" glyph-name="uni1E6C" horiz-adv-x="1103" unicode="Ṭ"/><glyph d="M767 0h-230q-85 0 -132 60t-47 162v846h-181v55h181v225h65v-225h344v-55h-344v-838q0 -80 37 -128t97 -48h210v-54zM439 -248h105v-97h-105v97z" glyph-name="uni1E6D" horiz-adv-x="984" unicode="ṭ"/><glyph d="M643 1891h76l258 -307h-68zM1757 1434h71l-418 -1434h-79l-388 1332l-388 -1332h-79l-418 1434h71l388 -1340l389 1340h74l389 -1340z" glyph-name="Wgrave" horiz-adv-x="1886" unicode="Ẁ"/><glyph d="M544 1581h76l258 -307h-68zM1500 1123h71l-340 -1123h-78l-308 1028l-310 -1028h-78l-338 1123h70l310 -1051l310 1051h72l309 -1051z" glyph-name="wgrave" horiz-adv-x="1688" unicode="ẁ"/><glyph d="M1243 1891l-266 -307h-68l259 307h75zM1757 1434h71l-418 -1434h-79l-388 1332l-388 -1332h-79l-418 1434h71l388 -1340l389 1340h74l389 -1340z" glyph-name="Wacute" horiz-adv-x="1886" unicode="Ẃ"/><glyph d="M1144 1581l-266 -307h-68l259 307h75zM1500 1123h71l-340 -1123h-78l-308 1028l-310 -1028h-78l-338 1123h70l310 -1051l310 1051h72l309 -1051z" glyph-name="wacute" horiz-adv-x="1688" unicode="ẃ"/><glyph d="M723 1682h104v-98h-104v98zM1059 1682h103v-98h-103v98zM1757 1434h71l-418 -1434h-79l-388 1332l-388 -1332h-79l-418 1434h71l388 -1340l389 1340h74l389 -1340z" glyph-name="Wdieresis" horiz-adv-x="1886" unicode="Ẅ"/><glyph d="M624 1372h104v-98h-104v98zM959 1372h104v-98h-104v98zM1500 1123h71l-340 -1123h-78l-308 1028l-310 -1028h-78l-338 1123h70l310 -1051l310 1051h72l309 -1051z" glyph-name="wdieresis" horiz-adv-x="1688" unicode="ẅ"/><glyph d="M1217 1434v-59l-915 -1317h915v-58h-998v58l915 1317h-915v59h998zM666 -345v97h104v-97h-104z" glyph-name="uni1E92" horiz-adv-x="1435" unicode="Ẓ"/><glyph d="M1087 1123v-55l-828 -1012h828v-56h-910v56l829 1012h-829v55h910zM580 -345v97h104v-97h-104z" glyph-name="uni1E93" horiz-adv-x="1264" unicode="ẓ"/><glyph d="M1305 0h-71l-148 364h-810l-147 -364h-71l580 1434h87zM300 422h763l-381 944zM630 -345v97h104v-97h-104z" glyph-name="uni1EA0" horiz-adv-x="1362" unicode="Ạ"/><glyph d="M683 1135q115 0 196.5 -21t141 -71.5t89 -137t29.5 -214.5v-691h-64l-1 183q-26 -32 -67 -63t-102.5 -62t-149 -50t-186.5 -19q-194 1 -293 77t-99 220q-1 120 58.5 193.5t173.5 104t281.5 36.5t383.5 -12v94q-5 140 -44 220t-122.5 117t-227.5 38q-93 1 -187.5 -22.5 t-160.5 -62.5v63q65 37 158.5 58.5t192.5 21.5zM1074 257v294q-278 18 -463.5 10t-278.5 -72t-93 -197q0 -130 88 -188t268 -58q88 0 169 20.5t140.5 53.5t101 67t68.5 70zM534 -248h104v-97h-104v97z" glyph-name="uni1EA1" horiz-adv-x="1355" unicode="ạ"/><glyph d="M287 58h898v-58h-966v1434h966v-59h-898v-630h816v-57h-816v-630zM650 -248h105v-97h-105v97z" glyph-name="uni1EB8" horiz-adv-x="1404" unicode="Ẹ"/><glyph d="M696 1135q81 0 159 -22.5t147 -70.5t119.5 -115t76 -163.5t14.5 -210.5h-971q1 -103 34 -190.5t86.5 -144.5t122.5 -97.5t140 -58.5t142 -18q185 0 325 84v-61q-138 -78 -333 -78q-79 0 -158.5 20.5t-156 66t-135.5 110.5t-95 162.5t-36 213.5q0 141 45 253.5t120 180.5 t165.5 103.5t188.5 35.5zM1153 609q5 115 -34 207.5t-107 148.5t-149 85t-166 29q-84 0 -161 -29.5t-141 -85.5t-105 -147.5t-48 -207.5h911zM702 -345v97h105v-97h-105z" glyph-name="uni1EB9" horiz-adv-x="1392" unicode="ẹ"/><glyph d="M426 1585q-1 73 39 122t108 49q38 0 77 -20t66 -44t61.5 -44t63.5 -20q36 0 61.5 36.5t25.5 82.5h51q0 -73 -42.5 -121t-107.5 -48q-36 0 -83 31.5t-92.5 63t-76.5 31.5q-45 -1 -72.5 -36t-27.5 -84zM287 58h898v-58h-966v1434h966v-59h-898v-630h816v-57h-816v-630z" glyph-name="uni1EBC" horiz-adv-x="1404" unicode="Ẽ"/><glyph d="M473 1274l-51 1q-1 73 39 122t108 49q38 0 77 -20t66 -44t61.5 -44t63.5 -20q36 0 61.5 36.5t25.5 82.5h51q0 -73 -42.5 -121t-107.5 -48q-36 0 -83 31.5t-92.5 63t-77.5 31.5q-45 -1 -72 -36t-27 -84zM696 1135q81 0 159 -22.5t147 -70.5t119.5 -115t76 -163.5 t14.5 -210.5h-971q1 -103 34 -190.5t86.5 -144.5t122.5 -97.5t140 -58.5t142 -18q185 0 325 84v-61q-138 -78 -333 -78q-79 0 -158.5 20.5t-156 66t-135.5 110.5t-95 162.5t-36 213.5q0 141 45 253.5t120 180.5t165.5 103.5t188.5 35.5zM1153 609q5 115 -34 207.5 t-107 148.5t-149 85t-166 29q-84 0 -161 -29.5t-141 -85.5t-105 -147.5t-48 -207.5h911z" glyph-name="uni1EBD" horiz-adv-x="1392" unicode="ẽ"/><glyph d="M287 0h-68v1434h68v-1434zM201 -248h104v-97h-104v97z" glyph-name="uni1ECA" horiz-adv-x="505" unicode="Ị"/><glyph d="M197 1434h110v-78h-110v78zM219 1123h65v-1123h-65v1123zM200 -248h104v-97h-104v97z" glyph-name="uni1ECB" horiz-adv-x="503" unicode="ị"/><glyph d="M1532 716.5q0 -142.5 -39 -263t-105.5 -205t-154.5 -144t-186.5 -87.5t-202 -28t-201.5 28t-186 87.5t-154.5 144t-105.5 205t-39 263t39 263.5t105.5 205.5t154.5 144t186 87.5t201.5 28t202 -28t187 -87.5t154.5 -144t105 -205.5t39 -263.5zM845 47q93 0 181.5 26 t168.5 80.5t140 132.5t95 189t35 242t-35 242t-95 189t-140 132t-168.5 80t-181.5 26t-181.5 -26t-168 -80t-139.5 -132t-95.5 -189t-35.5 -242t35.5 -242t95.5 -189t139.5 -132.5t168 -80.5t181.5 -26zM793 -248h104v-97h-104v97z" glyph-name="uni1ECC" horiz-adv-x="1689" unicode="Ọ"/><glyph d="M1276 562q0 -117 -32 -214t-85.5 -162.5t-125 -110.5t-149 -65.5t-158.5 -20.5t-157.5 20.5t-148.5 65.5t-125 110.5t-85.5 162.5t-32.5 214q0 114 32 209.5t85.5 161.5t124 112.5t148.5 68t159 21.5t159 -21.5t149 -68t124.5 -112.5t85.5 -161.5t32 -209.5zM726 44 q73 0 141.5 19t131.5 60t110 100.5t74.5 147t27.5 191.5q0 126 -42 227.5t-111.5 163.5t-154.5 94t-177 32q-91 0 -176 -32t-154.5 -94t-111.5 -163.5t-42 -227.5q0 -104 28 -191.5t74.5 -147t109.5 -100.5t131.5 -60t140.5 -19zM675 -248h104v-97h-104v97z" glyph-name="uni1ECD" horiz-adv-x="1453" unicode="ọ"/><glyph d="M1217 1434v-906q0 -285 -117 -412t-382 -127q-264 0 -381.5 127.5t-117.5 411.5v906h68v-911q0 -253 98.5 -364.5t332 -111.5t333 111.5t99.5 364.5v911h67zM666 -248h104v-97h-104v97z" glyph-name="uni1EE4" horiz-adv-x="1435" unicode="Ụ"/><glyph d="M1152 1123h63v-1123h-64v299q-41 -103 -125 -175.5t-180.5 -103.5t-202.5 -31q-90 0 -164.5 25t-134 78t-93.5 146t-34 219v666h65v-659q0 -114 28.5 -197t81 -130.5t118 -69.5t146.5 -22q71 0 138.5 17t131.5 55.5t112.5 93t79 136t33.5 179.5zM633 -248h104v-97h-104 v97z" glyph-name="uni1EE5" horiz-adv-x="1433" unicode="ụ"/><glyph d="M317 1891h76l258 -307h-67zM1102 1434h75l-526 -821v-613h-66v613l-527 821h76l483 -753z" glyph-name="Ygrave" horiz-adv-x="1235" unicode="Ỳ"/><glyph d="M298 1581h76l258 -307h-68zM1011 1123h68l-444 -1058q-18 -43 -34 -77t-41.5 -78.5t-51.5 -79t-63 -70.5t-77.5 -61t-93.5 -43t-111 -25l-2 56q69 9 127 36.5t98 62.5t76 87t57 95t45 102l-445 1053h68l413 -981z" glyph-name="ygrave" horiz-adv-x="1197" unicode="ỳ"/><glyph d="M1102 1434h75l-526 -821v-613h-66v613l-527 821h76l483 -753zM565 -248h105v-97h-105v97z" glyph-name="uni1EF4" horiz-adv-x="1235" unicode="Ỵ"/><glyph d="M1011 1123h68l-444 -1058q-18 -43 -34 -77t-41.5 -78.5t-51.5 -79t-63 -70.5t-77.5 -61t-93.5 -43t-111 -25l-2 56q69 9 127 36.5t98 62.5t76 87t57 95t45 102l-445 1053h68l413 -981zM909 -207h108v-101h-108v101z" glyph-name="uni1EF5" horiz-adv-x="1202" unicode="ỵ"/><glyph d="M342 1585q-1 73 39 122t108 49q38 0 77 -20t66 -44t61.5 -44t63.5 -20q36 0 61.5 36.5t25.5 82.5h51q0 -73 -42.5 -121t-107.5 -48q-36 0 -83 31.5t-92.5 63t-76.5 31.5q-45 -1 -72.5 -36t-27.5 -84zM1102 1434h75l-526 -821v-613h-66v613l-527 821h76l483 -753z" glyph-name="uni1EF8" horiz-adv-x="1235" unicode="Ỹ"/><glyph d="M323 1275q-1 73 38.5 122t108.5 49q38 0 77 -20t66 -44t61.5 -44t62.5 -20q35 0 61 36.5t26 82.5h52q0 -73 -42.5 -121t-107.5 -48q-36 0 -83 31.5t-92.5 63t-77.5 31.5q-45 -1 -72 -36t-27 -84zM1011 1123h68l-444 -1058q-18 -43 -34 -77t-41.5 -78.5t-51.5 -79 t-63 -70.5t-77.5 -61t-93.5 -43t-111 -25l-2 56q69 9 127 36.5t98 62.5t76 87t57 95t45 102l-445 1053h68l413 -981z" glyph-name="uni1EF9" horiz-adv-x="1197" unicode="ỹ"/><glyph d="M219 591h928v-59h-928v59z" glyph-name="endash" horiz-adv-x="1366" unicode="–"/><glyph d="M219 591h1627v-59h-1627v59z" glyph-name="emdash" horiz-adv-x="2066" unicode="—"/><glyph d="M294 1114h-75l77 423h52z" glyph-name="quoteleft" horiz-adv-x="567" unicode="‘"/><glyph d="M273 1536h75l-77 -423h-52z" glyph-name="quoteright" horiz-adv-x="567" unicode="’"/><glyph d="M268 101h74l-76 -423h-52z" glyph-name="quotesinglbase" horiz-adv-x="561" unicode="‚"/><glyph d="M294 1113h-75l77 423h52zM503 1113h-75l77 423h52z" glyph-name="quotedblleft" horiz-adv-x="776" unicode="“"/><glyph d="M273 1536h75l-77 -423h-52zM482 1536h75l-77 -423h-52z" glyph-name="quotedblright" horiz-adv-x="776" unicode="”"/><glyph d="M268 99h74l-76 -423h-52zM476 99h75l-77 -423h-51z" glyph-name="quotedblbase" horiz-adv-x="770" unicode="„"/><glyph d="M877 1255v-55h-299v-534h-60v534h-299v55h299v281h60v-281h299z" glyph-name="dagger" horiz-adv-x="1095" unicode="†"/><glyph d="M877 1200h-299v-313h299v-57h-299v-280h-60v280h-299v57h299v313h-299v55h299v281h60v-281h299v-55z" glyph-name="daggerdbl" horiz-adv-x="1095" unicode="‡"/><glyph d="M219 724h331v-325h-331v325z" glyph-name="bullet" horiz-adv-x="769" unicode="•"/><glyph d="M219 102h111v-102h-111v102zM577 102h110v-102h-110v102zM934 102h110v-102h-110v102z" glyph-name="ellipsis" horiz-adv-x="1263" unicode="…"/><glyph d="M805 1008q0 -216 -83.5 -326.5t-231.5 -110.5q-146 0 -229.5 110.5t-83.5 326.5t83.5 326t229.5 110q147 0 231 -110t84 -326zM1294 1434h57l-766 -1434h-56zM490 622q125 0 194 97.5t69 288t-69.5 288.5t-193 98t-192.5 -98t-69 -288.5t68.5 -288t192.5 -97.5zM1701 430 q0 -216 -83.5 -326t-231.5 -110q-146 0 -229.5 110t-83.5 326t83.5 326t229.5 110q147 0 231 -110t84 -326zM2400 430q0 -216 -83.5 -326t-229.5 -110q-147 0 -230.5 110t-83.5 326t83 326t231 110q146 0 229.5 -110t83.5 -326zM1386 44q125 0 194 98t69 288.5t-69.5 288 t-193 97.5t-192.5 -97.5t-69 -288t68.5 -288.5t192.5 -98zM2086 44q125 0 193.5 98t68.5 288.5t-68.5 288t-193.5 97.5q-124 0 -192 -97.5t-68 -288t68 -288.5t192 -98z" glyph-name="perthousand" horiz-adv-x="2577" unicode="‰"/><glyph d="M635 947l-338 -384l338 -384h-78l-338 384l338 384h78z" glyph-name="guilsinglleft" horiz-adv-x="854" unicode="‹"/><glyph d="M219 947h78l338 -384l-338 -384h-78l338 384z" glyph-name="guilsinglright" horiz-adv-x="854" unicode="›"/><glyph d="M493 1434q220 0 349 -111t129 -309q0 -188 -108.5 -297.5t-285.5 -111.5q-46 -2 -90 3l-4 -297h-52l-7 361h1l-5 275h68l-2 -287q29 -4 67 -4q161 0 257.5 95.5t95.5 260.5q0 172 -111 267.5t-302 95.5q-189 0 -335 -87v67q139 79 335 79zM403 0v78h111v-78h-111z" glyph-name="uni203D" horiz-adv-x="1129" unicode="‽"/><glyph d="M765 1434h56l-766 -1434h-55z" glyph-name="fraction" horiz-adv-x="821" unicode="⁄"/><glyph d="M805 1212q0 -216 -83.5 -326t-231.5 -110q-146 0 -229.5 110t-83.5 326t83.5 326.5t229.5 110.5q147 0 231 -110.5t84 -326.5zM490 826q125 0 194 98t69 288.5t-69.5 288t-193 97.5t-192.5 -97.5t-69 -288t68.5 -288.5t192.5 -98z" glyph-name="uni2070" horiz-adv-x="982" unicode="⁰"/><glyph d="M821 1062v-49h-167v-235h-49v235h-428v49l421 576h56v-576h167zM241 1062h364v509z" glyph-name="uni2074" horiz-adv-x="998" unicode="⁴"/><glyph d="M250 1638h477v-50h-427l-26 -325q110 28 228 27q129 -2 204 -65t75 -188q-1 -136 -77 -201t-230 -64q-181 0 -297 91l28 43q51 -41 122.5 -63t145.5 -21q135 1 194.5 51t59.5 164q0 103 -63 154t-179 51q-98 0 -232 -29l-32 16z" glyph-name="uni2075" horiz-adv-x="957" unicode="⁵"/><glyph d="M837 1069q0 -97 -50.5 -166t-123 -100t-156.5 -31t-156.5 31t-123 100t-50.5 166q0 98 45 170t275 344q30 36 46 55h69l-265 -312q77 39 172 37q59 -1 114 -19t101.5 -52.5t74.5 -92t28 -130.5zM506.5 819q110.5 0 192.5 65t82 184q0 122 -81.5 185.5t-192.5 63.5 q-109 0 -192 -66.5t-83 -182.5q1 -119 82.5 -184t192 -65z" glyph-name="uni2076" horiz-adv-x="1013" unicode="⁶"/><glyph d="M177 1638h544v-50q-279 -355 -347 -810h-57q67 440 329 810h-469v50z" glyph-name="uni2077" horiz-adv-x="898" unicode="⁷"/><glyph d="M802 1012q0 -61 -28 -110.5t-74 -77.5t-100 -43t-111 -15q-45 0 -88.5 8.5t-84.5 28t-71.5 48t-49 70t-18.5 91.5q0 91 58 151.5t145 83.5q-68 22 -111.5 69.5t-43.5 119.5q0 96 76.5 149t188 53t188 -53t76.5 -149q0 -72 -43.5 -119.5t-111.5 -69.5q87 -24 145 -84 t58 -151zM280 1435q0 -78 64 -121.5t145.5 -43.5t145 43.5t63.5 121.5q0 77 -59.5 117t-149.5 40t-149.5 -40t-59.5 -117zM489 814q102 0 178 50.5t76 148.5q0 95 -76.5 151t-177 56t-178 -56t-77.5 -151q0 -67 39.5 -113.5t95 -66t120.5 -19.5z" glyph-name="uni2078" horiz-adv-x="978" unicode="⁸"/><glyph d="M177 1341q0 97 50.5 166.5t123 100t156.5 30.5t156.5 -30.5t123 -99.5t50.5 -167t-45.5 -169.5t-274.5 -344.5q-30 -36 -46 -55h-70l266 312q-77 -39 -172 -36q-59 1 -114 18.5t-102 52t-74.5 92t-27.5 130.5zM506.5 1591q-110.5 0 -192.5 -65t-82 -184q0 -122 81.5 -185 t193.5 -63q109 0 191.5 66.5t82.5 181.5q-1 119 -82.5 184t-192 65z" glyph-name="uni2079" horiz-adv-x="1013" unicode="⁹"/><glyph d="M805 123q0 -216 -83.5 -326t-231.5 -110q-146 0 -229.5 110t-83.5 326t83.5 326t229.5 110q147 0 231 -110t84 -326zM490 -263q125 0 194 97.5t69 288t-69.5 288.5t-193 98t-192.5 -98t-69 -288.5t68.5 -288t192.5 -97.5z" glyph-name="uni2080" horiz-adv-x="982" unicode="₀"/><glyph d="M438 -257h207v-50h-468v50h207v758q-95 -48 -171 -69v53q80 23 171 68h54v-810z" glyph-name="uni2081" horiz-adv-x="822" unicode="₁"/><glyph d="M794 -257v-50h-617v50q42 38 111.5 96t124 102.5t117 101t103.5 103.5t68.5 97t27.5 92q0 89 -64 139t-188 50q-139 0 -238 -82l-33 39q117 93 272 93q148 0 226 -63.5t79 -171.5q0 -47 -27 -101.5t-65.5 -102t-99.5 -106t-111 -100t-118 -98t-104 -88.5h536z" glyph-name="uni2082" horiz-adv-x="970" unicode="₂"/><glyph d="M199 564h554v-50l-358 -338q56 12 108 11q126 -2 205.5 -67t79.5 -177q0 -260 -305 -260q-82 0 -164.5 26t-141.5 72l35 40q52 -41 126 -65t145 -23q131 1 191 52.5t60 158.5q0 98 -65.5 147.5t-181.5 49.5q-84 0 -149 -31l-30 56l371 348h-480v50z" glyph-name="uni2083" horiz-adv-x="965" unicode="₃"/><glyph d="M821 -24v-49h-167v-234h-49v234h-428v49l421 577h56v-577h167zM241 -24h364v509z" glyph-name="uni2084" horiz-adv-x="998" unicode="₄"/><glyph d="M250 553h477v-50h-427l-26 -326q110 28 228 28q129 -2 204 -65t75 -188q-1 -136 -77 -201t-230 -64q-181 0 -297 91l28 43q51 -41 122.5 -63t145.5 -21q135 1 194.5 50.5t59.5 164.5q0 103 -63 154t-179 51q-98 0 -232 -29l-32 15z" glyph-name="uni2085" horiz-adv-x="957" unicode="₅"/><glyph d="M837 -10q0 -97 -50.5 -166.5t-123 -100t-156.5 -30.5t-156.5 30.5t-123 99.5t-50.5 167t45.5 170t281.5 352q26 31 39 47h69l-265 -311q77 37 172 37q59 -1 114 -19t101.5 -52.5t74.5 -92t28 -131.5zM507 -259q71 0 131 25.5t101.5 84t41.5 139.5q0 62 -24 111.5 t-63.5 78.5t-87 44t-99.5 15q-109 0 -192 -67t-83 -182q0 -81 41.5 -139.5t102 -84t131.5 -25.5z" glyph-name="uni2086" horiz-adv-x="1013" unicode="₆"/><glyph d="M177 553h544v-50q-279 -355 -347 -810h-57q67 440 329 810h-469v50z" glyph-name="uni2087" horiz-adv-x="898" unicode="₇"/><glyph d="M802 -68q0 -61 -28 -110t-74 -77.5t-100 -43t-111 -14.5q-45 0 -88.5 8.5t-84.5 28t-71.5 47.5t-49 69.5t-18.5 91.5q0 91 58 151.5t145 84.5q-68 22 -111.5 69.5t-43.5 118.5q0 96 76.5 149.5t188 53.5t188 -53t76.5 -150q0 -72 -43.5 -119.5t-111.5 -68.5 q87 -24 145 -84.5t58 -151.5zM280 355q0 -78 64 -121.5t145.5 -43.5t145 44t63.5 121t-59.5 117.5t-149.5 40.5t-149.5 -40.5t-59.5 -117.5zM489 -265q102 0 178 50.5t76 147.5q0 95 -76.5 151t-177 56t-178 -55.5t-77.5 -151.5q0 -67 39.5 -113t95 -65.5t120.5 -19.5z" glyph-name="uni2088" horiz-adv-x="978" unicode="₈"/><glyph d="M177 262q0 97 50.5 166.5t123 100t156.5 30.5t156.5 -30.5t123 -100t50.5 -166.5q0 -98 -45.5 -170t-274.5 -344q-30 -36 -46 -55h-70l266 312q-77 -39 -172 -37q-59 1 -114 19t-102 52.5t-74.5 92t-27.5 130.5zM506.5 512q-110.5 0 -192.5 -65t-82 -184 q0 -122 81.5 -185.5t193.5 -63.5q109 0 191.5 66.5t82.5 182.5q-1 119 -82.5 184t-192 65z" glyph-name="uni2089" horiz-adv-x="1013" unicode="₉"/><glyph d="M979 1384q-101 0 -198 -32t-180.5 -93.5t-144 -160.5t-83.5 -224h838v-49h-846q-6 -52 -6.5 -108.5t6.5 -108.5h846v-49h-838q24 -125 84 -223.5t143.5 -160t180.5 -94t198 -32.5q197 -2 358 105v-69q-162 -96 -358 -96q-115 0 -223.5 35.5t-201 105t-159 180 t-90.5 249.5h-128v49h121q-6 52 -6 108.5t6 108.5h-121v49h128q24 139 90.5 250t159 180t201 105t223.5 36q197 0 358 -96v-69q-161 106 -358 104z" glyph-name="Euro" horiz-adv-x="1557" unicode="€"/><glyph d="M219 1434h987v-57h-987v57zM1206 1120v-56h-460v-1064h-66v1064h-461v56h987z" glyph-name="uni20B8" horiz-adv-x="1426" unicode="₸"/><glyph d="M1199 1434v-51h-260q96 -48 150 -137.5t57 -212.5h53v-50h-54q-9 -142 -100.5 -234t-272.5 -139l378 -610h-70l-368 596q-196 -41 -493 -41v57q439 0 641.5 88t217.5 283h-859v50h860q-4 163 -105.5 253t-268.5 90h-486v58h980z" glyph-name="uni20B9" horiz-adv-x="1419" unicode="₹"/><glyph d="M1209 722h62q0 -180 -49.5 -319t-138 -226.5t-207.5 -132t-264 -44.5h-393v985l-219 -20v50l219 20v110l-219 -21v51l219 20v239h68v-233l719 66v-50l-719 -66v-110l719 66v-50l-719 -66v-931h321q132 0 240 40t189.5 119.5t126.5 207.5t45 295z" glyph-name="uni20BA" horiz-adv-x="1447" unicode="₺"/><glyph d="M743 1240q251 -6 362.5 -134t111.5 -406v-700h-67v706q0 246 -93.5 358t-313.5 118v-1182h-50v1182q-219 -5 -312.5 -117.5t-93.5 -358.5v-706h-68v700q0 278 111.5 406t362.5 134v194h50v-194z" glyph-name="uni20BC" horiz-adv-x="1435" unicode="₼"/><glyph d="M952 730q115 -28 188.5 -118t72.5 -240q0 -92 -31 -165.5t-83.5 -117.5t-116.5 -66.5t-135 -22.5h-31v-176h-51v176h-301v-176h-51v176h-194v1434h194v176h51v-176h301v176h51v-177q66 -4 125 -29t107 -68.5t76 -113.5t28 -157q0 -127 -55 -211.5t-145 -123.5zM287 1377 v-632h493q61 0 114 17t97.5 52.5t69.5 98.5t25 148q0 161 -87 238.5t-219 77.5h-493zM840 55q62 0 115.5 18t97.5 55t69 99.5t25 145.5q0 69 -17 123.5t-45.5 90t-68.5 59t-83.5 33.5t-92.5 10h-553v-633z" glyph-name="uni20BF" horiz-adv-x="1371" unicode="₿"/><glyph d="M792 1327q-95 58 -232 58q-65 0 -122 -21t-103.5 -61.5t-74 -110t-27.5 -157.5q0 -173 95 -261t232 -89q133 0 232 57v-54q-98 -54 -231 -54q-57 0 -111.5 15t-104 47.5t-87 78.5t-59.5 113t-22 147q0 98 34 177t89 126.5t122 72.5t139 25q135 0 231 -55v-54zM1358 1434 h56l-766 -1434h-55zM1863 393q0 -101 -34 -180.5t-90.5 -126t-123 -70t-138 -23.5t-137.5 23.5t-122.5 70t-90 126t-33.5 180.5q0 99 33.5 177.5t89 126t122.5 72.5t138.5 25t138.5 -25t123 -72.5t90 -126t34 -177.5zM1478 43q62 0 119 21t105 62t76.5 110t28.5 157 q0 86 -28.5 154.5t-76 110t-105.5 63.5t-119.5 22t-119.5 -22t-105 -63.5t-75.5 -110t-28.5 -154.5q0 -88 28.5 -157t76.5 -110t105.5 -62t118.5 -21z" glyph-name="afii61248" horiz-adv-x="2039" unicode="℅"/><glyph d="M872 84q-118 -93 -234 -94q-140 -4 -209 74.5t-70 229.5l-1 226q-69 -34 -178 -69l-2 44q88 34 180 83v516q0 133 57 230t163 114q98 16 174 -36t100 -154q92 -377 -432 -703v-244q7 -256 224 -256q115 0 200 82zM420 602q208 135 314 294t67 334q-17 83 -78 126.5 t-140 26.5q-55 -12 -92.5 -57.5t-53.5 -105.5t-16 -133z" glyph-name="afii61289" horiz-adv-x="1050" unicode="ℓ"/><glyph d="M2493 943q0 -127 -42.5 -226.5t-112.5 -157.5t-153.5 -88t-172.5 -30t-172 30t-153.5 88t-113 157.5t-42.5 226.5q0 100 27.5 184t74.5 141.5t109.5 98t131 59.5t138.5 19q72 0 140 -19t130 -59.5t109 -98t74.5 -141.5t27.5 -184zM1260 1434h66v-1434h-81l-958 1343 v-1343h-68v1434h82l959 -1343v1343zM2012 496q79 0 152 27t134.5 79t98 140.5t36.5 200.5q0 110 -36.5 198t-97 141t-134 81.5t-153.5 28.5t-153 -28.5t-133.5 -81.5t-97 -141t-36.5 -198q0 -91 24 -166.5t65 -126.5t95.5 -86.5t114 -51.5t121.5 -16zM1534 252h956v-53h-956 v53z" glyph-name="afii61352" horiz-adv-x="2713" unicode="№"/><glyph d="M909.5 -22q-159.5 0 -300 58t-239.5 157t-155.5 235t-56.5 289q0 154 56.5 290t155.5 234.5t239.5 156t299.5 57.5q161 0 301.5 -57.5t239.5 -155.5t156.5 -235t57.5 -290t-57.5 -289t-156 -235t-240 -157t-301 -58zM910 29q151 0 282 52.5t222.5 143.5t144.5 218.5 t53 273t-53 273t-144.5 218.5t-222.5 144t-282 53q-201 0 -361 -89.5t-249.5 -247.5t-89.5 -351.5t89.5 -351t249.5 -247t361 -89.5zM993 1138q118 0 191 -70t73 -183q1 -144 -124.5 -210.5t-418.5 -66.5v-311h-52v841h331zM1205 885q0 90 -57.5 147.5t-155.5 57.5h-278 v-436q267 1 379 56t112 175z" glyph-name="uni2117" horiz-adv-x="1821" unicode="℗"/><glyph d="M226 835q90 -71 230 -71q90 0 151.5 35.5t60.5 96.5q0 65 -53 97.5t-180 68.5q-218 59 -218 192q0 88 62.5 144t178.5 56q108 0 204 -59v-59q-91 69 -204 69q-97 0 -142.5 -43t-45.5 -109q-1 -55 53 -90t159 -62q124 -34 181.5 -79.5t57.5 -127.5q-1 -84 -75.5 -131 t-189.5 -47q-142 0 -231 55zM1544 1434h90v-717h-52v662l-291 -562h-46l-292 562v-662h-52v717h90l277 -551z" glyph-name="uni2120" horiz-adv-x="1851" unicode="℠"/><glyph d="M711 1434v-49h-222v-668h-52v668h-220v49h494zM1504 1434h90v-717h-53v662l-290 -562h-47l-291 562v-662h-53v717h90l277 -551z" glyph-name="trademark" horiz-adv-x="1811" unicode="™"/><glyph d="M438 624h207v-51h-468v51h207v757q-95 -48 -171 -68v53q80 23 171 68h54v-810zM1224 1434h56l-766 -1434h-55zM1602 240q0 -61 -28 -110.5t-74 -77.5t-99.5 -43t-111.5 -15q-56 0 -110 15t-100 43t-74 77t-28 111q0 91 58 151.5t145 83.5q-68 22 -111.5 69.5t-43.5 119.5 q0 96 76.5 149t188 53t187.5 -53t76 -149q1 -72 -43 -119.5t-110 -69.5q86 -24 144 -84t58 -151zM1080 663q0 -78 64 -121.5t145 -43.5q82 0 146 43.5t64 121.5q0 77 -60 117t-150 40q-89 0 -149 -40t-60 -117zM1289 42q102 0 178.5 50.5t76.5 148.5q0 95 -77 150.5 t-178 55.5q-99 0 -176.5 -55.5t-77.5 -150.5q0 -67 39.5 -113.5t95.5 -66t119 -19.5z" glyph-name="oneeighth" horiz-adv-x="1778" unicode="⅛"/><glyph d="M199 1434h554v-51l-358 -337q50 11 108 11q126 -2 205.5 -67.5t79.5 -178.5q0 -260 -305 -259q-82 0 -164.5 26t-141.5 72l35 40q52 -41 126 -65t145 -23q131 1 191 53t60 157q0 98 -65.5 148.5t-181.5 50.5q-84 0 -149 -32l-30 55l371 349h-480v51zM1330 1434h58 l-766 -1434h-57zM1754 240q0 -61 -28 -110.5t-74 -77.5t-100 -43t-111 -15q-56 0 -110 15t-100 43t-74.5 77t-28.5 111q0 91 58 151.5t145 83.5q-67 22 -110 69.5t-43 119.5q0 96 75.5 149t187 53t188 -53t76.5 -149q1 -72 -42.5 -119.5t-111.5 -69.5q87 -24 145 -84 t58 -151zM1232 663q0 -78 64 -121.5t146 -43.5q81 0 145 43.5t64 121.5q0 77 -60 117t-149 40q-90 0 -150 -40t-60 -117zM1442 42q101 0 177.5 50.5t76.5 148.5q0 95 -77.5 150.5t-176.5 55.5q-100 0 -177.5 -55.5t-77.5 -150.5q0 -67 39.5 -113.5t95 -66t120.5 -19.5z" glyph-name="threeeighths" horiz-adv-x="1930" unicode="⅜"/><glyph d="M250 1434h477v-51h-427l-26 -325q110 28 228 27q129 -2 204 -65t75 -187q-1 -136 -77 -201.5t-230 -64.5q-181 0 -297 91l28 43q51 -41 122.5 -63t145.5 -21q135 1 194.5 51t59.5 165q0 103 -63 153.5t-179 50.5q-98 0 -232 -28l-32 15zM1338 1434h57l-766 -1434h-56z M1733 240q0 -61 -28.5 -110.5t-74.5 -77.5t-99.5 -43t-111.5 -15q-45 0 -88.5 8.5t-84 28t-71 47.5t-49 69.5t-18.5 92.5q0 91 58 151.5t145 83.5q-68 22 -111.5 69.5t-43.5 119.5q0 96 76 149t187.5 53t188 -53t76.5 -149q0 -72 -43.5 -119.5t-110.5 -69.5q87 -24 145 -84 t58 -151zM1210 663q0 -78 64 -121.5t146 -43.5q81 0 145 43.5t64 121.5q0 77 -60 117t-149 40q-90 0 -150 -40t-60 -117zM1420 42q102 0 178 50.5t76 148.5q0 95 -77 150.5t-177 55.5t-177.5 -55.5t-77.5 -150.5q0 -67 39.5 -113.5t95 -66t120.5 -19.5z" glyph-name="fiveeighths" horiz-adv-x="1909" unicode="⅝"/><glyph d="M177 1434h544v-51q-279 -355 -347 -810h-57q67 440 329 810h-469v51zM1084 1434h58l-766 -1434h-57zM1480 240q0 -61 -28 -110.5t-74 -77.5t-100 -43t-110.5 -15t-110 15t-100 43t-74.5 77t-28 111q0 91 58 151.5t145 83.5q-68 22 -111.5 69.5t-43.5 119.5q0 96 76.5 149 t188 53t188 -53t76.5 -149q0 -72 -43.5 -119.5t-111.5 -69.5q87 -24 145 -84t58 -151zM958 663q0 -78 63.5 -121.5t145.5 -43.5t146 43.5t64 121.5q0 77 -60 117t-150 40q-89 0 -149 -40t-60 -117zM1167 42q102 0 178.5 50.5t76.5 148.5q0 95 -77 150.5t-177.5 55.5 t-177.5 -55.5t-77 -150.5q0 -67 39 -113.5t94.5 -66t120.5 -19.5z" glyph-name="seveneighths" horiz-adv-x="1656" unicode="⅞"/><glyph d="M749 0l-530 717l530 717h75l-506 -685h1335v-65h-1335l506 -684h-75z" glyph-name="arrowleft" horiz-adv-x="1872" unicode="←"/><glyph d="M1653 904v-75l-684 505v-1334h-65v1334l-685 -506v76l717 530z" glyph-name="arrowup" horiz-adv-x="1872" unicode="↑"/><glyph d="M1123 0h-74l505 684h-1335v65h1335l-506 685h75l530 -717z" glyph-name="arrowright" horiz-adv-x="1872" unicode="→"/><glyph d="M1653 529l-717 -529l-717 529v76l685 -506v1335h65v-1335l684 505v-75z" glyph-name="arrowdown" horiz-adv-x="1872" unicode="↓"/><glyph d="M1689 1434l529 -717l-529 -717h-76l506 684h-1801l506 -684h-75l-530 717l530 717h75l-506 -685h1801l-507 685h77z" glyph-name="arrowboth" horiz-adv-x="2437" unicode="↔"/><glyph d="M969 -215l684 505v-75l-717 -529l-717 529v76l685 -506v1659l-685 -506v76l717 529l717 -529v-75l-684 505v-1659z" glyph-name="arrowupdn" horiz-adv-x="1872" unicode="↕"/><glyph d="M1330 361l-46 -45l-1006 1013v-948l-59 39v1014h1014l39 -59h-950z" glyph-name="uni2196" horiz-adv-x="1555" unicode="↖"/><glyph d="M323 1434h1013v-1014l-58 -39v948l-1007 -1013l-46 45l1009 1014h-950z" glyph-name="uni2197" horiz-adv-x="1555" unicode="↗"/><glyph d="M1278 1053l58 -39v-1014h-1013l-39 58h950l-1009 1014l46 45l1007 -1013v949z" glyph-name="uni2198" horiz-adv-x="1555" unicode="↘"/><glyph d="M1330 1072l-1008 -1014h950l-39 -58h-1014v1014l59 39v-949l1006 1013z" glyph-name="uni2199" horiz-adv-x="1555" unicode="↙"/><glyph d="M1144 566q1 -118 -27 -215.5t-75.5 -163t-110.5 -111t-131 -66t-140 -20.5q-90 0 -173.5 29.5t-154 88t-113 158t-42.5 226.5q0 124 38 221.5t102 157t144.5 90t170.5 30.5q129 -1 241 -45t182 -131q-25 120 -74.5 211.5t-112 147t-129 84.5t-137.5 36l9 54 q61 -4 122 -25t121 -60t111.5 -102.5t91.5 -146t63 -198t24 -250.5zM660 45q81 0 154 30t133.5 90t96 163t35.5 235q0 76 -8 152q-54 113 -172.5 167.5t-266.5 54.5q-80 0 -149 -27t-124 -80.5t-86 -140t-31 -197.5q0 -91 24 -167t64 -127.5t94 -86t113.5 -50.5t122.5 -16z " glyph-name="partialdiff" horiz-adv-x="1320" unicode="∂"/><glyph d="M1167 953q155 -165 155 -391q0 -156 -77 -288t-208.5 -208.5t-286.5 -76.5q-227 0 -393 154l-133 -133l-37 36l135 134q-144 163 -145 382q0 156 76.5 287.5t208.5 208.5t288 77q217 0 380 -146l125 125l37 -36zM229 562q0 -198 130 -344l734 733q-146 130 -343 130 q-141 0 -261 -69.5t-190 -189t-70 -260.5zM750 42q141 0 260 69.5t189 189.5t70 261q0 204 -140 353l-734 -734q151 -139 355 -139z" glyph-name="emptyset" horiz-adv-x="1499" unicode="∅"/><glyph d="M1201 1434v-1641h-67v1582h-847v-1582h-68v1641h982z" glyph-name="product" horiz-adv-x="1420" unicode="∏"/><glyph d="M1279 -191v-59h-1060v56l515 815l-515 813v57h1041v-59h-961l512 -811l-512 -812h980z" glyph-name="summation" horiz-adv-x="1498" unicode="∑"/><glyph d="M1051 689h-832v55h832v-55z" glyph-name="minus" horiz-adv-x="1269" unicode="−"/><glyph d="M1598 1434l-664 -1741h-83l-260 879h-372v58h418l257 -875l640 1679h64z" glyph-name="radical" horiz-adv-x="1817" unicode="√"/><glyph d="M1258 873q113 0 189.5 -88t76.5 -223q0 -129 -77.5 -215.5t-188.5 -86.5q-169 0 -408 266q-240 -266 -409 -266q-111 0 -187.5 86.5t-76.5 215.5q0 135 76 223t188 88q88 0 185.5 -64t223.5 -203q126 139 223 203t185 64zM443 315q48 0 94.5 17.5t97.5 58.5t85 74t96 98 q-50 53 -73 76.5t-62 60.5t-62 53t-55 35t-60.5 25.5t-60.5 6.5q-90 0 -148 -75t-58 -183q0 -102 56.5 -174.5t149.5 -72.5zM1256 315q93 0 150.5 72.5t57.5 174.5q0 108 -58.5 183t-149.5 75q-37 0 -74 -12.5t-66 -29.5t-73 -56.5t-72.5 -68t-86.5 -90.5q52 -54 77 -79 t69.5 -64.5t75.5 -57.5t71 -32.5t79 -14.5z" glyph-name="infinity" horiz-adv-x="1699" unicode="∞"/><glyph d="M595 1447q49 0 96 -12l-7 -44q-40 5 -86 4q-79 -1 -105.5 -42.5t-26.5 -133.5v-1204q0 -121 -45 -173t-148 -51q-53 0 -96 11l7 45q37 -6 85 -5q80 1 106 42.5t26 134.5v1203q0 121 46 173t148 52z" glyph-name="integral" horiz-adv-x="868" unicode="∫"/><glyph d="M219 816q-1 75 40 124.5t112 49.5q38 0 77.5 -20t67.5 -44t62 -44t64 -20q36 0 62 37t26 83h54q0 -75 -43.5 -124.5t-108.5 -49.5q-37 0 -85 32t-94 64t-79 32q-45 -1 -73 -36.5t-28 -84.5zM219 471q-1 75 40 125t112 50q38 0 77.5 -20t67.5 -44.5t62 -44.5t64 -20 q36 0 62 37t26 83h54q0 -75 -43.5 -124t-108.5 -49q-30 0 -67 20t-66 44t-64 43.5t-61 19.5q-45 -1 -73 -36t-28 -85z" glyph-name="approxequal" horiz-adv-x="1003" unicode="≈"/><glyph d="M1051 851h-288l-201 -268h489v-57h-532l-184 -245h-54l184 245h-246v57h289l201 268h-490v56h533l184 246h54l-184 -246h245v-56z" glyph-name="notequal" horiz-adv-x="1269" unicode="≠"/><glyph d="M1093 938v-62l-807 -235l807 -234v-63l-874 255v84zM219 116v57h874v-57h-874z" glyph-name="lessequal" horiz-adv-x="1311" unicode="≤"/><glyph d="M219 938l874 -255v-84l-874 -255v63l807 234l-807 235v62zM219 116v57h874v-57h-874z" glyph-name="greaterequal" horiz-adv-x="1311" unicode="≥"/><glyph d="M1028 -154q-177 0 -338.5 69.5t-277.5 185.5t-185 278t-69 339t69 338t185 277.5t277.5 185t338.5 68.5t338.5 -68.5t277.5 -185t185 -277.5t69 -338t-69 -339t-185 -278t-277.5 -185.5t-338.5 -69.5zM1028 -103q167 0 319 64.5t261.5 174.5t174.5 262t65 320 q0 167 -65 319t-174.5 261.5t-261.5 174t-319 64.5q-223 0 -411.5 -109.5t-298.5 -298t-110 -411.5q0 -224 110 -413t298.5 -298.5t411.5 -109.5zM1056 337h207v-50h-468v50h206v758q-95 -48 -170 -69v53q80 23 170 68h55v-810z" glyph-name="uni2460" horiz-adv-x="2057" unicode="①"/><glyph d="M1028 -154q-177 0 -338.5 69.5t-277.5 185.5t-185 278t-69 339t69 338t185 277.5t277.5 185t338.5 68.5t338.5 -68.5t277.5 -185t185 -277.5t69 -338t-69 -339t-185 -278t-277.5 -185.5t-338.5 -69.5zM1028 -103q167 0 319 64.5t261.5 174.5t174.5 262t65 320 q0 167 -65 319t-174.5 261.5t-261.5 174t-319 64.5q-223 0 -411.5 -109.5t-298.5 -298t-110 -411.5q0 -224 110 -413t298.5 -298.5t411.5 -109.5zM1335 326v-51h-616v51q46 41 134 113.5t151 127t129.5 119.5t102 124t35.5 109q0 89 -64 139t-188 50q-137 0 -239 -82l-32 38 q120 94 272 94q148 0 226.5 -64t79.5 -172q0 -55 -34 -118t-99.5 -130.5t-122 -118.5t-145 -124t-125.5 -105h535z" glyph-name="uni2461" horiz-adv-x="2057" unicode="②"/><glyph d="M1028 -154q-177 0 -338.5 69.5t-277.5 185.5t-185 278t-69 339t69 338t185 277.5t277.5 185t338.5 68.5t338.5 -68.5t277.5 -185t185 -277.5t69 -338t-69 -339t-185 -278t-277.5 -185.5t-338.5 -69.5zM1028 -103q167 0 319 64.5t261.5 174.5t174.5 262t65 320 q0 167 -65 319t-174.5 261.5t-261.5 174t-319 64.5q-223 0 -411.5 -109.5t-298.5 -298t-110 -411.5q0 -224 110 -413t298.5 -298.5t411.5 -109.5zM743 1158h554v-50l-357 -338q52 11 108 10q126 -2 205.5 -67t79.5 -177q0 -260 -305 -261q-83 0 -166 27t-140 73l35 39 q52 -41 125.5 -65t144.5 -23q131 1 191.5 52.5t60.5 158.5q0 98 -65.5 147.5t-181.5 49.5q-86 0 -149 -31l-31 56l372 349h-481v50z" glyph-name="uni2462" horiz-adv-x="2057" unicode="③"/><glyph d="M1028 -154q-177 0 -338.5 69.5t-277.5 185.5t-185 278t-69 339t69 338t185 277.5t277.5 185t338.5 68.5t338.5 -68.5t277.5 -185t185 -277.5t69 -338t-69 -339t-185 -278t-277.5 -185.5t-338.5 -69.5zM1028 -103q167 0 319 64.5t261.5 174.5t174.5 262t65 320 q0 167 -65 319t-174.5 261.5t-261.5 174t-319 64.5q-223 0 -411.5 -109.5t-298.5 -298t-110 -411.5q0 -224 110 -413t298.5 -298.5t411.5 -109.5zM1350 570v-49h-167v-234h-49v234h-428v49l420 577h57v-577h167zM769 570h365v509z" glyph-name="uni2463" horiz-adv-x="2057" unicode="④"/><glyph d="M1028 -154q-177 0 -338.5 69.5t-277.5 185.5t-185 278t-69 339t69 338t185 277.5t277.5 185t338.5 68.5t338.5 -68.5t277.5 -185t185 -277.5t69 -338t-69 -339t-185 -278t-277.5 -185.5t-338.5 -69.5zM1028 -103q167 0 319 64.5t261.5 174.5t174.5 262t65 320 q0 167 -65 319t-174.5 261.5t-261.5 174t-319 64.5q-223 0 -411.5 -109.5t-298.5 -298t-110 -411.5q0 -224 110 -413t298.5 -298.5t411.5 -109.5zM799 1150h477l-1 -50h-426l-26 -326q115 29 227 28q130 -2 204.5 -65t74.5 -188q0 -136 -76 -200.5t-231 -64.5 q-180 0 -297 91l29 43q51 -41 122.5 -63t145.5 -21q135 1 194 51t59 165q0 102 -63 153t-178 51q-105 0 -232 -29l-33 15z" glyph-name="uni2464" horiz-adv-x="2057" unicode="⑤"/><glyph d="M1028 -154q-177 0 -338.5 69.5t-277.5 185.5t-185 278t-69 339t69 338t185 277.5t277.5 185t338.5 68.5t338.5 -68.5t277.5 -185t185 -277.5t69 -338t-69 -339t-185 -278t-277.5 -185.5t-338.5 -69.5zM1028 -103q167 0 319 64.5t261.5 174.5t174.5 262t65 320 q0 167 -65 319t-174.5 261.5t-261.5 174t-319 64.5q-223 0 -411.5 -109.5t-298.5 -298t-110 -411.5q0 -224 110 -413t298.5 -298.5t411.5 -109.5zM1357 580.5q0 -73.5 -29 -132t-77 -93t-104.5 -53t-118 -18.5t-119.5 18.5t-106 53t-77 93t-29 132.5q0 98 45 169.5 t275 344.5q30 36 46 55h70l-266 -312q79 39 172 36q59 0 114 -17.5t102 -52t74.5 -92.5t27.5 -131.5zM1027 331q112 0 194 65t82 184q0 122 -82 185t-194 63q-109 0 -191.5 -66t-82.5 -182q1 -119 82 -184t192 -65z" glyph-name="uni2465" horiz-adv-x="2057" unicode="⑥"/><glyph d="M1028 -154q-177 0 -338.5 69.5t-277.5 185.5t-185 278t-69 339t69 338t185 277.5t277.5 185t338.5 68.5t338.5 -68.5t277.5 -185t185 -277.5t69 -338t-69 -339t-185 -278t-277.5 -185.5t-338.5 -69.5zM1028 -103q167 0 319 64.5t261.5 174.5t174.5 262t65 320 q0 167 -65 319t-174.5 261.5t-261.5 174t-319 64.5q-223 0 -411.5 -109.5t-298.5 -298t-110 -411.5q0 -224 110 -413t298.5 -298.5t411.5 -109.5zM757 1086h543v-50q-278 -354 -348 -810h-55q67 440 329 810h-469v50z" glyph-name="uni2466" horiz-adv-x="2057" unicode="⑦"/><glyph d="M1028 -154q-177 0 -338.5 69.5t-277.5 185.5t-185 278t-69 339t69 338t185 277.5t277.5 185t338.5 68.5t338.5 -68.5t277.5 -185t185 -277.5t69 -338t-69 -339t-185 -278t-277.5 -185.5t-338.5 -69.5zM1028 -103q167 0 319 64.5t261.5 174.5t174.5 262t65 320 q0 167 -65 319t-174.5 261.5t-261.5 174t-319 64.5q-223 0 -411.5 -109.5t-298.5 -298t-110 -411.5q0 -224 110 -413t298.5 -298.5t411.5 -109.5zM1339 526q0 -61 -27.5 -110t-73.5 -77.5t-100 -43t-111 -14.5q-56 0 -110 14.5t-100 43t-74 77.5t-28 110q0 92 57.5 152 t145.5 84q-68 22 -111.5 69.5t-43.5 118.5q0 96 76 149.5t188 53.5t188 -53t76 -150q1 -72 -43 -119.5t-111 -68.5q87 -24 144.5 -84.5t57.5 -151.5zM818 949q0 -78 64 -121.5t145 -43.5q82 0 146 43.5t64 121.5q0 77 -60 117.5t-150 40.5q-89 0 -149 -40.5t-60 -117.5z M1027 329q102 0 178.5 50.5t76.5 147.5q0 95 -77.5 151t-177.5 56q-99 0 -176.5 -55.5t-77.5 -151.5q0 -67 39.5 -113t95.5 -65.5t119 -19.5z" glyph-name="uni2467" horiz-adv-x="2057" unicode="⑧"/><glyph d="M1028 -154q-177 0 -338.5 69.5t-277.5 185.5t-185 278t-69 339t69 338t185 277.5t277.5 185t338.5 68.5t338.5 -68.5t277.5 -185t185 -277.5t69 -338t-69 -339t-185 -278t-277.5 -185.5t-338.5 -69.5zM1028 -103q167 0 319 64.5t261.5 174.5t174.5 262t65 320 q0 167 -65 319t-174.5 261.5t-261.5 174t-319 64.5q-223 0 -411.5 -109.5t-298.5 -298t-110 -411.5q0 -224 110 -413t298.5 -298.5t411.5 -109.5zM698 853q0 97 50.5 166.5t123 100t156.5 30.5t156.5 -30.5t123 -100t50.5 -166.5q0 -99 -46.5 -172.5t-281.5 -351.5 q-25 -30 -38 -45h-68l265 312q-79 -39 -173 -37q-59 0 -114 18t-101 52.5t-74.5 92t-28.5 131.5zM1028.5 1103q-110.5 0 -192.5 -65t-82 -184q0 -122 81 -185.5t193 -63.5q70 0 131 27t103 85t42 137q-1 119 -83 184t-192.5 65z" glyph-name="uni2468" horiz-adv-x="2057" unicode="⑨"/><glyph d="M1028 -154q-177 0 -338.5 69.5t-277.5 185.5t-185 278t-69 339t69 338t185 277.5t277.5 185t338.5 68.5t338.5 -68.5t277.5 -185t185 -277.5t69 -338t-69 -339t-185 -278t-277.5 -185.5t-338.5 -69.5zM1028 -103q167 0 319 64.5t261.5 174.5t174.5 262t65 320 q0 167 -65 319t-174.5 261.5t-261.5 174t-319 64.5q-223 0 -411.5 -109.5t-298.5 -298t-110 -411.5q0 -224 110 -413t298.5 -298.5t411.5 -109.5zM1341 717q0 -216 -83 -326t-231 -110q-146 0 -229.5 110t-83.5 326t83.5 326t229.5 110q147 0 230.5 -110t83.5 -326z M1027 331q124 0 192 97.5t68 288t-68 288.5t-192 98q-123 0 -191 -98.5t-68 -288t68 -287.5t191 -98z" glyph-name="uni24EA" horiz-adv-x="2057" unicode="⓪"/><glyph d="M980 -105q-167 0 -319 65t-262.5 175t-175.5 262.5t-65 320.5t65 320t175 261.5t262.5 174.5t319.5 65q168 0 320 -65t262 -174.5t175 -261.5t65 -320t-65 -320.5t-175 -262.5t-262 -175t-320 -65zM1294 717q0 216 -83.5 326t-229.5 110q-147 0 -230.5 -110t-83.5 -326 t83.5 -326t230.5 -110q146 0 229.5 110t83.5 326zM980 331q-124 0 -192.5 97.5t-68.5 288t68.5 288.5t192.5 98q125 0 193.5 -98t68.5 -288.5t-68.5 -288t-193.5 -97.5z" glyph-name="uni24FF" horiz-adv-x="1959" unicode="⓿"/><glyph d="M219 1485h1536v-1536h-1536v1536z" glyph-name="filledbox" horiz-adv-x="1975" unicode="■"/><glyph d="M219 1434h1434v-1434h-1434v1434zM269 1383v-1333h1334v1333h-1334z" glyph-name="H22073" horiz-adv-x="1872" unicode="□"/><glyph d="M1253 717l-477 -717h-79l-478 717l478 717h79zM1185 717l-449 668l-446 -668l446 -670z" glyph-name="lozenge" horiz-adv-x="1473" unicode="◊"/><glyph d="M1028 -154q-177 0 -338.5 69.5t-277.5 185.5t-185 278t-69 339t69 338t185 277.5t277.5 185t338.5 68.5t338.5 -68.5t277.5 -185t185 -277.5t69 -338t-69 -339t-185 -278t-277.5 -185.5t-338.5 -69.5zM1028 -103q167 0 319 64.5t261.5 174.5t174.5 262t65 320 q0 167 -65 319t-174.5 261.5t-261.5 174t-319 64.5q-223 0 -411.5 -109.5t-298.5 -298t-110 -411.5q0 -224 110 -413t298.5 -298.5t411.5 -109.5z" glyph-name="circle" horiz-adv-x="2057" unicode="○"/><glyph d="M980 -105q-167 0 -319 65t-262.5 175t-175.5 262.5t-65 320.5t65 320t175 261.5t262.5 174.5t319.5 65q168 0 320 -65t262 -174.5t175 -261.5t65 -320t-65 -320.5t-175 -262.5t-262 -175t-320 -65z" glyph-name="H18533" horiz-adv-x="1959" unicode="●"/><glyph d="M1028 -154q-177 0 -338.5 69t-278 185.5t-185 278t-68.5 339.5q0 142 44 274.5t124.5 239.5t187.5 187.5t239.5 124t274.5 43.5t275 -43.5t240 -124t187 -187.5t124 -239.5t44 -274.5q0 -178 -68.5 -339.5t-185 -278t-278 -185.5t-338.5 -69zM1056 337v810h-55 q-90 -45 -170 -68v-53q75 20 170 69v-758h-206v-50h468v50h-207z" glyph-name="uni2776" horiz-adv-x="2057" unicode="❶"/><glyph d="M1028 -154q-177 0 -338.5 69t-278 185.5t-185 278t-68.5 339.5q0 142 44 274.5t124.5 239.5t187.5 187.5t239.5 124t274.5 43.5t275 -43.5t240 -124t187 -187.5t124 -239.5t44 -274.5q0 -178 -68.5 -339.5t-185 -278t-278 -185.5t-338.5 -69zM1336 326h-534 q36 32 104 88.5t118 98.5t110.5 100.5t100 105.5t66 101t26.5 102q-1 109 -79.5 172.5t-226.5 63.5q-154 0 -271 -94l31 -38q103 82 240 82q124 0 187.5 -50t63.5 -139q0 -49 -35.5 -108.5t-102 -124.5t-129 -119.5t-151 -127t-134.5 -113.5v-51h616v51z" glyph-name="uni2777" horiz-adv-x="2057" unicode="❷"/><glyph d="M1028 -154q-177 0 -338.5 69t-278 185.5t-185 278t-68.5 339.5q0 142 44 274.5t124.5 239.5t187.5 187.5t239.5 124t274.5 43.5t275 -43.5t240 -124t187 -187.5t124 -239.5t44 -274.5q0 -178 -68.5 -339.5t-185 -278t-278 -185.5t-338.5 -69zM744 1158v-50h481l-371 -349 l30 -56q62 31 149 31q116 0 181.5 -49.5t65.5 -147.5q0 -106 -60 -158t-191 -53q-72 -1 -145.5 23t-125.5 65l-35 -39q58 -46 141 -73t165 -27q305 0 305 261q0 113 -79.5 177.5t-205.5 66.5q-55 1 -108 -10l357 338v50h-554z" glyph-name="uni2778" horiz-adv-x="2057" unicode="❸"/><glyph d="M1028 -154q-177 0 -338.5 69t-278 185.5t-185 278t-68.5 339.5q0 142 44 274.5t124.5 239.5t187.5 187.5t239.5 124t274.5 43.5t275 -43.5t240 -124t187 -187.5t124 -239.5t44 -274.5q0 -178 -68.5 -339.5t-185 -278t-278 -185.5t-338.5 -69zM1351 570h-167v577h-57 l-420 -577v-49h428v-234h49v234h167v49zM770 570l365 509v-509h-365z" glyph-name="uni2779" horiz-adv-x="2057" unicode="❹"/><glyph d="M1028 -154q-177 0 -338.5 69t-278 185.5t-185 278t-68.5 339.5q0 142 44 274.5t124.5 239.5t187.5 187.5t239.5 124t274.5 43.5t275 -43.5t240 -124t187 -187.5t124 -239.5t44 -274.5q0 -178 -68.5 -339.5t-185 -278t-278 -185.5t-338.5 -69zM800 1150l-30 -410l33 -15 q127 29 232 29q115 0 178.5 -51t62.5 -153q0 -115 -59 -165t-194 -51q-74 -1 -145.5 21t-122.5 63l-28 -43q116 -91 296 -91q155 0 231 64.5t76 200.5q0 125 -74.5 188t-203.5 65q-113 1 -228 -28l26 326h427v50h-477z" glyph-name="uni277A" horiz-adv-x="2057" unicode="❺"/><glyph d="M1028 -154q-177 0 -338.5 69t-278 185.5t-185 278t-68.5 339.5q0 142 44 274.5t124.5 239.5t187.5 187.5t239.5 124t274.5 43.5t275 -43.5t240 -124t187 -187.5t124 -239.5t44 -274.5q0 -178 -68.5 -339.5t-185 -278t-278 -185.5t-338.5 -69zM1359 580.5 q0 73.5 -28 131.5t-74.5 92.5t-101.5 52t-115 17.5q-93 2 -172 -36l266 312h-70q-16 -19 -46 -55q-229 -272 -274.5 -344t-45.5 -170q0 -74 29.5 -132.5t77.5 -93t105.5 -53t119 -18.5t118.5 18.5t104.5 53t77 93t29.5 132zM1028 331q-111 0 -192 65t-82 184q0 117 83 182.5 t191 65.5q112 0 194 -63.5t82 -184.5q0 -119 -82 -184t-194 -65z" glyph-name="uni277B" horiz-adv-x="2057" unicode="❻"/><glyph d="M1028 -154q-177 0 -338.5 69t-278 185.5t-185 278t-68.5 339.5q0 142 44 274.5t124.5 239.5t187.5 187.5t239.5 124t274.5 43.5t275 -43.5t240 -124t187 -187.5t124 -239.5t44 -274.5q0 -178 -68.5 -339.5t-185 -278t-278 -185.5t-338.5 -69zM758 1147v-50h469 q-262 -370 -329 -810h56q69 455 348 810v50h-544z" glyph-name="uni277C" horiz-adv-x="2057" unicode="❼"/><glyph d="M1028 -154q-177 0 -338.5 69t-278 185.5t-185 278t-68.5 339.5q0 142 44 274.5t124.5 239.5t187.5 187.5t239.5 124t274.5 43.5t275 -43.5t240 -124t187 -187.5t124 -239.5t44 -274.5q0 -178 -68.5 -339.5t-185 -278t-278 -185.5t-338.5 -69zM1340 526q0 91 -57.5 151.5 t-143.5 84.5q67 22 110.5 69.5t42.5 118.5q0 96 -76 149.5t-188 53.5t-188 -53t-76 -150q0 -72 43.5 -119.5t111.5 -68.5q-87 -24 -145 -84t-58 -152q0 -61 28 -110t74 -77.5t100 -43t110 -14.5q57 0 111 14.5t100 43t73.5 77.5t27.5 110zM819 949q0 77 60 117.5t149 40.5 q90 0 150 -40.5t60 -117.5q0 -78 -64 -121.5t-146 -43.5q-81 0 -145 43.5t-64 121.5zM1028 329q-63 0 -119 19.5t-95.5 66t-39.5 112.5q0 95 77.5 151t176.5 56q100 0 177.5 -55.5t77.5 -151.5q0 -97 -76.5 -147.5t-178.5 -50.5z" glyph-name="uni277D" horiz-adv-x="2057" unicode="❽"/><glyph d="M1028 -154q-177 0 -338.5 69t-278 185.5t-185 278t-68.5 339.5q0 142 44 274.5t124.5 239.5t187.5 187.5t239.5 124t274.5 43.5t275 -43.5t240 -124t187 -187.5t124 -239.5t44 -274.5q0 -178 -68.5 -339.5t-185 -278t-278 -185.5t-338.5 -69zM698 853q0 -74 28.5 -131.5 t74.5 -92t100.5 -52.5t114.5 -18q94 -2 173 37l-265 -312h68q13 15 38 45q234 279 281 352t47 172q0 97 -50.5 166.5t-123 100t-156.5 30.5t-156.5 -30.5t-123 -100t-50.5 -166.5zM1028.5 1103q110.5 0 192.5 -65t83 -184q0 -79 -42 -137t-103 -85t-131 -27 q-112 0 -193 63.5t-81 185.5q0 119 82 184t192.5 65z" glyph-name="uni277E" horiz-adv-x="2057" unicode="❾"/><glyph d="M198 1372h104v-98h-104v98zM217 1123h65v-1123h-65v1123z" glyph-name="i.aalt" horiz-adv-x="498"/><glyph d="M1179 1123h59v-1123h-59l-2 298q-60 -156 -190 -232.5t-285 -76.5q-101 0 -192.5 33.5t-167.5 100.5t-120.5 180.5t-44.5 258.5q0 141 44.5 254t119.5 180.5t167 103t194 35.5q155 0 285 -79t190 -232zM707 44q72 0 136.5 17t125 56t104.5 95t70.5 141t27.5 190v38 q-3 122 -43.5 219.5t-106 157t-146 90.5t-168.5 31q-91 0 -173.5 -32t-149.5 -94t-105.5 -163t-38.5 -228q0 -105 25.5 -192t70 -146.5t104.5 -100.5t127 -60t140 -19z" glyph-name="a.salt" horiz-adv-x="1455"/><glyph d="M1028 1581l-266 -307h-68l259 307h75zM1179 1123h59v-1123h-59l-2 298q-60 -156 -190 -232.5t-285 -76.5q-101 0 -192.5 33.5t-167.5 100.5t-120.5 180.5t-44.5 258.5q0 141 44.5 254t119.5 180.5t167 103t194 35.5q155 0 285 -79t190 -232zM707 44q72 0 136.5 17t125 56 t104.5 95t70.5 141t27.5 190v38q-3 122 -43.5 219.5t-106 157t-146 90.5t-168.5 31q-91 0 -173.5 -32t-149.5 -94t-105.5 -163t-38.5 -228q0 -105 25.5 -192t70 -146.5t104.5 -100.5t127 -60t140 -19z" glyph-name="aacute.aalt" horiz-adv-x="1455"/><glyph d="M952 1494q-2 -91 -67 -155.5t-157 -64.5t-157.5 64.5t-67.5 155.5h54q0 -70 49.5 -119.5t121.5 -49.5q70 0 120 49.5t51 119.5h53zM1179 1123h59v-1123h-59l-2 298q-60 -156 -190 -232.5t-285 -76.5q-101 0 -192.5 33.5t-167.5 100.5t-120.5 180.5t-44.5 258.5 q0 141 44.5 254t119.5 180.5t167 103t194 35.5q155 0 285 -79t190 -232zM707 44q72 0 136.5 17t125 56t104.5 95t70.5 141t27.5 190v38q-3 122 -43.5 219.5t-106 157t-146 90.5t-168.5 31q-91 0 -173.5 -32t-149.5 -94t-105.5 -163t-38.5 -228q0 -105 25.5 -192t70 -146.5 t104.5 -100.5t127 -60t140 -19z" glyph-name="abreve.aalt" horiz-adv-x="1455"/><glyph d="M916 1581h68l-213 -307h-87l-214 307h68l190 -270zM1179 1123h59v-1123h-59l-2 298q-60 -156 -190 -232.5t-285 -76.5q-101 0 -192.5 33.5t-167.5 100.5t-120.5 180.5t-44.5 258.5q0 141 44.5 254t119.5 180.5t167 103t194 35.5q155 0 285 -79t190 -232zM707 44 q72 0 136.5 17t125 56t104.5 95t70.5 141t27.5 190v38q-3 122 -43.5 219.5t-106 157t-146 90.5t-168.5 31q-91 0 -173.5 -32t-149.5 -94t-105.5 -163t-38.5 -228q0 -105 25.5 -192t70 -146.5t104.5 -100.5t127 -60t140 -19z" glyph-name="uni01CE.aalt" horiz-adv-x="1455"/><glyph d="M984 1274h-68l-188 271l-190 -271h-68l214 307h87zM1179 1123h59v-1123h-59l-2 298q-60 -156 -190 -232.5t-285 -76.5q-101 0 -192.5 33.5t-167.5 100.5t-120.5 180.5t-44.5 258.5q0 141 44.5 254t119.5 180.5t167 103t194 35.5q155 0 285 -79t190 -232zM707 44 q72 0 136.5 17t125 56t104.5 95t70.5 141t27.5 190v38q-3 122 -43.5 219.5t-106 157t-146 90.5t-168.5 31q-91 0 -173.5 -32t-149.5 -94t-105.5 -163t-38.5 -228q0 -105 25.5 -192t70 -146.5t104.5 -100.5t127 -60t140 -19z" glyph-name="acircumflex.aalt" horiz-adv-x="1455"/><glyph d="M508 1372h104v-98h-104v98zM844 1372h103v-98h-103v98zM1179 1123h59v-1123h-59l-2 298q-60 -156 -190 -232.5t-285 -76.5q-101 0 -192.5 33.5t-167.5 100.5t-120.5 180.5t-44.5 258.5q0 141 44.5 254t119.5 180.5t167 103t194 35.5q155 0 285 -79t190 -232zM707 44 q72 0 136.5 17t125 56t104.5 95t70.5 141t27.5 190v38q-3 122 -43.5 219.5t-106 157t-146 90.5t-168.5 31q-91 0 -173.5 -32t-149.5 -94t-105.5 -163t-38.5 -228q0 -105 25.5 -192t70 -146.5t104.5 -100.5t127 -60t140 -19z" glyph-name="adieresis.aalt" horiz-adv-x="1455"/><glyph d="M1179 1123h59v-1123h-59l-2 298q-60 -156 -190 -232.5t-285 -76.5q-101 0 -192.5 33.5t-167.5 100.5t-120.5 180.5t-44.5 258.5q0 141 44.5 254t119.5 180.5t167 103t194 35.5q155 0 285 -79t190 -232zM707 44q72 0 136.5 17t125 56t104.5 95t70.5 141t27.5 190v38 q-3 122 -43.5 219.5t-106 157t-146 90.5t-168.5 31q-91 0 -173.5 -32t-149.5 -94t-105.5 -163t-38.5 -228q0 -105 25.5 -192t70 -146.5t104.5 -100.5t127 -60t140 -19zM676 -248h104v-97h-104v97z" glyph-name="uni1EA1.aalt" horiz-adv-x="1455"/><glyph d="M428 1581h76l258 -307h-68zM1179 1123h59v-1123h-59l-2 298q-60 -156 -190 -232.5t-285 -76.5q-101 0 -192.5 33.5t-167.5 100.5t-120.5 180.5t-44.5 258.5q0 141 44.5 254t119.5 180.5t167 103t194 35.5q155 0 285 -79t190 -232zM707 44q72 0 136.5 17t125 56t104.5 95 t70.5 141t27.5 190v38q-3 122 -43.5 219.5t-106 157t-146 90.5t-168.5 31q-91 0 -173.5 -32t-149.5 -94t-105.5 -163t-38.5 -228q0 -105 25.5 -192t70 -146.5t104.5 -100.5t127 -60t140 -19z" glyph-name="agrave.aalt" horiz-adv-x="1455"/><glyph d="M492 1327h471v-53h-471v53zM1179 1123h59v-1123h-59l-2 298q-60 -156 -190 -232.5t-285 -76.5q-101 0 -192.5 33.5t-167.5 100.5t-120.5 180.5t-44.5 258.5q0 141 44.5 254t119.5 180.5t167 103t194 35.5q155 0 285 -79t190 -232zM707 44q72 0 136.5 17t125 56t104.5 95 t70.5 141t27.5 190v38q-3 122 -43.5 219.5t-106 157t-146 90.5t-168.5 31q-91 0 -173.5 -32t-149.5 -94t-105.5 -163t-38.5 -228q0 -105 25.5 -192t70 -146.5t104.5 -100.5t127 -60t140 -19z" glyph-name="amacron.aalt" horiz-adv-x="1455"/><glyph d="M1285 -197l6 -43q-97 -28 -168 1t-76 92q-8 114 135 147h-3l-2 298q-60 -156 -190 -232.5t-285 -76.5q-101 0 -192.5 33.5t-167.5 100.5t-120.5 180.5t-44.5 258.5q0 141 44.5 254t119.5 180.5t167 103t194 35.5q155 0 285 -79t190 -232l2 299h59v-1123h-4 q-146 -46 -133 -137q5 -41 59.5 -58.5t124.5 -1.5zM1171 543v38q-3 122 -43.5 219.5t-106 157t-146 90.5t-168.5 31q-91 0 -173.5 -32t-149.5 -94t-105.5 -163t-38.5 -228q0 -105 25.5 -192t70 -146.5t104.5 -100.5t127 -60t140 -19q72 0 136.5 17t125 56t104.5 95 t70.5 141.5t27.5 189.5z" glyph-name="aogonek.aalt" horiz-adv-x="1455"/><glyph d="M728 1274q-71 0 -121 50t-50 121q0 70 50 120t121 50q70 0 120 -50.5t50 -119.5q0 -71 -50 -121t-120 -50zM728 1324q49 0 84.5 35.5t35.5 85.5q0 49 -35.5 84.5t-84.5 35.5q-50 0 -85.5 -35.5t-35.5 -84.5q0 -50 35.5 -85.5t85.5 -35.5zM1179 1123h59v-1123h-59l-2 298 q-60 -156 -190 -232.5t-285 -76.5q-101 0 -192.5 33.5t-167.5 100.5t-120.5 180.5t-44.5 258.5q0 141 44.5 254t119.5 180.5t167 103t194 35.5q155 0 285 -79t190 -232zM707 44q72 0 136.5 17t125 56t104.5 95t70.5 141t27.5 190v38q-3 122 -43.5 219.5t-106 157t-146 90.5 t-168.5 31q-91 0 -173.5 -32t-149.5 -94t-105.5 -163t-38.5 -228q0 -105 25.5 -192t70 -146.5t104.5 -100.5t127 -60t140 -19z" glyph-name="aring.aalt" horiz-adv-x="1455"/><glyph d="M452 1275q-1 73 38.5 122t108.5 49q38 0 77 -20t66 -44t61.5 -44t62.5 -20q35 0 61 36.5t26 82.5h52q0 -73 -42.5 -121t-107.5 -48q-36 0 -83 31.5t-92.5 63t-77.5 31.5q-45 -1 -72 -36t-27 -84zM1179 1123h59v-1123h-59l-2 298q-60 -156 -190 -232.5t-285 -76.5 q-101 0 -192.5 33.5t-167.5 100.5t-120.5 180.5t-44.5 258.5q0 141 44.5 254t119.5 180.5t167 103t194 35.5q155 0 285 -79t190 -232zM707 44q72 0 136.5 17t125 56t104.5 95t70.5 141t27.5 190v38q-3 122 -43.5 219.5t-106 157t-146 90.5t-168.5 31q-91 0 -173.5 -32 t-149.5 -94t-105.5 -163t-38.5 -228q0 -105 25.5 -192t70 -146.5t104.5 -100.5t127 -60t140 -19z" glyph-name="atilde.aalt" horiz-adv-x="1455"/><glyph d="M526 0h-128q-85 0 -132 60t-47 162v1314h65v-1306q0 -80 37 -128t98 -48h107v-54z" glyph-name="l.aalt" horiz-adv-x="703"/><glyph d="M652 1994l-266 -307h-68l260 307h74zM526 0h-128q-85 0 -132 60t-47 162v1314h65v-1306q0 -80 37 -128t98 -48h107v-54z" glyph-name="lacute.aalt" horiz-adv-x="703"/><glyph d="M524 0h-128q-85 0 -132 60t-47 162v1314h65v-1306q0 -80 37 -128t98 -48h107v-54zM478 1431h75l-77 -423h-52z" glyph-name="lcaron.aalt" horiz-adv-x="772"/><glyph d="M526 0h-128q-85 0 -132 60t-47 162v1314h65v-1306q0 -80 37 -128t98 -48h107v-54zM317 -101h73l-75 -418h-51z" glyph-name="lcommaaccent.aalt" horiz-adv-x="703"/><glyph d="M526 0h-128q-85 0 -132 60t-47 162v1314h65v-1306q0 -80 37 -128t98 -48h107v-54zM300 -248h104v-97h-104v97z" glyph-name="uni1E37.aalt" horiz-adv-x="703"/><glyph d="M419 54h107v-54h-128q-85 0 -132 60t-47 162v504l-129 -31v50l129 31v760h65v-744l240 56v-50l-240 -57v-511q0 -80 37.5 -128t97.5 -48z" glyph-name="lslash.aalt" horiz-adv-x="703"/><glyph d="M1011 1123h68l-644 -1533h-71l205 488h-27l-423 1045h68l402 -999z" glyph-name="y.aalt" horiz-adv-x="1197"/><glyph d="M898 1581l-266 -307h-68l259 307h75zM1011 1123h68l-644 -1533h-71l205 488h-27l-423 1045h68l402 -999z" glyph-name="yacute.aalt" horiz-adv-x="1197"/><glyph d="M599 1545l-190 -271h-68l214 307h87l213 -307h-68zM1011 1123h68l-644 -1533h-71l205 488h-27l-423 1045h68l402 -999z" glyph-name="ycircumflex.aalt" horiz-adv-x="1197"/><glyph d="M482 1372v-98h-104v98h104zM817 1372v-98h-103v98h103zM1011 1123h68l-644 -1533h-71l205 488h-27l-423 1045h68l402 -999z" glyph-name="ydieresis.aalt" horiz-adv-x="1197"/><glyph d="M1011 1123h68l-644 -1533h-71l205 488h-27l-423 1045h68l402 -999zM909 -313v101h109v-101h-109z" glyph-name="uni1EF5.aalt" horiz-adv-x="1202"/><glyph d="M632 1274h-68l-266 307h76zM1011 1123h68l-644 -1533h-71l205 488h-27l-423 1045h68l402 -999z" glyph-name="ygrave.aalt" horiz-adv-x="1197"/><glyph d="M374 1274l-51 1q-1 73 38.5 122t108.5 49q38 0 77 -20t66 -44t61.5 -44t62.5 -20q35 0 61 36.5t26 82.5h52q0 -73 -42.5 -121t-107.5 -48q-36 0 -83 31.5t-92.5 63t-77.5 31.5q-45 -1 -72 -36t-27 -84zM1011 1123h68l-644 -1533h-71l205 488h-27l-423 1045h68l402 -999z " glyph-name="uni1EF9.aalt" horiz-adv-x="1197"/><glyph d="M2033 1434v-59h-460v-1375h-67v1375h-920v-1375h-67v1375h-461v59h1975z" glyph-name="T_T.dlig" horiz-adv-x="2091"/><glyph d="M1690 1068h-344v-838q0 -80 37 -128t97 -48h210v-54h-230q-86 0 -132.5 60t-46.5 162v846h-858v-1068h-65v1068h-181v55h181v191q0 97 45.5 159.5t123.5 62.5h182v-54h-161q-59 0 -92 -47t-33 -129v-183h858v225h65v-225h344v-55z" glyph-name="f_t.dlig" horiz-adv-x="1906"/><glyph d="M1181 1434h109v-78h-109v78zM1268 1123v-1123h-65v1068h-780v-838q0 -80 37 -128t97 -48h210v-54h-230q-85 0 -132 60t-47 162v846h-181v55h181v225h65v-225h845z" glyph-name="t_i.dlig" horiz-adv-x="1486"/><glyph d="M1750 1068h-344v-838q0 -80 37.5 -128t97.5 -48h209v-54h-229q-85 0 -132.5 60t-47.5 162v846h-918v-838q0 -80 37 -128t97 -48h210v-54h-230q-85 0 -132 60t-47 162v846h-181v55h181v225h65v-225h918v225h65v-225h344v-55z" glyph-name="t_t.dlig" horiz-adv-x="1967"/><glyph d="M2165 1434h109v-78h-109v78zM2252 1123v-1123h-65v1068h-781v-838q0 -80 37.5 -128t97.5 -48h209v-54h-229q-85 0 -132.5 60t-47.5 162v846h-918v-838q0 -80 37 -128t97 -48h210v-54h-230q-85 0 -132 60t-47 162v846h-181v55h181v225h65v-225h918v225h65v-225h846z" glyph-name="t_t_i.dlig" horiz-adv-x="2470"/><glyph d="M1341 54h109v-54h-129q-85 0 -131.5 60t-46.5 162v1260h-595q-59 0 -92 -47t-33 -129v-183h286v-55h-286v-1068h-65v1068h-181v55h181v191q0 97 45.5 159.5t123.5 62.5h680v-1306q0 -80 37 -128t97 -48z" glyph-name="uniFB02.aalt" horiz-adv-x="1626"/><glyph d="M778 1434h51v-674h-51l-1 181q-35 -93 -113.5 -140.5t-170.5 -47.5q-61 0 -116 20.5t-101 60t-72.5 108t-26.5 155.5q0 85 26.5 152.5t72 108t100.5 61.5t117 21q92 0 170.5 -49t113.5 -141zM496 801q51 0 98 16.5t86.5 48.5t63 89t24.5 130v23q-4 136 -84.5 210.5 t-187.5 74.5q-112 0 -190 -77t-78 -219q0 -145 78 -220.5t190 -75.5z" glyph-name="ordfeminine.aalt" horiz-adv-x="1006"/><glyph d="M950 1434h69l-644 -1434h-71l205 455h-27l-424 979h70l400 -936z" glyph-name="afii10037.aalt" horiz-adv-x="1078"/><glyph d="M1179 1123h59v-1123h-59l-2 298q-60 -156 -190 -232.5t-285 -76.5q-101 0 -192.5 33.5t-167.5 100.5t-120.5 180.5t-44.5 258.5q0 141 44.5 254t119.5 180.5t167 103t194 35.5q155 0 285 -79t190 -232zM707 44q72 0 136.5 17t125 56t104.5 95t70.5 141t27.5 190v38 q-3 122 -43.5 219.5t-106 157t-146 90.5t-168.5 31q-91 0 -173.5 -32t-149.5 -94t-105.5 -163t-38.5 -228q0 -105 25.5 -192t70 -146.5t104.5 -100.5t127 -60t140 -19z" glyph-name="afii10065.aalt" horiz-adv-x="1455"/><glyph d="M1108 562q0 -142 -36.5 -253t-101 -180.5t-150 -104.5t-188 -35t-188 35t-150 104.5t-100.5 180.5t-36 253q0 140 35.5 250.5t100 180t150.5 106t188.5 36.5t188.5 -36.5t150.5 -106t100.5 -180t36 -250.5zM633 42q184 0 296.5 131.5t112.5 388.5q0 253 -113 386 t-296 133t-296.5 -133t-113.5 -386q0 -257 113 -388.5t297 -131.5z" glyph-name="zero.oldstyle" horiz-adv-x="1265"/><glyph d="M638 56h355v-56h-774v56h354v1007q-154 -76 -297 -114v63q145 38 297 111h65v-1067z" glyph-name="one.oldstyle" horiz-adv-x="1212"/><glyph d="M1136 56v-56h-919v56q61 48 165 123.5t184 132.5t172.5 131.5t153 135.5t101 128.5t40.5 125.5q0 113 -92 179.5t-263 66.5q-216 0 -366 -105l-36 42q169 119 404 119q198 0 308 -80.5t110 -216.5q0 -65 -40 -137.5t-98.5 -134.5t-149.5 -138.5t-165.5 -130t-176.5 -127 t-156 -114.5h824z" glyph-name="two.oldstyle" horiz-adv-x="1352"/><glyph d="M196 1123h921v-58l-595 -576q86 19 179 19q208 -3 336 -112t128 -297q-1 -203 -130.5 -312t-381.5 -108q-140 0 -270 38.5t-225 113.5l39 47q84 -68 207 -105t248 -36q223 1 336 94.5t113 268.5q0 166 -117.5 261.5t-306.5 95.5q-145 0 -250 -54l-36 47l642 615h-837v58z " glyph-name="three.oldstyle" horiz-adv-x="1323"/><glyph d="M1292 151v-59h-288v-402h-65v402h-720v59l711 972h74v-972h288zM291 151h648v890z" glyph-name="four.oldstyle" horiz-adv-x="1482"/><glyph d="M273 1123h802v-58h-742l-43 -567q187 47 409 45q135 -2 239 -49.5t165.5 -143.5t61.5 -228q-1 -218 -130 -331t-382 -112q-140 0 -270 38.5t-225 113.5l39 47q84 -68 207 -105t248 -36q449 3 449 385q0 172 -118.5 269t-308.5 97q-205 0 -419 -48l-30 26z" glyph-name="five.oldstyle" horiz-adv-x="1323"/><glyph d="M1257 484.5q0 -98.5 -31.5 -181.5t-85.5 -140t-125 -96.5t-148 -58t-158 -18.5t-159.5 18.5t-149.5 58t-125 96.5t-85.5 140t-31.5 181q0 41 2.5 71.5t14 66.5t23 61.5t42.5 72t58 80.5t84.5 104t107.5 127t140.5 164.5t170.5 202.5h82l-442 -521q131 65 287 62 q78 -1 152.5 -19.5t143.5 -57.5t120.5 -95.5t82 -138t30.5 -180zM708.5 45q92.5 0 177 27t154 79t111.5 138.5t42 194.5q0 89 -28 163.5t-75 124.5t-109.5 84.5t-131 50.5t-140.5 16t-141.5 -17.5t-132 -54t-110 -87.5t-75.5 -123.5t-28 -156.5q0 -109 42.5 -195t112 -138 t154.5 -79t177.5 -27z" glyph-name="six.oldstyle" horiz-adv-x="1415"/><glyph d="M158 1123h907v-58q-459 -584 -580 -1375h-66q123 803 572 1375h-833v58z" glyph-name="seven.oldstyle" horiz-adv-x="1222"/><glyph d="M1199 399q0 -83 -30.5 -152t-82 -116t-119.5 -79.5t-141 -47t-148 -14.5t-147 14.5t-140 47t-119.5 79.5t-82.5 116t-31 152q0 79 27.5 146t76 114.5t107.5 80.5t127 52q-112 35 -184.5 115t-72.5 198q0 109 62.5 187t159.5 115t217 37t218 -37t160.5 -115.5t62.5 -186.5 q1 -118 -72 -198t-185 -115q68 -18 127 -51.5t107 -81t75.5 -114.5t27.5 -146zM302 1104q0 -72 34 -128t89 -90t119.5 -51.5t133.5 -17.5q93 0 176.5 29.5t142.5 96.5t59 161q0 93 -53.5 159t-137 96t-187.5 30q-103 0 -186 -30t-136.5 -96t-53.5 -159zM677.5 45 q66.5 0 130 13t123 40.5t104 68t71.5 101t27 132.5q0 87 -40 157.5t-105.5 114t-145.5 66.5t-164 23q-83 0 -162.5 -23t-145 -66.5t-106 -114t-40.5 -157.5q0 -73 27 -133t71.5 -100.5t103.5 -68t122 -40.5t129.5 -13z" glyph-name="eight.oldstyle" horiz-adv-x="1357"/><glyph d="M158 639q0 98 31.5 181.5t85.5 140.5t125 97t149 58.5t158.5 18.5t158.5 -18.5t149 -58.5t125 -97t85.5 -140.5t31.5 -181.5q0 -41 -2.5 -70.5t-14 -66t-23 -62t-42.5 -71.5t-57.5 -80.5t-84.5 -104.5t-107 -127.5t-141 -165t-171 -201.5h-82l443 520q-132 -63 -288 -62 q-98 1 -189.5 31.5t-169 88t-124 153.5t-46.5 218zM707.5 1079q-92.5 0 -177 -27t-154.5 -79t-112 -138.5t-42 -195.5q0 -89 28.5 -163.5t75 -124.5t109.5 -84.5t131.5 -50t141.5 -15.5q72 0 141 17.5t131.5 53.5t110 87.5t75 123.5t27.5 156q0 109 -42 195.5t-112 138.5 t-154.5 79t-177 27z" glyph-name="nine.oldstyle" horiz-adv-x="1415"/><glyph d="M1243 716.5q0 -359.5 -139 -543.5t-384 -184q-246 0 -384.5 183.5t-138.5 544.5q0 359 138.5 543.5t384.5 184.5t384.5 -184.5t138.5 -544zM720 47q217 0 337.5 169.5t120.5 500.5t-120.5 500t-337.5 169t-337.5 -169t-120.5 -500t120.5 -500.5t337.5 -169.5z" glyph-name="zero.tnum" horiz-adv-x="1439"/><glyph d="M752 58h358v-58h-780v58h357v1313q-150 -73 -297 -113v63q155 41 297 113h65v-1376z" glyph-name="one.tnum" horiz-adv-x="1439"/><glyph d="M1234 58v-58h-1028v58q70 62 187.5 159.5t210.5 173.5t199.5 173.5t177.5 176t118.5 163.5t47.5 155q0 148 -113 237.5t-320 89.5q-232 0 -405 -140l-37 46q193 153 443 153q237 0 367 -104t130 -277q0 -78 -47 -169t-117 -172.5t-175 -179t-194.5 -170t-204 -166 t-176.5 -149.5h936z" glyph-name="two.tnum" horiz-adv-x="1439"/><glyph d="M254 1434h923v-59l-596 -576q84 22 179 19q208 -3 336 -112t128 -296q0 -203 -130 -312t-382 -109q-140 1 -270.5 39.5t-224.5 112.5l38 47q84 -69 207.5 -105.5t249.5 -35.5q222 1 334.5 95t112.5 269q0 165 -117 260.5t-307 95.5q-145 0 -250 -53l-35 46l642 615h-838 v59z" glyph-name="three.tnum" horiz-adv-x="1439"/><glyph d="M1271 461v-59h-289v-402h-64v402h-720v59l710 973h74v-973h289zM269 461h649v891z" glyph-name="four.tnum" horiz-adv-x="1439"/><glyph d="M332 1434h801v-59h-743l-43 -567q195 47 410 45q207 -3 336.5 -113t129.5 -309q0 -217 -129 -329.5t-383 -112.5q-140 1 -270.5 39.5t-224.5 112.5l38 47q84 -69 207.5 -105.5t249.5 -35.5q447 3 447 385q0 172 -117.5 269.5t-309.5 97.5q-203 0 -419 -48l-29 24z" glyph-name="five.tnum" horiz-adv-x="1439"/><glyph d="M1269 484q0 -122 -48.5 -219t-128 -156t-175 -89t-198 -30t-198 30t-175.5 89t-128 156t-48 219q0 41 2.5 71.5t14.5 66.5t22.5 61.5t42.5 72t58.5 80.5t84.5 104.5t107 127t140.5 164t170.5 202.5h81l-441 -521q131 65 286 62q78 -1 153 -19.5t143.5 -57.5t120 -95.5 t82.5 -138.5t31 -180zM720 45q92 0 176.5 27t154 79t111.5 138.5t42 194.5q0 89 -28 163.5t-74.5 124.5t-109.5 84.5t-131 50.5t-141 16q-72 0 -141 -17.5t-132 -54t-110 -87.5t-75 -123.5t-28 -156.5q0 -109 42 -195t112 -138t155 -79t177 -27z" glyph-name="six.tnum" horiz-adv-x="1439"/><glyph d="M266 1434h906v-59q-459 -584 -579 -1375h-67q122 800 573 1375h-833v59z" glyph-name="seven.tnum" horiz-adv-x="1439"/><glyph d="M1240 399q0 -83 -30.5 -152t-82 -116t-119.5 -79.5t-141 -47t-148 -14.5q-94 0 -184 24.5t-166.5 72t-123 128.5t-46.5 184q0 79 27.5 146t75.5 114.5t107 80.5t128 52q-112 35 -184.5 115t-72.5 198q0 109 62 187t159.5 115t217.5 37t217.5 -37t160 -115.5t62.5 -186.5 q1 -118 -72 -198t-185 -115q68 -18 126.5 -51.5t107.5 -81t76.5 -114.5t27.5 -146zM342 1104q0 -72 34 -128t89 -90t120 -51.5t133.5 -17.5t134 17.5t120.5 51.5t89 90t34 128q0 93 -53.5 159t-137 96t-187 30t-186.5 -30t-136.5 -96t-53.5 -159zM719 45q84 0 162 21t145 62 t107.5 111.5t40.5 160.5q0 87 -40 157.5t-106 114t-145.5 66.5t-163.5 23q-83 0 -162.5 -23t-145 -66.5t-106 -114t-40.5 -157.5q0 -90 40 -160.5t106.5 -111.5t145 -62t162.5 -21z" glyph-name="eight.tnum" horiz-adv-x="1439"/><glyph d="M170 949q0 98 31.5 181t85 140t124.5 97.5t149 59t159 18.5t158.5 -18.5t149 -59t125 -97.5t85.5 -139.5t32 -181.5q0 -41 -2.5 -71t-14.5 -66.5t-23 -61.5t-42.5 -71.5t-58 -81t-84.5 -104t-107.5 -127t-140 -165t-170.5 -201.5h-82l442 520q-129 -63 -288 -61 q-98 1 -189.5 31t-168.5 87.5t-123.5 153.5t-46.5 218zM719 1390q-92 0 -176.5 -27.5t-154.5 -79.5t-112 -138.5t-42 -195.5q0 -89 28.5 -163t75 -124.5t109.5 -84.5t131 -50t141 -16q72 0 141 17.5t132 53.5t110 87.5t74.5 123.5t27.5 156q0 109 -42 195.5t-112 138.5 t-154.5 79.5t-176.5 27.5z" glyph-name="nine.tnum" horiz-adv-x="1439"/><glyph d="M681 1445q246 0 384.5 -184.5t138.5 -543.5q0 -360 -138.5 -544t-384.5 -184q-245 0 -384 184t-139 543.5t138.5 544t384.5 184.5zM681 1386q-217 0 -337.5 -169t-120.5 -500q0 -258 76 -422l733 901q-119 190 -351 190zM681 47q217 0 337.5 169.5t120.5 500.5 q0 269 -82 435l-734 -902q117 -203 358 -203z" glyph-name="zero.zero" horiz-adv-x="1361"/><glyph d="M805 430q0 -216 -83.5 -326t-231.5 -110q-146 0 -229.5 110t-83.5 326t83.5 326t229.5 110q147 0 231 -110t84 -326zM490 44q125 0 194 98t69 288.5t-69.5 288t-193 97.5t-192.5 -97.5t-69 -288t68.5 -288.5t192.5 -98z" glyph-name="zero.dnom" horiz-adv-x="982"/><glyph d="M438 50h207v-50h-468v50h207v758q-95 -48 -171 -69v54q80 23 171 67h54v-810z" glyph-name="one.dnom" horiz-adv-x="822"/><glyph d="M794 50v-50h-617v50q42 38 111.5 96t124 102.5t117 101.5t103.5 103.5t68.5 96.5t27.5 92q0 89 -64 139t-188 50q-139 0 -238 -81l-33 38q117 93 272 94q148 0 226 -63.5t79 -172.5q0 -47 -27 -101.5t-65.5 -102t-99.5 -105.5t-111 -99.5t-118 -98.5t-104 -89h536z" glyph-name="two.dnom" horiz-adv-x="970"/><glyph d="M199 871h554v-50l-358 -338q56 12 108 12q126 -2 205.5 -67.5t79.5 -177.5q0 -260 -305 -260q-82 0 -164.5 26t-141.5 72l35 40q52 -41 126 -65t145 -23q131 1 191 52.5t60 158.5q0 98 -65.5 148t-181.5 50q-84 0 -149 -32l-30 56l371 348h-480v50z" glyph-name="three.dnom" horiz-adv-x="965"/><glyph d="M821 284v-50h-167v-234h-49v234h-428v50l421 576h56v-576h167zM241 284h364v509z" glyph-name="four.dnom" horiz-adv-x="998"/><glyph d="M250 860h477v-50h-427l-26 -326q110 28 228 28q129 -2 204 -65t75 -188q-1 -136 -77 -201t-230 -64q-181 0 -297 91l28 43q51 -41 122.5 -63t145.5 -21q135 1 194.5 50.5t59.5 164.5q0 103 -63 154t-179 51q-98 0 -232 -29l-32 16z" glyph-name="five.dnom" horiz-adv-x="957"/><glyph d="M837 297q0 -97 -50.5 -166.5t-123 -100t-156.5 -30.5t-156.5 30.5t-123 100t-50.5 166.5q0 98 45 170t275 344q30 36 46 55h69l-265 -312q77 39 172 37q59 -1 114 -19t101.5 -52.5t74.5 -92t28 -130.5zM506.5 47q110.5 0 192.5 65t82 184q0 122 -81.5 185.5t-192.5 63.5 q-109 0 -192 -66.5t-83 -182.5q1 -119 82.5 -184t192 -65z" glyph-name="six.dnom" horiz-adv-x="1013"/><glyph d="M177 860h544v-50q-279 -355 -347 -810h-57q67 440 329 810h-469v50z" glyph-name="seven.dnom" horiz-adv-x="898"/><glyph d="M802 240q0 -61 -28 -110.5t-74 -77.5t-100 -43t-111 -15q-45 0 -88.5 8.5t-84.5 28t-71.5 47.5t-49 69.5t-18.5 92.5q0 91 58 151.5t145 83.5q-68 22 -111.5 69.5t-43.5 119.5q0 96 76.5 149t188 53t188 -53t76.5 -149q0 -72 -43.5 -119.5t-111.5 -69.5q87 -24 145 -84 t58 -151zM280 663q0 -78 64 -121.5t145.5 -43.5t145 43.5t63.5 121.5q0 77 -59.5 117t-149.5 40t-149.5 -40t-59.5 -117zM489 42q102 0 178 50.5t76 148.5q0 95 -76.5 150.5t-177 55.5t-178 -55.5t-77.5 -150.5q0 -67 39.5 -113.5t95 -66t120.5 -19.5z" glyph-name="eight.dnom" horiz-adv-x="978"/><glyph d="M177 569q0 97 50.5 166.5t123 100t156.5 30.5t156.5 -30.5t123 -99.5t50.5 -167t-45.5 -169.5t-274.5 -344.5q-30 -36 -46 -55h-70l266 312q-77 -39 -172 -37q-59 1 -114 19t-102 52.5t-74.5 92t-27.5 130.5zM506.5 819q-110.5 0 -192.5 -65t-82 -184q0 -122 81.5 -185 t193.5 -63q109 0 191.5 66.5t82.5 181.5q-1 119 -82.5 184t-192 65z" glyph-name="nine.dnom" horiz-adv-x="1013"/><glyph d="M805 1008q0 -216 -83.5 -326.5t-231.5 -110.5q-146 0 -229.5 110.5t-83.5 326.5t83.5 326t229.5 110q147 0 231 -110t84 -326zM490 622q125 0 194 97.5t69 288t-69.5 288.5t-193 98t-192.5 -98t-69 -288.5t68.5 -288t192.5 -97.5z" glyph-name="zero.numr" horiz-adv-x="982"/><glyph d="M438 624h207v-51h-468v51h207v757q-95 -48 -171 -68v53q80 23 171 68h54v-810z" glyph-name="one.numr" horiz-adv-x="822"/><glyph d="M794 611v-50h-617v50q42 38 111.5 96t124 102.5t117 101.5t103.5 103.5t68.5 96.5t27.5 92q0 89 -64 139.5t-188 50.5q-139 0 -238 -82l-33 39q117 93 272 93q148 0 226 -63.5t79 -172.5q0 -47 -27 -101t-65.5 -102t-99.5 -106t-111 -99.5t-118 -98.5t-104 -89h536z" glyph-name="two.numr" horiz-adv-x="970"/><glyph d="M199 1434h554v-51l-358 -337q50 11 108 11q126 -2 205.5 -67.5t79.5 -178.5q0 -260 -305 -259q-82 0 -164.5 26t-141.5 72l35 40q52 -41 126 -65t145 -23q131 1 191 53t60 157q0 98 -65.5 148.5t-181.5 50.5q-84 0 -149 -32l-30 55l371 349h-480v51z" glyph-name="three.numr" horiz-adv-x="965"/><glyph d="M821 857v-49h-167v-235h-49v235h-428v49l421 577h56v-577h167zM241 857h364v509z" glyph-name="four.numr" horiz-adv-x="998"/><glyph d="M250 1434h477v-51h-427l-26 -325q110 28 228 27q129 -2 204 -65t75 -187q-1 -136 -77 -201.5t-230 -64.5q-181 0 -297 91l28 43q51 -41 122.5 -63t145.5 -21q135 1 194.5 51t59.5 165q0 103 -63 153.5t-179 50.5q-98 0 -232 -28l-32 15z" glyph-name="five.numr" horiz-adv-x="957"/><glyph d="M837 864q0 -97 -50.5 -166t-123 -100t-156.5 -31t-156.5 31t-123 100t-50.5 166q0 98 45 170t275 344q30 36 46 56h69l-265 -313q77 39 172 37q59 -1 114 -19t101.5 -52t74.5 -92t28 -131zM506.5 614q110.5 0 192.5 65t82 184q0 122 -81.5 185.5t-192.5 63.5 q-109 0 -192 -66.5t-83 -182.5q1 -119 82.5 -184t192 -65z" glyph-name="six.numr" horiz-adv-x="1013"/><glyph d="M177 1434h544v-51q-279 -355 -347 -810h-57q67 440 329 810h-469v51z" glyph-name="seven.numr" horiz-adv-x="898"/><glyph d="M802 807q0 -61 -28 -110.5t-74 -77.5t-100 -43t-111 -15q-45 0 -88.5 9t-84.5 28t-71.5 47.5t-49 70t-18.5 91.5q0 91 58 151.5t145 83.5q-68 22 -111.5 69.5t-43.5 119.5q0 96 76.5 149.5t188 53.5t188 -53.5t76.5 -149.5q0 -72 -43.5 -119.5t-111.5 -69.5 q87 -24 145 -84t58 -151zM280 1230q0 -78 64 -121.5t145.5 -43.5t145 43.5t63.5 121.5q0 77 -59.5 117.5t-149.5 40.5t-149.5 -40.5t-59.5 -117.5zM489 609q102 0 178 51t76 148q0 95 -76.5 151t-177 56t-178 -56t-77.5 -151q0 -67 39.5 -113.5t95 -66t120.5 -19.5z" glyph-name="eight.numr" horiz-adv-x="978"/><glyph d="M177 1137q0 97 50.5 166t123 100t156.5 31t156.5 -31t123 -100t50.5 -166q0 -98 -45.5 -170t-274.5 -344q-30 -36 -46 -56h-70l266 313q-77 -39 -172 -37q-59 1 -114 19t-102 52t-74.5 92t-27.5 131zM506.5 1386q-110.5 0 -192.5 -65t-82 -183q0 -122 81.5 -185.5 t193.5 -63.5q109 0 191.5 66.5t82.5 182.5q-1 119 -82.5 183.5t-192 64.5z" glyph-name="nine.numr" horiz-adv-x="1013"/><glyph d="M219 879h331v-324h-331v324z" glyph-name="bullet.aalt" horiz-adv-x="769"/><glyph d="M436 -355q-217 505 -216.5 1027.5t216.5 1020.5h62q-143 -340 -189.5 -681t1 -679t188.5 -688h-62z" glyph-name="parenleft.aalt" horiz-adv-x="716"/><glyph d="M281 -355h-62q140 350 188 688t1.5 679t-189.5 681h62q216 -498 216.5 -1020.5t-216.5 -1027.5z" glyph-name="parenright.aalt" horiz-adv-x="716"/><glyph d="M575 -306q-42 0 -73.5 13t-58.5 46t-42 96.5t-15 154.5v457q0 31 -8 63t-26 64.5t-52.5 54t-80.5 22.5v56q46 1 80.5 22.5t52.5 53.5t26 64.5t8 63.5v455q0 91 15 154.5t42 96.5t59 46.5t73 13.5h85v-56h-75q-48 0 -79.5 -31.5t-43 -76t-11.5 -101.5v-490 q0 -58 -15 -109.5t-53 -90.5t-93 -42v-4q42 -2 74 -24.5t50.5 -58t27.5 -75t9 -82.5v-491q0 -56 11.5 -100.5t43 -76.5t79.5 -32h75v-56h-85z" glyph-name="braceleft.aalt" horiz-adv-x="880"/><glyph d="M305 -306h-86v56h76q48 0 79.5 32t43 76.5t11.5 100.5v491q0 58 15 108.5t53 89.5t94 42v4q-56 3 -94 42t-53 90.5t-15 109.5v490q0 56 -11.5 101t-43 76.5t-79.5 31.5h-76v56h86q42 0 73.5 -13.5t59 -46.5t42 -96.5t14.5 -154.5v-455q0 -31 8 -63.5t26 -64.5t52 -53.5 t80 -22.5v-56q-46 -1 -80 -22.5t-52 -54t-26 -64.5t-8 -63v-457q0 -91 -14.5 -154.5t-42 -96.5t-59 -46t-73.5 -13z" glyph-name="braceright.aalt" horiz-adv-x="880"/><glyph d="M219 1676h434v-55h-369v-1808h369v-56h-434v1919z" glyph-name="bracketleft.aalt" horiz-adv-x="872"/><glyph d="M653 1676v-1919h-434v56h370v1808h-370v55h434z" glyph-name="bracketright.aalt" horiz-adv-x="872"/><glyph d="M219 745h422v-57h-422v57z" glyph-name="hyphen.aalt" horiz-adv-x="860"/><glyph d="M219 745h928v-57h-928v57z" glyph-name="endash.aalt" horiz-adv-x="1366"/><glyph d="M219 745h1627v-57h-1627v57z" glyph-name="emdash.aalt" horiz-adv-x="2066"/><glyph d="M635 1100l-338 -384l338 -384h-78l-338 384l338 384h78zM1011 1100l-338 -384l338 -384h-78l-338 384l338 384h78z" glyph-name="guillemotleft.aalt" horiz-adv-x="1229"/><glyph d="M219 1100h78l338 -384l-338 -384h-78l338 384zM595 1100h78l338 -384l-338 -384h-78l338 384z" glyph-name="guillemotright.aalt" horiz-adv-x="1229"/><glyph d="M635 1100l-338 -384l338 -384h-78l-338 384l338 384h78z" glyph-name="guilsinglleft.aalt" horiz-adv-x="854"/><glyph d="M219 1100h78l338 -384l-338 -384h-78l338 384z" glyph-name="guilsinglright.aalt" horiz-adv-x="854"/><glyph d="M1362 621q-24 -190 -149 -352l251 -269h-81l-213 224q-104 -101 -243.5 -163t-306.5 -62q-115 0 -213 37.5t-163 117t-67 188.5q-4 169 85.5 274.5t320.5 178.5q-112 113 -160 193t-48 176q2 129 100.5 206t248.5 77q43 0 87 -8t90.5 -29t82 -53t58 -84t22.5 -118 q0 -70 -26 -126t-79 -101t-118 -80.5t-159 -72.5l486 -466q114 147 136 318zM726 1394q-126 0 -204.5 -62.5t-83.5 -166.5q-2 -43 8.5 -80.5t40.5 -83t62 -82t94 -104.5q82 33 143 65t112.5 73t78.5 91.5t27 107.5q0 56 -19.5 100.5t-49.5 70.5t-69 42.5t-72.5 22.5t-67.5 6 zM622 54q158 0 293 61t214 152l-509 487q-214 -67 -297.5 -161.5t-83.5 -247.5q0 -94 56 -161.5t141 -98.5t186 -31z" glyph-name="ampersand.aalt" horiz-adv-x="1641"/><glyph d="M-659 1680h104v-97h-104v97zM-324 1680h104v-97h-104v97z" glyph-name="uni0308.aalt"/><glyph d="M-324 1680h105v-97h-105v97z" glyph-name="uni0307.aalt"/><glyph d="M-553 1890h76l258 -307h-68z" glyph-name="gravecomb.aalt"/><glyph d="M-219 1890l-266 -307h-68l259 307h75z" glyph-name="acutecomb.aalt"/><glyph d="M-394 1891l-164 -310h-59l160 310h63zM-219 1891l-164 -310h-58l160 310h62z" glyph-name="uni030B.aalt"/><glyph d="M-219 1581h-68l-188 271l-191 -271h-67l214 307h87z" glyph-name="uni0302.aalt"/><glyph d="M-287 1598h68l-213 -307h-87l-214 307h67l191 -270z" glyph-name="uni030C.aalt"/><glyph d="M-219 1801q-2 -91 -67 -155.5t-157.5 -64.5t-158 64.5t-67.5 155.5h55q0 -70 49.5 -119.5t121.5 -49.5q70 0 120 50t51 119h53z" glyph-name="uni0306.aalt"/><glyph d="M-390 1581q-71 0 -121 50t-50 121q0 70 50 120t121 50q70 0 120 -50t50 -120q0 -71 -50 -121t-120 -50zM-390 1631q49 0 84.5 35.5t35.5 85.5q0 49 -35.5 84.5t-84.5 35.5q-50 0 -85.5 -35.5t-35.5 -84.5q0 -50 35.5 -85.5t85.5 -35.5z" glyph-name="uni030A.aalt"/><glyph d="M-772 1582q-1 73 39 122t108 49q38 0 77 -20t66 -44t61.5 -44t63.5 -20q36 0 61.5 36.5t25.5 82.5h51q0 -73 -42.5 -121t-107.5 -48q-36 0 -83 31.5t-92.5 63t-77.5 31.5q-45 -1 -72 -36t-27 -84z" glyph-name="tildecomb.aalt"/><glyph d="M-690 1634h471v-53h-471v53z" glyph-name="uni0304.aalt"/><glyph d="M-253 1583h-73l75 418h52z" glyph-name="uni0312.aalt"/><glyph d="M-219 1494q-2 -91 -67 -155.5t-157.5 -64.5t-158 64.5t-67.5 155.5h55q0 -70 49.5 -119.5t121.5 -49.5q70 0 120 49.5t51 119.5h53z" glyph-name="glyph666"/><glyph d="M874.5 0q-194.5 0 -359.5 96.5t-261 261t-96 359t96 359.5t261 261.5t359.5 96.5t359.5 -96.5t261 -261.5t96 -359.5t-96 -359t-261 -261t-359.5 -96.5zM1264 977l-163 32v-420q0 -11 -13 -20t-32 -9q-17 0 -30 9t-13 20v322h-538l-31 -135h139v-337h161v337h105v-220 q0 -53 61 -91.5t146 -38.5q86 0 147 38t61 92v421z" glyph-name="glyph667" horiz-adv-x="1750"/></font>
</defs>
</svg>
