<?xml version="1.0" standalone="no"?>
<!DOCTYPE svg PUBLIC "-//W3C//DTD SVG 1.1//EN" "http://www.w3.org/Graphics/SVG/1.1/DTD/svg11.dtd">
<svg xmlns="http://www.w3.org/2000/svg"><metadata>This SVG WebFont was generated by YouWorkForThem.
Copyright Â© 2019 by TypeUnion. All rights reserved.</metadata><defs><font horiz-adv-x="0" id="ywftsvg"><font-face ascent="1638" bbox="-788 -570 2745.96 2030" cap-height="1434" descent="-410" font-family="" font-stretch="normal" font-weight="500" panose-1="0 0 6 0 0 0 0 0 0 0" underline-position="0" underline-thickness="0" unicode-range="U+0020-FB02" units-per-em="2048" x-height="1102"/><missing-glyph d="M299 1434h999l-200 -1434h-1000zM933 168l154 1098h-622l-155 -1098h623z" horiz-adv-x="1349"/><glyph d="M1439 1102l-24 -171l-131 -931h-246l131 931h-578l-131 -931h-246l131 931h-172l24 171h172l28 203q14 98 80.5 164.5t155.5 66.5h316l-22 -161h-163q-52 0 -86.5 -36t-43.5 -101l-20 -136h825zM1215 1434h294l-23 -170h-294z" glyph-name="uniFB01" horiz-adv-x="1537" unicode="fi"/><glyph d="M1481 1536l-23 -161l-193 -1375h-246l193 1375h-448q-52 0 -86.5 -36t-43.5 -101l-20 -136h274l-24 -171h-273l-131 -931h-246l131 931h-172l24 171h172l28 203q14 98 80.5 164.5t155.5 66.5h848z" glyph-name="uniFB02" horiz-adv-x="1497" unicode="fl"/><glyph d="M1677 1375q-52 0 -87 -36.5t-43 -100.5l-19 -136h272l-23 -171h-273l-131 -931h-246l131 931h-667l-131 -931h-246l131 931h-172l24 171h172l28 203q14 98 80.5 164.5t155.5 66.5h316l-22 -161h-163q-52 0 -86.5 -36t-43.5 -101l-20 -136h668l29 203q13 98 79.5 164.5 t155.5 66.5h316l-23 -161h-162z" glyph-name="f_f.liga" horiz-adv-x="1879" unicode="ff"/><glyph d="M2377 1102l-155 -1102h-246l131 931h-603l-131 -931h-246l131 931h-667l-131 -931h-246l131 931h-172l24 171h172l28 203q14 98 80.5 164.5t155.5 66.5h316l-22 -161h-163q-52 0 -86.5 -36t-43.5 -101l-20 -136h668l29 203q13 98 79.5 164.5t155.5 66.5h316l-23 -161 h-162q-52 0 -87 -36.5t-43 -100.5l-19 -136h849zM2153 1434h294l-23 -170h-294z" glyph-name="f_f_i.liga" horiz-adv-x="2475" unicode="ffi"/><glyph d="M299 1434h999l-200 -1434h-1000zM933 168l154 1098h-622l-155 -1098h623z" glyph-name=".notdef" horiz-adv-x="1349"/><glyph glyph-name="glyph1"/><glyph glyph-name="glyph2" horiz-adv-x="681"/><glyph glyph-name="space" horiz-adv-x="461" unicode=" "/><glyph d="M197 332l127 1102h245l-182 -1102h-190zM98 0l24 170h294l-24 -170h-294z" glyph-name="exclam" horiz-adv-x="644" unicode="!"/><glyph d="M365 1486h220l-168 -535h-186zM687 1486h221l-168 -535h-185z" glyph-name="quotedbl" horiz-adv-x="952" unicode="&quot;"/><glyph d="M1273 910l-150 -386h240l-58 -166h-240l-136 -358h-256l136 358h-323l-137 -358h-256l137 358h-226l58 166h227l149 386h-238l57 166h239l136 358h257l-136 -358h322l136 358h256l-136 -358h225l-57 -166h-226zM1018 910h-324l-149 -386h322z" glyph-name="numbersign" horiz-adv-x="1518" unicode="#"/><glyph d="M814 793q98 -31 167 -66t121 -85.5t70.5 -120t3.5 -159.5q-14 -82 -64.5 -148.5t-125 -110.5t-162 -71.5t-184.5 -38.5l-23 -161h-120l21 154h-5q-276 0 -450 115l31 211q102 -71 209.5 -103.5t236.5 -32.5q87 0 169.5 23.5t142.5 72.5t71 112q6 41 -10 75t-42 56t-76 44 t-90 34t-108.5 33t-108.5 34q-170 61 -249 154.5t-53 244.5q29 161 169.5 265t367.5 122l22 156h121l-22 -154q203 -7 349 -96l-31 -210q-176 118 -382 116q-134 0 -226 -57t-111 -154q-8 -40 6.5 -72.5t40.5 -55t72.5 -43.5t89 -35t103.5 -31q40 -11 59 -17z" glyph-name="dollar" horiz-adv-x="1315" unicode="$"/><glyph d="M876 1005q-30 -216 -138.5 -328t-269.5 -112t-238 111.5t-47 328.5q30 214 138.5 326.5t269.5 112.5t238 -112.5t47 -326.5zM1398 1434h130l-967 -1434h-130zM483 685q95 0 154 84t81 236q22 151 -14.5 235t-130.5 84q-92 0 -151.5 -84.5t-80.5 -234.5q-22 -152 13 -236 t129 -84zM1765 430q-30 -216 -138 -327.5t-269 -111.5t-238.5 111.5t-46.5 327.5q30 214 138.5 326.5t269 112.5t237.5 -112.5t47 -326.5zM1373 111q95 0 154 84t81 235t-15 235.5t-130 84.5q-92 0 -151.5 -84.5t-80.5 -235.5q-22 -152 13 -235.5t129 -83.5z" glyph-name="percent" horiz-adv-x="1901" unicode="%"/><glyph d="M1428 841l-24 -171h-116l-38 -269q-14 -105 -74.5 -187.5t-150 -130.5t-194 -72.5t-216.5 -24.5q-88 0 -167.5 14.5t-149.5 47.5t-118 80.5t-70.5 117.5t-10.5 155q18 132 109 224t222 139q-84 44 -129 121.5t-30 183.5q13 93 64.5 166.5t128 118.5t167.5 68.5t190 23.5 q98 0 183 -23.5t149 -68.5t94.5 -118.5t17.5 -166.5l-219 -10q15 101 -53.5 159t-195.5 58q-126 0 -210.5 -58t-99 -159.5t57 -159.5t190.5 -58h693zM1005 412l35 258h-328q-140 0 -244 -70.5t-121 -187.5q-17 -121 67.5 -188t225.5 -67t244.5 67t120.5 188z" glyph-name="ampersand" horiz-adv-x="1506" unicode="&amp;"/><glyph d="M365 1486h220l-168 -535h-186z" glyph-name="quotesingle" horiz-adv-x="628" unicode="'"/><glyph d="M251 -473q-150 505 -75.5 1027t364.5 1021h227q-179 -318 -273.5 -670.5t-96.5 -697t81 -680.5h-227z" glyph-name="parenleft" horiz-adv-x="797" unicode="("/><glyph d="M260 -473h-227q268 498 344.5 1030t-58.5 1018h228q151 -497 77.5 -1021t-364.5 -1027z" glyph-name="parenright" horiz-adv-x="798" unicode=")"/><glyph d="M855 1155l-240 -89l126 -193l-111 -79l-124 190l-177 -190l-89 79l179 193l-215 89l60 118l207 -86l34 247h128l-35 -247l230 86z" glyph-name="asterisk" horiz-adv-x="889" unicode="*"/><glyph d="M1130 802l-24 -170h-337l-50 -358h-246l50 358h-337l25 170h337l49 357h246l-49 -357h336z" glyph-name="plus" horiz-adv-x="1269" unicode="+"/><glyph d="M154 206h250l-186 -530h-216z" glyph-name="comma" horiz-adv-x="627" unicode=","/><glyph d="M188 646h510l-26 -190h-510z" glyph-name="hyphen" horiz-adv-x="860" unicode="-"/><glyph d="M131 230h294l-33 -230h-294z" glyph-name="period" horiz-adv-x="644" unicode="."/><glyph d="M911 1434l-655 -1434h-251l655 1434h251z" glyph-name="slash" horiz-adv-x="870" unicode="/"/><glyph d="M1291 717q-50 -360 -231 -546t-450 -186q-267 0 -395 185.5t-78 546.5q50 357 231 544.5t449 187.5t396 -187.5t78 -544.5zM637 171q163 0 265 143.5t138 402.5q36 258 -27 402t-222.5 144t-263 -144t-139.5 -402t25.5 -402t223.5 -144z" glyph-name="zero" horiz-adv-x="1381" unicode="0"/><glyph d="M724 190h353l-26 -190h-953l27 190h353l146 1032q-159 -86 -301 -125l29 213q152 33 298 124h248z" glyph-name="one" horiz-adv-x="1303" unicode="1"/><glyph d="M1198 190l-27 -190h-1134l26 190q46 31 136 90t144 95.5t138.5 93.5t139 98t122 94.5t111 96t85 89t63.5 89t27 81.5q15 108 -55.5 174.5t-211.5 66.5q-223 2 -426 -123l-69 161q260 153 531 153q262 0 392.5 -107t104.5 -283q-8 -60 -38.5 -124.5t-68.5 -118t-103 -118 t-117 -110t-136 -109.5t-135.5 -100t-141.5 -99t-128 -90h771z" glyph-name="two" horiz-adv-x="1362" unicode="2"/><glyph d="M295 1434h1020l-27 -191l-556 -425q94 3 170 -9q176 -26 263.5 -130t63.5 -270q-31 -209 -197.5 -318t-430.5 -106q-169 2 -296.5 36t-249.5 114l127 170q73 -60 198.5 -96t245.5 -34q154 1 248.5 62t110.5 174q18 118 -68.5 192t-245.5 74q-143 0 -248 -34l-36 166 l615 434h-734z" glyph-name="three" horiz-adv-x="1362" unicode="3"/><glyph d="M1382 545l-26 -192h-250l-50 -353h-246l50 353h-713l27 192l800 889h282l-123 -889h249zM408 545h479l91 648z" glyph-name="four" horiz-adv-x="1558" unicode="4"/><glyph d="M370 1434h916l-26 -191h-703l-83 -382q200 34 388 13q194 -24 296 -139t75 -301q-34 -226 -200 -339t-432 -110q-169 2 -296.5 36t-249.5 114l127 170q73 -59 198 -95t246 -35q156 1 250 66t113 195q18 127 -94 207t-280 80q-160 0 -336 -36l-49 61z" glyph-name="five" horiz-adv-x="1362" unicode="5"/><glyph d="M1286 475q-17 -123 -82 -219t-159.5 -153.5t-201 -86.5t-216.5 -29q-88 0 -169.5 18t-153 56.5t-121 94.5t-72 138.5t-8.5 180.5q6 43 16.5 77t23 65t44 74.5t60 81t95 110.5t123 135.5t167.5 184.5t210 231h292l-479 -529q145 50 279 33q82 -10 151.5 -45t119.5 -92 t72.5 -141.5t8.5 -184.5zM650 153q146 0 258 89t132 233q20 147 -66 235t-234 88q-145 0 -258 -91.5t-133 -231.5q-20 -144 67 -233t234 -89z" glyph-name="six" horiz-adv-x="1411" unicode="6"/><glyph d="M238 1434h1002l-27 -191q-526 -566 -717 -1243h-257q199 698 705 1243h-733z" glyph-name="seven" horiz-adv-x="1229" unicode="7"/><glyph d="M1245 401q-11 -85 -53.5 -155t-104 -117.5t-141 -80.5t-164 -47.5t-172.5 -14.5q-89 0 -169 14.5t-149.5 47.5t-117.5 80.5t-70.5 117.5t-10.5 155q18 132 109 224t223 139q-85 44 -129.5 121.5t-30.5 183.5q13 93 64.5 166.5t128.5 118.5t168 68.5t189 23.5 q99 0 183.5 -23.5t148.5 -68.5t95 -118.5t18 -166.5q-14 -106 -81 -183.5t-163 -121.5q117 -47 182 -139t47 -224zM481 1059q-14 -100 58 -159t191 -59t207.5 58t103 159.5t-54 159.5t-194.5 58t-211.5 -58t-99.5 -159zM634 157q141 0 244.5 67t120.5 188q16 118 -68 188 t-224.5 70t-244.5 -70.5t-120 -187.5q-17 -121 67 -188t225 -67z" glyph-name="eight" horiz-adv-x="1379" unicode="8"/><glyph d="M172 959q13 99 58.5 182t111 138.5t147.5 94.5t168 57t174.5 18t169 -18t152 -57t121 -94.5t72 -138t9.5 -182.5q-6 -43 -16.5 -76.5t-22.5 -65t-44.5 -75t-61 -80.5t-94 -110t-123 -136t-168 -184t-209.5 -231h-292l479 529q-143 -51 -280 -32q-82 10 -151 45 t-119.5 91.5t-72.5 140.5t-8 184zM807.5 1283q-147.5 0 -258.5 -89t-131 -235t66 -233.5t234 -87.5q144 0 257.5 90.5t133.5 230.5q19 145 -67.5 234.5t-234 89.5z" glyph-name="nine" horiz-adv-x="1411" unicode="9"/><glyph d="M253 1102h294l-33 -232h-294zM131 230h294l-33 -230h-294z" glyph-name="colon" horiz-adv-x="644" unicode=":"/><glyph d="M253 1102h294l-33 -232h-294zM150 206h250l-186 -530h-216z" glyph-name="semicolon" horiz-adv-x="644" unicode=";"/><glyph d="M1167 1084l-28 -212l-748 -200l690 -201l-29 -211l-882 256l26 172l18 140z" glyph-name="less" horiz-adv-x="1268" unicode="&lt;"/><glyph d="M1133 822h-920l25 171h919zM1079 440h-919l24 171h919z" glyph-name="equal" horiz-adv-x="1269" unicode="="/><glyph d="M1132 828l-30 -212l-15 -100l-953 -256l30 211l747 201l-691 200l31 212z" glyph-name="greater" horiz-adv-x="1267" unicode=">"/><glyph d="M634 1434q248 3 382.5 -107t107.5 -316q-23 -168 -129 -271.5t-272 -130.5q-28 -6 -155 -18l-37 -249h-220l41 413q68 -13 176 -14q144 0 240.5 74.5t111.5 192.5q14 112 -62.5 173.5t-212.5 61.5q-104 1 -216.5 -27t-191.5 -73l30 215q177 73 407 76zM227 0l25 170h294 l-25 -170h-294z" glyph-name="question" horiz-adv-x="1173" unicode="?"/><glyph d="M1253 -78q-184 -74 -393 -74q-182 0 -330.5 62t-244.5 170.5t-137.5 262.5t-16.5 331q24 170 108 320.5t208.5 260.5t291 174t346.5 64q237 0 414.5 -102.5t260.5 -281.5t52 -398q-32 -229 -143 -357t-275 -128q-106 0 -171 53t-69 149q-54 -78 -139 -115.5t-172 -37.5 q-78 0 -141.5 24t-109.5 70.5t-65.5 124.5t-5.5 180q13 100 54.5 178.5t101 125.5t130.5 70.5t148 23.5q86 0 161 -38.5t107 -114.5l27 142h154l-77 -546q-9 -66 25 -100.5t88 -34.5q84 0 144 84.5t82 243.5q26 185 -39 332.5t-212.5 232.5t-352.5 85q-197 0 -367 -89 t-279.5 -245.5t-136.5 -349.5q-29 -203 40 -362.5t215.5 -247t344.5 -87.5q178 0 351 65zM1149 609l18 129q-2 102 -57 154.5t-139 52.5q-100 0 -173 -72.5t-91.5 -198.5t34.5 -199t153 -73q86 0 155.5 50.5t99.5 156.5z" glyph-name="at" horiz-adv-x="1904" unicode="@"/><glyph d="M1140 0l-69 304h-682l-155 -304h-280l752 1434h365l349 -1434h-280zM485 495h543l-167 741z" glyph-name="A" horiz-adv-x="1528" unicode="A"/><glyph d="M299 1434h714q169 0 267.5 -95.5t74.5 -272.5q-15 -109 -75 -194t-142 -120q105 -33 156 -124t30 -234q-11 -80 -44 -146t-81 -111.5t-109 -76.5t-128 -45.5t-140 -14.5h-724zM541 1261l-65 -457h354q108 0 180 53.5t90 173.5q32 229 -205 230h-354zM786 168 q109 -1 183 57.5t91 178.5t-40 176t-167 56h-400l-66 -466z" glyph-name="B" horiz-adv-x="1460" unicode="B"/><glyph d="M1312 1170q-167 90 -359 80q-96 -5 -184.5 -39.5t-164.5 -98t-129.5 -165.5t-71.5 -230q-17 -127 7.5 -229t83 -166t137.5 -99t173 -40q187 -10 381 80l-29 -205q-178 -74 -380 -73q-94 0 -182 20.5t-165.5 61.5t-138.5 102t-101.5 142t-54 183t2.5 223q20 141 78 262 t141 206t186 145.5t214.5 89.5t225.5 29q201 0 359 -74z" glyph-name="C" horiz-adv-x="1399" unicode="C"/><glyph d="M1490 717q-25 -180 -99.5 -319.5t-184.5 -225t-243.5 -129t-283.5 -43.5h-581l201 1434h581q151 0 272.5 -44.5t206.5 -131t120.5 -225.5t10.5 -316zM680 190q212 0 361 141t184 386q34 245 -77 385.5t-320 140.5h-289l-149 -1053h290z" glyph-name="D" horiz-adv-x="1581" unicode="D"/><glyph d="M390 190h802l-27 -190h-1067l201 1434h1067l-27 -191h-800l-62 -431h715l-27 -190h-714z" glyph-name="E" horiz-adv-x="1418" unicode="E"/><glyph d="M364 0h-266l201 1434h1026l-27 -191h-759l-62 -431h679l-27 -190h-678z" glyph-name="F" horiz-adv-x="1377" unicode="F"/><glyph d="M871 813h509l-100 -707q-249 -122 -505 -121q-114 0 -217 29t-189 89.5t-144.5 145.5t-82.5 205.5t-5 262.5q20 141 78 262t141 206t186 145.5t214.5 89.5t225.5 29q200 0 358 -74l-27 -196q-169 90 -360 79q-94 -3 -183.5 -39t-165.5 -101.5t-129.5 -169.5t-71.5 -231 t6.5 -231t82 -169.5t137 -102t173.5 -39.5q66 -1 143.5 18t129.5 49l55 395h-284z" glyph-name="G" horiz-adv-x="1518" unicode="G"/><glyph d="M1251 1434h267l-202 -1434h-265l87 622h-687l-87 -622h-266l201 1434h266l-88 -622h687z" glyph-name="H" horiz-adv-x="1568" unicode="H"/><glyph d="M364 0h-266l201 1434h266z" glyph-name="I" horiz-adv-x="616" unicode="I"/><glyph d="M129 219q128 -46 242 -39q247 12 285 298l135 956h266l-135 -961q-35 -258 -177 -373t-383 -115q-154 0 -262 33z" glyph-name="J" horiz-adv-x="1107" unicode="J"/><glyph d="M1461 1434l-720 -702l519 -732h-298l-499 703l-99 -703h-266l201 1434h266l-95 -674l693 674h298z" glyph-name="K" horiz-adv-x="1389" unicode="K"/><glyph d="M565 1434l-175 -1244h756l-27 -190h-1021l201 1434h266z" glyph-name="L" horiz-adv-x="1315" unicode="L"/><glyph d="M1544 1434h373l-201 -1434h-266l156 1102l-553 -938h-245l-289 938l-155 -1102h-266l201 1434h373l300 -975z" glyph-name="M" horiz-adv-x="1969" unicode="M"/><glyph d="M1304 1434h266l-202 -1434h-273l-584 1047l-147 -1047h-266l201 1434h273l586 -1038z" glyph-name="N" horiz-adv-x="1620" unicode="N"/><glyph d="M1619 717q-20 -143 -78.5 -264.5t-141.5 -206.5t-186.5 -145t-214 -88t-224.5 -28t-216 28t-188 88t-145 145t-83.5 206t-4.5 265q20 141 78 262t140.5 206t186 145.5t214.5 89.5t225 29q94 0 181.5 -20.5t165 -61.5t138.5 -102.5t101.5 -142.5t54 -182t-2.5 -223z M802 175q129 0 243.5 61t199 186.5t108.5 294.5q18 128 -6.5 232.5t-82 171t-137 102t-174.5 35.5q-93 0 -183 -35.5t-165.5 -102t-129.5 -171t-72 -232.5t6 -232.5t80.5 -171t137 -102.5t175.5 -36z" glyph-name="O" horiz-adv-x="1709" unicode="O"/><glyph d="M928 1434q243 0 370.5 -119t97.5 -333q-36 -258 -261.5 -369.5t-701.5 -118.5l-69 -494h-266l201 1434h629zM1129 982q18 128 -48 199t-194 71h-347l-81 -578q232 3 373 35t211.5 97.5t85.5 175.5z" glyph-name="P" horiz-adv-x="1448" unicode="P"/><glyph d="M981 1449q94 0 181.5 -20.5t165 -61.5t138.5 -102.5t101.5 -142.5t54 -182t-2.5 -223q-17 -122 -62 -228t-109 -186t-144.5 -142t-170.5 -100.5t-186 -58.5q78 -144 247 -223l-138 -143q-105 42 -194 138t-136 212q-135 8 -250 57.5t-200.5 137.5t-123.5 226.5t-15 309.5 q20 141 78 262t140.5 206t186 145.5t214.5 89.5t225 29zM1353 717q18 128 -6.5 232.5t-82 171t-137 102t-174.5 35.5q-93 0 -183 -35.5t-165.5 -102t-129.5 -171t-72 -232.5t6 -232.5t80.5 -171t137 -102.5t175.5 -36q129 0 243.5 61t199 186.5t108.5 294.5z" glyph-name="Q" horiz-adv-x="1709" unicode="Q"/><glyph d="M1396 982q-22 -156 -109.5 -255.5t-250.5 -155.5l266 -571h-270l-239 517q-150 -20 -360 -23l-69 -494h-266l201 1434h629q243 0 371 -119t97 -333zM1129 982q18 128 -48 199t-194 71h-347l-81 -578q232 3 373.5 35t211.5 97.5t85 175.5z" glyph-name="R" horiz-adv-x="1494" unicode="R"/><glyph d="M94 312q102 -71 209.5 -103.5t236.5 -32.5q87 0 169.5 23.5t142.5 72.5t71 112q6 41 -10 75t-42 56t-76 44t-90 34t-108.5 33t-108.5 34q-170 61 -249 154.5t-53 244.5q31 176 195 283t426 107q224 0 386 -97l-31 -210q-176 118 -382 116q-134 0 -226 -57t-111 -154 q-8 -40 6.5 -72.5t40.5 -55t72.5 -43.5t89 -35t103.5 -31q40 -11 59 -17q98 -31 167 -66t121 -85.5t70.5 -120t3.5 -159.5q-17 -95 -82 -169t-158.5 -118t-201 -66.5t-221.5 -22.5q-276 0 -450 115z" glyph-name="S" horiz-adv-x="1315" unicode="S"/><glyph d="M1258 1434l-26 -191h-417l-174 -1243h-266l175 1243h-416l27 191h1097z" glyph-name="T" horiz-adv-x="1170" unicode="T"/><glyph d="M1483 1434l-121 -856q-43 -316 -209 -454.5t-466 -138.5t-426 138t-83 455l121 856h266l-127 -902q-25 -180 41 -268.5t235 -88.5q170 0 260.5 88.5t115.5 268.5l127 902h266z" glyph-name="U" horiz-adv-x="1533" unicode="U"/><glyph d="M1286 1434h281l-722 -1434h-366l-318 1434h279l252 -1224z" glyph-name="V" horiz-adv-x="1479" unicode="V"/><glyph d="M1884 1434h278l-602 -1434h-288l-156 1115l-468 -1115h-288l-199 1434h276l126 -1091l446 1091h305l139 -1091z" glyph-name="W" horiz-adv-x="2074" unicode="W"/><glyph d="M1538 1434l-593 -709l413 -725h-296l-321 555l-470 -555h-296l617 725l-393 709h291l306 -536l449 536h293z" glyph-name="X" horiz-adv-x="1486" unicode="X"/><glyph d="M1171 1434h283l-640 -895l-76 -539h-265l76 539l-388 895h282l274 -643z" glyph-name="Y" horiz-adv-x="1366" unicode="Y"/><glyph d="M1402 1434l-27 -191l-920 -1053h773l-27 -190h-1103l27 190l915 1053h-768l27 191h1103z" glyph-name="Z" horiz-adv-x="1454" unicode="Z"/><glyph d="M312 1528h569l-24 -171h-322l-228 -1613h323l-24 -171h-568z" glyph-name="bracketleft" horiz-adv-x="918" unicode="["/><glyph d="M207 1434h251l252 -1434h-251z" glyph-name="backslash" horiz-adv-x="870" unicode="\"/><glyph d="M881 1528l-275 -1955h-568l23 171h323l227 1613h-322l23 171h569z" glyph-name="bracketright" horiz-adv-x="918" unicode="]"/><glyph d="M812 851h-146l-85 467l-216 -467h-147l269 583h219z" glyph-name="asciicircum" horiz-adv-x="945" unicode="^"/><glyph d="M74 -170h1433l-23 -171h-1434z" glyph-name="underscore" horiz-adv-x="1783" unicode="_"/><glyph d="M314 1537h234l180 -307h-191z" glyph-name="grave" horiz-adv-x="807" unicode="`"/><glyph d="M744 1116q261 0 371.5 -105.5t80.5 -320.5l-97 -690h-236l9 143q-199 -165 -484 -158q-164 4 -242.5 81t-66.5 198q22 226 238.5 333.5t628.5 69.5l5 39q13 121 -47.5 176.5t-211.5 61.5q-180 9 -379 -79l25 169q181 82 406 82zM894 298l31 215q-292 31 -444.5 -19.5 t-170.5 -187.5q-10 -87 47.5 -120t182.5 -31q110 1 203.5 44t150.5 99z" glyph-name="a" horiz-adv-x="1330" unicode="a"/><glyph d="M1318 551q-20 -144 -79 -256t-144 -178t-184.5 -99t-209.5 -33q-289 0 -386 196l-35 -181h-202l216 1536h246l-85 -602q138 182 406 182q111 0 201 -34t155.5 -102t92.5 -178t8 -251zM688 151q147 0 256.5 106.5t136 293.5t-52.5 296t-226 109q-123 0 -229 -79.5 t-149 -225.5l-26 -181q-2 -160 81 -239.5t209 -79.5z" glyph-name="b" horiz-adv-x="1436" unicode="b"/><glyph d="M1101 871q-129 73 -309 66q-104 -5 -193 -47.5t-153.5 -130t-80.5 -208.5q-25 -180 66.5 -279.5t251.5 -106.5q175 -7 328 64l-26 -182q-155 -62 -354 -62q-88 0 -169 21t-151 66.5t-118.5 110.5t-69.5 160t-4 208q15 113 62.5 207.5t114 159.5t149.5 110.5t170 66.5 t176 21q201 0 336 -62z" glyph-name="c" horiz-adv-x="1175" unicode="c"/><glyph d="M119 551q19 141 78 251t143 178t184.5 102t210.5 34q268 0 354 -182l86 602h245l-216 -1536h-202l16 181q-154 -197 -443 -196q-110 0 -199.5 33t-155.5 99t-93.5 178t-7.5 256zM636 151q126 0 231.5 79.5t148.5 239.5l25 181q-3 145 -86.5 225t-204.5 80 q-147 0 -257 -108.5t-137 -296.5q-27 -186 53.5 -293t226.5 -107z" glyph-name="d" horiz-adv-x="1435" unicode="d"/><glyph d="M1213 482h-863q0 -88 34 -154.5t93.5 -104.5t130.5 -56.5t154 -19.5q168 -1 317 68l-23 -168q-157 -62 -382 -62q-95 0 -182.5 20.5t-163 65.5t-128 109.5t-75.5 160t-6 210.5q15 113 60.5 207.5t108.5 159.5t142.5 110.5t164 66.5t170.5 21q179 0 301 -79t161 -219.5 t-14 -335.5zM758 955q-130 -2 -234 -84.5t-148 -225.5h655q16 77 0 138.5t-57.5 98.5t-97 55.5t-118.5 17.5z" glyph-name="e" horiz-adv-x="1351" unicode="e"/><glyph d="M949 1536l-22 -161h-163q-52 0 -86.5 -36t-43.5 -101l-20 -136h274l-24 -171h-273l-131 -931h-246l131 931h-172l24 171h172l28 203q14 98 80.5 164.5t155.5 66.5h316z" glyph-name="f" horiz-adv-x="965" unicode="f"/><glyph d="M1114 1102h244l-139 -992q-19 -135 -81 -239t-153.5 -167.5t-202 -96t-235.5 -32.5q-205 0 -341 63l24 176q127 -71 316 -65q170 6 283.5 83t137.5 240l16 117q-73 -98 -174 -136.5t-229 -38.5q-110 0 -200.5 34.5t-156 100.5t-93.5 173.5t-8 243.5q18 139 75 247.5 t138.5 173t176 97t199.5 32.5q278 0 375 -196zM359 566q-27 -184 52 -287.5t228 -103.5q59 0 118 18.5t112 53.5t92 93t54 132l23 167q0 83 -23.5 145t-64.5 97t-91.5 52.5t-110.5 17.5q-147 0 -255 -101.5t-134 -283.5z" glyph-name="g" horiz-adv-x="1435" unicode="g"/><glyph d="M323 0h-245l216 1536h246l-86 -617q101 114 220.5 155.5t271.5 41.5q181 0 266.5 -108t54.5 -335l-95 -673h-245l86 613q46 328 -204 328q-121 0 -238 -83t-159 -232z" glyph-name="h" horiz-adv-x="1404" unicode="h"/><glyph d="M275 1434h294l-24 -170h-294zM253 1102h246l-155 -1102h-246z" glyph-name="i" horiz-adv-x="595" unicode="i"/><glyph d="M275 1434h294l-24 -170h-294zM499 1102l-158 -1120q-11 -79 -42.5 -134t-79.5 -83.5t-101 -40t-121 -11.5q-98 2 -154 32l21 105q72 -14 122 -1q56 6 78.5 40.5t33.5 110.5l155 1102h246z" glyph-name="j" horiz-adv-x="595" unicode="j"/><glyph d="M1287 1102l-555 -463l401 -639h-261l-304 503l-197 -165l-47 -338h-246l216 1536h246l-132 -938l616 504h263z" glyph-name="k" horiz-adv-x="1292" unicode="k"/><glyph d="M294 1536h246l-216 -1536h-246z" glyph-name="l" horiz-adv-x="556" unicode="l"/><glyph d="M1715 1116q194 0 275.5 -117.5t44.5 -385.5l-87 -613h-246l87 613q24 171 -27.5 249.5t-170.5 78.5q-84 0 -159 -36t-133.5 -115t-77.5 -190l-85 -600h-246l87 613q24 171 -27.5 249.5t-170.5 78.5q-131 0 -233 -90.5t-139 -263.5l-84 -587h-245l155 1102h246l-25 -183 q97 116 200 156.5t249 40.5q137 0 217.5 -57.5t104.5 -182.5q74 120 204 180t286 60z" glyph-name="m" horiz-adv-x="2180" unicode="m"/><glyph d="M323 0h-245l155 1102h246l-25 -183q101 114 220.5 155.5t271.5 41.5q181 0 266.5 -108t54.5 -335l-95 -673h-245l86 613q46 328 -204 328q-121 0 -238 -83t-159 -232z" glyph-name="n" horiz-adv-x="1404" unicode="n"/><glyph d="M1303 551q-15 -116 -63.5 -212t-115 -160.5t-150 -109t-169.5 -64.5t-174 -20q-87 0 -167.5 20t-151 64.5t-119 109t-69.5 160.5t-4 212q15 113 62.5 207.5t113.5 159.5t149 110.5t170 66.5t175.5 21t169 -21t151 -66.5t118.5 -110.5t68.5 -159.5t5.5 -207.5zM654 151 q148 0 262.5 107t140.5 293q26 183 -58 291.5t-232.5 108.5t-262 -108.5t-138.5 -291.5q-26 -186 57.5 -293t230.5 -107z" glyph-name="o" horiz-adv-x="1421" unicode="o"/><glyph d="M1318 551q-19 -141 -78 -251.5t-143 -178t-184.5 -101.5t-211.5 -34q-268 0 -353 182l-85 -602h-246l216 1536h201l-15 -181q154 197 442 196q110 0 200 -33t156 -99t93.5 -178t7.5 -256zM801 951q-126 0 -231.5 -79.5t-148.5 -239.5l-25 -181q2 -145 85.5 -225.5 t205.5 -80.5q148 0 257.5 109.5t135.5 296.5q27 186 -53 293t-226 107z" glyph-name="p" horiz-adv-x="1436" unicode="p"/><glyph d="M119 551q20 144 79 256t144 178t184.5 99t208.5 33q289 0 386 -196l37 181h201l-216 -1536h-246l85 602q-138 -182 -407 -182q-111 0 -200.5 34t-155 101.5t-92.5 178t-8 251.5zM749 951q-147 0 -256.5 -106.5t-136 -293.5t52 -296.5t226.5 -109.5q123 0 229 80t149 226 l25 181q2 160 -80.5 239.5t-208.5 79.5z" glyph-name="q" horiz-adv-x="1435" unicode="q"/><glyph d="M323 0h-245l155 1102h240l-24 -176q180 190 472 190l-25 -173q-66 3 -140 -17t-143.5 -59t-124.5 -102t-76 -137z" glyph-name="r" horiz-adv-x="913" unicode="r"/><glyph d="M96 243q145 -83 356 -91q109 -5 192 31.5t99 105.5q10 50 -26 86t-80 51.5t-145 43.5q-17 5 -26 7q-175 47 -252 128t-58 208q23 146 165 224.5t358 78.5q219 0 348 -76l-26 -181q-136 87 -323 91q-114 3 -187.5 -30t-86.5 -107q-4 -25 2.5 -45t25.5 -38t41 -32t61 -29.5 t73.5 -26.5t89.5 -28q86 -26 140.5 -50t95.5 -60t54.5 -85.5t3.5 -117.5q-15 -99 -95 -173t-190.5 -108.5t-235.5 -34.5q-114 0 -224.5 21t-173.5 57z" glyph-name="s" horiz-adv-x="1145" unicode="s"/><glyph d="M764 0h-342q-92 0 -141 65t-34 166l98 700h-172l24 171h172l30 215h246l-31 -215h305l-24 -171h-304l-89 -633q-9 -63 17.5 -100t78.5 -37h188z" glyph-name="t" horiz-adv-x="997" unicode="t"/><glyph d="M1082 1102h245l-155 -1102h-245l24 183q-101 -113 -221 -155t-271 -42q-181 0 -267 108t-54 335l94 673h246l-86 -614q-46 -328 204 -327q121 0 238 83t159 232z" glyph-name="u" horiz-adv-x="1404" unicode="u"/><glyph d="M1053 1102h259l-553 -1102h-356l-242 1102h261l182 -934z" glyph-name="v" horiz-adv-x="1317" unicode="v"/><glyph d="M1622 1102h261l-483 -1102h-290l-125 848l-362 -848h-289l-173 1102h260l121 -849l350 849h259l120 -849z" glyph-name="w" horiz-adv-x="1888" unicode="w"/><glyph d="M1260 1102l-452 -537l297 -565h-258l-231 438l-353 -438h-258l456 565l-300 537h257l233 -416l350 416h259z" glyph-name="x" horiz-adv-x="1265" unicode="x"/><glyph d="M1053 1102h259l-589 -1056q-37 -66 -74.5 -119t-100 -115t-132 -103.5t-169.5 -68t-212 -23.5l13 161q278 0 390 271l-277 1053h261l192 -827z" glyph-name="y" horiz-adv-x="1317" unicode="y"/><glyph d="M1182 1102l-24 -171l-788 -760h681l-24 -171h-985l24 171l787 760h-680l24 171h985z" glyph-name="z" horiz-adv-x="1223" unicode="z"/><glyph d="M497 -447q-143 0 -208 81t-37 269l54 393q10 67 -22 116.5t-121 52.5l24 171q89 3 135.5 52.5t55.5 116.5l55 394q27 187 114 268.5t230 81.5h161l-24 -171h-75q-134 0 -159 -174l-60 -433q-13 -90 -69.5 -152t-159.5 -66v-4q100 -4 139.5 -66.5t26.5 -152.5l-60 -432 q-26 -174 109 -174h76l-25 -171h-160z" glyph-name="braceleft" horiz-adv-x="972" unicode="{"/><glyph d="M322 1588h245l-281 -1998h-246z" glyph-name="bar" horiz-adv-x="595" unicode="|"/><glyph d="M197 -447h-161l23 171h76q134 0 159 174l61 432q12 90 68 152.5t159 66.5l1 4q-52 2 -89 21.5t-54 49.5t-24 68.5t1 78.5l61 433q25 174 -109 174h-76l23 171h161q143 0 207.5 -81.5t38.5 -268.5l-55 -394q-9 -67 22.5 -116.5t119.5 -52.5l-24 -171q-89 -3 -135 -53 t-55 -116l-55 -393q-27 -188 -114 -269t-230 -81z" glyph-name="braceright" horiz-adv-x="973" unicode="}"/><glyph d="M170 507q17 128 88.5 197.5t166.5 69.5q44 0 89 -17t76 -37.5t69 -37t71 -16.5q36 0 62 29t33 74h156q-17 -128 -90 -197t-166 -69q-39 0 -82.5 17t-75 37t-70 36.5t-69.5 16.5q-41 -1 -67.5 -29t-34.5 -75z" glyph-name="asciitilde" horiz-adv-x="1126" unicode="~"/><glyph d="M253 1102h294l-25 -171h-294zM258 769h191l-127 -1101h-246z" glyph-name="exclamdown" horiz-adv-x="644" unicode="¡"/><glyph d="M1101 871q-98 55 -234 65l-108 -770q136 9 252 63l-26 -182q-113 -45 -251 -58l-20 -144h-121l19 140q-86 2 -164 24.5t-146 68.5t-114 111t-65.5 158t-4 204t61 204t110 157.5t145 110.5t165.5 68.5t172 24.5l20 140h120l-20 -144q139 -14 235 -58zM365 551 q-23 -167 54.5 -265t218.5 -117l108 764q-147 -19 -252.5 -117.5t-128.5 -264.5z" glyph-name="cent" horiz-adv-x="1175" unicode="¢"/><glyph d="M948 1258q-143 -4 -231.5 -69.5t-103.5 -171.5q-8 -62 3 -225h526l-24 -170h-493q1 -92 -10 -164.5t-48 -146t-101 -121.5h794l-27 -190h-1048l27 190q115 95 152 198.5t28 233.5h-207l24 170h164q-25 199 -7 317q22 155 184 247.5t426 92.5q205 0 364 -77l-27 -196 q-170 92 -365 82z" glyph-name="sterling" horiz-adv-x="1485" unicode="£"/><glyph d="M1183 718q-27 -181 -161 -315l143 -166l-79 -70l-145 169q-146 -104 -317 -105q-175 0 -293 108l-196 -172l-60 70l193 170q-94 136 -68 311q25 175 156 309l-146 170l79 70l148 -172q146 108 323 107q169 0 289 -103l191 168l60 -70l-189 -166q97 -134 72 -313zM647 403 q130 0 234.5 91.5t124.5 223.5q18 131 -61 221.5t-210 90.5t-235.5 -90.5t-123.5 -221.5q-18 -132 60.5 -223.5t210.5 -91.5z" glyph-name="currency" horiz-adv-x="1329" unicode="¤"/><glyph d="M1454 1434l-637 -891h391l-15 -112h-394l-16 -108h395l-16 -111h-394l-30 -212h-265l30 212h-392l15 111h392l16 108h-394l17 112h390l-386 891h282l274 -643l454 643h283z" glyph-name="yen" horiz-adv-x="1366" unicode="¥"/><glyph d="M322 1588h245l-126 -896h-245zM166 487h246l-126 -897h-246z" glyph-name="brokenbar" horiz-adv-x="595" unicode="¦"/><glyph d="M750 1207q-113 0 -188.5 -39.5t-87.5 -113.5q-6 -36 10.5 -64.5t60 -53.5t92 -42.5t130.5 -42.5q86 -26 140 -49.5t95.5 -58.5t55.5 -84.5t4 -116.5q-27 -170 -232 -259q77 -40 109 -98t18 -149q-15 -98 -96.5 -172t-194 -109t-237.5 -35q-110 0 -214 26.5t-169 74.5 l24 164q133 -105 339 -115q106 -3 195 40.5t105 113.5q16 80 -77 128q-50 25 -201 65q-176 47 -252.5 126t-56.5 206q26 173 222 251q-141 91 -118 254q22 146 164 224.5t359 78.5q222 0 346 -85l-24 -162q-132 97 -321 97zM813 528q13 63 -35.5 101t-155.5 69 q-104 -4 -172 -42t-80 -107q-10 -58 38.5 -97t156.5 -76q93 9 164 50.5t84 101.5z" glyph-name="section" horiz-adv-x="1183" unicode="§"/><glyph d="M297 1419h239l-27 -189h-239zM701 1419h238l-27 -189h-237z" glyph-name="dieresis" horiz-adv-x="992" unicode="¨"/><glyph d="M797 -28q-214 0 -376 99.5t-237 270t-47 375.5q29 206 152.5 376.5t313 269t403.5 98.5q162 0 296.5 -57.5t221.5 -157.5t126.5 -238t17.5 -291q-29 -205 -152 -375.5t-313.5 -270t-405.5 -99.5zM816 100q180 0 335.5 80.5t255.5 221.5t124.5 315t-36 314.5t-194 221 t-313.5 80.5q-179 0 -334.5 -80.5t-255.5 -221t-124.5 -314.5t36.5 -315t193.5 -221.5t312.5 -80.5zM1188 947q-87 50 -217 46q-111 -4 -194 -77.5t-100.5 -198.5t45 -199t172.5 -78q123 -6 228 45l-16 -118q-108 -44 -247 -44q-77 0 -145 24t-120.5 70.5t-77 124.5 t-11.5 175q11 79 44 145t79 111t103 76.5t117.5 46.5t122.5 15q139 0 233 -44z" glyph-name="copyright" horiz-adv-x="1759" unicode="©"/><glyph d="M568 1444q154 0 219.5 -63.5t48.5 -192.5l-59 -415h-150l7 87q-116 -99 -281 -95q-94 2 -140 48.5t-39 118.5q25 276 502 230l5 38q7 73 -27 103.5t-116 32.5q-106 3 -202 -55l-38 90q130 73 270 73zM646 952l19 129q-169 18 -252 -11t-91 -109q-4 -45 27.5 -69.5 t94.5 -23.5q60 1 113 25.5t89 58.5z" glyph-name="ordfeminine" horiz-adv-x="865" unicode="ª"/><glyph d="M823 947l-392 -384l284 -384h-254l-284 384l392 384h254zM1333 947l-392 -384l284 -384h-254l-284 384l391 384h255z" glyph-name="guillemotleft" horiz-adv-x="1452" unicode="«"/><glyph d="M1212 970l-82 -585h-245l54 394h-732l27 191h978z" glyph-name="logicalnot" horiz-adv-x="1328" unicode="¬"/><glyph d="M754 1504q215 0 340 -141.5t95 -348.5t-194 -349t-379 -142q-140 0 -246 65.5t-155 178t-31 247.5q30 207 193 348.5t377 141.5zM1088.5 1014q23.5 170 -74.5 283t-272 113t-304 -113t-153.5 -283t74.5 -283.5t272 -113.5q175 0 304.5 113.5t153 283.5zM742 1271 q90 0 133.5 -41.5t32.5 -118.5q-8 -58 -39 -94.5t-94 -54.5l95 -205h-95l-88 187q-47 -5 -120 -7l-25 -180h-92l72 514h220zM816 1111q7 49 -15.5 70.5t-72.5 21.5h-124l-27 -198q129 1 180 24.5t59 81.5z" glyph-name="registered" horiz-adv-x="1243" unicode="®"/><glyph d="M291 1376h536l-20 -146h-537z" glyph-name="macron" horiz-adv-x="886" unicode="¯"/><glyph d="M485.5 938q-105.5 0 -170 74.5t-50.5 180.5q15 105 101 180.5t191.5 75.5t169.5 -75.5t49.5 -181t-100 -180t-191 -74.5zM499.5 1040q62.5 0 114.5 45t60 108q9 62 -30 108t-101.5 46t-114 -46t-60.5 -108q-8 -62 30.5 -107.5t101 -45.5z" glyph-name="degree" horiz-adv-x="861" unicode="°"/><glyph d="M1150 944l-24 -171h-336l-33 -228h-246l33 228h-337l23 171h337l33 228h246l-33 -228h337zM1078 436l-23 -170h-920l25 170h918z" glyph-name="plusminus" horiz-adv-x="1269" unicode="±"/><glyph d="M848 889l-18 -123h-680l17 123q26 17 81 53.5t86 57t82 55.5t81.5 58.5t71.5 55t66 56.5t50 53t37.5 53.5t15.5 47.5q9 66 -30.5 104t-124.5 39q-135 0 -254 -74l-46 103q161 93 322 94q161 0 239.5 -65.5t62.5 -173.5q-5 -33 -17 -65t-36.5 -65.5t-46 -60.5t-60 -62 t-63.5 -56.5t-73 -56.5t-70 -51.5t-74 -53t-68 -46.5h449z" glyph-name="uni00B2" horiz-adv-x="919" unicode="²"/><glyph d="M306 1638h614l-18 -122l-334 -250q51 2 103 -6q106 -15 160.5 -78t39.5 -163q-19 -128 -117.5 -194t-258.5 -64q-191 3 -332 94l83 109q45 -37 120 -59.5t145 -21.5q185 2 205 138q10 70 -39 110t-147 40q-89 0 -148 -19l-25 115l361 249h-428z" glyph-name="uni00B3" horiz-adv-x="923" unicode="³"/><glyph d="M771 1537l-309 -307h-192l268 307h233z" glyph-name="acute" horiz-adv-x="807" unicode="´"/><glyph d="M1082 1102h245l-155 -1102h-245l24 183q-101 -113 -221 -155t-271 -42q-74 0 -134 18l-59 -414h-246l115 819l3 20l94 673h246l-24 -172h1l-66 -465q-33 -304 207 -304q121 0 238 83t159 232z" glyph-name="uni00B5" horiz-adv-x="1371" unicode="µ"/><glyph d="M555 902q-151 0 -231 68t-63 194q19 135 118.5 202.5t266.5 67.5h594l-201 -1434h-221l174 1243h-168l-175 -1243h-221z" glyph-name="paragraph" horiz-adv-x="1291" unicode="¶"/><glyph d="M215 833h294l-33 -232h-294z" glyph-name="periodcentered" horiz-adv-x="644" unicode="·"/><glyph d="M272 -71q73 0 112 -31.5t31 -88.5q-9 -67 -73 -103.5t-175 -36.5q-60 0 -114 10l12 80q37 -7 87 -7q116 0 124 61q4 32 -19.5 44t-77.5 12q-27 0 -43 -1l8 57l81 80h90l-78 -77q8 1 35 1z" glyph-name="cedilla" horiz-adv-x="694" unicode="¸"/><glyph d="M532 901h208l-17 -123h-571l17 123h208l84 602q-90 -52 -175 -76l18 137q83 18 175 74h157z" glyph-name="uni00B9" horiz-adv-x="809" unicode="¹"/><glyph d="M859 1104q-12 -86 -52.5 -153.5t-98 -106.5t-121.5 -59t-130 -20q-52 0 -100.5 11.5t-91 38.5t-71.5 66t-42 96t-2 127q12 84 52 151t96.5 107t121.5 61t131.5 21t126 -21t105 -61t67 -107t9.5 -151zM472 872q85 0 151 62t82 170q15 106 -33.5 169t-134.5 63t-152 -63 t-80 -169q-15 -108 33 -170t134 -62z" glyph-name="ordmasculine" horiz-adv-x="852" unicode="º"/><glyph d="M231 947h254l284 -384l-391 -384h-254l391 384zM741 947h254l284 -384l-391 -384h-254l391 384z" glyph-name="guillemotright" horiz-adv-x="1453" unicode="»"/><glyph d="M504 696h208l-18 -123h-571l17 123h208l84 602q-90 -52 -175 -75l18 136q83 18 176 75h156zM1396 1434h131l-968 -1434h-129zM1692 331l-18 -123h-146l-29 -208h-153l28 208h-417l18 123l469 529h176l-75 -529h147zM1126 331h267l52 375z" glyph-name="onequarter" horiz-adv-x="1841" unicode="¼"/><glyph d="M504 696h208l-18 -123h-571l17 123h208l84 602q-90 -52 -175 -75l18 136q83 18 176 75h156zM1398 1434h131l-968 -1434h-129zM1774 123l-18 -123h-681l17 123q27 17 81 53l85.5 57t82.5 55.5t82 58.5t72 55.5t66 56.5t49.5 53t37.5 53.5t16 47.5q9 66 -31 104t-126 39 q-135 0 -253 -74l-46 103q160 93 322 94q161 0 239.5 -65t63.5 -174q-5 -33 -18 -65t-36.5 -65.5t-45.5 -60.5t-60.5 -61.5t-63.5 -57t-72.5 -57t-70.5 -51t-74.5 -52.5t-67.5 -47h450z" glyph-name="onehalf" horiz-adv-x="1952" unicode="½"/><glyph d="M278 1434h613l-18 -123l-333 -250q51 2 102 -6q106 -15 160.5 -78t40.5 -163q-19 -128 -117.5 -194t-259.5 -64q-191 3 -332 94l83 109q45 -37 120.5 -59.5t144.5 -21.5q185 2 205 138q10 70 -39 110.5t-146 40.5q-89 0 -149 -20l-24 115l360 249h-428zM1444 1434h131 l-968 -1434h-129zM1741 331l-18 -123h-146l-29 -208h-153l28 208h-416l17 123l468 529h177l-75 -529h147zM1176 331h265l53 375z" glyph-name="threequarters" horiz-adv-x="1890" unicode="¾"/><glyph d="M938 1049l-24 -170h-293l23 170h294zM531 -385q-248 -3 -382 107t-107 317q22 167 129 271t272 130q47 9 154 18l38 249h220l-42 -413q-60 13 -175 13q-144 0 -240.5 -73.5t-110.5 -191.5q-15 -112 61.5 -174.5t212.5 -62.5q103 -1 215.5 27.5t192.5 73.5l-31 -215 q-179 -73 -407 -76z" glyph-name="questiondown" horiz-adv-x="1173" unicode="¿"/><glyph d="M1002 1563h-191l-222 307h233zM1140 0l-69 304h-682l-155 -304h-280l752 1434h365l349 -1434h-280zM485 495h543l-167 741z" glyph-name="Agrave" horiz-adv-x="1528" unicode="À"/><glyph d="M1312 1870l-310 -307h-191l267 307h234zM1140 0l-69 304h-682l-155 -304h-280l752 1434h365l349 -1434h-280zM485 495h543l-167 741z" glyph-name="Aacute" horiz-adv-x="1528" unicode="Á"/><glyph d="M939 1797l-196 -235h-191l266 307h263l179 -307h-191zM1140 0l-69 304h-682l-155 -304h-280l752 1434h365l349 -1434h-280zM485 495h543l-167 741z" glyph-name="Acircumflex" horiz-adv-x="1528" unicode="Â"/><glyph d="M793 1657q-36 -1 -61 -27t-33 -68l-126 1q14 108 75.5 167.5t143.5 59.5q39 0 77.5 -15.5t65.5 -34.5t60.5 -34t62.5 -15q32 0 56 26.5t31 67.5h126q-14 -108 -76 -167t-143 -59q-52 0 -136 49t-123 49zM1140 0l-69 304h-682l-155 -304h-280l752 1434h365l349 -1434h-280 zM485 495h543l-167 741z" glyph-name="Atilde" horiz-adv-x="1528" unicode="Ã"/><glyph d="M850 1751l-27 -189h-238l26 189h239zM1253 1751l-26 -189h-238l27 189h237zM1140 0l-69 304h-682l-155 -304h-280l752 1434h365l349 -1434h-280zM485 495h543l-167 741z" glyph-name="Adieresis" horiz-adv-x="1528" unicode="Ä"/><glyph d="M1140 0l-69 304h-682l-155 -304h-280l752 1434h27q-55 63 -43 155q13 91 87 156t165 65t147.5 -65t43.5 -156q-12 -90 -86 -155h24l349 -1434h-280zM811 1589q-5 -41 20.5 -70.5t66.5 -29.5t75.5 29.5t39.5 70.5q5 42 -20.5 72t-66.5 30q-42 0 -76 -30.5t-39 -71.5z M485 495h543l-167 741z" glyph-name="Aring" horiz-adv-x="1528" unicode="Å"/><glyph d="M1768 1243h-635l-61 -431h568l-26 -190h-568l-62 -432h636l-26 -190h-902l43 304h-346l-155 -304h-280l752 1434h1089zM486 495h275l-16 -114l121 861z" glyph-name="AE" horiz-adv-x="1846" unicode="Æ"/><glyph d="M953 1250q-96 -5 -184.5 -39.5t-164.5 -98t-129.5 -165.5t-71.5 -230q-17 -127 7.5 -229t83 -166t137.5 -99t173 -40q187 -10 381 80l-29 -205q-164 -68 -348 -72l-62 -61q9 1 36 1q73 0 112 -31.5t31 -89.5q-9 -67 -73.5 -103t-174.5 -36q-60 0 -114 10l11 80 q37 -7 88 -7q116 0 124 61q4 32 -19.5 44t-77.5 12q-27 0 -43 -1l8 57l66 65q-108 7 -202.5 40t-173.5 94.5t-131.5 145.5t-73 200t-2.5 250q20 141 78 262t141 206t186 145.5t214.5 89.5t225.5 29q201 0 359 -74l-29 -205q-168 90 -359 80z" glyph-name="Ccedilla" horiz-adv-x="1399" unicode="Ç"/><glyph d="M532 1870h234l180 -307h-191zM390 190h802l-27 -190h-1067l201 1434h1067l-27 -191h-800l-62 -431h715l-27 -190h-714z" glyph-name="Egrave" horiz-adv-x="1418" unicode="È"/><glyph d="M1255 1870l-309 -307h-191l267 307h233zM390 190h802l-27 -190h-1067l201 1434h1067l-27 -191h-800l-62 -431h715l-27 -190h-714z" glyph-name="Eacute" horiz-adv-x="1418" unicode="É"/><glyph d="M1204 1562h-190l-130 235l-196 -235h-191l266 307h263zM390 190h802l-27 -190h-1067l201 1434h1067l-27 -191h-800l-62 -431h715l-27 -190h-714z" glyph-name="Ecircumflex" horiz-adv-x="1418" unicode="Ê"/><glyph d="M556 1751h239l-27 -189h-239zM961 1751h237l-27 -189h-237zM390 190h802l-27 -190h-1067l201 1434h1067l-27 -191h-800l-62 -431h715l-27 -190h-714z" glyph-name="Edieresis" horiz-adv-x="1418" unicode="Ë"/><glyph d="M132 1870h234l180 -307h-192zM364 0h-266l201 1434h266z" glyph-name="Igrave" horiz-adv-x="616" unicode="Ì"/><glyph d="M855 1870l-309 -307h-192l268 307h233zM364 0h-266l201 1434h266z" glyph-name="Iacute" horiz-adv-x="616" unicode="Í"/><glyph d="M803 1562h-191l-130 235l-195 -235h-192l266 307h264zM364 0h-266l201 1434h266z" glyph-name="Icircumflex" horiz-adv-x="616" unicode="Î"/><glyph d="M155 1751h238l-26 -189h-239zM559 1751h238l-27 -189h-238zM364 0h-266l201 1434h266z" glyph-name="Idieresis" horiz-adv-x="616" unicode="Ï"/><glyph d="M885 1434q151 0 272 -44.5t206.5 -131t121 -225.5t10.5 -316q-19 -144 -72.5 -263.5t-129 -202.5t-174 -140.5t-207.5 -84t-229 -26.5h-580l93 656h-145l18 121h143l92 657h581zM1230 717q34 245 -77 385.5t-319 140.5h-290l-66 -466h316l-17 -121h-316l-66 -466h290 q212 0 361 141t184 386z" glyph-name="Eth" horiz-adv-x="1585" unicode="Ð"/><glyph d="M620 1563q14 108 75 167.5t143 59.5q39 0 77.5 -15.5t65.5 -34.5t60.5 -34t62.5 -15q32 0 56 26.5t31 67.5h126q-14 -108 -76 -167t-143 -59q-52 0 -136 49t-123 49q-36 -1 -61 -27t-33 -68zM1304 1434h266l-202 -1434h-273l-584 1047l-147 -1047h-266l201 1434h273 l586 -1038z" glyph-name="Ntilde" horiz-adv-x="1620" unicode="Ñ"/><glyph d="M679 1870h233l181 -307h-192zM1619 717q-20 -143 -78.5 -264.5t-141.5 -206.5t-186.5 -145t-214 -88t-224.5 -28t-216 28t-188 88t-145 145t-83.5 206t-4.5 265q20 141 78 262t140.5 206t186 145.5t214.5 89.5t225 29q94 0 181.5 -20.5t165 -61.5t138.5 -102.5 t101.5 -142.5t54 -182t-2.5 -223zM802 175q129 0 243.5 61t199 186.5t108.5 294.5q18 128 -6.5 232.5t-82 171t-137 102t-174.5 35.5q-93 0 -183 -35.5t-165.5 -102t-129.5 -171t-72 -232.5t6 -232.5t80.5 -171t137 -102.5t175.5 -36z" glyph-name="Ograve" horiz-adv-x="1709" unicode="Ò"/><glyph d="M1402 1870l-309 -307h-192l267 307h234zM1619 717q-20 -143 -78.5 -264.5t-141.5 -206.5t-186.5 -145t-214 -88t-224.5 -28t-216 28t-188 88t-145 145t-83.5 206t-4.5 265q20 141 78 262t140.5 206t186 145.5t214.5 89.5t225 29q94 0 181.5 -20.5t165 -61.5t138.5 -102.5 t101.5 -142.5t54 -182t-2.5 -223zM802 175q129 0 243.5 61t199 186.5t108.5 294.5q18 128 -6.5 232.5t-82 171t-137 102t-174.5 35.5q-93 0 -183 -35.5t-165.5 -102t-129.5 -171t-72 -232.5t6 -232.5t80.5 -171t137 -102.5t175.5 -36z" glyph-name="Oacute" horiz-adv-x="1709" unicode="Ó"/><glyph d="M1350 1562h-191l-130 235l-195 -235h-192l266 307h263zM1619 717q-20 -143 -78.5 -264.5t-141.5 -206.5t-186.5 -145t-214 -88t-224.5 -28t-216 28t-188 88t-145 145t-83.5 206t-4.5 265q20 141 78 262t140.5 206t186 145.5t214.5 89.5t225 29q94 0 181.5 -20.5 t165 -61.5t138.5 -102.5t101.5 -142.5t54 -182t-2.5 -223zM802 175q129 0 243.5 61t199 186.5t108.5 294.5q18 128 -6.5 232.5t-82 171t-137 102t-174.5 35.5q-93 0 -183 -35.5t-165.5 -102t-129.5 -171t-72 -232.5t6 -232.5t80.5 -171t137 -102.5t175.5 -36z" glyph-name="Ocircumflex" horiz-adv-x="1709" unicode="Ô"/><glyph d="M665 1563q14 108 75 167.5t143 59.5q39 0 77.5 -15.5t65.5 -34.5t60.5 -34t62.5 -15q32 0 56 26.5t31 67.5h126q-14 -108 -76 -167t-143 -59q-52 0 -136 49t-123 49q-36 -1 -61 -27t-32 -68zM1619 717q-20 -143 -78.5 -264.5t-141.5 -206.5t-186.5 -145t-214 -88 t-224.5 -28t-216 28t-188 88t-145 145t-83.5 206t-4.5 265q20 141 78 262t140.5 206t186 145.5t214.5 89.5t225 29q94 0 181.5 -20.5t165 -61.5t138.5 -102.5t101.5 -142.5t54 -182t-2.5 -223zM802 175q129 0 243.5 61t199 186.5t108.5 294.5q18 128 -6.5 232.5t-82 171 t-137 102t-174.5 35.5q-93 0 -183 -35.5t-165.5 -102t-129.5 -171t-72 -232.5t6 -232.5t80.5 -171t137 -102.5t175.5 -36z" glyph-name="Otilde" horiz-adv-x="1709" unicode="Õ"/><glyph d="M701 1751h239l-27 -189h-238zM1106 1751h237l-26 -189h-238zM1619 717q-20 -143 -78.5 -264.5t-141.5 -206.5t-186.5 -145t-214 -88t-224.5 -28t-216 28t-188 88t-145 145t-83.5 206t-4.5 265q20 141 78 262t140.5 206t186 145.5t214.5 89.5t225 29q94 0 181.5 -20.5 t165 -61.5t138.5 -102.5t101.5 -142.5t54 -182t-2.5 -223zM802 175q129 0 243.5 61t199 186.5t108.5 294.5q18 128 -6.5 232.5t-82 171t-137 102t-174.5 35.5q-93 0 -183 -35.5t-165.5 -102t-129.5 -171t-72 -232.5t6 -232.5t80.5 -171t137 -102.5t175.5 -36z" glyph-name="Odieresis" horiz-adv-x="1709" unicode="Ö"/><glyph d="M933 453l-138 -122l-228 264l-301 -264l-104 122l301 264l-227 264l138 122l227 -265l302 265l104 -122l-301 -264z" glyph-name="multiply" horiz-adv-x="1122" unicode="×"/><glyph d="M1642 1336l-135 -118q154 -196 112 -501q-20 -143 -78.5 -264.5t-141.5 -206.5t-186.5 -145t-214 -88t-224.5 -28q-139 0 -262.5 44t-213.5 130l-147 -130l-59 68l147 129q-142 194 -102 491q20 141 78 262t140.5 206t186 145.5t214.5 89.5t225 29q283 0 465 -165 l137 121zM403 717q-27 -183 34 -318l825 724q-114 135 -309 135q-93 0 -183 -35.5t-165.5 -102t-130 -171t-71.5 -232.5zM1353 717q28 193 -41 330l-828 -726q54 -71 137.5 -108.5t180.5 -37.5q129 0 243.5 61t199 186.5t108.5 294.5z" glyph-name="Oslash" horiz-adv-x="1709" unicode="Ø"/><glyph d="M591 1870h233l181 -307h-192zM1483 1434l-121 -856q-43 -316 -209 -454.5t-466 -138.5t-426 138t-83 455l121 856h266l-127 -902q-25 -180 41 -268.5t235 -88.5q170 0 260.5 88.5t115.5 268.5l127 902h266z" glyph-name="Ugrave" horiz-adv-x="1533" unicode="Ù"/><glyph d="M1314 1870l-309 -307h-192l267 307h234zM1483 1434l-121 -856q-43 -316 -209 -454.5t-466 -138.5t-426 138t-83 455l121 856h266l-127 -902q-25 -180 41 -268.5t235 -88.5q170 0 260.5 88.5t115.5 268.5l127 902h266z" glyph-name="Uacute" horiz-adv-x="1533" unicode="Ú"/><glyph d="M1263 1562h-191l-130 235l-196 -235h-191l266 307h263zM1483 1434l-121 -856q-43 -316 -209 -454.5t-466 -138.5t-426 138t-83 455l121 856h266l-127 -902q-25 -180 41 -268.5t235 -88.5q170 0 260.5 88.5t115.5 268.5l127 902h266z" glyph-name="Ucircumflex" horiz-adv-x="1533" unicode="Û"/><glyph d="M614 1751h239l-27 -189h-238zM1019 1751h237l-26 -189h-238zM1483 1434l-121 -856q-43 -316 -209 -454.5t-466 -138.5t-426 138t-83 455l121 856h266l-127 -902q-25 -180 41 -268.5t235 -88.5q170 0 260.5 88.5t115.5 268.5l127 902h266z" glyph-name="Udieresis" horiz-adv-x="1533" unicode="Ü"/><glyph d="M1230 1870l-309 -307h-192l267 307h234zM1171 1434h283l-640 -895l-76 -539h-265l76 539l-388 895h282l274 -643z" glyph-name="Yacute" horiz-adv-x="1366" unicode="Ý"/><glyph d="M893 1187q243 0 370.5 -119t97.5 -333q-36 -258 -261.5 -369t-701.5 -119l-34 -247h-266l201 1434h266l-35 -247h363zM1096 735q17 128 -50 200t-194 72h-347l-40 -290l-41 -290q343 4 495.5 74.5t176.5 233.5z" glyph-name="Thorn" horiz-adv-x="1454" unicode="Þ"/><glyph d="M1222 408q-14 -104 -70 -185t-141 -128t-186 -70.5t-215 -23.5h-148l23 171h119q131 0 229 64.5t114 181.5q17 117 -63 185t-210 68h-119l25 171h117q110 0 194.5 58.5t97.5 159.5q14 98 -53 157t-177 59q-113 0 -193 -58.5t-95 -165.5l-147 -1051h-246l146 1043 q17 127 101 220t202 138t256 45q80 0 152 -14.5t131.5 -45t101.5 -74.5t60.5 -106.5t8.5 -137.5q-14 -106 -78.5 -183.5t-160.5 -121.5q116 -47 179 -136.5t45 -219.5z" glyph-name="germandbls" horiz-adv-x="1355" unicode="ß"/><glyph d="M445 1538h234l180 -307h-191zM744 1116q261 0 371.5 -105.5t80.5 -320.5l-97 -690h-236l9 143q-199 -165 -484 -158q-164 4 -242.5 81t-66.5 198q22 226 238.5 333.5t628.5 69.5l5 39q13 121 -47.5 176.5t-211.5 61.5q-180 9 -379 -79l25 169q181 82 406 82zM894 298 l31 215q-292 31 -444.5 -19.5t-170.5 -187.5q-10 -87 47.5 -120t182.5 -31q110 1 203.5 44t150.5 99z" glyph-name="agrave" horiz-adv-x="1330" unicode="à"/><glyph d="M1168 1538l-309 -307h-191l267 307h233zM744 1116q261 0 371.5 -105.5t80.5 -320.5l-97 -690h-236l9 143q-199 -165 -484 -158q-164 4 -242.5 81t-66.5 198q22 226 238.5 333.5t628.5 69.5l5 39q13 121 -47.5 176.5t-211.5 61.5q-180 9 -379 -79l25 169q181 82 406 82z M894 298l31 215q-292 31 -444.5 -19.5t-170.5 -187.5q-10 -87 47.5 -120t182.5 -31q110 1 203.5 44t150.5 99z" glyph-name="aacute" horiz-adv-x="1330" unicode="á"/><glyph d="M1117 1230h-190l-130 235l-196 -235h-191l266 307h263zM744 1116q261 0 371.5 -105.5t80.5 -320.5l-97 -690h-236l9 143q-199 -165 -484 -158q-164 4 -242.5 81t-66.5 198q22 226 238.5 333.5t628.5 69.5l5 39q13 121 -47.5 176.5t-211.5 61.5q-180 9 -379 -79l25 169 q181 82 406 82zM894 298l31 215q-292 31 -444.5 -19.5t-170.5 -187.5q-10 -87 47.5 -120t182.5 -31q110 1 203.5 44t150.5 99z" glyph-name="acircumflex" horiz-adv-x="1330" unicode="â"/><glyph d="M431 1231q14 108 75 167.5t143 59.5q39 0 78 -15.5t65.5 -34t60.5 -34t62 -15.5q32 0 56 26.5t31 67.5h126q-14 -108 -76 -167t-143 -59q-52 0 -136 49t-123 49q-36 -1 -61 -27t-32 -68zM744 1116q261 0 371.5 -105.5t80.5 -320.5l-97 -690h-236l9 143 q-199 -165 -484 -158q-164 4 -242.5 81t-66.5 198q22 226 238.5 333.5t628.5 69.5l5 39q13 121 -47.5 176.5t-211.5 61.5q-180 9 -379 -79l25 169q181 82 406 82zM894 298l31 215q-292 31 -444.5 -19.5t-170.5 -187.5q-10 -87 47.5 -120t182.5 -31q110 1 203.5 44t150.5 99z " glyph-name="atilde" horiz-adv-x="1330" unicode="ã"/><glyph d="M469 1419h239l-27 -189h-239zM873 1419h238l-27 -189h-237zM744 1116q261 0 371.5 -105.5t80.5 -320.5l-97 -690h-236l9 143q-199 -165 -484 -158q-164 4 -242.5 81t-66.5 198q22 226 238.5 333.5t628.5 69.5l5 39q13 121 -47.5 176.5t-211.5 61.5q-180 9 -379 -79 l25 169q181 82 406 82zM894 298l31 215q-292 31 -444.5 -19.5t-170.5 -187.5q-10 -87 47.5 -120t182.5 -31q110 1 203.5 44t150.5 99z" glyph-name="adieresis" horiz-adv-x="1330" unicode="ä"/><glyph d="M763 1230q-91 0 -147 65.5t-43 155.5q13 91 87 156t165 65t147.5 -65t43 -156t-87.5 -156t-165 -65zM780 1351q41 0 75.5 29.5t39.5 70.5q6 42 -19.5 71.5t-66.5 29.5t-75.5 -29.5t-40.5 -71.5q-5 -41 20.5 -70.5t66.5 -29.5zM744 1116q261 0 371.5 -105.5t80.5 -320.5 l-97 -690h-236l9 143q-199 -165 -484 -158q-164 4 -242.5 81t-66.5 198q22 226 238.5 333.5t628.5 69.5l5 39q13 121 -47.5 176.5t-211.5 61.5q-180 9 -379 -79l25 169q181 82 406 82zM894 298l31 215q-292 31 -444.5 -19.5t-170.5 -187.5q-10 -87 47.5 -120t182.5 -31 q110 1 203.5 44t150.5 99z" glyph-name="aring" horiz-adv-x="1330" unicode="å"/><glyph d="M2138 482h-863q0 -88 33.5 -154.5t93.5 -104.5t131 -56.5t154 -19.5q168 -1 317 68l-24 -168q-156 -62 -382 -62q-146 0 -272 50t-202 147l-25 -182h-236l9 143q-199 -165 -484 -158q-164 4 -242.5 81t-66.5 198q22 226 238.5 333.5t628.5 69.5l5 39q13 121 -47.5 176.5 t-211.5 61.5q-180 9 -379 -79l25 169q181 82 406 82q378 0 444 -227q93 112 226.5 169.5t275.5 57.5q179 0 301 -79t161 -219.5t-14 -335.5zM1682 955q-130 -2 -233.5 -84.5t-148.5 -225.5h656q16 77 -0.5 138.5t-57.5 98.5t-97 55.5t-119 17.5zM894 298l31 215 q-292 31 -444.5 -19.5t-170.5 -187.5q-10 -87 47.5 -120t182.5 -31q110 1 203.5 44t150.5 99z" glyph-name="ae" horiz-adv-x="2279" unicode="æ"/><glyph d="M792 937q-104 -5 -193 -47.5t-153.5 -130t-80.5 -208.5q-25 -180 66.5 -279.5t251.5 -106.5q175 -7 328 64l-26 -182q-140 -56 -323 -62l-62 -60q9 1 36 1q73 0 111.5 -31.5t30.5 -89.5q-9 -67 -73 -103t-175 -36q-60 0 -113 10l11 80q37 -7 87 -7q116 0 125 61 q4 32 -19.5 44t-77.5 12q-27 0 -43 -1l8 57l65 65q-103 9 -190.5 47.5t-154.5 105.5t-97.5 173.5t-11.5 237.5q15 113 62.5 207.5t114 159.5t149.5 110.5t170 66.5t176 21q201 0 336 -62l-26 -183q-129 73 -309 66z" glyph-name="ccedilla" horiz-adv-x="1175" unicode="ç"/><glyph d="M877 1231h-192l-222 307h233zM1213 482h-863q0 -88 34 -154.5t93.5 -104.5t130.5 -56.5t154 -19.5q168 -1 317 68l-23 -168q-157 -62 -382 -62q-95 0 -182.5 20.5t-163 65.5t-128 109.5t-75.5 160t-6 210.5q15 113 60.5 207.5t108.5 159.5t142.5 110.5t164 66.5t170.5 21 q179 0 301 -79t161 -219.5t-14 -335.5zM758 955q-130 -2 -234 -84.5t-148 -225.5h655q16 77 0 138.5t-57.5 98.5t-97 55.5t-118.5 17.5z" glyph-name="egrave" horiz-adv-x="1351" unicode="è"/><glyph d="M1186 1538l-309 -307h-192l267 307h234zM1213 482h-863q0 -88 34 -154.5t93.5 -104.5t130.5 -56.5t154 -19.5q168 -1 317 68l-23 -168q-157 -62 -382 -62q-95 0 -182.5 20.5t-163 65.5t-128 109.5t-75.5 160t-6 210.5q15 113 60.5 207.5t108.5 159.5t142.5 110.5 t164 66.5t170.5 21q179 0 301 -79t161 -219.5t-14 -335.5zM758 955q-130 -2 -234 -84.5t-148 -225.5h655q16 77 0 138.5t-57.5 98.5t-97 55.5t-118.5 17.5z" glyph-name="eacute" horiz-adv-x="1351" unicode="é"/><glyph d="M814 1465l-196 -235h-191l266 307h263l179 -307h-191zM1213 482h-863q0 -88 34 -154.5t93.5 -104.5t130.5 -56.5t154 -19.5q168 -1 317 68l-23 -168q-157 -62 -382 -62q-95 0 -182.5 20.5t-163 65.5t-128 109.5t-75.5 160t-6 210.5q15 113 60.5 207.5t108.5 159.5 t142.5 110.5t164 66.5t170.5 21q179 0 301 -79t161 -219.5t-14 -335.5zM758 955q-130 -2 -234 -84.5t-148 -225.5h655q16 77 0 138.5t-57.5 98.5t-97 55.5t-118.5 17.5z" glyph-name="ecircumflex" horiz-adv-x="1351" unicode="ê"/><glyph d="M725 1419l-27 -189h-238l26 189h239zM1128 1419l-26 -189h-238l27 189h237zM1213 482h-863q0 -88 34 -154.5t93.5 -104.5t130.5 -56.5t154 -19.5q168 -1 317 68l-23 -168q-157 -62 -382 -62q-95 0 -182.5 20.5t-163 65.5t-128 109.5t-75.5 160t-6 210.5 q15 113 60.5 207.5t108.5 159.5t142.5 110.5t164 66.5t170.5 21q179 0 301 -79t161 -219.5t-14 -335.5zM758 955q-130 -2 -234 -84.5t-148 -225.5h655q16 77 0 138.5t-57.5 98.5t-97 55.5t-118.5 17.5z" glyph-name="edieresis" horiz-adv-x="1351" unicode="ë"/><glyph d="M55 1537h234l180 -307h-191zM232 1102h246l-154 -1102h-246z" glyph-name="igrave" horiz-adv-x="556" unicode="ì"/><glyph d="M778 1537l-309 -307h-191l267 307h233zM232 1102h246l-154 -1102h-246z" glyph-name="iacute" horiz-adv-x="556" unicode="í"/><glyph d="M727 1230h-190l-130 235l-196 -235h-192l267 307h263zM232 1102h246l-154 -1102h-246z" glyph-name="icircumflex" horiz-adv-x="556" unicode="î"/><glyph d="M79 1419h238l-26 -189h-239zM483 1419h238l-27 -189h-237zM232 1102h246l-154 -1102h-246z" glyph-name="idieresis" horiz-adv-x="556" unicode="ï"/><glyph d="M1292 1197l-293 -47q193 -305 234 -381q61 -117 64 -204q1 -38 -6 -90q-17 -123 -82 -219t-159 -153.5t-201 -86.5t-218 -29q-88 0 -169 18t-152 56.5t-121 94.5t-72.5 138.5t-7.5 180.5q11 81 43 151.5t79 123.5t105 93t122.5 63.5t132.5 31.5q138 17 269 -33l-127 203 l-299 -48l17 121l215 34l-137 219h293q17 -27 54 -87t56 -89l378 61zM1046 475q20 140 -67.5 231.5t-233.5 91.5t-258 -87.5t-133 -235.5q-20 -144 67 -233t233 -89q147 0 259.5 89t132.5 233z" glyph-name="eth" horiz-adv-x="1421" unicode="ð"/><glyph d="M466 1231q14 108 75 167.5t143 59.5q39 0 78 -15.5t65.5 -34t60.5 -34t62 -15.5q32 0 56 26.5t31 67.5h126q-14 -108 -76 -167t-143 -59q-52 0 -136 49t-123 49q-36 -1 -61 -27t-32 -68zM323 0h-245l155 1102h246l-25 -183q101 114 220.5 155.5t271.5 41.5 q181 0 266.5 -108t54.5 -335l-95 -673h-245l86 613q46 328 -204 328q-121 0 -238 -83t-159 -232z" glyph-name="ntilde" horiz-adv-x="1404" unicode="ñ"/><glyph d="M488 1537h234l180 -307h-191zM1303 551q-15 -116 -63.5 -212t-115 -160.5t-150 -109t-169.5 -64.5t-174 -20q-87 0 -167.5 20t-151 64.5t-119 109t-69.5 160.5t-4 212q15 113 62.5 207.5t113.5 159.5t149 110.5t170 66.5t175.5 21t169 -21t151 -66.5t118.5 -110.5 t68.5 -159.5t5.5 -207.5zM654 151q148 0 262.5 107t140.5 293q26 183 -58 291.5t-232.5 108.5t-262 -108.5t-138.5 -291.5q-26 -186 57.5 -293t230.5 -107z" glyph-name="ograve" horiz-adv-x="1421" unicode="ò"/><glyph d="M1211 1537l-309 -307h-191l267 307h233zM1303 551q-15 -116 -63.5 -212t-115 -160.5t-150 -109t-169.5 -64.5t-174 -20q-87 0 -167.5 20t-151 64.5t-119 109t-69.5 160.5t-4 212q15 113 62.5 207.5t113.5 159.5t149 110.5t170 66.5t175.5 21t169 -21t151 -66.5 t118.5 -110.5t68.5 -159.5t5.5 -207.5zM654 151q148 0 262.5 107t140.5 293q26 183 -58 291.5t-232.5 108.5t-262 -108.5t-138.5 -291.5q-26 -186 57.5 -293t230.5 -107z" glyph-name="oacute" horiz-adv-x="1421" unicode="ó"/><glyph d="M1159 1230h-190l-130 235l-196 -235h-191l266 307h263zM1303 551q-15 -116 -63.5 -212t-115 -160.5t-150 -109t-169.5 -64.5t-174 -20q-87 0 -167.5 20t-151 64.5t-119 109t-69.5 160.5t-4 212q15 113 62.5 207.5t113.5 159.5t149 110.5t170 66.5t175.5 21t169 -21 t151 -66.5t118.5 -110.5t68.5 -159.5t5.5 -207.5zM654 151q148 0 262.5 107t140.5 293q26 183 -58 291.5t-232.5 108.5t-262 -108.5t-138.5 -291.5q-26 -186 57.5 -293t230.5 -107z" glyph-name="ocircumflex" horiz-adv-x="1421" unicode="ô"/><glyph d="M474 1231q14 108 75 167.5t143 59.5q39 0 78 -15.5t65.5 -34t60.5 -34t62 -15.5q32 0 56 26.5t32 67.5h125q-14 -108 -76 -167t-143 -59q-52 0 -136 49t-123 49q-36 -1 -61 -27t-32 -68zM1303 551q-15 -116 -63.5 -212t-115 -160.5t-150 -109t-169.5 -64.5t-174 -20 q-87 0 -167.5 20t-151 64.5t-119 109t-69.5 160.5t-4 212q15 113 62.5 207.5t113.5 159.5t149 110.5t170 66.5t175.5 21t169 -21t151 -66.5t118.5 -110.5t68.5 -159.5t5.5 -207.5zM654 151q148 0 262.5 107t140.5 293q26 183 -58 291.5t-232.5 108.5t-262 -108.5 t-138.5 -291.5q-26 -186 57.5 -293t230.5 -107z" glyph-name="otilde" horiz-adv-x="1421" unicode="õ"/><glyph d="M512 1419h239l-27 -189h-239zM916 1419h238l-27 -189h-237zM1303 551q-15 -116 -63.5 -212t-115 -160.5t-150 -109t-169.5 -64.5t-174 -20q-87 0 -167.5 20t-151 64.5t-119 109t-69.5 160.5t-4 212q15 113 62.5 207.5t113.5 159.5t149 110.5t170 66.5t175.5 21t169 -21 t151 -66.5t118.5 -110.5t68.5 -159.5t5.5 -207.5zM654 151q148 0 262.5 107t140.5 293q26 183 -58 291.5t-232.5 108.5t-262 -108.5t-138.5 -291.5q-26 -186 57.5 -293t230.5 -107z" glyph-name="odieresis" horiz-adv-x="1421" unicode="ö"/><glyph d="M597 1184h254l-29 -201h-253zM1106 632h-920l25 170h919zM494 451h254l-29 -201h-254z" glyph-name="divide" horiz-adv-x="1269" unicode="÷"/><glyph d="M1363 1073l-152 -133q124 -152 92 -389q-15 -116 -63.5 -212t-115 -160.5t-150 -109t-169.5 -64.5t-174 -20q-227 0 -370 121l-152 -134l-50 56l150 131q-124 151 -89 392q15 113 62.5 207.5t113.5 159.5t149 110.5t170 66.5t176 21q223 0 368 -123l155 136zM366 551 q-19 -135 23 -234l605 532q-82 102 -227 102q-148 0 -261.5 -108.5t-139.5 -291.5zM1057 551q18 135 -24 232l-606 -531q81 -101 227 -101q148 0 262.5 107t140.5 293z" glyph-name="oslash" horiz-adv-x="1421" unicode="ø"/><glyph d="M465 1537h233l181 -307h-192zM1082 1102h245l-155 -1102h-245l24 183q-101 -113 -221 -155t-271 -42q-181 0 -267 108t-54 335l94 673h246l-86 -614q-46 -328 204 -327q121 0 238 83t159 232z" glyph-name="ugrave" horiz-adv-x="1404" unicode="ù"/><glyph d="M1188 1537l-309 -307h-192l267 307h234zM1082 1102h245l-155 -1102h-245l24 183q-101 -113 -221 -155t-271 -42q-181 0 -267 108t-54 335l94 673h246l-86 -614q-46 -328 204 -327q121 0 238 83t159 232z" glyph-name="uacute" horiz-adv-x="1404" unicode="ú"/><glyph d="M1137 1230h-191l-130 235l-195 -235h-192l266 307h263zM1082 1102h245l-155 -1102h-245l24 183q-101 -113 -221 -155t-271 -42q-181 0 -267 108t-54 335l94 673h246l-86 -614q-46 -328 204 -327q121 0 238 83t159 232z" glyph-name="ucircumflex" horiz-adv-x="1404" unicode="û"/><glyph d="M488 1419h239l-27 -189h-238zM893 1419h237l-26 -189h-238zM1082 1102h245l-155 -1102h-245l24 183q-101 -113 -221 -155t-271 -42q-181 0 -267 108t-54 335l94 673h246l-86 -614q-46 -328 204 -327q121 0 238 83t159 232z" glyph-name="udieresis" horiz-adv-x="1404" unicode="ü"/><glyph d="M1159 1537l-309 -307h-192l268 307h233zM1053 1102h259l-589 -1056q-37 -66 -74.5 -119t-100 -115t-132 -103.5t-169.5 -68t-212 -23.5l13 161q278 0 390 271l-277 1053h261l192 -827z" glyph-name="yacute" horiz-adv-x="1317" unicode="ý"/><glyph d="M881 1116q111 0 201 -34t155.5 -102t92.5 -178t7 -251t-78.5 -252t-142.5 -178.5t-184.5 -101.5t-210.5 -34q-120 0 -216.5 53.5t-133.5 154.5l-88 -627h-246l277 1970h246l-89 -627q65 100 177.5 153.5t232.5 53.5zM699 145q147 0 256.5 109.5t136 296.5t-52 295.5 t-226.5 108.5q-124 0 -229 -75.5t-148 -220.5l-29 -217q2 -144 85 -220.5t207 -76.5z" glyph-name="thorn" horiz-adv-x="1457" unicode="þ"/><glyph d="M459 1419h238l-26 -189h-239zM863 1419h238l-27 -189h-237zM1053 1102h259l-589 -1056q-37 -66 -74.5 -119t-100 -115t-132 -103.5t-169.5 -68t-212 -23.5l13 161q278 0 390 271l-277 1053h261l192 -827z" glyph-name="ydieresis" horiz-adv-x="1317" unicode="ÿ"/><glyph d="M1195 1708l-20 -146h-537l20 146h537zM1140 0l-69 304h-682l-155 -304h-280l752 1434h365l349 -1434h-280zM485 495h543l-167 741z" glyph-name="Amacron" horiz-adv-x="1528" unicode="Ā"/><glyph d="M515 1376h537l-21 -146h-536zM744 1116q261 0 371.5 -105.5t80.5 -320.5l-97 -690h-236l9 143q-199 -165 -484 -158q-164 4 -242.5 81t-66.5 198q22 226 238.5 333.5t628.5 69.5l5 39q13 121 -47.5 176.5t-211.5 61.5q-180 9 -379 -79l25 169q181 82 406 82zM894 298 l31 215q-292 31 -444.5 -19.5t-170.5 -187.5q-10 -87 47.5 -120t182.5 -31q110 1 203.5 44t150.5 99z" glyph-name="amacron" horiz-adv-x="1330" unicode="ā"/><glyph d="M906 1562q-119 0 -191 71.5t-71 188.5h152q-4 -58 31 -97t97 -39q60 0 106.5 38.5t59.5 97.5h151q-33 -117 -125 -188.5t-210 -71.5zM1140 0l-69 304h-682l-155 -304h-280l752 1434h365l349 -1434h-280zM485 495h543l-167 741z" glyph-name="Abreve" horiz-adv-x="1528" unicode="Ă"/><glyph d="M1099 1490q-33 -117 -125 -188.5t-210 -71.5q-119 0 -191 71.5t-71 188.5h151q-4 -58 31.5 -97t96.5 -39q60 0 107 39t59 97h152zM744 1116q261 0 371.5 -105.5t80.5 -320.5l-97 -690h-236l9 143q-199 -165 -484 -158q-164 4 -242.5 81t-66.5 198q22 226 238.5 333.5 t628.5 69.5l5 39q13 121 -47.5 176.5t-211.5 61.5q-180 9 -379 -79l25 169q181 82 406 82zM894 298l31 215q-292 31 -444.5 -19.5t-170.5 -187.5q-10 -87 47.5 -120t182.5 -31q110 1 203.5 44t150.5 99z" glyph-name="abreve" horiz-adv-x="1330" unicode="ă"/><glyph d="M1347 0q-177 -63 -182 -153q-4 -46 51.5 -61t128.5 3l-5 -106q-88 -19 -164 -13.5t-125 45.5t-41 103q5 55 50 104.5t143 77.5h-63l-69 304h-682l-155 -304h-280l752 1434h365l349 -1434h-73zM485 495h543l-167 741z" glyph-name="Aogonek" horiz-adv-x="1528" unicode="Ą"/><glyph d="M744 1116q261 0 371.5 -105.5t80.5 -320.5l-97 -690h-59q-163 -61 -167 -147q-4 -46 51.5 -61.5t128.5 2.5l-4 -106q-88 -19 -164.5 -13t-125 45.5t-41.5 102.5q5 53 46.5 100.5t130.5 76.5h-32l9 143q-199 -165 -484 -158q-164 4 -242.5 81t-66.5 198 q22 226 238.5 333.5t628.5 69.5l5 39q13 121 -47.5 176.5t-211.5 61.5q-180 9 -379 -79l25 169q181 82 406 82zM540 155q110 1 203.5 44t150.5 99l31 215q-292 31 -444.5 -19.5t-170.5 -187.5q-10 -87 47.5 -120t182.5 -31z" glyph-name="aogonek" horiz-adv-x="1330" unicode="ą"/><glyph d="M1364 1870l-309 -307h-192l267 307h234zM1312 1170q-167 90 -359 80q-96 -5 -184.5 -39.5t-164.5 -98t-129.5 -165.5t-71.5 -230q-17 -127 7.5 -229t83 -166t137.5 -99t173 -40q187 -10 381 80l-29 -205q-178 -74 -380 -73q-94 0 -182 20.5t-165.5 61.5t-138.5 102 t-101.5 142t-54 183t2.5 223q20 141 78 262t141 206t186 145.5t214.5 89.5t225.5 29q201 0 359 -74z" glyph-name="Cacute" horiz-adv-x="1399" unicode="Ć"/><glyph d="M1211 1538l-309 -307h-191l267 307h233zM1101 871q-129 73 -309 66q-104 -5 -193 -47.5t-153.5 -130t-80.5 -208.5q-25 -180 66.5 -279.5t251.5 -106.5q175 -7 328 64l-26 -182q-155 -62 -354 -62q-88 0 -169 21t-151 66.5t-118.5 110.5t-69.5 160t-4 208 q15 113 62.5 207.5t114 159.5t149.5 110.5t170 66.5t176 21q201 0 336 -62z" glyph-name="cacute" horiz-adv-x="1175" unicode="ć"/><glyph d="M866 1751h239l-27 -189h-238zM1312 1170q-167 90 -359 80q-96 -5 -184.5 -39.5t-164.5 -98t-129.5 -165.5t-71.5 -230q-17 -127 7.5 -229t83 -166t137.5 -99t173 -40q187 -10 381 80l-29 -205q-178 -74 -380 -73q-94 0 -182 20.5t-165.5 61.5t-138.5 102t-101.5 142 t-54 183t2.5 223q20 141 78 262t141 206t186 145.5t214.5 89.5t225.5 29q201 0 359 -74z" glyph-name="Cdotaccent" horiz-adv-x="1399" unicode="Ċ"/><glyph d="M714 1419h238l-26 -189h-239zM1101 871q-129 73 -309 66q-104 -5 -193 -47.5t-153.5 -130t-80.5 -208.5q-25 -180 66.5 -279.5t251.5 -106.5q175 -7 328 64l-26 -182q-155 -62 -354 -62q-88 0 -169 21t-151 66.5t-118.5 110.5t-69.5 160t-4 208q15 113 62.5 207.5 t114 159.5t149.5 110.5t170 66.5t176 21q201 0 336 -62z" glyph-name="cdotaccent" horiz-adv-x="1175" unicode="ċ"/><glyph d="M1165 1869h192l-265 -307h-265l-178 307h191l131 -235zM1312 1170q-167 90 -359 80q-96 -5 -184.5 -39.5t-164.5 -98t-129.5 -165.5t-71.5 -230q-17 -127 7.5 -229t83 -166t137.5 -99t173 -40q187 -10 381 80l-29 -205q-178 -74 -380 -73q-94 0 -182 20.5t-165.5 61.5 t-138.5 102t-101.5 142t-54 183t2.5 223q20 141 78 262t141 206t186 145.5t214.5 89.5t225.5 29q201 0 359 -74z" glyph-name="Ccaron" horiz-adv-x="1399" unicode="Č"/><glyph d="M1013 1537h191l-265 -307h-264l-178 307h190l131 -234zM1101 871q-129 73 -309 66q-104 -5 -193 -47.5t-153.5 -130t-80.5 -208.5q-25 -180 66.5 -279.5t251.5 -106.5q175 -7 328 64l-26 -182q-155 -62 -354 -62q-88 0 -169 21t-151 66.5t-118.5 110.5t-69.5 160t-4 208 q15 113 62.5 207.5t114 159.5t149.5 110.5t170 66.5t176 21q201 0 336 -62z" glyph-name="ccaron" horiz-adv-x="1175" unicode="č"/><glyph d="M1130 1869h192l-265 -307h-264l-179 307h191l131 -235zM1490 717q-25 -180 -99.5 -319.5t-184.5 -225t-243.5 -129t-283.5 -43.5h-581l201 1434h581q151 0 272.5 -44.5t206.5 -131t120.5 -225.5t10.5 -316zM680 190q212 0 361 141t184 386q34 245 -77 385.5t-320 140.5 h-289l-149 -1053h290z" glyph-name="Dcaron" horiz-adv-x="1581" unicode="Ď"/><glyph d="M119 551q19 141 78 251t143 178t184.5 102t210.5 34q268 0 354 -182l86 602h245l-216 -1536h-202l16 181q-154 -197 -443 -196q-110 0 -199.5 33t-155.5 99t-93.5 178t-7.5 256zM1674 1409h252l-187 -529h-215zM636 151q126 0 231.5 79.5t148.5 239.5l25 181 q-3 145 -86.5 225t-204.5 80q-147 0 -257 -108.5t-137 -296.5q-27 -186 53.5 -293t226.5 -107z" glyph-name="dcaron" horiz-adv-x="1960" unicode="ď"/><glyph d="M885 1434q151 0 272 -44.5t206.5 -131t121 -225.5t10.5 -316q-19 -144 -72.5 -263.5t-129 -202.5t-174 -140.5t-207.5 -84t-229 -26.5h-580l93 656h-145l18 121h143l92 657h581zM1230 717q34 245 -77 385.5t-319 140.5h-290l-66 -466h316l-17 -121h-316l-66 -466h290 q212 0 361 141t184 386z" glyph-name="Dcroat" horiz-adv-x="1585" unicode="Đ"/><glyph d="M1511 1380l-17 -120h-113l-177 -1260h-202l16 181q-154 -197 -443 -196q-110 0 -199.5 33t-155.5 99t-94 178t-7 256q19 141 78 251t143 178t184.5 102t210.5 34q268 0 354 -182l46 326h-367l17 120h367l23 156h245l-21 -156h112zM1016 470l25 181q-3 145 -86.5 225 t-204.5 80q-147 0 -257 -108.5t-137 -296.5q-27 -186 53 -293t227 -107q126 0 231.5 79.5t148.5 239.5z" glyph-name="dcroat" horiz-adv-x="1457" unicode="đ"/><glyph d="M602 1708h537l-21 -146h-536zM390 190h802l-27 -190h-1067l201 1434h1067l-27 -191h-800l-62 -431h715l-27 -190h-714z" glyph-name="Emacron" horiz-adv-x="1418" unicode="Ē"/><glyph d="M1069 1376l-20 -146h-537l20 146h537zM1213 482h-863q0 -88 34 -154.5t93.5 -104.5t130.5 -56.5t154 -19.5q168 -1 317 68l-23 -168q-157 -62 -382 -62q-95 0 -182.5 20.5t-163 65.5t-128 109.5t-75.5 160t-6 210.5q15 113 60.5 207.5t108.5 159.5t142.5 110.5t164 66.5 t170.5 21q179 0 301 -79t161 -219.5t-14 -335.5zM758 955q-130 -2 -234 -84.5t-148 -225.5h655q16 77 0 138.5t-57.5 98.5t-97 55.5t-118.5 17.5z" glyph-name="emacron" horiz-adv-x="1351" unicode="ē"/><glyph d="M758 1751h238l-26 -189h-239zM390 190h802l-27 -190h-1067l201 1434h1067l-27 -191h-800l-62 -431h715l-27 -190h-714z" glyph-name="Edotaccent" horiz-adv-x="1418" unicode="Ė"/><glyph d="M927 1419l-27 -189h-238l26 189h239zM1213 482h-863q0 -88 34 -154.5t93.5 -104.5t130.5 -56.5t154 -19.5q168 -1 317 68l-23 -168q-157 -62 -382 -62q-95 0 -182.5 20.5t-163 65.5t-128 109.5t-75.5 160t-6 210.5q15 113 60.5 207.5t108.5 159.5t142.5 110.5t164 66.5 t170.5 21q179 0 301 -79t161 -219.5t-14 -335.5zM758 955q-130 -2 -234 -84.5t-148 -225.5h655q16 77 0 138.5t-57.5 98.5t-97 55.5t-118.5 17.5z" glyph-name="edotaccent" horiz-adv-x="1351" unicode="ė"/><glyph d="M1339 1243h-800l-62 -431h715l-27 -190h-714l-61 -432h802l-27 -190h-462q-177 -63 -181 -153q-4 -46 51.5 -61t127.5 3l-4 -106q-88 -19 -164 -13.5t-125 45.5t-41 103q5 55 50 104.5t143 77.5h-462l201 1434h1067z" glyph-name="Eogonek" horiz-adv-x="1418" unicode="Ę"/><glyph d="M1213 482h-863q0 -88 34 -154.5t93.5 -104.5t130.5 -56.5t154 -19.5q168 -1 317 68l-23 -168q-152 -61 -367 -62q-138 -58 -142 -138q-4 -46 51 -61t128 3l-4 -106q-88 -19 -164.5 -13.5t-125 45.5t-41.5 103q5 52 45 98.5t125 76.5q-102 14 -187.5 54.5t-150 107 t-93.5 168.5t-11 228q15 113 60.5 207.5t108.5 159.5t142.5 110.5t164 66.5t170.5 21q179 0 301 -79t161 -219.5t-14 -335.5zM758 955q-130 -2 -234 -84.5t-148 -225.5h655q16 77 0 138.5t-57.5 98.5t-97 55.5t-118.5 17.5z" glyph-name="eogonek" horiz-adv-x="1351" unicode="ę"/><glyph d="M1057 1869h191l-265 -307h-264l-178 307h190l131 -235zM390 190h802l-27 -190h-1067l201 1434h1067l-27 -191h-800l-62 -431h715l-27 -190h-714z" glyph-name="Ecaron" horiz-adv-x="1418" unicode="Ě"/><glyph d="M913 1230h-264l-178 307h191l131 -234l194 234h192zM1213 482h-863q0 -88 34 -154.5t93.5 -104.5t130.5 -56.5t154 -19.5q168 -1 317 68l-23 -168q-157 -62 -382 -62q-95 0 -182.5 20.5t-163 65.5t-128 109.5t-75.5 160t-6 210.5q15 113 60.5 207.5t108.5 159.5 t142.5 110.5t164 66.5t170.5 21q179 0 301 -79t161 -219.5t-14 -335.5zM758 955q-130 -2 -234 -84.5t-148 -225.5h655q16 77 0 138.5t-57.5 98.5t-97 55.5t-118.5 17.5z" glyph-name="ecaron" horiz-adv-x="1351" unicode="ě"/><glyph d="M1321 1822q-33 -117 -125 -188.5t-210 -71.5q-119 0 -191 71.5t-71 188.5h152q-4 -58 31 -97t97 -39q60 0 106.5 38.5t58.5 97.5h152zM871 813h509l-100 -707q-249 -122 -505 -121q-114 0 -217 29t-189 89.5t-144.5 145.5t-82.5 205.5t-5 262.5q20 141 78 262t141 206 t186 145.5t214.5 89.5t225.5 29q200 0 358 -74l-27 -196q-169 90 -360 79q-94 -3 -183.5 -39t-165.5 -101.5t-129.5 -169.5t-71.5 -231t6.5 -231t82 -169.5t137 -102t173.5 -39.5q66 -1 143.5 18t129.5 49l55 395h-284z" glyph-name="Gbreve" horiz-adv-x="1518" unicode="Ğ"/><glyph d="M1159 1490q-33 -117 -125 -188.5t-210 -71.5q-119 0 -191 71.5t-71 188.5h152q-4 -58 31 -97t97 -39q60 0 106.5 39t59.5 97h151zM1114 1102h244l-139 -992q-19 -135 -81 -239t-153.5 -167.5t-202 -96t-235.5 -32.5q-205 0 -341 63l24 176q127 -71 316 -65 q170 6 283.5 83t137.5 240l16 117q-73 -98 -174 -136.5t-229 -38.5q-110 0 -200.5 34.5t-156 100.5t-93.5 173.5t-8 243.5q18 139 75 247.5t138.5 173t176 97t199.5 32.5q278 0 375 -196zM359 566q-27 -184 52 -287.5t228 -103.5q59 0 118 18.5t112 53.5t92 93t54 132 l23 167q0 83 -23.5 145t-64.5 97t-91.5 52.5t-110.5 17.5q-147 0 -255 -101.5t-134 -283.5z" glyph-name="gbreve" horiz-adv-x="1435" unicode="ğ"/><glyph d="M893 1751h239l-27 -189h-239zM871 813h509l-100 -707q-249 -122 -505 -121q-114 0 -217 29t-189 89.5t-144.5 145.5t-82.5 205.5t-5 262.5q20 141 78 262t141 206t186 145.5t214.5 89.5t225.5 29q200 0 358 -74l-27 -196q-169 90 -360 79q-94 -3 -183.5 -39 t-165.5 -101.5t-129.5 -169.5t-71.5 -231t6.5 -231t82 -169.5t137 -102t173.5 -39.5q66 -1 143.5 18t129.5 49l55 395h-284z" glyph-name="Gdotaccent" horiz-adv-x="1518" unicode="Ġ"/><glyph d="M731 1419h239l-27 -189h-238zM1114 1102h244l-139 -992q-19 -135 -81 -239t-153.5 -167.5t-202 -96t-235.5 -32.5q-205 0 -341 63l24 176q127 -71 316 -65q170 6 283.5 83t137.5 240l16 117q-73 -98 -174 -136.5t-229 -38.5q-110 0 -200.5 34.5t-156 100.5t-93.5 173.5 t-8 243.5q18 139 75 247.5t138.5 173t176 97t199.5 32.5q278 0 375 -196zM359 566q-27 -184 52 -287.5t228 -103.5q59 0 118 18.5t112 53.5t92 93t54 132l23 167q0 83 -23.5 145t-64.5 97t-91.5 52.5t-110.5 17.5q-147 0 -255 -101.5t-134 -283.5z" glyph-name="gdotaccent" horiz-adv-x="1435" unicode="ġ"/><glyph d="M871 813h509l-100 -707q-249 -122 -505 -121q-114 0 -217 29t-189 89.5t-144.5 145.5t-82.5 205.5t-5 262.5q20 141 78 262t141 206t186 145.5t214.5 89.5t225.5 29q200 0 358 -74l-27 -196q-169 90 -360 79q-94 -3 -183.5 -39t-165.5 -101.5t-129.5 -169.5t-71.5 -231 t6.5 -231t82 -169.5t137 -102t173.5 -39.5q66 -1 143.5 18t129.5 49l55 395h-284zM670 -106h220l-163 -464h-189z" glyph-name="Gcommaaccent" horiz-adv-x="1518" unicode="Ģ"/><glyph d="M939 1234h-221l164 464h189zM1114 1102h244l-139 -992q-19 -135 -81 -239t-153.5 -167.5t-202 -96t-235.5 -32.5q-205 0 -341 63l24 176q127 -71 316 -65q170 6 283.5 83t137.5 240l16 117q-73 -98 -174 -136.5t-229 -38.5q-110 0 -200.5 34.5t-156 100.5t-93.5 173.5 t-8 243.5q18 139 75 247.5t138.5 173t176 97t199.5 32.5q278 0 375 -196zM359 566q-27 -184 52 -287.5t228 -103.5q59 0 118 18.5t112 53.5t92 93t54 132l23 167q0 83 -23.5 145t-64.5 97t-91.5 52.5t-110.5 17.5q-147 0 -255 -101.5t-134 -283.5z" glyph-name="gcommaaccent" horiz-adv-x="1435" unicode="ģ"/><glyph d="M1646 1205l-18 -121h-160l-152 -1084h-265l87 622h-687l-87 -622h-266l152 1084h-160l18 121h159l32 229h266l-33 -229h688l31 229h267l-32 -229h160zM1164 812l38 272h-686l-39 -272h687z" glyph-name="Hbar" horiz-adv-x="1568" unicode="Ħ"/><glyph d="M946 1116q181 0 266.5 -108t54.5 -335l-95 -673h-245l86 613q46 328 -204 328q-121 0 -238 -83t-159 -232l-89 -626h-245l177 1260h-114l18 120h113l22 156h246l-22 -156h367l-18 -120h-366l-47 -341q101 114 220 155.5t272 41.5z" glyph-name="hbar" horiz-adv-x="1404" unicode="ħ"/><glyph d="M118 1563q14 108 75 167.5t143 59.5q39 0 78 -15.5t65.5 -34.5t60 -34t62.5 -15q32 0 56 26.5t31 67.5h126q-14 -108 -76 -167t-143 -59q-52 0 -136 49t-123 49q-36 -1 -61 -27t-32 -68zM364 0h-266l201 1434h266z" glyph-name="Itilde" horiz-adv-x="616" unicode="Ĩ"/><glyph d="M41 1231q14 108 75 167.5t143 59.5q39 0 78 -15.5t65.5 -34t60.5 -34t62 -15.5q32 0 56 26.5t31 67.5h126q-14 -108 -76 -167t-143 -59q-52 0 -136 49t-123 49q-36 -1 -61 -27t-32 -68zM232 1102h246l-154 -1102h-246z" glyph-name="itilde" horiz-adv-x="556" unicode="ĩ"/><glyph d="M202 1708h536l-20 -146h-537zM364 0h-266l201 1434h266z" glyph-name="Imacron" horiz-adv-x="616" unicode="Ī"/><glyph d="M125 1376h537l-21 -146h-537zM232 1102h246l-154 -1102h-246z" glyph-name="imacron" horiz-adv-x="556" unicode="ī"/><glyph d="M299 1434h266l-201 -1434h-59q-177 -63 -181 -153q-4 -46 51 -61t128 3l-4 -106q-88 -19 -164.5 -13.5t-125 45.5t-41.5 103q5 55 50 104.5t144 77.5h-64z" glyph-name="Iogonek" horiz-adv-x="616" unicode="Į"/><glyph d="M275 1434h294l-24 -170h-294zM98 0l155 1102h246l-155 -1102h-51q-177 -63 -181 -153q-4 -46 51 -61t128 3l-4 -106q-88 -19 -164.5 -13.5t-125 45.5t-41.5 103q5 55 50 104.5t144 77.5h-52z" glyph-name="iogonek" horiz-adv-x="595" unicode="į"/><glyph d="M357 1751h239l-27 -189h-238zM364 0h-266l201 1434h266z" glyph-name="Idotaccent" horiz-adv-x="616" unicode="İ"/><glyph d="M232 1102h246l-154 -1102h-246z" glyph-name="dotlessi" horiz-adv-x="556" unicode="ı"/><glyph d="M364 0h-266l201 1434h266zM644 219q126 -47 242 -39q247 12 285 298l135 956h266l-135 -961q-35 -258 -177 -373t-382 -115q-154 0 -263 33z" glyph-name="IJ" horiz-adv-x="1623" unicode="Ĳ"/><glyph d="M1461 1434l-720 -702l519 -732h-298l-499 703l-99 -703h-266l201 1434h266l-95 -674l693 674h298zM410 -570l132 464h220l-163 -464h-189z" glyph-name="Kcommaaccent" horiz-adv-x="1389" unicode="Ķ"/><glyph d="M1287 1102l-555 -463l401 -639h-261l-304 503l-197 -165l-47 -338h-246l216 1536h246l-132 -938l616 504h263zM340 -570l132 464h220l-163 -464h-189z" glyph-name="kcommaaccent" horiz-adv-x="1292" unicode="ķ"/><glyph d="M1287 1102l-555 -463l401 -639h-261l-304 503l-197 -165l-47 -338h-246l154 1102h246l-70 -504l616 504h263z" glyph-name="kgreenlandic" horiz-adv-x="1292" unicode="ĸ"/><glyph d="M1238 1870l-309 -307h-192l268 307h233zM565 1434l-175 -1244h756l-27 -190h-1021l201 1434h266z" glyph-name="Lacute" horiz-adv-x="1315" unicode="Ĺ"/><glyph d="M840 1972l-310 -307h-191l267 307h234zM294 1536h246l-216 -1536h-246z" glyph-name="lacute" horiz-adv-x="556" unicode="ĺ"/><glyph d="M565 1434l-175 -1244h756l-27 -190h-1021l201 1434h266zM517 -106h220l-163 -464h-189z" glyph-name="Lcommaaccent" horiz-adv-x="1315" unicode="Ļ"/><glyph d="M294 1536h246l-216 -1536h-246zM104 -106h221l-163 -464h-190z" glyph-name="lcommaaccent" horiz-adv-x="556" unicode="ļ"/><glyph d="M565 1434l-175 -1244h756l-27 -190h-1021l201 1434h266zM966 1409h251l-187 -529h-216z" glyph-name="Lcaron" horiz-adv-x="1372" unicode="Ľ"/><glyph d="M294 1536h246l-216 -1536h-246zM800 1409h251l-187 -529h-216z" glyph-name="lcaron" horiz-adv-x="1105" unicode="ľ"/><glyph d="M565 1434l-175 -1244h756l-27 -190h-1021l201 1434h266zM984 833h294l-33 -232h-294z" glyph-name="Ldot" horiz-adv-x="1414" unicode="Ŀ"/><glyph d="M294 1536h246l-216 -1536h-246zM541 884h294l-33 -232h-294z" glyph-name="ldot" horiz-adv-x="943" unicode="ŀ"/><glyph d="M390 190h756l-27 -190h-1021l97 688l-130 -15l15 110l130 16l89 635h266l-85 -603l456 55l-15 -111l-456 -54z" glyph-name="Lslash" horiz-adv-x="1315" unicode="Ł"/><glyph d="M590 899l-16 -112l-144 -27l-106 -760h-246l100 713l-143 -28l15 112l144 27l100 712h246l-94 -665z" glyph-name="lslash" horiz-adv-x="556" unicode="ł"/><glyph d="M1357 1870l-309 -307h-192l267 307h234zM1304 1434h266l-202 -1434h-273l-584 1047l-147 -1047h-266l201 1434h273l586 -1038z" glyph-name="Nacute" horiz-adv-x="1620" unicode="Ń"/><glyph d="M1203 1538l-309 -307h-192l268 307h233zM323 0h-245l155 1102h246l-25 -183q101 114 220.5 155.5t271.5 41.5q181 0 266.5 -108t54.5 -335l-95 -673h-245l86 613q46 328 -204 328q-121 0 -238 -83t-159 -232z" glyph-name="nacute" horiz-adv-x="1404" unicode="ń"/><glyph d="M1304 1434h266l-202 -1434h-273l-584 1047l-147 -1047h-266l201 1434h273l586 -1038zM636 -106h220l-163 -464h-189z" glyph-name="Ncommaaccent" horiz-adv-x="1620" unicode="Ņ"/><glyph d="M323 0h-245l155 1102h246l-25 -183q101 114 220.5 155.5t271.5 41.5q181 0 266.5 -108t54.5 -335l-95 -673h-245l86 613q46 328 -204 328q-121 0 -238 -83t-159 -232zM528 -106h221l-163 -464h-190z" glyph-name="ncommaaccent" horiz-adv-x="1404" unicode="ņ"/><glyph d="M1158 1869h192l-266 -307h-264l-178 307h191l131 -235zM1304 1434h266l-202 -1434h-273l-584 1047l-147 -1047h-266l201 1434h273l586 -1038z" glyph-name="Ncaron" horiz-adv-x="1620" unicode="Ň"/><glyph d="M1004 1537h191l-265 -307h-264l-179 307h191l131 -234zM323 0h-245l155 1102h246l-25 -183q101 114 220.5 155.5t271.5 41.5q181 0 266.5 -108t54.5 -335l-95 -673h-245l86 613q46 328 -204 328q-121 0 -238 -83t-159 -232z" glyph-name="ncaron" horiz-adv-x="1404" unicode="ň"/><glyph d="M392 1536h251l-186 -529h-215zM749 0h-245l154 1102h246l-24 -183q101 114 220.5 155.5t271.5 41.5q181 0 266.5 -108t54.5 -335l-95 -673h-245l86 613q46 328 -204 328q-121 0 -238 -83t-159 -232z" glyph-name="napostrophe" horiz-adv-x="1830" unicode="ŉ"/><glyph d="M1441 516l-11 -78l-62 -438l-3 -18q-9 -63 -31.5 -111.5t-54 -78.5t-74 -47.5t-86.5 -24.5t-98 -7q-100 2 -156 32l24 105q71 -14 121 -1q56 6 79 41t33 110h-27l-584 1047l-147 -1047h-266l201 1434h273l586 -1038l146 1038h266z" glyph-name="Eng" horiz-adv-x="1620" unicode="Ŋ"/><glyph d="M946 1116q181 0 266.5 -108t54.5 -335l-22 -157l-36 -251l-37 -265l-3 -18q-11 -79 -42 -134t-79.5 -83.5t-101.5 -40t-121 -11.5q-100 2 -155 32l23 105q71 -14 121 -1q56 6 78.5 41t34.5 110l86 613q46 328 -204 328q-121 0 -238 -83t-159 -232l-89 -626h-245l155 1102 h246l-25 -183q101 114 220 155.5t272 41.5z" glyph-name="eng" horiz-adv-x="1404" unicode="ŋ"/><glyph d="M749 1708h536l-20 -146h-537zM1619 717q-20 -143 -78.5 -264.5t-141.5 -206.5t-186.5 -145t-214 -88t-224.5 -28t-216 28t-188 88t-145 145t-83.5 206t-4.5 265q20 141 78 262t140.5 206t186 145.5t214.5 89.5t225 29q94 0 181.5 -20.5t165 -61.5t138.5 -102.5 t101.5 -142.5t54 -182t-2.5 -223zM802 175q129 0 243.5 61t199 186.5t108.5 294.5q18 128 -6.5 232.5t-82 171t-137 102t-174.5 35.5q-93 0 -183 -35.5t-165.5 -102t-129.5 -171t-72 -232.5t6 -232.5t80.5 -171t137 -102.5t175.5 -36z" glyph-name="Omacron" horiz-adv-x="1709" unicode="Ō"/><glyph d="M558 1376h537l-21 -146h-536zM1303 551q-15 -116 -63.5 -212t-115 -160.5t-150 -109t-169.5 -64.5t-174 -20q-87 0 -167.5 20t-151 64.5t-119 109t-69.5 160.5t-4 212q15 113 62.5 207.5t113.5 159.5t149 110.5t170 66.5t175.5 21t169 -21t151 -66.5t118.5 -110.5 t68.5 -159.5t5.5 -207.5zM654 151q148 0 262.5 107t140.5 293q26 183 -58 291.5t-232.5 108.5t-262 -108.5t-138.5 -291.5q-26 -186 57.5 -293t230.5 -107z" glyph-name="omacron" horiz-adv-x="1421" unicode="ō"/><glyph d="M1076 1889l-211 -327h-165l208 327h168zM1339 1889l-210 -327h-164l206 327h168zM1619 717q-20 -143 -78.5 -264.5t-141.5 -206.5t-186.5 -145t-214 -88t-224.5 -28t-216 28t-188 88t-145 145t-83.5 206t-4.5 265q20 141 78 262t140.5 206t186 145.5t214.5 89.5t225 29 q94 0 181.5 -20.5t165 -61.5t138.5 -102.5t101.5 -142.5t54 -182t-2.5 -223zM802 175q129 0 243.5 61t199 186.5t108.5 294.5q18 128 -6.5 232.5t-82 171t-137 102t-174.5 35.5q-93 0 -183 -35.5t-165.5 -102t-129.5 -171t-72 -232.5t6 -232.5t80.5 -171t137 -102.5 t175.5 -36z" glyph-name="Ohungarumlaut" horiz-adv-x="1709" unicode="Ő"/><glyph d="M886 1558l-211 -328h-165l208 328h168zM1149 1558l-210 -328h-165l207 328h168zM1303 551q-15 -116 -63.5 -212t-115 -160.5t-150 -109t-169.5 -64.5t-174 -20q-87 0 -167.5 20t-151 64.5t-119 109t-69.5 160.5t-4 212q15 113 62.5 207.5t113.5 159.5t149 110.5t170 66.5 t175.5 21t169 -21t151 -66.5t118.5 -110.5t68.5 -159.5t5.5 -207.5zM654 151q148 0 262.5 107t140.5 293q26 183 -58 291.5t-232.5 108.5t-262 -108.5t-138.5 -291.5q-26 -186 57.5 -293t230.5 -107z" glyph-name="ohungarumlaut" horiz-adv-x="1421" unicode="ő"/><glyph d="M2484 1243h-802l-54 -391q0 -27 -1 -40h710l-27 -190h-709q-4 -17 -12 -42l-54 -390h802l-27 -190h-1068l19 130q-219 -145 -487 -145q-114 0 -216 28t-188 88t-145 145t-83.5 206t-4.5 265q20 141 78 262t140.5 206t186 145.5t214.5 89.5t225 29q266 0 444 -147l19 132 h1067zM802 175q172 0 317.5 110.5t206.5 308.5l34 245q-5 198 -121 308.5t-286 110.5q-93 0 -183 -35.5t-165.5 -102t-129.5 -171t-72 -232.5t6 -232.5t80.5 -171t137 -102.5t175.5 -36z" glyph-name="OE" horiz-adv-x="2562" unicode="Œ"/><glyph d="M2195 482h-863q0 -88 34 -154.5t94 -104.5t130.5 -56.5t153.5 -19.5q168 -1 317 68l-23 -168q-156 -62 -382 -62q-159 0 -292.5 58t-204.5 173q-97 -115 -239 -173t-289 -58q-87 0 -167.5 20t-151 64.5t-119 109t-69.5 160.5t-4 212q15 113 62.5 207.5t113.5 159.5 t149 110.5t170 66.5t176 21q143 0 266 -57.5t189 -167.5q93 111 226.5 168t274.5 57q179 0 301 -79t161 -219.5t-14 -335.5zM1740 955q-130 -2 -234 -84.5t-148 -225.5h655q16 80 0.5 139t-57.5 97.5t-97.5 56.5t-118.5 17zM1057 551q26 183 -58 291.5t-232.5 108.5 t-262 -108.5t-138.5 -291.5q-26 -186 57.5 -293t230.5 -107q148 0 262.5 107t140.5 293z" glyph-name="oe" horiz-adv-x="2336" unicode="œ"/><glyph d="M1289 1870l-309 -307h-192l268 307h233zM1396 982q-22 -156 -109.5 -255.5t-250.5 -155.5l266 -571h-270l-239 517q-150 -20 -360 -23l-69 -494h-266l201 1434h629q243 0 371 -119t97 -333zM1129 982q18 128 -48 199t-194 71h-347l-81 -578q232 3 373.5 35t211.5 97.5 t85 175.5z" glyph-name="Racute" horiz-adv-x="1494" unicode="Ŕ"/><glyph d="M963 1538l-310 -307h-191l267 307h234zM323 0h-245l155 1102h240l-24 -176q180 190 472 190l-25 -173q-66 3 -140 -17t-143.5 -59t-124.5 -102t-76 -137z" glyph-name="racute" horiz-adv-x="913" unicode="ŕ"/><glyph d="M1396 982q-22 -156 -109.5 -255.5t-250.5 -155.5l266 -571h-270l-239 517q-150 -20 -360 -23l-69 -494h-266l201 1434h629q243 0 371 -119t97 -333zM1129 982q18 128 -48 199t-194 71h-347l-81 -578q232 3 373.5 35t211.5 97.5t85 175.5zM436 -570l132 464h220l-162 -464 h-190z" glyph-name="Rcommaaccent" horiz-adv-x="1494" unicode="Ŗ"/><glyph d="M323 0h-245l155 1102h240l-24 -176q180 190 472 190l-25 -173q-66 3 -140 -17t-143.5 -59t-124.5 -102t-76 -137zM288 -106h220l-163 -464h-189z" glyph-name="rcommaaccent" horiz-adv-x="913" unicode="ŗ"/><glyph d="M1016 1562h-264l-179 307h191l131 -235l195 235h191zM1396 982q-22 -156 -109.5 -255.5t-250.5 -155.5l266 -571h-270l-239 517q-150 -20 -360 -23l-69 -494h-266l201 1434h629q243 0 371 -119t97 -333zM1129 982q18 128 -48 199t-194 71h-347l-81 -578q232 3 373.5 35 t211.5 97.5t85 175.5z" glyph-name="Rcaron" horiz-adv-x="1494" unicode="Ř"/><glyph d="M764 1537h191l-265 -307h-264l-178 307h190l131 -234zM323 0h-245l155 1102h240l-24 -176q180 190 472 190l-25 -173q-66 3 -140 -17t-143.5 -59t-124.5 -102t-76 -137z" glyph-name="rcaron" horiz-adv-x="913" unicode="ř"/><glyph d="M1214 1870l-309 -307h-191l267 307h233zM94 312q102 -71 209.5 -103.5t236.5 -32.5q87 0 169.5 23.5t142.5 72.5t71 112q6 41 -10 75t-42 56t-76 44t-90 34t-108.5 33t-108.5 34q-170 61 -249 154.5t-53 244.5q31 176 195 283t426 107q224 0 386 -97l-31 -210 q-176 118 -382 116q-134 0 -226 -57t-111 -154q-8 -40 6.5 -72.5t40.5 -55t72.5 -43.5t89 -35t103.5 -31q40 -11 59 -17q98 -31 167 -66t121 -85.5t70.5 -120t3.5 -159.5q-17 -95 -82 -169t-158.5 -118t-201 -66.5t-221.5 -22.5q-276 0 -450 115z" glyph-name="Sacute" horiz-adv-x="1315" unicode="Ś"/><glyph d="M1082 1538l-309 -307h-191l267 307h233zM96 243q145 -83 356 -91q109 -5 192 31.5t99 105.5q10 50 -26 86t-80 51.5t-145 43.5q-17 5 -26 7q-175 47 -252 128t-58 208q23 146 165 224.5t358 78.5q219 0 348 -76l-26 -181q-136 87 -323 91q-114 3 -187.5 -30t-86.5 -107 q-4 -25 2.5 -45t25.5 -38t41 -32t61 -29.5t73.5 -26.5t89.5 -28q86 -26 140.5 -50t95.5 -60t54.5 -85.5t3.5 -117.5q-15 -99 -95 -173t-190.5 -108.5t-235.5 -34.5q-114 0 -224.5 21t-173.5 57z" glyph-name="sacute" horiz-adv-x="1145" unicode="ś"/><glyph d="M814 793q98 -31 167 -66t121 -85.5t70.5 -120t3.5 -159.5q-16 -90 -76 -162t-147.5 -116t-188.5 -68.5t-210 -28.5l-62 -62q9 1 35 1q73 0 112 -31.5t31 -89.5q-9 -67 -73.5 -103t-174.5 -36q-60 0 -114 10l11 80q37 -7 88 -7q116 0 124 61q4 32 -19.5 44t-77.5 12 q-27 0 -43 -1l8 57l66 65q-244 9 -402 114l31 211q102 -71 209.5 -103.5t236.5 -32.5q87 0 169.5 23.5t142.5 72.5t71 112q6 41 -10 75t-42 56t-76 44t-90 34t-108.5 33t-108.5 34q-170 61 -249 154.5t-53 244.5q31 176 195 283t426 107q224 0 386 -97l-31 -210 q-176 118 -382 116q-134 0 -226 -57t-111 -154q-8 -40 6.5 -72.5t40.5 -55t72.5 -43.5t89 -35t103.5 -31q40 -11 59 -17z" glyph-name="Scedilla" horiz-adv-x="1315" unicode="Ş"/><glyph d="M678 950q-114 3 -187.5 -30t-86.5 -107q-4 -25 2.5 -45t25.5 -38t41 -32t61 -29.5t73.5 -26.5t89.5 -28q86 -26 140.5 -50t95.5 -60t54.5 -85.5t3.5 -117.5q-14 -92 -83.5 -162t-168 -107t-214.5 -45l-62 -62q9 1 36 1q73 0 111.5 -31.5t30.5 -89.5q-9 -67 -73 -103 t-175 -36q-60 0 -113 10l11 80q37 -7 87 -7q116 0 125 61q4 32 -19.5 44t-77.5 12q-27 0 -44 -1l9 57l63 64q-106 3 -205 23.5t-157 53.5l24 180q145 -83 356 -91q109 -5 192 31.5t99 105.5q10 50 -26 86t-80 51.5t-145 43.5q-17 5 -26 7q-175 47 -252 128t-58 208 q23 146 165 224.5t358 78.5q219 0 348 -76l-26 -181q-136 87 -323 91z" glyph-name="scedilla" horiz-adv-x="1145" unicode="ş"/><glyph d="M1015 1869h191l-265 -307h-264l-178 307h190l131 -235zM94 312q102 -71 209.5 -103.5t236.5 -32.5q87 0 169.5 23.5t142.5 72.5t71 112q6 41 -10 75t-42 56t-76 44t-90 34t-108.5 33t-108.5 34q-170 61 -249 154.5t-53 244.5q31 176 195 283t426 107q224 0 386 -97 l-31 -210q-176 118 -382 116q-134 0 -226 -57t-111 -154q-8 -40 6.5 -72.5t40.5 -55t72.5 -43.5t89 -35t103.5 -31q40 -11 59 -17q98 -31 167 -66t121 -85.5t70.5 -120t3.5 -159.5q-17 -95 -82 -169t-158.5 -118t-201 -66.5t-221.5 -22.5q-276 0 -450 115z" glyph-name="Scaron" horiz-adv-x="1315" unicode="Š"/><glyph d="M884 1537h191l-265 -307h-264l-178 307h190l131 -234zM96 243q145 -83 356 -91q109 -5 192 31.5t99 105.5q10 50 -26 86t-80 51.5t-145 43.5q-17 5 -26 7q-175 47 -252 128t-58 208q23 146 165 224.5t358 78.5q219 0 348 -76l-26 -181q-136 87 -323 91q-114 3 -187.5 -30 t-86.5 -107q-4 -25 2.5 -45t25.5 -38t41 -32t61 -29.5t73.5 -26.5t89.5 -28q86 -26 140.5 -50t95.5 -60t54.5 -85.5t3.5 -117.5q-15 -99 -95 -173t-190.5 -108.5t-235.5 -34.5q-114 0 -224.5 21t-173.5 57z" glyph-name="scaron" horiz-adv-x="1145" unicode="š"/><glyph d="M641 0h-89l-77 -75q9 1 36 1q73 0 112 -31.5t30 -89.5q-9 -67 -73 -103t-174 -36q-60 0 -114 10l11 80q37 -7 87 -7q116 0 125 61q4 32 -19.5 44t-77.5 12q-27 0 -43 -1l8 57l79 78h-87l175 1243h-416l27 191h1097l-26 -191h-417z" glyph-name="Tcommaaccent" horiz-adv-x="1170" unicode="Ţ"/><glyph d="M591 931l-89 -633q-9 -63 17.5 -100t78.5 -37h188l-22 -161h-256l-77 -75q9 1 36 1q73 0 111.5 -31.5t30.5 -89.5q-9 -67 -73 -103t-175 -36q-60 0 -113 10l11 80q37 -7 87 -7q116 0 125 61q4 32 -19.5 44t-77.5 12q-27 0 -43 -1l8 57l79 78q-90 1 -138 66t-33 165 l98 700h-172l24 171h172l30 215h246l-31 -215h305l-24 -171h-304z" glyph-name="tcommaaccent" horiz-adv-x="997" unicode="ţ"/><glyph d="M859 1562h-264l-178 307h190l131 -235l195 235h191zM1258 1434l-26 -191h-417l-174 -1243h-266l175 1243h-416l27 191h1097z" glyph-name="Tcaron" horiz-adv-x="1170" unicode="Ť"/><glyph d="M1158 1409h251l-186 -529h-215zM764 0h-342q-92 0 -141 65t-34 166l98 700h-172l24 171h172l30 215h246l-31 -215h305l-24 -171h-304l-89 -633q-9 -63 17.5 -100t78.5 -37h188z" glyph-name="tcaron" horiz-adv-x="1464" unicode="ť"/><glyph d="M1232 1243h-417l-63 -452h367l-16 -121h-368l-94 -670h-266l94 670h-338l17 121h338l64 452h-416l27 191h1097z" glyph-name="Tbar" horiz-adv-x="1170" unicode="Ŧ"/><glyph d="M895 931h-304l-20 -139h305l-18 -121h-304l-52 -373q-9 -63 17.5 -100t78.5 -37h188l-22 -161h-342q-92 0 -141 65t-34 166l61 440h-172l18 121h172l19 139h-172l24 171h172l30 215h246l-31 -215h305z" glyph-name="tbar" horiz-adv-x="997" unicode="ŧ"/><glyph d="M577 1563q14 108 75 167.5t143 59.5q39 0 77.5 -15.5t65.5 -34.5t60.5 -34t62.5 -15q32 0 56 26.5t31 67.5h126q-14 -108 -76 -167t-143 -59q-52 0 -136 49t-123 49q-36 -1 -61 -27t-33 -68zM1483 1434l-121 -856q-43 -316 -209 -454.5t-466 -138.5t-426 138t-83 455 l121 856h266l-127 -902q-25 -180 41 -268.5t235 -88.5q170 0 260.5 88.5t115.5 268.5l127 902h266z" glyph-name="Utilde" horiz-adv-x="1533" unicode="Ũ"/><glyph d="M451 1231q14 108 75 167.5t143 59.5q39 0 77.5 -15.5t65.5 -34t60.5 -34t62.5 -15.5q32 0 56 26.5t31 67.5h126q-14 -108 -76 -167t-143 -59q-52 0 -136 49t-123 49q-36 -1 -61 -27t-32 -68zM1082 1102h245l-155 -1102h-245l24 183q-101 -113 -221 -155t-271 -42 q-181 0 -267 108t-54 335l94 673h246l-86 -614q-46 -328 204 -327q121 0 238 83t159 232z" glyph-name="utilde" horiz-adv-x="1404" unicode="ũ"/><glyph d="M660 1708h537l-20 -146h-537zM1483 1434l-121 -856q-43 -316 -209 -454.5t-466 -138.5t-426 138t-83 455l121 856h266l-127 -902q-25 -180 41 -268.5t235 -88.5q170 0 260.5 88.5t115.5 268.5l127 902h266z" glyph-name="Umacron" horiz-adv-x="1533" unicode="Ū"/><glyph d="M536 1376h536l-20 -146h-537zM1082 1102h245l-155 -1102h-245l24 183q-101 -113 -221 -155t-271 -42q-181 0 -267 108t-54 335l94 673h246l-86 -614q-46 -328 204 -327q121 0 238 83t159 232z" glyph-name="umacron" horiz-adv-x="1404" unicode="ū"/><glyph d="M908 1562q-91 0 -146.5 65.5t-42.5 155.5q13 91 87 156t165 65t147.5 -65t43 -156t-88 -156t-165.5 -65zM926 1682q41 0 75 30t39 71q6 42 -19.5 71.5t-66.5 29.5t-75 -29.5t-40 -71.5q-5 -41 20.5 -71t66.5 -30zM1483 1434l-121 -856q-43 -316 -209 -454.5t-466 -138.5 t-426 138t-83 455l121 856h266l-127 -902q-25 -180 41 -268.5t235 -88.5q170 0 260.5 88.5t115.5 268.5l127 902h266z" glyph-name="Uring" horiz-adv-x="1533" unicode="Ů"/><glyph d="M783 1230q-91 0 -146.5 65.5t-42.5 155.5q13 91 87 156t165 65t147.5 -65t43 -156t-88 -156t-165.5 -65zM801 1351q41 0 75 29.5t39 70.5q6 42 -19.5 71.5t-66.5 29.5t-75 -29.5t-40 -71.5q-5 -41 20.5 -70.5t66.5 -29.5zM1082 1102h245l-155 -1102h-245l24 183 q-101 -113 -221 -155t-271 -42q-181 0 -267 108t-54 335l94 673h246l-86 -614q-46 -328 204 -327q121 0 238 83t159 232z" glyph-name="uring" horiz-adv-x="1404" unicode="ů"/><glyph d="M988 1889l-211 -327h-165l208 327h168zM1251 1889l-210 -327h-164l206 327h168zM1483 1434l-121 -856q-43 -316 -209 -454.5t-466 -138.5t-426 138t-83 455l121 856h266l-127 -902q-25 -180 41 -268.5t235 -88.5q170 0 260.5 88.5t115.5 268.5l127 902h266z" glyph-name="Uhungarumlaut" horiz-adv-x="1533" unicode="Ű"/><glyph d="M862 1558l-211 -328h-165l208 328h168zM1125 1558l-210 -328h-164l206 328h168zM1082 1102h245l-155 -1102h-245l24 183q-101 -113 -221 -155t-271 -42q-181 0 -267 108t-54 335l94 673h246l-86 -614q-46 -328 204 -327q121 0 238 83t159 232z" glyph-name="uhungarumlaut" horiz-adv-x="1404" unicode="ű"/><glyph d="M1217 1434h266l-121 -856q-42 -306 -199 -445.5t-440 -147.5q-139 -58 -143 -138q-4 -46 51 -61t128 3l-4 -106q-88 -19 -164.5 -13.5t-125 45.5t-41.5 103q4 50 42 95.5t118 75.5q-244 22 -345 161.5t-61 427.5l121 856h266l-127 -902q-25 -180 41 -268.5t235 -88.5 q170 0 260.5 88.5t115.5 268.5z" glyph-name="Uogonek" horiz-adv-x="1533" unicode="Ų"/><glyph d="M1082 1102h245l-155 -1102h-48q-177 -63 -181 -153q-4 -46 51.5 -61t127.5 3l-4 -106q-88 -19 -164 -13.5t-125 45.5t-42 103q5 55 50.5 104.5t143.5 77.5h-54l24 183q-101 -113 -221 -155t-271 -42q-181 0 -267 108t-54 335l94 673h246l-86 -614q-46 -328 204 -327 q121 0 238 83t159 232z" glyph-name="uogonek" horiz-adv-x="1404" unicode="ų"/><glyph d="M1532 1562h-191l-130 235l-195 -235h-192l267 307h263zM1884 1434h278l-602 -1434h-288l-156 1115l-468 -1115h-288l-199 1434h276l126 -1091l446 1091h305l139 -1091z" glyph-name="Wcircumflex" horiz-adv-x="2074" unicode="Ŵ"/><glyph d="M1393 1230h-191l-130 235l-195 -235h-192l266 307h263zM1622 1102h261l-483 -1102h-290l-125 848l-362 -848h-289l-173 1102h260l121 -849l350 849h259l120 -849z" glyph-name="wcircumflex" horiz-adv-x="1888" unicode="ŵ"/><glyph d="M1179 1562h-191l-130 235l-195 -235h-192l266 307h263zM1171 1434h283l-640 -895l-76 -539h-265l76 539l-388 895h282l274 -643z" glyph-name="Ycircumflex" horiz-adv-x="1366" unicode="Ŷ"/><glyph d="M1107 1230h-191l-130 235l-195 -235h-192l267 307h263zM1053 1102h259l-589 -1056q-37 -66 -74.5 -119t-100 -115t-132 -103.5t-169.5 -68t-212 -23.5l13 161q278 0 390 271l-277 1053h261l192 -827z" glyph-name="ycircumflex" horiz-adv-x="1317" unicode="ŷ"/><glyph d="M530 1751h239l-27 -189h-238zM935 1751h237l-26 -189h-238zM1171 1434h283l-640 -895l-76 -539h-265l76 539l-388 895h282l274 -643z" glyph-name="Ydieresis" horiz-adv-x="1366" unicode="Ÿ"/><glyph d="M1274 1870l-309 -307h-192l267 307h234zM1402 1434l-27 -191l-920 -1053h773l-27 -190h-1103l27 190l915 1053h-768l27 191h1103z" glyph-name="Zacute" horiz-adv-x="1454" unicode="Ź"/><glyph d="M1112 1537l-309 -307h-192l268 307h233zM1182 1102l-24 -171l-788 -760h681l-24 -171h-985l24 171l787 760h-680l24 171h985z" glyph-name="zacute" horiz-adv-x="1223" unicode="ź"/><glyph d="M1014 1751l-27 -189h-238l26 189h239zM1402 1434l-27 -191l-920 -1053h773l-27 -190h-1103l27 190l915 1053h-768l27 191h1103z" glyph-name="Zdotaccent" horiz-adv-x="1454" unicode="Ż"/><glyph d="M853 1419l-27 -189h-238l26 189h239zM1182 1102l-24 -171l-788 -760h681l-24 -171h-985l24 171l787 760h-680l24 171h985z" glyph-name="zdotaccent" horiz-adv-x="1223" unicode="ż"/><glyph d="M1000 1562h-264l-178 307h191l131 -235l194 235h192zM1402 1434l-27 -191l-920 -1053h773l-27 -190h-1103l27 190l915 1053h-768l27 191h1103z" glyph-name="Zcaron" horiz-adv-x="1454" unicode="Ž"/><glyph d="M840 1230h-265l-178 307h191l131 -234l194 234h192zM1182 1102l-24 -171l-788 -760h681l-24 -171h-985l24 171l787 760h-680l24 171h985z" glyph-name="zcaron" horiz-adv-x="1223" unicode="ž"/><glyph d="M1097 1331q96 0 148 -32l-46 -105q-69 15 -122 2q-57 -6 -88 -41t-57 -109l-160 -447h298l-17 -121h-324l-167 -465q-29 -79 -71 -133.5t-96.5 -83t-111 -40t-123.5 -11.5q-95 2 -150 32l47 106q67 -15 122 -2q57 6 88 41t57 110l159 446h-246l18 121h271l167 465 q29 79 72 133.5t97 83t110 39.5t125 11z" glyph-name="florin" horiz-adv-x="1259" unicode="ƒ"/><glyph d="M634 791l-17 -121h-159l-94 -670h-266l95 670h-160l16 121h160l90 643h266l-90 -643h159z" glyph-name="uni0197" horiz-adv-x="616" unicode="Ɨ"/><glyph d="M1038 1562h-264l-178 307h190l132 -235l194 235h192zM1140 0l-69 304h-682l-155 -304h-280l752 1434h365l349 -1434h-280zM485 495h543l-167 741z" glyph-name="uni01CD" horiz-adv-x="1528" unicode="Ǎ"/><glyph d="M970 1537h191l-265 -307h-264l-178 307h190l131 -234zM744 1116q261 0 371.5 -105.5t80.5 -320.5l-97 -690h-236l9 143q-199 -165 -484 -158q-164 4 -242.5 81t-66.5 198q22 226 238.5 333.5t628.5 69.5l5 39q13 121 -47.5 176.5t-211.5 61.5q-180 9 -379 -79l25 169 q181 82 406 82zM894 298l31 215q-292 31 -444.5 -19.5t-170.5 -187.5q-10 -87 47.5 -120t182.5 -31q110 1 203.5 44t150.5 99z" glyph-name="uni01CE" horiz-adv-x="1330" unicode="ǎ"/><glyph d="M655 1869h192l-265 -307h-265l-178 307h191l131 -235zM364 0h-266l201 1434h266z" glyph-name="uni01CF" horiz-adv-x="616" unicode="Ǐ"/><glyph d="M580 1537h191l-265 -307h-264l-179 307h191l131 -234zM232 1102h246l-154 -1102h-246z" glyph-name="uni01D0" horiz-adv-x="556" unicode="ǐ"/><glyph d="M1202 1869h192l-266 -307h-264l-178 307h191l131 -235zM1619 717q-20 -143 -78.5 -264.5t-141.5 -206.5t-186.5 -145t-214 -88t-224.5 -28t-216 28t-188 88t-145 145t-83.5 206t-4.5 265q20 141 78 262t140.5 206t186 145.5t214.5 89.5t225 29q94 0 181.5 -20.5 t165 -61.5t138.5 -102.5t101.5 -142.5t54 -182t-2.5 -223zM802 175q129 0 243.5 61t199 186.5t108.5 294.5q18 128 -6.5 232.5t-82 171t-137 102t-174.5 35.5q-93 0 -183 -35.5t-165.5 -102t-129.5 -171t-72 -232.5t6 -232.5t80.5 -171t137 -102.5t175.5 -36z" glyph-name="uni01D1" horiz-adv-x="1709" unicode="Ǒ"/><glyph d="M1012 1537h191l-265 -307h-264l-178 307h190l131 -234zM1303 551q-15 -116 -63.5 -212t-115 -160.5t-150 -109t-169.5 -64.5t-174 -20q-87 0 -167.5 20t-151 64.5t-119 109t-69.5 160.5t-4 212q15 113 62.5 207.5t113.5 159.5t149 110.5t170 66.5t175.5 21t169 -21 t151 -66.5t118.5 -110.5t68.5 -159.5t5.5 -207.5zM654 151q148 0 262.5 107t140.5 293q26 183 -58 291.5t-232.5 108.5t-262 -108.5t-138.5 -291.5q-26 -186 57.5 -293t230.5 -107z" glyph-name="uni01D2" horiz-adv-x="1421" unicode="ǒ"/><glyph d="M1115 1869h192l-266 -307h-264l-178 307h191l131 -235zM1483 1434l-121 -856q-43 -316 -209 -454.5t-466 -138.5t-426 138t-83 455l121 856h266l-127 -902q-25 -180 41 -268.5t235 -88.5q170 0 260.5 88.5t115.5 268.5l127 902h266z" glyph-name="uni01D3" horiz-adv-x="1533" unicode="Ǔ"/><glyph d="M989 1537h192l-266 -307h-264l-178 307h191l131 -234zM1082 1102h245l-155 -1102h-245l24 183q-101 -113 -221 -155t-271 -42q-181 0 -267 108t-54 335l94 673h246l-86 -614q-46 -328 204 -327q121 0 238 83t159 232z" glyph-name="uni01D4" horiz-adv-x="1404" unicode="ǔ"/><glyph d="M1191 1869h191l-265 -307h-264l-178 307h190l131 -235zM871 813h509l-100 -707q-249 -122 -505 -121q-114 0 -217 29t-189 89.5t-144.5 145.5t-82.5 205.5t-5 262.5q20 141 78 262t141 206t186 145.5t214.5 89.5t225.5 29q200 0 358 -74l-27 -196q-169 90 -360 79 q-94 -3 -183.5 -39t-165.5 -101.5t-129.5 -169.5t-71.5 -231t6.5 -231t82 -169.5t137 -102t173.5 -39.5q66 -1 143.5 18t129.5 49l55 395h-284z" glyph-name="Gcaron" horiz-adv-x="1518" unicode="Ǧ"/><glyph d="M1030 1537h192l-266 -307h-264l-178 307h191l131 -234zM1114 1102h244l-139 -992q-19 -135 -81 -239t-153.5 -167.5t-202 -96t-235.5 -32.5q-205 0 -341 63l24 176q127 -71 316 -65q170 6 283.5 83t137.5 240l16 117q-73 -98 -174 -136.5t-229 -38.5q-110 0 -200.5 34.5 t-156 100.5t-93.5 173.5t-8 243.5q18 139 75 247.5t138.5 173t176 97t199.5 32.5q278 0 375 -196zM359 566q-27 -184 52 -287.5t228 -103.5q59 0 118 18.5t112 53.5t92 93t54 132l23 167q0 83 -23.5 145t-64.5 97t-91.5 52.5t-110.5 17.5q-147 0 -255 -101.5t-134 -283.5z " glyph-name="gcaron" horiz-adv-x="1435" unicode="ǧ"/><glyph d="M1470 1870l-309 -307h-191l267 307h233zM1768 1243h-635l-61 -431h568l-26 -190h-568l-62 -432h636l-26 -190h-902l43 304h-346l-155 -304h-280l752 1434h1089zM486 495h275l-16 -114l121 861z" glyph-name="AEacute" horiz-adv-x="1846" unicode="Ǽ"/><glyph d="M1646 1537l-310 -307h-191l267 307h234zM2138 482h-863q0 -88 33.5 -154.5t93.5 -104.5t131 -56.5t154 -19.5q168 -1 317 68l-24 -168q-156 -62 -382 -62q-146 0 -272 50t-202 147l-25 -182h-236l9 143q-199 -165 -484 -158q-164 4 -242.5 81t-66.5 198 q22 226 238.5 333.5t628.5 69.5l5 39q13 121 -47.5 176.5t-211.5 61.5q-180 9 -379 -79l25 169q181 82 406 82q378 0 444 -227q93 112 226.5 169.5t275.5 57.5q179 0 301 -79t161 -219.5t-14 -335.5zM1682 955q-130 -2 -233.5 -84.5t-148.5 -225.5h656q16 77 -0.5 138.5 t-57.5 98.5t-97 55.5t-119 17.5zM894 298l31 215q-292 31 -444.5 -19.5t-170.5 -187.5q-10 -87 47.5 -120t182.5 -31q110 1 203.5 44t150.5 99z" glyph-name="aeacute" horiz-adv-x="2279" unicode="ǽ"/><glyph d="M1402 1870l-309 -307h-192l267 307h234zM1642 1336l-135 -118q154 -196 112 -501q-20 -143 -78.5 -264.5t-141.5 -206.5t-186.5 -145t-214 -88t-224.5 -28q-139 0 -262.5 44t-213.5 130l-147 -130l-59 68l147 129q-142 194 -102 491q20 141 78 262t140.5 206t186 145.5 t214.5 89.5t225 29q283 0 465 -165l137 121zM403 717q-27 -183 34 -318l825 724q-114 135 -309 135q-93 0 -183 -35.5t-165.5 -102t-130 -171t-71.5 -232.5zM1353 717q28 193 -41 330l-828 -726q54 -71 137.5 -108.5t180.5 -37.5q129 0 243.5 61t199 186.5t108.5 294.5z" glyph-name="Oslashacute" horiz-adv-x="1709" unicode="Ǿ"/><glyph d="M1134 1537l-310 -307h-191l267 307h234zM1363 1073l-152 -133q124 -152 92 -389q-15 -116 -63.5 -212t-115 -160.5t-150 -109t-169.5 -64.5t-174 -20q-227 0 -370 121l-152 -134l-50 56l150 131q-124 151 -89 392q15 113 62.5 207.5t113.5 159.5t149 110.5t170 66.5 t176 21q223 0 368 -123l155 136zM366 551q-19 -135 23 -234l605 532q-82 102 -227 102q-148 0 -261.5 -108.5t-139.5 -291.5zM1057 551q18 135 -24 232l-606 -531q81 -101 227 -101q148 0 262.5 107t140.5 293z" glyph-name="oslashacute" horiz-adv-x="1421" unicode="ǿ"/><glyph d="M94 312q102 -71 209.5 -103.5t236.5 -32.5q87 0 169.5 23.5t142.5 72.5t71 112q6 41 -10 75t-42 56t-76 44t-90 34t-108.5 33t-108.5 34q-170 61 -249 154.5t-53 244.5q31 176 195 283t426 107q224 0 386 -97l-31 -210q-176 118 -382 116q-134 0 -226 -57t-111 -154 q-8 -40 6.5 -72.5t40.5 -55t72.5 -43.5t89 -35t103.5 -31q40 -11 59 -17q98 -31 167 -66t121 -85.5t70.5 -120t3.5 -159.5q-17 -95 -82 -169t-158.5 -118t-201 -66.5t-221.5 -22.5q-276 0 -450 115zM428 -106h220l-163 -464h-189z" glyph-name="Scommaaccent" horiz-adv-x="1315" unicode="Ș"/><glyph d="M96 243q145 -83 356 -91q109 -5 192 31.5t99 105.5q10 50 -26 86t-80 51.5t-145 43.5q-17 5 -26 7q-175 47 -252 128t-58 208q23 146 165 224.5t358 78.5q219 0 348 -76l-26 -181q-136 87 -323 91q-114 3 -187.5 -30t-86.5 -107q-4 -25 2.5 -45t25.5 -38t41 -32t61 -29.5 t73.5 -26.5t89.5 -28q86 -26 140.5 -50t95.5 -60t54.5 -85.5t3.5 -117.5q-15 -99 -95 -173t-190.5 -108.5t-235.5 -34.5q-114 0 -224.5 21t-173.5 57zM399 -106h221l-163 -464h-190z" glyph-name="scommaaccent" horiz-adv-x="1145" unicode="ș"/><glyph d="M1258 1434l-26 -191h-417l-174 -1243h-266l175 1243h-416l27 191h1097zM280 -570l132 464h220l-163 -464h-189z" glyph-name="uni021A" horiz-adv-x="1170" unicode="Ț"/><glyph d="M764 0h-342q-92 0 -141 65t-34 166l98 700h-172l24 171h172l30 215h246l-31 -215h305l-24 -171h-304l-89 -633q-9 -63 17.5 -100t78.5 -37h188zM368 -106h220l-163 -464h-189z" glyph-name="uni021B" horiz-adv-x="997" unicode="ț"/><glyph d="M1339 1243h-800l-62 -431h715l-27 -190h-714l-61 -432h802l-27 -190h-490l-77 -75q9 1 36 1q73 0 111.5 -31.5t30.5 -89.5q-9 -67 -73 -103t-175 -36q-60 0 -113 10l11 80q37 -7 87 -7q116 0 125 61q4 32 -19.5 44t-77.5 12q-27 0 -43 -1l8 57l79 78h-487l201 1434h1067z " glyph-name="uni0228" horiz-adv-x="1418" unicode="Ȩ"/><glyph d="M1213 482h-863q0 -88 34 -154.5t93.5 -104.5t130.5 -56.5t154 -19.5q168 -1 317 68l-23 -168q-154 -61 -373 -62l-61 -60q9 1 35 1q73 0 112 -31.5t31 -89.5q-9 -67 -73 -103t-175 -36q-60 0 -114 10l12 80q37 -7 87 -7q116 0 125 61q4 32 -20 44t-78 12q-27 0 -43 -1 l8 57l67 67q-109 10 -200.5 49t-161.5 105.5t-102 171.5t-13 236q15 113 60.5 207.5t108.5 159.5t142.5 110.5t164 66.5t170.5 21q179 0 301 -79t161 -219.5t-14 -335.5zM758 955q-130 -2 -234 -84.5t-148 -225.5h655q16 77 0 138.5t-57.5 98.5t-97 55.5t-118.5 17.5z" glyph-name="uni0229" horiz-adv-x="1351" unicode="ȩ"/><glyph d="M458 1102l-158 -1120q-11 -79 -42.5 -134t-79.5 -83.5t-101 -40t-121 -11.5q-98 2 -154 32l21 105q72 -14 122 -1q56 6 78.5 40.5t33.5 110.5l155 1102h246z" glyph-name="uni0237" horiz-adv-x="514" unicode="ȷ"/><glyph d="M678 1117q95 0 182 -20.5t163 -65.5t128 -109.5t75 -160t7 -210.5q-15 -113 -61 -207.5t-109 -159.5t-142 -110.5t-163.5 -66.5t-170.5 -21q-179 0 -301 78.5t-161.5 219.5t13.5 336h863q0 88 -33.5 154.5t-93 104t-130.5 56t-154 19.5q-168 1 -318 -67l24 168 q156 62 382 62zM594 146q130 2 234 84.5t148 226.5h-655q-16 -77 0 -138.5t57.5 -98.5t97 -56t118.5 -18z" glyph-name="uni0259" horiz-adv-x="1351" unicode="ə"/><glyph d="M569 1434l-24 -170h-294l24 170h294zM583 710l-27 -191h-139l-73 -519h-246l73 519h-139l26 191h140l55 392h246l-56 -392h140z" glyph-name="uni0268" horiz-adv-x="595" unicode="ɨ"/><glyph d="M978 1230h-191l-130 235l-195 -235h-192l267 307h263z" glyph-name="circumflex" horiz-adv-x="1058" unicode="ˆ"/><glyph d="M830 1537h192l-265 -307h-264l-179 307h191l131 -234z" glyph-name="caron" horiz-adv-x="1058" unicode="ˇ"/><glyph d="M904 1490q-33 -117 -125 -188.5t-210 -71.5q-119 0 -191 71.5t-71 188.5h152q-4 -58 31 -97t97 -39q60 0 106.5 39t59.5 97h151z" glyph-name="breve" horiz-adv-x="947" unicode="˘"/><glyph d="M297 1419h239l-27 -189h-239z" glyph-name="dotaccent" horiz-adv-x="588" unicode="˙"/><glyph d="M491.5 1230q-91.5 0 -147 65.5t-42.5 155.5q13 91 87 156t165 65t147.5 -65t43 -156t-87.5 -156t-165.5 -65zM509 1351q41 0 75 29.5t40 70.5q6 42 -19.5 71.5t-66.5 29.5t-75.5 -29.5t-40.5 -71.5q-5 -41 20.5 -70.5t66.5 -29.5z" glyph-name="ring" horiz-adv-x="793" unicode="˚"/><glyph d="M73 -182q5 55 50 104.5t143 77.5h144q-177 -63 -182 -153q-4 -46 51.5 -61t128.5 3l-5 -106q-88 -19 -164 -13.5t-124.5 46t-41.5 102.5z" glyph-name="ogonek" horiz-adv-x="700" unicode="˛"/><glyph d="M271 1231q14 108 75.5 167.5t142.5 59.5q39 0 78 -15.5t65.5 -34t60.5 -34t63 -15.5q32 0 56 26.5t31 67.5h126q-14 -108 -76.5 -167t-142.5 -59q-52 0 -136.5 49t-123.5 49q-36 -1 -61 -27t-32 -68z" glyph-name="tilde" horiz-adv-x="1017" unicode="˜"/><glyph d="M646 1558l-211 -328h-165l208 328h168zM909 1558l-210 -328h-164l206 328h168z" glyph-name="hungarumlaut" horiz-adv-x="943" unicode="˝"/><glyph d="M-494 1537h234l180 -307h-191z" glyph-name="gravecomb" unicode="̀"/><glyph d="M-37 1537l-309 -307h-192l268 307h233z" glyph-name="acutecomb" unicode="́"/><glyph d="M-81 1230h-190l-130 235l-196 -235h-191l266 307h263z" glyph-name="uni0302" unicode="̂"/><glyph d="M-746 1231q14 108 75 167.5t143 59.5q39 0 77.5 -15.5t65.5 -34t60.5 -34t62.5 -15.5q32 0 56 26.5t31 67.5h126q-14 -108 -76 -167t-143 -59q-52 0 -136 49t-123 49q-36 -1 -61 -27t-33 -68z" glyph-name="tildecomb" unicode="̃"/><glyph d="M-596 1376h537l-21 -146h-536z" glyph-name="uni0304" unicode="̄"/><glyph d="M-43 1490q-33 -117 -125 -188.5t-210 -71.5q-119 0 -191 71.5t-71 188.5h152q-4 -58 31 -97t97 -39q60 0 106.5 39t58.5 97h152z" glyph-name="uni0306" unicode="̆"/><glyph d="M-292 1419h239l-27 -189h-238z" glyph-name="uni0307" unicode="̇"/><glyph d="M-695 1419h238l-26 -189h-239zM-291 1419h238l-27 -189h-237z" glyph-name="uni0308" unicode="̈"/><glyph d="M-302 1230q-91 0 -147 65.5t-43 155.5q13 91 87 156t165.5 65t147.5 -65t43 -156t-87.5 -156t-165.5 -65zM-285 1351q41 0 75.5 29.5t39.5 70.5q6 42 -19.5 71.5t-66.5 29.5t-75.5 -29.5t-40.5 -71.5q-5 -41 20.5 -70.5t66.5 -29.5z" glyph-name="uni030A" unicode="̊"/><glyph d="M-297 1558l-211 -328h-165l208 328h168zM-34 1558l-210 -328h-165l207 328h168z" glyph-name="uni030B" unicode="̋"/><glyph d="M-228 1537h191l-265 -307h-264l-178 307h190l131 -234z" glyph-name="uni030C" unicode="̌"/><glyph d="M-89 1234h-221l164 464h189z" glyph-name="uni0312" unicode="̒"/><glyph d="M-516 -181h238l-26 -190h-239z" glyph-name="dotbelowcomb" unicode="̣"/><glyph d="M-449 -106h221l-163 -464h-190z" glyph-name="uni0326" unicode="̦"/><glyph d="M-422 -71q73 0 112 -31.5t30 -88.5q-9 -67 -73 -103.5t-174 -36.5q-60 0 -114 10l11 80q37 -7 87 -7q116 0 125 61q4 32 -19.5 44t-77.5 12q-27 0 -43 -1l8 57l81 80h90l-79 -77q9 1 36 1z" glyph-name="uni0327" unicode="̧"/><glyph d="M-628 -182q5 55 50.5 104.5t143.5 77.5h143q-177 -63 -181 -153q-4 -46 51 -61t128 3l-4 -106q-88 -19 -164.5 -13.5t-125 46t-41.5 102.5z" glyph-name="uni0328" unicode="̨"/><glyph d="M554 1737h239l-27 -190h-239zM958 1737h238l-27 -190h-237zM390 190h802l-27 -190h-1067l201 1434h1067l-27 -191h-800l-62 -431h715l-27 -190h-714z" glyph-name="afii10023" horiz-adv-x="1418" unicode="Ё"/><glyph d="M1140 0l-69 304h-682l-155 -304h-280l752 1434h365l349 -1434h-280zM485 495h543l-167 741z" glyph-name="afii10017" horiz-adv-x="1528" unicode="А"/><glyph d="M497 940q474 -7 667.5 -118.5t156.5 -369.5q-30 -214 -191 -333t-404 -119h-628l202 1434h937l-24 -171h-671zM1056 452q23 163 -110 233.5t-475 74.5l-82 -579h348q127 0 214 71.5t105 199.5z" glyph-name="afii10018" horiz-adv-x="1454" unicode="Б"/><glyph d="M299 1434h714q169 0 267.5 -95.5t74.5 -272.5q-15 -109 -75 -194t-142 -120q105 -33 156 -124t30 -234q-11 -80 -44 -146t-81 -111.5t-109 -76.5t-128 -45.5t-140 -14.5h-724zM541 1261l-65 -457h354q108 0 180 53.5t90 173.5q32 229 -205 230h-354zM786 168 q109 -1 183 57.5t91 178.5t-40 176t-167 56h-400l-66 -466z" glyph-name="afii10019" horiz-adv-x="1460" unicode="В"/><glyph d="M1033 1434l-26 -191h-468l-175 -1243h-266l201 1434h734z" glyph-name="afii10020" horiz-adv-x="946" unicode="Г"/><glyph d="M1565 1434l-174 -1244h112l-63 -456h-221l37 266h-935l-38 -266h-221l37 266l1 4h-2l7 37l21 149h6l1 5q123 -1 176 72.5t80 268.5l126 898h1050zM755 1243l-111 -784q-23 -161 -92 -269h572l148 1053h-517z" glyph-name="afii10021" horiz-adv-x="1729" unicode="Д"/><glyph d="M390 190h802l-27 -190h-1067l201 1434h1067l-27 -191h-800l-62 -431h715l-27 -190h-714z" glyph-name="afii10022" horiz-adv-x="1418" unicode="Е"/><glyph d="M2234 1434l-720 -702l519 -732h-298l-499 703l-99 -703h-266l99 703l-697 -703h-298l724 732l-522 702h298l503 -674l94 674h266l-95 -674l693 674h298z" glyph-name="afii10024" horiz-adv-x="2162" unicode="Ж"/><glyph d="M636 157q85 0 158 28t125.5 87t63.5 140q16 118 -64.5 188t-210.5 70h-199l22 171h201q110 0 195 58.5t99 159.5q14 99 -54 158t-179 59t-195 -59t-98 -158l-235 10q13 92 65.5 166t130.5 119t169 68.5t187 23.5t180.5 -23.5t149 -68.5t97 -119t19.5 -166 q-13 -106 -79 -183.5t-161 -121.5q115 -46 179 -139t46 -224q-11 -85 -53 -155t-103.5 -117.5t-141 -80.5t-164.5 -47.5t-175 -14.5t-170.5 14.5t-150 47.5t-117 80.5t-70 117.5t-10.5 155l268 11q-17 -121 63.5 -188t211.5 -67z" glyph-name="afii10025" horiz-adv-x="1382" unicode="З"/><glyph d="M565 1434l-146 -1038l877 1038h274l-202 -1434h-266l147 1047l-878 -1047h-274l203 1434h265z" glyph-name="afii10026" horiz-adv-x="1620" unicode="И"/><glyph d="M1287 1822q-33 -117 -125 -188.5t-210 -71.5q-119 0 -191 71.5t-71 188.5h152q-4 -58 31 -97t97 -39q60 0 106.5 38.5t59.5 97.5h151zM565 1434l-146 -1038l877 1038h274l-202 -1434h-266l147 1047l-878 -1047h-274l203 1434h265z" glyph-name="afii10027" horiz-adv-x="1620" unicode="Й"/><glyph d="M1461 1434l-720 -702l519 -732h-298l-499 703l-99 -703h-266l201 1434h266l-95 -674l693 674h298z" glyph-name="afii10028" horiz-adv-x="1389" unicode="К"/><glyph d="M1471 1434l-200 -1430h-265l174 1239h-518l-110 -784q-37 -255 -185 -371t-361 -84l35 191q122 -1 175 72.5t81 268.5l126 898h1048z" glyph-name="afii10029" horiz-adv-x="1523" unicode="Л"/><glyph d="M1544 1434h373l-201 -1434h-266l156 1102l-553 -938h-245l-289 938l-155 -1102h-266l201 1434h373l300 -975z" glyph-name="afii10030" horiz-adv-x="1969" unicode="М"/><glyph d="M1251 1434h267l-202 -1434h-265l87 622h-687l-87 -622h-266l201 1434h266l-88 -622h687z" glyph-name="afii10031" horiz-adv-x="1568" unicode="Н"/><glyph d="M1619 717q-20 -143 -78.5 -264.5t-141.5 -206.5t-186.5 -145t-214 -88t-224.5 -28t-216 28t-188 88t-145 145t-83.5 206t-4.5 265q20 141 78 262t140.5 206t186 145.5t214.5 89.5t225 29q94 0 181.5 -20.5t165 -61.5t138.5 -102.5t101.5 -142.5t54 -182t-2.5 -223z M802 175q129 0 243.5 61t199 186.5t108.5 294.5q18 128 -6.5 232.5t-82 171t-137 102t-174.5 35.5q-93 0 -183 -35.5t-165.5 -102t-129.5 -171t-72 -232.5t6 -232.5t80.5 -171t137 -102.5t175.5 -36z" glyph-name="afii10032" horiz-adv-x="1709" unicode="О"/><glyph d="M1456 1434l-202 -1434h-265l174 1243h-624l-175 -1243h-266l201 1434h1157z" glyph-name="afii10033" horiz-adv-x="1507" unicode="П"/><glyph d="M928 1434q243 0 370.5 -119t97.5 -333q-36 -258 -261.5 -369.5t-701.5 -118.5l-69 -494h-266l201 1434h629zM1129 982q18 128 -48 199t-194 71h-347l-81 -578q232 3 373 35t211.5 97.5t85.5 175.5z" glyph-name="afii10034" horiz-adv-x="1448" unicode="Р"/><glyph d="M1312 1170q-167 90 -359 80q-96 -5 -184.5 -39.5t-164.5 -98t-129.5 -165.5t-71.5 -230q-17 -127 7.5 -229t83 -166t137.5 -99t173 -40q187 -10 381 80l-29 -205q-178 -74 -380 -73q-94 0 -182 20.5t-165.5 61.5t-138.5 102t-101.5 142t-54 183t2.5 223q20 141 78 262 t141 206t186 145.5t214.5 89.5t225.5 29q201 0 359 -74z" glyph-name="afii10035" horiz-adv-x="1399" unicode="С"/><glyph d="M1258 1434l-26 -191h-417l-174 -1243h-266l175 1243h-416l27 191h1097z" glyph-name="afii10036" horiz-adv-x="1170" unicode="Т"/><glyph d="M1098 1434h272l-617 -1056q-39 -66 -78.5 -119t-105 -115t-138.5 -103.5t-177 -67.5t-222 -23l13 160q292 0 409 271l-291 1053h273l203 -826z" glyph-name="afii10037" horiz-adv-x="1292" unicode="У"/><glyph d="M1071 1293q338 -13 510 -164.5t136 -411.5q-37 -260 -251.5 -411t-556.5 -165l-19 -141h-121l19 141q-342 12 -512 164t-133 412q36 259 249 411t558 165l20 141h121zM408.5 717q-24.5 -173 81.5 -273t325 -111l109 768q-222 -11 -356.5 -111t-159 -273zM1451 717 q24 171 -82 271.5t-325 112.5l-108 -768q222 12 356 113t159 271z" glyph-name="afii10038" horiz-adv-x="1812" unicode="Ф"/><glyph d="M1538 1434l-593 -709l413 -725h-296l-321 555l-470 -555h-296l617 725l-393 709h291l306 -536l449 536h293z" glyph-name="afii10039" horiz-adv-x="1486" unicode="Х"/><glyph d="M1457 1434l-176 -1244h118l-50 -354h-191l23 164h-1083l202 1434h266l-175 -1244h626l174 1244h266z" glyph-name="afii10040" horiz-adv-x="1624" unicode="Ц"/><glyph d="M1134 1434h266l-202 -1434h-265l95 684q-161 -225 -479 -225q-206 0 -281 106.5t-46 319.5l77 549h266l-57 -410q-23 -157 21 -238t172 -81q114 0 213 60t149 164z" glyph-name="afii10041" horiz-adv-x="1451" unicode="Ч"/><glyph d="M2082 1434h266l-203 -1434h-2047l202 1434h266l-175 -1244h625l175 1244h266l-175 -1244h626z" glyph-name="afii10042" horiz-adv-x="2399" unicode="Ш"/><glyph d="M2348 1434l-176 -1244h117l-50 -354h-191l24 164h-1974l202 1434h266l-175 -1244h625l175 1244h266l-175 -1244h626l174 1244h266z" glyph-name="afii10043" horiz-adv-x="2514" unicode="Щ"/><glyph d="M592 940q474 -7 668 -118.5t157 -369.5q-31 -214 -191.5 -333t-403.5 -119h-628l175 1243h-272l27 191h538zM1151 452q24 163 -109 233.5t-475 74.5l-82 -579h348q128 0 214.5 71.5t103.5 199.5z" glyph-name="afii10044" horiz-adv-x="1550" unicode="Ъ"/><glyph d="M726 0h-628l202 1434h265l-68 -494q474 -7 667.5 -118.5t156.5 -369.5q-30 -214 -191 -333t-404 -119zM1714 0h-265l201 1434h266zM471 760l-82 -579h348q127 0 213.5 71.5t105.5 199.5q23 163 -110 233.5t-475 74.5z" glyph-name="afii10045" horiz-adv-x="1967" unicode="Ы"/><glyph d="M726 0h-628l202 1434h265l-68 -494q474 -7 667.5 -118.5t156.5 -369.5q-30 -214 -191 -333t-404 -119zM471 760l-82 -579h348q127 0 213.5 71.5t105.5 199.5q23 163 -110 233.5t-475 74.5z" glyph-name="afii10046" horiz-adv-x="1454" unicode="Ь"/><glyph d="M719 1449q94 0 182 -20.5t165.5 -61.5t138.5 -102.5t101.5 -142.5t54 -182t-2.5 -223q-20 -141 -78 -262t-141 -206t-186 -145.5t-214.5 -89.5t-225.5 -29q-201 0 -359 73l29 205q167 -90 359 -80q118 6 222.5 55t189.5 150.5t121 243.5h-688l25 170h687q3 108 -29 192.5 t-88.5 138.5t-130.5 83.5t-160 33.5q-187 10 -381 -80l29 205q180 74 380 74z" glyph-name="afii10047" horiz-adv-x="1447" unicode="Э"/><glyph d="M1631 1449q94 0 182 -20.5t165 -61.5t138 -102.5t101.5 -142.5t54.5 -182t-3 -223q-20 -143 -78.5 -264.5t-141.5 -206.5t-186.5 -145t-214 -88t-224.5 -28q-133 0 -249.5 40.5t-207.5 116.5t-142 200t-46 280h-328l-87 -622h-266l201 1434h266l-87 -622h328 q38 154 123.5 277t198 200.5t241.5 118.5t262 41zM2003 717q18 128 -6.5 232.5t-81.5 171t-137 102t-174 35.5q-93 0 -183.5 -35.5t-165.5 -102t-129.5 -171t-71.5 -232.5q-18 -128 5.5 -232.5t80 -171t137 -102.5t175.5 -36q129 0 243.5 61t199 186.5t108.5 294.5z" glyph-name="afii10048" horiz-adv-x="2359" unicode="Ю"/><glyph d="M814 1434h629l-203 -1434h-265l69 494q-210 3 -352 23l-386 -517h-269l426 571q-147 55 -206.5 155t-37.5 256q31 214 191.5 333t403.5 119zM1069 674l82 578h-347q-128 0 -214.5 -71t-105.5 -199q-15 -110 36.5 -175.5t184 -97.5t364.5 -35z" glyph-name="afii10049" horiz-adv-x="1494" unicode="Я"/><glyph d="M744 1116q261 0 371.5 -105.5t80.5 -320.5l-97 -690h-236l9 143q-199 -165 -484 -158q-164 4 -242.5 81t-66.5 198q22 226 238.5 333.5t628.5 69.5l5 39q13 121 -47.5 176.5t-211.5 61.5q-180 9 -379 -79l25 169q181 82 406 82zM894 298l31 215q-292 31 -444.5 -19.5 t-170.5 -187.5q-10 -87 47.5 -120t182.5 -31q110 1 203.5 44t150.5 99z" glyph-name="afii10065" horiz-adv-x="1330" unicode="а"/><glyph d="M828 1243q-135 0 -226 -78t-152 -255q154 71 331 71q88 0 169 -18.5t151 -58.5t118.5 -97t69 -140.5t4.5 -183.5q-19 -126 -86.5 -224t-163.5 -156t-203.5 -87t-217.5 -29q-88 0 -168.5 17.5t-151 56.5t-118.5 95.5t-69 141t-4 185.5q30 212 79.5 371.5t114 265 t150.5 171.5t182 93.5t215 27.5q250 0 453 51v-169q-206 -51 -477 -51zM757.5 836q-148.5 0 -262 -95.5t-139.5 -257.5q-26 -164 58 -257.5t231 -93.5q96 0 180.5 40t144.5 121t78 190q26 162 -58 257.5t-232.5 95.5z" glyph-name="afii10066" horiz-adv-x="1421" unicode="б"/><glyph d="M232 1102h654q174 0 273 -73t80 -210q-12 -87 -68.5 -153t-138.5 -88q105 -22 159.5 -93.5t38.5 -182.5q-10 -76 -53 -134.5t-110.5 -94.5t-149.5 -54.5t-177 -18.5h-662zM460 966l-49 -346h313q236 0 261 173q13 94 -44 133.5t-168 39.5h-313zM699 131q111 -1 182 42.5 t84.5 136.5t-46 135t-168.5 42h-359l-50 -354z" glyph-name="afii10067" horiz-adv-x="1384" unicode="в"/><glyph d="M949 1102l-23 -171h-471l-131 -931h-246l154 1102h717z" glyph-name="afii10068" horiz-adv-x="945" unicode="г"/><glyph d="M1356 1102l-131 -931h100l-23 -171l-29 -205h-246l29 205h-732l-29 -205h-246l52 376h15q98 2 146 71t70 229l89 631h935zM486 171h494l106 760h-443l-75 -529q-20 -135 -82 -231z" glyph-name="afii10069" horiz-adv-x="1533" unicode="д"/><glyph d="M1213 482h-863q0 -88 34 -154.5t93.5 -104.5t130.5 -56.5t154 -19.5q168 -1 317 68l-23 -168q-157 -62 -382 -62q-95 0 -182.5 20.5t-163 65.5t-128 109.5t-75.5 160t-6 210.5q15 113 60.5 207.5t108.5 159.5t142.5 110.5t164 66.5t170.5 21q179 0 301 -79t161 -219.5 t-14 -335.5zM758 955q-130 -2 -234 -84.5t-148 -225.5h655q16 77 0 138.5t-57.5 98.5t-97 55.5t-118.5 17.5z" glyph-name="afii10070" horiz-adv-x="1351" unicode="е"/><glyph d="M1890 1102l-568 -540l414 -562h-271l-396 540l-76 -540h-245l75 540l-548 -540h-270l572 562l-416 540h269l399 -518l73 518h246l-73 -518l545 518h270z" glyph-name="afii10072" horiz-adv-x="1895" unicode="ж"/><glyph d="M554 123q116 0 195 50.5t93 142.5q12 92 -52.5 145t-181.5 53h-170l19 133h171q99 0 166 44t78 124q10 76 -44.5 119.5t-152.5 43.5q-95 0 -165 -43t-80 -120l-212 7q19 141 151 215.5t324 74.5q194 0 304 -74t90 -216q-11 -82 -61.5 -141t-124.5 -93q89 -36 138.5 -107 t35.5 -172q-14 -109 -92 -182.5t-191 -105.5t-256 -32q-106 0 -192 19t-148.5 56.5t-91.5 100t-18 144.5l236 7q-13 -92 54 -142.5t178 -50.5z" glyph-name="afii10073" horiz-adv-x="1228" unicode="з"/><glyph d="M478 1102l-109 -784l665 784h247l-155 -1102h-245l110 791l-665 -791h-248l154 1102h246z" glyph-name="afii10074" horiz-adv-x="1358" unicode="и"/><glyph d="M1110 1490q-33 -117 -125 -188.5t-210 -71.5q-119 0 -191 71.5t-71 188.5h152q-4 -58 31 -97t97 -39q60 0 106.5 39t58.5 97h152zM478 1102l-109 -784l665 784h247l-155 -1102h-245l110 791l-665 -791h-248l154 1102h246z" glyph-name="afii10075" horiz-adv-x="1358" unicode="й"/><glyph d="M1303 1102l-645 -540l490 -562h-283l-466 539l-75 -539h-246l154 1102h246l-72 -517l614 517h283z" glyph-name="afii10076" horiz-adv-x="1307" unicode="к"/><glyph d="M1320 1102l-155 -1102h-245l131 931h-444l-75 -529q-32 -220 -168 -325.5t-322 -76.5l24 171q106 -2 156 66t74 234l89 631h935z" glyph-name="afii10077" horiz-adv-x="1397" unicode="л"/><glyph d="M1265 1102h357l-155 -1102h-245l116 834l-431 -707h-234l-232 707l-117 -834h-246l154 1102h358l232 -747z" glyph-name="afii10078" horiz-adv-x="1699" unicode="м"/><glyph d="M1031 1102h246l-155 -1102h-245l67 478h-553l-67 -478h-246l154 1102h246l-63 -453h553z" glyph-name="afii10079" horiz-adv-x="1354" unicode="н"/><glyph d="M1303 551q-15 -116 -63.5 -212t-115 -160.5t-150 -109t-169.5 -64.5t-174 -20q-87 0 -167.5 20t-151 64.5t-119 109t-69.5 160.5t-4 212q15 113 62.5 207.5t113.5 159.5t149 110.5t170 66.5t175.5 21t169 -21t151 -66.5t118.5 -110.5t68.5 -159.5t5.5 -207.5zM654 151 q148 0 262.5 107t140.5 293q26 183 -58 291.5t-232.5 108.5t-262 -108.5t-138.5 -291.5q-26 -186 57.5 -293t230.5 -107z" glyph-name="afii10080" horiz-adv-x="1421" unicode="о"/><glyph d="M1247 1102l-154 -1102h-246l131 931h-523l-131 -931h-246l154 1102h1015z" glyph-name="afii10081" horiz-adv-x="1325" unicode="п"/><glyph d="M1318 551q-19 -141 -78 -251.5t-143 -178t-184.5 -101.5t-211.5 -34q-268 0 -353 182l-85 -602h-246l216 1536h201l-15 -181q154 197 442 196q110 0 200 -33t156 -99t93.5 -178t7.5 -256zM801 951q-126 0 -231.5 -79.5t-148.5 -239.5l-25 -181q2 -145 85.5 -225.5 t205.5 -80.5q148 0 257.5 109.5t135.5 296.5q27 186 -53 293t-226 107z" glyph-name="afii10082" horiz-adv-x="1436" unicode="р"/><glyph d="M1101 871q-129 73 -309 66q-104 -5 -193 -47.5t-153.5 -130t-80.5 -208.5q-25 -180 66.5 -279.5t251.5 -106.5q175 -7 328 64l-26 -182q-155 -62 -354 -62q-88 0 -169 21t-151 66.5t-118.5 110.5t-69.5 160t-4 208q15 113 62.5 207.5t114 159.5t149.5 110.5t170 66.5 t176 21q201 0 336 -62z" glyph-name="afii10083" horiz-adv-x="1175" unicode="с"/><glyph d="M1176 1102l-24 -171h-408l-131 -931h-245l131 931h-409l24 171h1062z" glyph-name="afii10084" horiz-adv-x="1134" unicode="т"/><glyph d="M1053 1102h259l-589 -1056q-37 -66 -74.5 -119t-100 -115t-132 -103.5t-169.5 -68t-212 -23.5l13 161q278 0 390 271l-277 1053h261l192 -827z" glyph-name="afii10085" horiz-adv-x="1317" unicode="у"/><glyph d="M883 1114q86 -6 162.5 -31t142.5 -71.5t110 -110.5t62 -154.5t3 -195.5q-18 -134 -81 -240.5t-153.5 -173t-192.5 -104t-212 -45.5l-24 -167h-120l23 166q-86 6 -162 30t-142.5 70t-110.5 109.5t-62 154.5t-3 200q19 130 81.5 235.5t151.5 172.5t192 106t214 48l19 141 h121zM1106 551q24 165 -46 270.5t-201 125.5l-111 -791q136 20 235 124.5t123 270.5zM381 551q-25 -168 44.5 -272.5t201.5 -123.5l111 791q-135 -22 -234 -126.5t-123 -268.5z" glyph-name="afii10086" horiz-adv-x="1483" unicode="ф"/><glyph d="M1260 1102l-452 -537l297 -565h-258l-231 438l-353 -438h-258l456 565l-300 537h257l233 -416l350 416h259z" glyph-name="afii10087" horiz-adv-x="1265" unicode="х"/><glyph d="M1267 1102l-131 -931h116l-46 -335h-245l22 164h-885l155 1102h246l-131 -931h522l131 931h246z" glyph-name="afii10088" horiz-adv-x="1410" unicode="ц"/><glyph d="M965 1102h245l-154 -1102h-246l69 490q-130 -178 -387 -178q-178 0 -262 84.5t-61 247.5l63 458h246l-46 -330q-16 -121 26 -184.5t156 -63.5q95 0 174.5 47t119.5 128z" glyph-name="afii10089" horiz-adv-x="1288" unicode="ч"/><glyph d="M1615 1102h246l-155 -1102h-1628l154 1102h246l-131 -931h446l131 931h245l-131 -931h446z" glyph-name="afii10090" horiz-adv-x="1938" unicode="ш"/><glyph d="M1861 1102l-131 -931h116l-47 -335h-246l24 164h-1499l154 1102h246l-131 -931h446l131 931h245l-131 -931h446l131 931h246z" glyph-name="afii10091" horiz-adv-x="2003" unicode="щ"/><glyph d="M595 725q396 -5 556 -92t131 -287q-24 -165 -156.5 -255.5t-344.5 -90.5h-533l131 931h-206l24 171h451zM1039 346q12 85 -28 135.5t-145 76t-291 27.5l-62 -445h275q101 0 169.5 54t81.5 152z" glyph-name="afii10092" horiz-adv-x="1429" unicode="ъ"/><glyph d="M611 0h-533l154 1102h246l-52 -377q395 -5 555 -92t131 -287q-23 -165 -156 -255.5t-345 -90.5zM1419 1102h246l-155 -1102h-245zM406 585l-63 -445h277q101 0 168.5 54t81.5 152q12 85 -28.5 135.5t-145.5 76t-290 27.5z" glyph-name="afii10093" horiz-adv-x="1743" unicode="ы"/><glyph d="M611 0h-533l154 1102h246l-52 -377q395 -5 555 -92t131 -287q-23 -165 -156 -255.5t-345 -90.5zM406 585l-63 -445h277q101 0 168.5 54t81.5 152q12 85 -28.5 135.5t-145.5 76t-290 27.5z" glyph-name="afii10094" horiz-adv-x="1260" unicode="ь"/><glyph d="M601 1116q88 0 169 -21t151 -66.5t118 -110.5t69 -159.5t5 -207.5q-15 -113 -63 -208t-114.5 -160t-149.5 -110.5t-169.5 -66.5t-174.5 -21q-201 0 -337 62l26 182q132 -72 309 -64q140 6 251.5 83t156.5 217h-586l25 171h585q-5 140 -94.5 217.5t-228.5 83.5 q-178 7 -328 -66l26 183q152 62 354 62z" glyph-name="afii10095" horiz-adv-x="1232" unicode="э"/><glyph d="M1333 1116q88 0 169 -21t151 -66.5t118.5 -110.5t69 -159.5t4.5 -207.5q-15 -116 -63 -212t-114.5 -160.5t-150 -109t-169.5 -64.5t-174 -20q-80 0 -154.5 16.5t-141.5 54t-116.5 91.5t-78.5 133t-29 176h-267l-63 -456h-246l154 1102h246l-63 -456h267 q33 117 102.5 208.5t159 147.5t189 85t200.5 29zM1599 551q26 183 -57.5 291.5t-232 108.5t-262 -108.5t-140.5 -291.5q-26 -186 58.5 -293t231.5 -107q148 0 262 107t140 293z" glyph-name="afii10096" horiz-adv-x="1964" unicode="ю"/><glyph d="M723 1102h533l-154 -1102h-246l53 381q-156 1 -275 15l-306 -396h-249l340 441q-121 42 -168.5 118.5t-30.5 195.5q23 166 155.5 256.5t347.5 90.5zM929 522l62 439h-276q-101 0 -168.5 -55t-80.5 -151q-17 -124 86 -177.5t377 -55.5z" glyph-name="afii10097" horiz-adv-x="1334" unicode="я"/><glyph d="M725 1419l-27 -189h-238l26 189h239zM1128 1419l-26 -189h-238l27 189h237zM1213 482h-863q0 -88 34 -154.5t93.5 -104.5t130.5 -56.5t154 -19.5q168 -1 317 68l-23 -168q-157 -62 -382 -62q-95 0 -182.5 20.5t-163 65.5t-128 109.5t-75.5 160t-6 210.5 q15 113 60.5 207.5t108.5 159.5t142.5 110.5t164 66.5t170.5 21q179 0 301 -79t161 -219.5t-14 -335.5zM758 955q-130 -2 -234 -84.5t-148 -225.5h655q16 77 0 138.5t-57.5 98.5t-97 55.5t-118.5 17.5z" glyph-name="afii10071" horiz-adv-x="1351" unicode="ё"/><glyph d="M1014 1537l-309 -307h-192l267 307h234zM949 1102l-23 -171h-471l-131 -931h-246l154 1102h717z" glyph-name="afii10100" horiz-adv-x="945" unicode="ѓ"/><glyph d="M275 1434h294l-24 -170h-294zM499 1102l-158 -1120q-11 -79 -42.5 -134t-79.5 -83.5t-101 -40t-121 -11.5q-98 2 -154 32l21 105q72 -14 122 -1q56 6 78.5 40.5t33.5 110.5l155 1102h246z" glyph-name="afii10105" horiz-adv-x="595" unicode="ј"/><glyph d="M1170 1537l-309 -307h-191l267 307h233zM1303 1102l-645 -540l490 -562h-283l-466 539l-75 -539h-246l154 1102h246l-72 -517l614 517h283z" glyph-name="afii10109" horiz-adv-x="1307" unicode="ќ"/><glyph d="M299 1434h714q169 0 267.5 -95.5t74.5 -272.5q-15 -109 -75 -194t-142 -120q105 -33 156 -124t30 -234q-11 -80 -44 -146t-81 -111.5t-109 -76.5t-128 -45.5t-140 -14.5h-724zM541 1261l-65 -457h354q108 0 180 53.5t90 173.5q32 229 -205 230h-354zM786 168 q109 -1 183 57.5t91 178.5t-40 176t-167 56h-400l-66 -466zM521 -181h239l-27 -190h-238z" glyph-name="uni1E04" horiz-adv-x="1460" unicode="Ḅ"/><glyph d="M1318 551q-20 -144 -79 -256t-144 -178t-184.5 -99t-209.5 -33q-289 0 -386 196l-35 -181h-202l216 1536h246l-85 -602q138 182 406 182q111 0 201 -34t155.5 -102t92.5 -178t8 -251zM688 151q147 0 256.5 106.5t136 293.5t-52.5 296t-226 109q-123 0 -229 -79.5 t-149 -225.5l-26 -181q-2 -160 81 -239.5t209 -79.5zM486 -181h239l-27 -190h-238z" glyph-name="uni1E05" horiz-adv-x="1436" unicode="ḅ"/><glyph d="M1490 717q-25 -180 -99.5 -319.5t-184.5 -225t-243.5 -129t-283.5 -43.5h-581l201 1434h581q151 0 272.5 -44.5t206.5 -131t120.5 -225.5t10.5 -316zM680 190q212 0 361 141t184 386q34 245 -77 385.5t-320 140.5h-289l-149 -1053h290zM561 -181h239l-27 -190h-238z" glyph-name="uni1E0C" horiz-adv-x="1581" unicode="Ḍ"/><glyph d="M119 551q19 141 78 251t143 178t184.5 102t210.5 34q268 0 354 -182l86 602h245l-216 -1536h-202l16 181q-154 -197 -443 -196q-110 0 -199.5 33t-155.5 99t-93.5 178t-7.5 256zM636 151q126 0 231.5 79.5t148.5 239.5l25 181q-3 145 -86.5 225t-204.5 80 q-147 0 -257 -108.5t-137 -296.5q-27 -186 53.5 -293t226.5 -107zM485 -181h239l-27 -190h-238z" glyph-name="uni1E0D" horiz-adv-x="1435" unicode="ḍ"/><glyph d="M1251 1434h267l-202 -1434h-265l87 622h-687l-87 -622h-266l201 1434h266l-88 -622h687zM562 -181h239l-27 -190h-238z" glyph-name="uni1E24" horiz-adv-x="1568" unicode="Ḥ"/><glyph d="M323 0h-245l216 1536h246l-86 -617q101 114 220.5 155.5t271.5 41.5q181 0 266.5 -108t54.5 -335l-95 -673h-245l86 613q46 328 -204 328q-121 0 -238 -83t-159 -232zM457 -181h238l-26 -190h-239z" glyph-name="uni1E25" horiz-adv-x="1404" unicode="ḥ"/><glyph d="M565 1434l-175 -1244h756l-27 -190h-1021l201 1434h266zM469 -181h239l-27 -190h-239z" glyph-name="uni1E36" horiz-adv-x="1315" unicode="Ḷ"/><glyph d="M294 1536h246l-216 -1536h-246zM56 -181h239l-27 -190h-238z" glyph-name="uni1E37" horiz-adv-x="556" unicode="ḷ"/><glyph d="M1531 1870l-309 -307h-192l267 307h234zM1544 1434h373l-201 -1434h-266l156 1102l-553 -938h-245l-289 938l-155 -1102h-266l201 1434h373l300 -975z" glyph-name="uni1E3E" horiz-adv-x="1969" unicode="Ḿ"/><glyph d="M1573 1538l-309 -307h-192l267 307h234zM1715 1116q194 0 275.5 -117.5t44.5 -385.5l-87 -613h-246l87 613q24 171 -27.5 249.5t-170.5 78.5q-84 0 -159 -36t-133.5 -115t-77.5 -190l-85 -600h-246l87 613q24 171 -27.5 249.5t-170.5 78.5q-131 0 -233 -90.5t-139 -263.5 l-84 -587h-245l155 1102h246l-25 -183q97 116 200 156.5t249 40.5q137 0 217.5 -57.5t104.5 -182.5q74 120 204 180t286 60z" glyph-name="uni1E3F" horiz-adv-x="2180" unicode="ḿ"/><glyph d="M859 1751h239l-27 -189h-238zM1304 1434h266l-202 -1434h-273l-584 1047l-147 -1047h-266l201 1434h273l586 -1038z" glyph-name="uni1E44" horiz-adv-x="1620" unicode="Ṅ"/><glyph d="M705 1419h238l-27 -189h-238zM323 0h-245l155 1102h246l-25 -183q101 114 220.5 155.5t271.5 41.5q181 0 266.5 -108t54.5 -335l-95 -673h-245l86 613q46 328 -204 328q-121 0 -238 -83t-159 -232z" glyph-name="uni1E45" horiz-adv-x="1404" unicode="ṅ"/><glyph d="M1304 1434h266l-202 -1434h-273l-584 1047l-147 -1047h-266l201 1434h273l586 -1038zM589 -181h238l-26 -190h-239z" glyph-name="uni1E46" horiz-adv-x="1620" unicode="Ṇ"/><glyph d="M323 0h-245l155 1102h246l-25 -183q101 114 220.5 155.5t271.5 41.5q181 0 266.5 -108t54.5 -335l-95 -673h-245l86 613q46 328 -204 328q-121 0 -238 -83t-159 -232zM480 -181h239l-27 -190h-238z" glyph-name="uni1E47" horiz-adv-x="1404" unicode="ṇ"/><glyph d="M94 312q102 -71 209.5 -103.5t236.5 -32.5q87 0 169.5 23.5t142.5 72.5t71 112q6 41 -10 75t-42 56t-76 44t-90 34t-108.5 33t-108.5 34q-170 61 -249 154.5t-53 244.5q31 176 195 283t426 107q224 0 386 -97l-31 -210q-176 118 -382 116q-134 0 -226 -57t-111 -154 q-8 -40 6.5 -72.5t40.5 -55t72.5 -43.5t89 -35t103.5 -31q40 -11 59 -17q98 -31 167 -66t121 -85.5t70.5 -120t3.5 -159.5q-17 -95 -82 -169t-158.5 -118t-201 -66.5t-221.5 -22.5q-276 0 -450 115zM380 -181h238l-26 -190h-239z" glyph-name="uni1E62" horiz-adv-x="1315" unicode="Ṣ"/><glyph d="M96 243q145 -83 356 -91q109 -5 192 31.5t99 105.5q10 50 -26 86t-80 51.5t-145 43.5q-17 5 -26 7q-175 47 -252 128t-58 208q23 146 165 224.5t358 78.5q219 0 348 -76l-26 -181q-136 87 -323 91q-114 3 -187.5 -30t-86.5 -107q-4 -25 2.5 -45t25.5 -38t41 -32t61 -29.5 t73.5 -26.5t89.5 -28q86 -26 140.5 -50t95.5 -60t54.5 -85.5t3.5 -117.5q-15 -99 -95 -173t-190.5 -108.5t-235.5 -34.5q-114 0 -224.5 21t-173.5 57zM352 -181h239l-27 -190h-238z" glyph-name="uni1E63" horiz-adv-x="1145" unicode="ṣ"/><glyph d="M1258 1434l-26 -191h-417l-174 -1243h-266l175 1243h-416l27 191h1097zM337 -371l27 190h238l-27 -190h-238z" glyph-name="uni1E6C" horiz-adv-x="1170" unicode="Ṭ"/><glyph d="M764 0h-342q-92 0 -141 65t-34 166l98 700h-172l24 171h172l30 215h246l-31 -215h305l-24 -171h-304l-89 -633q-9 -63 17.5 -100t78.5 -37h188zM321 -181h238l-27 -190h-238z" glyph-name="uni1E6D" horiz-adv-x="997" unicode="ṭ"/><glyph d="M861 1870h234l180 -307h-192zM1884 1434h278l-602 -1434h-288l-156 1115l-468 -1115h-288l-199 1434h276l126 -1091l446 1091h305l139 -1091z" glyph-name="Wgrave" horiz-adv-x="2074" unicode="Ẁ"/><glyph d="M722 1537h233l181 -307h-192zM1622 1102h261l-483 -1102h-290l-125 848l-362 -848h-289l-173 1102h260l121 -849l350 849h259l120 -849z" glyph-name="wgrave" horiz-adv-x="1888" unicode="ẁ"/><glyph d="M1584 1870l-309 -307h-192l268 307h233zM1884 1434h278l-602 -1434h-288l-156 1115l-468 -1115h-288l-199 1434h276l126 -1091l446 1091h305l139 -1091z" glyph-name="Wacute" horiz-adv-x="2074" unicode="Ẃ"/><glyph d="M1445 1537l-309 -307h-192l267 307h234zM1622 1102h261l-483 -1102h-290l-125 848l-362 -848h-289l-173 1102h260l121 -849l350 849h259l120 -849z" glyph-name="wacute" horiz-adv-x="1888" unicode="ẃ"/><glyph d="M884 1751h238l-26 -189h-239zM1288 1751h238l-27 -189h-237zM1884 1434h278l-602 -1434h-288l-156 1115l-468 -1115h-288l-199 1434h276l126 -1091l446 1091h305l139 -1091z" glyph-name="Wdieresis" horiz-adv-x="2074" unicode="Ẅ"/><glyph d="M744 1419h239l-27 -189h-238zM1149 1419h237l-26 -189h-238zM1622 1102h261l-483 -1102h-290l-125 848l-362 -848h-289l-173 1102h260l121 -849l350 849h259l120 -849z" glyph-name="wdieresis" horiz-adv-x="1888" unicode="ẅ"/><glyph d="M1402 1434l-27 -191l-920 -1053h773l-27 -190h-1103l27 190l915 1053h-768l27 191h1103zM478 -371l27 190h238l-26 -190h-239z" glyph-name="uni1E92" horiz-adv-x="1454" unicode="Ẓ"/><glyph d="M1182 1102l-24 -171l-788 -760h681l-24 -171h-985l24 171l787 760h-680l24 171h985zM364 -371l26 190h239l-27 -190h-238z" glyph-name="uni1E93" horiz-adv-x="1223" unicode="ẓ"/><glyph d="M1420 0h-280l-69 304h-682l-155 -304h-280l752 1434h365zM485 495h543l-167 741zM516 -371l27 190h238l-26 -190h-239z" glyph-name="uni1EA0" horiz-adv-x="1528" unicode="Ạ"/><glyph d="M744 1116q261 0 371.5 -105.5t80.5 -320.5l-97 -690h-236l9 143q-199 -165 -484 -158q-164 4 -242.5 81t-66.5 198q22 226 238.5 333.5t628.5 69.5l5 39q13 121 -47.5 176.5t-211.5 61.5q-180 9 -379 -79l25 169q181 82 406 82zM894 298l31 215q-292 31 -444.5 -19.5 t-170.5 -187.5q-10 -87 47.5 -120t182.5 -31q110 1 203.5 44t150.5 99zM386 -181h239l-27 -190h-239z" glyph-name="uni1EA1" horiz-adv-x="1330" unicode="ạ"/><glyph d="M390 190h802l-27 -190h-1067l201 1434h1067l-27 -191h-800l-62 -431h715l-27 -190h-714zM486 -181h239l-27 -190h-238z" glyph-name="uni1EB8" horiz-adv-x="1418" unicode="Ẹ"/><glyph d="M1213 482h-863q0 -88 34 -154.5t93.5 -104.5t130.5 -56.5t154 -19.5q168 -1 317 68l-23 -168q-157 -62 -382 -62q-95 0 -182.5 20.5t-163 65.5t-128 109.5t-75.5 160t-6 210.5q15 113 60.5 207.5t108.5 159.5t142.5 110.5t164 66.5t170.5 21q179 0 301 -79t161 -219.5 t-14 -335.5zM758 955q-130 -2 -234 -84.5t-148 -225.5h655q16 77 0 138.5t-57.5 98.5t-97 55.5t-118.5 17.5zM484 -371l27 190h239l-27 -190h-239z" glyph-name="uni1EB9" horiz-adv-x="1351" unicode="ẹ"/><glyph d="M518 1563q14 108 75 167.5t143 59.5q39 0 78 -15.5t65.5 -34.5t60.5 -34t62 -15q32 0 56 26.5t32 67.5h125q-14 -108 -76 -167t-143 -59q-52 0 -136 49t-123 49q-36 -1 -61 -27t-32 -68zM390 190h802l-27 -190h-1067l201 1434h1067l-27 -191h-800l-62 -431h715l-27 -190 h-714z" glyph-name="uni1EBC" horiz-adv-x="1418" unicode="Ẽ"/><glyph d="M668 1325q-36 -1 -61 -27t-33 -68l-125 1q14 108 75 167.5t143 59.5q39 0 77.5 -15.5t65.5 -34t60.5 -34t62.5 -15.5q32 0 56 26.5t31 67.5h126q-14 -108 -76 -167t-143 -59q-52 0 -136 49t-123 49zM1213 482h-863q0 -88 34 -154.5t93.5 -104.5t130.5 -56.5t154 -19.5 q168 -1 317 68l-23 -168q-157 -62 -382 -62q-95 0 -182.5 20.5t-163 65.5t-128 109.5t-75.5 160t-6 210.5q15 113 60.5 207.5t108.5 159.5t142.5 110.5t164 66.5t170.5 21q179 0 301 -79t161 -219.5t-14 -335.5zM758 955q-130 -2 -234 -84.5t-148 -225.5h655q16 77 0 138.5 t-57.5 98.5t-97 55.5t-118.5 17.5z" glyph-name="uni1EBD" horiz-adv-x="1351" unicode="ẽ"/><glyph d="M364 0h-266l201 1434h266zM86 -181h239l-27 -190h-239z" glyph-name="uni1ECA" horiz-adv-x="616" unicode="Ị"/><glyph d="M275 1434h294l-24 -170h-294zM253 1102h246l-155 -1102h-246zM76 -181h238l-26 -190h-239z" glyph-name="uni1ECB" horiz-adv-x="595" unicode="ị"/><glyph d="M1619 717q-20 -143 -78.5 -264.5t-141.5 -206.5t-186.5 -145t-214 -88t-224.5 -28t-216 28t-188 88t-145 145t-83.5 206t-4.5 265q20 141 78 262t140.5 206t186 145.5t214.5 89.5t225 29q94 0 181.5 -20.5t165 -61.5t138.5 -102.5t101.5 -142.5t54 -182t-2.5 -223z M802 175q129 0 243.5 61t199 186.5t108.5 294.5q18 128 -6.5 232.5t-82 171t-137 102t-174.5 35.5q-93 0 -183 -35.5t-165.5 -102t-129.5 -171t-72 -232.5t6 -232.5t80.5 -171t137 -102.5t175.5 -36zM633 -181h238l-26 -190h-239z" glyph-name="uni1ECC" horiz-adv-x="1709" unicode="Ọ"/><glyph d="M1303 551q-15 -116 -63.5 -212t-115 -160.5t-150 -109t-169.5 -64.5t-174 -20q-87 0 -167.5 20t-151 64.5t-119 109t-69.5 160.5t-4 212q15 113 62.5 207.5t113.5 159.5t149 110.5t170 66.5t175.5 21t169 -21t151 -66.5t118.5 -110.5t68.5 -159.5t5.5 -207.5zM654 151 q148 0 262.5 107t140.5 293q26 183 -58 291.5t-232.5 108.5t-262 -108.5t-138.5 -291.5q-26 -186 57.5 -293t230.5 -107zM489 -181h239l-27 -190h-238z" glyph-name="uni1ECD" horiz-adv-x="1421" unicode="ọ"/><glyph d="M1483 1434l-121 -856q-43 -316 -209 -454.5t-466 -138.5t-426 138t-83 455l121 856h266l-127 -902q-25 -180 41 -268.5t235 -88.5q170 0 260.5 88.5t115.5 268.5l127 902h266zM545 -181h238l-26 -190h-239z" glyph-name="uni1EE4" horiz-adv-x="1533" unicode="Ụ"/><glyph d="M1082 1102h245l-155 -1102h-245l24 183q-101 -113 -221 -155t-271 -42q-181 0 -267 108t-54 335l94 673h246l-86 -614q-46 -328 204 -327q121 0 238 83t159 232zM466 -181h239l-27 -190h-239z" glyph-name="uni1EE5" horiz-adv-x="1404" unicode="ụ"/><glyph d="M507 1870h233l181 -307h-192zM1171 1434h283l-640 -895l-76 -539h-265l76 539l-388 895h282l274 -643z" glyph-name="Ygrave" horiz-adv-x="1366" unicode="Ỳ"/><glyph d="M436 1537h234l180 -307h-192zM1053 1102h259l-589 -1056q-37 -66 -74.5 -119t-100 -115t-132 -103.5t-169.5 -68t-212 -23.5l13 161q278 0 390 271l-277 1053h261l192 -827z" glyph-name="ygrave" horiz-adv-x="1317" unicode="ỳ"/><glyph d="M1171 1434h283l-640 -895l-76 -539h-265l76 539l-388 895h282l274 -643zM461 -181h238l-26 -190h-239z" glyph-name="uni1EF4" horiz-adv-x="1366" unicode="Ỵ"/><glyph d="M1053 1102h259l-589 -1056q-37 -66 -74.5 -119t-100 -115t-132 -103.5t-169.5 -68t-212 -23.5l13 161q278 0 390 271l-277 1053h261l192 -827zM961 -111h253l-27 -206h-255z" glyph-name="uni1EF5" horiz-adv-x="1357" unicode="ỵ"/><glyph d="M493 1563q14 108 75 167.5t143 59.5q39 0 77.5 -15.5t65.5 -34.5t60.5 -34t62.5 -15q32 0 56 26.5t31 67.5h126q-14 -108 -76 -167t-143 -59q-52 0 -136 49t-123 49q-36 -1 -61 -27t-33 -68zM1171 1434h283l-640 -895l-76 -539h-265l76 539l-388 895h282l274 -643z" glyph-name="uni1EF8" horiz-adv-x="1366" unicode="Ỹ"/><glyph d="M422 1231q14 108 75 167.5t143 59.5q39 0 78 -15.5t65.5 -34t60.5 -34t62 -15.5q32 0 56 26.5t31 67.5h126q-14 -108 -76 -167t-143 -59q-52 0 -136 49t-123 49q-36 -1 -61 -27t-32 -68zM1053 1102h259l-589 -1056q-37 -66 -74.5 -119t-100 -115t-132 -103.5t-169.5 -68 t-212 -23.5l13 161q278 0 390 271l-277 1053h261l192 -827z" glyph-name="uni1EF9" horiz-adv-x="1317" unicode="ỹ"/><glyph d="M188 646h972l-26 -190h-972z" glyph-name="endash" horiz-adv-x="1321" unicode="–"/><glyph d="M188 646h1539l-27 -190h-1538z" glyph-name="emdash" horiz-adv-x="1889" unicode="—"/><glyph d="M490 1008h-250l186 529h215z" glyph-name="quoteleft" horiz-adv-x="677" unicode="‘"/><glyph d="M392 1536h251l-186 -529h-215z" glyph-name="quoteright" horiz-adv-x="677" unicode="’"/><glyph d="M156 221h251l-187 -528h-216z" glyph-name="quotesinglbase" horiz-adv-x="627" unicode="‚"/><glyph d="M490 1008h-250l186 528h215zM888 1008h-252l187 528h215z" glyph-name="quotedblleft" horiz-adv-x="1075" unicode="“"/><glyph d="M390 1536h251l-186 -529h-215zM787 1536h251l-186 -529h-216z" glyph-name="quotedblright" horiz-adv-x="1075" unicode="”"/><glyph d="M154 206h250l-186 -530h-216zM551 206h251l-187 -530h-216z" glyph-name="quotedblbase" horiz-adv-x="1025" unicode="„"/><glyph d="M1026 1305l-24 -171h-274l-65 -468h-197l66 468h-275l24 171h275l33 231h195l-32 -231h274z" glyph-name="dagger" horiz-adv-x="1095" unicode="†"/><glyph d="M1002 1134h-275l-39 -283h275l-25 -171h-274l-33 -231h-196l33 231h-274l23 171h276l38 283h-274l24 171h275l33 231h195l-32 -231h274z" glyph-name="daggerdbl" horiz-adv-x="1095" unicode="‡"/><glyph d="M207 779h508l-65 -456h-507z" glyph-name="bullet" horiz-adv-x="858" unicode="•"/><glyph d="M131 230h294l-33 -230h-294zM605 230h294l-33 -230h-294zM1080 230h294l-33 -230h-293z" glyph-name="ellipsis" horiz-adv-x="1594" unicode="…"/><glyph d="M876 1005q-30 -216 -138.5 -328t-269.5 -112t-238 111.5t-47 328.5q30 214 138.5 326.5t269.5 112.5t238 -112.5t47 -326.5zM1398 1434h130l-967 -1434h-130zM483 685q95 0 154 84t81 236q22 151 -14.5 235t-130.5 84q-92 0 -151.5 -84.5t-80.5 -234.5q-22 -152 13 -236 t129 -84zM1765 430q-30 -216 -138 -327.5t-269 -111.5t-238.5 111.5t-46.5 327.5q30 214 138.5 326.5t269 112.5t237.5 -112.5t47 -326.5zM2521 430q-31 -216 -139.5 -327.5t-269 -111.5t-238 111.5t-46.5 327.5q30 214 138.5 326.5t269.5 112.5t238 -112.5t47 -326.5z M1373 111q95 0 154 84t81 235t-15 235.5t-130 84.5q-92 0 -151.5 -84.5t-80.5 -235.5q-22 -152 13 -235.5t129 -83.5zM2129 111q94 0 153 84t81 235q20 151 -16 235.5t-128 84.5t-152 -85t-80 -235q-22 -152 13 -235.5t129 -83.5z" glyph-name="perthousand" horiz-adv-x="2657" unicode="‰"/><glyph d="M823 947l-392 -384l284 -384h-254l-284 384l392 384h254z" glyph-name="guilsinglleft" horiz-adv-x="943" unicode="‹"/><glyph d="M231 947h254l284 -384l-392 -384h-254l392 384z" glyph-name="guilsinglright" horiz-adv-x="943" unicode="›"/><glyph d="M634 1434q248 3 382.5 -107t107.5 -316q-23 -168 -129 -271.5t-272 -130.5q-28 -6 -155 -18l-37 -249h-220l41 413h1l21 198h218l-21 -210q127 10 210.5 83t98.5 182q14 112 -62.5 173.5t-212.5 61.5q-104 1 -216.5 -27t-191.5 -73l30 215q177 73 407 76zM227 0l25 170 h294l-25 -170h-294z" glyph-name="uni203D" horiz-adv-x="1173" unicode="‽"/><glyph d="M889 1434h130l-967 -1434h-130z" glyph-name="fraction" horiz-adv-x="894" unicode="⁄"/><glyph d="M904 1209q-30 -216 -138.5 -327.5t-269 -111.5t-238 111.5t-46.5 327.5q30 214 138.5 327t269 113t237.5 -113t47 -327zM512 890q95 0 154 84t80 235q22 151 -14.5 235.5t-129.5 84.5q-92 0 -151.5 -84.5t-80.5 -235.5q-22 -152 13 -235.5t129 -83.5z" glyph-name="uni2070" horiz-adv-x="930" unicode="⁰"/><glyph d="M914 1109l-16 -123h-147l-29 -208h-154l29 208h-416l17 123l469 529h176l-75 -529h146zM349 1109h266l53 375z" glyph-name="uni2074" horiz-adv-x="955" unicode="⁴"/><glyph d="M349 1638h552l-17 -122h-416l-48 -222q108 20 226 10q120 -14 180 -82t42 -184q-20 -138 -118.5 -204.5t-259.5 -64.5q-101 2 -177 22.5t-150 67.5l80 111q45 -36 118.5 -57.5t144.5 -20.5q94 0 145 35t64 113q11 76 -54.5 119.5t-167.5 43.5q-89 0 -194 -20l-35 36z" glyph-name="uni2075" horiz-adv-x="919" unicode="⁵"/><glyph d="M900 1064q-13 -97 -76.5 -166t-146 -98.5t-173.5 -29.5q-67 0 -126 17.5t-105.5 52t-69.5 92.5t-13 132q11 83 58 147.5t252 290.5q77 85 123 136h187l-288 -316q89 30 167 18q104 -12 165.5 -84.5t45.5 -191.5zM519 878q85 0 149 51t75 135q12 84 -37.5 134.5 t-134.5 50.5q-83 0 -148 -52.5t-76 -132.5q-11 -84 38 -135t134 -51z" glyph-name="uni2076" horiz-adv-x="948" unicode="⁶"/><glyph d="M272 1638h601l-16 -122q-155 -166 -262.5 -345.5t-167.5 -392.5h-163q113 397 415 738h-424z" glyph-name="uni2077" horiz-adv-x="840" unicode="⁷"/><glyph d="M876 1016q-11 -83 -71.5 -141.5t-139.5 -83t-170 -24.5q-68 0 -126 15t-103.5 43.5t-67.5 77.5t-13 113q11 80 65 134.5t133 82.5q-113 59 -94 183q15 109 110 167.5t218 58.5q125 0 204 -58.5t64 -167.5q-17 -125 -148 -183q71 -28 110.5 -82.5t28.5 -134.5zM427 1410 q-8 -57 32.5 -91.5t108 -34.5t118 34.5t58.5 91.5q7 57 -31.5 90.5t-110.5 33.5t-120 -33.5t-55 -90.5zM510 877q81 0 140 38t68 107q10 68 -38 108.5t-128 40.5t-139.5 -40.5t-69.5 -108.5q-10 -69 38 -107t129 -38z" glyph-name="uni2078" horiz-adv-x="928" unicode="⁸"/><glyph d="M231 1350q13 97 77.5 165.5t146.5 98.5t173 30q67 0 125.5 -17.5t105 -52.5t69.5 -93t13 -131q-12 -84 -59 -149.5t-257 -297.5q-73 -81 -116 -128h-186l287 317q-90 -30 -168 -19q-103 12 -165 85t-46 192zM612 1536q-85 0 -149 -51.5t-75 -134.5q-12 -84 38 -135 t135 -51q83 0 147.5 53t75.5 133q12 83 -37.5 134.5t-134.5 51.5z" glyph-name="uni2079" horiz-adv-x="948" unicode="⁹"/><glyph d="M752 123q-30 -216 -138.5 -327.5t-269.5 -111.5t-238 111.5t-47 327.5q30 214 138.5 326.5t269.5 112.5t238 -112.5t47 -326.5zM359 -197q95 0 154 84t81 236q22 151 -14.5 235t-129.5 84q-92 0 -151.5 -84.5t-81.5 -234.5q-22 -152 13 -236t129 -84z" glyph-name="uni2080" horiz-adv-x="930" unicode="₀"/><glyph d="M380 -184h208l-18 -123h-571l17 123h208l84 602q-90 -52 -175 -76l19 136q83 18 175 75h156z" glyph-name="uni2081" horiz-adv-x="809" unicode="₁"/><glyph d="M697 -184l-17 -123h-681l17 123q26 17 81.5 53.5t86 57t81.5 55t82 58t72 55.5t66 57t49.5 52.5t37.5 53.5t16 48q9 66 -31 103.5t-125 39.5q-135 0 -254 -74l-46 103q161 93 323 93q161 0 239 -65t63 -173q-5 -33 -17.5 -65t-36.5 -65.5t-45.5 -60.5t-60.5 -62 t-63.5 -56.5t-72.5 -57t-70 -51.5t-74.5 -52.5t-67.5 -46.5h448z" glyph-name="uni2082" horiz-adv-x="919" unicode="₂"/><glyph d="M155 559h612l-17 -123l-333 -250q58 2 102 -6q105 -15 160 -77.5t40 -162.5q-19 -128 -117.5 -194.5t-259.5 -63.5q-190 3 -331 94l83 108q44 -36 120 -59t144 -21q184 2 206 138q10 70 -39 110t-146 40q-89 0 -149 -19l-24 114l359 249h-428z" glyph-name="uni2083" horiz-adv-x="923" unicode="₃"/><glyph d="M762 24l-17 -123h-147l-29 -208h-153l28 208h-415l16 123l469 529h176l-75 -529h147zM197 24h266l52 374z" glyph-name="uni2084" horiz-adv-x="955" unicode="₄"/><glyph d="M197 553h552l-18 -123h-416l-48 -221q108 20 227 9q120 -14 179.5 -81.5t42.5 -183.5q-20 -138 -118.5 -204.5t-259.5 -64.5q-101 2 -177.5 22.5t-150.5 67.5l80 110q45 -36 119 -57.5t144 -20.5q94 0 145.5 35t63.5 114q11 76 -54.5 119.5t-167.5 43.5q-89 0 -194 -21 l-34 36z" glyph-name="uni2085" horiz-adv-x="919" unicode="₅"/><glyph d="M750 -12q-13 -97 -77 -166t-146.5 -98.5t-173.5 -29.5q-67 0 -125.5 17.5t-105 52t-69.5 92.5t-13 132q11 83 57.5 147.5t251.5 290.5q77 85 123 136h187l-287 -316q89 30 167 18q104 -12 165.5 -84.5t45.5 -191.5zM369 -199q85 0 149 51.5t75 135.5q12 84 -37.5 134.5 t-134.5 50.5q-83 0 -148 -52.5t-76 -132.5q-11 -84 38 -135.5t134 -51.5z" glyph-name="uni2086" horiz-adv-x="948" unicode="₆"/><glyph d="M120 553h601l-16 -123q-155 -166 -262.5 -345t-168.5 -392h-162q113 397 414 737h-424z" glyph-name="uni2087" horiz-adv-x="840" unicode="₇"/><glyph d="M724 -67q-11 -83 -71 -141t-139.5 -82.5t-170.5 -24.5q-68 0 -125.5 14.5t-103 43.5t-67.5 78t-13 112q11 80 65 135t132 83q-113 59 -94 183q15 109 110 167.5t219 58.5q125 0 204 -59t63 -167q-17 -125 -147 -183q71 -28 110 -83t28 -135zM275 328q-8 -57 32.5 -91.5 t108 -34.5t118.5 34t59 92q7 57 -32 90.5t-110.5 33.5t-120 -33.5t-55.5 -90.5zM358.5 -206q80.5 0 139.5 38.5t68 107.5q10 68 -38 108.5t-127.5 40.5t-139 -41t-70.5 -108q-10 -69 38.5 -107.5t129 -38.5z" glyph-name="uni2088" horiz-adv-x="928" unicode="₈"/><glyph d="M80 268q13 97 77 166t146 98.5t173 29.5q67 0 125.5 -17.5t105.5 -52t70 -92.5t13 -132q-12 -84 -59.5 -149.5t-257.5 -296.5q-73 -81 -116 -128h-186l288 316q-90 -30 -168 -18q-103 12 -165 84.5t-46 191.5zM461 455q-85 0 -149 -52t-75 -135q-12 -84 38 -134.5 t135 -50.5q83 0 147.5 52.5t75.5 132.5q12 83 -37.5 135t-134.5 52z" glyph-name="uni2089" horiz-adv-x="948" unicode="₉"/><glyph d="M1093 1250q-156 -8 -290 -94.5t-206 -245.5h607l-16 -120h-632q-6 -30 -13 -73q-6 -52 -7 -73h630l-16 -121h-607q26 -159 135.5 -245.5t264.5 -94.5q187 -10 381 80l-29 -205q-178 -74 -380 -73q-165 0 -302.5 58.5t-231 182.5t-110.5 297h-155l16 121h138q1 24 8 73 q3 27 13 73h-137l16 120h156q65 172 193.5 296.5t283 183.5t319.5 59q201 0 359 -74l-29 -205q-169 90 -359 80z" glyph-name="Euro" horiz-adv-x="1539" unicode="€"/><glyph d="M299 1434h1098l-24 -171h-1098zM1346 1071l-24 -170h-416l-127 -901h-265l127 901h-417l24 170h1098z" glyph-name="uni20B8" horiz-adv-x="1447" unicode="₸"/><glyph d="M1265 1434l-18 -122h-212q109 -105 100 -281h73l-17 -121h-76q-33 -125 -117.5 -207.5t-228.5 -131.5l267 -571h-267l-243 517q-148 -20 -359 -23l26 180q306 3 457.5 58t196.5 178h-622l18 121h624q0 105 -65.5 163t-179.5 58h-348l25 182h966z" glyph-name="uni20B9" horiz-adv-x="1315" unicode="₹"/><glyph d="M1133 758h222q-50 -358 -248 -558t-510 -200h-499l126 901l-177 -16l16 121l179 16l12 88l-177 -16l16 120l177 17l29 203h266l-25 -180l572 53l-17 -121l-572 -52l-12 -88l571 52l-17 -121l-571 -52l-102 -719h198q222 0 363 136t180 416z" glyph-name="uni20BA" horiz-adv-x="1445" unicode="₺"/><glyph d="M925 1243q268 -12 379.5 -152t68.5 -440l-92 -651h-265l97 696q23 164 -28.5 251.5t-186.5 103.5l-147 -1051h-121l147 1051q-140 -15 -216.5 -103t-98.5 -252l-98 -696h-266l91 651q43 301 194 440.5t421 151.5l26 191h121z" glyph-name="uni20BC" horiz-adv-x="1533" unicode="₼"/><glyph d="M1355 1066q-15 -109 -75 -194t-142 -120q105 -33 156 -124t30 -234q-13 -97 -58.5 -173.5t-113 -123t-147 -71t-168.5 -26.5l-27 -189h-131l27 189h-257l-27 -189h-131l26 189h-219l201 1434h220l26 189h131l-27 -189h258l26 189h131l-27 -190q76 -3 139 -28t107.5 -69 t64 -113.5t7.5 -156.5zM1100 1031q32 229 -205 230h-354l-65 -457h354q108 0 180.5 53.5t89.5 173.5zM1060 404q17 120 -40 176t-167 56h-400l-66 -466l399 -2q109 -1 183.5 57t90.5 179z" glyph-name="uni20BF" horiz-adv-x="1460" unicode="₿"/><glyph d="M878 1276q-92 51 -221 45q-111 -4 -191.5 -75t-98 -198t43 -198.5t170.5 -75.5q123 -6 232 44l-17 -123q-110 -44 -248 -44q-79 0 -147.5 24t-122 71.5t-78.5 125t-11 176.5q13 98 60.5 176t114 125t142.5 71t153 24q140 0 235 -44zM1444 1434h130l-968 -1434h-129z M1911 386q-13 -101 -61 -179.5t-115 -124.5t-141.5 -69t-152.5 -23t-146 23t-122 69t-79.5 124.5t-11.5 179.5q13 98 60.5 175.5t114 124.5t142.5 71t153.5 24t146 -24t122 -71t78.5 -125t12 -175zM1458.5 112q101.5 0 179 73t95.5 201q17 125 -40.5 199t-157.5 74 q-101 0 -178.5 -74t-95.5 -199q-17 -128 39.5 -201t158 -73z" glyph-name="afii61248" horiz-adv-x="2053" unicode="℅"/><glyph d="M883 116q-157 -133 -337 -134q-168 -1 -238 88.5t-48 255.5l20 136q-84 -27 -178 -45l20 102q13 4 75 23t98 32l67 479q24 171 121.5 275.5t260.5 113.5q136 9 216.5 -59.5t72.5 -211.5q0 -104 -41.5 -202t-116 -178.5t-164 -146.5t-200.5 -124l-23 -165 q-26 -206 139 -205q106 0 209 77zM530 654q350 221 350 500q0 67 -36 103.5t-95 27.5q-131 -19 -163 -235z" glyph-name="afii61289" horiz-adv-x="1078" unicode="ℓ"/><glyph d="M2740 947q-14 -102 -56.5 -187.5t-102 -142.5t-133 -96.5t-150.5 -57.5t-155 -18t-148.5 18t-133.5 57.5t-105.5 96.5t-61.5 142.5t-4 187.5q17 124 76.5 223t144 158.5t180 90t194.5 30.5t186 -30.5t155 -90t99.5 -158.5t14.5 -223zM1304 1434h266l-202 -1434h-273 l-584 1047l-147 -1047h-266l201 1434h273l586 -1038zM2166 597q130 0 229 93.5t122 256.5q23 161 -50 256t-203 95t-230 -95t-121 -256q-24 -163 49.5 -256.5t203.5 -93.5zM1627 301h993l-20 -146h-993z" glyph-name="afii61352" horiz-adv-x="2859" unicode="№"/><glyph d="M798 -33q-216 0 -378 100t-236.5 271.5t-46.5 378.5q30 208 153 379.5t312.5 270.5t405.5 99q217 0 379.5 -99t238 -270.5t45.5 -379.5q-29 -207 -152 -378.5t-313.5 -271.5t-407.5 -100zM817 95q181 0 337.5 81t256 223.5t124.5 317.5q18 131 -12.5 246t-101.5 197.5 t-182.5 130t-247.5 47.5q-181 0 -336.5 -80.5t-256 -223t-125 -317.5t36 -317t193.5 -223.5t314 -81.5zM1025 1103q128 0 197 -66t53 -180q-19 -139 -139 -200t-382 -65l-37 -261h-138l108 772h338zM1136 857q9 66 -27 107t-105 41h-192l-44 -315q191 1 273.5 40t94.5 127z " glyph-name="uni2117" horiz-adv-x="1762" unicode="℗"/><glyph d="M214 885q101 -71 227 -71q70 0 121.5 23.5t58.5 70.5q2 16 -2.5 29.5t-16.5 24.5t-25 19t-36 17t-40 14.5t-46 14.5t-46 15q-179 65 -155 209q15 90 96.5 146.5t213.5 56.5q119 0 208 -55l-17 -120q-92 67 -206 67q-65 0 -104 -28.5t-48 -72.5q-4 -24 6.5 -41.5t36 -31.5 t50.5 -23t66 -22q13 -4 21 -6q102 -31 150.5 -83t33.5 -140q-11 -67 -62.5 -111.5t-120.5 -62.5t-153 -18q-142 0 -228 55zM1607 1434h207l-101 -717h-143l75 530l-271 -448h-128l-145 448l-74 -530h-143l100 717h207l142 -470z" glyph-name="uni2120" horiz-adv-x="1845" unicode="℠"/><glyph d="M828 1434l-15 -106h-203l-85 -611h-143l85 611h-203l16 106h548zM1570 1434h207l-101 -717h-143l75 530l-271 -448h-128l-145 448l-75 -530h-143l100 717h208l142 -470z" glyph-name="trademark" horiz-adv-x="1808" unicode="™"/><glyph d="M504 696h208l-18 -123h-571l17 123h208l84 602q-90 -52 -175 -75l18 136q83 18 176 75h156zM1382 1434h131l-967 -1434h-129zM1713 241q-11 -83 -71 -141.5t-139.5 -83t-170.5 -24.5q-68 0 -125.5 15t-103 43.5t-67.5 77.5t-13 113q11 80 65 134.5t133 82.5 q-113 59 -95 183q15 109 110 167.5t219 58.5q125 0 204 -58.5t63 -167.5q-17 -125 -147 -183q71 -28 110 -82.5t28 -134.5zM1265 635q-8 -57 32 -91.5t108 -34.5t118 34.5t59 91.5q7 57 -32 90.5t-110.5 33.5t-119.5 -33.5t-55 -90.5zM1347.5 101q80.5 0 139.5 38.5 t68 107.5q10 68 -38 108.5t-127.5 40.5t-139 -41t-69.5 -108q-10 -69 38 -107.5t128.5 -38.5z" glyph-name="oneeighth" horiz-adv-x="1874" unicode="⅛"/><glyph d="M278 1434h613l-18 -123l-333 -250q51 2 102 -6q106 -15 160.5 -78t40.5 -163q-19 -128 -117.5 -194t-259.5 -64q-191 3 -332 94l83 109q45 -37 120.5 -59.5t144.5 -21.5q185 2 205 138q10 70 -39 110.5t-146 40.5q-89 0 -149 -20l-24 115l360 249h-428zM1441 1434h131 l-968 -1434h-129zM1795 241q-11 -83 -70.5 -141.5t-139 -83t-171.5 -24.5q-53 0 -100.5 8.5t-89.5 28.5t-71 48t-42 70t-6 94q11 80 65.5 134.5t132.5 82.5q-50 27 -77 73.5t-18 109.5q10 74 60.5 126.5t120 76t149.5 23.5t142.5 -23.5t98.5 -76t25 -126.5 q-17 -124 -146 -183q71 -28 109.5 -82.5t27.5 -134.5zM1347 635q-8 -57 32.5 -91.5t107.5 -34.5q69 0 119 34.5t58 91.5q7 57 -31.5 90.5t-109.5 33.5q-73 0 -121 -33.5t-55 -90.5zM1431 101q81 0 139.5 38.5t67.5 107.5q10 68 -38 108.5t-129 40.5q-80 0 -139 -41t-68 -108 q-11 -69 37 -107.5t130 -38.5z" glyph-name="threeeighths" horiz-adv-x="1956" unicode="⅜"/><glyph d="M321 1434h551l-17 -123h-416l-48 -221q108 20 226 9q120 -14 180 -82t43 -183q-20 -138 -118.5 -205t-259.5 -65q-101 2 -177.5 22.5t-150.5 67.5l80 111q45 -36 119 -57.5t144 -20.5q94 0 145.5 35t63.5 114q11 76 -54.5 119t-167.5 43q-89 0 -194 -20l-34 36z M1445 1434h131l-968 -1434h-129zM1784 241q-11 -83 -71 -141.5t-139 -83t-171 -24.5q-53 0 -101 8.5t-90 28.5t-70.5 48t-42 70t-5.5 94q11 80 64.5 134.5t132.5 82.5q-113 59 -94 183q15 109 110 167.5t219 58.5q125 0 203.5 -58.5t63.5 -167.5q-17 -125 -147 -183 q71 -28 110 -82.5t28 -134.5zM1335 635q-8 -57 32.5 -91.5t108.5 -34.5q69 0 119 34.5t58 91.5q7 57 -32 90.5t-110.5 33.5t-120 -33.5t-55.5 -90.5zM1419 101q81 0 139.5 38.5t68.5 107.5q9 68 -39 108.5t-128 40.5t-139 -41t-70 -108q-10 -69 38 -107.5t130 -38.5z" glyph-name="fiveeighths" horiz-adv-x="1945" unicode="⅝"/><glyph d="M244 1434h601l-17 -123q-155 -166 -262 -345.5t-168 -392.5h-162q113 397 414 738h-424zM1202 1434h130l-966 -1434h-130zM1541 241q-11 -83 -71 -141.5t-139.5 -83t-171.5 -24.5q-67 0 -124.5 15t-103 43.5t-68 77.5t-13.5 113q11 80 65.5 134.5t133.5 82.5 q-113 59 -95 183q10 74 60.5 126.5t119.5 76t149 23.5q125 0 204 -58.5t63 -167.5q-18 -125 -147 -183q71 -28 110 -82.5t28 -134.5zM1093 635q-8 -57 32 -91.5t107.5 -34.5t118 34.5t58.5 91.5t-31 90.5t-110.5 33.5t-119.5 -33.5t-55 -90.5zM1175.5 101q80.5 0 139.5 38.5 t68 107.5q10 68 -38 108.5t-127.5 40.5t-139 -41t-69.5 -108q-10 -69 38 -107.5t128.5 -38.5z" glyph-name="seveneighths" horiz-adv-x="1701" unicode="⅞"/><glyph d="M728 0l-529 717l529 717h265l-438 -594h1077v-246h-1077l438 -594h-265z" glyph-name="arrowleft" horiz-adv-x="1802" unicode="←"/><glyph d="M1659 904v-265l-594 438v-1077h-246v1078l-594 -439v265l717 530z" glyph-name="arrowup" horiz-adv-x="1821" unicode="↑"/><glyph d="M1120 0h-265l438 594h-1077v246h1077l-438 594h265l530 -717z" glyph-name="arrowright" horiz-adv-x="1801" unicode="→"/><glyph d="M1642 529l-716 -529l-717 529v266l594 -440v1079h246v-1078l593 439v-266z" glyph-name="arrowdown" horiz-adv-x="1821" unicode="↓"/><glyph d="M1859 1434l529 -717l-529 -717h-265l439 594h-1478l438 -594h-265l-529 717l529 717h265l-438 -594h1478l-440 594h266z" glyph-name="arrowboth" horiz-adv-x="2540" unicode="↔"/><glyph d="M1087 -11l594 438v-265l-716 -530l-717 530v266l594 -439v1251l-594 -439v266l717 529l716 -529v-265l-594 438v-1251z" glyph-name="arrowupdn" horiz-adv-x="1911" unicode="↕"/><glyph d="M1492 1243h-834l816 -817l-175 -174l-810 814v-825l-190 179v1014h1014z" glyph-name="uni2196" horiz-adv-x="1680" unicode="↖"/><glyph d="M452 1434h1013v-1014l-190 -179v824l-810 -813l-173 174l814 817h-834z" glyph-name="uni2197" horiz-adv-x="1659" unicode="↗"/><glyph d="M1237 1193l190 -179v-1014h-1013l-180 190h834l-815 818l174 174l810 -814v825z" glyph-name="uni2198" horiz-adv-x="1680" unicode="↘"/><glyph d="M600 190h834l-180 -190h-1013v1014l190 179v-824l810 813l173 -174z" glyph-name="uni2199" horiz-adv-x="1659" unicode="↙"/><glyph d="M750 1397q164 -5 285.5 -104t177.5 -283t23 -417q-17 -126 -64 -230t-110.5 -172.5t-142 -115.5t-159.5 -67.5t-164 -20.5t-158.5 18t-142.5 57t-113 96.5t-66 142.5t-5 187q14 100 55 185.5t100 144.5t132.5 99t155.5 58.5t167 15.5q168 -4 275 -93 q-22 162 -108.5 244.5t-243.5 115.5zM617 138q137 0 238.5 109t130.5 316q13 92 16 176q-97 99 -303 100q-133 0 -226.5 -93.5t-116.5 -257.5q-24 -164 51 -257t210 -93z" glyph-name="partialdiff" horiz-adv-x="1349" unicode="∂"/><glyph d="M1291 1012l-116 -103q105 -158 76 -358q-22 -154 -116 -284.5t-235 -206t-295 -75.5q-202 0 -340 128l-122 -108l-74 86l124 109q-100 152 -73 351q22 154 116 284t234.5 205.5t294.5 75.5q197 0 335 -122l117 103zM265 551q-19 -135 45 -248l671 588q-98 81 -237 81 q-174 0 -314.5 -123.5t-164.5 -297.5zM1106 551q19 142 -50 255l-672 -590q99 -86 242 -86q174 0 314.5 123.5t165.5 297.5z" glyph-name="emptyset" horiz-adv-x="1371" unicode="∅"/><glyph d="M1495 1434l-238 -1687h-265l210 1496h-663l-211 -1496h-266l237 1687h1196z" glyph-name="product" horiz-adv-x="1546" unicode="∏"/><glyph d="M1219 -35l-28 -194h-1125l25 179l616 715l-416 713l25 181h1107l-27 -195l-784 1l383 -700l-579 -702z" glyph-name="summation" horiz-adv-x="1476" unicode="∑"/><glyph d="M1106 632h-920l25 170h919z" glyph-name="minus" horiz-adv-x="1269" unicode="−"/><glyph d="M1736 1434l-874 -1741h-265l-146 813h-282l27 190h441l126 -768l754 1506h219z" glyph-name="radical" horiz-adv-x="1786" unicode="√"/><glyph d="M1320 916q146 0 224 -100.5t55 -264.5q-23 -161 -129 -261t-252 -100q-201 0 -374 247q-244 -247 -444 -247q-146 0 -224.5 100t-55.5 261q23 164 129 264.5t254 100.5q199 0 373 -248q244 248 444 248zM437 347q75 0 154 52.5t177 152.5q-77 108 -138.5 158.5 t-133.5 50.5q-76 0 -131.5 -59t-68.5 -151q-12 -89 25.5 -146.5t115.5 -57.5zM1223 347q79 0 133.5 57.5t65.5 146.5q13 91 -26 150.5t-115 59.5q-72 0 -146.5 -50.5t-183.5 -158.5q70 -100 133.5 -152.5t138.5 -52.5z" glyph-name="infinity" horiz-adv-x="1718" unicode="∞"/><glyph d="M771 1423q95 -2 156 -31l-24 -107q-70 15 -122 2q-56 -6 -78.5 -41t-33.5 -109l-161 -1145q-9 -63 -31.5 -111.5t-54 -78t-74 -47.5t-86.5 -24.5t-98 -6.5q-96 2 -157 31l24 107q71 -15 122 -2q56 6 79 40.5t33 109.5l161 1145q11 79 42.5 133.5t79.5 83.5t101 40t122 11 z" glyph-name="integral" horiz-adv-x="927" unicode="∫"/><glyph d="M208 781q17 128 88.5 198t167.5 70q44 0 89 -17t75.5 -37t68.5 -37t71 -17q36 0 62 29t33 74h157q-18 -129 -90.5 -198t-166.5 -69q-39 0 -82 17t-75 37.5t-70.5 37t-69.5 16.5q-41 0 -67.5 -28.5t-34.5 -75.5h-156zM155 401q17 128 88 198t168 70q44 0 89 -17t75 -37 t68.5 -37t70.5 -17q36 0 62.5 29.5t34.5 74.5h156q-18 -129 -91 -198.5t-167 -69.5q-39 0 -82 17t-75 37.5t-70.5 37t-68.5 16.5q-41 0 -68 -28t-35 -76h-155z" glyph-name="approxequal" horiz-adv-x="1125" unicode="≈"/><glyph d="M1133 822h-326l-173 -211h469l-24 -171h-585l-168 -203h-124l168 203h-210l24 171h326l174 211h-471l25 171h586l168 204h123l-168 -204h210z" glyph-name="notequal" horiz-adv-x="1269" unicode="≠"/><glyph d="M1171 1110l-26 -192l-755 -193l701 -194l-28 -192l-883 243l13 92l9 64l5 37l13 91zM105 48l26 192h918l-27 -192h-917z" glyph-name="lessequal" horiz-adv-x="1268" unicode="≤"/><glyph d="M1125 775l-10 -69l-4 -32l-13 -92l-952 -243l27 192l755 193l-701 194l28 192l883 -244zM105 48l28 192h917l-27 -192h-918z" glyph-name="greaterequal" horiz-adv-x="1268" unicode="≥"/><glyph d="M1017 -154q-177 0 -338.5 69.5t-277.5 185.5t-185.5 278t-69.5 339t69.5 338t185.5 277.5t277.5 185t338.5 68.5t338.5 -68.5t277.5 -185t185 -277.5t69 -338t-69 -339t-185 -278t-277.5 -185.5t-338.5 -69.5zM1016.5 -33q152.5 0 291.5 59.5t239.5 159.5t159.5 239 t59 293q0 153 -59 291.5t-159.5 239t-239.5 159t-291 58.5q-204 0 -376.5 -99.5t-273 -272t-100.5 -376.5q0 -154 59.5 -293t160 -239.5t239 -159.5t291 -59zM1095 410h208v-123h-572v123h208v602q-84 -52 -166 -76v136q81 18 165 75h157v-737z" glyph-name="uni2460" horiz-adv-x="1985" unicode="①"/><glyph d="M1017 -154q-177 0 -338.5 69.5t-277.5 185.5t-185.5 278t-69.5 339t69.5 338t185.5 277.5t277.5 185t338.5 68.5t338.5 -68.5t277.5 -185t185 -277.5t69 -338t-69 -339t-185 -278t-277.5 -185.5t-338.5 -69.5zM1016.5 -33q152.5 0 291.5 59.5t239.5 159.5t159.5 239 t59 293q0 153 -59 291.5t-159.5 239t-239.5 159t-291 58.5q-204 0 -376.5 -99.5t-273 -272t-100.5 -376.5q0 -154 59.5 -293t160 -239.5t239 -159.5t291 -59zM1348 400v-122h-682v122q24 17 73 53.5t78 57.5t75 55.5t74 58.5t64 56t57.5 57t42.5 52.5t30 53t9 48.5 q0 65 -45.5 103t-131.5 38q-133 2 -242 -74l-61 104q146 93 308 93t249 -65t87 -173q0 -37 -12.5 -75t-29 -70t-50.5 -71t-57.5 -64.5t-70.5 -66t-70 -58.5t-76 -59t-68 -54h449z" glyph-name="uni2461" horiz-adv-x="1985" unicode="②"/><glyph d="M1017 -154q-177 0 -338.5 69.5t-277.5 185.5t-185.5 278t-69.5 339t69.5 338t185.5 277.5t277.5 185t338.5 68.5t338.5 -68.5t277.5 -185t185 -277.5t69 -338t-69 -339t-185 -278t-277.5 -185.5t-338.5 -69.5zM1016.5 -33q152.5 0 291.5 59.5t239.5 159.5t159.5 239 t59 293q0 153 -59 291.5t-159.5 239t-239.5 159t-291 58.5q-204 0 -376.5 -99.5t-273 -272t-100.5 -376.5q0 -154 59.5 -293t160 -239.5t239 -159.5t291 -59zM698 1156h612v-123l-298 -251q58 2 103 -5q109 -15 172 -78t62 -163q-1 -128 -90 -194.5t-249 -63.5 q-191 3 -346 95l69 107q49 -36 127.5 -59t147.5 -21q185 2 186 138q1 71 -54 111t-152 40q-88 0 -146 -20l-40 114l324 250h-428v123z" glyph-name="uni2462" horiz-adv-x="1985" unicode="③"/><glyph d="M1017 -154q-177 0 -338.5 69.5t-277.5 185.5t-185.5 278t-69.5 339t69.5 338t185.5 277.5t277.5 185t338.5 68.5t338.5 -68.5t277.5 -185t185 -277.5t69 -338t-69 -339t-185 -278t-277.5 -185.5t-338.5 -69.5zM1016.5 -33q152.5 0 291.5 59.5t239.5 159.5t159.5 239 t59 293q0 153 -59 291.5t-159.5 239t-239.5 159t-291 58.5q-204 0 -376.5 -99.5t-273 -272t-100.5 -376.5q0 -154 59.5 -293t160 -239.5t239 -159.5t291 -59zM1365 617v-122h-146v-208h-154v208h-417v122l394 530h177v-530h146zM800 617h265v375z" glyph-name="uni2463" horiz-adv-x="1985" unicode="④"/><glyph d="M1017 -154q-177 0 -338.5 69.5t-277.5 185.5t-185.5 278t-69.5 339t69.5 338t185.5 277.5t277.5 185t338.5 68.5t338.5 -68.5t277.5 -185t185 -277.5t69 -338t-69 -339t-185 -278t-277.5 -185.5t-338.5 -69.5zM1016.5 -33q152.5 0 291.5 59.5t239.5 159.5t159.5 239 t59 293q0 153 -59 291.5t-159.5 239t-239.5 159t-291 58.5q-204 0 -376.5 -99.5t-273 -272t-100.5 -376.5q0 -154 59.5 -293t160 -239.5t239 -159.5t291 -59zM742 1151h553v-123h-415l-19 -220q112 19 226 8q121 -14 191 -81.5t69 -182.5q-1 -139 -90.5 -205t-249.5 -64 q-101 1 -181 21.5t-160 68.5l65 109q49 -36 125.5 -57t148.5 -21q93 1 139.5 35.5t47.5 113.5q1 76 -70.5 120t-174.5 44q-85 0 -190 -22l-40 36z" glyph-name="uni2464" horiz-adv-x="1985" unicode="⑤"/><glyph d="M1017 -154q-177 0 -338.5 69.5t-277.5 185.5t-185.5 278t-69.5 339t69.5 338t185.5 277.5t277.5 185t338.5 68.5t338.5 -68.5t277.5 -185t185 -277.5t69 -338t-69 -339t-185 -278t-277.5 -185.5t-338.5 -69.5zM1016.5 -33q152.5 0 291.5 59.5t239.5 159.5t159.5 239 t59 293q0 153 -59 291.5t-159.5 239t-239.5 159t-291 58.5q-204 0 -376.5 -99.5t-273 -272t-100.5 -376.5q0 -154 59.5 -293t160 -239.5t239 -159.5t291 -59zM1371 577q0 -74 -30.5 -132t-82.5 -93t-114 -52t-128.5 -17t-128 17t-113 52t-82 93t-30.5 132q0 83 37 148 t212 293q63 83 102 133h186l-243 -316q84 30 165 18q105 -12 177.5 -84.5t72.5 -191.5zM1016 390q85 0 141.5 52t56.5 135q0 84 -56.5 134.5t-141.5 50.5q-83 0 -140.5 -53t-57.5 -132q0 -83 57 -135t141 -52z" glyph-name="uni2465" horiz-adv-x="1985" unicode="⑥"/><glyph d="M1017 -154q-177 0 -338.5 69.5t-277.5 185.5t-185.5 278t-69.5 339t69.5 338t185.5 277.5t277.5 185t338.5 68.5t338.5 -68.5t277.5 -185t185 -277.5t69 -338t-69 -339t-185 -278t-277.5 -185.5t-338.5 -69.5zM1016.5 -33q152.5 0 291.5 59.5t239.5 159.5t159.5 239 t59 293q0 153 -59 291.5t-159.5 239t-239.5 159t-291 58.5q-204 0 -376.5 -99.5t-273 -272t-100.5 -376.5q0 -154 59.5 -293t160 -239.5t239 -159.5t291 -59zM714 1114h601v-123q-269 -341 -326 -737h-163q56 396 311 737h-423v123z" glyph-name="uni2466" horiz-adv-x="1985" unicode="⑦"/><glyph d="M1017 -154q-177 0 -338.5 69.5t-277.5 185.5t-185.5 278t-69.5 339t69.5 338t185.5 277.5t277.5 185t338.5 68.5t338.5 -68.5t277.5 -185t185 -277.5t69 -338t-69 -339t-185 -278t-277.5 -185.5t-338.5 -69.5zM1016.5 -33q152.5 0 291.5 59.5t239.5 159.5t159.5 239 t59 293q0 153 -59 291.5t-159.5 239t-239.5 159t-291 58.5q-204 0 -376.5 -99.5t-273 -272t-100.5 -376.5q0 -154 59.5 -293t160 -239.5t239 -159.5t291 -59zM1352 528q0 -84 -51.5 -142t-127 -82.5t-167 -24.5t-167 24.5t-127.5 82.5t-52 142q0 79 47.5 134.5t121.5 82.5 q-122 59 -121 184q0 109 87 167.5t212 58.5q80 0 146 -23.5t108.5 -76.5t42.5 -126q1 -124 -120 -184q74 -28 121 -83t47 -134zM848 923q0 -58 45.5 -92.5t113 -34.5t113 34t45.5 93q0 57 -43.5 90t-114.5 33q-73 0 -116 -33t-43 -90zM1006.5 389q80.5 0 134 38.5 t53.5 107.5q0 68 -54 108.5t-133.5 40.5t-133.5 -41t-54 -108q-1 -69 53 -107.5t134.5 -38.5z" glyph-name="uni2467" horiz-adv-x="1985" unicode="⑧"/><glyph d="M1017 -154q-177 0 -338.5 69.5t-277.5 185.5t-185.5 278t-69.5 339t69.5 338t185.5 277.5t277.5 185t338.5 68.5t338.5 -68.5t277.5 -185t185 -277.5t69 -338t-69 -339t-185 -278t-277.5 -185.5t-338.5 -69.5zM1016.5 -33q152.5 0 291.5 59.5t239.5 159.5t159.5 239 t59 293q0 153 -59 291.5t-159.5 239t-239.5 159t-291 58.5q-204 0 -376.5 -99.5t-273 -272t-100.5 -376.5q0 -154 59.5 -293t160 -239.5t239 -159.5t291 -59zM662 857q0 74 31 132t82.5 92.5t113 52t128 17.5t128 -17.5t113.5 -52t82.5 -92.5t30.5 -132q0 -60 -19 -107.5 t-64 -111.5t-171 -229q-60 -80 -96 -126h-187l242 316q-84 -30 -164 -18q-105 12 -177.5 84.5t-72.5 191.5zM1017 1043q-85 0 -142 -51.5t-57 -134.5q0 -84 57 -134.5t142 -50.5q83 0 140.5 52.5t57.5 132.5q-1 83 -57.5 134.5t-140.5 51.5z" glyph-name="uni2468" horiz-adv-x="1985" unicode="⑨"/><glyph d="M1017 -154q-177 0 -338.5 69.5t-277.5 185.5t-185.5 278t-69.5 339t69.5 338t185.5 277.5t277.5 185t338.5 68.5t338.5 -68.5t277.5 -185t185 -277.5t69 -338t-69 -339t-185 -278t-277.5 -185.5t-338.5 -69.5zM1016.5 -33q152.5 0 291.5 59.5t239.5 159.5t159.5 239 t59 293q0 153 -59 291.5t-159.5 239t-239.5 159t-291 58.5q-204 0 -376.5 -99.5t-273 -272t-100.5 -376.5q0 -154 59.5 -293t160 -239.5t239 -159.5t291 -59zM1353 717q1 -216 -92.5 -327.5t-254.5 -111.5q-160 0 -253 111.5t-93 327.5q0 214 92.5 326.5t253.5 112.5 q162 0 254.5 -112.5t92.5 -326.5zM1007 397q94 0 140.5 84.5t46.5 235t-47.5 235t-140 84.5t-140 -84.5t-47.5 -235t47.5 -235t140.5 -84.5z" glyph-name="uni24EA" horiz-adv-x="1985" unicode="⓪"/><glyph d="M990.5 -127q-229.5 0 -424 112.5t-308 307t-113.5 425.5q0 229 113.5 423t308 307t424 113t423.5 -113t307 -307t113 -423q0 -230 -113 -425t-307 -307.5t-423.5 -112.5zM1336 717q0 214 -92.5 326.5t-254.5 112.5q-161 0 -253.5 -112.5t-92.5 -326.5q0 -216 92.5 -327.5 t253.5 -111.5q162 0 254.5 111.5t92.5 327.5zM989 397q-94 0 -140.5 84t-46.5 236q0 151 47.5 235t139.5 84q93 0 141.5 -84.5t48.5 -235t-48 -235t-142 -84.5z" glyph-name="uni24FF" horiz-adv-x="1933" unicode="⓿"/><glyph d="M306 1485h1536v-1536h-1536v1536z" glyph-name="filledbox" horiz-adv-x="2102" unicode="■"/><glyph d="M299 1434h1434v-1434h-1434v1434zM420 1313v-1192h1192v1192h-1192z" glyph-name="H22073" horiz-adv-x="1985" unicode="□"/><glyph d="M1360 717l-542 -717h-279l-340 717l540 717h281zM1122 717l-266 547l-420 -547l265 -547z" glyph-name="lozenge" horiz-adv-x="1511" unicode="◊"/><glyph d="M1017 -154q-177 0 -338.5 69.5t-277.5 185.5t-185.5 278t-69.5 339t69.5 338t185.5 277.5t277.5 185t338.5 68.5t338.5 -68.5t277.5 -185t185 -277.5t69 -338t-69 -339t-185 -278t-277.5 -185.5t-338.5 -69.5zM1016.5 -33q152.5 0 291.5 59.5t239.5 159.5t159.5 239 t59 293q0 153 -59 291.5t-159.5 239t-239.5 159t-291 58.5q-204 0 -376.5 -99.5t-273 -272t-100.5 -376.5q0 -154 59.5 -293t160 -239.5t239 -159.5t291 -59z" glyph-name="circle" horiz-adv-x="1985" unicode="○"/><glyph d="M990 -127q-172 0 -328.5 66.5t-269 179.5t-180 270t-67.5 329t67.5 327.5t180 268.5t269 180t328.5 67t328.5 -67t269 -180t179.5 -268.5t67 -327.5t-67 -329t-179.5 -270t-269 -179.5t-328.5 -66.5z" glyph-name="H18533" horiz-adv-x="1933" unicode="●"/><glyph d="M1017 -154q-177 0 -338.5 69t-278 185.5t-185.5 278t-69 339.5q0 142 44 274.5t124.5 239.5t187.5 187.5t239.5 124t275 43.5t275 -43.5t239.5 -124t187.5 -187.5t124.5 -239.5t44 -274.5q0 -178 -68.5 -339.5t-185 -278t-278 -185.5t-338.5 -69zM1095 410v737h-157 q-84 -56 -165 -75v-136q82 24 166 76v-602h-208v-123h572v123h-208z" glyph-name="uni2776" horiz-adv-x="1985" unicode="❶"/><glyph d="M1017 -154q-177 0 -338.5 69t-278 185.5t-185.5 278t-69 339.5q0 142 44 274.5t124.5 239.5t187.5 187.5t239.5 124t275 43.5t275 -43.5t239.5 -124t187.5 -187.5t124.5 -239.5t44 -274.5q0 -178 -68.5 -339.5t-185 -278t-278 -185.5t-338.5 -69zM1357 400h-449 q16 13 68 53.5t76 59.5t70.5 59t71 65.5t58 64.5t50 71t29 70t12.5 75q-1 109 -88 173.5t-247 64.5q-162 0 -309 -93l60 -104q111 76 243 74q85 0 131 -38.5t46 -102.5q0 -23 -9.5 -48.5t-30 -53t-42.5 -52.5t-57.5 -57t-64.5 -56t-74 -58.5t-74 -56t-78 -56.5t-73 -54v-122 h681v122z" glyph-name="uni2777" horiz-adv-x="1985" unicode="❷"/><glyph d="M1017 -154q-177 0 -338.5 69t-278 185.5t-185.5 278t-69 339.5q0 142 44 274.5t124.5 239.5t187.5 187.5t239.5 124t275 43.5t275 -43.5t239.5 -124t187.5 -187.5t124.5 -239.5t44 -274.5q0 -178 -68.5 -339.5t-185 -278t-278 -185.5t-338.5 -69zM708 1156v-123h429 l-325 -250l40 -114q58 20 145 20q97 0 152.5 -40.5t54.5 -110.5q-1 -135 -186 -138q-69 -2 -147 21t-129 59l-68 -107q155 -92 346 -95q161 -2 249.5 64t89.5 194q1 100 -62 163t-172 78q-45 7 -103 5l298 251v123h-612z" glyph-name="uni2778" horiz-adv-x="1985" unicode="❸"/><glyph d="M1017 -154q-177 0 -338.5 69t-278 185.5t-185.5 278t-69 339.5q0 142 44 274.5t124.5 239.5t187.5 187.5t239.5 124t275 43.5t275 -43.5t239.5 -124t187.5 -187.5t124.5 -239.5t44 -274.5q0 -178 -68.5 -339.5t-185 -278t-278 -185.5t-338.5 -69zM1375 617h-146v530h-177 l-394 -530v-122h417v-208h154v208h146v122zM809 617l266 375v-375h-266z" glyph-name="uni2779" horiz-adv-x="1985" unicode="❹"/><glyph d="M1017 -154q-177 0 -338.5 69t-278 185.5t-185.5 278t-69 339.5q0 142 44 274.5t124.5 239.5t187.5 187.5t239.5 124t275 43.5t275 -43.5t239.5 -124t187.5 -187.5t124.5 -239.5t44 -274.5q0 -178 -68.5 -339.5t-185 -278t-278 -185.5t-338.5 -69zM753 1151l-26 -420 l39 -36q105 22 191 22q102 0 174 -44t71 -120q-1 -79 -47.5 -113t-139.5 -36q-72 0 -148.5 21.5t-125.5 56.5l-65 -109q81 -48 160 -68.5t181 -21.5q161 -2 250 64t90 205q1 115 -68.5 182.5t-190.5 81.5q-115 11 -227 -8l18 220h417v123h-553z" glyph-name="uni277A" horiz-adv-x="1985" unicode="❺"/><glyph d="M1017 -154q-177 0 -338.5 69t-278 185.5t-185.5 278t-69 339.5q0 142 44 274.5t124.5 239.5t187.5 187.5t239.5 124t275 43.5t275 -43.5t239.5 -124t187.5 -187.5t124.5 -239.5t44 -274.5q0 -178 -68.5 -339.5t-185 -278t-278 -185.5t-338.5 -69zM1371 577 q0 119 -72 191.5t-178 84.5q-81 11 -165 -18l243 316h-186q-38 -50 -102 -133q-175 -228 -212 -293.5t-37 -147.5q0 -74 30.5 -132t82 -93t113 -52t128 -17t128.5 17t114 52t82.5 93t30.5 132zM1016 390q-84 0 -141 52t-57 135q0 80 57.5 132.5t140.5 52.5q85 0 141.5 -51 t56.5 -134t-56.5 -135t-141.5 -52z" glyph-name="uni277B" horiz-adv-x="1985" unicode="❻"/><glyph d="M1017 -154q-177 0 -338.5 69t-278 185.5t-185.5 278t-69 339.5q0 142 44 274.5t124.5 239.5t187.5 187.5t239.5 124t275 43.5t275 -43.5t239.5 -124t187.5 -187.5t124.5 -239.5t44 -274.5q0 -178 -68.5 -339.5t-185 -278t-278 -185.5t-338.5 -69zM723 1147v-123h424 q-254 -340 -310 -737h161q56 395 327 737v123h-602z" glyph-name="uni277C" horiz-adv-x="1985" unicode="❼"/><glyph d="M1017 -154q-177 0 -338.5 69t-278 185.5t-185.5 278t-69 339.5q0 142 44 274.5t124.5 239.5t187.5 187.5t239.5 124t275 43.5t275 -43.5t239.5 -124t187.5 -187.5t124.5 -239.5t44 -274.5q0 -178 -68.5 -339.5t-185 -278t-278 -185.5t-338.5 -69zM1362 528 q0 79 -47 134.5t-121 82.5q121 59 120 184q0 74 -42.5 126.5t-108.5 76t-146 23.5q-125 0 -212 -59t-87 -167q0 -124 122 -184q-75 -28 -122 -83t-47 -134q0 -63 29 -112t78.5 -78.5t110 -44t128.5 -14.5q91 0 166 24.5t127 82.5t52 142zM858 923q0 57 43 90t116 33 q72 0 115.5 -33t43.5 -90q0 -58 -46.5 -92.5t-112.5 -34.5q-69 0 -114 34.5t-45 92.5zM1017 389q-81 0 -135 38.5t-54 107.5q0 68 54 108.5t135 40.5q80 0 133.5 -41t53.5 -108q0 -69 -53 -107.5t-134 -38.5z" glyph-name="uni277D" horiz-adv-x="1985" unicode="❽"/><glyph d="M1017 -154q-177 0 -338.5 69t-278 185.5t-185.5 278t-69 339.5q0 142 44 274.5t124.5 239.5t187.5 187.5t239.5 124t275 43.5t275 -43.5t239.5 -124t187.5 -187.5t124.5 -239.5t44 -274.5q0 -178 -68.5 -339.5t-185 -278t-278 -185.5t-338.5 -69zM662 857 q0 -119 72.5 -191.5t177.5 -84.5q80 -11 164 18l-242 -316h187q36 46 96 126q126 166 171 229.5t64 111t19 107.5q0 74 -30.5 132t-82.5 92.5t-113.5 52t-128 17.5t-128 -17.5t-113 -52t-82.5 -92.5t-31 -132zM1017 1043q84 0 140.5 -51.5t57.5 -134.5q0 -80 -57.5 -132.5 t-140.5 -52.5q-85 0 -142 50.5t-57 134.5q0 83 57 134.5t142 51.5z" glyph-name="uni277E" horiz-adv-x="1985" unicode="❾"/><glyph d="M281 1419h238l-26 -189h-239zM232 1102h246l-154 -1102h-246z" glyph-name="i.aalt" horiz-adv-x="556"/><glyph d="M1158 1102h201l-155 -1102h-202l16 181q-154 -197 -443 -196q-110 0 -199.5 33t-155.5 99t-94 178t-7 256q16 115 57.5 209.5t100.5 159.5t133.5 110t156 65.5t168.5 20.5q296 0 387 -188zM636 151q60 0 116 17t107.5 52.5t92 97.5t62.5 144l25 177q-1 154 -84 233 t-206 79q-147 0 -257 -108.5t-136 -291.5q-27 -186 53.5 -293t226.5 -107z" glyph-name="a.salt" horiz-adv-x="1436"/><glyph d="M1219 1538l-310 -307h-191l267 307h234zM1158 1102h201l-155 -1102h-202l16 181q-154 -197 -443 -196q-110 0 -199.5 33t-155.5 99t-94 178t-7 256q16 115 57.5 209.5t100.5 159.5t133.5 110t156 65.5t168.5 20.5q296 0 387 -188zM636 151q60 0 116 17t107.5 52.5 t92 97.5t62.5 144l25 177q-1 154 -84 233t-206 79q-147 0 -257 -108.5t-136 -291.5q-27 -186 53.5 -293t226.5 -107z" glyph-name="aacute.aalt" horiz-adv-x="1436"/><glyph d="M1149 1490q-33 -117 -125 -188.5t-210 -71.5q-119 0 -191 71.5t-71 188.5h151q-4 -58 31.5 -97t96.5 -39q60 0 107 39t59 97h152zM1158 1102h201l-155 -1102h-202l16 181q-154 -197 -443 -196q-110 0 -199.5 33t-155.5 99t-94 178t-7 256q16 115 57.5 209.5t100.5 159.5 t133.5 110t156 65.5t168.5 20.5q296 0 387 -188zM636 151q60 0 116 17t107.5 52.5t92 97.5t62.5 144l25 177q-1 154 -84 233t-206 79q-147 0 -257 -108.5t-136 -291.5q-27 -186 53.5 -293t226.5 -107z" glyph-name="abreve.aalt" horiz-adv-x="1436"/><glyph d="M1020 1537h191l-265 -307h-264l-178 307h190l131 -234zM1158 1102h201l-155 -1102h-202l16 181q-154 -197 -443 -196q-110 0 -199.5 33t-155.5 99t-94 178t-7 256q16 115 57.5 209.5t100.5 159.5t133.5 110t156 65.5t168.5 20.5q296 0 387 -188zM636 151q60 0 116 17 t107.5 52.5t92 97.5t62.5 144l25 177q-1 154 -84 233t-206 79q-147 0 -257 -108.5t-136 -291.5q-27 -186 53.5 -293t226.5 -107z" glyph-name="uni01CE.aalt" horiz-adv-x="1436"/><glyph d="M1167 1230h-190l-130 235l-196 -235h-191l266 307h263zM1158 1102h201l-155 -1102h-202l16 181q-154 -197 -443 -196q-110 0 -199.5 33t-155.5 99t-94 178t-7 256q16 115 57.5 209.5t100.5 159.5t133.5 110t156 65.5t168.5 20.5q296 0 387 -188zM636 151q60 0 116 17 t107.5 52.5t92 97.5t62.5 144l25 177q-1 154 -84 233t-206 79q-147 0 -257 -108.5t-136 -291.5q-27 -186 53.5 -293t226.5 -107z" glyph-name="acircumflex.aalt" horiz-adv-x="1436"/><glyph d="M519 1419h239l-27 -189h-238zM924 1419h237l-26 -189h-238zM1158 1102h201l-155 -1102h-202l16 181q-154 -197 -443 -196q-110 0 -199.5 33t-155.5 99t-94 178t-7 256q16 115 57.5 209.5t100.5 159.5t133.5 110t156 65.5t168.5 20.5q296 0 387 -188zM636 151q60 0 116 17 t107.5 52.5t92 97.5t62.5 144l25 177q-1 154 -84 233t-206 79q-147 0 -257 -108.5t-136 -291.5q-27 -186 53.5 -293t226.5 -107z" glyph-name="adieresis.aalt" horiz-adv-x="1436"/><glyph d="M1158 1102h201l-155 -1102h-202l16 181q-154 -197 -443 -196q-110 0 -199.5 33t-155.5 99t-94 178t-7 256q16 115 57.5 209.5t100.5 159.5t133.5 110t156 65.5t168.5 20.5q296 0 387 -188zM636 151q60 0 116 17t107.5 52.5t92 97.5t62.5 144l25 177q-1 154 -84 233 t-206 79q-147 0 -257 -108.5t-136 -291.5q-27 -186 53.5 -293t226.5 -107zM497 -181h238l-26 -190h-239z" glyph-name="uni1EA1.aalt" horiz-adv-x="1436"/><glyph d="M496 1538h233l180 -307h-191zM1158 1102h201l-155 -1102h-202l16 181q-154 -197 -443 -196q-110 0 -199.5 33t-155.5 99t-94 178t-7 256q16 115 57.5 209.5t100.5 159.5t133.5 110t156 65.5t168.5 20.5q296 0 387 -188zM636 151q60 0 116 17t107.5 52.5t92 97.5t62.5 144 l25 177q-1 154 -84 233t-206 79q-147 0 -257 -108.5t-136 -291.5q-27 -186 53.5 -293t226.5 -107z" glyph-name="agrave.aalt" horiz-adv-x="1436"/><glyph d="M565 1376h537l-21 -146h-536zM1158 1102h201l-155 -1102h-202l16 181q-154 -197 -443 -196q-110 0 -199.5 33t-155.5 99t-94 178t-7 256q16 115 57.5 209.5t100.5 159.5t133.5 110t156 65.5t168.5 20.5q296 0 387 -188zM636 151q60 0 116 17t107.5 52.5t92 97.5t62.5 144 l25 177q-1 154 -84 233t-206 79q-147 0 -257 -108.5t-136 -291.5q-27 -186 53.5 -293t226.5 -107z" glyph-name="amacron.aalt" horiz-adv-x="1436"/><glyph d="M1158 1102h201l-155 -1102h-29q-177 -63 -182 -153q-4 -46 51.5 -61t127.5 3l-4 -106q-88 -19 -164 -13.5t-125 45.5t-41 103q5 55 50 104.5t143 77.5h-29l16 181q-154 -197 -443 -196q-110 0 -199.5 33t-155.5 99t-94 178t-7 256q16 115 57.5 209.5t100.5 159.5 t133.5 110t156 65.5t168.5 20.5q296 0 387 -188zM1014 462l25 177q-1 154 -84 233t-206 79q-147 0 -257 -108.5t-136 -291.5q-27 -186 53 -293t227 -107q60 0 116 17t107.5 52.5t92 97.5t62.5 144z" glyph-name="aogonek.aalt" horiz-adv-x="1436"/><glyph d="M813 1230q-91 0 -147 65.5t-42 155.5q13 91 86.5 156t165 65t147.5 -65t43 -156t-87.5 -156t-165.5 -65zM830.5 1351q40.5 0 75 29.5t39.5 70.5q6 42 -19.5 71.5t-66.5 29.5t-75 -29.5t-41 -71.5q-5 -41 21 -70.5t66.5 -29.5zM1158 1102h201l-155 -1102h-202l16 181 q-154 -197 -443 -196q-110 0 -199.5 33t-155.5 99t-94 178t-7 256q16 115 57.5 209.5t100.5 159.5t133.5 110t156 65.5t168.5 20.5q296 0 387 -188zM636 151q60 0 116 17t107.5 52.5t92 97.5t62.5 144l25 177q-1 154 -84 233t-206 79q-147 0 -257 -108.5t-136 -291.5 q-27 -186 53.5 -293t226.5 -107z" glyph-name="aring.aalt" horiz-adv-x="1436"/><glyph d="M481 1231q14 108 75 167.5t143 59.5q39 0 78 -15.5t65.5 -34t60.5 -34t63 -15.5q32 0 56 26.5t31 67.5h126q-14 -108 -76.5 -167t-143.5 -59q-52 0 -136 49t-123 49q-36 -1 -61 -27t-32 -68zM1158 1102h201l-155 -1102h-202l16 181q-154 -197 -443 -196q-110 0 -199.5 33 t-155.5 99t-94 178t-7 256q16 115 57.5 209.5t100.5 159.5t133.5 110t156 65.5t168.5 20.5q296 0 387 -188zM636 151q60 0 116 17t107.5 52.5t92 97.5t62.5 144l25 177q-1 154 -84 233t-206 79q-147 0 -257 -108.5t-136 -291.5q-27 -186 53.5 -293t226.5 -107z" glyph-name="atilde.aalt" horiz-adv-x="1436"/><glyph d="M556 0h-250q-93 0 -141.5 65t-34.5 166l184 1305h246l-175 -1238q-8 -63 18.5 -100t78.5 -37h97z" glyph-name="l.aalt" horiz-adv-x="752"/><glyph d="M938 1972l-309 -307h-192l268 307h233zM556 0h-250q-93 0 -141.5 65t-34.5 166l184 1305h246l-175 -1238q-8 -63 18.5 -100t78.5 -37h97z" glyph-name="lacute.aalt" horiz-adv-x="752"/><glyph d="M536 0h-250q-92 0 -141 65t-34 166l183 1305h246l-174 -1238q-9 -63 17.5 -100t78.5 -37h96zM727 1409h251l-186 -529h-217z" glyph-name="lcaron.aalt" horiz-adv-x="1032"/><glyph d="M556 0h-250q-93 0 -141.5 65t-34.5 166l184 1305h246l-175 -1238q-8 -63 18.5 -100t78.5 -37h97zM203 -106h220l-163 -464h-189z" glyph-name="lcommaaccent.aalt" horiz-adv-x="752"/><glyph d="M556 0h-250q-93 0 -141.5 65t-34.5 166l184 1305h246l-175 -1238q-8 -63 18.5 -100t78.5 -37h97zM155 -181h238l-26 -190h-239z" glyph-name="uni1E37.aalt" horiz-adv-x="752"/><glyph d="M450 752l-65 -454q-8 -63 18.5 -100t78.5 -37h97l-23 -161h-250q-93 0 -141.5 65t-34.5 166l67 474l-106 -20l15 112l107 19l101 720h246l-95 -673l191 36l-15 -112z" glyph-name="lslash.aalt" horiz-adv-x="752"/><glyph d="M1053 1102h259l-778 -1512h-231l224 452h-120l-246 1060h261l182 -905z" glyph-name="y.aalt" horiz-adv-x="1317"/><glyph d="M1159 1537l-309 -307h-192l268 307h233zM1053 1102h259l-778 -1512h-231l224 452h-120l-246 1060h261l182 -905z" glyph-name="yacute.aalt" horiz-adv-x="1317"/><glyph d="M786 1465l-195 -235h-192l267 307h263l178 -307h-191zM1053 1102h259l-778 -1512h-231l224 452h-120l-246 1060h261l182 -905z" glyph-name="ycircumflex.aalt" horiz-adv-x="1317"/><glyph d="M697 1419l-26 -189h-239l27 189h238zM1101 1419l-27 -189h-237l26 189h238zM1053 1102h259l-778 -1512h-231l224 452h-120l-246 1060h261l182 -905z" glyph-name="ydieresis.aalt" horiz-adv-x="1317"/><glyph d="M1053 1102h259l-778 -1512h-231l224 452h-120l-246 1060h261l182 -905zM937 -357l29 206h254l-28 -206h-255z" glyph-name="uni1EF5.aalt" horiz-adv-x="1357"/><glyph d="M850 1230h-192l-222 307h234zM1053 1102h259l-778 -1512h-231l224 452h-120l-246 1060h261l182 -905z" glyph-name="ygrave.aalt" horiz-adv-x="1317"/><glyph d="M641 1325q-36 -1 -61 -27t-32 -68l-126 1q14 108 75 167.5t143 59.5q39 0 78 -15.5t65.5 -34t60.5 -34t62 -15.5q32 0 56 26.5t31 67.5h126q-14 -108 -76 -167t-143 -59q-52 0 -136 49t-123 49zM1053 1102h259l-778 -1512h-231l224 452h-120l-246 1060h261l182 -905z" glyph-name="uni1EF9.aalt" horiz-adv-x="1317"/><glyph d="M2355 1434l-26 -191h-416l-174 -1243h-266l175 1243h-833l-174 -1243h-266l175 1243h-416l27 191h2194z" glyph-name="T_T.dlig" horiz-adv-x="2268"/><glyph d="M1532 931l-89 -633q-9 -63 17.5 -100t78.5 -37h188l-22 -161h-342q-93 0 -142 65t-34 166l99 700h-695l-131 -931h-246l131 931h-172l24 171h172l28 203q14 98 80.5 164.5t155.5 66.5h316l-22 -161h-163q-52 0 -86.5 -36t-43.5 -101l-20 -136h696l29 215h246l-30 -215 h305l-24 -171h-304z" glyph-name="f_t.dlig" horiz-adv-x="1937"/><glyph d="M1272 1434h294l-24 -170h-294zM1495 1102l-24 -171l-131 -931h-245l131 931h-635l-89 -633q-9 -63 17.5 -100t78.5 -37h188l-22 -161h-342q-92 0 -141 65t-34 166l98 700h-172l24 171h172l30 215h246l-31 -215h881z" glyph-name="t_i.dlig" horiz-adv-x="1593"/><glyph d="M1588 931l-89 -633q-9 -63 17.5 -100t78.5 -37h189l-23 -161h-342q-93 0 -141.5 65t-34.5 166l99 700h-751l-89 -633q-9 -63 17.5 -100t78.5 -37h188l-22 -161h-342q-92 0 -141 65t-34 166l98 700h-172l24 171h172l30 215h246l-31 -215h752l31 215h245l-30 -215h304 l-24 -171h-304z" glyph-name="t_t.dlig" horiz-adv-x="1993"/><glyph d="M2269 1434h294l-25 -170h-293zM2492 1102l-154 -1102h-246l131 931h-635l-89 -633q-9 -63 17.5 -100t78.5 -37h189l-23 -161h-342q-93 0 -141.5 65t-34.5 166l99 700h-751l-89 -633q-9 -63 17.5 -100t78.5 -37h188l-22 -161h-342q-92 0 -141 65t-34 166l98 700h-172 l24 171h172l30 215h246l-31 -215h752l31 215h245l-30 -215h880z" glyph-name="t_t_i.dlig" horiz-adv-x="2590"/><glyph d="M1422 161h97l-23 -161h-250q-92 0 -140.5 65t-34.5 166l161 1144h-468q-52 0 -86.5 -36t-43.5 -101l-20 -136h274l-24 -171h-273l-131 -931h-246l131 931h-172l24 171h172l28 203q14 98 80.5 164.5t155.5 66.5h867l-174 -1238q-9 -63 17.5 -100t78.5 -37z" glyph-name="uniFB02.aalt" horiz-adv-x="1692"/><glyph d="M820 1434h129l-92 -661h-130l12 123q-46 -68 -119.5 -100t-148.5 -32q-67 0 -120.5 20t-93 59.5t-56 106t-3.5 153.5q23 168 126.5 254t241.5 86q75 0 139 -33.5t92 -100.5zM513 871q75 0 136.5 43.5t85.5 135.5l16 106q-1 88 -50.5 133.5t-121.5 45.5q-86 0 -149 -63 t-79 -169q-15 -108 31 -170t131 -62z" glyph-name="ordfeminine.aalt" horiz-adv-x="945"/><glyph d="M1053 1434h259l-778 -1434h-231l224 428h-120l-246 1006h261l182 -859z" glyph-name="afii10037.aalt" horiz-adv-x="1224"/><glyph d="M1158 1102h201l-155 -1102h-202l16 181q-154 -197 -443 -196q-110 0 -199.5 33t-155.5 99t-94 178t-7 256q16 115 57.5 209.5t100.5 159.5t133.5 110t156 65.5t168.5 20.5q296 0 387 -188zM636 151q60 0 116 17t107.5 52.5t92 97.5t62.5 144l25 177q-1 154 -84 233 t-206 79q-147 0 -257 -108.5t-136 -291.5q-27 -186 53.5 -293t226.5 -107z" glyph-name="afii10065.aalt" horiz-adv-x="1436"/><glyph d="M1215 552q-19 -141 -75.5 -250t-140 -178t-188 -104t-226.5 -35t-217 35t-159 104t-89.5 178t-5.5 250q39 273 210 419.5t420.5 146.5t379 -146.5t91.5 -419.5zM605 131q145 0 238.5 110.5t121.5 310.5q28 197 -35.5 309t-205.5 112t-237 -112t-122 -309 q-28 -200 34 -310.5t206 -110.5z" glyph-name="zero.oldstyle" horiz-adv-x="1329"/><glyph d="M691 171h323l-24 -171h-892l24 171h323l104 733q-157 -86 -301 -124l27 197q156 36 299 125h248z" glyph-name="one.oldstyle" horiz-adv-x="1243"/><glyph d="M1066 171l-24 -171h-964l23 171q55 35 143 87t150.5 89.5t139 86t130 89t102.5 84.5t76.5 86t33.5 81q12 82 -45 132t-173 50q-172 0 -341 -97l-58 139q210 117 438 117q216 0 333.5 -77t96.5 -222q-5 -37 -21.5 -75t-37.5 -71t-57 -71t-67.5 -66.5t-81 -66.5t-85 -62.5 t-93.5 -62t-91.5 -58.5t-95 -58t-88.5 -54h657z" glyph-name="two.oldstyle" horiz-adv-x="1275"/><glyph d="M295 1102h1020l-27 -192l-556 -424q94 3 170 -9q176 -27 263.5 -130.5t63.5 -270.5q-31 -208 -197.5 -317t-430.5 -106q-169 2 -296.5 36.5t-249.5 113.5l127 170q73 -60 199 -96t245 -34q154 1 248.5 62t110.5 174q18 118 -68.5 192t-245.5 74q-143 0 -248 -34l-36 166 l615 433h-734z" glyph-name="three.oldstyle" horiz-adv-x="1362"/><glyph d="M1382 212l-26 -190h-250l-50 -354h-246l50 354h-713l27 190l800 890h282l-123 -890h249zM408 212h479l91 648z" glyph-name="four.oldstyle" horiz-adv-x="1543"/><glyph d="M370 1102h916l-26 -192h-703l-83 -382q191 34 388 15q194 -24 296 -139.5t75 -301.5q-34 -226 -200 -339t-432 -110q-169 2 -296.5 36.5t-249.5 113.5l127 170q73 -59 198 -95t246 -35q156 1 250 65.5t113 195.5q18 127 -94 206.5t-280 79.5q-157 0 -336 -35l-49 60z" glyph-name="five.oldstyle" horiz-adv-x="1362"/><glyph d="M1286 475q-17 -123 -82 -219t-159.5 -153.5t-201 -86.5t-216.5 -29q-88 0 -169.5 18t-153 56.5t-121 94.5t-72 138.5t-8.5 180.5q6 43 16.5 77t23 65t44 74.5t60 81t95 110.5t123 135.5t167.5 184.5t210 231h292l-479 -529q145 50 279 33q82 -10 151.5 -45t119.5 -92 t72.5 -141.5t8.5 -184.5zM650 153q146 0 258 89t132 233q20 147 -66 235t-234 88q-145 0 -258 -91.5t-133 -231.5q-20 -144 67 -233t234 -89z" glyph-name="six.oldstyle" horiz-adv-x="1411"/><glyph d="M238 1102h1002l-27 -192q-527 -566 -717 -1242h-257q199 696 705 1242h-733z" glyph-name="seven.oldstyle" horiz-adv-x="1229"/><glyph d="M1245 401q-11 -85 -53.5 -155t-104 -117.5t-141 -80.5t-164 -47.5t-172.5 -14.5q-89 0 -169 14.5t-149.5 47.5t-117.5 80.5t-70.5 117.5t-10.5 155q18 132 109 224t223 139q-85 44 -129.5 121.5t-30.5 183.5q13 93 64.5 166.5t128.5 118.5t168 68.5t189 23.5 q99 0 183.5 -23.5t148.5 -68.5t95 -118.5t18 -166.5q-14 -106 -81 -183.5t-163 -121.5q117 -47 182 -139t47 -224zM481 1059q-14 -100 58 -159t191 -59t207.5 58t103 159.5t-54 159.5t-194.5 58t-211.5 -58t-99.5 -159zM634 157q141 0 244.5 67t120.5 188q16 118 -68 188 t-224.5 70t-244.5 -70.5t-120 -187.5q-17 -121 67 -188t225 -67z" glyph-name="eight.oldstyle" horiz-adv-x="1379"/><glyph d="M172 628q13 98 58.5 180.5t111 138t147.5 94.5t168 57t174.5 18t169 -18t152 -57t121 -94.5t72 -138t9.5 -180.5q-6 -43 -16.5 -77t-22.5 -65t-44.5 -74.5t-61 -81t-94 -110.5t-123 -135.5t-168 -184t-209.5 -231.5h-292l479 529q-147 -51 -280 -32q-82 10 -151 45 t-119.5 91t-72.5 141t-8 185zM808 951q-146 0 -258 -89.5t-132 -233.5q-20 -147 66 -235t234 -88q144 0 257.5 91t133.5 232q19 144 -68 233.5t-233 89.5z" glyph-name="nine.oldstyle" horiz-adv-x="1411"/><glyph d="M1341 717q-49 -360 -230 -546t-449 -186q-267 0 -396 185.5t-78 546.5q50 357 230.5 544.5t449 187.5t396 -187.5t77.5 -544.5zM688 171q163 0 265 143.5t138 402.5q36 258 -27 402t-223 144t-263 -144.5t-139 -401.5q-37 -258 25 -402t224 -144z" glyph-name="zero.tnum" horiz-adv-x="1483"/><glyph d="M814 190h353l-26 -190h-953l27 190h353l146 1032q-159 -86 -301 -125l29 213q152 33 298 124h248z" glyph-name="one.tnum" horiz-adv-x="1483"/><glyph d="M1258 190l-26 -190h-1135l27 190q46 31 135.5 90t144 95.5t139 93.5t138.5 98t121.5 94.5t111 96t85 89t63.5 89t28 81.5q15 108 -55 174.5t-213 66.5q-223 2 -426 -123l-68 161q260 153 530 153q262 0 392.5 -107t105.5 -283q-8 -60 -38.5 -124.5t-69 -118t-103 -118 t-116 -110t-136.5 -109.5t-135.5 -100t-142 -99t-128.5 -90h771z" glyph-name="two.tnum" horiz-adv-x="1483"/><glyph d="M355 1434h1020l-26 -191l-556 -425q94 3 170 -9q176 -26 263.5 -130t62.5 -270q-31 -209 -197 -318t-430 -106q-169 2 -296.5 36t-249.5 114l127 170q73 -60 198 -96t245 -34q154 1 248.5 62t111.5 174q18 118 -68.5 192t-246.5 74q-143 0 -248 -34l-36 166l616 434h-734 z" glyph-name="three.tnum" horiz-adv-x="1483"/><glyph d="M1353 545l-27 -192h-251l-49 -353h-246l49 353h-711l26 192l800 889h283l-125 -889h251zM378 545h478l91 648z" glyph-name="four.tnum" horiz-adv-x="1483"/><glyph d="M430 1434h917l-27 -191h-703l-82 -382q200 34 388 13q194 -24 295.5 -139t74.5 -301q-34 -226 -199.5 -339t-431.5 -110q-169 2 -296.5 36t-249.5 114l127 170q73 -59 197.5 -95t245.5 -35q156 1 250 66t114 195q18 127 -94 207t-281 80q-159 0 -336 -36l-48 61z" glyph-name="five.tnum" horiz-adv-x="1483"/><glyph d="M1322 476q-13 -99 -58.5 -181.5t-111 -138.5t-147.5 -94.5t-168 -56.5t-174.5 -18t-169 18t-152 56.5t-121 94.5t-72 138.5t-9.5 181.5q6 43 16.5 77t22.5 65t44.5 74.5t61 81t94 110t123 135.5t168 184t209.5 231h292l-479 -529q143 51 280 33q82 -10 151 -45t119 -92 t72.5 -141t8.5 -184zM686.5 153q147.5 0 258.5 89t131 234q20 146 -66 234t-234 88q-144 0 -258 -91t-133 -231q-19 -145 67.5 -234t234 -89z" glyph-name="six.tnum" horiz-adv-x="1483"/><glyph d="M365 1434h1002l-27 -191q-527 -565 -718 -1243h-256q198 697 704 1243h-732z" glyph-name="seven.tnum" horiz-adv-x="1483"/><glyph d="M1296 401q-14 -105 -74.5 -187.5t-150 -130.5t-194 -72.5t-215.5 -24.5q-88 0 -168 14.5t-150 47.5t-118 80.5t-70.5 117.5t-10.5 155q18 132 109 224t223 139q-85 44 -130 121.5t-30 183.5q13 93 64.5 166.5t128.5 118.5t168 68.5t189 23.5q99 0 184 -23.5t148.5 -68.5 t94 -118.5t17.5 -166.5q-13 -106 -80 -183.5t-164 -121.5q117 -47 182 -139t47 -224zM534 1059q-14 -100 58 -159t190.5 -59t207 58.5t103.5 159.5q14 101 -54.5 159t-195.5 58q-126 0 -210.5 -58t-98.5 -159zM686 157q141 0 244.5 67t121.5 188q16 118 -69 188t-225 70 q-139 0 -243 -70.5t-122 -187.5q-17 -121 67.5 -188t225.5 -67z" glyph-name="eight.tnum" horiz-adv-x="1483"/><glyph d="M208 959q13 99 58.5 182t110.5 138.5t147.5 94.5t168.5 57t174 18t169.5 -18t153 -57t121 -94.5t72 -138t8.5 -182.5q-6 -43 -16.5 -76.5t-23 -65t-44 -75t-60 -80.5t-95 -110.5t-123 -136t-167.5 -184t-210 -230.5h-293l480 529q-143 -51 -280 -32q-82 10 -151 45 t-119 91.5t-72.5 140.5t-8.5 184zM843.5 1283q-147.5 0 -258.5 -89t-131 -235t66.5 -233.5t233.5 -87.5q145 0 258 90.5t133 230.5q20 145 -67 234.5t-234.5 89.5z" glyph-name="nine.tnum" horiz-adv-x="1483"/><glyph d="M817 1449q268 0 396 -187.5t78 -544.5q-50 -360 -231 -546t-450 -186q-267 0 -395 185.5t-78 546.5q50 357 231 544.5t449 187.5zM388 717q-26 -180 -4 -302l616 729q-67 119 -209 119q-160 0 -263.5 -144t-139.5 -402zM1040 717q28 196 -3 329l-621 -737 q63 -138 221 -138q163 0 264.5 143.5t138.5 402.5z" glyph-name="zero.zero" horiz-adv-x="1381"/><glyph d="M795 430q-30 -216 -138.5 -327.5t-269.5 -111.5t-238 111.5t-47 327.5q30 214 138.5 326.5t269.5 112.5t238 -112.5t47 -326.5zM402 111q95 0 154 84t81 235t-14.5 235.5t-129.5 84.5q-92 0 -151.5 -84.5t-81.5 -235.5q-22 -152 13 -235.5t129 -83.5z" glyph-name="zero.dnom" horiz-adv-x="930"/><glyph d="M423 123h208l-18 -123h-571l17 123h208l84 602q-90 -52 -175 -76l19 136q83 18 175 75h156z" glyph-name="one.dnom" horiz-adv-x="809"/><glyph d="M740 123l-17 -123h-681l17 123q26 17 81.5 53.5t86 57t81.5 55.5t82 58.5t72 55t66 56.5t49.5 53t37.5 53.5t16 47.5q9 66 -31 104t-125 39q-135 0 -254 -74l-46 103q161 93 323 94q161 0 239 -65t63 -174q-5 -33 -17.5 -65t-36.5 -65.5t-45.5 -60.5t-60.5 -62 t-63.5 -56.5t-72.5 -56.5t-70 -51.5t-74.5 -53t-67.5 -46.5h448z" glyph-name="two.dnom" horiz-adv-x="919"/><glyph d="M198 866h612l-17 -123l-333 -249q58 2 102 -7q105 -15 160 -77.5t40 -162.5q-19 -128 -117.5 -194t-259.5 -64q-190 3 -331 94l83 108q44 -36 120 -58.5t144 -20.5q184 2 206 137q10 70 -39 110t-146 40q-89 0 -149 -19l-24 115l359 248h-428z" glyph-name="three.dnom" horiz-adv-x="923"/><glyph d="M805 331l-17 -123h-147l-29 -208h-153l28 208h-415l16 123l469 529h176l-75 -529h147zM240 331h266l52 375z" glyph-name="four.dnom" horiz-adv-x="955"/><glyph d="M240 860h552l-18 -123h-416l-48 -221q108 20 227 9q120 -14 179.5 -81.5t42.5 -183.5q-20 -138 -118.5 -204.5t-259.5 -64.5q-101 2 -177.5 22.5t-150.5 67.5l80 110q45 -36 119 -57t144 -20q94 0 145.5 34.5t63.5 113.5q11 76 -54.5 119.5t-167.5 43.5q-89 0 -194 -21 l-34 36z" glyph-name="five.dnom" horiz-adv-x="919"/><glyph d="M793 295q-13 -97 -77 -166t-146.5 -98.5t-173.5 -29.5q-67 0 -125.5 17.5t-105 52t-69.5 92.5t-13 132q11 83 57.5 147.5t251.5 290.5q77 85 123 136h187l-287 -316q89 30 167 18q104 -12 165.5 -84.5t45.5 -191.5zM412 109q85 0 149 51t75 135q12 84 -37.5 134.5 t-134.5 50.5q-83 0 -148 -52.5t-76 -132.5q-11 -84 38 -135t134 -51z" glyph-name="six.dnom" horiz-adv-x="948"/><glyph d="M163 860h601l-16 -123q-155 -166 -262.5 -345t-168.5 -392h-162q113 397 414 737h-424z" glyph-name="seven.dnom" horiz-adv-x="840"/><glyph d="M767 241q-11 -83 -71 -141.5t-139.5 -83t-170.5 -24.5q-68 0 -125.5 15t-103 43.5t-67.5 77.5t-13 113q11 80 65 134.5t132 82.5q-113 59 -94 183q15 109 110 167.5t219 58.5q125 0 204 -58.5t63 -167.5q-17 -125 -147 -183q71 -28 110 -82.5t28 -134.5zM318 635 q-8 -57 32.5 -91.5t108 -34.5t118.5 34.5t59 91.5q7 57 -32 90.5t-110.5 33.5t-120 -33.5t-55.5 -90.5zM401.5 101q80.5 0 139.5 38.5t68 107.5q10 68 -38 108.5t-127.5 40.5t-139 -41t-70.5 -108q-10 -69 38.5 -107.5t129 -38.5z" glyph-name="eight.dnom" horiz-adv-x="928"/><glyph d="M123 575q13 97 77 166t146 98.5t173 29.5q67 0 125.5 -17t105.5 -52t70 -93t13 -132q-12 -84 -59.5 -149.5t-257.5 -296.5q-73 -81 -116 -128h-186l288 316q-90 -30 -168 -18q-103 12 -165 84.5t-46 191.5zM504 762q-85 0 -149 -52t-75 -135q-12 -84 38 -134.5t135 -50.5 q83 0 147.5 53t75.5 132q12 83 -37.5 135t-134.5 52z" glyph-name="nine.dnom" horiz-adv-x="948"/><glyph d="M876 1005q-30 -216 -138.5 -328t-269.5 -112t-238 111.5t-47 328.5q30 214 138.5 326.5t269.5 112.5t238 -112.5t47 -326.5zM483 685q95 0 154 84t81 236q22 151 -14.5 235t-130.5 84q-92 0 -151.5 -84.5t-80.5 -234.5q-22 -152 13 -236t129 -84z" glyph-name="zero.numr" horiz-adv-x="930"/><glyph d="M504 696h208l-18 -123h-571l17 123h208l84 602q-90 -52 -175 -75l18 136q83 18 176 75h156z" glyph-name="one.numr" horiz-adv-x="809"/><glyph d="M819 684l-17 -123h-681l17 123q26 17 81 53.5t86 57t82 55.5t82 58.5t72 55t66 57t49.5 53t37.5 53t16 48.5q9 66 -31 103.5t-125 38.5q-135 0 -254 -74l-46 104q161 93 323 93q161 0 239 -65t63 -174q-5 -33 -17.5 -65t-36.5 -65.5t-45.5 -60.5t-60.5 -62t-63.5 -56.5 t-72.5 -56.5t-70.5 -51.5t-74.5 -53t-67 -46.5h448z" glyph-name="two.numr" horiz-adv-x="919"/><glyph d="M278 1434h613l-18 -123l-333 -250q51 2 102 -6q106 -15 160.5 -78t40.5 -163q-19 -128 -117.5 -194t-259.5 -64q-191 3 -332 94l83 109q45 -37 120.5 -59.5t144.5 -21.5q185 2 205 138q10 70 -39 110.5t-146 40.5q-89 0 -149 -20l-24 115l360 249h-428z" glyph-name="three.numr" horiz-adv-x="923"/><glyph d="M886 904l-17 -123h-147l-29 -208h-153l28 208h-415l16 123l469 530h176l-75 -530h147zM321 904h266l52 375z" glyph-name="four.numr" horiz-adv-x="955"/><glyph d="M321 1434h551l-17 -123h-416l-48 -221q108 20 226 9q120 -14 180 -82t43 -183q-20 -138 -118.5 -205t-259.5 -65q-101 2 -177.5 22.5t-150.5 67.5l80 111q45 -36 119 -57.5t144 -20.5q94 0 145.5 35t63.5 114q11 76 -54.5 119t-167.5 43q-89 0 -194 -20l-34 36z" glyph-name="five.numr" horiz-adv-x="919"/><glyph d="M871 859q-13 -97 -76.5 -165.5t-146 -98.5t-173.5 -30q-67 0 -125.5 17.5t-105 52.5t-69.5 92.5t-13 131.5q11 83 57.5 147.5t251.5 290.5q77 85 123 137h187l-287 -317q89 30 166 19q104 -12 165.5 -85t45.5 -192zM490.5 673q84.5 0 148.5 51t76 135t-37.5 134.5 t-134.5 50.5q-83 0 -148 -52.5t-77 -132.5q-11 -84 38.5 -135t134 -51z" glyph-name="six.numr" horiz-adv-x="948"/><glyph d="M244 1434h601l-17 -123q-155 -166 -262 -345.5t-168 -392.5h-162q113 397 414 738h-424z" glyph-name="seven.numr" horiz-adv-x="840"/><glyph d="M847 811q-11 -83 -71 -141.5t-139.5 -83t-170.5 -24.5q-68 0 -125.5 15t-103.5 43.5t-68 78t-12 112.5q11 80 64.5 134.5t132.5 82.5q-113 59 -94 183q15 109 110 168t219 59q125 0 203.5 -59t63.5 -168q-17 -125 -147 -183q71 -28 110 -82.5t28 -134.5zM398 1205 q-8 -57 32.5 -91.5t108 -34.5t118.5 34.5t59 91.5q7 57 -32 90.5t-110.5 33.5t-120 -33.5t-55.5 -90.5zM481 672q81 0 140 38.5t68 106.5q10 68 -38 109t-128 41t-139 -41t-70 -109q-10 -69 38 -107t129 -38z" glyph-name="eight.numr" horiz-adv-x="928"/><glyph d="M203 1145q13 97 77 165.5t146 98.5t173 30q67 0 125.5 -17.5t105.5 -52.5t70 -92.5t12 -131.5q-12 -84 -59 -149.5t-257 -297.5q-73 -81 -116 -128h-186l288 317q-90 -30 -168 -19q-103 12 -165 85t-46 192zM584 1331q-85 0 -149 -51.5t-76 -134.5q-12 -84 38 -135 t135 -51q83 0 147.5 53t76.5 133q12 83 -37.5 134.5t-134.5 51.5z" glyph-name="nine.numr" horiz-adv-x="948"/><glyph d="M230 945h508l-64 -457h-507z" glyph-name="bullet.aalt" horiz-adv-x="858"/><glyph d="M271 -334q-150 505 -76 1027t364 1021h227q-179 -317 -273 -669.5t-95.5 -697.5t81.5 -681h-228z" glyph-name="parenleft.aalt" horiz-adv-x="797"/><glyph d="M279 -334h-228q268 498 344.5 1030.5t-56.5 1017.5h227q150 -496 77 -1020.5t-364 -1027.5z" glyph-name="parenright.aalt" horiz-adv-x="797"/><glyph d="M518 -295q-143 0 -207 81.5t-39 268.5l56 395q9 67 -23 116t-120 52l24 172q89 3 135 52.5t55 115.5l56 394q27 188 113.5 269t230.5 81h162l-25 -171h-76q-134 0 -159 -174l-61 -432q-12 -90 -68 -152.5t-158 -66.5l-1 -5q52 -2 89 -21.5t53.5 -49.5t24 -68.5 t-0.5 -78.5l-62 -433q-25 -174 111 -174h75l-23 -171h-162z" glyph-name="braceleft.aalt" horiz-adv-x="972"/><glyph d="M218 -295h-161l24 171h76q72 0 109 45.5t48 128.5l62 433q13 90 69 152t158 66l1 5q-101 4 -140 66.5t-27 152.5l62 432q25 174 -110 174h-76l25 171h161q143 0 207 -81t37 -269l-55 -394q-6 -42 2.5 -76.5t44 -62t96.5 -29.5l-23 -172q-89 -3 -135.5 -52.5t-56.5 -115.5 l-55 -395q-26 -187 -113 -268.5t-230 -81.5z" glyph-name="braceright.aalt" horiz-adv-x="972"/><glyph d="M336 1695h568l-23 -171h-323l-227 -1614h322l-23 -171h-569z" glyph-name="bracketleft.aalt" horiz-adv-x="919"/><glyph d="M904 1695l-274 -1956h-569l24 171h323l227 1614h-323l24 171h568z" glyph-name="bracketright.aalt" horiz-adv-x="918"/><glyph d="M212 812h510l-28 -190h-509z" glyph-name="hyphen.aalt" horiz-adv-x="860"/><glyph d="M212 812h972l-27 -190h-972z" glyph-name="endash.aalt" horiz-adv-x="1323"/><glyph d="M212 812h1539l-28 -190h-1538z" glyph-name="emdash.aalt" horiz-adv-x="1889"/><glyph d="M843 1089l-392 -384l283 -384h-254l-283 384l392 384h254zM1353 1089l-392 -384l283 -384h-254l-283 384l392 384h254z" glyph-name="guillemotleft.aalt" horiz-adv-x="1452"/><glyph d="M251 1089h254l283 -384l-391 -384h-254l392 384zM761 1089h254l283 -384l-391 -384h-254l391 384z" glyph-name="guillemotright.aalt" horiz-adv-x="1453"/><glyph d="M843 1089l-392 -384l283 -384h-254l-283 384l392 384h254z" glyph-name="guilsinglleft.aalt" horiz-adv-x="943"/><glyph d="M251 1089h254l285 -384l-393 -384h-254l393 384z" glyph-name="guilsinglright.aalt" horiz-adv-x="943"/><glyph d="M1471 614q-57 -182 -205 -338l233 -276h-275l-129 157q-247 -167 -514 -167q-238 0 -373.5 104t-113.5 282q42 319 434 420q-176 139 -148 338q23 145 157 230.5t330 85.5q86 0 161.5 -19.5t134.5 -57.5t87.5 -101t17.5 -144q-17 -123 -129 -213.5t-308 -159.5l317 -349 q98 115 135 253zM858 1295q-96 0 -162.5 -47t-81.5 -123q-9 -60 18 -113.5t107 -152.5q286 106 309 258q12 91 -47 134.5t-143 43.5zM624 154q103 0 198.5 35t163.5 92l-362 404q-141 -48 -206.5 -116.5t-80.5 -174.5q-15 -111 67 -175.5t220 -64.5z" glyph-name="ampersand.aalt" horiz-adv-x="1695"/><glyph d="M-650 1737h238l-26 -190h-239zM-246 1737h238l-27 -190h-237z" glyph-name="uni0308.aalt"/><glyph d="M-247 1737h239l-27 -190h-238z" glyph-name="uni0307.aalt"/><glyph d="M-450 1854h235l179 -307h-190z" glyph-name="gravecomb.aalt"/><glyph d="M7 1854l-309 -307h-192l268 307h233z" glyph-name="acutecomb.aalt"/><glyph d="M-255 1865l-210 -328h-165l207 328h168zM9 1865l-211 -328h-165l208 328h168z" glyph-name="uni030B.aalt"/><glyph d="M-37 1537h-191l-129 236l-197 -236h-190l265 307h264z" glyph-name="uni0302.aalt"/><glyph d="M-207 1688h191l-266 -308h-263l-179 308h192l130 -236z" glyph-name="uni030C.aalt"/><glyph d="M0 1797q-33 -117 -125 -188.5t-210 -71.5q-119 0 -191 71.5t-71 188.5h152q-4 -58 31 -97t97 -39q60 0 106.5 39t58.5 97h152z" glyph-name="uni0306.aalt"/><glyph d="M-258 1537q-91 0 -147.5 65t-43 156t87.5 156t165.5 65t147 -65t42.5 -156t-87 -156t-165 -65zM-241 1658q41 0 75.5 29.5t39.5 70.5q5 42 -20.5 72t-66.5 30t-75.5 -30.5t-39.5 -71.5t20.5 -70.5t66.5 -29.5z" glyph-name="uni030A.aalt"/><glyph d="M-703 1538q14 108 75 167.5t143 59.5q39 0 77.5 -15t65.5 -34t60.5 -34.5t62.5 -15.5q32 0 56 26.5t31 67.5h126q-14 -108 -76 -167t-143 -59q-52 0 -136 49t-123 49q-36 -1 -61 -27t-33 -68z" glyph-name="tildecomb.aalt"/><glyph d="M-553 1683h537l-21 -146h-536z" glyph-name="uni0304.aalt"/><glyph d="M-60 1566h-221l164 464h190z" glyph-name="uni0312.aalt"/><glyph d="M-43 1490q-33 -117 -125 -188.5t-210 -71.5q-119 0 -191 71.5t-71 188.5h152q-4 -58 31 -97t97 -39q60 0 106.5 39t58.5 97h152z" glyph-name="glyph666"/><glyph d="M861.5 0q-194.5 0 -359.5 96.5t-261.5 261t-96.5 359t96.5 359.5t261.5 261.5t359.5 96.5t359 -96.5t261 -261.5t96.5 -359.5t-96.5 -359t-261 -261t-359 -96.5zM1250 977l-163 32v-420q0 -11 -12.5 -20t-32.5 -9q-17 0 -30 9t-13 20v322h-537l-31 -135h138v-337h162v337 h105v-220q0 -53 60.5 -91.5t145.5 -38.5q86 0 147 38t61 92v421z" glyph-name="glyph667" horiz-adv-x="1675"/></font>
</defs>
</svg>
