<?xml version="1.0" standalone="no"?>
<!DOCTYPE svg PUBLIC "-//W3C//DTD SVG 1.1//EN" "http://www.w3.org/Graphics/SVG/1.1/DTD/svg11.dtd">
<svg xmlns="http://www.w3.org/2000/svg"><metadata>This SVG WebFont was generated by YouWorkForThem.
Copyright Â© 2019 by TypeUnion. All rights reserved.</metadata><defs><font horiz-adv-x="1457" id="ywftsvg"><font-face ascent="1638" bbox="-662 -512 2558 1997" cap-height="1434" descent="-410" font-family="" font-stretch="normal" font-weight="100" panose-1="0 0 2 0 0 0 0 0 0 0" underline-position="0" underline-thickness="0" unicode-range="U+0020-FB02" units-per-em="2048" x-height="1126"/><missing-glyph d="M347 1434h852l-201 -1434h-852zM963 41l190 1352h-770l-190 -1352h770z" horiz-adv-x="1302"/><glyph d="M1266 1126l-5 -41h-1l-152 -1085h-41l152 1085h-738l-152 -1085h-41l152 1085h-182l5 41h182l27 189q13 97 66.5 159t130.5 62h164l-7 -41h-160q-60 0 -101 -48.5t-52 -131.5l-27 -189h780zM1245 1434h86l-9 -66h-86z" glyph-name="uniFB01" horiz-adv-x="1412" unicode="fi"/><glyph d="M1324 1536l-216 -1536h-41l210 1495h-611q-60 0 -101 -48.5t-52 -131.5l-27 -189h288l-5 -41h-288l-152 -1085h-41l152 1085h-182l5 41h182l27 189q13 97 66.5 159t130.5 62h655z" glyph-name="uniFB02" horiz-adv-x="1412" unicode="fl"/><glyph d="M1484 1495q-60 0 -101 -48.5t-52 -131.5l-26 -189h287l-5 -41h-288l-152 -1085h-41l152 1085h-777l-152 -1085h-41l152 1085h-182l5 41h182l27 189q13 97 66.5 159t130.5 62h164l-7 -41h-160q-60 0 -101 -48.5t-52 -131.5l-27 -189h778l26 189q13 97 66.5 159t130.5 62 h164l-6 -41h-161z" glyph-name="f_f.liga" horiz-adv-x="1738" unicode="ff"/><glyph d="M2084 1126l-5 -41h-1l-152 -1085h-41l152 1085h-738l-152 -1085h-41l152 1085h-777l-152 -1085h-41l152 1085h-182l5 41h182l27 189q13 97 66.5 159t130.5 62h164l-7 -41h-160q-60 0 -101 -48.5t-52 -131.5l-27 -189h778l26 189q13 97 66.5 159t130.5 62h164l-6 -41h-161 q-60 0 -101 -48.5t-52 -131.5l-26 -189h779zM2063 1434h86l-9 -66h-86z" glyph-name="f_f_i.liga" horiz-adv-x="2230" unicode="ffi"/><glyph d="M347 1434h852l-201 -1434h-852zM963 41l190 1352h-770l-190 -1352h770z" glyph-name=".notdef" horiz-adv-x="1302"/><glyph glyph-name="glyph1" horiz-adv-x="0"/><glyph glyph-name="glyph2" horiz-adv-x="681"/><glyph glyph-name="space" horiz-adv-x="512" unicode=" "/><glyph d="M217 307l153 1127h41l-163 -1127h-31zM146 0l10 66h86l-10 -66h-86z" glyph-name="exclam" horiz-adv-x="536" unicode="!"/><glyph d="M414 1536h41l-120 -410h-31zM557 1536h41l-120 -410h-31z" glyph-name="quotedbl" horiz-adv-x="686" unicode="&quot;"/><glyph d="M1084 983l-217 -532h305l-16 -41h-305l-167 -410h-43l167 410h-448l-166 -410h-43l166 410h-277l16 41h278l217 532h-305l15 41h305l167 410h43l-167 -410h448l167 410h43l-167 -410h277l-15 -41h-278zM1041 983h-447l-217 -532h447z" glyph-name="numbersign" horiz-adv-x="1374" unicode="#"/><glyph d="M691 731q99 -28 164 -51.5t124 -56t89.5 -70t43 -90t2.5 -120.5q-23 -137 -177.5 -236t-341.5 -114l-23 -161h-41l22 159h-14q-283 0 -439 124l10 53q148 -136 435 -136q118 0 234 40.5t198.5 113t95.5 157.5q10 67 -7.5 118.5t-45.5 83.5t-101.5 64t-124.5 48t-164 48 q-5 1 -7 2q-100 28 -171 58t-127 72t-79 99t-12 129q27 167 164.5 269.5t359.5 109.5l22 158h41l-22 -158q186 -3 327 -98l-8 -51q-142 108 -340 108q-215 0 -347 -92t-156 -247q-9 -55 9 -101.5t51 -78t95 -61t118 -48.5t143 -44z" glyph-name="dollar" horiz-adv-x="1308" unicode="$"/><glyph d="M866 1008q-31 -216 -128.5 -326.5t-243 -110.5t-212 110.5t-35.5 326.5q30 216 127.5 326t243 110t212 -110t36.5 -326zM1419 1434h47l-966 -1434h-46zM500 612q128 0 214 100t113 296t-30.5 295.5t-185.5 99.5t-213.5 -100t-111.5 -295q-28 -196 29 -296t185 -100z M1672 430q-31 -216 -128.5 -326t-243 -110t-212 110t-35.5 326q30 216 127.5 326t243 110t212 -110t36.5 -326zM1306 35q128 0 214 99.5t113 295.5t-30.5 295.5t-185.5 99.5t-213.5 -99.5t-111.5 -295.5q-28 -196 29 -295.5t185 -99.5z" glyph-name="percent" horiz-adv-x="1874" unicode="%"/><glyph d="M1349 814l-6 -41h-103l-51 -374q-14 -102 -72 -183.5t-141 -129t-174.5 -72t-185.5 -24.5q-73 0 -141.5 14.5t-131 47t-107.5 79t-65.5 116t-8.5 152.5q11 80 49 148t94 116.5t120.5 80.5t136.5 51q-110 35 -173 115t-47 200q14 106 86.5 183.5t173.5 114t219 36.5 q183 0 295.5 -87.5t90.5 -246.5h-43q10 73 -13.5 130t-73.5 92t-116.5 53t-145.5 18q-165 0 -287 -75.5t-143 -217.5q-10 -74 17 -132.5t80 -93t117 -52.5t133 -18h617zM1146 399l51 374h-470q-85 0 -170.5 -24t-160 -68.5t-126.5 -118t-65 -163.5q-11 -76 7.5 -138.5 t59 -104t98.5 -71t121.5 -42t131.5 -12.5q86 0 170 21.5t159.5 64t128 115.5t65.5 167z" glyph-name="ampersand" horiz-adv-x="1498" unicode="&amp;"/><glyph d="M414 1536h41l-120 -410h-31z" glyph-name="quotesingle" horiz-adv-x="542" unicode="'"/><glyph d="M296 -461q-144 505 -70.5 1028t359.5 1020h40q-289 -512 -358 -1020.5t69 -1027.5h-40z" glyph-name="parenleft" horiz-adv-x="705" unicode="("/><glyph d="M123 -461h-40q190 353 285 688.5t97.5 677.5t-95.5 682h40q145 -497 72 -1021t-359 -1027z" glyph-name="parenright" horiz-adv-x="706" unicode=")"/><glyph d="M780 1249l-231 -100l132 -192l-36 -24l-132 191l-185 -191l-30 24l185 192l-202 100l22 37l199 -98l34 246h41l-34 -246l225 98z" glyph-name="asterisk" horiz-adv-x="868" unicode="*"/><glyph d="M1069 737l-6 -41h-389l-54 -389h-41l54 389h-389l6 41h389l54 389h41l-54 -389h389z" glyph-name="plus" horiz-adv-x="1269" unicode="+"/><glyph d="M210 86h51l-130 -410h-31z" glyph-name="comma" horiz-adv-x="552" unicode=","/><glyph d="M228 584h410l-6 -41h-410z" glyph-name="hyphen" horiz-adv-x="860" unicode="-"/><glyph d="M159 86h86l-13 -86h-86z" glyph-name="period" horiz-adv-x="536" unicode="."/><glyph d="M741 1434l-654 -1434h-43l654 1434h43z" glyph-name="slash" horiz-adv-x="742" unicode="/"/><glyph d="M1218 717q-50 -359 -213 -543t-406 -184t-353.5 183t-60.5 544q51 360 213.5 543.5t405.5 183.5t354 -184t60 -543zM605 31q224 0 373.5 173t198 513t-53 513t-326 173t-374 -173t-197.5 -513t53.5 -513t325.5 -173z" glyph-name="zero" horiz-adv-x="1359" unicode="0"/><glyph d="M551 41h358l-5 -41h-758l6 41h358l190 1350q-165 -73 -315 -112l6 44q158 41 315 111h40z" glyph-name="one" horiz-adv-x="1208" unicode="1"/><glyph d="M1104 41l-5 -41h-1014l5 41q80 65 211 163t237.5 176.5t227.5 177t205.5 179.5t145 168.5t70.5 158.5q22 155 -83 247t-320 92q-231 0 -424 -142l-25 30q206 153 456 153q233 0 347 -103.5t90 -275.5q-11 -78 -72.5 -170t-146 -175t-205.5 -182t-224.5 -174.5 t-232 -170.5t-201.5 -152h958z" glyph-name="two" horiz-adv-x="1341" unicode="2"/><glyph d="M321 1434h909l-5 -41l-693 -596q87 23 184 22q212 0 327.5 -109.5t89.5 -299.5q-28 -202 -171 -311t-394 -109q-136 0 -260 39t-204 113l34 31q75 -70 193 -106.5t243 -35.5q231 1 361.5 98.5t156.5 281.5q25 171 -81.5 269t-299.5 98q-145 0 -259 -55l-29 31l743 639 h-851z" glyph-name="three" horiz-adv-x="1317" unicode="3"/><glyph d="M1264 450l-6 -41h-292l-58 -409h-41l58 409h-721l5 41l853 984h47l-138 -984h293zM259 450h671l130 922z" glyph-name="four" horiz-adv-x="1505" unicode="4"/><glyph d="M399 1434h787l-5 -41h-748l-128 -592q200 49 419 49q208 0 324 -109.5t88 -309.5q-30 -217 -173 -329t-395 -112q-136 0 -260 39t-204 113l34 31q75 -70 193 -106.5t243 -35.5q465 3 521 400q25 178 -79 278t-297 100q-207 0 -437 -50l-23 20z" glyph-name="five" horiz-adv-x="1317" unicode="5"/><glyph d="M1241 485q-17 -122 -78.5 -219.5t-148.5 -156t-186 -89t-200 -30.5q-80 0 -155 18.5t-139.5 59t-109.5 97t-65 139.5t-6 181q6 42 12.5 72t23.5 66.5t32 62t53 72t69.5 80.5t100 104.5t126 126.5t164.5 163.5t200 201.5h54l-519 -520q138 66 298 66q100 0 190.5 -29 t161.5 -87t105 -156t17 -223zM634 31q75 0 148.5 17t143.5 53t126 88.5t96 128.5t52 167q16 116 -15 206t-97 143t-149 79t-177 26q-74 0 -148 -18t-144.5 -55.5t-127 -90t-96.5 -127.5t-52 -163q-12 -91 6 -167t59.5 -128.5t101.5 -88.5t129 -53t144 -17z" glyph-name="six" horiz-adv-x="1416" unicode="6"/><glyph d="M286 1434h894l-5 -41q-544 -589 -780 -1393h-42q238 814 773 1393h-845z" glyph-name="seven" horiz-adv-x="1221" unicode="7"/><glyph d="M1168 399q-14 -102 -72 -183.5t-141 -129t-174.5 -72t-184.5 -24.5q-73 0 -142 14.5t-131.5 47t-107 79t-65.5 116t-9 152.5q11 80 49 148t94.5 116.5t121 80.5t136.5 51q-110 35 -173.5 115t-46.5 200q14 106 86 183.5t173.5 114t219.5 36.5q183 0 295 -87.5t91 -246.5 q-8 -61 -37 -114.5t-72 -92t-93 -65.5t-106 -43q67 -18 122 -50.5t97.5 -81t61.5 -116.5t8 -148zM365 1110q-10 -74 17 -132.5t79.5 -93t116.5 -52.5t133.5 -18t139.5 18t133 52.5t106.5 93t53.5 132.5q10 73 -13.5 130t-73.5 92t-117 53t-145 18q-165 0 -287.5 -75.5 t-142.5 -217.5zM602 31q86 0 170 21.5t160 64t128 115.5t65 167q12 90 -19.5 163.5t-93.5 118t-140.5 68.5t-164.5 24q-85 0 -170.5 -24t-160.5 -68.5t-126.5 -118t-65.5 -163.5q-11 -76 8 -138.5t59.5 -104t98.5 -71t121 -42t131 -12.5z" glyph-name="eight" horiz-adv-x="1354" unicode="8"/><glyph d="M218 948q17 122 78.5 220t148.5 156t186 89t200 31q80 0 155 -18.5t139.5 -59t109.5 -97.5t65 -139.5t7 -181.5q-6 -42 -13 -71.5t-24 -66.5t-31.5 -62t-53 -71.5t-70 -81t-100 -104.5t-125.5 -126.5t-164.5 -164l-200.5 -200.5h-54l519 519q-138 -66 -298 -65 q-100 0 -190 29t-161.5 87t-105.5 155.5t-17 222.5zM825.5 1403q-74.5 0 -148.5 -17t-144 -53.5t-126 -88.5t-96 -128.5t-52 -167.5q-16 -116 15.5 -206t97.5 -142.5t149 -78.5t177 -26q93 0 185.5 29t173 83.5t137 143.5t72.5 197q12 91 -6.5 167.5t-60 128.5t-101.5 88.5 t-129 53.5t-143.5 17z" glyph-name="nine" horiz-adv-x="1416" unicode="9"/><glyph d="M304 1126h86l-12 -86h-86zM159 86h86l-13 -86h-86z" glyph-name="colon" horiz-adv-x="536" unicode=":"/><glyph d="M304 1126h86l-12 -86h-86zM177 86h51l-130 -410h-30z" glyph-name="semicolon" horiz-adv-x="536" unicode=";"/><glyph d="M1142 913l-6 -43l-849 -240l781 -241l-6 -43l-832 256l3 25l5 30z" glyph-name="less" horiz-adv-x="1317" unicode="&lt;"/><glyph d="M1085 855h-819l6 41h820zM1040 538h-819l6 41h820z" glyph-name="equal" horiz-adv-x="1269" unicode="="/><glyph d="M1106 657l-6 -43l-2 -12l-903 -256l6 43l849 241l-782 240l6 43z" glyph-name="greater" horiz-adv-x="1317" unicode=">"/><glyph d="M612 1434q216 0 327.5 -111.5t83.5 -308.5q-28 -191 -153.5 -300.5t-304.5 -109.5q-42 0 -82 6l-46 -303h-30l44 355q52 -16 119 -17q163 0 275 98t137 270q26 180 -75 280t-300 100q-187 0 -339 -86l7 48q147 79 337 79zM338 0l9 66h86l-9 -66h-86z" glyph-name="question" horiz-adv-x="1123" unicode="?"/><glyph d="M1199 -71q-173 -81 -357 -81q-159 0 -294 61.5t-225 166t-131 249t-18.5 303t104 302.5t200.5 248.5t271.5 166t311.5 61.5t294 -61.5t224.5 -166t131 -248.5t19.5 -302q-59 -423 -327 -423q-106 0 -156.5 67t-33.5 188q-55 -110 -152.5 -165.5t-205.5 -55.5 q-69 0 -127 23t-103 68t-64.5 121.5t-5.5 175.5q13 96 54 172.5t98.5 122.5t123 70t134.5 24q106 0 188 -57.5t107 -165.5l30 216h41l-79 -564q-13 -92 31.5 -145.5t124.5 -53.5q101 0 176.5 89.5t104.5 292.5q20 150 -19.5 286t-124 234.5t-213 157.5t-277.5 59 q-200 0 -384 -99.5t-306.5 -269.5t-150.5 -368q-22 -150 17.5 -286.5t124.5 -235.5t213.5 -158t278.5 -59q167 0 338 79zM1226 621l2 13q18 164 -62 252.5t-208 88.5q-61 0 -119.5 -21.5t-108.5 -63t-86 -109.5t-48 -154q-13 -88 3.5 -157t56 -109t92 -60.5t114 -20.5 t118.5 19t109 58t88.5 107t48.5 157z" glyph-name="at" horiz-adv-x="1884" unicode="@"/><glyph d="M1157 0l-99 372h-828l-203 -372h-44l784 1434h51l383 -1434h-44zM253 413h794l-261 969z" glyph-name="A" horiz-adv-x="1341" unicode="A"/><glyph d="M347 1434h553q68 0 127 -22.5t104.5 -66t66.5 -116.5t7 -164q-17 -129 -85 -214t-166 -124q112 -27 174.5 -117t39.5 -241q-26 -178 -144.5 -273.5t-262.5 -95.5h-615zM383 1393l-92 -656h512q50 0 96 10.5t90.5 35t79 61.5t60 93.5t35.5 127.5q23 166 -55.5 247 t-213.5 81h-512zM766 41q63 0 120.5 18.5t108.5 56.5t85.5 102.5t46.5 150.5q12 88 -4.5 153.5t-57 102.5t-92 54t-115.5 17h-573l-92 -655h573z" glyph-name="B" horiz-adv-x="1359" unicode="B"/><glyph d="M1304 1295q-144 108 -342 108q-79 0 -158.5 -19t-156.5 -56t-145.5 -94.5t-124 -132t-95 -173.5t-56.5 -211q-24 -167 13 -301.5t117.5 -216.5t186.5 -125t226 -43q198 0 373 107l-7 -50q-177 -98 -372 -98q-102 0 -195.5 28t-172.5 87.5t-132.5 143.5t-75 204.5t-2 263 t75 263.5t133 205t174 143.5t197 87.5t203.5 28q194 0 343 -98z" glyph-name="C" horiz-adv-x="1426" unicode="C"/><glyph d="M1377 717q-25 -179 -97.5 -318.5t-178 -225.5t-233.5 -129.5t-271 -43.5h-451l201 1434h451q115 0 211.5 -27.5t175 -83.5t127.5 -141.5t68 -201.5t-3 -263zM602 41q108 0 205.5 25.5t186 79.5t157.5 132t117.5 190.5t67.5 248.5q24 169 -7.5 300.5t-108 212.5 t-184.5 122t-243 41h-410l-190 -1352h409z" glyph-name="D" horiz-adv-x="1519" unicode="D"/><glyph d="M193 41h911l-5 -41h-953l201 1434h952l-5 -41h-911l-92 -656h829l-6 -41h-829z" glyph-name="E" horiz-adv-x="1402" unicode="E"/><glyph d="M187 0h-41l201 1434h911l-5 -41h-870l-92 -656h788l-6 -41h-788z" glyph-name="F" horiz-adv-x="1361" unicode="F"/><glyph d="M860 743h440l-85 -604q-96 -71 -215 -110t-237 -39q-102 0 -195.5 28t-172.5 87.5t-132.5 143.5t-75 204.5t-2 263t75 263.5t133 205t174 143.5t197 87.5t203.5 28q194 0 343 -98l-7 -51q-144 108 -342 108q-79 0 -158.5 -19t-156.5 -56t-145.5 -94.5t-124 -132 t-95 -173.5t-56.5 -211q-24 -167 13 -301.5t117.5 -216.5t186.5 -125t226 -43q103 0 223 39t186 92l75 540h-399z" glyph-name="G" horiz-adv-x="1500" unicode="G"/><glyph d="M1310 1434h41l-201 -1434h-41l97 696h-921l-98 -696h-41l201 1434h41l-97 -697h921z" glyph-name="H" horiz-adv-x="1454" unicode="H"/><glyph d="M187 0h-41l201 1434h41z" glyph-name="I" horiz-adv-x="491" unicode="I"/><glyph d="M156 68q85 -37 222 -37q276 0 329 376l144 1027h41l-144 -1027q-57 -417 -376 -417q-133 0 -222 34z" glyph-name="J" horiz-adv-x="995" unicode="J"/><glyph d="M187 0h-41l201 1434h41zM1269 1434l-919 -717l718 -717h-61l-719 717l919 717h62z" glyph-name="K" horiz-adv-x="1249" unicode="K"/><glyph d="M388 1434l-195 -1393h870l-5 -41h-912l201 1434h41z" glyph-name="L" horiz-adv-x="1320" unicode="L"/><glyph d="M1639 1434h67l-201 -1434h-41l196 1393l-780 -1188h-51l-446 1188l-196 -1393h-41l201 1434h67l446 -1189z" glyph-name="M" horiz-adv-x="1809" unicode="M"/><glyph d="M1392 1434h41l-201 -1434h-56l-795 1382l-194 -1382h-41l201 1434h56l795 -1383z" glyph-name="N" horiz-adv-x="1536" unicode="N"/><glyph d="M1545.5 716.5q-19.5 -142.5 -75.5 -263t-133 -204.5t-173.5 -143.5t-197.5 -87.5t-203.5 -28t-195.5 28t-172 87.5t-132.5 143.5t-75 204.5t-2 263t75 263.5t133 205t174 143.5t197 87.5t203 28t195.5 -28t172 -87.5t133 -143.5t75.5 -205t2 -263.5zM769 31 q79 0 158.5 19t156 55.5t145 94.5t124.5 132.5t95.5 173t55.5 211.5q24 167 -13 301.5t-117.5 216.5t-186.5 125t-225 43q-79 0 -158.5 -19t-156.5 -56t-145.5 -94.5t-124 -132t-95 -173.5t-56.5 -211q-24 -167 13 -301.5t117.5 -216.5t186.5 -125t226 -43z" glyph-name="O" horiz-adv-x="1687" unicode="O"/><glyph d="M891 1434q197 0 297 -110.5t74 -299.5q-32 -242 -271 -351.5t-725 -109.5l-79 -563h-41l201 1434h544zM1221 1024q25 175 -66 272t-269 97h-503l-111 -789q471 0 694.5 100.5t254.5 319.5z" glyph-name="P" horiz-adv-x="1360" unicode="P"/><glyph d="M967.5 1444q102.5 0 195.5 -28t172 -87.5t133 -143.5t75.5 -205t1.5 -263q-19 -140 -73.5 -259t-129.5 -203t-169 -144t-192.5 -89.5t-200.5 -31.5q38 -114 108.5 -188.5t185.5 -126.5l-25 -34q-118 47 -198.5 136.5t-116.5 213.5q-98 4 -187 34t-164.5 90.5t-126 144 t-70.5 201.5t-1 256q19 142 75 263t133.5 205t174 143.5t197 87.5t203 28zM1504 717q24 167 -13 301.5t-117.5 216.5t-186.5 125t-225 43q-79 0 -158.5 -19t-156.5 -56t-145.5 -94.5t-124 -132t-95 -173.5t-56.5 -211q-24 -167 13 -301.5t117.5 -216.5t186.5 -125t226 -43 q79 0 158.5 19t156 55.5t145 94.5t124.5 132.5t95.5 173t55.5 211.5z" glyph-name="Q" horiz-adv-x="1687" unicode="Q"/><glyph d="M891 1434q197 0 297 -110.5t74 -299.5q-20 -158 -127.5 -257.5t-309.5 -150.5l292 -616h-48l-287 606q-209 -43 -516 -43l-79 -563h-41l201 1434h544zM1221 1024q25 175 -66 272t-269 97h-503l-111 -789q473 0 695.5 99.5t253.5 320.5z" glyph-name="R" horiz-adv-x="1360" unicode="R"/><glyph d="M110 168q148 -136 435 -136q118 0 234 40.5t198.5 113t95.5 157.5q10 67 -7.5 118.5t-45.5 83.5t-101.5 64t-124.5 48t-164 48q-5 1 -7 2q-100 28 -171 58t-127 72t-79 99t-12 129q28 172 172.5 275.5t377.5 103.5q195 0 342 -98l-8 -51q-142 108 -340 108 q-215 0 -347 -92t-156 -247q-9 -55 9 -101.5t51 -78t95 -61t118 -48.5t143 -44q99 -28 164 -51.5t124 -56t89.5 -70t43 -90t2.5 -120.5q-15 -99 -105.5 -181.5t-216 -126.5t-253.5 -44q-283 0 -439 124z" glyph-name="S" horiz-adv-x="1308" unicode="S"/><glyph d="M1156 1434l-5 -41h-467l-195 -1393h-40l194 1393h-465l5 41h973z" glyph-name="T" horiz-adv-x="1095" unicode="T"/><glyph d="M1320 1434l-128 -912q-39 -281 -170 -406.5t-391 -125.5t-355.5 126t-56.5 406l128 912h41l-128 -912q-37 -263 49 -377t328 -114t359.5 114t154.5 377l128 912h41z" glyph-name="U" horiz-adv-x="1423" unicode="U"/><glyph d="M1358 1434h44l-785 -1434h-51l-383 1434h44l372 -1383z" glyph-name="V" horiz-adv-x="1341" unicode="V"/><glyph d="M1879 1434h43l-620 -1434h-52l-208 1360l-588 -1360h-52l-219 1434h43l210 -1373l595 1373h43l210 -1373z" glyph-name="W" horiz-adv-x="1861" unicode="W"/><glyph d="M1357 1434l-640 -717l439 -717h-51l-419 685l-611 -685h-51l640 717l-440 717h51l419 -685l612 685h51z" glyph-name="X" horiz-adv-x="1337" unicode="X"/><glyph d="M1231 1434h48l-641 -811l-87 -623h-41l87 623l-414 811h48l393 -767z" glyph-name="Y" horiz-adv-x="1218" unicode="Y"/><glyph d="M1330 1434l-5 -41l-1123 -1352h933l-6 -41h-983l6 41l1123 1352h-933l5 41h983z" glyph-name="Z" horiz-adv-x="1433" unicode="Z"/><glyph d="M359 1521h416l-5 -41h-375l-258 -1833h375l-5 -41h-416z" glyph-name="bracketleft" horiz-adv-x="866" unicode="["/><glyph d="M245 1434h43l253 -1434h-43z" glyph-name="backslash" horiz-adv-x="742" unicode="\"/><glyph d="M775 1521l-268 -1915h-416l5 41h375l258 1833h-375l5 41h416z" glyph-name="bracketright" horiz-adv-x="866" unicode="]"/><glyph d="M770 881h-51l-127 514l-269 -514h-53l291 553h73z" glyph-name="asciicircum" horiz-adv-x="950" unicode="^"/><glyph d="M114 -234h1433l-6 -41h-1433z" glyph-name="underscore" horiz-adv-x="1884" unicode="_"/><glyph d="M370 1587h54l219 -307h-51z" glyph-name="grave" horiz-adv-x="768" unicode="`"/><glyph d="M766 1137q63 0 114 -6.5t96.5 -20.5t77 -37t57.5 -58t36.5 -81t13.5 -106.5t-9 -136.5l-97 -691h-41l26 188q-29 -32 -74.5 -63.5t-112.5 -63t-159 -51.5t-192 -20q-198 0 -287.5 75.5t-69.5 223.5q17 121 88.5 192.5t192 99t290 30.5t382.5 -13l14 103q24 219 -53 307 t-299 88q-94 0 -191.5 -23.5t-167.5 -62.5l8 48q68 36 163.5 57.5t193.5 21.5zM1049 250l43 306q-214 15 -376.5 13.5t-274.5 -26t-175.5 -86.5t-79.5 -167q-18 -135 64.5 -197t269.5 -62q92 0 179.5 21t154.5 55t115 70t80 73z" glyph-name="a" horiz-adv-x="1358" unicode="a"/><glyph d="M1273 563q-16 -117 -59.5 -214t-103 -162.5t-134 -110.5t-151.5 -65.5t-157 -20.5q-159 0 -280 82.5t-157 242.5l-45 -315h-40l216 1536h41l-102 -728q81 160 226 244.5t302 84.5q101 0 188.5 -35.5t152.5 -103.5t94 -181t9 -254zM674 31q75 0 146.5 19t139.5 61 t123 102.5t94.5 151t54.5 198.5q18 131 -8 235.5t-86 168t-140 96.5t-175 33q-92 0 -180.5 -33t-166 -95.5t-133 -164.5t-76.5 -230l-2 -20q-19 -135 7.5 -238.5t87.5 -164t140.5 -90t173.5 -29.5z" glyph-name="b" unicode="b"/><glyph d="M1117 1010q-128 86 -314 86q-94 0 -186.5 -33t-174.5 -96.5t-140 -168t-76.5 -235.5t10.5 -235.5t93 -168t147 -96t177 -32.5q187 0 339 86l-7 -48q-146 -79 -338 -79q-101 0 -190.5 35t-159 103.5t-101 181t-12 254t83.5 254t152.5 180.5t188 103.5t200.5 35.5 q189 0 315 -79z" glyph-name="c" horiz-adv-x="1239" unicode="c"/><glyph d="M184 563q20 141 81 254t145.5 181t181 103.5t198.5 35.5q158 0 278.5 -84.5t157.5 -244.5l102 728h41l-216 -1536h-40l43 315q-81 -161 -225.5 -243t-302.5 -82q-100 0 -187 33.5t-153.5 100.5t-95 180.5t-8.5 258.5zM634 31q94 0 181.5 29.5t166 90t133.5 164t75 238.5 l2 20q16 128 -11 230t-87 164.5t-139 95.5t-172 33q-94 0 -183.5 -33t-167.5 -96.5t-133 -168t-74 -235.5q-16 -113 -0.5 -200t52 -149.5t93.5 -103t123 -60t141 -19.5z" glyph-name="d" unicode="d"/><glyph d="M1211 563h-986q-15 -109 6 -199.5t66.5 -150.5t110.5 -102t134.5 -61t141.5 -19q187 0 339 86l-7 -48q-146 -79 -338 -79q-77 0 -152 20.5t-145 66t-119 110.5t-71.5 162t-6.5 214q19 141 80 254t145 181t178 103.5t191 35.5q78 0 150 -22t135.5 -67.5t104.5 -113.5 t55.5 -160.5t-12.5 -210.5zM772 1096q-69 0 -136.5 -18.5t-132 -58.5t-117.5 -97t-94 -139t-60 -179h945q23 120 -5 217.5t-90.5 155t-142.5 88.5t-167 31z" glyph-name="e" horiz-adv-x="1397" unicode="e"/><glyph d="M833 1536l-7 -41h-160q-60 0 -101 -48.5t-52 -131.5l-27 -189h288l-5 -41h-288l-152 -1085h-41l152 1085h-182l5 41h182l27 189q13 97 66.5 159t130.5 62h164z" glyph-name="f" horiz-adv-x="920" unicode="f"/><glyph d="M1271 1126h40l-144 -1024q-16 -114 -58.5 -204.5t-100 -149t-131.5 -97t-149.5 -55t-157.5 -16.5q-191 0 -315 79l7 48q125 -86 315 -86q77 0 146.5 15t137.5 50t120.5 89t91 138t53.5 189l30 216q-81 -160 -226 -244t-302 -84q-101 0 -188.5 35t-152.5 103.5t-94 181 t-9 253.5q16 117 59.5 214t103.5 163t134 111t151.5 65.5t157.5 20.5q159 0 279.5 -82.5t156.5 -243.5zM225 563q-18 -131 8 -235.5t86 -168t140.5 -96t174.5 -32.5q92 0 180.5 32.5t166 95t133 164.5t76.5 230l2 20q19 135 -7.5 238.5t-87.5 164t-140 90.5t-174 30 q-75 0 -146.5 -19t-139.5 -61t-123 -103t-94.5 -151t-54.5 -199z" glyph-name="g" unicode="g"/><glyph d="M186 0h-40l216 1536h41l-102 -728q52 106 147.5 183t200.5 111.5t211 34.5q72 0 132 -15.5t111 -49.5t81.5 -88.5t44 -134t-2.5 -183.5l-93 -666h-41l93 666q16 117 -2.5 202t-66.5 134t-113 71.5t-149 22.5q-75 0 -148 -17.5t-145.5 -57t-130 -97t-100.5 -142.5 t-60 -188z" glyph-name="h" horiz-adv-x="1436" unicode="h"/><glyph d="M325 1434h86l-10 -66h-86zM304 1126h41l-158 -1126h-41z" glyph-name="i" horiz-adv-x="491" unicode="i"/><glyph d="M325 1434h86l-10 -66h-86zM345 1126l-159 -1128q-16 -117 -63.5 -168t-145.5 -51q-42 0 -79 8l6 38q32 -5 80 -5q83 0 116 42.5t46 137.5l158 1126h41z" glyph-name="j" horiz-adv-x="491" unicode="j"/><glyph d="M1123 1126l-623 -501l466 -625h-55l-445 597l-219 -177l-60 -420h-41l216 1536h41l-149 -1060l808 650h61z" glyph-name="k" horiz-adv-x="1167" unicode="k"/><glyph d="M362 1536h41l-216 -1536h-41z" glyph-name="l" horiz-adv-x="491" unicode="l"/><glyph d="M1693 1137q400 0 335 -471l-94 -666h-41l94 666q32 230 -48 330t-252 100q-68 0 -135 -17.5t-133 -56.5t-120.5 -95.5t-95.5 -140t-58 -184.5l-84 -602h-41l93 666q32 230 -48 330t-252 100q-68 0 -135.5 -17.5t-134.5 -57t-121 -97t-94.5 -142.5t-57.5 -188l-84 -594 h-40l158 1126h41l-44 -318q76 160 216.5 244.5t301.5 84.5q345 0 344 -351q37 106 125.5 188t194.5 122.5t210 40.5z" glyph-name="m" horiz-adv-x="2238" unicode="m"/><glyph d="M186 0h-40l158 1126h41l-44 -318q52 106 147.5 183t200.5 111.5t211 34.5q72 0 132 -15.5t111 -49.5t81.5 -88.5t44 -134t-2.5 -183.5l-93 -666h-41l93 666q16 117 -2.5 202t-66.5 134t-113 71.5t-149 22.5q-75 0 -148 -17.5t-145.5 -57t-130 -97t-100.5 -142.5t-60 -188 z" glyph-name="n" horiz-adv-x="1436" unicode="n"/><glyph d="M1273 563q-16 -117 -61.5 -214t-108.5 -162.5t-140 -110.5t-156.5 -65.5t-159.5 -20.5t-153 20.5t-137.5 65.5t-108 110.5t-62 162.5t-2.5 214q19 141 83.5 254t153 181t188 103.5t200.5 35.5t191.5 -35.5t159.5 -103.5t100.5 -181t12.5 -254zM653 31q75 0 148 19t145 61 t130 102.5t100 151t56 198.5q18 131 -11 235.5t-93 168t-147.5 96.5t-177.5 33t-186.5 -33t-174.5 -96.5t-140 -168t-77 -235.5q-15 -109 2 -199t57.5 -150.5t99.5 -102.5t127 -61t142 -19z" glyph-name="o" unicode="o"/><glyph d="M1273 563q-20 -141 -80.5 -253.5t-145 -181t-181.5 -103.5t-198 -35q-158 0 -279 84.5t-158 243.5l-102 -728h-41l216 1536h40l-43 -315q81 161 225.5 243.5t302.5 82.5q100 0 187 -34t153.5 -101t95 -180.5t8.5 -258.5zM823 1096q-94 0 -181.5 -30t-166 -90.5 t-133.5 -163.5t-75 -239l-2 -20q-16 -128 11 -230t87 -164.5t139.5 -95t171.5 -32.5q94 0 183.5 32.5t167.5 96t133 168t74 235.5q16 113 1 200t-52 150t-94 103.5t-123 60t-141 19.5z" glyph-name="p" unicode="p"/><glyph d="M184 563q16 117 59.5 214t103.5 163t134 111t151.5 65.5t157.5 20.5q159 0 279.5 -82.5t156.5 -243.5l45 315h40l-216 -1536h-41l102 728q-81 -160 -226 -244t-302 -84q-101 0 -188.5 35t-152.5 103.5t-94 181t-9 253.5zM783 1096q-75 0 -146.5 -19t-139.5 -61t-123 -103 t-94 -151t-55 -199q-18 -131 8 -235.5t86 -168t140.5 -96t174.5 -32.5q92 0 180.5 32.5t166 95t133 164.5t76.5 230l2 20q19 135 -7.5 238.5t-87.5 164t-140.5 90.5t-173.5 30z" glyph-name="q" unicode="q"/><glyph d="M186 0h-40l158 1126h41l-44 -318q52 106 147.5 183t200.5 111.5t211 34.5l-6 -41q-75 0 -148 -17.5t-145.5 -57t-130 -97t-100.5 -142.5t-60 -188z" glyph-name="r" horiz-adv-x="902" unicode="r"/><glyph d="M122 117q71 -39 173.5 -62.5t207.5 -23.5q93 0 180 30t146.5 85.5t68.5 121.5q5 36 -1 67t-18.5 53.5t-40 43.5t-52.5 34.5t-70.5 29.5t-81 26t-94.5 27q-164 43 -244.5 116t-64.5 188q18 132 136.5 208t307.5 76t315 -79l-7 -48q-128 86 -314 86q-169 0 -274.5 -64 t-122.5 -180q-15 -103 66.5 -164t261.5 -111q80 -22 131 -40.5t98.5 -44t71.5 -55.5t34.5 -72t3.5 -97q-17 -117 -151.5 -197.5t-290.5 -80.5q-110 0 -212 21t-170 58z" glyph-name="s" horiz-adv-x="1164" unicode="s"/><glyph d="M678 0h-215q-84 0 -121.5 59.5t-23.5 161.5l122 864h-182l5 41h182l32 226h41l-32 -226h350l-6 -41h-349l-122 -864q-11 -82 20 -131t92 -49h212z" glyph-name="t" horiz-adv-x="982" unicode="t"/><glyph d="M1250 1126h40l-157 -1126h-41l44 318q-52 -106 -147.5 -183t-200.5 -111t-211 -34q-72 0 -132 15t-111 49t-82 89t-44 134t3 184l93 665h41l-93 -665q-16 -117 2 -202.5t66.5 -134t113.5 -71t149 -22.5q75 0 148 17.5t145 56.5t130 96.5t101 142.5t59 188z" glyph-name="u" horiz-adv-x="1436" unicode="u"/><glyph d="M1094 1126h44l-601 -1126h-51l-284 1126h44l271 -1079z" glyph-name="v" horiz-adv-x="1181" unicode="v"/><glyph d="M1573 1126h46l-499 -1126h-50l-170 1052l-466 -1052h-50l-182 1126h46l167 -1078l472 1078h47l167 -1078z" glyph-name="w" horiz-adv-x="1662" unicode="w"/><glyph d="M1129 1126l-505 -563l348 -563h-51l-337 543l-489 -543h-51l506 563l-348 563h51l337 -542l488 542h51z" glyph-name="x" horiz-adv-x="1173" unicode="x"/><glyph d="M1094 1126h44l-593 -1059q-35 -62 -64 -108t-79 -107t-100 -102t-121 -74t-150 -43l6 41q71 10 134 40t108.5 66t90 91t71.5 97.5t62 104.5l-301 1053h44l285 -1001z" glyph-name="y" horiz-adv-x="1181" unicode="y"/><glyph d="M1164 1126l-5 -41l-995 -1044h848l-5 -41h-902l6 41l995 1044h-848l5 41h901z" glyph-name="z" horiz-adv-x="1269" unicode="z"/><glyph d="M427 -435q-30 0 -53 7.5t-44 27t-30.5 54t-13 88t8.5 128.5l65 464q2 24 2 50.5t-9 54t-23.5 50.5t-42.5 38t-65 16l6 41q60 2 105.5 40t65 81.5t25.5 87.5l65 463q13 91 36 154t53 94.5t61 44.5t69 13h75l-6 -41h-76q-70 0 -110.5 -62t-52.5 -151l-70 -499 q-8 -58 -30 -110t-64.5 -91.5t-97.5 -42.5v-4q53 -3 85.5 -42t37 -92t-0.5 -110l-69 -498q-12 -89 11.5 -151t92.5 -62h76l-6 -41h-76z" glyph-name="braceleft" horiz-adv-x="868" unicode="{"/><glyph d="M377 1638h41l-289 -2048h-41z" glyph-name="bar" horiz-adv-x="491" unicode="|"/><glyph d="M162 -435h-76l5 41h76q70 0 110.5 62t53.5 151l70 498q8 58 30 110t64.5 91.5t96.5 42.5l1 4q-41 2 -69 25.5t-40 58.5t-16.5 77.5t2.5 82.5l71 499q12 89 -11.5 151t-93.5 62h-76l7 41h75q38 0 65 -12.5t49.5 -46.5t25.5 -93t-8 -154l-64 -463q-7 -28 -1.5 -64 t17.5 -67.5t43 -54t77 -23.5l-5 -41q-46 -1 -84 -23t-60.5 -55.5t-35 -66.5t-17.5 -64l-65 -464q-12 -91 -34.5 -153.5t-53 -94.5t-61 -44.5t-68.5 -12.5z" glyph-name="braceright" horiz-adv-x="869" unicode="}"/><glyph d="M215 486q8 68 53 115.5t113 47.5q38 0 73 -20.5t59 -45t55 -45t60 -20.5q36 0 67.5 37.5t38.5 84.5h41q-10 -68 -57.5 -115t-110.5 -47q-28 0 -61 20.5t-58 45t-56.5 44.5t-56.5 20q-45 -1 -78.5 -36.5t-40.5 -86.5z" glyph-name="asciitilde" horiz-adv-x="989" unicode="~"/><glyph d="M304 1126h86l-9 -65h-86zM289 819h30l-152 -1126h-41z" glyph-name="exclamdown" horiz-adv-x="536" unicode="¡"/><glyph d="M1117 1010q-123 82 -294 86l-149 -1065q172 4 318 86l-7 -48q-138 -75 -317 -79l-19 -132h-41l19 132q-98 3 -184.5 40.5t-152.5 105.5t-95.5 179t-10.5 248q15 111 59 205t104 159.5t134 112.5t151.5 70.5t155.5 26.5l19 132h41l-19 -132q177 -4 295 -79zM225.5 563 q-18.5 -127 8.5 -230t88 -166.5t140.5 -98t170.5 -37.5l149 1065q-92 -3 -181 -38t-167.5 -98.5t-134 -166.5t-74 -230z" glyph-name="cent" horiz-adv-x="1239" unicode="¢"/><glyph d="M480 1064q-13 -93 -3 -337h618l-5 -41h-611q6 -85 2.5 -176.5t-16 -172.5t-49.5 -159.5t-97 -136.5h887l-5 -41h-932l5 41q62 60 101 138.5t51.5 159.5t16.5 171.5t-3 175.5h-197l5 41h190q-12 244 1 338q25 172 168 275.5t376 103.5q201 0 354 -105l-7 -51 q-148 115 -353 115q-215 0 -345 -92t-152 -247z" glyph-name="sterling" horiz-adv-x="1505" unicode="£"/><glyph d="M1209 718q-26 -182 -167 -319l160 -186l-33 -29l-159 187q-154 -124 -335 -124q-184 0 -302 124l-213 -187l-25 29l213 186q-104 134 -79 319q27 183 169 316l-162 188l33 28l162 -187q151 124 336 124q180 0 300 -123l212 186l24 -28l-211 -187q103 -137 77 -317z M680 288q177 0 320 125.5t168 304.5q26 177 -82 302.5t-285 125.5q-179 0 -322 -125.5t-169 -302.5q-16 -118 27.5 -217t134 -156t208.5 -57z" glyph-name="currency" horiz-adv-x="1435" unicode="¤"/><glyph d="M638 623l-20 -141h454l-6 -41h-454l-22 -163h453l-6 -41h-453l-33 -237h-41l33 237h-453l6 41h453l22 163h-452l6 41h453l19 141l-414 811h48l393 -767l607 767h48z" glyph-name="yen" horiz-adv-x="1218" unicode="¥"/><glyph d="M377 1638h41l-130 -921h-41zM218 512h41l-130 -922h-41z" glyph-name="brokenbar" horiz-adv-x="491" unicode="¦"/><glyph d="M701 1373q-169 0 -274 -64t-122 -180q-15 -103 66.5 -164t261.5 -111q80 -22 131 -40t98 -44t71 -56t35 -72t4 -96q-13 -94 -111 -167.5t-229 -99.5q156 -48 219 -109t47 -178q-11 -78 -82 -143t-170 -100.5t-201 -35.5q-208 0 -353 122l8 48q59 -58 151.5 -93.5 t200.5 -35.5q145 0 268 68.5t137 169.5q6 42 -1 75.5t-30.5 60.5t-50 46t-76.5 37t-90.5 30.5t-109.5 30.5q-164 43 -244.5 116.5t-64.5 188.5q15 108 98.5 177t219.5 91q-131 44 -194.5 113.5t-49.5 171.5q18 132 136.5 208t307.5 76q190 0 310 -95l-7 -44q-111 98 -310 98 zM931 546q6 47 -6 84t-35 62.5t-67.5 48t-88 37.5t-112.5 34q-168 -1 -271.5 -61.5t-119.5 -175.5q-7 -52 9.5 -93t58.5 -72t97 -54.5t134 -47.5q143 2 265 70.5t136 167.5z" glyph-name="section" horiz-adv-x="1162" unicode="§"/><glyph d="M338 1366h86l-12 -86h-86zM665 1366h86l-13 -86h-86z" glyph-name="dieresis" horiz-adv-x="863" unicode="¨"/><glyph d="M829 -10q-157 0 -287.5 56.5t-215 154.5t-123 232t-18.5 284q29 201 149.5 367.5t305.5 263t394 96.5q210 0 369 -96.5t233 -263t45 -367.5q-20 -150 -96.5 -284t-189.5 -232t-260.5 -154.5t-305.5 -56.5zM836.5 31q200.5 0 375 89t288 245.5t141 351t-42 351.5t-219 246 t-350.5 89q-304 0 -532.5 -195.5t-270.5 -490.5q-28 -194 42 -351t219 -246t349.5 -89zM1213 1029q-91 61 -228 62q-92 0 -175 -39.5t-147 -126.5t-81 -208q-12 -91 7 -164.5t63 -118t102.5 -68t126.5 -23.5q137 0 244 61l-6 -45q-108 -57 -245 -57q-73 0 -137 25.5 t-114.5 75t-73.5 130.5t-8.5 183.5t60.5 184t109.5 130.5t136 75t144.5 26q137 0 229 -58z" glyph-name="copyright" horiz-adv-x="1823" unicode="©"/><glyph d="M596 1444q130 0 189.5 -59t37.5 -208l-58 -415h-41l16 112q-40 -44 -118.5 -81t-184.5 -37q-110 0 -161.5 46t-38.5 133q13 96 78.5 143.5t180 55.5t280.5 -4l7 53q12 126 -31.5 173.5t-161.5 46.5q-108 0 -192 -60l-19 33q94 68 217 68zM748 925l22 165 q-164 11 -269.5 4t-158.5 -43.5t-64 -114.5q-9 -66 34.5 -102.5t139 -36.5t174 39.5t122.5 88.5z" glyph-name="ordfeminine" horiz-adv-x="921" unicode="ª"/><glyph d="M672 947l-392 -384l283 -384h-54l-284 384l392 384h55zM1030 947l-392 -384l284 -384h-55l-283 384l392 384h54z" glyph-name="guillemotleft" horiz-adv-x="1201" unicode="«"/><glyph d="M1148 895l-72 -510h-41l66 469h-835l6 41h876z" glyph-name="logicalnot" horiz-adv-x="1326" unicode="¬"/><glyph d="M815 1504q215 0 339 -141.5t94.5 -348.5t-192.5 -349t-378 -142q-140 0 -246 65.5t-155 178t-29 247.5q30 207 191.5 348.5t375.5 141.5zM1207 1014q27 194 -85 321.5t-311 127.5t-347.5 -128t-175 -321.5t85 -321.5t310.5 -128q131 0 244.5 58.5t187.5 161.5t91 230z M819 1318q96 0 137 -45.5t30 -128.5q-9 -73 -51.5 -115.5t-131.5 -62.5l121 -255h-47l-118 246q-79 -11 -182 -11l-34 -235h-41l86 607h231zM945 1144q9 73 -23 103t-109 30h-190l-41 -290q193 0 272 35.5t91 121.5z" glyph-name="registered" horiz-adv-x="1369" unicode="®"/><glyph d="M332 1321h462l-7 -41h-461z" glyph-name="macron" horiz-adv-x="912" unicode="¯"/><glyph d="M515 983q-95 0 -153.5 67.5t-45.5 162.5q14 95 91 163t172.5 68t153.5 -67.5t44.5 -163t-90.5 -163t-172 -67.5zM520 1023q78 0 142.5 56.5t74.5 133.5q11 78 -37.5 134.5t-126 56.5t-142 -56.5t-75.5 -134.5t37.5 -134t126.5 -56z" glyph-name="degree" horiz-adv-x="911" unicode="°"/><glyph d="M1082 835l-5 -41h-389l-34 -236h-41l34 236h-389l5 41h389l34 235h41l-34 -235h389zM1024 415l-6 -41h-819l6 41h819z" glyph-name="plusminus" horiz-adv-x="1269" unicode="±"/><glyph d="M826 807l-5 -41h-608l5 41q53 43 151 116t170.5 129t149 122t121 127t51.5 111q13 92 -45.5 144t-187.5 52q-137 0 -250 -83l-25 29q127 94 281 95q146 0 215 -63.5t54 -172.5q-8 -55 -51.5 -118.5t-120 -131.5t-143.5 -121.5t-165.5 -126.5t-142.5 -108h546z" glyph-name="uni00B2" horiz-adv-x="976" unicode="²"/><glyph d="M356 1638h546l-5 -41l-414 -349q53 13 110 14q128 0 200.5 -66.5t57.5 -179.5q-37 -260 -338 -260q-80 0 -159.5 27t-127.5 72l35 31q46 -42 116 -66t142 -23q136 1 206 54.5t85 165.5q14 101 -45.5 152.5t-177.5 51.5q-86 0 -155 -33l-22 48l428 361h-487z" glyph-name="uni00B3" horiz-adv-x="970" unicode="³"/><glyph d="M687 1587l-310 -307h-51l307 307h54z" glyph-name="acute" horiz-adv-x="768" unicode="´"/><glyph d="M1250 1126h40l-157 -1126h-41l44 318q-52 -106 -147.5 -183t-200.5 -111t-211 -34q-136 0 -231 56t-128 179l-89 -635h-41l169 1202l47 334h41l-93 -665q-16 -117 2 -202.5t66.5 -134t113.5 -71t149 -22.5q75 0 148 17.5t145 56.5t130 96.5t101 142.5t59 188z" glyph-name="uni00B5" horiz-adv-x="1370" unicode="µ"/><glyph d="M562 987q-127 0 -194 57.5t-53 162.5q16 113 98 170t212 57h290l-200 -1434h-41l195 1393h-209l-195 -1393h-41z" glyph-name="paragraph" horiz-adv-x="1018" unicode="¶"/><glyph d="M253 760h86l-12 -86h-86z" glyph-name="periodcentered" horiz-adv-x="536" unicode="·"/><glyph d="M262 -50q42 0 68 -20.5t20 -65.5q-13 -88 -150 -88q-39 0 -84 7l6 41q33 -5 63 -5q113 0 119 45q4 29 -17.5 37t-71.5 8q-28 0 -39 -1l5 38l67 59h41l-61 -56q6 1 34 1z" glyph-name="cedilla" horiz-adv-x="673" unicode="¸"/><glyph d="M468 819h207l-5 -41h-455l5 41h207l110 777q-105 -48 -181 -67l6 43q80 22 181 66h41z" glyph-name="uni00B9" horiz-adv-x="823" unicode="¹"/><glyph d="M839 1100q-12 -87 -50 -155t-92 -108t-113.5 -60.5t-120 -20.5t-113.5 20.5t-95.5 60.5t-61.5 108t-7 155q12 85 50 152.5t91 108.5t113 62t120 21q61 0 115 -21t96 -62t61 -108.5t7 -152.5zM470 797q73 0 140 30t121 100.5t69 172.5q10 75 -7 134t-53.5 95t-84 55 t-100.5 19q-115 0 -211.5 -79t-117.5 -224q-11 -77 6 -137t54 -95t84 -53t100 -18z" glyph-name="ordmasculine" horiz-adv-x="874" unicode="º"/><glyph d="M280 947h54l284 -384l-392 -384h-54l392 384zM638 947h54l285 -384l-392 -384h-55l393 384z" glyph-name="guillemotright" horiz-adv-x="1202" unicode="»"/><glyph d="M439 614h207l-5 -41h-455l5 41h207l110 778q-105 -48 -180 -68l6 43q80 22 180 67h41zM1371 1434h47l-966 -1434h-46zM1516 278l-7 -40h-169l-32 -238h-36l33 238h-431l7 40l507 582h40l-81 -582h169zM933 278h378l73 526z" glyph-name="onequarter" horiz-adv-x="1738" unicode="¼"/><glyph d="M439 614h207l-5 -41h-455l5 41h207l110 778q-105 -48 -180 -68l6 43q80 22 180 67h41zM1368 1434h47l-966 -1434h-47zM1596 41l-5 -41h-608l5 41q53 43 151 116t170.5 129t149 122t121 127t51.5 111q13 92 -45.5 144t-187.5 52q-137 0 -250 -83l-25 29q127 94 281 95 q146 0 215 -63.5t54 -172.5q-8 -55 -51.5 -118.5t-120 -131.5t-143.5 -121.5t-165.5 -126.5t-142.5 -108h546z" glyph-name="onehalf" horiz-adv-x="1853" unicode="½"/><glyph d="M328 1434h545l-5 -41l-413 -350q53 13 109 14q128 0 201 -66t57 -180q-37 -260 -338 -260q-80 0 -159 27t-127 72l34 31q46 -42 116.5 -66t141.5 -23q136 1 206 54.5t85 165.5q14 101 -45.5 152.5t-177.5 51.5q-86 0 -155 -33l-22 48l428 362h-486zM1457 1434h47 l-966 -1434h-46zM1594 278l-6 -40h-169l-33 -238h-35l32 238h-430l6 40l507 582h41l-82 -582h169zM1012 278h378l73 526z" glyph-name="threequarters" horiz-adv-x="1817" unicode="¾"/><glyph d="M771 1024l-9 -66h-86l9 66h86zM496 -410q-216 0 -327 111.5t-83 308.5q28 191 153.5 300.5t304.5 109.5q42 0 81 -6l47 303h30l-45 -355q-50 16 -118 17q-163 0 -275 -98t-137 -270q-26 -180 75 -280t300 -100q187 0 339 86l-7 -48q-147 -79 -338 -79z" glyph-name="questiondown" horiz-adv-x="1123" unicode="¿"/><glyph d="M840 1587h-52l-222 307h55zM1157 0l-99 372h-828l-203 -372h-44l784 1434h51l383 -1434h-44zM253 413h794l-261 969z" glyph-name="Agrave" horiz-adv-x="1341" unicode="À"/><glyph d="M1150 1894l-310 -307h-52l308 307h54zM1157 0l-99 372h-828l-203 -372h-44l784 1434h51l383 -1434h-44zM253 413h794l-261 969z" glyph-name="Aacute" horiz-adv-x="1341" unicode="Á"/><glyph d="M853 1863l-232 -276h-52l256 307h65l168 -307h-51zM1157 0l-99 372h-828l-203 -372h-44l784 1434h51l383 -1434h-44zM253 413h794l-261 969z" glyph-name="Acircumflex" horiz-adv-x="1341" unicode="Â"/><glyph d="M706 1710q-45 -1 -78.5 -37t-40.5 -86l-40 1q7 68 52 115.5t113 47.5q38 0 73 -20.5t58.5 -45t55 -45t59.5 -20.5q36 0 68 37.5t39 84.5h41q-10 -68 -58 -115t-110 -47q-28 0 -61 20.5t-58 45t-56 44.5t-57 20zM1157 0l-99 372h-828l-203 -372h-44l784 1434h51l383 -1434 h-44zM253 413h794l-261 969z" glyph-name="Atilde" horiz-adv-x="1341" unicode="Ã"/><glyph d="M706 1673l-13 -86h-86l13 86h86zM1032 1673l-12 -86h-86l12 86h86zM1157 0l-99 372h-828l-203 -372h-44l784 1434h51l383 -1434h-44zM253 413h794l-261 969z" glyph-name="Adieresis" horiz-adv-x="1341" unicode="Ä"/><glyph d="M1157 0l-99 372h-828l-203 -372h-44l769 1405q-52 13 -81 57t-21 102q9 68 64 115.5t122.5 47.5t109 -48t32.5 -115q-8 -58 -51 -103t-101 -57l375 -1404h-44zM691 1564q-7 -51 24 -87t82 -36t92 36t48 87t-24 87t-82 36t-92 -36.5t-48 -86.5zM253 413h794l-261 969z" glyph-name="Aring" horiz-adv-x="1341" unicode="Å"/><glyph d="M1524 1393h-686l-93 -656h605l-7 -41h-604l-92 -655h686l-5 -41h-727l52 372h-423l-203 -372h-44l784 1434h762zM655 384l143 1019l-545 -990h405z" glyph-name="AE" horiz-adv-x="1632" unicode="Æ"/><glyph d="M962 1403q-79 0 -158.5 -19t-156.5 -56t-145.5 -94.5t-124 -132t-95 -173.5t-56.5 -211q-24 -167 13 -301.5t117.5 -216.5t186.5 -125t226 -43q198 0 373 107l-7 -50q-170 -95 -361 -98l-49 -46q6 1 34 1q42 0 68 -20.5t20 -65.5q-13 -88 -151 -88q-39 0 -84 7l6 41 q33 -5 64 -5q113 0 119 45q4 29 -17.5 37t-71.5 8q-28 0 -39 -1l5 38l55 50q-98 4 -187 34t-164 90.5t-125.5 144t-70.5 201.5t-1 256q19 142 75 263t133.5 205t174 143.5t197 87.5t203.5 28q194 0 343 -98l-7 -51q-144 108 -342 108z" glyph-name="Ccedilla" horiz-adv-x="1426" unicode="Ç"/><glyph d="M597 1894h54l219 -307h-51zM193 41h911l-5 -41h-953l201 1434h952l-5 -41h-911l-92 -656h829l-6 -41h-829z" glyph-name="Egrave" horiz-adv-x="1402" unicode="È"/><glyph d="M1181 1894l-311 -307h-51l307 307h55zM193 41h911l-5 -41h-953l201 1434h952l-5 -41h-911l-92 -656h829l-6 -41h-829z" glyph-name="Eacute" horiz-adv-x="1402" unicode="É"/><glyph d="M1089 1587h-52l-153 276l-233 -276h-51l256 307h65zM193 41h911l-5 -41h-953l201 1434h952l-5 -41h-911l-92 -656h829l-6 -41h-829z" glyph-name="Ecircumflex" horiz-adv-x="1402" unicode="Ê"/><glyph d="M650 1673h86l-12 -86h-86zM977 1673h86l-12 -86h-86zM193 41h911l-5 -41h-953l201 1434h952l-5 -41h-911l-92 -656h829l-6 -41h-829z" glyph-name="Edieresis" horiz-adv-x="1402" unicode="Ë"/><glyph d="M141 1894h55l219 -307h-51zM187 0h-41l201 1434h41z" glyph-name="Igrave" horiz-adv-x="491" unicode="Ì"/><glyph d="M725 1894l-310 -307h-51l307 307h54zM187 0h-41l201 1434h41z" glyph-name="Iacute" horiz-adv-x="491" unicode="Í"/><glyph d="M633 1587h-51l-154 276l-232 -276h-52l256 307h65zM187 0h-41l201 1434h41z" glyph-name="Icircumflex" horiz-adv-x="491" unicode="Î"/><glyph d="M195 1673h86l-13 -86h-86zM521 1673h86l-12 -86h-86zM187 0h-41l201 1434h41z" glyph-name="Idieresis" horiz-adv-x="491" unicode="Ï"/><glyph d="M798 1434q115 0 211.5 -27.5t175 -83.5t127.5 -141.5t68 -201.5t-3 -263q-25 -179 -97.5 -318.5t-178 -225.5t-233.5 -129.5t-271 -43.5h-451l98 696h-164l6 41h164l97 697h451zM1336 717q24 169 -7.5 300.5t-108 212.5t-184.5 122t-243 41h-410l-92 -656h421l-6 -41 h-421l-92 -655h409q108 0 205.5 25.5t186 79.5t157.5 132t117.5 190.5t67.5 248.5z" glyph-name="Eth" horiz-adv-x="1519" unicode="Ð"/><glyph d="M644 1588q7 68 52 115.5t113 47.5q38 0 73.5 -20.5t59 -45t54.5 -45t60 -20.5q36 0 67.5 37.5t38.5 84.5h41q-10 -68 -57.5 -115t-110.5 -47q-28 0 -61 20.5t-58 45t-56.5 44.5t-56.5 20q-45 -1 -78.5 -37t-40.5 -86zM1392 1434h41l-201 -1434h-56l-795 1382l-194 -1382 h-41l201 1434h56l795 -1383z" glyph-name="Ntilde" horiz-adv-x="1536" unicode="Ñ"/><glyph d="M739 1894h55l219 -307h-51zM1545.5 716.5q-19.5 -142.5 -75.5 -263t-133 -204.5t-173.5 -143.5t-197.5 -87.5t-203.5 -28t-195.5 28t-172 87.5t-132.5 143.5t-75 204.5t-2 263t75 263.5t133 205t174 143.5t197 87.5t203 28t195.5 -28t172 -87.5t133 -143.5t75.5 -205 t2 -263.5zM769 31q79 0 158.5 19t156 55.5t145 94.5t124.5 132.5t95.5 173t55.5 211.5q24 167 -13 301.5t-117.5 216.5t-186.5 125t-225 43q-79 0 -158.5 -19t-156.5 -56t-145.5 -94.5t-124 -132t-95 -173.5t-56.5 -211q-24 -167 13 -301.5t117.5 -216.5t186.5 -125t226 -43 z" glyph-name="Ograve" horiz-adv-x="1687" unicode="Ò"/><glyph d="M1323 1894l-310 -307h-51l307 307h54zM1545.5 716.5q-19.5 -142.5 -75.5 -263t-133 -204.5t-173.5 -143.5t-197.5 -87.5t-203.5 -28t-195.5 28t-172 87.5t-132.5 143.5t-75 204.5t-2 263t75 263.5t133 205t174 143.5t197 87.5t203 28t195.5 -28t172 -87.5t133 -143.5 t75.5 -205t2 -263.5zM769 31q79 0 158.5 19t156 55.5t145 94.5t124.5 132.5t95.5 173t55.5 211.5q24 167 -13 301.5t-117.5 216.5t-186.5 125t-225 43q-79 0 -158.5 -19t-156.5 -56t-145.5 -94.5t-124 -132t-95 -173.5t-56.5 -211q-24 -167 13 -301.5t117.5 -216.5 t186.5 -125t226 -43z" glyph-name="Oacute" horiz-adv-x="1687" unicode="Ó"/><glyph d="M1231 1587h-51l-154 276l-232 -276h-52l256 307h65zM1545.5 716.5q-19.5 -142.5 -75.5 -263t-133 -204.5t-173.5 -143.5t-197.5 -87.5t-203.5 -28t-195.5 28t-172 87.5t-132.5 143.5t-75 204.5t-2 263t75 263.5t133 205t174 143.5t197 87.5t203 28t195.5 -28t172 -87.5 t133 -143.5t75.5 -205t2 -263.5zM769 31q79 0 158.5 19t156 55.5t145 94.5t124.5 132.5t95.5 173t55.5 211.5q24 167 -13 301.5t-117.5 216.5t-186.5 125t-225 43q-79 0 -158.5 -19t-156.5 -56t-145.5 -94.5t-124 -132t-95 -173.5t-56.5 -211q-24 -167 13 -301.5 t117.5 -216.5t186.5 -125t226 -43z" glyph-name="Ocircumflex" horiz-adv-x="1687" unicode="Ô"/><glyph d="M720 1588q7 68 52 115.5t113 47.5q38 0 73 -20.5t58.5 -45t55 -45t60.5 -20.5q36 0 67.5 37.5t38.5 84.5h41q-10 -68 -57.5 -115t-110.5 -47q-28 0 -61 20.5t-58 45t-56.5 44.5t-56.5 20q-45 -1 -78.5 -37t-40.5 -86zM1545.5 716.5q-19.5 -142.5 -75.5 -263t-133 -204.5 t-173.5 -143.5t-197.5 -87.5t-203.5 -28t-195.5 28t-172 87.5t-132.5 143.5t-75 204.5t-2 263t75 263.5t133 205t174 143.5t197 87.5t203 28t195.5 -28t172 -87.5t133 -143.5t75.5 -205t2 -263.5zM769 31q79 0 158.5 19t156 55.5t145 94.5t124.5 132.5t95.5 173t55.5 211.5 q24 167 -13 301.5t-117.5 216.5t-186.5 125t-225 43q-79 0 -158.5 -19t-156.5 -56t-145.5 -94.5t-124 -132t-95 -173.5t-56.5 -211q-24 -167 13 -301.5t117.5 -216.5t186.5 -125t226 -43z" glyph-name="Otilde" horiz-adv-x="1687" unicode="Õ"/><glyph d="M793 1673h86l-13 -86h-86zM1119 1673h86l-12 -86h-86zM1545.5 716.5q-19.5 -142.5 -75.5 -263t-133 -204.5t-173.5 -143.5t-197.5 -87.5t-203.5 -28t-195.5 28t-172 87.5t-132.5 143.5t-75 204.5t-2 263t75 263.5t133 205t174 143.5t197 87.5t203 28t195.5 -28t172 -87.5 t133 -143.5t75.5 -205t2 -263.5zM769 31q79 0 158.5 19t156 55.5t145 94.5t124.5 132.5t95.5 173t55.5 211.5q24 167 -13 301.5t-117.5 216.5t-186.5 125t-225 43q-79 0 -158.5 -19t-156.5 -56t-145.5 -94.5t-124 -132t-95 -173.5t-56.5 -211q-24 -167 13 -301.5 t117.5 -216.5t186.5 -125t226 -43z" glyph-name="Odieresis" horiz-adv-x="1687" unicode="Ö"/><glyph d="M817 441l-34 -28l-236 274l-314 -274l-24 28l313 276l-236 274l32 30l237 -276l314 276l25 -30l-313 -274z" glyph-name="multiply" horiz-adv-x="1059" unicode="×"/><glyph d="M1624 1356l-170 -150q133 -194 91 -489q-19 -142 -75 -263t-133 -205t-173.5 -143.5t-197.5 -87.5t-203 -28q-137 0 -258.5 52t-203.5 153l-168 -148l-27 31l170 149q-133 194 -91 490q19 142 75 263t133.5 205t174 143.5t197 87.5t203.5 28q137 0 258.5 -52.5 t203.5 -152.5l167 147zM226 717q-39 -276 85 -460l1085 952q-77 95 -191 144.5t-243 49.5q-79 0 -158.5 -19t-156.5 -56t-145.5 -94.5t-124 -132t-95.5 -173t-56 -211.5zM1504 717q39 276 -85 460l-1084 -953q77 -95 191 -144t243 -49q79 0 158.5 19t156 55.5t145 94.5 t124.5 132.5t95.5 173t55.5 211.5z" glyph-name="Oslash" horiz-adv-x="1687" unicode="Ø"/><glyph d="M607 1894h55l219 -307h-52zM1320 1434l-128 -912q-39 -281 -170 -406.5t-391 -125.5t-355.5 126t-56.5 406l128 912h41l-128 -912q-37 -263 49 -377t328 -114t359.5 114t154.5 377l128 912h41z" glyph-name="Ugrave" horiz-adv-x="1423" unicode="Ù"/><glyph d="M1191 1894l-310 -307h-52l308 307h54zM1320 1434l-128 -912q-39 -281 -170 -406.5t-391 -125.5t-355.5 126t-56.5 406l128 912h41l-128 -912q-37 -263 49 -377t328 -114t359.5 114t154.5 377l128 912h41z" glyph-name="Uacute" horiz-adv-x="1423" unicode="Ú"/><glyph d="M1099 1587h-51l-154 276l-232 -276h-52l256 307h65zM1320 1434l-128 -912q-39 -281 -170 -406.5t-391 -125.5t-355.5 126t-56.5 406l128 912h41l-128 -912q-37 -263 49 -377t328 -114t359.5 114t154.5 377l128 912h41z" glyph-name="Ucircumflex" horiz-adv-x="1423" unicode="Û"/><glyph d="M660 1673h86l-12 -86h-86zM987 1673h86l-12 -86h-86zM1320 1434l-128 -912q-39 -281 -170 -406.5t-391 -125.5t-355.5 126t-56.5 406l128 912h41l-128 -912q-37 -263 49 -377t328 -114t359.5 114t154.5 377l128 912h41z" glyph-name="Udieresis" horiz-adv-x="1423" unicode="Ü"/><glyph d="M1089 1894l-311 -307h-51l307 307h55zM1231 1434h48l-641 -811l-87 -623h-41l87 623l-414 811h48l393 -767z" glyph-name="Yacute" horiz-adv-x="1218" unicode="Ý"/><glyph d="M852 1152q197 0 296.5 -110t74.5 -300q-33 -242 -272 -351t-724 -109l-40 -282h-41l201 1434h41l-39 -282h503zM1182 742q25 175 -66.5 272t-269.5 97h-503l-111 -788q471 0 695 100t255 319z" glyph-name="Thorn" horiz-adv-x="1381" unicode="Þ"/><glyph d="M1070 399q-14 -102 -69.5 -182t-133 -125.5t-161 -68.5t-165.5 -23h-181l6 41h180q76 0 151.5 20t146.5 60.5t121.5 112.5t63.5 165q12 90 -17.5 163.5t-87.5 118t-129 68.5t-146 24h-180l5 41h180q59 0 122.5 18t122 52.5t100 93t52.5 132.5q10 72 -14.5 129.5t-73 92.5 t-106.5 53t-120 18q-97 0 -179 -30.5t-142 -98.5t-73 -164l-156 -1110h-41l156 1110q23 159 148 246.5t293 87.5q70 0 135.5 -21.5t118 -62t79.5 -105.5t16 -145q-15 -120 -99 -200.5t-199 -114.5q135 -38 215.5 -140.5t60.5 -255.5z" glyph-name="germandbls" horiz-adv-x="1256" unicode="ß"/><glyph d="M538 1587h54l219 -307h-51zM766 1137q63 0 114 -6.5t96.5 -20.5t77 -37t57.5 -58t36.5 -81t13.5 -106.5t-9 -136.5l-97 -691h-41l26 188q-29 -32 -74.5 -63.5t-112.5 -63t-159 -51.5t-192 -20q-198 0 -287.5 75.5t-69.5 223.5q17 121 88.5 192.5t192 99t290 30.5 t382.5 -13l14 103q24 219 -53 307t-299 88q-94 0 -191.5 -23.5t-167.5 -62.5l8 48q68 36 163.5 57.5t193.5 21.5zM1049 250l43 306q-214 15 -376.5 13.5t-274.5 -26t-175.5 -86.5t-79.5 -167q-18 -135 64.5 -197t269.5 -62q92 0 179.5 21t154.5 55t115 70t80 73z" glyph-name="agrave" horiz-adv-x="1358" unicode="à"/><glyph d="M1121 1587l-310 -307h-51l307 307h54zM766 1137q63 0 114 -6.5t96.5 -20.5t77 -37t57.5 -58t36.5 -81t13.5 -106.5t-9 -136.5l-97 -691h-41l26 188q-29 -32 -74.5 -63.5t-112.5 -63t-159 -51.5t-192 -20q-198 0 -287.5 75.5t-69.5 223.5q17 121 88.5 192.5t192 99 t290 30.5t382.5 -13l14 103q24 219 -53 307t-299 88q-94 0 -191.5 -23.5t-167.5 -62.5l8 48q68 36 163.5 57.5t193.5 21.5zM1049 250l43 306q-214 15 -376.5 13.5t-274.5 -26t-175.5 -86.5t-79.5 -167q-18 -135 64.5 -197t269.5 -62q92 0 179.5 21t154.5 55t115 70t80 73z " glyph-name="aacute" horiz-adv-x="1358" unicode="á"/><glyph d="M1029 1280h-51l-154 275l-232 -275h-51l256 307h64zM766 1137q63 0 114 -6.5t96.5 -20.5t77 -37t57.5 -58t36.5 -81t13.5 -106.5t-9 -136.5l-97 -691h-41l26 188q-29 -32 -74.5 -63.5t-112.5 -63t-159 -51.5t-192 -20q-198 0 -287.5 75.5t-69.5 223.5q17 121 88.5 192.5 t192 99t290 30.5t382.5 -13l14 103q24 219 -53 307t-299 88q-94 0 -191.5 -23.5t-167.5 -62.5l8 48q68 36 163.5 57.5t193.5 21.5zM1049 250l43 306q-214 15 -376.5 13.5t-274.5 -26t-175.5 -86.5t-79.5 -167q-18 -135 64.5 -197t269.5 -62q92 0 179.5 21t154.5 55t115 70 t80 73z" glyph-name="acircumflex" horiz-adv-x="1358" unicode="â"/><glyph d="M518 1281q7 68 52 115.5t113 47.5q38 0 73.5 -20.5t59 -45t54.5 -45t60 -20.5q36 0 67.5 37.5t38.5 84.5h41q-10 -68 -57.5 -115t-110.5 -47q-28 0 -61 20.5t-58 45t-56.5 44.5t-56.5 20q-45 -1 -78.5 -37t-40.5 -86zM766 1137q63 0 114 -6.5t96.5 -20.5t77 -37t57.5 -58 t36.5 -81t13.5 -106.5t-9 -136.5l-97 -691h-41l26 188q-29 -32 -74.5 -63.5t-112.5 -63t-159 -51.5t-192 -20q-198 0 -287.5 75.5t-69.5 223.5q17 121 88.5 192.5t192 99t290 30.5t382.5 -13l14 103q24 219 -53 307t-299 88q-94 0 -191.5 -23.5t-167.5 -62.5l8 48 q68 36 163.5 57.5t193.5 21.5zM1049 250l43 306q-214 15 -376.5 13.5t-274.5 -26t-175.5 -86.5t-79.5 -167q-18 -135 64.5 -197t269.5 -62q92 0 179.5 21t154.5 55t115 70t80 73z" glyph-name="atilde" horiz-adv-x="1358" unicode="ã"/><glyph d="M591 1366h86l-12 -86h-86zM918 1366h86l-13 -86h-86zM766 1137q63 0 114 -6.5t96.5 -20.5t77 -37t57.5 -58t36.5 -81t13.5 -106.5t-9 -136.5l-97 -691h-41l26 188q-29 -32 -74.5 -63.5t-112.5 -63t-159 -51.5t-192 -20q-198 0 -287.5 75.5t-69.5 223.5q17 121 88.5 192.5 t192 99t290 30.5t382.5 -13l14 103q24 219 -53 307t-299 88q-94 0 -191.5 -23.5t-167.5 -62.5l8 48q68 36 163.5 57.5t193.5 21.5zM1049 250l43 306q-214 15 -376.5 13.5t-274.5 -26t-175.5 -86.5t-79.5 -167q-18 -135 64.5 -197t269.5 -62q92 0 179.5 21t154.5 55t115 70 t80 73z" glyph-name="adieresis" horiz-adv-x="1358" unicode="ä"/><glyph d="M785.5 1280q-67.5 0 -109 48t-31.5 116q9 68 64 116t122.5 48t109 -48.5t32.5 -115.5q-10 -68 -65 -116t-122.5 -48zM792 1321q51 0 92 36.5t48 86.5q7 51 -24 87t-82 36t-92 -36.5t-48 -86.5q-7 -51 24.5 -87t81.5 -36zM766 1137q63 0 114 -6.5t96.5 -20.5t77 -37 t57.5 -58t36.5 -81t13.5 -106.5t-9 -136.5l-97 -691h-41l26 188q-29 -32 -74.5 -63.5t-112.5 -63t-159 -51.5t-192 -20q-198 0 -287.5 75.5t-69.5 223.5q17 121 88.5 192.5t192 99t290 30.5t382.5 -13l14 103q24 219 -53 307t-299 88q-94 0 -191.5 -23.5t-167.5 -62.5l8 48 q68 36 163.5 57.5t193.5 21.5zM1049 250l43 306q-214 15 -376.5 13.5t-274.5 -26t-175.5 -86.5t-79.5 -167q-18 -135 64.5 -197t269.5 -62q92 0 179.5 21t154.5 55t115 70t80 73z" glyph-name="aring" horiz-adv-x="1358" unicode="å"/><glyph d="M1134 563l-4 -22q-11 -103 12 -190t69 -145t110 -98.5t133 -58.5t138 -18q187 0 339 86l-7 -48q-146 -79 -338 -79q-76 0 -150 20.5t-141.5 61t-119 108.5t-73.5 155l-47 -335h-41l26 188q-29 -32 -74.5 -63.5t-112.5 -63t-159 -51.5t-192 -20q-198 0 -287.5 75.5 t-69.5 223.5q17 121 88.5 192.5t192 99t290 30.5t382.5 -13l14 103q24 219 -53 307t-299 88q-94 0 -191.5 -23.5t-167.5 -62.5l8 48q68 36 163.5 57.5t193.5 21.5q101 0 172 -16t124 -54.5t77.5 -106t21.5 -166.5q81 167 225.5 255t300.5 88q78 0 150 -22t135.5 -67.5 t104.5 -113.5t55 -160.5t-12 -210.5h-986zM1680 1096q-69 0 -136 -18.5t-131.5 -58.5t-118 -97t-94.5 -139t-59 -179h944q23 120 -5 217.5t-90.5 155t-142.5 88.5t-167 31zM1049 250l43 306q-214 15 -376.5 13.5t-274.5 -26t-175.5 -86.5t-79.5 -167q-18 -135 64.5 -197 t269.5 -62q92 0 179.5 21t154.5 55t115 70t80 73z" glyph-name="ae" horiz-adv-x="2306" unicode="æ"/><glyph d="M803 1096q-94 0 -186.5 -33t-174.5 -96.5t-140 -168t-76.5 -235.5t10.5 -235.5t93 -168t147 -96t177 -32.5q187 0 339 86l-7 -48q-139 -76 -326 -79l-49 -46q6 1 34 1q42 0 68 -20.5t20 -65.5q-13 -88 -150 -88q-39 0 -84 7l6 41q33 -5 63 -5q113 0 119 45q4 29 -17.5 37 t-71.5 8q-28 0 -39 -1l5 38l57 50q-77 4 -147.5 27.5t-130 70.5t-100 112.5t-57 159t-1.5 202.5q19 141 83.5 254t153 181t188 103.5t200.5 35.5q189 0 315 -79l-7 -48q-128 86 -314 86z" glyph-name="ccedilla" horiz-adv-x="1239" unicode="ç"/><glyph d="M825 1280h-51l-222 307h54zM1211 563h-986q-15 -109 6 -199.5t66.5 -150.5t110.5 -102t134.5 -61t141.5 -19q187 0 339 86l-7 -48q-146 -79 -338 -79q-77 0 -152 20.5t-145 66t-119 110.5t-71.5 162t-6.5 214q19 141 80 254t145 181t178 103.5t191 35.5q78 0 150 -22 t135.5 -67.5t104.5 -113.5t55.5 -160.5t-12.5 -210.5zM772 1096q-69 0 -136.5 -18.5t-132 -58.5t-117.5 -97t-94 -139t-60 -179h945q23 120 -5 217.5t-90.5 155t-142.5 88.5t-167 31z" glyph-name="egrave" horiz-adv-x="1397" unicode="è"/><glyph d="M1136 1587l-311 -307h-51l307 307h55zM1211 563h-986q-15 -109 6 -199.5t66.5 -150.5t110.5 -102t134.5 -61t141.5 -19q187 0 339 86l-7 -48q-146 -79 -338 -79q-77 0 -152 20.5t-145 66t-119 110.5t-71.5 162t-6.5 214q19 141 80 254t145 181t178 103.5t191 35.5 q78 0 150 -22t135.5 -67.5t104.5 -113.5t55.5 -160.5t-12.5 -210.5zM772 1096q-69 0 -136.5 -18.5t-132 -58.5t-117.5 -97t-94 -139t-60 -179h945q23 120 -5 217.5t-90.5 155t-142.5 88.5t-167 31z" glyph-name="eacute" horiz-adv-x="1397" unicode="é"/><glyph d="M839 1555l-233 -275h-51l256 307h65l167 -307h-51zM1211 563h-986q-15 -109 6 -199.5t66.5 -150.5t110.5 -102t134.5 -61t141.5 -19q187 0 339 86l-7 -48q-146 -79 -338 -79q-77 0 -152 20.5t-145 66t-119 110.5t-71.5 162t-6.5 214q19 141 80 254t145 181t178 103.5 t191 35.5q78 0 150 -22t135.5 -67.5t104.5 -113.5t55.5 -160.5t-12.5 -210.5zM772 1096q-69 0 -136.5 -18.5t-132 -58.5t-117.5 -97t-94 -139t-60 -179h945q23 120 -5 217.5t-90.5 155t-142.5 88.5t-167 31z" glyph-name="ecircumflex" horiz-adv-x="1397" unicode="ê"/><glyph d="M691 1366l-12 -86h-86l12 86h86zM1018 1366l-12 -86h-86l12 86h86zM1211 563h-986q-15 -109 6 -199.5t66.5 -150.5t110.5 -102t134.5 -61t141.5 -19q187 0 339 86l-7 -48q-146 -79 -338 -79q-77 0 -152 20.5t-145 66t-119 110.5t-71.5 162t-6.5 214q19 141 80 254 t145 181t178 103.5t191 35.5q78 0 150 -22t135.5 -67.5t104.5 -113.5t55.5 -160.5t-12.5 -210.5zM772 1096q-69 0 -136.5 -18.5t-132 -58.5t-117.5 -97t-94 -139t-60 -179h945q23 120 -5 217.5t-90.5 155t-142.5 88.5t-167 31z" glyph-name="edieresis" horiz-adv-x="1397" unicode="ë"/><glyph d="M98 1587h55l219 -307h-51zM304 1126h41l-158 -1126h-41z" glyph-name="igrave" horiz-adv-x="491" unicode="ì"/><glyph d="M682 1587l-310 -307h-51l307 307h54zM304 1126h41l-158 -1126h-41z" glyph-name="iacute" horiz-adv-x="491" unicode="í"/><glyph d="M590 1280h-51l-154 275l-232 -275h-52l256 307h65zM304 1126h41l-158 -1126h-41z" glyph-name="icircumflex" horiz-adv-x="491" unicode="î"/><glyph d="M152 1366h86l-13 -86h-86zM478 1366h86l-12 -86h-86zM304 1126h41l-158 -1126h-41z" glyph-name="idieresis" horiz-adv-x="491" unicode="ï"/><glyph d="M923 1188q214 -296 262 -373q75 -122 82 -210q5 -48 -5 -120q-17 -122 -79 -219.5t-149 -156t-186 -89t-201 -30.5q-80 0 -154 18.5t-138.5 59t-109.5 97t-65 139.5t-7 181q14 100 57.5 184.5t105 140.5t138 95t155 57t157.5 18q159 0 280 -66l-190 266l-252 -50l5 41 l221 43l-158 220h54q58 -83 151 -210l315 60l-6 -41zM1221 485q12 88 -6 163t-60 127.5t-102 90t-129 55.5t-143 18q-75 0 -147.5 -16t-142.5 -51t-126.5 -87t-97 -129t-53.5 -171q-15 -114 16 -203t96 -142.5t149 -81t178 -27.5q75 0 149 17t144 53t126 88.5t96 128.5 t53 167z" glyph-name="eth" unicode="ð"/><glyph d="M552 1281q7 68 52 115.5t113 47.5q38 0 73 -20.5t58.5 -45t55 -45t60.5 -20.5q36 0 67.5 37.5t38.5 84.5h41q-10 -68 -57.5 -115t-110.5 -47q-28 0 -61 20.5t-58 45t-56.5 44.5t-56.5 20q-45 -1 -78.5 -37t-40.5 -86zM186 0h-40l158 1126h41l-44 -318q52 106 147.5 183 t200.5 111.5t211 34.5q72 0 132 -15.5t111 -49.5t81.5 -88.5t44 -134t-2.5 -183.5l-93 -666h-41l93 666q16 117 -2.5 202t-66.5 134t-113 71.5t-149 22.5q-75 0 -148 -17.5t-145.5 -57t-130 -97t-100.5 -142.5t-60 -188z" glyph-name="ntilde" horiz-adv-x="1436" unicode="ñ"/><glyph d="M582 1587h54l219 -307h-51zM1273 563q-16 -117 -61.5 -214t-108.5 -162.5t-140 -110.5t-156.5 -65.5t-159.5 -20.5t-153 20.5t-137.5 65.5t-108 110.5t-62 162.5t-2.5 214q19 141 83.5 254t153 181t188 103.5t200.5 35.5t191.5 -35.5t159.5 -103.5t100.5 -181t12.5 -254z M653 31q75 0 148 19t145 61t130 102.5t100 151t56 198.5q18 131 -11 235.5t-93 168t-147.5 96.5t-177.5 33t-186.5 -33t-174.5 -96.5t-140 -168t-77 -235.5q-15 -109 2 -199t57.5 -150.5t99.5 -102.5t127 -61t142 -19z" glyph-name="ograve" unicode="ò"/><glyph d="M1165 1587l-310 -307h-51l307 307h54zM1273 563q-16 -117 -61.5 -214t-108.5 -162.5t-140 -110.5t-156.5 -65.5t-159.5 -20.5t-153 20.5t-137.5 65.5t-108 110.5t-62 162.5t-2.5 214q19 141 83.5 254t153 181t188 103.5t200.5 35.5t191.5 -35.5t159.5 -103.5t100.5 -181 t12.5 -254zM653 31q75 0 148 19t145 61t130 102.5t100 151t56 198.5q18 131 -11 235.5t-93 168t-147.5 96.5t-177.5 33t-186.5 -33t-174.5 -96.5t-140 -168t-77 -235.5q-15 -109 2 -199t57.5 -150.5t99.5 -102.5t127 -61t142 -19z" glyph-name="oacute" unicode="ó"/><glyph d="M1073 1280h-51l-154 275l-232 -275h-51l256 307h64zM1273 563q-16 -117 -61.5 -214t-108.5 -162.5t-140 -110.5t-156.5 -65.5t-159.5 -20.5t-153 20.5t-137.5 65.5t-108 110.5t-62 162.5t-2.5 214q19 141 83.5 254t153 181t188 103.5t200.5 35.5t191.5 -35.5 t159.5 -103.5t100.5 -181t12.5 -254zM653 31q75 0 148 19t145 61t130 102.5t100 151t56 198.5q18 131 -11 235.5t-93 168t-147.5 96.5t-177.5 33t-186.5 -33t-174.5 -96.5t-140 -168t-77 -235.5q-15 -109 2 -199t57.5 -150.5t99.5 -102.5t127 -61t142 -19z" glyph-name="ocircumflex" unicode="ô"/><glyph d="M562 1281q7 68 52 115.5t113 47.5q38 0 73.5 -20.5t59 -45t54.5 -45t60 -20.5q36 0 67.5 37.5t38.5 84.5h41q-10 -68 -57.5 -115t-110.5 -47q-28 0 -61 20.5t-58 45t-56.5 44.5t-56.5 20q-45 -1 -78.5 -37t-40.5 -86zM1273 563q-16 -117 -61.5 -214t-108.5 -162.5 t-140 -110.5t-156.5 -65.5t-159.5 -20.5t-153 20.5t-137.5 65.5t-108 110.5t-62 162.5t-2.5 214q19 141 83.5 254t153 181t188 103.5t200.5 35.5t191.5 -35.5t159.5 -103.5t100.5 -181t12.5 -254zM653 31q75 0 148 19t145 61t130 102.5t100 151t56 198.5q18 131 -11 235.5 t-93 168t-147.5 96.5t-177.5 33t-186.5 -33t-174.5 -96.5t-140 -168t-77 -235.5q-15 -109 2 -199t57.5 -150.5t99.5 -102.5t127 -61t142 -19z" glyph-name="otilde" unicode="õ"/><glyph d="M635 1366h86l-12 -86h-86zM962 1366h86l-13 -86h-86zM1273 563q-16 -117 -61.5 -214t-108.5 -162.5t-140 -110.5t-156.5 -65.5t-159.5 -20.5t-153 20.5t-137.5 65.5t-108 110.5t-62 162.5t-2.5 214q19 141 83.5 254t153 181t188 103.5t200.5 35.5t191.5 -35.5 t159.5 -103.5t100.5 -181t12.5 -254zM653 31q75 0 148 19t145 61t130 102.5t100 151t56 198.5q18 131 -11 235.5t-93 168t-147.5 96.5t-177.5 33t-186.5 -33t-174.5 -96.5t-140 -168t-77 -235.5q-15 -109 2 -199t57.5 -150.5t99.5 -102.5t127 -61t142 -19z" glyph-name="odieresis" unicode="ö"/><glyph d="M665 1079h86l-13 -86h-86zM1063 696h-819l6 41h819zM574 440h86l-12 -86h-86z" glyph-name="divide" horiz-adv-x="1269" unicode="÷"/><glyph d="M1369 1099l-170 -150q106 -153 74 -386q-16 -117 -61.5 -214t-108.5 -162.5t-140 -110.5t-156.5 -65.5t-159.5 -20.5q-108 0 -204.5 39t-161.5 115l-167 -146l-26 30l168 147q-104 152 -72 388q19 141 83.5 254t153 181t188 103.5t200.5 35.5q108 0 204 -39.5t162 -116.5 l168 147zM225 563q-30 -218 65 -358l852 746q-61 71 -150.5 108t-188.5 37q-94 0 -186.5 -33t-174.5 -96.5t-140.5 -168t-76.5 -235.5zM1232 563q31 217 -67 357l-851 -747q60 -71 149.5 -106.5t189.5 -35.5q75 0 148 19t145 61t130 102.5t100 150.5t56 199z" glyph-name="oslash" unicode="ø"/><glyph d="M538 1587h54l219 -307h-51zM1250 1126h40l-157 -1126h-41l44 318q-52 -106 -147.5 -183t-200.5 -111t-211 -34q-72 0 -132 15t-111 49t-82 89t-44 134t3 184l93 665h41l-93 -665q-16 -117 2 -202.5t66.5 -134t113.5 -71t149 -22.5q75 0 148 17.5t145 56.5t130 96.5 t101 142.5t59 188z" glyph-name="ugrave" horiz-adv-x="1436" unicode="ù"/><glyph d="M1121 1587l-310 -307h-51l307 307h54zM1250 1126h40l-157 -1126h-41l44 318q-52 -106 -147.5 -183t-200.5 -111t-211 -34q-72 0 -132 15t-111 49t-82 89t-44 134t3 184l93 665h41l-93 -665q-16 -117 2 -202.5t66.5 -134t113.5 -71t149 -22.5q75 0 148 17.5t145 56.5 t130 96.5t101 142.5t59 188z" glyph-name="uacute" horiz-adv-x="1436" unicode="ú"/><glyph d="M1029 1280h-51l-154 275l-232 -275h-51l256 307h64zM1250 1126h40l-157 -1126h-41l44 318q-52 -106 -147.5 -183t-200.5 -111t-211 -34q-72 0 -132 15t-111 49t-82 89t-44 134t3 184l93 665h41l-93 -665q-16 -117 2 -202.5t66.5 -134t113.5 -71t149 -22.5q75 0 148 17.5 t145 56.5t130 96.5t101 142.5t59 188z" glyph-name="ucircumflex" horiz-adv-x="1436" unicode="û"/><glyph d="M591 1366h86l-12 -86h-86zM918 1366h86l-13 -86h-86zM1250 1126h40l-157 -1126h-41l44 318q-52 -106 -147.5 -183t-200.5 -111t-211 -34q-72 0 -132 15t-111 49t-82 89t-44 134t3 184l93 665h41l-93 -665q-16 -117 2 -202.5t66.5 -134t113.5 -71t149 -22.5q75 0 148 17.5 t145 56.5t130 96.5t101 142.5t59 188z" glyph-name="udieresis" horiz-adv-x="1436" unicode="ü"/><glyph d="M1027 1587l-310 -307h-51l307 307h54zM1094 1126h44l-593 -1059q-35 -62 -64 -108t-79 -107t-100 -102t-121 -74t-150 -43l6 41q71 10 134 40t108.5 66t90 91t71.5 97.5t62 104.5l-301 1053h44l285 -1001z" glyph-name="yacute" horiz-adv-x="1181" unicode="ý"/><glyph d="M829 1137q101 0 188.5 -35.5t152.5 -103.5t94 -180.5t8.5 -254t-80.5 -254t-144.5 -181t-181.5 -103.5t-198 -35q-158 0 -279 84.5t-158 243.5l-102 -728h-41l274 1946h41l-102 -728q81 160 225.5 244.5t302.5 84.5zM674 31q94 0 183.5 32.5t167.5 96t133 168t73.5 235.5 t-7.5 235.5t-86 168t-140 96.5t-175 33q-92 0 -180.5 -33t-166 -95.5t-133 -164.5t-76.5 -230l-2 -20q-16 -128 11 -230t87 -164.5t139.5 -95t171.5 -32.5z" glyph-name="thorn" unicode="þ"/><glyph d="M497 1366h86l-13 -86h-86zM823 1366h86l-12 -86h-86zM1094 1126h44l-593 -1059q-35 -62 -64 -108t-79 -107t-100 -102t-121 -74t-150 -43l6 41q71 10 134 40t108.5 66t90 91t71.5 97.5t62 104.5l-301 1053h44l285 -1001z" glyph-name="ydieresis" horiz-adv-x="1181" unicode="ÿ"/><glyph d="M1051 1628l-7 -41h-461l6 41h462zM1157 0l-99 372h-828l-203 -372h-44l784 1434h51l383 -1434h-44zM253 413h794l-261 969z" glyph-name="Amacron" horiz-adv-x="1341" unicode="Ā"/><glyph d="M560 1321h462l-6 -41h-462zM766 1137q63 0 114 -6.5t96.5 -20.5t77 -37t57.5 -58t36.5 -81t13.5 -106.5t-9 -136.5l-97 -691h-41l26 188q-29 -32 -74.5 -63.5t-112.5 -63t-159 -51.5t-192 -20q-198 0 -287.5 75.5t-69.5 223.5q17 121 88.5 192.5t192 99t290 30.5 t382.5 -13l14 103q24 219 -53 307t-299 88q-94 0 -191.5 -23.5t-167.5 -62.5l8 48q68 36 163.5 57.5t193.5 21.5zM1049 250l43 306q-214 15 -376.5 13.5t-274.5 -26t-175.5 -86.5t-79.5 -167q-18 -135 64.5 -197t269.5 -62q92 0 179.5 21t154.5 55t115 70t80 73z" glyph-name="amacron" horiz-adv-x="1358" unicode="ā"/><glyph d="M814 1587q-88 0 -142.5 63.5t-41.5 151.5h41q-10 -73 34 -123.5t115.5 -50.5t130 51.5t68.5 122.5h41q-12 -88 -84.5 -151.5t-161.5 -63.5zM1157 0l-99 372h-828l-203 -372h-44l784 1434h51l383 -1434h-44zM253 413h794l-261 969z" glyph-name="Abreve" horiz-adv-x="1341" unicode="Ă"/><glyph d="M1031 1495q-12 -88 -84.5 -151.5t-161.5 -63.5q-88 0 -142 63.5t-42 151.5h41q-10 -73 34 -123.5t115.5 -50.5t130 51t68.5 123h41zM766 1137q63 0 114 -6.5t96.5 -20.5t77 -37t57.5 -58t36.5 -81t13.5 -106.5t-9 -136.5l-97 -691h-41l26 188q-29 -32 -74.5 -63.5 t-112.5 -63t-159 -51.5t-192 -20q-198 0 -287.5 75.5t-69.5 223.5q17 121 88.5 192.5t192 99t290 30.5t382.5 -13l14 103q24 219 -53 307t-299 88q-94 0 -191.5 -23.5t-167.5 -62.5l8 48q68 36 163.5 57.5t193.5 21.5zM1049 250l43 306q-214 15 -376.5 13.5t-274.5 -26 t-175.5 -86.5t-79.5 -167q-18 -135 64.5 -197t269.5 -62q92 0 179.5 21t154.5 55t115 70t80 73z" glyph-name="abreve" horiz-adv-x="1358" unicode="ă"/><glyph d="M1050 -135q0 -40 52 -58t124 -2v-34q-97 -27 -159 0.5t-59 85.5q6 113 150 143h-1l-99 372h-828l-203 -372h-44l784 1434h51l383 -1434h-2q-88 -26 -118.5 -60.5t-30.5 -74.5zM253 413h794l-261 969z" glyph-name="Aogonek" horiz-adv-x="1341" unicode="Ą"/><glyph d="M1053 0q-88 -26 -119 -60.5t-31 -74.5t52.5 -58t123.5 -2v-34q-97 -27 -159 0.5t-59 85.5q6 113 151 143h2l26 188q-29 -32 -74.5 -63.5t-112.5 -63t-159 -51.5t-192 -20q-198 0 -287.5 75.5t-69.5 223.5q17 121 88.5 192.5t192 99t290 30.5t382.5 -13l14 103 q24 219 -53 307t-299 88q-94 0 -191.5 -23.5t-167.5 -62.5l8 48q68 36 163.5 57.5t193.5 21.5q63 0 114 -6.5t96.5 -20.5t77 -37t57.5 -58t36.5 -81t13.5 -106.5t-9 -136.5l-97 -691h-2zM520 31q92 0 179.5 21t154.5 55t115 70t80 73l43 306q-214 15 -376.5 13.5t-274.5 -26 t-175.5 -86.5t-79.5 -167q-18 -135 64.5 -197t269.5 -62z" glyph-name="aogonek" horiz-adv-x="1358" unicode="ą"/><glyph d="M1323 1894l-310 -307h-51l307 307h54zM1304 1295q-144 108 -342 108q-79 0 -158.5 -19t-156.5 -56t-145.5 -94.5t-124 -132t-95 -173.5t-56.5 -211q-24 -167 13 -301.5t117.5 -216.5t186.5 -125t226 -43q198 0 373 107l-7 -50q-177 -98 -372 -98q-102 0 -195.5 28 t-172.5 87.5t-132.5 143.5t-75 204.5t-2 263t75 263.5t133 205t174 143.5t197 87.5t203.5 28q194 0 343 -98z" glyph-name="Cacute" horiz-adv-x="1426" unicode="Ć"/><glyph d="M1165 1587l-310 -307h-51l307 307h54zM1117 1010q-128 86 -314 86q-94 0 -186.5 -33t-174.5 -96.5t-140 -168t-76.5 -235.5t10.5 -235.5t93 -168t147 -96t177 -32.5q187 0 339 86l-7 -48q-146 -79 -338 -79q-101 0 -190.5 35t-159 103.5t-101 181t-12 254t83.5 254 t152.5 180.5t188 103.5t200.5 35.5q189 0 315 -79z" glyph-name="cacute" horiz-adv-x="1239" unicode="ć"/><glyph d="M956 1673h86l-12 -86h-86zM1304 1295q-144 108 -342 108q-79 0 -158.5 -19t-156.5 -56t-145.5 -94.5t-124 -132t-95 -173.5t-56.5 -211q-24 -167 13 -301.5t117.5 -216.5t186.5 -125t226 -43q198 0 373 107l-7 -50q-177 -98 -372 -98q-102 0 -195.5 28t-172.5 87.5 t-132.5 143.5t-75 204.5t-2 263t75 263.5t133 205t174 143.5t197 87.5t203.5 28q194 0 343 -98z" glyph-name="Cdotaccent" horiz-adv-x="1426" unicode="Ċ"/><glyph d="M799 1366h86l-13 -86h-86zM1117 1010q-128 86 -314 86q-94 0 -186.5 -33t-174.5 -96.5t-140 -168t-76.5 -235.5t10.5 -235.5t93 -168t147 -96t177 -32.5q187 0 339 86l-7 -48q-146 -79 -338 -79q-101 0 -190.5 35t-159 103.5t-101 181t-12 254t83.5 254t152.5 180.5 t188 103.5t200.5 35.5q189 0 315 -79z" glyph-name="cdotaccent" horiz-adv-x="1239" unicode="ċ"/><glyph d="M1224 1894h51l-256 -307h-65l-168 307h52l154 -275zM1304 1295q-144 108 -342 108q-79 0 -158.5 -19t-156.5 -56t-145.5 -94.5t-124 -132t-95 -173.5t-56.5 -211q-24 -167 13 -301.5t117.5 -216.5t186.5 -125t226 -43q198 0 373 107l-7 -50q-177 -98 -372 -98 q-102 0 -195.5 28t-172.5 87.5t-132.5 143.5t-75 204.5t-2 263t75 263.5t133 205t174 143.5t197 87.5t203.5 28q194 0 343 -98z" glyph-name="Ccaron" horiz-adv-x="1426" unicode="Č"/><glyph d="M1066 1587h51l-256 -307h-64l-168 307h51l155 -275zM1117 1010q-128 86 -314 86q-94 0 -186.5 -33t-174.5 -96.5t-140 -168t-76.5 -235.5t10.5 -235.5t93 -168t147 -96t177 -32.5q187 0 339 86l-7 -48q-146 -79 -338 -79q-101 0 -190.5 35t-159 103.5t-101 181t-12 254 t83.5 254t152.5 180.5t188 103.5t200.5 35.5q189 0 315 -79z" glyph-name="ccaron" horiz-adv-x="1239" unicode="č"/><glyph d="M1140 1894h51l-256 -307h-65l-168 307h52l154 -275zM1377 717q-25 -179 -97.5 -318.5t-178 -225.5t-233.5 -129.5t-271 -43.5h-451l201 1434h451q115 0 211.5 -27.5t175 -83.5t127.5 -141.5t68 -201.5t-3 -263zM602 41q108 0 205.5 25.5t186 79.5t157.5 132t117.5 190.5 t67.5 248.5q24 169 -7.5 300.5t-108 212.5t-184.5 122t-243 41h-410l-190 -1352h409z" glyph-name="Dcaron" horiz-adv-x="1519" unicode="Ď"/><glyph d="M184 563q20 141 81 254t145.5 181t181 103.5t198.5 35.5q158 0 278.5 -84.5t157.5 -244.5l102 728h41l-216 -1536h-40l43 315q-81 -161 -225.5 -243t-302.5 -82q-100 0 -187 33.5t-153.5 100.5t-95 180.5t-8.5 258.5zM1692 1434h51l-130 -410h-31zM634 31 q94 0 181.5 29.5t166 90t133.5 164t75 238.5l2 20q16 128 -11 230t-87 164.5t-139 95.5t-172 33q-94 0 -183.5 -33t-167.5 -96.5t-133 -168t-74 -235.5q-16 -113 -0.5 -200t52 -149.5t93.5 -103t123 -60t141 -19.5z" glyph-name="dcaron" horiz-adv-x="1846" unicode="ď"/><glyph d="M798 1434q115 0 211.5 -27.5t175 -83.5t127.5 -141.5t68 -201.5t-3 -263q-25 -179 -97.5 -318.5t-178 -225.5t-233.5 -129.5t-271 -43.5h-451l98 696h-164l6 41h164l97 697h451zM1336 717q24 169 -7.5 300.5t-108 212.5t-184.5 122t-243 41h-410l-92 -656h421l-6 -41 h-421l-92 -655h409q108 0 205.5 25.5t186 79.5t157.5 132t117.5 190.5t67.5 248.5z" glyph-name="Dcroat" horiz-adv-x="1519" unicode="Đ"/><glyph d="M1486 1350l-6 -41h-143l-184 -1309h-40l43 315q-81 -161 -225.5 -243t-302.5 -82q-100 0 -187 33.5t-153.5 100.5t-95 180.5t-8.5 258.5q20 141 81 254t145.5 181t181 103.5t198.5 35.5q158 0 278.5 -84.5t157.5 -244.5l70 501h-453l6 41h453l26 186h41l-27 -186h144z M1192 573q16 128 -11 230t-87 164.5t-139 95.5t-172 33q-94 0 -183.5 -33t-167.5 -96.5t-133 -168t-74 -235.5q-16 -113 -0.5 -200t52 -149.5t93.5 -103t123 -60t141 -19.5q94 0 181.5 29.5t166 90t133.5 164t75 238.5z" glyph-name="dcroat" unicode="đ"/><glyph d="M620 1628h461l-6 -41h-462zM193 41h911l-5 -41h-953l201 1434h952l-5 -41h-911l-92 -656h829l-6 -41h-829z" glyph-name="Emacron" horiz-adv-x="1402" unicode="Ē"/><glyph d="M1036 1321l-6 -41h-462l6 41h462zM1211 563h-986q-15 -109 6 -199.5t66.5 -150.5t110.5 -102t134.5 -61t141.5 -19q187 0 339 86l-7 -48q-146 -79 -338 -79q-77 0 -152 20.5t-145 66t-119 110.5t-71.5 162t-6.5 214q19 141 80 254t145 181t178 103.5t191 35.5 q78 0 150 -22t135.5 -67.5t104.5 -113.5t55.5 -160.5t-12.5 -210.5zM772 1096q-69 0 -136.5 -18.5t-132 -58.5t-117.5 -97t-94 -139t-60 -179h945q23 120 -5 217.5t-90.5 155t-142.5 88.5t-167 31z" glyph-name="emacron" horiz-adv-x="1397" unicode="ē"/><glyph d="M814 1673h86l-12 -86h-86zM193 41h911l-5 -41h-953l201 1434h952l-5 -41h-911l-92 -656h829l-6 -41h-829z" glyph-name="Edotaccent" horiz-adv-x="1402" unicode="Ė"/><glyph d="M855 1366l-12 -86h-86l12 86h86zM1211 563h-986q-15 -109 6 -199.5t66.5 -150.5t110.5 -102t134.5 -61t141.5 -19q187 0 339 86l-7 -48q-146 -79 -338 -79q-77 0 -152 20.5t-145 66t-119 110.5t-71.5 162t-6.5 214q19 141 80 254t145 181t178 103.5t191 35.5 q78 0 150 -22t135.5 -67.5t104.5 -113.5t55.5 -160.5t-12.5 -210.5zM772 1096q-69 0 -136.5 -18.5t-132 -58.5t-117.5 -97t-94 -139t-60 -179h945q23 120 -5 217.5t-90.5 155t-142.5 88.5t-167 31z" glyph-name="edotaccent" horiz-adv-x="1397" unicode="ė"/><glyph d="M1294 1393h-911l-92 -656h829l-6 -41h-829l-92 -655h911l-5 -41h-456q-88 -26 -118.5 -60.5t-30.5 -74.5t52 -58t124 -2v-34q-97 -27 -159 0.5t-59 85.5q6 113 150 143h-456l201 1434h952z" glyph-name="Eogonek" horiz-adv-x="1402" unicode="Ę"/><glyph d="M1211 563h-986q-15 -109 6 -199.5t66.5 -150.5t110.5 -102t134.5 -61t141.5 -19q187 0 339 86l-7 -48q-146 -79 -338 -79h-9q-118 -43 -118 -125q0 -40 52 -58t124 -2v-34q-97 -27 -159 0.5t-59 85.5q6 100 120 135q-74 7 -142.5 31t-131 71t-105.5 111t-62 157t-4 201 q19 141 80 254t145 181t178 103.5t191 35.5q78 0 150 -22t135.5 -67.5t104.5 -113.5t55.5 -160.5t-12.5 -210.5zM772 1096q-69 0 -136.5 -18.5t-132 -58.5t-117.5 -97t-94 -139t-60 -179h945q23 120 -5 217.5t-90.5 155t-142.5 88.5t-167 31z" glyph-name="eogonek" horiz-adv-x="1397" unicode="ę"/><glyph d="M1081 1894h52l-256 -307h-65l-168 307h51l155 -275zM193 41h911l-5 -41h-953l201 1434h952l-5 -41h-911l-92 -656h829l-6 -41h-829z" glyph-name="Ecaron" horiz-adv-x="1402" unicode="Ě"/><glyph d="M831 1280h-64l-168 307h51l155 -275l231 275h51zM1211 563h-986q-15 -109 6 -199.5t66.5 -150.5t110.5 -102t134.5 -61t141.5 -19q187 0 339 86l-7 -48q-146 -79 -338 -79q-77 0 -152 20.5t-145 66t-119 110.5t-71.5 162t-6.5 214q19 141 80 254t145 181t178 103.5 t191 35.5q78 0 150 -22t135.5 -67.5t104.5 -113.5t55.5 -160.5t-12.5 -210.5zM772 1096q-69 0 -136.5 -18.5t-132 -58.5t-117.5 -97t-94 -139t-60 -179h945q23 120 -5 217.5t-90.5 155t-142.5 88.5t-167 31z" glyph-name="ecaron" horiz-adv-x="1397" unicode="ě"/><glyph d="M1231 1802q-12 -88 -84.5 -151.5t-161.5 -63.5q-88 0 -142.5 63.5t-41.5 151.5h41q-10 -73 34 -123.5t115.5 -50.5t130 51.5t68.5 122.5h41zM860 743h440l-85 -604q-96 -71 -215 -110t-237 -39q-102 0 -195.5 28t-172.5 87.5t-132.5 143.5t-75 204.5t-2 263t75 263.5 t133 205t174 143.5t197 87.5t203.5 28q194 0 343 -98l-7 -51q-144 108 -342 108q-79 0 -158.5 -19t-156.5 -56t-145.5 -94.5t-124 -132t-95 -173.5t-56.5 -211q-24 -167 13 -301.5t117.5 -216.5t186.5 -125t226 -43q103 0 223 39t186 92l75 540h-399z" glyph-name="Gbreve" horiz-adv-x="1500" unicode="Ğ"/><glyph d="M1075 1495q-12 -88 -84 -151.5t-162 -63.5q-88 0 -142 63.5t-42 151.5h41q-10 -73 34 -123.5t115.5 -50.5t130 51t68.5 123h41zM1271 1126h40l-144 -1024q-16 -114 -58.5 -204.5t-100 -149t-131.5 -97t-149.5 -55t-157.5 -16.5q-191 0 -315 79l7 48q125 -86 315 -86 q77 0 146.5 15t137.5 50t120.5 89t91 138t53.5 189l30 216q-81 -160 -226 -244t-302 -84q-101 0 -188.5 35t-152.5 103.5t-94 181t-9 253.5q16 117 59.5 214t103.5 163t134 111t151.5 65.5t157.5 20.5q159 0 279.5 -82.5t156.5 -243.5zM225 563q-18 -131 8 -235.5t86 -168 t140.5 -96t174.5 -32.5q92 0 180.5 32.5t166 95t133 164.5t76.5 230l2 20q19 135 -7.5 238.5t-87.5 164t-140 90.5t-174 30q-75 0 -146.5 -19t-139.5 -61t-123 -103t-94.5 -151t-54.5 -199z" glyph-name="gbreve" unicode="ğ"/><glyph d="M954 1673h86l-12 -86h-86zM860 743h440l-85 -604q-96 -71 -215 -110t-237 -39q-102 0 -195.5 28t-172.5 87.5t-132.5 143.5t-75 204.5t-2 263t75 263.5t133 205t174 143.5t197 87.5t203.5 28q194 0 343 -98l-7 -51q-144 108 -342 108q-79 0 -158.5 -19t-156.5 -56 t-145.5 -94.5t-124 -132t-95 -173.5t-56.5 -211q-24 -167 13 -301.5t117.5 -216.5t186.5 -125t226 -43q103 0 223 39t186 92l75 540h-399z" glyph-name="Gdotaccent" horiz-adv-x="1500" unicode="Ġ"/><glyph d="M799 1366h86l-13 -86h-86zM1271 1126h40l-144 -1024q-16 -114 -58.5 -204.5t-100 -149t-131.5 -97t-149.5 -55t-157.5 -16.5q-191 0 -315 79l7 48q125 -86 315 -86q77 0 146.5 15t137.5 50t120.5 89t91 138t53.5 189l30 216q-81 -160 -226 -244t-302 -84 q-101 0 -188.5 35t-152.5 103.5t-94 181t-9 253.5q16 117 59.5 214t103.5 163t134 111t151.5 65.5t157.5 20.5q159 0 279.5 -82.5t156.5 -243.5zM225 563q-18 -131 8 -235.5t86 -168t140.5 -96t174.5 -32.5q92 0 180.5 32.5t166 95t133 164.5t76.5 230l2 20 q19 135 -7.5 238.5t-87.5 164t-140 90.5t-174 30q-75 0 -146.5 -19t-139.5 -61t-123 -103t-94.5 -151t-54.5 -199z" glyph-name="gdotaccent" unicode="ġ"/><glyph d="M860 743h440l-85 -604q-96 -71 -215 -110t-237 -39q-102 0 -195.5 28t-172.5 87.5t-132.5 143.5t-75 204.5t-2 263t75 263.5t133 205t174 143.5t197 87.5t203.5 28q194 0 343 -98l-7 -51q-144 108 -342 108q-79 0 -158.5 -19t-156.5 -56t-145.5 -94.5t-124 -132 t-95 -173.5t-56.5 -211q-24 -167 13 -301.5t117.5 -216.5t186.5 -125t226 -43q103 0 223 39t186 92l75 540h-399zM791 -102h51l-130 -410h-31z" glyph-name="Gcommaaccent" horiz-adv-x="1500" unicode="Ģ"/><glyph d="M855 1280h-51l130 410h31zM1271 1126h40l-144 -1024q-16 -114 -58.5 -204.5t-100 -149t-131.5 -97t-149.5 -55t-157.5 -16.5q-191 0 -315 79l7 48q125 -86 315 -86q77 0 146.5 15t137.5 50t120.5 89t91 138t53.5 189l30 216q-81 -160 -226 -244t-302 -84 q-101 0 -188.5 35t-152.5 103.5t-94 181t-9 253.5q16 117 59.5 214t103.5 163t134 111t151.5 65.5t157.5 20.5q159 0 279.5 -82.5t156.5 -243.5zM225 563q-18 -131 8 -235.5t86 -168t140.5 -96t174.5 -32.5q92 0 180.5 32.5t166 95t133 164.5t76.5 230l2 20 q19 135 -7.5 238.5t-87.5 164t-140 90.5t-174 30q-75 0 -146.5 -19t-139.5 -61t-123 -103t-94.5 -151t-54.5 -199z" glyph-name="gcommaaccent" unicode="ģ"/><glyph d="M1506 1152l-6 -41h-194l-156 -1111h-41l97 696h-921l-98 -696h-41l156 1111h-194l6 41h194l39 282h41l-39 -282h922l39 282h41l-39 -282h194zM1212 737l53 374h-922l-52 -374h921z" glyph-name="Hbar" horiz-adv-x="1454" unicode="Ħ"/><glyph d="M860 1137q72 0 132 -15.5t111 -49.5t81.5 -88.5t44 -134t-2.5 -183.5l-93 -666h-41l93 666q16 117 -2.5 202t-66.5 134t-113 71.5t-149 22.5q-75 0 -148 -17.5t-145.5 -57t-130 -97t-100.5 -142.5t-60 -188l-84 -594h-40l185 1309h-145l7 41h143l26 186h41l-26 -186h452 l-6 -41h-451l-71 -501q52 106 147.5 183t200.5 111.5t211 34.5z" glyph-name="hbar" horiz-adv-x="1436" unicode="ħ"/><glyph d="M122 1588q7 68 52 115.5t113 47.5q38 0 73 -20.5t58.5 -45t55 -45t60.5 -20.5q36 0 67.5 37.5t38.5 84.5h41q-10 -68 -58 -115t-110 -47q-28 0 -61 20.5t-58 45t-56.5 44.5t-56.5 20q-45 -1 -78.5 -37t-40.5 -86zM187 0h-41l201 1434h41z" glyph-name="Itilde" horiz-adv-x="491" unicode="Ĩ"/><glyph d="M79 1281q7 68 52 115.5t113 47.5q38 0 73 -20.5t58.5 -45t55 -45t59.5 -20.5q36 0 68 37.5t39 84.5h41q-10 -68 -58 -115t-110 -47q-28 0 -61 20.5t-58 45t-56.5 44.5t-56.5 20q-45 -1 -78.5 -37t-40.5 -86zM304 1126h41l-158 -1126h-41z" glyph-name="itilde" horiz-adv-x="491" unicode="ĩ"/><glyph d="M164 1628h462l-6 -41h-462zM187 0h-41l201 1434h41z" glyph-name="Imacron" horiz-adv-x="491" unicode="Ī"/><glyph d="M121 1321h462l-6 -41h-462zM304 1126h41l-158 -1126h-41z" glyph-name="imacron" horiz-adv-x="491" unicode="ī"/><glyph d="M38 -135q0 -40 52 -58t124 -2v-34q-97 -27 -159 0.5t-59 85.5q6 113 150 143l201 1434h41l-201 -1434q-88 -26 -118.5 -60.5t-30.5 -74.5z" glyph-name="Iogonek" horiz-adv-x="491" unicode="Į"/><glyph d="M325 1434h86l-10 -66h-86zM187 0q-88 -26 -118.5 -60.5t-30.5 -74.5t52 -58t124 -2v-34q-97 -27 -159 0.5t-59 85.5q6 113 150 143l158 1126h41z" glyph-name="iogonek" horiz-adv-x="491" unicode="į"/><glyph d="M358 1673h86l-12 -86h-86zM187 0h-41l201 1434h41z" glyph-name="Idotaccent" horiz-adv-x="491" unicode="İ"/><glyph d="M304 1126h41l-158 -1126h-41z" glyph-name="dotlessi" horiz-adv-x="491" unicode="ı"/><glyph d="M187 0h-41l201 1434h41zM586 68q85 -37 222 -37q276 0 329 376l144 1027h41l-144 -1027q-57 -417 -376 -417q-133 0 -222 34z" glyph-name="IJ" horiz-adv-x="1425" unicode="Ĳ"/><glyph d="M187 0h-41l201 1434h41zM1269 1434l-919 -717l718 -717h-61l-719 717l919 717h62zM594 -102h51l-130 -410h-31z" glyph-name="Kcommaaccent" horiz-adv-x="1249" unicode="Ķ"/><glyph d="M1123 1126l-623 -501l466 -625h-55l-445 597l-219 -177l-60 -420h-41l216 1536h41l-149 -1060l808 650h61zM423 -512l109 410h52l-130 -410h-31z" glyph-name="kcommaaccent" horiz-adv-x="1167" unicode="ķ"/><glyph d="M1123 1126l-623 -501l466 -625h-55l-445 597l-220 -177l-59 -420h-41l158 1126h41l-91 -650l808 650h61z" glyph-name="kgreenlandic" horiz-adv-x="1167" unicode="ĸ"/><glyph d="M1160 1894l-310 -307h-51l307 307h54zM388 1434l-195 -1393h870l-5 -41h-912l201 1434h41z" glyph-name="Lacute" horiz-adv-x="1320" unicode="Ĺ"/><glyph d="M740 1997l-310 -307h-51l307 307h54zM362 1536h41l-216 -1536h-41z" glyph-name="lacute" horiz-adv-x="491" unicode="ĺ"/><glyph d="M388 1434l-195 -1393h870l-5 -41h-912l201 1434h41zM630 -102h51l-130 -410h-31z" glyph-name="Lcommaaccent" horiz-adv-x="1320" unicode="Ļ"/><glyph d="M362 1536h41l-216 -1536h-41zM195 -102h51l-130 -410h-31z" glyph-name="lcommaaccent" horiz-adv-x="491" unicode="ļ"/><glyph d="M388 1434l-195 -1393h870l-5 -41h-912l201 1434h41zM1019 1434h51l-130 -410h-31z" glyph-name="Lcaron" horiz-adv-x="1361" unicode="Ľ"/><glyph d="M362 1536h41l-216 -1536h-41zM736 1434h51l-130 -410h-30z" glyph-name="lcaron" horiz-adv-x="890" unicode="ľ"/><glyph d="M388 1434l-195 -1393h870l-5 -41h-912l201 1434h41zM1160 760h86l-12 -86h-86z" glyph-name="Ldot" horiz-adv-x="1443" unicode="Ŀ"/><glyph d="M362 1536h41l-216 -1536h-41zM403 811h86l-12 -86h-86z" glyph-name="ldot" horiz-adv-x="679" unicode="ŀ"/><glyph d="M193 41h870l-5 -41h-912l98 692l-136 -19l6 41l135 19l98 701h41l-97 -696l554 78l-6 -41l-554 -78z" glyph-name="Lslash" horiz-adv-x="1320" unicode="Ł"/><glyph d="M500 841l-6 -42l-201 -46l-106 -753h-41l105 742l-202 -46l6 42l202 46l105 752h41l-104 -741z" glyph-name="lslash" horiz-adv-x="491" unicode="ł"/><glyph d="M1247 1894l-310 -307h-51l307 307h54zM1392 1434h41l-201 -1434h-56l-795 1382l-194 -1382h-41l201 1434h56l795 -1383z" glyph-name="Nacute" horiz-adv-x="1536" unicode="Ń"/><glyph d="M1155 1587l-310 -307h-51l307 307h54zM186 0h-40l158 1126h41l-44 -318q52 106 147.5 183t200.5 111.5t211 34.5q72 0 132 -15.5t111 -49.5t81.5 -88.5t44 -134t-2.5 -183.5l-93 -666h-41l93 666q16 117 -2.5 202t-66.5 134t-113 71.5t-149 22.5q-75 0 -148 -17.5 t-145.5 -57t-130 -97t-100.5 -142.5t-60 -188z" glyph-name="nacute" horiz-adv-x="1436" unicode="ń"/><glyph d="M1392 1434h41l-201 -1434h-56l-795 1382l-194 -1382h-41l201 1434h56l795 -1383zM717 -102h51l-130 -410h-31z" glyph-name="Ncommaaccent" horiz-adv-x="1536" unicode="Ņ"/><glyph d="M186 0h-40l158 1126h41l-44 -318q52 106 147.5 183t200.5 111.5t211 34.5q72 0 132 -15.5t111 -49.5t81.5 -88.5t44 -134t-2.5 -183.5l-93 -666h-41l93 666q16 117 -2.5 202t-66.5 134t-113 71.5t-149 22.5q-75 0 -148 -17.5t-145.5 -57t-130 -97t-100.5 -142.5t-60 -188 zM668 -102h51l-130 -410h-31z" glyph-name="ncommaaccent" horiz-adv-x="1436" unicode="ņ"/><glyph d="M1148 1894h51l-256 -307h-64l-168 307h51l154 -275zM1392 1434h41l-201 -1434h-56l-795 1382l-194 -1382h-41l201 1434h56l795 -1383z" glyph-name="Ncaron" horiz-adv-x="1536" unicode="Ň"/><glyph d="M1056 1587h51l-256 -307h-65l-168 307h52l154 -275zM186 0h-40l158 1126h41l-44 -318q52 106 147.5 183t200.5 111.5t211 34.5q72 0 132 -15.5t111 -49.5t81.5 -88.5t44 -134t-2.5 -183.5l-93 -666h-41l93 666q16 117 -2.5 202t-66.5 134t-113 71.5t-149 22.5 q-75 0 -148 -17.5t-145.5 -57t-130 -97t-100.5 -142.5t-60 -188z" glyph-name="ncaron" horiz-adv-x="1436" unicode="ň"/><glyph d="M414 1536h51l-130 -410h-31zM381 0h-40l158 1126h41l-44 -318q52 106 147 183t200 111.5t212 34.5q72 0 131.5 -15.5t111 -49.5t82 -88.5t44 -134t-3.5 -183.5l-93 -666h-41l93 666q16 117 -2 202t-66 134t-113 71.5t-149 22.5q-75 0 -148.5 -17.5t-145.5 -57t-130 -97 t-101 -142.5t-59 -188z" glyph-name="napostrophe" horiz-adv-x="1631" unicode="ŉ"/><glyph d="M1433 1434l-201 -1434h-1v-2q-16 -117 -64 -168t-145 -51q-42 0 -86 9l12 37q32 -5 80 -5q83 0 116.5 42.5t46.5 137.5h-15l-795 1382l-194 -1382h-41l201 1434h56l795 -1383l73 522l121 861h41z" glyph-name="Eng" horiz-adv-x="1536" unicode="Ŋ"/><glyph d="M860 1137q72 0 132 -15.5t111 -49.5t81.5 -88.5t44 -134t-2.5 -183.5l-93 -666h-1v-2q-16 -117 -64 -168t-145 -51q-42 0 -86 9l12 37q32 -5 80 -5q83 0 116 42.5t47 137.5l79 573l14 93q16 117 -2.5 202t-66.5 134t-113 71.5t-149 22.5q-75 0 -148 -17.5t-145.5 -57 t-130 -97t-100.5 -142.5t-60 -188l-84 -594h-40l158 1126h41l-44 -318q52 106 147.5 183t200.5 111.5t211 34.5z" glyph-name="eng" horiz-adv-x="1436" unicode="ŋ"/><glyph d="M762 1628h462l-6 -41h-462zM1545.5 716.5q-19.5 -142.5 -75.5 -263t-133 -204.5t-173.5 -143.5t-197.5 -87.5t-203.5 -28t-195.5 28t-172 87.5t-132.5 143.5t-75 204.5t-2 263t75 263.5t133 205t174 143.5t197 87.5t203 28t195.5 -28t172 -87.5t133 -143.5t75.5 -205 t2 -263.5zM769 31q79 0 158.5 19t156 55.5t145 94.5t124.5 132.5t95.5 173t55.5 211.5q24 167 -13 301.5t-117.5 216.5t-186.5 125t-225 43q-79 0 -158.5 -19t-156.5 -56t-145.5 -94.5t-124 -132t-95 -173.5t-56.5 -211q-24 -167 13 -301.5t117.5 -216.5t186.5 -125t226 -43 z" glyph-name="Omacron" horiz-adv-x="1687" unicode="Ō"/><glyph d="M604 1321h462l-6 -41h-462zM1273 563q-16 -117 -61.5 -214t-108.5 -162.5t-140 -110.5t-156.5 -65.5t-159.5 -20.5t-153 20.5t-137.5 65.5t-108 110.5t-62 162.5t-2.5 214q19 141 83.5 254t153 181t188 103.5t200.5 35.5t191.5 -35.5t159.5 -103.5t100.5 -181t12.5 -254z M653 31q75 0 148 19t145 61t130 102.5t100 151t56 198.5q18 131 -11 235.5t-93 168t-147.5 96.5t-177.5 33t-186.5 -33t-174.5 -96.5t-140 -168t-77 -235.5q-15 -109 2 -199t57.5 -150.5t99.5 -102.5t127 -61t142 -19z" glyph-name="omacron" unicode="ō"/><glyph d="M1054 1894l-208 -307h-45l205 307h48zM1218 1894l-208 -307h-45l204 307h49zM1545.5 716.5q-19.5 -142.5 -75.5 -263t-133 -204.5t-173.5 -143.5t-197.5 -87.5t-203.5 -28t-195.5 28t-172 87.5t-132.5 143.5t-75 204.5t-2 263t75 263.5t133 205t174 143.5t197 87.5 t203 28t195.5 -28t172 -87.5t133 -143.5t75.5 -205t2 -263.5zM769 31q79 0 158.5 19t156 55.5t145 94.5t124.5 132.5t95.5 173t55.5 211.5q24 167 -13 301.5t-117.5 216.5t-186.5 125t-225 43q-79 0 -158.5 -19t-156.5 -56t-145.5 -94.5t-124 -132t-95 -173.5t-56.5 -211 q-24 -167 13 -301.5t117.5 -216.5t186.5 -125t226 -43z" glyph-name="Ohungarumlaut" horiz-adv-x="1687" unicode="Ő"/><glyph d="M896 1587l-208 -307h-45l205 307h48zM1060 1587l-208 -307h-45l205 307h48zM1273 563q-16 -117 -61.5 -214t-108.5 -162.5t-140 -110.5t-156.5 -65.5t-159.5 -20.5t-153 20.5t-137.5 65.5t-108 110.5t-62 162.5t-2.5 214q19 141 83.5 254t153 181t188 103.5t200.5 35.5 t191.5 -35.5t159.5 -103.5t100.5 -181t12.5 -254zM653 31q75 0 148 19t145 61t130 102.5t100 151t56 198.5q18 131 -11 235.5t-93 168t-147.5 96.5t-177.5 33t-186.5 -33t-174.5 -96.5t-140 -168t-77 -235.5q-15 -109 2 -199t57.5 -150.5t99.5 -102.5t127 -61t142 -19z" glyph-name="ohungarumlaut" unicode="ő"/><glyph d="M2553 1393h-912l-92 -656h830l-6 -41h-830l-92 -655h911l-5 -41h-952l62 450q-69 -150 -186.5 -256t-249 -155t-268.5 -49q-102 0 -195.5 28t-172.5 87.5t-132.5 143.5t-75 204.5t-2 263t75 263.5t133 205t174 143.5t197 87.5t203.5 28q101 0 194 -29t171 -84.5t134 -144 t76 -201.5l63 449h952zM769 31q79 0 158.5 19t156 55.5t145 94.5t124.5 132.5t95.5 173t55.5 211.5q24 167 -13 301.5t-117.5 216.5t-186.5 125t-225 43q-79 0 -158.5 -19t-156.5 -56t-145.5 -94.5t-124 -132t-95 -173.5t-56.5 -211q-24 -167 13 -301.5t117.5 -216.5 t186.5 -125t226 -43z" glyph-name="OE" horiz-adv-x="2661" unicode="Œ"/><glyph d="M2260 563h-986q-15 -109 5.5 -199.5t66.5 -150.5t111 -102t134.5 -61t141.5 -19q187 0 339 86l-8 -48q-146 -79 -338 -79q-65 0 -128.5 14.5t-125.5 46.5t-111 78.5t-84.5 114.5t-45.5 150q-39 -102 -105 -181.5t-145.5 -127t-164 -71.5t-169.5 -24q-80 0 -153 20.5 t-137.5 65.5t-108 110.5t-62 162.5t-2.5 214q19 141 83.5 254t153 181t188 103.5t200.5 35.5q114 0 212 -42t169.5 -135t86.5 -224q50 131 141.5 224t195 135t213.5 42q78 0 150 -22t135.5 -67.5t104.5 -113.5t55.5 -160.5t-12.5 -210.5zM653 31q75 0 148 19t145 61 t130 102.5t100 151t56 198.5q18 131 -11 235.5t-93 168t-147.5 96.5t-177.5 33t-186.5 -33t-174.5 -96.5t-140 -168t-77 -235.5q-15 -109 2 -199t57.5 -150.5t99.5 -102.5t127 -61t142 -19zM1821 1096q-69 0 -136.5 -18.5t-132 -58.5t-118 -97t-94.5 -139t-59 -179h944 q23 120 -5 217.5t-90.5 155t-142 88.5t-166.5 31z" glyph-name="oe" horiz-adv-x="2446" unicode="œ"/><glyph d="M1160 1894l-310 -307h-51l307 307h54zM891 1434q197 0 297 -110.5t74 -299.5q-20 -158 -127.5 -257.5t-309.5 -150.5l292 -616h-48l-287 606q-209 -43 -516 -43l-79 -563h-41l201 1434h544zM1221 1024q25 175 -66 272t-269 97h-503l-111 -789q473 0 695.5 99.5 t253.5 320.5z" glyph-name="Racute" horiz-adv-x="1360" unicode="Ŕ"/><glyph d="M888 1587l-310 -307h-52l308 307h54zM186 0h-40l158 1126h41l-44 -318q52 106 147.5 183t200.5 111.5t211 34.5l-6 -41q-75 0 -148 -17.5t-145.5 -57t-130 -97t-100.5 -142.5t-60 -188z" glyph-name="racute" horiz-adv-x="902" unicode="ŕ"/><glyph d="M891 1434q197 0 297 -110.5t74 -299.5q-20 -158 -127.5 -257.5t-309.5 -150.5l292 -616h-48l-287 606q-209 -43 -516 -43l-79 -563h-41l201 1434h544zM1221 1024q25 175 -66 272t-269 97h-503l-111 -789q473 0 695.5 99.5t253.5 320.5zM520 -512l110 410h51l-130 -410 h-31z" glyph-name="Rcommaaccent" horiz-adv-x="1360" unicode="Ŗ"/><glyph d="M186 0h-40l158 1126h41l-44 -318q52 106 147.5 183t200.5 111.5t211 34.5l-6 -41q-75 0 -148 -17.5t-145.5 -57t-130 -97t-100.5 -142.5t-60 -188zM400 -102h52l-130 -410h-31z" glyph-name="rcommaaccent" horiz-adv-x="902" unicode="ŗ"/><glyph d="M856 1587h-64l-168 307h51l154 -275l232 275h51zM891 1434q197 0 297 -110.5t74 -299.5q-20 -158 -127.5 -257.5t-309.5 -150.5l292 -616h-48l-287 606q-209 -43 -516 -43l-79 -563h-41l201 1434h544zM1221 1024q25 175 -66 272t-269 97h-503l-111 -789q473 0 695.5 99.5 t253.5 320.5z" glyph-name="Rcaron" horiz-adv-x="1360" unicode="Ř"/><glyph d="M788 1587h52l-256 -307h-65l-168 307h51l155 -275zM186 0h-40l158 1126h41l-44 -318q52 106 147.5 183t200.5 111.5t211 34.5l-6 -41q-75 0 -148 -17.5t-145.5 -57t-130 -97t-100.5 -142.5t-60 -188z" glyph-name="rcaron" horiz-adv-x="902" unicode="ř"/><glyph d="M1118 1894l-310 -307h-51l307 307h54zM110 168q148 -136 435 -136q118 0 234 40.5t198.5 113t95.5 157.5q10 67 -7.5 118.5t-45.5 83.5t-101.5 64t-124.5 48t-164 48q-5 1 -7 2q-100 28 -171 58t-127 72t-79 99t-12 129q28 172 172.5 275.5t377.5 103.5q195 0 342 -98 l-8 -51q-142 108 -340 108q-215 0 -347 -92t-156 -247q-9 -55 9 -101.5t51 -78t95 -61t118 -48.5t143 -44q99 -28 164 -51.5t124 -56t89.5 -70t43 -90t2.5 -120.5q-15 -99 -105.5 -181.5t-216 -126.5t-253.5 -44q-283 0 -439 124z" glyph-name="Sacute" horiz-adv-x="1308" unicode="Ś"/><glyph d="M1030 1587l-310 -307h-51l307 307h54zM122 117q71 -39 173.5 -62.5t207.5 -23.5q93 0 180 30t146.5 85.5t68.5 121.5q5 36 -1 67t-18.5 53.5t-40 43.5t-52.5 34.5t-70.5 29.5t-81 26t-94.5 27q-164 43 -244.5 116t-64.5 188q18 132 136.5 208t307.5 76t315 -79l-7 -48 q-128 86 -314 86q-169 0 -274.5 -64t-122.5 -180q-15 -103 66.5 -164t261.5 -111q80 -22 131 -40.5t98.5 -44t71.5 -55.5t34.5 -72t3.5 -97q-17 -117 -151.5 -197.5t-290.5 -80.5q-110 0 -212 21t-170 58z" glyph-name="sacute" horiz-adv-x="1164" unicode="ś"/><glyph d="M691 731q99 -28 164 -51.5t124 -56t89.5 -70t43 -90t2.5 -120.5q-15 -95 -99 -175t-202 -125t-242 -51l-51 -48q6 1 34 1q42 0 68 -20.5t20 -65.5q-13 -88 -150 -88q-39 0 -84 7l6 41q33 -5 63 -5q113 0 119 45q4 29 -17.5 37t-71.5 8q-28 0 -39 -1l5 38l56 50 q-276 1 -429 124l10 53q148 -136 435 -136q118 0 234 40.5t198.5 113t95.5 157.5q10 67 -7.5 118.5t-45.5 83.5t-101.5 64t-124.5 48t-164 48q-5 1 -7 2q-100 28 -171 58t-127 72t-79 99t-12 129q28 172 172.5 275.5t377.5 103.5q195 0 342 -98l-8 -51q-142 108 -340 108 q-215 0 -347 -92t-156 -247q-9 -55 9 -101.5t51 -78t95 -61t118 -48.5t143 -44z" glyph-name="Scedilla" horiz-adv-x="1308" unicode="Ş"/><glyph d="M669 1096q-169 0 -274.5 -64t-122.5 -180q-15 -103 66.5 -164t261.5 -111q80 -22 131 -40.5t98.5 -44t71.5 -55.5t34.5 -72t3.5 -97q-17 -115 -146.5 -195t-284.5 -83l-49 -46q6 1 34 1q42 0 68 -20.5t20 -65.5q-13 -88 -151 -88q-39 0 -84 7l6 41q33 -5 64 -5 q113 0 119 45q4 29 -17.5 37t-72.5 8q-28 0 -38 -1l5 38l55 49q-216 6 -352 79l7 48q71 -39 173.5 -62.5t207.5 -23.5q93 0 180 30t146.5 85.5t68.5 121.5q5 36 -1 67t-18.5 53.5t-40 43.5t-52.5 34.5t-70.5 29.5t-81 26t-94.5 27q-164 43 -244.5 116t-64.5 188 q18 132 136.5 208t307.5 76t315 -79l-7 -48q-128 86 -314 86z" glyph-name="scedilla" horiz-adv-x="1164" unicode="ş"/><glyph d="M1019 1894h51l-256 -307h-64l-168 307h51l154 -275zM110 168q148 -136 435 -136q118 0 234 40.5t198.5 113t95.5 157.5q10 67 -7.5 118.5t-45.5 83.5t-101.5 64t-124.5 48t-164 48q-5 1 -7 2q-100 28 -171 58t-127 72t-79 99t-12 129q28 172 172.5 275.5t377.5 103.5 q195 0 342 -98l-8 -51q-142 108 -340 108q-215 0 -347 -92t-156 -247q-9 -55 9 -101.5t51 -78t95 -61t118 -48.5t143 -44q99 -28 164 -51.5t124 -56t89.5 -70t43 -90t2.5 -120.5q-15 -99 -105.5 -181.5t-216 -126.5t-253.5 -44q-283 0 -439 124z" glyph-name="Scaron" horiz-adv-x="1308" unicode="Š"/><glyph d="M931 1587h51l-256 -307h-64l-168 307h51l154 -275zM122 117q71 -39 173.5 -62.5t207.5 -23.5q93 0 180 30t146.5 85.5t68.5 121.5q5 36 -1 67t-18.5 53.5t-40 43.5t-52.5 34.5t-70.5 29.5t-81 26t-94.5 27q-164 43 -244.5 116t-64.5 188q18 132 136.5 208t307.5 76 t315 -79l-7 -48q-128 86 -314 86q-169 0 -274.5 -64t-122.5 -180q-15 -103 66.5 -164t261.5 -111q80 -22 131 -40.5t98.5 -44t71.5 -55.5t34.5 -72t3.5 -97q-17 -117 -151.5 -197.5t-290.5 -80.5q-110 0 -212 21t-170 58z" glyph-name="scaron" horiz-adv-x="1164" unicode="š"/><glyph d="M684 1393l-195 -1393l-60 -56q6 1 34 1q42 0 68 -20.5t20 -65.5q-13 -88 -151 -88q-39 0 -84 7l7 41q33 -5 63 -5q113 0 119 45q4 29 -17.5 37t-71.5 8q-28 0 -39 -1l5 38l67 59l194 1393h-465l5 41h973l-5 -41h-467z" glyph-name="Tcommaaccent" horiz-adv-x="1095" unicode="Ţ"/><glyph d="M481 1085l-122 -864q-11 -82 20 -131t92 -49h212l-5 -41h-195l-60 -56q6 1 34 1q42 0 68 -20.5t20 -65.5q-13 -88 -151 -88q-39 0 -84 7l6 41q33 -5 64 -5q113 0 119 45q4 29 -17.5 37t-71.5 8q-28 0 -39 -1l5 38l66 59h21q-84 0 -121.5 59.5t-23.5 161.5l122 864h-182 l5 41h182l32 226h41l-32 -226h350l-6 -41h-349z" glyph-name="tcommaaccent" horiz-adv-x="982" unicode="ţ"/><glyph d="M723 1587h-65l-168 307h52l154 -275l232 275h51zM1156 1434l-5 -41h-467l-195 -1393h-40l194 1393h-465l5 41h973z" glyph-name="Tcaron" horiz-adv-x="1095" unicode="Ť"/><glyph d="M1067 1434h51l-130 -410h-31zM678 0h-215q-84 0 -121.5 59.5t-23.5 161.5l122 864h-182l5 41h182l32 226h41l-32 -226h350l-6 -41h-349l-122 -864q-11 -82 20 -131t92 -49h212z" glyph-name="tcaron" horiz-adv-x="1221" unicode="ť"/><glyph d="M1151 1393h-467l-88 -630h440l-5 -41h-440l-102 -722h-40l101 722h-440l5 41h440l88 630h-465l5 41h973z" glyph-name="Tbar" horiz-adv-x="1095" unicode="Ŧ"/><glyph d="M830 1085h-349l-28 -203h349l-6 -41h-350l-87 -620q-11 -82 20 -131t92 -49h212l-5 -41h-215q-84 0 -121.5 59.5t-23.5 161.5l88 620h-183l6 41h183l28 203h-182l5 41h182l32 226h41l-32 -226h350z" glyph-name="tbar" horiz-adv-x="982" unicode="ŧ"/><glyph d="M588 1588q7 68 52 115.5t113 47.5q38 0 73 -20.5t58.5 -45t55 -45t59.5 -20.5q36 0 68 37.5t39 84.5h41q-10 -68 -58 -115t-110 -47q-28 0 -61 20.5t-58 45t-56.5 44.5t-57.5 20q-45 -1 -78 -37t-40 -86zM1320 1434l-128 -912q-39 -281 -170 -406.5t-391 -125.5 t-355.5 126t-56.5 406l128 912h41l-128 -912q-37 -263 49 -377t328 -114t359.5 114t154.5 377l128 912h41z" glyph-name="Utilde" horiz-adv-x="1423" unicode="Ũ"/><glyph d="M518 1281q7 68 52 115.5t113 47.5q38 0 73.5 -20.5t59 -45t54.5 -45t60 -20.5q36 0 67.5 37.5t38.5 84.5h41q-10 -68 -57.5 -115t-110.5 -47q-28 0 -61 20.5t-58 45t-56.5 44.5t-56.5 20q-45 -1 -78.5 -37t-40.5 -86zM1250 1126h40l-157 -1126h-41l44 318 q-52 -106 -147.5 -183t-200.5 -111t-211 -34q-72 0 -132 15t-111 49t-82 89t-44 134t3 184l93 665h41l-93 -665q-16 -117 2 -202.5t66.5 -134t113.5 -71t149 -22.5q75 0 148 17.5t145 56.5t130 96.5t101 142.5t59 188z" glyph-name="utilde" horiz-adv-x="1436" unicode="ũ"/><glyph d="M630 1628h462l-7 -41h-461zM1320 1434l-128 -912q-39 -281 -170 -406.5t-391 -125.5t-355.5 126t-56.5 406l128 912h41l-128 -912q-37 -263 49 -377t328 -114t359.5 114t154.5 377l128 912h41z" glyph-name="Umacron" horiz-adv-x="1423" unicode="Ū"/><glyph d="M560 1321h462l-6 -41h-462zM1250 1126h40l-157 -1126h-41l44 318q-52 -106 -147.5 -183t-200.5 -111t-211 -34q-72 0 -132 15t-111 49t-82 89t-44 134t3 184l93 665h41l-93 -665q-16 -117 2 -202.5t66.5 -134t113.5 -71t149 -22.5q75 0 148 17.5t145 56.5t130 96.5 t101 142.5t59 188z" glyph-name="umacron" horiz-adv-x="1436" unicode="ū"/><glyph d="M855 1587q-68 0 -109 48t-31 116q9 68 64 116t122.5 48t109 -48t31.5 -116t-64.5 -116t-122.5 -48zM861 1628q51 0 92 36.5t48 86.5q7 51 -24 87t-81 36q-51 0 -92 -36.5t-48 -86.5q-7 -51 24 -87t81 -36zM1320 1434l-128 -912q-39 -281 -170 -406.5t-391 -125.5 t-355.5 126t-56.5 406l128 912h41l-128 -912q-37 -263 49 -377t328 -114t359.5 114t154.5 377l128 912h41z" glyph-name="Uring" horiz-adv-x="1423" unicode="Ů"/><glyph d="M785.5 1280q-67.5 0 -109 48t-31.5 116q9 68 64 116t122.5 48t109 -48.5t32.5 -115.5q-10 -68 -65 -116t-122.5 -48zM792 1321q51 0 92 36.5t48 86.5q7 51 -24 87t-82 36t-92 -36.5t-48 -86.5q-7 -51 24.5 -87t81.5 -36zM1250 1126h40l-157 -1126h-41l44 318 q-52 -106 -147.5 -183t-200.5 -111t-211 -34q-72 0 -132 15t-111 49t-82 89t-44 134t3 184l93 665h41l-93 -665q-16 -117 2 -202.5t66.5 -134t113.5 -71t149 -22.5q75 0 148 17.5t145 56.5t130 96.5t101 142.5t59 188z" glyph-name="uring" horiz-adv-x="1436" unicode="ů"/><glyph d="M922 1894l-208 -307h-45l204 307h49zM1085 1894l-207 -307h-45l204 307h48zM1320 1434l-128 -912q-39 -281 -170 -406.5t-391 -125.5t-355.5 126t-56.5 406l128 912h41l-128 -912q-37 -263 49 -377t328 -114t359.5 114t154.5 377l128 912h41z" glyph-name="Uhungarumlaut" horiz-adv-x="1423" unicode="Ű"/><glyph d="M852 1587l-208 -307h-45l205 307h48zM1016 1587l-208 -307h-45l205 307h48zM1250 1126h40l-157 -1126h-41l44 318q-52 -106 -147.5 -183t-200.5 -111t-211 -34q-72 0 -132 15t-111 49t-82 89t-44 134t3 184l93 665h41l-93 -665q-16 -117 2 -202.5t66.5 -134t113.5 -71 t149 -22.5q75 0 148 17.5t145 56.5t130 96.5t101 142.5t59 188z" glyph-name="uhungarumlaut" horiz-adv-x="1436" unicode="ű"/><glyph d="M1279 1434h41l-128 -912q-39 -281 -170 -406.5t-391 -125.5h-9q-118 -43 -118 -125q0 -40 52 -58t124 -2v-34q-97 -27 -159 0.5t-59 85.5q6 99 117 134q-229 12 -313 138.5t-47 392.5l128 912h41l-128 -912q-37 -263 49 -377t328 -114t359.5 114t154.5 377z" glyph-name="Uogonek" horiz-adv-x="1423" unicode="Ų"/><glyph d="M984 -135q0 -40 52.5 -58t123.5 -2v-34q-97 -27 -159 0.5t-59 85.5q6 113 151 143h-1l44 318q-52 -106 -147.5 -183t-200.5 -111t-211 -34q-72 0 -132 15t-111 49t-82 89t-44 134t3 184l93 665h41l-93 -665q-16 -117 2 -202.5t66.5 -134t113.5 -71t149 -22.5 q75 0 148 17.5t145 56.5t130 96.5t101 142.5t59 188l84 594h40l-157 -1126h1q-88 -26 -119 -60.5t-31 -74.5z" glyph-name="uogonek" horiz-adv-x="1436" unicode="ų"/><glyph d="M1318 1587h-51l-154 276l-232 -276h-52l256 307h65zM1879 1434h43l-620 -1434h-52l-208 1360l-588 -1360h-52l-219 1434h43l210 -1373l595 1373h43l210 -1373z" glyph-name="Wcircumflex" horiz-adv-x="1861" unicode="Ŵ"/><glyph d="M1176 1280h-52l-153 275l-233 -275h-51l256 307h65zM1573 1126h46l-499 -1126h-50l-170 1052l-466 -1052h-50l-182 1126h46l167 -1078l472 1078h47l167 -1078z" glyph-name="wcircumflex" horiz-adv-x="1662" unicode="ŵ"/><glyph d="M996 1587h-51l-153 276l-233 -276h-51l256 307h64zM1231 1434h48l-641 -811l-87 -623h-41l87 623l-414 811h48l393 -767z" glyph-name="Ycircumflex" horiz-adv-x="1218" unicode="Ŷ"/><glyph d="M935 1280h-51l-154 275l-232 -275h-52l256 307h65zM1094 1126h44l-593 -1059q-35 -62 -64 -108t-79 -107t-100 -102t-121 -74t-150 -43l6 41q71 10 134 40t108.5 66t90 91t71.5 97.5t62 104.5l-301 1053h44l285 -1001z" glyph-name="ycircumflex" horiz-adv-x="1181" unicode="ŷ"/><glyph d="M558 1673h86l-12 -86h-86zM885 1673h86l-13 -86h-86zM1231 1434h48l-641 -811l-87 -623h-41l87 623l-414 811h48l393 -767z" glyph-name="Ydieresis" horiz-adv-x="1218" unicode="Ÿ"/><glyph d="M1196 1894l-310 -307h-51l307 307h54zM1330 1434l-5 -41l-1123 -1352h933l-6 -41h-983l6 41l1123 1352h-933l5 41h983z" glyph-name="Zacute" horiz-adv-x="1433" unicode="Ź"/><glyph d="M1071 1587l-310 -307h-51l307 307h54zM1164 1126l-5 -41l-995 -1044h848l-5 -41h-902l6 41l995 1044h-848l5 41h901z" glyph-name="zacute" horiz-adv-x="1269" unicode="ź"/><glyph d="M915 1673l-12 -86h-86l12 86h86zM1330 1434l-5 -41l-1123 -1352h933l-6 -41h-983l6 41l1123 1352h-933l5 41h983z" glyph-name="Zdotaccent" horiz-adv-x="1433" unicode="Ż"/><glyph d="M791 1366l-13 -86h-86l13 86h86zM1164 1126l-5 -41l-995 -1044h848l-5 -41h-902l6 41l995 1044h-848l5 41h901z" glyph-name="zdotaccent" horiz-adv-x="1269" unicode="ż"/><glyph d="M892 1587h-65l-168 307h52l154 -275l232 275h51zM1330 1434l-5 -41l-1123 -1352h933l-6 -41h-983l6 41l1123 1352h-933l5 41h983z" glyph-name="Zcaron" horiz-adv-x="1433" unicode="Ž"/><glyph d="M767 1280h-65l-167 307h51l154 -275l232 275h51zM1164 1126l-5 -41l-995 -1044h848l-5 -41h-902l6 41l995 1044h-848l5 41h901z" glyph-name="zcaron" horiz-adv-x="1269" unicode="ž"/><glyph d="M1013 1327q41 0 85 -9l-20 -37q-32 5 -80 5q-83 0 -125.5 -43t-74.5 -137l-183 -522h322l-6 -41h-330l-183 -525q-41 -117 -99.5 -168t-155.5 -51q-41 0 -85 10l19 36q32 -5 80 -5q83 0 125.5 43t75.5 137l182 523h-270l6 41h278l184 524q41 117 99.5 168t155.5 51z" glyph-name="florin" horiz-adv-x="1175" unicode="ƒ"/><glyph d="M488 763l-5 -41h-194l-102 -722h-41l102 722h-195l5 41h195l94 671h41l-94 -671h194z" glyph-name="uni0197" horiz-adv-x="491" unicode="Ɨ"/><glyph d="M846 1587h-65l-168 307h52l154 -275l232 275h51zM1157 0l-99 372h-828l-203 -372h-44l784 1434h51l383 -1434h-44zM253 413h794l-261 969z" glyph-name="uni01CD" horiz-adv-x="1341" unicode="Ǎ"/><glyph d="M1022 1587h51l-256 -307h-64l-168 307h51l155 -275zM766 1137q63 0 114 -6.5t96.5 -20.5t77 -37t57.5 -58t36.5 -81t13.5 -106.5t-9 -136.5l-97 -691h-41l26 188q-29 -32 -74.5 -63.5t-112.5 -63t-159 -51.5t-192 -20q-198 0 -287.5 75.5t-69.5 223.5q17 121 88.5 192.5 t192 99t290 30.5t382.5 -13l14 103q24 219 -53 307t-299 88q-94 0 -191.5 -23.5t-167.5 -62.5l8 48q68 36 163.5 57.5t193.5 21.5zM1049 250l43 306q-214 15 -376.5 13.5t-274.5 -26t-175.5 -86.5t-79.5 -167q-18 -135 64.5 -197t269.5 -62q92 0 179.5 21t154.5 55t115 70 t80 73z" glyph-name="uni01CE" horiz-adv-x="1358" unicode="ǎ"/><glyph d="M626 1894h51l-256 -307h-65l-168 307h52l154 -275zM187 0h-41l201 1434h41z" glyph-name="uni01CF" horiz-adv-x="491" unicode="Ǐ"/><glyph d="M583 1587h51l-256 -307h-65l-168 307h52l154 -275zM304 1126h41l-158 -1126h-41z" glyph-name="uni01D0" horiz-adv-x="491" unicode="ǐ"/><glyph d="M1224 1894h51l-256 -307h-65l-168 307h52l154 -275zM1545.5 716.5q-19.5 -142.5 -75.5 -263t-133 -204.5t-173.5 -143.5t-197.5 -87.5t-203.5 -28t-195.5 28t-172 87.5t-132.5 143.5t-75 204.5t-2 263t75 263.5t133 205t174 143.5t197 87.5t203 28t195.5 -28t172 -87.5 t133 -143.5t75.5 -205t2 -263.5zM769 31q79 0 158.5 19t156 55.5t145 94.5t124.5 132.5t95.5 173t55.5 211.5q24 167 -13 301.5t-117.5 216.5t-186.5 125t-225 43q-79 0 -158.5 -19t-156.5 -56t-145.5 -94.5t-124 -132t-95 -173.5t-56.5 -211q-24 -167 13 -301.5 t117.5 -216.5t186.5 -125t226 -43z" glyph-name="uni01D1" horiz-adv-x="1687" unicode="Ǒ"/><glyph d="M1066 1587h51l-256 -307h-64l-168 307h51l155 -275zM1273 563q-16 -117 -61.5 -214t-108.5 -162.5t-140 -110.5t-156.5 -65.5t-159.5 -20.5t-153 20.5t-137.5 65.5t-108 110.5t-62 162.5t-2.5 214q19 141 83.5 254t153 181t188 103.5t200.5 35.5t191.5 -35.5 t159.5 -103.5t100.5 -181t12.5 -254zM653 31q75 0 148 19t145 61t130 102.5t100 151t56 198.5q18 131 -11 235.5t-93 168t-147.5 96.5t-177.5 33t-186.5 -33t-174.5 -96.5t-140 -168t-77 -235.5q-15 -109 2 -199t57.5 -150.5t99.5 -102.5t127 -61t142 -19z" glyph-name="uni01D2" unicode="ǒ"/><glyph d="M1092 1894h51l-256 -307h-65l-168 307h52l154 -275zM1320 1434l-128 -912q-39 -281 -170 -406.5t-391 -125.5t-355.5 126t-56.5 406l128 912h41l-128 -912q-37 -263 49 -377t328 -114t359.5 114t154.5 377l128 912h41z" glyph-name="uni01D3" horiz-adv-x="1423" unicode="Ǔ"/><glyph d="M1022 1587h51l-256 -307h-64l-168 307h51l155 -275zM1250 1126h40l-157 -1126h-41l44 318q-52 -106 -147.5 -183t-200.5 -111t-211 -34q-72 0 -132 15t-111 49t-82 89t-44 134t3 184l93 665h41l-93 -665q-16 -117 2 -202.5t66.5 -134t113.5 -71t149 -22.5q75 0 148 17.5 t145 56.5t130 96.5t101 142.5t59 188z" glyph-name="uni01D4" horiz-adv-x="1436" unicode="ǔ"/><glyph d="M1222 1894h51l-256 -307h-65l-168 307h52l154 -275zM860 743h440l-85 -604q-96 -71 -215 -110t-237 -39q-102 0 -195.5 28t-172.5 87.5t-132.5 143.5t-75 204.5t-2 263t75 263.5t133 205t174 143.5t197 87.5t203.5 28q194 0 343 -98l-7 -51q-144 108 -342 108 q-79 0 -158.5 -19t-156.5 -56t-145.5 -94.5t-124 -132t-95 -173.5t-56.5 -211q-24 -167 13 -301.5t117.5 -216.5t186.5 -125t226 -43q103 0 223 39t186 92l75 540h-399z" glyph-name="Gcaron" horiz-adv-x="1500" unicode="Ǧ"/><glyph d="M1066 1587h51l-256 -307h-64l-168 307h51l155 -275zM1271 1126h40l-144 -1024q-16 -114 -58.5 -204.5t-100 -149t-131.5 -97t-149.5 -55t-157.5 -16.5q-191 0 -315 79l7 48q125 -86 315 -86q77 0 146.5 15t137.5 50t120.5 89t91 138t53.5 189l30 216q-81 -160 -226 -244 t-302 -84q-101 0 -188.5 35t-152.5 103.5t-94 181t-9 253.5q16 117 59.5 214t103.5 163t134 111t151.5 65.5t157.5 20.5q159 0 279.5 -82.5t156.5 -243.5zM225 563q-18 -131 8 -235.5t86 -168t140.5 -96t174.5 -32.5q92 0 180.5 32.5t166 95t133 164.5t76.5 230l2 20 q19 135 -7.5 238.5t-87.5 164t-140 90.5t-174 30q-75 0 -146.5 -19t-139.5 -61t-123 -103t-94.5 -151t-54.5 -199z" glyph-name="gcaron" unicode="ǧ"/><glyph d="M1295 1894l-310 -307h-51l307 307h54zM1524 1393h-686l-93 -656h605l-7 -41h-604l-92 -655h686l-5 -41h-727l52 372h-423l-203 -372h-44l784 1434h762zM655 384l143 1019l-545 -990h405z" glyph-name="AEacute" horiz-adv-x="1632" unicode="Ǽ"/><glyph d="M1569 1587l-311 -307h-51l307 307h55zM1134 563l-4 -22q-11 -103 12 -190t69 -145t110 -98.5t133 -58.5t138 -18q187 0 339 86l-7 -48q-146 -79 -338 -79q-76 0 -150 20.5t-141.5 61t-119 108.5t-73.5 155l-47 -335h-41l26 188q-29 -32 -74.5 -63.5t-112.5 -63 t-159 -51.5t-192 -20q-198 0 -287.5 75.5t-69.5 223.5q17 121 88.5 192.5t192 99t290 30.5t382.5 -13l14 103q24 219 -53 307t-299 88q-94 0 -191.5 -23.5t-167.5 -62.5l8 48q68 36 163.5 57.5t193.5 21.5q101 0 172 -16t124 -54.5t77.5 -106t21.5 -166.5q81 167 225.5 255 t300.5 88q78 0 150 -22t135.5 -67.5t104.5 -113.5t55 -160.5t-12 -210.5h-986zM1680 1096q-69 0 -136 -18.5t-131.5 -58.5t-118 -97t-94.5 -139t-59 -179h944q23 120 -5 217.5t-90.5 155t-142.5 88.5t-167 31zM1049 250l43 306q-214 15 -376.5 13.5t-274.5 -26t-175.5 -86.5 t-79.5 -167q-18 -135 64.5 -197t269.5 -62q92 0 179.5 21t154.5 55t115 70t80 73z" glyph-name="aeacute" horiz-adv-x="2306" unicode="ǽ"/><glyph d="M1323 1894l-310 -307h-51l307 307h54zM1624 1356l-170 -150q133 -194 91 -489q-19 -142 -75 -263t-133 -205t-173.5 -143.5t-197.5 -87.5t-203 -28q-137 0 -258.5 52t-203.5 153l-168 -148l-27 31l170 149q-133 194 -91 490q19 142 75 263t133.5 205t174 143.5t197 87.5 t203.5 28q137 0 258.5 -52.5t203.5 -152.5l167 147zM226 717q-39 -276 85 -460l1085 952q-77 95 -191 144.5t-243 49.5q-79 0 -158.5 -19t-156.5 -56t-145.5 -94.5t-124 -132t-95.5 -173t-56 -211.5zM1504 717q39 276 -85 460l-1084 -953q77 -95 191 -144t243 -49 q79 0 158.5 19t156 55.5t145 94.5t124.5 132.5t95.5 173t55.5 211.5z" glyph-name="Oslashacute" horiz-adv-x="1687" unicode="Ǿ"/><glyph d="M1086 1587l-310 -307h-51l307 307h54zM1369 1099l-170 -150q106 -153 74 -386q-16 -117 -61.5 -214t-108.5 -162.5t-140 -110.5t-156.5 -65.5t-159.5 -20.5q-108 0 -204.5 39t-161.5 115l-167 -146l-26 30l168 147q-104 152 -72 388q19 141 83.5 254t153 181t188 103.5 t200.5 35.5q108 0 204 -39.5t162 -116.5l168 147zM225 563q-30 -218 65 -358l852 746q-61 71 -150.5 108t-188.5 37q-94 0 -186.5 -33t-174.5 -96.5t-140.5 -168t-76.5 -235.5zM1232 563q31 217 -67 357l-851 -747q60 -71 149.5 -106.5t189.5 -35.5q75 0 148 19t145 61 t130 102.5t100 150.5t56 199z" glyph-name="oslashacute" unicode="ǿ"/><glyph d="M110 168q148 -136 435 -136q118 0 234 40.5t198.5 113t95.5 157.5q10 67 -7.5 118.5t-45.5 83.5t-101.5 64t-124.5 48t-164 48q-5 1 -7 2q-100 28 -171 58t-127 72t-79 99t-12 129q28 172 172.5 275.5t377.5 103.5q195 0 342 -98l-8 -51q-142 108 -340 108 q-215 0 -347 -92t-156 -247q-9 -55 9 -101.5t51 -78t95 -61t118 -48.5t143 -44q99 -28 164 -51.5t124 -56t89.5 -70t43 -90t2.5 -120.5q-15 -99 -105.5 -181.5t-216 -126.5t-253.5 -44q-283 0 -439 124zM588 -102h51l-130 -410h-31z" glyph-name="Scommaaccent" horiz-adv-x="1308" unicode="Ș"/><glyph d="M122 117q71 -39 173.5 -62.5t207.5 -23.5q93 0 180 30t146.5 85.5t68.5 121.5q5 36 -1 67t-18.5 53.5t-40 43.5t-52.5 34.5t-70.5 29.5t-81 26t-94.5 27q-164 43 -244.5 116t-64.5 188q18 132 136.5 208t307.5 76t315 -79l-7 -48q-128 86 -314 86q-169 0 -274.5 -64 t-122.5 -180q-15 -103 66.5 -164t261.5 -111q80 -22 131 -40.5t98.5 -44t71.5 -55.5t34.5 -72t3.5 -97q-17 -117 -151.5 -197.5t-290.5 -80.5q-110 0 -212 21t-170 58zM526 -102h52l-131 -410h-30z" glyph-name="scommaaccent" horiz-adv-x="1164" unicode="ș"/><glyph d="M1156 1434l-5 -41h-467l-195 -1393h-40l194 1393h-465l5 41h973zM387 -512l110 410h51l-130 -410h-31z" glyph-name="uni021A" horiz-adv-x="1095" unicode="Ț"/><glyph d="M678 0h-215q-84 0 -121.5 59.5t-23.5 161.5l122 864h-182l5 41h182l32 226h41l-32 -226h350l-6 -41h-349l-122 -864q-11 -82 20 -131t92 -49h212zM490 -102h52l-130 -410h-31z" glyph-name="uni021B" horiz-adv-x="982" unicode="ț"/><glyph d="M1294 1393h-911l-92 -656h829l-6 -41h-829l-92 -655h911l-5 -41h-456l-60 -56q6 1 33 1q42 0 68.5 -20.5t20.5 -65.5q-13 -88 -151 -88q-39 0 -84 7l6 41q33 -5 64 -5q113 0 118 45q4 29 -17 37t-72 8q-28 0 -39 -1l6 38l66 59h-456l201 1434h952z" glyph-name="uni0228" horiz-adv-x="1402" unicode="Ȩ"/><glyph d="M1211 563h-986q-15 -109 6 -199.5t66.5 -150.5t110.5 -102t134.5 -61t141.5 -19q187 0 339 86l-7 -48q-140 -76 -327 -79l-49 -46q6 1 34 1q42 0 68 -20.5t20 -65.5q-13 -88 -151 -88q-39 0 -84 7l7 41q33 -5 63 -5q113 0 119 45q4 29 -17.5 37t-71.5 8q-28 0 -39 -1 l5 38l56 50q-75 4 -146.5 26.5t-137 69t-111 110.5t-65.5 159.5t-5 206.5q19 141 80 254t145 181t178 103.5t191 35.5q78 0 150 -22t135.5 -67.5t104.5 -113.5t55.5 -160.5t-12.5 -210.5zM772 1096q-69 0 -136.5 -18.5t-132 -58.5t-117.5 -97t-94 -139t-60 -179h945 q23 120 -5 217.5t-90.5 155t-142.5 88.5t-167 31z" glyph-name="uni0229" horiz-adv-x="1397" unicode="ȩ"/><glyph d="M304 1126l-159 -1128q-16 -117 -63.5 -168t-144.5 -51q-42 0 -80 8l6 38q32 -5 80 -5q83 0 116 42.5t46 137.5l158 1126h41z" glyph-name="uni0237" horiz-adv-x="409" unicode="ȷ"/><glyph d="M720 1137q77 0 152 -20.5t144.5 -66t119 -111t72 -162.5t5.5 -214q-19 -141 -79.5 -253.5t-144.5 -181t-178 -103.5t-191 -35q-78 0 -150.5 22t-136 67t-104.5 113t-55 160.5t12 210.5h986q15 109 -5.5 199.5t-66 151t-110.5 102.5t-135 61t-141 19q-187 0 -339 -86l7 48 q147 79 338 79zM626 31q69 0 136 18.5t131.5 58t118 96.5t94.5 139t59 179h-944q-23 -120 5 -217t90.5 -155t142.5 -88.5t167 -30.5z" glyph-name="uni0259" horiz-adv-x="1397" unicode="ə"/><glyph d="M411 1434l-10 -66h-86l10 66h86zM451 635l-7 -41h-174l-83 -594h-41l83 594h-174l6 41h175l68 491h41l-69 -491h175z" glyph-name="uni0268" horiz-adv-x="491" unicode="ɨ"/><glyph d="M814 1280h-51l-154 275l-232 -275h-51l256 307h64z" glyph-name="circumflex" horiz-adv-x="939" unicode="ˆ"/><glyph d="M807 1587h51l-256 -307h-64l-168 307h51l154 -275z" glyph-name="caron" horiz-adv-x="939" unicode="ˇ"/><glyph d="M786 1495q-12 -88 -84 -151.5t-161 -63.5q-88 0 -142.5 63.5t-42.5 151.5h41q-10 -73 34 -123.5t115.5 -50.5t130 51t68.5 123h41z" glyph-name="breve" horiz-adv-x="880" unicode="˘"/><glyph d="M338 1366h86l-12 -86h-86z" glyph-name="dotaccent" horiz-adv-x="536" unicode="˙"/><glyph d="M489.5 1280q-67.5 0 -109 48t-31.5 116q9 68 64 116t122.5 48t109 -48.5t32.5 -115.5q-10 -68 -65 -116t-122.5 -48zM496 1321q51 0 92 36.5t48 86.5q7 51 -24 87t-82 36t-92 -36.5t-48 -86.5q-7 -51 24.5 -87t81.5 -36z" glyph-name="ring" horiz-adv-x="778" unicode="˚"/><glyph d="M127 -143q6 113 151 143h40q-88 -26 -118.5 -60.5t-30.5 -74.5t52 -58t124 -2v-34q-97 -27 -159 1t-59 85z" glyph-name="ogonek" horiz-adv-x="681" unicode="˛"/><glyph d="M327 1281q7 68 52 115.5t113 47.5q38 0 73 -20.5t58.5 -45t55 -45t59.5 -20.5q36 0 68 37.5t39 84.5h41q-10 -68 -58 -115t-110 -47q-28 0 -61 20.5t-58.5 45t-56.5 44.5t-57 20q-45 -1 -78 -37t-40 -86z" glyph-name="tilde" horiz-adv-x="988" unicode="˜"/><glyph d="M579 1587l-208 -307h-45l204 307h49zM742 1587l-207 -307h-46l205 307h48z" glyph-name="hungarumlaut" horiz-adv-x="823" unicode="˝"/><glyph d="M-398 1587h54l219 -307h-51z" glyph-name="gravecomb" horiz-adv-x="0" unicode="̀"/><glyph d="M-81 1587l-310 -307h-51l307 307h54z" glyph-name="acutecomb" horiz-adv-x="0" unicode="́"/><glyph d="M-125 1280h-51l-154 275l-232 -275h-51l256 307h64z" glyph-name="uni0302" horiz-adv-x="0" unicode="̂"/><glyph d="M-662 1281q7 68 52.5 115.5t112.5 47.5q38 0 73.5 -20.5t59 -45t54.5 -45t60 -20.5q36 0 67.5 37.5t39.5 84.5h41q-10 -68 -58 -115t-110 -47q-28 0 -61.5 20.5t-58.5 45t-56 44.5t-57 20q-45 -1 -78 -37t-41 -86z" glyph-name="tildecomb" horiz-adv-x="0" unicode="̃"/><glyph d="M-581 1321h462l-6 -41h-462z" glyph-name="uni0304" horiz-adv-x="0" unicode="̄"/><glyph d="M-94 1495q-12 -88 -84.5 -151.5t-161.5 -63.5q-88 0 -142.5 63.5t-41.5 151.5h41q-10 -73 33.5 -123.5t115.5 -50.5t130.5 51t68.5 123h41z" glyph-name="uni0306" horiz-adv-x="0" unicode="̆"/><glyph d="M-199 1366h86l-12 -86h-86z" glyph-name="uni0307" horiz-adv-x="0" unicode="̇"/><glyph d="M-525 1366h86l-13 -86h-86zM-199 1366h86l-12 -86h-86z" glyph-name="uni0308" horiz-adv-x="0" unicode="̈"/><glyph d="M-288.5 1280q-67.5 0 -109 48t-31.5 116q9 68 64 116t122.5 48t109 -48.5t32.5 -115.5q-10 -68 -65 -116t-122.5 -48zM-283 1321q51 0 92 36.5t49 86.5q7 51 -24.5 87t-81.5 36q-51 0 -92 -36.5t-48 -86.5q-7 -51 24 -87t81 -36z" glyph-name="uni030A" horiz-adv-x="0" unicode="̊"/><glyph d="M-245 1587l-208 -307h-45l205 307h48zM-81 1587l-208 -307h-45l205 307h48z" glyph-name="uni030B" horiz-adv-x="0" unicode="̋"/><glyph d="M-132 1587h51l-256 -307h-64l-168 307h51l154 -275z" glyph-name="uni030C" horiz-adv-x="0" unicode="̌"/><glyph d="M-176 1280h-51l130 410h30z" glyph-name="uni0312" horiz-adv-x="0" unicode="̒"/><glyph d="M-426 -256h86l-12 -86h-86z" glyph-name="dotbelowcomb" horiz-adv-x="0" unicode="̣"/><glyph d="M-303 -102h51l-130 -410h-31z" glyph-name="uni0326" horiz-adv-x="0" unicode="̦"/><glyph d="M-412 -50q42 0 68.5 -20.5t19.5 -65.5q-13 -88 -150 -88q-39 0 -84 7l6 41q33 -5 64 -5q113 0 118 45q4 29 -17.5 37t-71.5 8q-28 0 -39 -1l5 38l67 59h41l-60 -56q5 1 33 1z" glyph-name="uni0327" horiz-adv-x="0" unicode="̧"/><glyph d="M-555 -143q6 113 151 143h40q-88 -26 -118.5 -60.5t-30.5 -74.5t52 -58t124 -2v-34q-97 -27 -159 1t-59 85z" glyph-name="uni0328" horiz-adv-x="0" unicode="̨"/><glyph d="M651 1673h86l-12 -86h-86zM978 1673h86l-12 -86h-86zM193 41h911l-5 -41h-953l201 1434h952l-5 -41h-911l-92 -656h829l-6 -41h-829z" glyph-name="afii10023" horiz-adv-x="1402" unicode="Ё"/><glyph d="M1157 0l-99 372h-828l-203 -372h-44l784 1434h51l383 -1434h-44zM253 413h794l-261 969z" glyph-name="afii10017" horiz-adv-x="1341" unicode="А"/><glyph d="M309 870q485 0 693.5 -109.5t173.5 -350.5q-27 -189 -158.5 -299.5t-328.5 -110.5h-544l203 1434h771l-5 -41h-731zM1135 410q20 147 -58 238.5t-267 136t-506 44.5l-110 -788h502q178 0 296 97t143 272z" glyph-name="afii10018" horiz-adv-x="1381" unicode="Б"/><glyph d="M347 1434h553q68 0 127 -22.5t104.5 -66t66.5 -116.5t7 -164q-17 -129 -85 -214t-166 -124q112 -27 174.5 -117t39.5 -241q-26 -178 -144.5 -273.5t-262.5 -95.5h-615zM383 1393l-92 -656h512q50 0 96 10.5t90.5 35t79 61.5t60 93.5t35.5 127.5q23 166 -55.5 247 t-213.5 81h-512zM766 41q63 0 120.5 18.5t108.5 56.5t85.5 102.5t46.5 150.5q12 88 -4.5 153.5t-57 102.5t-92 54t-115.5 17h-573l-92 -655h573z" glyph-name="afii10019" horiz-adv-x="1359" unicode="В"/><glyph d="M956 1434l-5 -41h-568l-196 -1393h-41l201 1434h609z" glyph-name="afii10020" horiz-adv-x="896" unicode="Г"/><glyph d="M1209 41h75l-5 -41h-1l-37 -266h-41l37 266h-1051l-36 -266h-41l43 307q118 0 167 79t79 296l143 1018h863zM301 41h867l190 1352h-781l-138 -974q-23 -162 -54.5 -250t-83.5 -128z" glyph-name="afii10021" horiz-adv-x="1583" unicode="Д"/><glyph d="M193 41h911l-5 -41h-953l201 1434h952l-5 -41h-911l-92 -656h829l-6 -41h-829z" glyph-name="afii10022" horiz-adv-x="1402" unicode="Е"/><glyph d="M2026 1434l-918 -717l718 -717h-62l-717 716l-102 -716h-41l101 716l-920 -716h-61l919 717l-717 717h62l717 -716l100 716h43l-101 -716l918 716h61z" glyph-name="afii10024" horiz-adv-x="2007" unicode="Ж"/><glyph d="M561 31q75 0 152 21.5t147.5 64t121 115.5t64.5 167q12 90 -18 163.5t-87.5 118t-129 68.5t-145.5 24h-171l5 41h171q59 0 122 18t122 52.5t100.5 93t51.5 132.5q10 72 -14.5 129.5t-72.5 92.5t-106.5 53t-120 18t-124.5 -18t-120 -53t-98 -92.5t-52 -129.5h-41 q11 80 56.5 145t109 105.5t135 62t141 21.5t135.5 -21.5t118 -62t79 -105.5t16 -145q-15 -120 -98.5 -200.5t-199.5 -114.5q135 -38 216 -140.5t60 -255.5q-14 -102 -69.5 -183.5t-133.5 -129t-162 -72t-166 -24.5q-81 0 -158.5 24.5t-141.5 72t-96 129t-18 183.5h41 q-13 -94 16.5 -167t88.5 -115.5t129 -64t145 -21.5z" glyph-name="afii10025" horiz-adv-x="1272" unicode="З"/><glyph d="M389 1434l-195 -1383l1183 1383h57l-203 -1434h-41l195 1382l-1183 -1382h-57l203 1434h41z" glyph-name="afii10026" horiz-adv-x="1536" unicode="И"/><glyph d="M1157 1802q-12 -88 -84.5 -151.5t-161.5 -63.5q-88 0 -142 63.5t-42 151.5h41q-10 -73 34 -123.5t115.5 -50.5t130 51.5t68.5 122.5h41zM389 1434l-195 -1383l1183 1383h57l-203 -1434h-41l195 1382l-1183 -1382h-57l203 1434h41z" glyph-name="afii10027" horiz-adv-x="1536" unicode="Й"/><glyph d="M187 0h-41l201 1434h41zM1269 1434l-919 -717l718 -717h-61l-719 717l919 717h62z" glyph-name="afii10028" horiz-adv-x="1249" unicode="К"/><glyph d="M1302 1434l-201 -1434h-41l195 1393h-781l-137 -974q-24 -167 -57 -255.5t-88 -126.5t-148 -37l5 41q118 0 167 79t80 296l142 1018h864z" glyph-name="afii10029" horiz-adv-x="1404" unicode="Л"/><glyph d="M1639 1434h67l-201 -1434h-41l196 1393l-780 -1188h-51l-446 1188l-196 -1393h-41l201 1434h67l446 -1189z" glyph-name="afii10030" horiz-adv-x="1809" unicode="М"/><glyph d="M1310 1434h41l-201 -1434h-41l97 696h-921l-98 -696h-41l201 1434h41l-97 -697h921z" glyph-name="afii10031" horiz-adv-x="1454" unicode="Н"/><glyph d="M1545.5 716.5q-19.5 -142.5 -75.5 -263t-133 -204.5t-173.5 -143.5t-197.5 -87.5t-203.5 -28t-195.5 28t-172 87.5t-132.5 143.5t-75 204.5t-2 263t75 263.5t133 205t174 143.5t197 87.5t203 28t195.5 -28t172 -87.5t133 -143.5t75.5 -205t2 -263.5zM769 31 q79 0 158.5 19t156 55.5t145 94.5t124.5 132.5t95.5 173t55.5 211.5q24 167 -13 301.5t-117.5 216.5t-186.5 125t-225 43q-79 0 -158.5 -19t-156.5 -56t-145.5 -94.5t-124 -132t-95 -173.5t-56.5 -211q-24 -167 13 -301.5t117.5 -216.5t186.5 -125t226 -43z" glyph-name="afii10032" horiz-adv-x="1687" unicode="О"/><glyph d="M1279 1434l-201 -1434h-41l196 1393h-850l-196 -1393h-41l201 1434h932z" glyph-name="afii10033" horiz-adv-x="1382" unicode="П"/><glyph d="M891 1434q197 0 297 -110.5t74 -299.5q-32 -242 -271 -351.5t-725 -109.5l-79 -563h-41l201 1434h544zM1221 1024q25 175 -66 272t-269 97h-503l-111 -789q471 0 694.5 100.5t254.5 319.5z" glyph-name="afii10034" horiz-adv-x="1360" unicode="Р"/><glyph d="M1304 1295q-144 108 -342 108q-79 0 -158.5 -19t-156.5 -56t-145.5 -94.5t-124 -132t-95 -173.5t-56.5 -211q-24 -167 13 -301.5t117.5 -216.5t186.5 -125t226 -43q198 0 373 107l-7 -50q-177 -98 -372 -98q-102 0 -195.5 28t-172.5 87.5t-132.5 143.5t-75 204.5t-2 263 t75 263.5t133 205t174 143.5t197 87.5t203.5 28q194 0 343 -98z" glyph-name="afii10035" horiz-adv-x="1426" unicode="С"/><glyph d="M1156 1434l-5 -41h-467l-195 -1393h-40l194 1393h-465l5 41h973z" glyph-name="afii10036" horiz-adv-x="1095" unicode="Т"/><glyph d="M1075 1434h44l-593 -1060q-35 -62 -64 -108t-78.5 -107t-100 -102t-121.5 -74t-150 -42l6 41q71 10 134.5 39.5t108.5 65.5t89.5 91t72 97.5t61.5 104.5l-301 1054h44l286 -1002z" glyph-name="afii10037" horiz-adv-x="1058" unicode="У"/><glyph d="M1026 1233q349 -4 508 -141t126 -375.5t-231 -375t-548 -140.5l-28 -201h-41l28 201q-349 4 -508 140.5t-126 375t231 375.5t548 141l28 201h41zM247 717q-31 -220 119 -345.5t480 -129.5l133 950q-331 -4 -516 -129.5t-216 -345.5zM1619 717q31 220 -119 345.5 t-480 129.5l-133 -950q331 4 516 129.5t216 345.5z" glyph-name="afii10038" horiz-adv-x="1822" unicode="Ф"/><glyph d="M1357 1434l-640 -717l439 -717h-51l-419 685l-611 -685h-51l640 717l-440 717h51l419 -685l612 685h51z" glyph-name="afii10039" horiz-adv-x="1337" unicode="Х"/><glyph d="M1281 1434l-197 -1393h71l-29 -205h-41l24 164h-963l203 1434h41l-195 -1393h849l196 1393h41z" glyph-name="afii10040" horiz-adv-x="1454" unicode="Ц"/><glyph d="M1226 1434h41l-201 -1434h-41l119 848q-74 -139 -208 -212t-310 -73q-189 0 -278 120t-61 318l60 433h41l-57 -415q-28 -198 48 -306.5t265 -108.5q177 0 318.5 93t194.5 247z" glyph-name="afii10041" horiz-adv-x="1370" unicode="Ч"/><glyph d="M2131 1434h41l-203 -1434h-1823l203 1434h41l-195 -1393h848l197 1393h41l-196 -1393h850z" glyph-name="afii10042" horiz-adv-x="2275" unicode="Ш"/><glyph d="M2172 1434l-197 -1393h71l-29 -205h-41l24 164h-1854l203 1434h41l-195 -1393h848l197 1393h41l-196 -1393h850l196 1393h41z" glyph-name="afii10043" horiz-adv-x="2344" unicode="Щ"/><glyph d="M122 1434h266l-5 -41h-266zM731 0h-544l203 1434h41l-80 -564q485 0 693.5 -109.5t173.5 -350.5q-27 -189 -158.5 -299.5t-328.5 -110.5zM346 829l-110 -788h502q178 0 296 96.5t143 272.5q20 147 -58 238.5t-267.5 136t-505.5 44.5z" glyph-name="afii10044" horiz-adv-x="1423" unicode="Ъ"/><glyph d="M689 0h-544l203 1434h41l-80 -564q485 0 693.5 -109.5t173.5 -350.5q-27 -189 -158.5 -299.5t-328.5 -110.5zM1415 0h-41l201 1434h41zM304 829l-110 -788h502q178 0 296 96.5t143 272.5q20 147 -58 238.5t-267.5 136t-505.5 44.5z" glyph-name="afii10045" horiz-adv-x="1719" unicode="Ы"/><glyph d="M689 0h-544l203 1434h41l-80 -564q485 0 693.5 -109.5t173.5 -350.5q-27 -189 -158.5 -299.5t-328.5 -110.5zM304 829l-110 -788h502q178 0 296 96.5t143 272.5q20 147 -58 238.5t-267.5 136t-505.5 44.5z" glyph-name="afii10046" horiz-adv-x="1381" unicode="Ь"/><glyph d="M722 1444q102 0 195.5 -28t172.5 -87.5t133 -143.5t75.5 -205t1.5 -263t-75.5 -263t-133 -205t-173.5 -143.5t-196.5 -87.5t-203.5 -28q-195 0 -344 98l7 50q144 -108 342 -107q118 0 234 42t219 121t178.5 210t101.5 292h-817l6 41h818q15 131 -7.5 242t-74 187.5 t-125.5 131t-160 80t-179 25.5q-199 0 -372 -108l6 51q177 98 371 98z" glyph-name="afii10047" horiz-adv-x="1442" unicode="Э"/><glyph d="M1459 1444q102 0 195.5 -28t172.5 -87.5t132.5 -143.5t75 -205t2 -263.5t-75 -263t-133 -204.5t-173.5 -143.5t-197 -87.5t-204 -28q-100 0 -192 27t-170.5 85t-132.5 140t-78 199t-7 255h-389l-98 -696h-41l201 1434h41l-97 -697h389q28 172 107 310t188 223t233 129.5 t251 44.5zM1996 717q24 167 -13 301.5t-117.5 216.5t-186.5 125t-226 43q-79 0 -158.5 -19t-156 -56t-145 -94.5t-124.5 -132t-95.5 -173.5t-55.5 -211q-24 -167 13 -301.5t117.5 -216.5t186.5 -125t226 -43q79 0 158 19t156 55.5t145.5 94.5t124.5 132.5t95.5 173 t55.5 211.5z" glyph-name="afii10048" horiz-adv-x="2179" unicode="Ю"/><glyph d="M715 1434h543l-202 -1434h-41l80 563q-309 0 -504 44l-458 -607h-48l465 616q-187 50 -266 150t-56 258q27 189 158.5 299.5t328.5 110.5zM269 1024q-20 -148 57 -239.5t266 -136t508 -44.5l110 789h-502q-178 0 -296 -97t-143 -272z" glyph-name="afii10049" horiz-adv-x="1360" unicode="Я"/><glyph d="M766 1137q63 0 114 -6.5t96.5 -20.5t77 -37t57.5 -58t36.5 -81t13.5 -106.5t-9 -136.5l-97 -691h-41l26 188q-29 -32 -74.5 -63.5t-112.5 -63t-159 -51.5t-192 -20q-198 0 -287.5 75.5t-69.5 223.5q17 121 88.5 192.5t192 99t290 30.5t382.5 -13l14 103q24 219 -53 307 t-299 88q-94 0 -191.5 -23.5t-167.5 -62.5l8 48q68 36 163.5 57.5t193.5 21.5zM1049 250l43 306q-214 15 -376.5 13.5t-274.5 -26t-175.5 -86.5t-79.5 -167q-18 -135 64.5 -197t269.5 -62q92 0 179.5 21t154.5 55t115 70t80 73z" glyph-name="afii10065" horiz-adv-x="1358" unicode="а"/><glyph d="M839 1331q-88 0 -158.5 -17t-137.5 -60.5t-119 -115.5t-96.5 -185t-77.5 -266q86 138 237 211.5t311 73.5q101 0 191 -30.5t159.5 -88.5t101 -154.5t12.5 -217.5q-16 -100 -61.5 -183t-108.5 -139t-140.5 -94.5t-156.5 -56t-159 -17.5t-153 17.5t-137.5 56t-108 94.5 t-62 139t-2.5 183q30 211 77 367.5t106 255.5t137 160t162 84.5t190 23.5q251 0 452 51l-6 -41q-200 -51 -452 -51zM791.5 936q-74.5 0 -149 -17t-145 -54t-128.5 -89.5t-99 -128.5t-56 -166q-15 -93 1.5 -170t57 -129t100 -87.5t127.5 -51.5t142 -16q75 0 148 16t145 52 t129.5 87.5t99.5 128.5t57 170q15 90 -2 166t-57 128.5t-99 89.5t-128 54t-143.5 17z" glyph-name="afii10066" unicode="б"/><glyph d="M304 1126h502q157 0 246.5 -73.5t69.5 -215.5q-14 -105 -78.5 -174.5t-161.5 -91.5q111 -12 176 -86t48 -195q-19 -142 -129.5 -216t-266.5 -74h-564zM340 1085l-71 -501h461q63 0 119 12.5t106 41t83 79.5t43 120q17 130 -63.5 189t-216.5 59h-461zM715 41 q65 0 120.5 13.5t105 41t82.5 77t42 117.5q8 55 -3 99t-37 72.5t-64 47t-81.5 26.5t-94.5 8h-522l-70 -502h522z" glyph-name="afii10067" horiz-adv-x="1329" unicode="в"/><glyph d="M919 1126l-6 -41h-573l-153 -1085h-41l158 1126h615z" glyph-name="afii10068" horiz-adv-x="962" unicode="г"/><glyph d="M1077 41h113l-5 -41h-1l-29 -209h-41l29 209h-957l-28 -209h-41l35 250h4q98 1 147.5 75.5t74.5 252.5l106 757h745zM286 41h750l147 1044h-663l-100 -713q-36 -255 -134 -331z" glyph-name="afii10069" horiz-adv-x="1488" unicode="д"/><glyph d="M1211 563h-986q-15 -109 6 -199.5t66.5 -150.5t110.5 -102t134.5 -61t141.5 -19q187 0 339 86l-7 -48q-146 -79 -338 -79q-77 0 -152 20.5t-145 66t-119 110.5t-71.5 162t-6.5 214q19 141 80 254t145 181t178 103.5t191 35.5q78 0 150 -22t135.5 -67.5t104.5 -113.5 t55.5 -160.5t-12.5 -210.5zM772 1096q-69 0 -136.5 -18.5t-132 -58.5t-117.5 -97t-94 -139t-60 -179h945q23 120 -5 217.5t-90.5 155t-142.5 88.5t-167 31z" glyph-name="afii10070" horiz-adv-x="1397" unicode="е"/><glyph d="M202 1126h61l564 -563l-722 -563h-61l723 563zM790 0h-41l157 1126h41zM1652 1126l-723 -563l565 -563h-61l-565 563l722 563h62z" glyph-name="afii10072" horiz-adv-x="1695" unicode="ж"/><glyph d="M528 33q101 0 188.5 28t152 93.5t77.5 158.5q10 71 -13.5 127.5t-72 90t-113 51.5t-139.5 18h-173l6 41h173q133 0 231 58t114 171q10 73 -27.5 124.5t-103.5 74.5t-150 23q-79 0 -150.5 -21.5t-129 -73.5t-67.5 -127h-41q12 83 71.5 144t143 90t178.5 29t171 -29 t119 -90t31 -144q-13 -94 -80 -157t-159 -90q109 -30 174 -110t48 -200q-14 -108 -88 -182.5t-170 -106.5t-206 -32q-80 0 -150.5 19t-125 56.5t-82 101t-15.5 144.5h40q-9 -59 7 -107.5t49.5 -80t80.5 -53t97 -30.5t104 -9z" glyph-name="afii10073" horiz-adv-x="1206" unicode="з"/><glyph d="M345 1126l-152 -1086l887 1086h64l-158 -1126h-41l153 1086l-888 -1086h-64l158 1126h41z" glyph-name="afii10074" horiz-adv-x="1290" unicode="и"/><glyph d="M991 1495q-12 -88 -84 -151.5t-162 -63.5q-88 0 -142 63.5t-42 151.5h41q-10 -73 34 -123.5t115.5 -50.5t130 51t68.5 123h41zM345 1126l-152 -1086l887 1086h64l-158 -1126h-41l153 1086l-888 -1086h-64l158 1126h41z" glyph-name="afii10075" horiz-adv-x="1290" unicode="й"/><glyph d="M187 0h-41l158 1126h41zM1123 1126l-792 -563l635 -563h-69l-631 563l789 563h68z" glyph-name="afii10076" horiz-adv-x="1167" unicode="к"/><glyph d="M1188 1126l-158 -1126h-41l153 1085h-663l-100 -713q-29 -203 -92.5 -288.5t-181.5 -83.5l6 41q100 -1 150.5 74t75.5 254l106 757h745z" glyph-name="afii10077" horiz-adv-x="1334" unicode="л"/><glyph d="M1336 1126h72l-158 -1126h-41l154 1095l-623 -934h-40l-359 934l-154 -1095h-41l158 1126h72l351 -921z" glyph-name="afii10078" horiz-adv-x="1554" unicode="м"/><glyph d="M1103 1126h41l-158 -1126h-41l80 568h-758l-80 -568h-41l158 1126h41l-73 -517h758z" glyph-name="afii10079" horiz-adv-x="1290" unicode="н"/><glyph d="M1273 563q-16 -117 -61.5 -214t-108.5 -162.5t-140 -110.5t-156.5 -65.5t-159.5 -20.5t-153 20.5t-137.5 65.5t-108 110.5t-62 162.5t-2.5 214q19 141 83.5 254t153 181t188 103.5t200.5 35.5t191.5 -35.5t159.5 -103.5t100.5 -181t12.5 -254zM653 31q75 0 148 19t145 61 t130 102.5t100 151t56 198.5q18 131 -11 235.5t-93 168t-147.5 96.5t-177.5 33t-186.5 -33t-174.5 -96.5t-140 -168t-77 -235.5q-15 -109 2 -199t57.5 -150.5t99.5 -102.5t127 -61t142 -19z" glyph-name="afii10080" unicode="о"/><glyph d="M1134 1126l-158 -1126h-41l152 1085h-747l-153 -1085h-41l158 1126h830z" glyph-name="afii10081" horiz-adv-x="1280" unicode="п"/><glyph d="M1273 563q-20 -141 -80.5 -253.5t-145 -181t-181.5 -103.5t-198 -35q-158 0 -279 84.5t-158 243.5l-102 -728h-41l216 1536h40l-43 -315q81 161 225.5 243.5t302.5 82.5q100 0 187 -34t153.5 -101t95 -180.5t8.5 -258.5zM823 1096q-94 0 -181.5 -30t-166 -90.5 t-133.5 -163.5t-75 -239l-2 -20q-16 -128 11 -230t87 -164.5t139.5 -95t171.5 -32.5q94 0 183.5 32.5t167.5 96t133 168t74 235.5q16 113 1 200t-52 150t-94 103.5t-123 60t-141 19.5z" glyph-name="afii10082" unicode="р"/><glyph d="M1117 1010q-128 86 -314 86q-94 0 -186.5 -33t-174.5 -96.5t-140 -168t-76.5 -235.5t10.5 -235.5t93 -168t147 -96t177 -32.5q187 0 339 86l-7 -48q-146 -79 -338 -79q-101 0 -190.5 35t-159 103.5t-101 181t-12 254t83.5 254t152.5 180.5t188 103.5t200.5 35.5 q189 0 315 -79z" glyph-name="afii10083" horiz-adv-x="1239" unicode="с"/><glyph d="M1082 1126l-5 -41h-450l-153 -1085h-41l153 1085h-451l5 41h942z" glyph-name="afii10084" horiz-adv-x="1064" unicode="т"/><glyph d="M1094 1126h44l-593 -1059q-35 -62 -64 -108t-79 -107t-100 -102t-121 -74t-150 -43l6 41q71 10 134 40t108.5 66t90 91t71.5 97.5t62 104.5l-301 1053h44l285 -1001z" glyph-name="afii10085" horiz-adv-x="1181" unicode="у"/><glyph d="M830 1137q78 -3 149.5 -27t132 -70.5t102 -112t58 -159.5t1.5 -205q-15 -114 -59 -209t-103.5 -160t-134.5 -111t-151.5 -68t-155.5 -25l-24 -169h-41l24 169q-78 2 -148 24.5t-132 68t-103.5 110.5t-59 161t-1.5 209q15 111 59 205t104 159.5t134 112.5t152 70.5 t157 26.5l16 117h41zM225 563q-15 -105 1 -193.5t53.5 -149t94.5 -103t122.5 -63t137.5 -23.5l149 1065q-92 -3 -181 -38t-168 -98.5t-135 -166t-74 -230.5zM1232 563q14 102 -0.5 189.5t-52.5 148.5t-94.5 104.5t-122 65.5t-138.5 25l-149 -1065q73 3 144 23.5t139.5 63.5 t124 103.5t95.5 148.5t54 193z" glyph-name="afii10086" unicode="ф"/><glyph d="M1129 1126l-505 -563l348 -563h-51l-337 543l-489 -543h-51l506 563l-348 563h51l337 -542l488 542h51z" glyph-name="afii10087" horiz-adv-x="1173" unicode="х"/><glyph d="M1134 1126l-152 -1085h71l-29 -205h-41l24 164h-861l158 1126h41l-152 -1085h747l153 1085h41z" glyph-name="afii10088" horiz-adv-x="1280" unicode="ц"/><glyph d="M1076 1126h41l-158 -1126h-40l87 624q-58 -112 -168 -171.5t-256 -59.5q-178 0 -266.5 94t-64.5 258l53 381h41l-51 -366q-22 -155 52.5 -240.5t249.5 -85.5q150 0 264.5 73t156.5 193z" glyph-name="afii10089" horiz-adv-x="1263" unicode="ч"/><glyph d="M1676 1126h41l-157 -1126h-1414l158 1126h41l-152 -1085h645l152 1085h41l-152 -1085h645z" glyph-name="afii10090" horiz-adv-x="1863" unicode="ш"/><glyph d="M1717 1126l-151 -1085h70l-28 -205h-41l23 164h-1444l158 1126h41l-152 -1085h645l152 1085h41l-152 -1085h645l152 1085h41z" glyph-name="afii10091" horiz-adv-x="1863" unicode="щ"/><glyph d="M469 691q386 0 553.5 -89t138.5 -280q-22 -148 -127.5 -235t-263.5 -87h-439l151 1085h-224l5 41h266zM1120 322q16 116 -44 187.5t-210 106.5t-403 35l-86 -611h398q143 0 234.5 72.5t110.5 209.5z" glyph-name="afii10092" horiz-adv-x="1379" unicode="ъ"/><glyph d="M586 0h-440l158 1126h41l-60 -435q386 0 553.5 -89t138.5 -280q-22 -148 -127.5 -235t-263.5 -87zM1356 1126h41l-158 -1126h-41zM279 651l-86 -611h398q143 0 234 72t111 210q16 116 -44.5 187.5t-210 106.5t-402.5 35z" glyph-name="afii10093" horiz-adv-x="1543" unicode="ы"/><glyph d="M586 0h-440l158 1126h41l-60 -435q386 0 553.5 -89t138.5 -280q-22 -148 -127.5 -235t-263.5 -87zM279 651l-86 -611h398q143 0 234 72t111 210q16 116 -44.5 187.5t-210 106.5t-402.5 35z" glyph-name="afii10094" horiz-adv-x="1195" unicode="ь"/><glyph d="M633 1137q80 0 153.5 -21.5t137.5 -68.5t108 -112.5t62 -161.5t3 -210q-19 -141 -83.5 -253.5t-153 -181t-188 -103.5t-200.5 -35q-191 0 -315 79l6 48q128 -86 314 -86q92 0 183 31.5t171.5 92.5t140 161.5t81.5 226.5h-754l6 41h753q14 126 -17 226t-94.5 161t-145 93 t-173.5 32q-187 0 -339 -86l6 48q150 79 338 79z" glyph-name="afii10095" horiz-adv-x="1281" unicode="э"/><glyph d="M1223 1137q101 0 191 -35.5t159 -103.5t101 -180.5t13 -254.5q-16 -117 -61.5 -214t-108.5 -162.5t-140.5 -110.5t-156.5 -65.5t-159 -20.5q-78 0 -150 19.5t-136 63.5t-108 107t-64 156.5t-8 206.5h-332l-76 -543h-41l76 543l3 20l79 563h41l-76 -542h332 q23 136 87.5 244.5t152 174t185.5 100t197 34.5zM1646 563q18 131 -11 235.5t-93 168t-147.5 96.5t-178 33t-186.5 -33t-174 -96.5t-140.5 -168t-76.5 -235.5q-15 -109 1.5 -199t57 -150.5t100 -102.5t127.5 -61t142 -19q75 0 148 19t145 61t129.5 102.5t100 150.5t56.5 199 z" glyph-name="afii10096" horiz-adv-x="1870" unicode="ю"/><glyph d="M646 1126h439l-157 -1126h-41l61 442q-239 0 -390 32l-362 -474h-49l370 483q-151 39 -213.5 118t-44.5 204q22 150 126 235.5t261 85.5zM300 805q-15 -113 43.5 -182.5t207.5 -104t403 -34.5l85 601h-398q-141 0 -232 -74t-109 -206z" glyph-name="afii10097" horiz-adv-x="1231" unicode="я"/><glyph d="M691 1366l-12 -86h-86l12 86h86zM1018 1366l-12 -86h-86l12 86h86zM1211 563h-986q-15 -109 6 -199.5t66.5 -150.5t110.5 -102t134.5 -61t141.5 -19q187 0 339 86l-7 -48q-146 -79 -338 -79q-77 0 -152 20.5t-145 66t-119 110.5t-71.5 162t-6.5 214q19 141 80 254 t145 181t178 103.5t191 35.5q78 0 150 -22t135.5 -67.5t104.5 -113.5t55.5 -160.5t-12.5 -210.5zM772 1096q-69 0 -136.5 -18.5t-132 -58.5t-117.5 -97t-94 -139t-60 -179h945q23 120 -5 217.5t-90.5 155t-142.5 88.5t-167 31z" glyph-name="afii10071" horiz-adv-x="1397" unicode="ё"/><glyph d="M969 1587l-311 -307h-51l307 307h55zM919 1126l-6 -41h-573l-153 -1085h-41l158 1126h615z" glyph-name="afii10100" horiz-adv-x="962" unicode="ѓ"/><glyph d="M325 1434h86l-10 -66h-86zM345 1126l-159 -1128q-16 -117 -63.5 -168t-145.5 -51q-42 0 -79 8l6 38q32 -5 80 -5q83 0 116 42.5t46 137.5l158 1126h41z" glyph-name="afii10105" horiz-adv-x="491" unicode="ј"/><glyph d="M1071 1587l-310 -307h-51l307 307h54zM187 0h-41l158 1126h41zM1123 1126l-792 -563l635 -563h-69l-631 563l789 563h68z" glyph-name="afii10109" horiz-adv-x="1167" unicode="ќ"/><glyph d="M347 1434h553q68 0 127 -22.5t104.5 -66t66.5 -116.5t7 -164q-17 -129 -85 -214t-166 -124q112 -27 174.5 -117t39.5 -241q-26 -178 -144.5 -273.5t-262.5 -95.5h-615zM383 1393l-92 -656h512q50 0 96 10.5t90.5 35t79 61.5t60 93.5t35.5 127.5q23 166 -55.5 247 t-213.5 81h-512zM766 41q63 0 120.5 18.5t108.5 56.5t85.5 102.5t46.5 150.5q12 88 -4.5 153.5t-57 102.5t-92 54t-115.5 17h-573l-92 -655h573zM553 -256h86l-12 -86h-86z" glyph-name="uni1E04" horiz-adv-x="1359" unicode="Ḅ"/><glyph d="M1273 563q-16 -117 -59.5 -214t-103 -162.5t-134 -110.5t-151.5 -65.5t-157 -20.5q-159 0 -280 82.5t-157 242.5l-45 -315h-40l216 1536h41l-102 -728q81 160 226 244.5t302 84.5q101 0 188.5 -35.5t152.5 -103.5t94 -181t9 -254zM674 31q75 0 146.5 19t139.5 61 t123 102.5t94.5 151t54.5 198.5q18 131 -8 235.5t-86 168t-140 96.5t-175 33q-92 0 -180.5 -33t-166 -95.5t-133 -164.5t-76.5 -230l-2 -20q-19 -135 7.5 -238.5t87.5 -164t140.5 -90t173.5 -29.5zM571 -256h86l-12 -86h-86z" glyph-name="uni1E05" unicode="ḅ"/><glyph d="M1377 717q-25 -179 -97.5 -318.5t-178 -225.5t-233.5 -129.5t-271 -43.5h-451l201 1434h451q115 0 211.5 -27.5t175 -83.5t127.5 -141.5t68 -201.5t-3 -263zM602 41q108 0 205.5 25.5t186 79.5t157.5 132t117.5 190.5t67.5 248.5q24 169 -7.5 300.5t-108 212.5 t-184.5 122t-243 41h-410l-190 -1352h409zM602 -256h86l-12 -86h-86z" glyph-name="uni1E0C" horiz-adv-x="1519" unicode="Ḍ"/><glyph d="M184 563q20 141 81 254t145.5 181t181 103.5t198.5 35.5q158 0 278.5 -84.5t157.5 -244.5l102 728h41l-216 -1536h-40l43 315q-81 -161 -225.5 -243t-302.5 -82q-100 0 -187 33.5t-153.5 100.5t-95 180.5t-8.5 258.5zM634 31q94 0 181.5 29.5t166 90t133.5 164t75 238.5 l2 20q16 128 -11 230t-87 164.5t-139 95.5t-172 33q-94 0 -183.5 -33t-167.5 -96.5t-133 -168t-74 -235.5q-16 -113 -0.5 -200t52 -149.5t93.5 -103t123 -60t141 -19.5zM530 -256h86l-12 -86h-86z" glyph-name="uni1E0D" unicode="ḍ"/><glyph d="M1310 1434h41l-201 -1434h-41l97 696h-921l-98 -696h-41l201 1434h41l-97 -697h921zM569 -256h86l-12 -86h-86z" glyph-name="uni1E24" horiz-adv-x="1454" unicode="Ḥ"/><glyph d="M186 0h-40l216 1536h41l-102 -728q52 106 147.5 183t200.5 111.5t211 34.5q72 0 132 -15.5t111 -49.5t81.5 -88.5t44 -134t-2.5 -183.5l-93 -666h-41l93 666q16 117 -2.5 202t-66.5 134t-113 71.5t-149 22.5q-75 0 -148 -17.5t-145.5 -57t-130 -97t-100.5 -142.5 t-60 -188zM561 -256h86l-12 -86h-86z" glyph-name="uni1E25" horiz-adv-x="1436" unicode="ḥ"/><glyph d="M388 1434l-195 -1393h870l-5 -41h-912l201 1434h41zM523 -256h86l-12 -86h-86z" glyph-name="uni1E36" horiz-adv-x="1320" unicode="Ḷ"/><glyph d="M362 1536h41l-216 -1536h-41zM88 -256h86l-12 -86h-86z" glyph-name="uni1E37" horiz-adv-x="491" unicode="ḷ"/><glyph d="M1384 1894l-310 -307h-51l307 307h54zM1639 1434h67l-201 -1434h-41l196 1393l-780 -1188h-51l-446 1188l-196 -1393h-41l201 1434h67l446 -1189z" glyph-name="uni1E3E" horiz-adv-x="1809" unicode="Ḿ"/><glyph d="M1555 1587l-310 -307h-51l307 307h54zM1693 1137q400 0 335 -471l-94 -666h-41l94 666q32 230 -48 330t-252 100q-68 0 -135 -17.5t-133 -56.5t-120.5 -95.5t-95.5 -140t-58 -184.5l-84 -602h-41l93 666q32 230 -48 330t-252 100q-68 0 -135.5 -17.5t-134.5 -57t-121 -97 t-94.5 -142.5t-57.5 -188l-84 -594h-40l158 1126h41l-44 -318q76 160 216.5 244.5t301.5 84.5q345 0 344 -351q37 106 125.5 188t194.5 122.5t210 40.5z" glyph-name="uni1E3F" horiz-adv-x="2238" unicode="ḿ"/><glyph d="M881 1673h86l-13 -86h-86zM1392 1434h41l-201 -1434h-56l-795 1382l-194 -1382h-41l201 1434h56l795 -1383z" glyph-name="uni1E44" horiz-adv-x="1536" unicode="Ṅ"/><glyph d="M788 1366h86l-12 -86h-86zM186 0h-40l158 1126h41l-44 -318q52 106 147.5 183t200.5 111.5t211 34.5q72 0 132 -15.5t111 -49.5t81.5 -88.5t44 -134t-2.5 -183.5l-93 -666h-41l93 666q16 117 -2.5 202t-66.5 134t-113 71.5t-149 22.5q-75 0 -148 -17.5t-145.5 -57 t-130 -97t-100.5 -142.5t-60 -188z" glyph-name="uni1E45" horiz-adv-x="1436" unicode="ṅ"/><glyph d="M1392 1434h41l-201 -1434h-56l-795 1382l-194 -1382h-41l201 1434h56l795 -1383zM610 -256h86l-12 -86h-86z" glyph-name="uni1E46" horiz-adv-x="1536" unicode="Ṇ"/><glyph d="M186 0h-40l158 1126h41l-44 -318q52 106 147.5 183t200.5 111.5t211 34.5q72 0 132 -15.5t111 -49.5t81.5 -88.5t44 -134t-2.5 -183.5l-93 -666h-41l93 666q16 117 -2.5 202t-66.5 134t-113 71.5t-149 22.5q-75 0 -148 -17.5t-145.5 -57t-130 -97t-100.5 -142.5t-60 -188 zM561 -256h86l-12 -86h-86z" glyph-name="uni1E47" horiz-adv-x="1436" unicode="ṇ"/><glyph d="M110 168q148 -136 435 -136q118 0 234 40.5t198.5 113t95.5 157.5q10 67 -7.5 118.5t-45.5 83.5t-101.5 64t-124.5 48t-164 48q-5 1 -7 2q-100 28 -171 58t-127 72t-79 99t-12 129q28 172 172.5 275.5t377.5 103.5q195 0 342 -98l-8 -51q-142 108 -340 108 q-215 0 -347 -92t-156 -247q-9 -55 9 -101.5t51 -78t95 -61t118 -48.5t143 -44q99 -28 164 -51.5t124 -56t89.5 -70t43 -90t2.5 -120.5q-15 -99 -105.5 -181.5t-216 -126.5t-253.5 -44q-283 0 -439 124zM481 -256h86l-12 -86h-86z" glyph-name="uni1E62" horiz-adv-x="1308" unicode="Ṣ"/><glyph d="M122 117q71 -39 173.5 -62.5t207.5 -23.5q93 0 180 30t146.5 85.5t68.5 121.5q5 36 -1 67t-18.5 53.5t-40 43.5t-52.5 34.5t-70.5 29.5t-81 26t-94.5 27q-164 43 -244.5 116t-64.5 188q18 132 136.5 208t307.5 76t315 -79l-7 -48q-128 86 -314 86q-169 0 -274.5 -64 t-122.5 -180q-15 -103 66.5 -164t261.5 -111q80 -22 131 -40.5t98.5 -44t71.5 -55.5t34.5 -72t3.5 -97q-17 -117 -151.5 -197.5t-290.5 -80.5q-110 0 -212 21t-170 58zM420 -256h86l-12 -86h-86z" glyph-name="uni1E63" horiz-adv-x="1164" unicode="ṣ"/><glyph d="M1156 1434l-5 -41h-467l-195 -1393h-40l194 1393h-465l5 41h973zM378 -342l12 86h86l-12 -86h-86z" glyph-name="uni1E6C" horiz-adv-x="1095" unicode="Ṭ"/><glyph d="M678 0h-215q-84 0 -121.5 59.5t-23.5 161.5l122 864h-182l5 41h182l32 226h41l-32 -226h350l-6 -41h-349l-122 -864q-11 -82 20 -131t92 -49h212zM384 -256h86l-12 -86h-86z" glyph-name="uni1E6D" horiz-adv-x="982" unicode="ṭ"/><glyph d="M826 1894h55l219 -307h-51zM1879 1434h43l-620 -1434h-52l-208 1360l-588 -1360h-52l-219 1434h43l210 -1373l595 1373h43l210 -1373z" glyph-name="Wgrave" horiz-adv-x="1861" unicode="Ẁ"/><glyph d="M684 1587h54l219 -307h-51zM1573 1126h46l-499 -1126h-50l-170 1052l-466 -1052h-50l-182 1126h46l167 -1078l472 1078h47l167 -1078z" glyph-name="wgrave" horiz-adv-x="1662" unicode="ẁ"/><glyph d="M1410 1894l-310 -307h-51l307 307h54zM1879 1434h43l-620 -1434h-52l-208 1360l-588 -1360h-52l-219 1434h43l210 -1373l595 1373h43l210 -1373z" glyph-name="Wacute" horiz-adv-x="1861" unicode="Ẃ"/><glyph d="M1268 1587l-311 -307h-51l307 307h55zM1573 1126h46l-499 -1126h-50l-170 1052l-466 -1052h-50l-182 1126h46l167 -1078l472 1078h47l167 -1078z" glyph-name="wacute" horiz-adv-x="1662" unicode="ẃ"/><glyph d="M880 1673h86l-13 -86h-86zM1206 1673h86l-12 -86h-86zM1879 1434h43l-620 -1434h-52l-208 1360l-588 -1360h-52l-219 1434h43l210 -1373l595 1373h43l210 -1373z" glyph-name="Wdieresis" horiz-adv-x="1861" unicode="Ẅ"/><glyph d="M737 1366h86l-12 -86h-86zM1064 1366h86l-12 -86h-86zM1573 1126h46l-499 -1126h-50l-170 1052l-466 -1052h-50l-182 1126h46l167 -1078l472 1078h47l167 -1078z" glyph-name="wdieresis" horiz-adv-x="1662" unicode="ẅ"/><glyph d="M1330 1434l-5 -41l-1123 -1352h933l-6 -41h-983l6 41l1123 1352h-933l5 41h983zM547 -342l12 86h86l-12 -86h-86z" glyph-name="uni1E92" horiz-adv-x="1433" unicode="Ẓ"/><glyph d="M1164 1126l-5 -41l-995 -1044h848l-5 -41h-902l6 41l995 1044h-848l5 41h901zM465 -342l12 86h86l-12 -86h-86z" glyph-name="uni1E93" horiz-adv-x="1269" unicode="ẓ"/><glyph d="M1201 0h-44l-99 372h-828l-203 -372h-44l784 1434h51zM253 413h794l-261 969zM501 -342l12 86h86l-12 -86h-86z" glyph-name="uni1EA0" horiz-adv-x="1341" unicode="Ạ"/><glyph d="M766 1137q63 0 114 -6.5t96.5 -20.5t77 -37t57.5 -58t36.5 -81t13.5 -106.5t-9 -136.5l-97 -691h-41l26 188q-29 -32 -74.5 -63.5t-112.5 -63t-159 -51.5t-192 -20q-198 0 -287.5 75.5t-69.5 223.5q17 121 88.5 192.5t192 99t290 30.5t382.5 -13l14 103q24 219 -53 307 t-299 88q-94 0 -191.5 -23.5t-167.5 -62.5l8 48q68 36 163.5 57.5t193.5 21.5zM1049 250l43 306q-214 15 -376.5 13.5t-274.5 -26t-175.5 -86.5t-79.5 -167q-18 -135 64.5 -197t269.5 -62q92 0 179.5 21t154.5 55t115 70t80 73zM425 -256h86l-12 -86h-86z" glyph-name="uni1EA1" horiz-adv-x="1358" unicode="ạ"/><glyph d="M193 41h911l-5 -41h-953l201 1434h952l-5 -41h-911l-92 -656h829l-6 -41h-829zM544 -256h86l-13 -86h-86z" glyph-name="uni1EB8" horiz-adv-x="1402" unicode="Ẹ"/><glyph d="M1211 563h-986q-15 -109 6 -199.5t66.5 -150.5t110.5 -102t134.5 -61t141.5 -19q187 0 339 86l-7 -48q-146 -79 -338 -79q-77 0 -152 20.5t-145 66t-119 110.5t-71.5 162t-6.5 214q19 141 80 254t145 181t178 103.5t191 35.5q78 0 150 -22t135.5 -67.5t104.5 -113.5 t55.5 -160.5t-12.5 -210.5zM772 1096q-69 0 -136.5 -18.5t-132 -58.5t-117.5 -97t-94 -139t-60 -179h945q23 120 -5 217.5t-90.5 155t-142.5 88.5t-167 31zM589 -342l12 86h86l-12 -86h-86z" glyph-name="uni1EB9" horiz-adv-x="1397" unicode="ẹ"/><glyph d="M578 1588q7 68 52 115.5t112 47.5q38 0 73.5 -20.5t59 -45t55 -45t59.5 -20.5q36 0 68 37.5t39 84.5h41q-10 -68 -58 -115t-110 -47q-28 0 -61.5 20.5t-58.5 45t-56 44.5t-57 20q-45 -1 -78 -37t-41 -86zM193 41h911l-5 -41h-953l201 1434h952l-5 -41h-911l-92 -656h829 l-6 -41h-829z" glyph-name="uni1EBC" horiz-adv-x="1402" unicode="Ẽ"/><glyph d="M691 1403q-45 -1 -78 -37t-41 -86l-40 1q7 68 52.5 115.5t112.5 47.5q38 0 73.5 -20.5t59 -45t54.5 -45t60 -20.5q36 0 67.5 37.5t39.5 84.5h41q-10 -68 -58 -115t-110 -47q-28 0 -61.5 20.5t-58.5 45t-56 44.5t-57 20zM1211 563h-986q-15 -109 6 -199.5t66.5 -150.5 t110.5 -102t134.5 -61t141.5 -19q187 0 339 86l-7 -48q-146 -79 -338 -79q-77 0 -152 20.5t-145 66t-119 110.5t-71.5 162t-6.5 214q19 141 80 254t145 181t178 103.5t191 35.5q78 0 150 -22t135.5 -67.5t104.5 -113.5t55.5 -160.5t-12.5 -210.5zM772 1096 q-69 0 -136.5 -18.5t-132 -58.5t-117.5 -97t-94 -139t-60 -179h945q23 120 -5 217.5t-90.5 155t-142.5 88.5t-167 31z" glyph-name="uni1EBD" horiz-adv-x="1397" unicode="ẽ"/><glyph d="M187 0h-41l201 1434h41zM88 -256h86l-12 -86h-86z" glyph-name="uni1ECA" horiz-adv-x="491" unicode="Ị"/><glyph d="M325 1434h86l-10 -66h-86zM304 1126h41l-158 -1126h-41zM88 -256h86l-12 -86h-86z" glyph-name="uni1ECB" horiz-adv-x="491" unicode="ị"/><glyph d="M1545.5 716.5q-19.5 -142.5 -75.5 -263t-133 -204.5t-173.5 -143.5t-197.5 -87.5t-203.5 -28t-195.5 28t-172 87.5t-132.5 143.5t-75 204.5t-2 263t75 263.5t133 205t174 143.5t197 87.5t203 28t195.5 -28t172 -87.5t133 -143.5t75.5 -205t2 -263.5zM769 31 q79 0 158.5 19t156 55.5t145 94.5t124.5 132.5t95.5 173t55.5 211.5q24 167 -13 301.5t-117.5 216.5t-186.5 125t-225 43q-79 0 -158.5 -19t-156.5 -56t-145.5 -94.5t-124 -132t-95 -173.5t-56.5 -211q-24 -167 13 -301.5t117.5 -216.5t186.5 -125t226 -43zM686 -256h86 l-12 -86h-86z" glyph-name="uni1ECC" horiz-adv-x="1687" unicode="Ọ"/><glyph d="M1273 563q-16 -117 -61.5 -214t-108.5 -162.5t-140 -110.5t-156.5 -65.5t-159.5 -20.5t-153 20.5t-137.5 65.5t-108 110.5t-62 162.5t-2.5 214q19 141 83.5 254t153 181t188 103.5t200.5 35.5t191.5 -35.5t159.5 -103.5t100.5 -181t12.5 -254zM653 31q75 0 148 19t145 61 t130 102.5t100 151t56 198.5q18 131 -11 235.5t-93 168t-147.5 96.5t-177.5 33t-186.5 -33t-174.5 -96.5t-140 -168t-77 -235.5q-15 -109 2 -199t57.5 -150.5t99.5 -102.5t127 -61t142 -19zM571 -256h86l-12 -86h-86z" glyph-name="uni1ECD" unicode="ọ"/><glyph d="M1320 1434l-128 -912q-39 -281 -170 -406.5t-391 -125.5t-355.5 126t-56.5 406l128 912h41l-128 -912q-37 -263 49 -377t328 -114t359.5 114t154.5 377l128 912h41zM554 -256h86l-12 -86h-86z" glyph-name="uni1EE4" horiz-adv-x="1423" unicode="Ụ"/><glyph d="M1250 1126h40l-157 -1126h-41l44 318q-52 -106 -147.5 -183t-200.5 -111t-211 -34q-72 0 -132 15t-111 49t-82 89t-44 134t3 184l93 665h41l-93 -665q-16 -117 2 -202.5t66.5 -134t113.5 -71t149 -22.5q75 0 148 17.5t145 56.5t130 96.5t101 142.5t59 188zM527 -256h86 l-12 -86h-86z" glyph-name="uni1EE5" horiz-adv-x="1436" unicode="ụ"/><glyph d="M505 1894h54l219 -307h-51zM1231 1434h48l-641 -811l-87 -623h-41l87 623l-414 811h48l393 -767z" glyph-name="Ygrave" horiz-adv-x="1218" unicode="Ỳ"/><glyph d="M443 1587h55l219 -307h-51zM1094 1126h44l-593 -1059q-35 -62 -64 -108t-79 -107t-100 -102t-121 -74t-150 -43l6 41q71 10 134 40t108.5 66t90 91t71.5 97.5t62 104.5l-301 1053h44l285 -1001z" glyph-name="ygrave" horiz-adv-x="1181" unicode="ỳ"/><glyph d="M1231 1434h48l-641 -811l-87 -623h-41l87 623l-414 811h48l393 -767zM452 -256h86l-13 -86h-86z" glyph-name="uni1EF4" horiz-adv-x="1218" unicode="Ỵ"/><glyph d="M1094 1126h44l-593 -1059q-35 -62 -64 -108t-79 -107t-100 -102t-121 -74t-150 -43l6 41q71 10 134 40t108.5 66t90 91t71.5 97.5t62 104.5l-301 1053h44l285 -1001zM831 -221h87l-13 -86h-86z" glyph-name="uni1EF5" horiz-adv-x="1181" unicode="ỵ"/><glyph d="M485 1588q7 68 52.5 115.5t112.5 47.5q38 0 73.5 -20.5t59 -45t54.5 -45t60 -20.5q36 0 67.5 37.5t39.5 84.5h40q-10 -68 -57.5 -115t-109.5 -47q-28 0 -61.5 20.5t-58.5 45t-56 44.5t-57 20q-45 -1 -78.5 -37t-40.5 -86zM1231 1434h48l-641 -811l-87 -623h-41l87 623 l-414 811h48l393 -767z" glyph-name="uni1EF8" horiz-adv-x="1218" unicode="Ỹ"/><glyph d="M424 1281q7 68 52 115.5t113 47.5q38 0 73 -20.5t58.5 -45t55 -45t60.5 -20.5q36 0 67.5 37.5t38.5 84.5h41q-10 -68 -57.5 -115t-110.5 -47q-28 0 -61 20.5t-58 45t-56.5 44.5t-56.5 20q-45 -1 -78.5 -37t-40.5 -86zM1094 1126h44l-593 -1059q-35 -62 -64 -108t-79 -107 t-100 -102t-121 -74t-150 -43l6 41q71 10 134 40t108.5 66t90 91t71.5 97.5t62 104.5l-301 1053h44l285 -1001z" glyph-name="uni1EF9" horiz-adv-x="1181" unicode="ỹ"/><glyph d="M228 584h922l-6 -41h-922z" glyph-name="endash" horiz-adv-x="1372" unicode="–"/><glyph d="M228 584h1639l-6 -41h-1639z" glyph-name="emdash" horiz-adv-x="2088" unicode="—"/><glyph d="M355 1127h-51l130 410h31z" glyph-name="quoteleft" horiz-adv-x="552" unicode="‘"/><glyph d="M414 1536h51l-130 -410h-31z" glyph-name="quoteright" horiz-adv-x="552" unicode="’"/><glyph d="M210 86h51l-130 -410h-31z" glyph-name="quotesinglbase" horiz-adv-x="552" unicode="‚"/><glyph d="M355 1126h-51l130 410h31zM540 1126h-52l130 410h31z" glyph-name="quotedblleft" horiz-adv-x="737" unicode="“"/><glyph d="M414 1536h51l-130 -410h-31zM598 1536h51l-130 -410h-31z" glyph-name="quotedblright" horiz-adv-x="737" unicode="”"/><glyph d="M210 86h51l-130 -410h-31zM394 86h51l-130 -410h-30z" glyph-name="quotedblbase" horiz-adv-x="737" unicode="„"/><glyph d="M967 1249l-5 -41h-303l-76 -542h-41l76 542h-302l6 41h302l41 287h41l-41 -287h302z" glyph-name="dagger" horiz-adv-x="1095" unicode="†"/><glyph d="M962 1208h-303l-45 -317h302l-6 -41h-302l-40 -287h-41l40 287h-302l6 41h302l45 317h-302l6 41h303l40 287h41l-40 -287h301z" glyph-name="daggerdbl" horiz-adv-x="1095" unicode="‡"/><glyph d="M247 717h307l-43 -307h-307z" glyph-name="bullet" horiz-adv-x="757" unicode="•"/><glyph d="M159 86h86l-13 -86h-86zM501 86h86l-13 -86h-86zM843 86h86l-13 -86h-86z" glyph-name="ellipsis" horiz-adv-x="1220" unicode="…"/><glyph d="M866 1008q-31 -216 -128.5 -326.5t-243 -110.5t-212 110.5t-35.5 326.5q30 216 127.5 326t243 110t212 -110t36.5 -326zM1419 1434h47l-966 -1434h-46zM500 612q128 0 214 100t113 296t-30.5 295.5t-185.5 99.5t-213.5 -100t-111.5 -295q-28 -196 29 -296t185 -100z M1672 430q-31 -216 -128.5 -326t-243 -110t-212 110t-35.5 326q30 216 127.5 326t243 110t212 -110t36.5 -326zM2364 430q-31 -216 -128.5 -326t-243 -110t-212 110t-35.5 326q30 216 127.5 326t243 110t212 -110t36.5 -326zM1306 35q128 0 214 99.5t113 295.5t-30.5 295.5 t-185.5 99.5t-213.5 -99.5t-111.5 -295.5q-28 -196 29 -295.5t185 -99.5zM1998 35q128 0 214 99.5t114 295.5q27 196 -31 295.5t-186 99.5t-213.5 -99.5t-111.5 -295.5q-28 -196 29 -295.5t185 -99.5z" glyph-name="perthousand" horiz-adv-x="2567" unicode="‰"/><glyph d="M672 947l-392 -384l283 -384h-54l-284 384l392 384h55z" glyph-name="guilsinglleft" horiz-adv-x="842" unicode="‹"/><glyph d="M280 947h54l283 -384l-392 -384h-54l392 384z" glyph-name="guilsinglright" horiz-adv-x="842" unicode="›"/><glyph d="M612 1434q216 0 327.5 -111.5t83.5 -308.5q-28 -191 -153.5 -300.5t-304.5 -109.5q-41 0 -81 6l-47 -303h-30l44 355h1l35 284h50l-47 -295q39 -6 80 -6q163 0 275 98t137 270q26 180 -75 280t-300 100q-187 0 -339 -86l7 48q147 79 337 79zM338 0l9 66h86l-9 -66h-86z " glyph-name="uni203D" horiz-adv-x="1123" unicode="‽"/><glyph d="M887 1434h47l-967 -1434h-46z" glyph-name="fraction" horiz-adv-x="812" unicode="⁄"/><glyph d="M895 1212q-31 -216 -128.5 -326t-243 -110t-212 110t-36.5 326t128 326.5t243.5 110.5t212 -110.5t36.5 -326.5zM528 817q128 0 214 100t114 295q27 196 -30.5 296t-185.5 100t-213.5 -100t-112.5 -296q-28 -196 29 -295.5t185 -99.5z" glyph-name="uni2070" horiz-adv-x="988" unicode="⁰"/><glyph d="M889 1056l-6 -40h-169l-33 -238h-36l33 238h-430l6 40l507 582h41l-82 -582h169zM306 1056h378l74 526z" glyph-name="uni2074" horiz-adv-x="1003" unicode="⁴"/><glyph d="M409 1638h467l-7 -41h-428l-73 -339q118 30 230 30q131 0 197.5 -62t49.5 -189q-19 -136 -103 -200.5t-237 -64.5q-82 0 -156.5 23t-122.5 68l29 35q45 -42 112.5 -64t142.5 -21q141 1 208.5 53t85.5 171q15 106 -39.5 158t-171.5 52q-102 0 -242 -29l-29 12z" glyph-name="uni2075" horiz-adv-x="962" unicode="⁵"/><glyph d="M908 1069q-13 -96 -72.5 -165.5t-136 -100.5t-158.5 -31q-60 0 -114.5 18.5t-97 54t-63.5 93.5t-11 131q6 45 16.5 74t31 64.5t68 88t112.5 119.5t181 183q27 27 39 40h55l-313 -311q84 39 179 39q60 0 114.5 -17.5t97.5 -52t62.5 -93.5t9.5 -134zM545.5 812 q114.5 0 209 66.5t111.5 190.5q17 127 -58 192t-190 65q-71 0 -138 -27.5t-119.5 -88t-63.5 -141.5q-16 -124 59 -190.5t189.5 -66.5z" glyph-name="uni2076" horiz-adv-x="1021" unicode="⁶"/><glyph d="M336 1638h536l-6 -41q-330 -357 -465 -819h-42q131 446 446 819h-475z" glyph-name="uni2077" horiz-adv-x="905" unicode="⁷"/><glyph d="M863 1012q-11 -81 -67.5 -139t-127.5 -82.5t-148 -24.5q-55 0 -105.5 15t-92 43t-62.5 77t-12 111q13 93 80.5 154t158.5 83q-66 20 -103.5 68.5t-27.5 120.5q13 95 95.5 147.5t191.5 52.5q111 0 178.5 -52.5t54.5 -147.5q-10 -72 -62 -120t-124 -69q85 -23 135.5 -83.5 t37.5 -153.5zM399 1438q-11 -80 49 -124.5t144 -44.5q83 0 155.5 44.5t83.5 124.5q11 79 -45 121t-148 42t-160 -42t-79 -121zM526.5 806q104.5 0 191 52t101.5 154q13 99 -59 156.5t-174 57.5q-65 0 -127 -23.5t-109.5 -74t-56.5 -116.5q-15 -101 57 -153.5t176.5 -52.5z " glyph-name="uni2078" horiz-adv-x="984" unicode="⁸"/><glyph d="M294 1341q13 96 73 166t136.5 100.5t158.5 30.5q60 0 114.5 -18t97 -53.5t63 -94t10.5 -131.5q-14 -100 -71 -172.5t-336 -355.5q-26 -27 -40 -41h-55l312 311q-84 -39 -178 -39q-60 0 -114.5 17.5t-97.5 52.5t-63 93.5t-10 133.5zM656.5 1598q-114.5 0 -209 -66.5 t-111.5 -190.5q-17 -127 58.5 -192t190.5 -65q71 0 138 28t119 88.5t63 140.5q16 124 -59 190.5t-189.5 66.5z" glyph-name="uni2079" horiz-adv-x="1021" unicode="⁹"/><glyph d="M742 123q-31 -216 -128.5 -326t-243 -110t-212 110t-35.5 326q30 216 127.5 326t243 110t212 -110t36.5 -326zM376 -272q128 0 214 99.5t113 295.5t-30.5 295.5t-185.5 99.5t-213.5 -100t-111.5 -295q-28 -196 29 -295.5t185 -99.5z" glyph-name="uni2080" horiz-adv-x="988" unicode="₀"/><glyph d="M315 -266h207l-5 -41h-455l6 41h206l110 777q-105 -48 -180 -68l6 43q80 22 180 67h41z" glyph-name="uni2081" horiz-adv-x="823" unicode="₁"/><glyph d="M676 -266l-5 -41h-609l6 41q53 43 150.5 116t170.5 129t149 122t120.5 127t52.5 111q13 92 -46 144t-188 52q-137 0 -250 -83l-24 29q127 94 280 94q146 0 215 -63t55 -172q-8 -55 -52 -118.5t-120 -131.5t-143 -121.5t-166 -126.5t-143 -108h547z" glyph-name="uni2082" horiz-adv-x="976" unicode="₂"/><glyph d="M205 565h546l-6 -41l-413 -349q53 13 109 13q128 0 201 -66t57 -179q-37 -260 -338 -260q-80 0 -159 27t-127 72l35 31q46 -42 116 -66.5t142 -22.5q136 1 205.5 54.5t84.5 165.5q14 101 -45.5 152t-177.5 51q-86 0 -154 -32l-23 48l428 361h-486z" glyph-name="uni2083" horiz-adv-x="970" unicode="₃"/><glyph d="M736 -30l-6 -40h-169l-33 -237h-35l32 237h-430l6 40l507 583h41l-82 -583h169zM154 -30h377l74 527z" glyph-name="uni2084" horiz-adv-x="1003" unicode="₄"/><glyph d="M256 553h467l-6 -41h-428l-74 -339q118 30 230 30q131 0 198 -62t49 -189q-19 -136 -102.5 -200.5t-237.5 -64.5q-82 0 -156 23t-122 68l28 35q45 -42 113 -64t142 -21q141 1 209 52.5t85 171.5q15 106 -39.5 158t-171.5 52q-102 0 -241 -30l-30 12z" glyph-name="uni2085" horiz-adv-x="962" unicode="₅"/><glyph d="M757 -10q-13 -96 -72.5 -166t-136.5 -100.5t-159 -30.5q-60 0 -114.5 18.5t-97 53.5t-63.5 93.5t-11 131.5q6 45 16.5 74t31 64.5t68 87.5t112.5 119t181 184l40 40h54l-312 -311q84 39 178 39q60 0 114.5 -17.5t97.5 -52.5t63 -93.5t10 -133.5zM394.5 -267 q114.5 0 208.5 66.5t112 190.5q17 127 -58 192t-190 65q-71 0 -138.5 -28t-119.5 -88t-64 -141q-16 -124 59.5 -190.5t190 -66.5z" glyph-name="uni2086" horiz-adv-x="1021" unicode="₆"/><glyph d="M183 553h537l-6 -41q-330 -357 -465 -819h-42q131 446 445 819h-475z" glyph-name="uni2087" horiz-adv-x="905" unicode="₇"/><glyph d="M712 -68q-11 -81 -67.5 -138.5t-128 -82t-147.5 -24.5q-55 0 -106 14.5t-92.5 43t-62.5 77.5t-12 110q13 93 81 154t159 84q-66 20 -103.5 68.5t-27.5 119.5q13 95 95 148t192 53q111 0 178 -52.5t54 -148.5q-10 -72 -62 -120t-123 -68q85 -23 135.5 -84t37.5 -154z M248 358q-11 -80 48.5 -124.5t143.5 -44.5q83 0 156 45t84 124t-45 121t-148.5 42t-160 -42t-78.5 -121zM374.5 -273q104.5 0 191 52t102.5 153q13 99 -59 156.5t-175 57.5q-65 0 -126.5 -23.5t-109 -73.5t-57.5 -117q-15 -101 57 -153t176.5 -52z" glyph-name="uni2088" horiz-adv-x="984" unicode="₈"/><glyph d="M142 262q13 96 73 166t136.5 100.5t158.5 30.5q60 0 115 -18.5t97.5 -53.5t63 -93.5t10.5 -131.5q-14 -100 -71 -173t-337 -355q-26 -27 -40 -41h-54l311 311q-84 -39 -178 -39q-60 0 -114.5 17.5t-97.5 52.5t-63 93.5t-10 133.5zM505 519q-115 0 -209 -66.5t-112 -190.5 q-17 -127 58.5 -192t190.5 -65q71 0 138 27.5t119 88t64 141.5q16 124 -59 190.5t-190 66.5z" glyph-name="uni2089" horiz-adv-x="1021" unicode="₉"/><glyph d="M1095 1403q-105 0 -210 -33.5t-200 -97.5t-172 -168t-119 -234h868l-6 -41h-874q-15 -61 -23 -112q-7 -58 -9 -113h875l-6 -41h-868q4 -130 52.5 -234t125.5 -168t172.5 -97t200.5 -33q198 0 373 107l-7 -50q-176 -98 -372 -98q-90 0 -174 22t-158.5 68.5t-129.5 113.5 t-88.5 162t-36.5 207h-125l6 41h119q2 54 9 113q7 51 23 112h-119l5 41h125q43 140 124.5 252t183.5 180.5t214.5 105t226.5 36.5q194 0 343 -98l-7 -51q-144 108 -342 108z" glyph-name="Euro" horiz-adv-x="1559" unicode="€"/><glyph d="M347 1434h973l-5 -41h-973zM1277 1126l-5 -41h-467l-152 -1085h-41l152 1085h-465l5 41h973z" glyph-name="uni20B8" horiz-adv-x="1423" unicode="₸"/><glyph d="M1329 1434l-5 -41h-271q96 -46 140.5 -139t28.5 -221h52l-6 -41h-53q-29 -143 -135 -236t-299 -141l295 -615h-44l-291 606q-209 -43 -516 -43l6 41q457 0 679.5 92t264.5 296h-889l6 41h889q22 171 -69 265.5t-267 94.5h-503l5 41h982z" glyph-name="uni20B9" horiz-adv-x="1432" unicode="₹"/><glyph d="M1244 717h41q-26 -180 -95 -319t-170 -225t-226 -129.5t-269 -43.5h-379l140 995l-229 -20l6 41l229 20l15 113l-227 -21l5 41l228 21l34 244h41l-34 -240l750 68l-6 -41l-750 -68l-15 -113l749 68l-6 -41l-749 -68l-134 -958h337q134 0 251.5 41t213 122.5t160.5 212 t89 300.5z" glyph-name="uni20BA" horiz-adv-x="1447" unicode="₺"/><glyph d="M826 1239q249 -4 340 -131t53 -401l-100 -707h-41l100 707q36 257 -45.5 372t-311.5 119l-168 -1198h-41l168 1198q-231 -4 -344 -119t-149 -372l-100 -707h-41l100 707q39 274 165 400.5t374 131.5l28 195h41z" glyph-name="uni20BC" horiz-adv-x="1423" unicode="₼"/><glyph d="M1205 1065q-17 -129 -85 -214t-166 -124q112 -27 174.5 -117t39.5 -241q-26 -178 -144.5 -273.5t-262.5 -95.5h-36l-25 -174h-41l25 174h-307l-25 -174h-41l25 174h-190l201 1434h191l23 174h41l-23 -174h307l23 174h41l-23 -175q63 -4 117.5 -29t96 -68.5t59 -113.5 t5.5 -157zM803 737q50 0 96 10.5t90.5 35t79 61.5t60 93.5t35.5 127.5q23 166 -55.5 247t-213.5 81h-512l-92 -656h512zM1127 369q12 88 -4.5 153.5t-57 102.5t-92 54t-115.5 17h-573l-92 -655h573q63 0 120.5 18.5t108.5 56.5t85.5 102.5t46.5 150.5z" glyph-name="uni20BF" horiz-adv-x="1359" unicode="₿"/><glyph d="M902 1333q-88 60 -224 61q-66 0 -128 -21t-115.5 -63t-92 -113.5t-50.5 -163.5q-13 -92 5 -163t60 -112.5t98 -62.5t122 -21q132 0 240 58l-6 -45q-103 -55 -237 -55q-72 0 -134 24.5t-110.5 72t-70.5 126.5t-8 178q11 80 42.5 147t75 113t97.5 79t110 48t112 15 q133 0 220 -56zM1485 1434h47l-967 -1434h-46zM1830 394q-14 -101 -59 -181t-107 -126.5t-131.5 -70t-140 -23.5t-133 23.5t-111.5 70t-71.5 126.5t-8.5 181q11 80 42.5 147t75 113t97.5 79t110 48t112.5 15t108 -15t96 -48t75.5 -79t43.5 -113t1.5 -147zM1397.5 34 q63.5 0 125.5 21.5t118 63t96 113t53 162.5q12 88 -8 159.5t-63.5 114t-99.5 65t-119.5 22.5t-126 -22.5t-118 -65t-95.5 -114t-52 -159.5q-13 -91 7 -162.5t64 -113t99.5 -63t119 -21.5z" glyph-name="afii61248" horiz-adv-x="2037" unicode="℅"/><glyph d="M796 80q-66 -45 -120 -66.5t-118 -22.5q-136 -4 -192 73t-36 226l32 238q-77 -37 -190 -73l2 37q94 34 196 86l73 521q17 127 84.5 223.5t167.5 114.5q95 17 163 -32.5t79 -146.5q44 -376 -531 -710l-36 -254q-30 -262 194 -262q115 0 211 82zM412 595q89 53 163.5 108.5 t138 119.5t105.5 129.5t63 139t15 148.5q-7 85 -64.5 129.5t-141.5 26.5q-87 -19 -139 -104t-69 -199z" glyph-name="afii61289" horiz-adv-x="1047" unicode="ℓ"/><glyph d="M2522 943q-17 -127 -73.5 -226.5t-134.5 -157.5t-164.5 -88t-174.5 -30q-70 0 -133.5 18t-120 57.5t-95 97t-54.5 142.5t-1 187q14 99 53 183t94 142t122 98t137 59t140 19q71 0 135 -19t120 -59t94.5 -98t54 -142t1.5 -183zM1392 1434h41l-201 -1434h-56l-795 1382 l-194 -1382h-41l201 1434h56l795 -1383zM1981 482q65 0 128.5 16.5t125.5 53t112 89t86.5 130.5t48.5 172q16 114 -9.5 204.5t-80.5 145t-127.5 83t-154.5 28.5q-65 0 -128.5 -17.5t-125 -55t-111.5 -90t-86 -130t-48 -168.5q-16 -117 9.5 -208t81.5 -144.5t127 -81 t152 -27.5zM1473 246h951l-5 -41h-952z" glyph-name="afii61352" horiz-adv-x="2694" unicode="№"/><glyph d="M831 -20q-159 0 -290.5 57.5t-216 156.5t-122.5 235t-17 288q29 204 149.5 372.5t306 266.5t397.5 98q213 0 372.5 -97t232.5 -266t45 -374q-29 -204 -149.5 -372.5t-307.5 -266.5t-400 -98zM839 20q153 0 292.5 53.5t246 145.5t177.5 221t91.5 276.5t-14.5 276.5 t-115 221.5t-205 145.5t-277.5 53t-292.5 -53t-246 -145.5t-177.5 -221.5t-92.5 -276q-28 -197 41 -356t219 -250t353 -91zM1080 1142q116 0 179 -70.5t48 -182.5q-13 -97 -76.5 -157.5t-189.5 -91t-325 -30.5l-44 -317h-41l119 849h330zM1266 889q12 92 -38.5 152 t-152.5 60h-290l-63 -451q276 0 401 57t143 182z" glyph-name="uni2117" horiz-adv-x="1829" unicode="℗"/><glyph d="M271 828q77 -71 219 -70q92 0 160 36t77 100q10 68 -37.5 101.5t-171.5 68.5q-100 29 -153 75t-42 115q12 88 80 144t183 56q108 0 193 -60l-7 -51q-79 70 -191 70q-102 0 -155 -45t-62 -114q-8 -56 40.5 -92t150.5 -64q122 -34 173 -78.5t40 -125.5q-11 -83 -90.5 -130 t-193.5 -47q-142 0 -221 55zM1674 1434h75l-100 -717h-41l95 680l-382 -578h-36l-221 578l-95 -680h-41l100 717h75l207 -562z" glyph-name="uni2120" horiz-adv-x="1852" unicode="℠"/><glyph d="M834 1434l-6 -41h-223l-95 -676h-41l95 676h-222l5 41h487zM1633 1434h75l-100 -717h-41l95 680l-382 -578h-36l-221 578l-95 -680h-41l100 717h75l207 -562z" glyph-name="trademark" horiz-adv-x="1811" unicode="™"/><glyph d="M439 614h207l-5 -41h-455l5 41h207l110 778q-105 -48 -180 -68l6 43q80 22 180 67h41zM1340 1434h48l-967 -1434h-46zM1536 240q-11 -81 -67.5 -139t-127.5 -82.5t-148 -24.5q-55 0 -106 15t-92.5 43t-62.5 77t-11 111q13 93 80.5 154t158.5 83q-66 20 -103.5 68.5 t-27.5 120.5q13 95 95 147.5t192 52.5q111 0 178.5 -52.5t53.5 -147.5q-10 -72 -61.5 -120t-123.5 -69q85 -23 135.5 -83.5t37.5 -153.5zM1072 666q-11 -80 49 -124.5t144 -44.5q83 0 155.5 44.5t83.5 124.5q11 79 -45 120.5t-148 41.5t-160 -41.5t-79 -120.5zM1199.5 34 q104.5 0 191 52t101.5 154q13 99 -59 156.5t-175 57.5q-65 0 -126.5 -23.5t-109 -74t-56.5 -116.5q-15 -101 57 -153.5t176.5 -52.5z" glyph-name="oneeighth" horiz-adv-x="1764" unicode="⅛"/><glyph d="M328 1434h545l-5 -41l-413 -350q53 13 109 14q128 0 201 -66t57 -180q-37 -260 -338 -260q-80 0 -159 27t-127 72l34 31q46 -42 116.5 -66t141.5 -23q136 1 206 54.5t85 165.5q14 101 -45.5 152.5t-177.5 51.5q-86 0 -155 -33l-22 48l428 362h-486zM1454 1434h47 l-966 -1434h-47zM1697 240q-11 -81 -67.5 -139t-127.5 -82.5t-148 -24.5q-55 0 -106 15t-92.5 43t-62.5 77t-12 111q13 93 81 154t159 83q-66 20 -103.5 68.5t-27.5 120.5q13 95 95 147.5t192 52.5q111 0 178 -52.5t54 -147.5q-10 -72 -62 -120t-123 -69q85 -23 135.5 -83.5 t37.5 -153.5zM1233 666q-11 -80 48.5 -124.5t143.5 -44.5q83 0 156 44.5t84 124.5q11 79 -45 120.5t-148.5 41.5t-160 -41.5t-78.5 -120.5zM1359.5 34q104.5 0 191 52t102.5 154q13 99 -59 156.5t-175 57.5q-65 0 -126.5 -23.5t-109 -74t-57.5 -116.5q-15 -101 57 -153.5 t176.5 -52.5z" glyph-name="threeeighths" horiz-adv-x="1925" unicode="⅜"/><glyph d="M380 1434h467l-6 -41h-428l-74 -339q118 30 230 29q131 0 198 -62t49 -188q-19 -136 -102.5 -201t-237.5 -65q-82 0 -156 23t-122 68l28 35q45 -42 113 -64t142 -21q141 1 209 53t85 172q15 106 -39.5 157.5t-171.5 51.5q-102 0 -241 -29l-30 12zM1462 1434h47 l-966 -1434h-46zM1674 240q-11 -81 -67.5 -139t-127.5 -82.5t-148 -24.5q-55 0 -105.5 15t-92 43t-62.5 77t-12 111q13 93 80.5 154t158.5 83q-66 20 -103.5 68.5t-27.5 120.5q13 95 95.5 147.5t191.5 52.5q111 0 178.5 -52.5t54.5 -147.5q-10 -72 -62 -120t-124 -69 q85 -23 135.5 -83.5t37.5 -153.5zM1210 666q-11 -80 49 -124.5t144 -44.5q83 0 155.5 44.5t83.5 124.5q11 79 -45 120.5t-148 41.5t-160 -41.5t-79 -120.5zM1337.5 34q104.5 0 191 52t101.5 154q13 99 -59 156.5t-174 57.5q-65 0 -127 -23.5t-109.5 -74t-56.5 -116.5 q-15 -101 57 -153.5t176.5 -52.5z" glyph-name="fiveeighths" horiz-adv-x="1903" unicode="⅝"/><glyph d="M1207 1434h47l-966 -1434h-46zM307 1434h537l-6 -41q-330 -357 -465 -820h-42q131 446 445 820h-475zM1420 240q-11 -81 -67.5 -139t-127.5 -82.5t-148 -24.5q-55 0 -105.5 15t-92 43t-62.5 77t-12 111q13 93 80.5 154t158.5 83q-66 20 -103.5 68.5t-27.5 120.5 q13 95 95.5 147.5t191.5 52.5q111 0 178.5 -52.5t54.5 -147.5q-10 -72 -62 -120t-124 -69q85 -23 135.5 -83.5t37.5 -153.5zM956 666q-11 -80 49 -124.5t144 -44.5q83 0 155.5 44.5t84.5 124.5q11 79 -45.5 120.5t-148.5 41.5t-160 -41.5t-79 -120.5zM1083.5 34 q104.5 0 191 52t101.5 154q13 99 -59 156.5t-174 57.5q-65 0 -127 -23.5t-109.5 -74t-56.5 -116.5q-15 -101 57 -153.5t176.5 -52.5z" glyph-name="seveneighths" horiz-adv-x="1648" unicode="⅞"/><glyph d="M776 0l-529 717l529 717h51l-515 -697h1368v-41h-1368l514 -696h-50z" glyph-name="arrowleft" horiz-adv-x="1887" unicode="←"/><glyph d="M1707 904v-50l-696 514v-1368h-41v1368l-697 -515v51l717 530z" glyph-name="arrowup" horiz-adv-x="1891" unicode="↑"/><glyph d="M1154 0h-50l514 696h-1368v41h1368l-515 697h51l529 -717z" glyph-name="arrowright" horiz-adv-x="1887" unicode="→"/><glyph d="M1661 529l-717 -529l-717 529v52l697 -515v1368h41v-1368l696 514v-51z" glyph-name="arrowdown" horiz-adv-x="1891" unicode="↓"/><glyph d="M1694 1434l529 -717l-529 -717h-50l514 696h-1846l514 -696h-50l-529 717l529 717h51l-515 -697h1846l-516 697h52z" glyph-name="arrowboth" horiz-adv-x="2426" unicode="↔"/><glyph d="M1025 -242l696 514v-50l-716 -529l-717 529v51l696 -515v1712l-696 -515v52l717 529l716 -529v-51l-696 514v-1712z" glyph-name="arrowupdn" horiz-adv-x="1994" unicode="↕"/><glyph d="M1449 353l-29 -28l-1032 1038v-964l-41 21v1014h1014l20 -41h-965z" glyph-name="uni2196" horiz-adv-x="1703" unicode="↖"/><glyph d="M362 1434h1014v-1014l-41 -21v964l-1032 -1038l-29 28l1034 1040h-966z" glyph-name="uni2197" horiz-adv-x="1622" unicode="↗"/><glyph d="M1359 1034l41 -20v-1014h-1014l-20 41h965l-1033 1039l29 29l1032 -1038v963z" glyph-name="uni2198" horiz-adv-x="1703" unicode="↘"/><glyph d="M1391 1080l-1034 -1039h966l-20 -41h-1014v1014l41 20v-963l1032 1038z" glyph-name="uni2199" horiz-adv-x="1622" unicode="↙"/><glyph d="M719 1341q58 -4 113 -24t110 -58.5t95.5 -98.5t71 -145t35.5 -197t-11 -255q-15 -117 -57 -214t-97 -162t-124 -110t-138.5 -65.5t-139 -20.5t-133.5 18t-120 57t-94.5 96.5t-54 142t-1.5 187.5q17 124 68 221.5t122 157t154 90t170 30.5q135 0 246.5 -47.5t168.5 -142.5 q-6 100 -31.5 183.5t-64 139t-88.5 94t-101 58t-105 23.5zM584 33q66 0 129 18.5t125.5 60t112.5 101.5t87.5 150.5t53.5 199.5q10 76 12 142q-36 125 -151.5 185t-270.5 60q-82 0 -156.5 -27.5t-138.5 -82t-110 -144.5t-62 -204q-13 -95 0.5 -173t48.5 -130.5t86 -88 t110 -51.5t124 -16z" glyph-name="partialdiff" horiz-adv-x="1316" unicode="∂"/><glyph d="M1374 1087l-145 -128q63 -78 91 -180t11 -216q-23 -157 -118 -288.5t-237.5 -208t-298.5 -76.5q-114 0 -209.5 42t-164.5 116l-157 -137l-25 29l158 138q-126 164 -95 385q23 157 118 288.5t238 208.5t299 77q221 0 364 -149l146 128zM225 563q-29 -203 87 -355l857 751 q-134 136 -336 137q-144 0 -277 -71.5t-222 -194.5t-109 -267zM1290 563q14 105 -11 199.5t-84 167.5l-858 -752q62 -70 152 -108.5t194 -38.5q144 0 277 71t221.5 194t108.5 267z" glyph-name="emptyset" horiz-adv-x="1515" unicode="∅"/><glyph d="M1300 1434l-229 -1635h-41l224 1594h-871l-224 -1594h-41l229 1635h953z" glyph-name="product" horiz-adv-x="1403" unicode="∏"/><glyph d="M1167 -212l-6 -41h-1050l6 41l631 826l-400 827l6 41h1031l-6 -41h-983l401 -827l-632 -826h1002z" glyph-name="summation" horiz-adv-x="1501" unicode="∑"/><glyph d="M1063 696h-819l6 41h819z" glyph-name="minus" horiz-adv-x="1269" unicode="−"/><glyph d="M1718 1434l-912 -1741h-60l-136 888h-383l6 41h415l134 -889l892 1701h44z" glyph-name="radical" horiz-adv-x="1821" unicode="√"/><glyph d="M1300 868q108 0 170 -86.5t43 -218.5q-17 -124 -103.5 -209t-192.5 -85q-94 0 -184.5 72t-187.5 197q-131 -125 -241 -197t-205 -72q-106 0 -169 85t-46 209q18 131 105 218t194 87q86 0 173.5 -64.5t197.5 -205.5q147 141 253.5 205.5t192.5 64.5zM404 311q50 0 99 17.5 t109 61t96.5 75t113.5 100.5q-40 48 -55.5 67t-48 55.5t-48.5 51t-43.5 36.5t-48 30t-47 15t-54.5 7q-91 0 -162 -77t-87 -187q-14 -103 33.5 -177.5t142.5 -74.5zM1222 311q95 0 164 74.5t83 177.5q15 110 -34.5 187t-140.5 77q-39 0 -79 -13.5t-69.5 -28.5t-84 -59 t-82.5 -68t-103 -93q46 -56 67.5 -81t62 -66t68.5 -59t68 -33t80 -15z" glyph-name="infinity" horiz-adv-x="1697" unicode="∞"/><glyph d="M713 1450q42 0 86 -9l-13 -37q-32 5 -79 5q-83 0 -116.5 -42.5t-46.5 -137.5l-170 -1211q-16 -117 -64 -168t-145 -51q-41 0 -87 10l12 36q34 -5 81 -5q83 0 116.5 42.5t46.5 137.5l170 1211q16 117 64 168t145 51z" glyph-name="integral" horiz-adv-x="860" unicode="∫"/><glyph d="M261 820q8 68 53 115.5t113 47.5q38 0 73.5 -20.5t59 -45t54.5 -45t60 -20.5q36 0 67.5 38t37.5 84h41q-9 -68 -56.5 -115t-110.5 -47q-28 0 -61 20.5t-58 45t-56.5 44.5t-56.5 20q-45 -1 -78.5 -37t-40.5 -86zM214 480q7 68 52 115.5t113 47.5q38 0 73 -20.5t59 -45 t55 -45t60 -20.5q36 0 67.5 37.5t38.5 84.5h41q-10 -68 -57.5 -115t-110.5 -47q-28 0 -61 20.5t-58 45t-56.5 44.5t-56.5 20q-45 -1 -78.5 -37t-40.5 -86z" glyph-name="approxequal" horiz-adv-x="988" unicode="≈"/><glyph d="M1085 855h-280l-250 -276h492l-7 -41h-522l-226 -251h-46l226 251h-251l6 41h282l250 276h-493l6 41h524l226 251h46l-226 -251h250z" glyph-name="notequal" horiz-adv-x="1269" unicode="≠"/><glyph d="M1142 913l-6 -43l-849 -240l781 -241l-6 -43l-832 256l7 43l2 12zM164 124l5 41h867l-5 -41h-867z" glyph-name="lessequal" horiz-adv-x="1317" unicode="≤"/><glyph d="M1105 645l-3 -18l-1 -13l-2 -12l-903 -256l6 43l849 241l-782 240l6 43l831 -256zM164 124l6 41h867l-6 -41h-867z" glyph-name="greaterequal" horiz-adv-x="1318" unicode="≥"/><glyph d="M1065 -154q-177 0 -338.5 69.5t-277.5 185.5t-185 278t-69 339t69 338t185 277.5t277.5 185t338.5 68.5t338.5 -68.5t277.5 -185t185 -277.5t69 -338t-69 -339t-185 -278t-277.5 -185.5t-338.5 -69.5zM1065 -113q169 0 322.5 65.5t264.5 177t176.5 265t65.5 323.5 q0 169 -65.5 322.5t-176.5 264t-264.5 176t-322.5 65.5t-322.5 -65.5t-264.5 -176t-176.5 -264t-65.5 -322.5q0 -170 65.5 -323.5t176.5 -265t264.5 -177t322.5 -65.5zM1085 328h207v-41h-454v41h206v777q-98 -48 -171 -68v43q77 22 171 67h41v-819z" glyph-name="uni2460" horiz-adv-x="2085" unicode="①"/><glyph d="M1065 -154q-177 0 -338.5 69.5t-277.5 185.5t-185 278t-69 339t69 338t185 277.5t277.5 185t338.5 68.5t338.5 -68.5t277.5 -185t185 -277.5t69 -338t-69 -339t-185 -278t-277.5 -185.5t-338.5 -69.5zM1065 -113q169 0 322.5 65.5t264.5 177t176.5 265t65.5 323.5 q0 169 -65.5 322.5t-176.5 264t-264.5 176t-322.5 65.5t-322.5 -65.5t-264.5 -176t-176.5 -264t-65.5 -322.5q0 -170 65.5 -323.5t176.5 -265t264.5 -177t322.5 -65.5zM1369 316v-41h-608v41q47 43 134.5 116.5t152 129t131.5 122t103.5 127t36.5 111.5q0 92 -66 143.5 t-195 51.5q-137 0 -239 -83l-28 30q115 94 267 94q146 0 223.5 -63.5t78.5 -171.5q0 -55 -35 -119t-101.5 -132t-126.5 -121t-148 -126.5t-127 -108.5h547z" glyph-name="uni2461" horiz-adv-x="2085" unicode="②"/><glyph d="M1065 -154q-177 0 -338.5 69.5t-277.5 185.5t-185 278t-69 339t69 338t185 277.5t277.5 185t338.5 68.5t338.5 -68.5t277.5 -185t185 -277.5t69 -338t-69 -339t-185 -278t-277.5 -185.5t-338.5 -69.5zM1065 -113q169 0 322.5 65.5t264.5 177t176.5 265t65.5 323.5 q0 169 -65.5 322.5t-176.5 264t-264.5 176t-322.5 65.5t-322.5 -65.5t-264.5 -176t-176.5 -264t-65.5 -322.5q0 -170 65.5 -323.5t176.5 -265t264.5 -177t322.5 -65.5zM784 1158h546v-41l-364 -349q51 13 107 13q129 0 211 -66t82 -179q0 -260 -301 -261q-80 0 -163 27.5 t-138 72.5l31 31q52 -42 125 -66.5t145 -23.5q136 1 198 55t62 166q0 101 -67 152t-185 51q-87 0 -150 -32l-29 48l377 361h-487v41z" glyph-name="uni2462" horiz-adv-x="2085" unicode="③"/><glyph d="M1065 -154q-177 0 -338.5 69.5t-277.5 185.5t-185 278t-69 339t69 338t185 277.5t277.5 185t338.5 68.5t338.5 -68.5t277.5 -185t185 -277.5t69 -338t-69 -339t-185 -278t-277.5 -185.5t-338.5 -69.5zM1065 -113q169 0 322.5 65.5t264.5 177t176.5 265t65.5 323.5 q0 169 -65.5 322.5t-176.5 264t-264.5 176t-322.5 65.5t-322.5 -65.5t-264.5 -176t-176.5 -264t-65.5 -322.5q0 -170 65.5 -323.5t176.5 -265t264.5 -177t322.5 -65.5zM1382 564v-40h-169v-237h-35v237h-430v40l424 583h41v-583h169zM800 564h378v527z" glyph-name="uni2463" horiz-adv-x="2085" unicode="④"/><glyph d="M1065 -154q-177 0 -338.5 69.5t-277.5 185.5t-185 278t-69 339t69 338t185 277.5t277.5 185t338.5 68.5t338.5 -68.5t277.5 -185t185 -277.5t69 -338t-69 -339t-185 -278t-277.5 -185.5t-338.5 -69.5zM1065 -113q169 0 322.5 65.5t264.5 177t176.5 265t65.5 323.5 q0 169 -65.5 322.5t-176.5 264t-264.5 176t-322.5 65.5t-322.5 -65.5t-264.5 -176t-176.5 -264t-65.5 -322.5q0 -170 65.5 -323.5t176.5 -265t264.5 -177t322.5 -65.5zM841 1150h467v-41h-428l-27 -339q113 30 227 30q130 0 206 -62t76 -189q0 -136 -75 -200.5t-228 -64.5 q-82 0 -159.5 23t-131.5 68l24 35q51 -42 122 -64t145 -21q140 1 201 53t61 171q0 210 -241 210q-103 0 -237 -30l-32 12z" glyph-name="uni2464" horiz-adv-x="2085" unicode="⑤"/><glyph d="M1065 -154q-177 0 -338.5 69.5t-277.5 185.5t-185 278t-69 339t69 338t185 277.5t277.5 185t338.5 68.5t338.5 -68.5t277.5 -185t185 -277.5t69 -338t-69 -339t-185 -278t-277.5 -185.5t-338.5 -69.5zM1065 -113q169 0 322.5 65.5t264.5 177t176.5 265t65.5 323.5 q0 169 -65.5 322.5t-176.5 264t-264.5 176t-322.5 65.5t-322.5 -65.5t-264.5 -176t-176.5 -264t-65.5 -322.5q0 -170 65.5 -323.5t176.5 -265t264.5 -177t322.5 -65.5zM1392 581q0 -73 -29 -131.5t-76.5 -93.5t-104.5 -53.5t-117 -18.5t-117 18.5t-104.5 53.5t-76.5 93.5 t-29 131.5q0 38 2 61t16 56.5t31.5 60t60.5 82t89.5 111t132.5 156.5l36 42h54l-268 -311q78 39 173 39q60 0 116.5 -17.5t104.5 -52.5t77 -93.5t29 -133.5zM1065 324q115 0 200 66.5t85 190.5q0 66 -25.5 117t-66.5 80.5t-90.5 44.5t-102.5 15q-71 0 -134.5 -28t-107 -88 t-43.5 -141q1 -124 85.5 -190.5t199.5 -66.5z" glyph-name="uni2465" horiz-adv-x="2085" unicode="⑥"/><glyph d="M1065 -154q-177 0 -338.5 69.5t-277.5 185.5t-185 278t-69 339t69 338t185 277.5t277.5 185t338.5 68.5t338.5 -68.5t277.5 -185t185 -277.5t69 -338t-69 -339t-185 -278t-277.5 -185.5t-338.5 -69.5zM1065 -113q169 0 322.5 65.5t264.5 177t176.5 265t65.5 323.5 q0 169 -65.5 322.5t-176.5 264t-264.5 176t-322.5 65.5t-322.5 -65.5t-264.5 -176t-176.5 -264t-65.5 -322.5q0 -170 65.5 -323.5t176.5 -265t264.5 -177t322.5 -65.5zM797 1083h536v-41q-280 -357 -350 -819h-42q69 446 331 819h-475v41z" glyph-name="uni2466" horiz-adv-x="2085" unicode="⑦"/><glyph d="M1065 -154q-177 0 -338.5 69.5t-277.5 185.5t-185 278t-69 339t69 338t185 277.5t277.5 185t338.5 68.5t338.5 -68.5t277.5 -185t185 -277.5t69 -338t-69 -339t-185 -278t-277.5 -185.5t-338.5 -69.5zM1065 -113q169 0 322.5 65.5t264.5 177t176.5 265t65.5 323.5 q0 169 -65.5 322.5t-176.5 264t-264.5 176t-322.5 65.5t-322.5 -65.5t-264.5 -176t-176.5 -264t-65.5 -322.5q0 -170 65.5 -323.5t176.5 -265t264.5 -177t322.5 -65.5zM1373 526q0 -50 -18.5 -91.5t-49 -69.5t-70.5 -47.5t-83 -28t-87 -8.5t-87 8.5t-83 28t-70.5 47.5 t-49 69.5t-18.5 91.5q0 93 59.5 154t147.5 84q-69 20 -114 68.5t-45 119.5q0 95 74.5 148t185.5 53q110 0 184.5 -52.5t74.5 -148.5q1 -72 -44 -120t-114 -68q88 -23 147.5 -84t59.5 -154zM849 952q0 -80 66.5 -124.5t149.5 -44.5t149.5 44.5t66.5 124.5q0 79 -62 121 t-154 42t-154 -42t-62 -121zM1064.5 321q65.5 0 123 19.5t99 68t41.5 117.5q0 67 -40.5 117t-99.5 73.5t-123.5 23.5t-123 -23.5t-99 -73.5t-40.5 -117q0 -70 41 -118t98.5 -67.5t123 -19.5z" glyph-name="uni2467" horiz-adv-x="2085" unicode="⑧"/><glyph d="M1065 -154q-177 0 -338.5 69.5t-277.5 185.5t-185 278t-69 339t69 338t185 277.5t277.5 185t338.5 68.5t338.5 -68.5t277.5 -185t185 -277.5t69 -338t-69 -339t-185 -278t-277.5 -185.5t-338.5 -69.5zM1065 -113q169 0 322.5 65.5t264.5 177t176.5 265t65.5 323.5 q0 169 -65.5 322.5t-176.5 264t-264.5 176t-322.5 65.5t-322.5 -65.5t-264.5 -176t-176.5 -264t-65.5 -322.5q0 -170 65.5 -323.5t176.5 -265t264.5 -177t322.5 -65.5zM738 853q0 73 29 131t76.5 93.5t104.5 54t117 18.5t117 -18.5t104.5 -54t76.5 -93.5t29 -131 q0 -38 -2 -61t-16 -57t-31.5 -60.5t-60.5 -81.5t-89.5 -110.5t-132.5 -156.5l-36 -42h-54l268 311q-78 -39 -173 -39q-60 0 -116.5 17.5t-104.5 52t-77 93.5t-29 134zM1065 1110q-115 0 -200 -66.5t-85 -190.5q0 -66 25 -117t66.5 -80.5t91 -44.5t102.5 -15q71 0 134.5 27.5 t107 88t43.5 141.5q-1 124 -85.5 190.5t-199.5 66.5z" glyph-name="uni2468" horiz-adv-x="2085" unicode="⑨"/><glyph d="M1065 -154q-177 0 -338.5 69.5t-277.5 185.5t-185 278t-69 339t69 338t185 277.5t277.5 185t338.5 68.5t338.5 -68.5t277.5 -185t185 -277.5t69 -338t-69 -339t-185 -278t-277.5 -185.5t-338.5 -69.5zM1065 -113q169 0 322.5 65.5t264.5 177t176.5 265t65.5 323.5 q0 169 -65.5 322.5t-176.5 264t-264.5 176t-322.5 65.5t-322.5 -65.5t-264.5 -176t-176.5 -264t-65.5 -322.5q0 -170 65.5 -323.5t176.5 -265t264.5 -177t322.5 -65.5zM1375 717q0 -216 -82.5 -326t-227.5 -110t-227 110t-82 326t82 326t227 110t227.5 -110t82.5 -326z M1065 322q128 0 198.5 99.5t70.5 295t-70.5 295.5t-198.5 100q-127 0 -197.5 -100t-70.5 -295.5t70.5 -295t197.5 -99.5z" glyph-name="uni24EA" horiz-adv-x="2085" unicode="⓪"/><glyph d="M1013 -102q-167 0 -318.5 64.5t-261 174.5t-174.5 261.5t-65 319.5q0 222 109.5 410.5t298.5 298t411 109.5t411 -109.5t298.5 -298t109.5 -410.5q0 -168 -65 -319.5t-174.5 -261.5t-261 -174.5t-318.5 -64.5zM1323 717q0 216 -82.5 326t-228 110t-227.5 -110t-82 -326 t82 -326t227.5 -110t228 110t82.5 326zM1013 322q-128 0 -199.5 99.5t-71.5 295t71.5 295.5t199.5 100t199.5 -100t71.5 -295.5t-71.5 -295t-199.5 -99.5z" glyph-name="uni24FF" horiz-adv-x="1982" unicode="⓿"/><glyph d="M354 1485h1536v-1536h-1536v1536z" glyph-name="filledbox" horiz-adv-x="2201" unicode="■"/><glyph d="M347 1434h1434v-1434h-1434v1434zM388 1393v-1352h1352v1352h-1352z" glyph-name="H22073" horiz-adv-x="2084" unicode="□"/><glyph d="M1265 717l-583 -717h-53l-382 717l582 717h54zM1218 717l-366 684l-557 -684l364 -685z" glyph-name="lozenge" horiz-adv-x="1468" unicode="◊"/><glyph d="M1065 -154q-177 0 -338.5 69.5t-277.5 185.5t-185 278t-69 339t69 338t185 277.5t277.5 185t338.5 68.5t338.5 -68.5t277.5 -185t185 -277.5t69 -338t-69 -339t-185 -278t-277.5 -185.5t-338.5 -69.5zM1065 -113q169 0 322.5 65.5t264.5 177t176.5 265t65.5 323.5 q0 169 -65.5 322.5t-176.5 264t-264.5 176t-322.5 65.5t-322.5 -65.5t-264.5 -176t-176.5 -264t-65.5 -322.5q0 -170 65.5 -323.5t176.5 -265t264.5 -177t322.5 -65.5z" glyph-name="circle" horiz-adv-x="2085" unicode="○"/><glyph d="M1013 -102q-167 0 -318.5 64.5t-261 174.5t-174.5 261.5t-65 319.5q0 222 109.5 410.5t298.5 298t411 109.5t411 -109.5t298.5 -298t109.5 -410.5q0 -168 -65 -319.5t-174.5 -261.5t-261 -174.5t-318.5 -64.5z" glyph-name="H18533" horiz-adv-x="1982" unicode="●"/><glyph d="M1065 -154q-177 0 -338.5 69t-278 185.5t-185 278t-68.5 339.5q0 142 44 274.5t124 239.5t187 187.5t240 124t275 43.5t275 -43.5t240 -124t187 -187.5t124 -239.5t44 -274.5q0 -178 -68.5 -339.5t-185 -278t-278 -185.5t-338.5 -69zM1085 328v819h-41q-94 -45 -171 -67 v-43q73 19 171 68v-777h-206v-41h454v41h-207z" glyph-name="uni2776" horiz-adv-x="2085" unicode="❶"/><glyph d="M1065 -154q-177 0 -338.5 69t-278 185.5t-185 278t-68.5 339.5q0 142 44 274.5t124 239.5t187 187.5t240 124t275 43.5t275 -43.5t240 -124t187 -187.5t124 -239.5t44 -274.5q0 -178 -68.5 -339.5t-185 -278t-278 -185.5t-338.5 -69zM1369 316h-547q39 35 127 108.5 t148 126.5t126.5 121t101.5 131.5t35 119.5q-1 109 -78.5 172t-223.5 63q-153 0 -267 -94l28 -30q101 83 239 83q129 0 195 -51.5t66 -143.5q0 -50 -36.5 -111t-103.5 -127.5t-131.5 -122t-152 -129t-134.5 -116.5v-41h608v41z" glyph-name="uni2777" horiz-adv-x="2085" unicode="❷"/><glyph d="M1065 -154q-177 0 -338.5 69t-278 185.5t-185 278t-68.5 339.5q0 142 44 274.5t124 239.5t187 187.5t240 124t275 43.5t275 -43.5t240 -124t187 -187.5t124 -239.5t44 -274.5q0 -178 -68.5 -339.5t-185 -278t-278 -185.5t-338.5 -69zM784 1158v-41h487l-377 -361l29 -48 q63 33 150 32q118 0 185 -51t67 -152q0 -112 -62 -166t-198 -55q-72 -1 -145 23.5t-125 66.5l-31 -31q55 -45 138 -72.5t163 -27.5q301 0 301 261q0 114 -82 179.5t-211 65.5q-56 0 -107 -13l364 349v41h-546z" glyph-name="uni2778" horiz-adv-x="2085" unicode="❸"/><glyph d="M1065 -154q-177 0 -338.5 69t-278 185.5t-185 278t-68.5 339.5q0 142 44 274.5t124 239.5t187 187.5t240 124t275 43.5t275 -43.5t240 -124t187 -187.5t124 -239.5t44 -274.5q0 -178 -68.5 -339.5t-185 -278t-278 -185.5t-338.5 -69zM1382 564h-169v583h-41l-424 -583 v-40h430v-237h35v237h169v40zM800 564l378 527v-527h-378z" glyph-name="uni2779" horiz-adv-x="2085" unicode="❹"/><glyph d="M1065 -154q-177 0 -338.5 69t-278 185.5t-185 278t-68.5 339.5q0 142 44 274.5t124 239.5t187 187.5t240 124t275 43.5t275 -43.5t240 -124t187 -187.5t124 -239.5t44 -274.5q0 -178 -68.5 -339.5t-185 -278t-278 -185.5t-338.5 -69zM841 1150l-30 -409l32 -12 q134 30 237 30q241 0 241 -210q0 -119 -61 -171t-201 -53q-74 -1 -145 21t-122 64l-24 -35q54 -45 131.5 -68t159.5 -23q154 0 228.5 64.5t74.5 200.5q0 127 -76 189t-206 62q-115 0 -227 -30l27 339h428v41h-467z" glyph-name="uni277A" horiz-adv-x="2085" unicode="❺"/><glyph d="M1065 -154q-177 0 -338.5 69t-278 185.5t-185 278t-68.5 339.5q0 142 44 274.5t124 239.5t187 187.5t240 124t275 43.5t275 -43.5t240 -124t187 -187.5t124 -239.5t44 -274.5q0 -178 -68.5 -339.5t-185 -278t-278 -185.5t-338.5 -69zM1392 581q0 75 -29 133.5t-77 93.5 t-104.5 52.5t-116.5 17.5q-95 0 -173 -39l268 311h-54l-36 -42q-86 -101 -132.5 -156.5t-89.5 -111t-60.5 -82t-31.5 -60t-16 -57t-2 -60.5q0 -73 29 -131.5t76.5 -93.5t104.5 -53.5t117 -18.5t117 18.5t104.5 53.5t76.5 93.5t29 131.5zM1065 324q-115 0 -199.5 66.5 t-85.5 190.5q0 81 43.5 141t107 88t134.5 28q53 0 102.5 -15t90.5 -44.5t66.5 -81t25.5 -116.5q0 -124 -85 -190.5t-200 -66.5z" glyph-name="uni277B" horiz-adv-x="2085" unicode="❻"/><glyph d="M1065 -154q-177 0 -338.5 69t-278 185.5t-185 278t-68.5 339.5q0 142 44 274.5t124 239.5t187 187.5t240 124t275 43.5t275 -43.5t240 -124t187 -187.5t124 -239.5t44 -274.5q0 -178 -68.5 -339.5t-185 -278t-278 -185.5t-338.5 -69zM797 1147v-41h475 q-262 -373 -331 -819h42q71 462 350 819v41h-536z" glyph-name="uni277C" horiz-adv-x="2085" unicode="❼"/><glyph d="M1065 -154q-177 0 -338.5 69t-278 185.5t-185 278t-68.5 339.5q0 142 44 274.5t124 239.5t187 187.5t240 124t275 43.5t275 -43.5t240 -124t187 -187.5t124 -239.5t44 -274.5q0 -178 -68.5 -339.5t-185 -278t-278 -185.5t-338.5 -69zM1373 526q0 93 -59.5 154t-147.5 84 q69 20 114 68.5t44 119.5q0 95 -74.5 148t-184.5 53q-111 0 -185.5 -52.5t-74.5 -148.5q0 -72 45 -120t114 -68q-88 -23 -147.5 -83.5t-59.5 -154.5q0 -50 18.5 -91.5t49 -69.5t70.5 -47.5t83 -28t87 -8.5t87 8.5t83 28t70.5 47.5t49 69.5t18.5 91.5zM849 952q0 79 62 121 t154 42t154 -42t62 -121q0 -80 -66.5 -124.5t-149.5 -44.5t-149.5 44.5t-66.5 124.5zM1064.5 321q-65.5 0 -123 19.5t-98.5 68t-41 117.5q0 67 40.5 117t99 73.5t123 23.5t123.5 -23.5t99.5 -73.5t40.5 -117q0 -70 -41.5 -118t-99 -67.5t-123 -19.5z" glyph-name="uni277D" horiz-adv-x="2085" unicode="❽"/><glyph d="M1065 -154q-177 0 -338.5 69t-278 185.5t-185 278t-68.5 339.5q0 142 44 274.5t124 239.5t187 187.5t240 124t275 43.5t275 -43.5t240 -124t187 -187.5t124 -239.5t44 -274.5q0 -178 -68.5 -339.5t-185 -278t-278 -185.5t-338.5 -69zM738 853q0 -75 29 -134t77 -93.5 t104.5 -52t116.5 -17.5q95 0 173 39l-268 -311h54l36 42q86 101 132.5 156.5t89.5 110.5t60.5 81.5t31.5 60.5t16 57t2 61q0 73 -29 131t-76.5 93.5t-104.5 54t-117 18.5t-117 -18.5t-104.5 -54t-76.5 -93.5t-29 -131zM1065 1110q115 0 199.5 -66.5t85.5 -190.5 q0 -81 -43.5 -141.5t-107 -88t-134.5 -27.5q-53 0 -102.5 15t-91 44.5t-66.5 80.5t-25 117q0 124 85 190.5t200 66.5z" glyph-name="uni277E" horiz-adv-x="2085" unicode="❾"/><glyph d="M315 1366h86l-12 -86h-86zM304 1126h41l-158 -1126h-41z" glyph-name="i.aalt" horiz-adv-x="491"/><glyph d="M1270 1126h41l-158 -1126h-40l43 315q-81 -161 -225.5 -243t-302.5 -82q-100 0 -187 33.5t-153.5 100.5t-95 180.5t-8.5 258.5q20 141 81 254t145.5 181t181 103.5t198.5 35.5q158 0 278.5 -84.5t157.5 -244.5zM634 31q94 0 181.5 29.5t166 90t133.5 164t75 238.5l2 20 q16 128 -11 230t-87 164.5t-139 95.5t-172 33q-94 0 -183.5 -33t-167.5 -96.5t-133 -168t-74 -235.5q-16 -113 -0.5 -200t52 -149.5t93.5 -103t123 -60t141 -19.5z" glyph-name="a.salt"/><glyph d="M1165 1587l-310 -307h-51l307 307h54zM1270 1126h41l-158 -1126h-40l43 315q-81 -161 -225.5 -243t-302.5 -82q-100 0 -187 33.5t-153.5 100.5t-95 180.5t-8.5 258.5q20 141 81 254t145.5 181t181 103.5t198.5 35.5q158 0 278.5 -84.5t157.5 -244.5zM634 31 q94 0 181.5 29.5t166 90t133.5 164t75 238.5l2 20q16 128 -11 230t-87 164.5t-139 95.5t-172 33q-94 0 -183.5 -33t-167.5 -96.5t-133 -168t-74 -235.5q-16 -113 -0.5 -200t52 -149.5t93.5 -103t123 -60t141 -19.5z" glyph-name="aacute.aalt"/><glyph d="M1075 1495q-12 -88 -84 -151.5t-162 -63.5q-88 0 -142 63.5t-42 151.5h41q-10 -73 34 -123.5t115.5 -50.5t130 51t68.5 123h41zM1270 1126h41l-158 -1126h-40l43 315q-81 -161 -225.5 -243t-302.5 -82q-100 0 -187 33.5t-153.5 100.5t-95 180.5t-8.5 258.5q20 141 81 254 t145.5 181t181 103.5t198.5 35.5q158 0 278.5 -84.5t157.5 -244.5zM634 31q94 0 181.5 29.5t166 90t133.5 164t75 238.5l2 20q16 128 -11 230t-87 164.5t-139 95.5t-172 33q-94 0 -183.5 -33t-167.5 -96.5t-133 -168t-74 -235.5q-16 -113 -0.5 -200t52 -149.5t93.5 -103 t123 -60t141 -19.5z" glyph-name="abreve.aalt"/><glyph d="M1066 1587h51l-256 -307h-64l-168 307h51l155 -275zM1270 1126h41l-158 -1126h-40l43 315q-81 -161 -225.5 -243t-302.5 -82q-100 0 -187 33.5t-153.5 100.5t-95 180.5t-8.5 258.5q20 141 81 254t145.5 181t181 103.5t198.5 35.5q158 0 278.5 -84.5t157.5 -244.5zM634 31 q94 0 181.5 29.5t166 90t133.5 164t75 238.5l2 20q16 128 -11 230t-87 164.5t-139 95.5t-172 33q-94 0 -183.5 -33t-167.5 -96.5t-133 -168t-74 -235.5q-16 -113 -0.5 -200t52 -149.5t93.5 -103t123 -60t141 -19.5z" glyph-name="uni01CE.aalt"/><glyph d="M1073 1280h-51l-154 275l-232 -275h-51l256 307h64zM1270 1126h41l-158 -1126h-40l43 315q-81 -161 -225.5 -243t-302.5 -82q-100 0 -187 33.5t-153.5 100.5t-95 180.5t-8.5 258.5q20 141 81 254t145.5 181t181 103.5t198.5 35.5q158 0 278.5 -84.5t157.5 -244.5zM634 31 q94 0 181.5 29.5t166 90t133.5 164t75 238.5l2 20q16 128 -11 230t-87 164.5t-139 95.5t-172 33q-94 0 -183.5 -33t-167.5 -96.5t-133 -168t-74 -235.5q-16 -113 -0.5 -200t52 -149.5t93.5 -103t123 -60t141 -19.5z" glyph-name="acircumflex.aalt"/><glyph d="M635 1366h86l-12 -86h-86zM962 1366h86l-13 -86h-86zM1270 1126h41l-158 -1126h-40l43 315q-81 -161 -225.5 -243t-302.5 -82q-100 0 -187 33.5t-153.5 100.5t-95 180.5t-8.5 258.5q20 141 81 254t145.5 181t181 103.5t198.5 35.5q158 0 278.5 -84.5t157.5 -244.5z M634 31q94 0 181.5 29.5t166 90t133.5 164t75 238.5l2 20q16 128 -11 230t-87 164.5t-139 95.5t-172 33q-94 0 -183.5 -33t-167.5 -96.5t-133 -168t-74 -235.5q-16 -113 -0.5 -200t52 -149.5t93.5 -103t123 -60t141 -19.5z" glyph-name="adieresis.aalt"/><glyph d="M1270 1126h41l-158 -1126h-40l43 315q-81 -161 -225.5 -243t-302.5 -82q-100 0 -187 33.5t-153.5 100.5t-95 180.5t-8.5 258.5q20 141 81 254t145.5 181t181 103.5t198.5 35.5q158 0 278.5 -84.5t157.5 -244.5zM634 31q94 0 181.5 29.5t166 90t133.5 164t75 238.5l2 20 q16 128 -11 230t-87 164.5t-139 95.5t-172 33q-94 0 -183.5 -33t-167.5 -96.5t-133 -168t-74 -235.5q-16 -113 -0.5 -200t52 -149.5t93.5 -103t123 -60t141 -19.5zM571 -256h86l-12 -86h-86z" glyph-name="uni1EA1.aalt"/><glyph d="M582 1587h54l219 -307h-51zM1270 1126h41l-158 -1126h-40l43 315q-81 -161 -225.5 -243t-302.5 -82q-100 0 -187 33.5t-153.5 100.5t-95 180.5t-8.5 258.5q20 141 81 254t145.5 181t181 103.5t198.5 35.5q158 0 278.5 -84.5t157.5 -244.5zM634 31q94 0 181.5 29.5t166 90 t133.5 164t75 238.5l2 20q16 128 -11 230t-87 164.5t-139 95.5t-172 33q-94 0 -183.5 -33t-167.5 -96.5t-133 -168t-74 -235.5q-16 -113 -0.5 -200t52 -149.5t93.5 -103t123 -60t141 -19.5z" glyph-name="agrave.aalt"/><glyph d="M604 1321h462l-6 -41h-462zM1270 1126h41l-158 -1126h-40l43 315q-81 -161 -225.5 -243t-302.5 -82q-100 0 -187 33.5t-153.5 100.5t-95 180.5t-8.5 258.5q20 141 81 254t145.5 181t181 103.5t198.5 35.5q158 0 278.5 -84.5t157.5 -244.5zM634 31q94 0 181.5 29.5t166 90 t133.5 164t75 238.5l2 20q16 128 -11 230t-87 164.5t-139 95.5t-172 33q-94 0 -183.5 -33t-167.5 -96.5t-133 -168t-74 -235.5q-16 -113 -0.5 -200t52 -149.5t93.5 -103t123 -60t141 -19.5z" glyph-name="amacron.aalt"/><glyph d="M1004 -135q0 -40 52 -58t124 -2v-34q-97 -27 -159.5 0.5t-58.5 85.5q6 113 150 143h1l43 315q-81 -161 -225.5 -243t-302.5 -82q-100 0 -187 33.5t-153.5 100.5t-95 180.5t-8.5 258.5q20 141 81 254t145.5 181t181 103.5t198.5 35.5q158 0 278.5 -84.5t157.5 -244.5 l44 318h41l-158 -1126q-88 -26 -118.5 -60.5t-30.5 -74.5zM634 31q94 0 181.5 29.5t166 90t133.5 164t75 238.5l2 20q16 128 -11 230t-87 164.5t-139 95.5t-172 33q-94 0 -183.5 -33t-167.5 -96.5t-133 -168t-74 -235.5q-16 -113 -0.5 -200t52 -149.5t93.5 -103t123 -60 t141 -19.5z" glyph-name="aogonek.aalt"/><glyph d="M829.5 1280q-67.5 0 -109 48t-31.5 116q9 68 64 116t122.5 48t109 -48.5t32.5 -115.5q-10 -68 -65 -116t-122.5 -48zM836 1321q51 0 92 36.5t48 86.5q7 51 -24 87t-82 36t-92 -36.5t-48 -86.5q-7 -51 24.5 -87t81.5 -36zM1270 1126h41l-158 -1126h-40l43 315 q-81 -161 -225.5 -243t-302.5 -82q-100 0 -187 33.5t-153.5 100.5t-95 180.5t-8.5 258.5q20 141 81 254t145.5 181t181 103.5t198.5 35.5q158 0 278.5 -84.5t157.5 -244.5zM634 31q94 0 181.5 29.5t166 90t133.5 164t75 238.5l2 20q16 128 -11 230t-87 164.5t-139 95.5 t-172 33q-94 0 -183.5 -33t-167.5 -96.5t-133 -168t-74 -235.5q-16 -113 -0.5 -200t52 -149.5t93.5 -103t123 -60t141 -19.5z" glyph-name="aring.aalt"/><glyph d="M562 1281q7 68 52 115.5t113 47.5q38 0 73.5 -20.5t59 -45t54.5 -45t60 -20.5q36 0 67.5 37.5t38.5 84.5h41q-10 -68 -57.5 -115t-110.5 -47q-28 0 -61 20.5t-58 45t-56.5 44.5t-56.5 20q-45 -1 -78.5 -37t-40.5 -86zM1270 1126h41l-158 -1126h-40l43 315 q-81 -161 -225.5 -243t-302.5 -82q-100 0 -187 33.5t-153.5 100.5t-95 180.5t-8.5 258.5q20 141 81 254t145.5 181t181 103.5t198.5 35.5q158 0 278.5 -84.5t157.5 -244.5zM634 31q94 0 181.5 29.5t166 90t133.5 164t75 238.5l2 20q16 128 -11 230t-87 164.5t-139 95.5 t-172 33q-94 0 -183.5 -33t-167.5 -96.5t-133 -168t-74 -235.5q-16 -113 -0.5 -200t52 -149.5t93.5 -103t123 -60t141 -19.5z" glyph-name="atilde.aalt"/><glyph d="M434 0h-112q-84 0 -121.5 59.5t-23.5 161.5l185 1315h41l-185 -1315q-11 -82 19.5 -131t92.5 -49h109z" glyph-name="l.aalt" horiz-adv-x="697"/><glyph d="M844 1997l-310 -307h-52l308 307h54zM434 0h-112q-84 0 -121.5 59.5t-23.5 161.5l185 1315h41l-185 -1315q-11 -82 19.5 -131t92.5 -49h109z" glyph-name="lacute.aalt" horiz-adv-x="697"/><glyph d="M434 0h-112q-84 0 -121.5 59.5t-23.5 161.5l185 1315h41l-185 -1315q-11 -82 19.5 -131t92.5 -49h109zM584 1434h51l-130 -410h-31z" glyph-name="lcaron.aalt" horiz-adv-x="738"/><glyph d="M434 0h-112q-84 0 -121.5 59.5t-23.5 161.5l185 1315h41l-185 -1315q-11 -82 19.5 -131t92.5 -49h109zM298 -102h51l-130 -410h-31z" glyph-name="lcommaaccent.aalt" horiz-adv-x="697"/><glyph d="M434 0h-112q-84 0 -121.5 59.5t-23.5 161.5l185 1315h41l-185 -1315q-11 -82 19.5 -131t92.5 -49h109zM191 -256h87l-13 -86h-86z" glyph-name="uni1E37.aalt" horiz-adv-x="697"/><glyph d="M291 738l-73 -517q-11 -82 19.5 -131t92.5 -49h109l-5 -41h-112q-84 0 -121.5 59.5t-23.5 161.5l72 508l-138 -33l6 42l138 33l107 765h41l-106 -756l255 61l-6 -42z" glyph-name="lslash.aalt" horiz-adv-x="697"/><glyph d="M1094 1126h44l-871 -1536h-50l281 492h-16l-280 1044h44l271 -1010z" glyph-name="y.aalt" horiz-adv-x="1181"/><glyph d="M1027 1587l-310 -307h-51l307 307h54zM1094 1126h44l-871 -1536h-50l281 492h-16l-280 1044h44l271 -1010z" glyph-name="yacute.aalt" horiz-adv-x="1181"/><glyph d="M730 1555l-232 -275h-52l256 307h65l168 -307h-51zM1094 1126h44l-871 -1536h-50l281 492h-16l-280 1044h44l271 -1010z" glyph-name="ycircumflex.aalt" horiz-adv-x="1181"/><glyph d="M583 1366l-13 -86h-86l13 86h86zM909 1366l-12 -86h-86l12 86h86zM1094 1126h44l-871 -1536h-50l281 492h-16l-280 1044h44l271 -1010z" glyph-name="ydieresis.aalt" horiz-adv-x="1181"/><glyph d="M1094 1126h44l-871 -1536h-50l281 492h-16l-280 1044h44l271 -1010zM819 -307l12 86h87l-13 -86h-86z" glyph-name="uni1EF5.aalt" horiz-adv-x="1181"/><glyph d="M717 1280h-51l-223 307h55zM1094 1126h44l-871 -1536h-50l281 492h-16l-280 1044h44l271 -1010z" glyph-name="ygrave.aalt" horiz-adv-x="1181"/><glyph d="M583 1403q-45 -1 -78.5 -37t-40.5 -86l-40 1q7 68 52 115.5t113 47.5q38 0 73 -20.5t58.5 -45t55 -45t60.5 -20.5q36 0 67.5 37.5t38.5 84.5h41q-10 -68 -57.5 -115t-110.5 -47q-28 0 -61 20.5t-58 45t-56 44.5t-57 20zM1094 1126h44l-871 -1536h-50l281 492h-16 l-280 1044h44l271 -1010z" glyph-name="uni1EF9.aalt" horiz-adv-x="1181"/><glyph d="M2129 1434l-5 -41h-467l-195 -1393h-41l195 1393h-932l-195 -1393h-40l194 1393h-465l5 41h1946z" glyph-name="T_T.dlig" horiz-adv-x="2068"/><glyph d="M1402 1085l-122 -864q-11 -82 19.5 -131t92.5 -49h212l-6 -41h-215q-84 0 -121 59.5t-23 161.5l122 864h-880l-152 -1085h-41l152 1085h-182l5 41h182l27 189q13 97 66.5 159t130.5 62h164l-7 -41h-160q-60 0 -101 -48.5t-52 -131.5l-27 -189h880l32 226h41l-32 -226h349 l-5 -41h-349z" glyph-name="f_t.dlig" horiz-adv-x="1902"/><glyph d="M1307 1434h86l-10 -66h-86zM1327 1126l-5 -41h-1l-152 -1085h-41l152 1085h-799l-122 -864q-11 -82 20 -131t92 -49h212l-5 -41h-215q-84 0 -121.5 59.5t-23.5 161.5l122 864h-182l5 41h182l32 226h41l-32 -226h841z" glyph-name="t_i.dlig" horiz-adv-x="1473"/><glyph d="M1463 1085l-122 -864q-11 -82 20 -131t92 -49h212l-5 -41h-215q-84 0 -121.5 59.5t-23.5 161.5l122 864h-941l-122 -864q-11 -82 20 -131t92 -49h212l-5 -41h-215q-84 0 -121.5 59.5t-23.5 161.5l122 864h-182l5 41h182l32 226h41l-32 -226h941l32 226h41l-32 -226h350 l-6 -41h-349z" glyph-name="t_t.dlig" horiz-adv-x="1964"/><glyph d="M2289 1434h86l-10 -66h-86zM2309 1126l-5 -41h-1l-152 -1085h-41l152 1085h-799l-122 -864q-11 -82 20 -131t92 -49h212l-5 -41h-215q-84 0 -121.5 59.5t-23.5 161.5l122 864h-941l-122 -864q-11 -82 20 -131t92 -49h212l-5 -41h-215q-84 0 -121.5 59.5t-23.5 161.5 l122 864h-182l5 41h182l32 226h41l-32 -226h941l32 226h41l-32 -226h841z" glyph-name="t_t_i.dlig" horiz-adv-x="2455"/><glyph d="M1250 41h110l-5 -41h-113q-84 0 -121.5 59.5t-22.5 161.5l179 1274h-611q-60 0 -101 -48.5t-52 -131.5l-27 -189h288l-5 -41h-288l-152 -1085h-41l152 1085h-182l5 41h182l27 189q13 97 66.5 159t130.5 62h655l-185 -1315q-11 -82 19.5 -131t91.5 -49z" glyph-name="uniFB02.aalt" horiz-adv-x="1617"/><glyph d="M910 1434h42l-94 -676h-42l27 189q-49 -97 -135.5 -146t-182.5 -49q-60 0 -112.5 20.5t-91.5 60t-56.5 108t-5.5 155.5q24 166 129 255t234 89q95 0 167.5 -51t94.5 -147zM530 792q54 0 105.5 16.5t97.5 51t79 94t43 136.5l2 12q17 142 -55.5 220t-185.5 78 q-115 0 -206.5 -78.5t-112.5 -225.5q-20 -151 49 -227.5t184 -76.5z" glyph-name="ordfeminine.aalt" horiz-adv-x="1014"/><glyph d="M1075 1434h44l-870 -1434h-50l280 459h-15l-281 975h44l272 -944z" glyph-name="afii10037.aalt" horiz-adv-x="1058"/><glyph d="M1270 1126h41l-158 -1126h-40l43 315q-81 -161 -225.5 -243t-302.5 -82q-100 0 -187 33.5t-153.5 100.5t-95 180.5t-8.5 258.5q20 141 81 254t145.5 181t181 103.5t198.5 35.5q158 0 278.5 -84.5t157.5 -244.5zM634 31q94 0 181.5 29.5t166 90t133.5 164t75 238.5l2 20 q16 128 -11 230t-87 164.5t-139 95.5t-172 33q-94 0 -183.5 -33t-167.5 -96.5t-133 -168t-74 -235.5q-16 -113 -0.5 -200t52 -149.5t93.5 -103t123 -60t141 -19.5z" glyph-name="afii10065.aalt"/><glyph d="M1094 563q-20 -142 -71 -253t-124.5 -180.5t-162 -104.5t-189 -35t-178.5 34.5t-132.5 105.5t-73.5 179t1 254q27 186 107 318t192 194t247 62q207 0 315 -148t69 -426zM554 31q189 0 325.5 134t173.5 398q37 261 -61.5 397t-288 136t-325.5 -136t-173 -397 q-37 -264 61.5 -398t287.5 -134z" glyph-name="zero.oldstyle" horiz-adv-x="1257"/><glyph d="M551 41h358l-5 -41h-758l6 41h358l146 1042q-162 -73 -314 -111l6 44q158 41 315 110h40z" glyph-name="one.oldstyle" horiz-adv-x="1208"/><glyph d="M1064 41l-5 -41h-913l6 41q69 49 185 126t206 136t195 136t176 140t123 132.5t60 128.5q16 117 -70 186.5t-264 69.5q-221 0 -386 -107l-27 29q89 58 199.5 88.5t219.5 30.5q195 0 291 -81t78 -215q-8 -56 -45 -116.5t-99 -121.5t-131.5 -118.5t-160.5 -120 t-166.5 -112.5t-168 -110.5t-148.5 -100.5h845z" glyph-name="two.oldstyle" horiz-adv-x="1362"/><glyph d="M321 1126h909l-5 -41l-693 -596q87 23 184 23q212 0 327.5 -109.5t89.5 -300.5q-28 -202 -171 -310.5t-394 -108.5q-136 0 -260 38.5t-204 113.5l34 31q75 -70 193 -107t243 -35q231 1 361.5 98.5t156.5 280.5q25 171 -81.5 269.5t-299.5 98.5q-145 0 -259 -55l-29 30 l743 639h-851z" glyph-name="three.oldstyle" horiz-adv-x="1317"/><glyph d="M1264 142l-6 -41h-292l-58 -408h-41l58 408h-721l5 41l853 984h47l-138 -984h293zM259 142h671l130 923z" glyph-name="four.oldstyle" horiz-adv-x="1474"/><glyph d="M399 1126h787l-5 -41h-748l-128 -591q200 49 419 49q208 0 324 -109.5t88 -309.5q-30 -217 -173 -329t-395 -112q-136 0 -260 38.5t-204 113.5l34 31q75 -70 193 -107t243 -35q465 3 521 400q25 178 -79 278t-297 100q-207 0 -437 -50l-23 20z" glyph-name="five.oldstyle" horiz-adv-x="1317"/><glyph d="M1241 485q-17 -122 -78.5 -219.5t-148.5 -156t-186 -89t-200 -30.5q-80 0 -155 18.5t-139.5 59t-109.5 97t-65 139.5t-6 181q6 42 12.5 72t23.5 66.5t32 62t53 72t69.5 80.5t100 104.5t126 126.5t164.5 163.5t200 201.5h54l-519 -520q138 66 298 66q100 0 190.5 -29 t161.5 -87t105 -156t17 -223zM634 31q75 0 148.5 17t143.5 53t126 88.5t96 128.5t52 167q16 116 -15 206t-97 143t-149 79t-177 26q-74 0 -148 -18t-144.5 -55.5t-127 -90t-96.5 -127.5t-52 -163q-12 -91 6 -167t59.5 -128.5t101.5 -88.5t129 -53t144 -17z" glyph-name="six.oldstyle" horiz-adv-x="1416"/><glyph d="M286 1126h894l-5 -41q-544 -589 -780 -1392h-42q238 814 773 1392h-845z" glyph-name="seven.oldstyle" horiz-adv-x="1221"/><glyph d="M1168 399q-14 -102 -72 -183.5t-141 -129t-174.5 -72t-184.5 -24.5q-73 0 -142 14.5t-131.5 47t-107 79t-65.5 116t-9 152.5q11 80 49 148t94.5 116.5t121 80.5t136.5 51q-110 35 -173.5 115t-46.5 200q14 106 86 183.5t173.5 114t219.5 36.5q183 0 295 -87.5t91 -246.5 q-8 -61 -37 -114.5t-72 -92t-93 -65.5t-106 -43q67 -18 122 -50.5t97.5 -81t61.5 -116.5t8 -148zM365 1110q-10 -74 17 -132.5t79.5 -93t116.5 -52.5t133.5 -18t139.5 18t133 52.5t106.5 93t53.5 132.5q10 73 -13.5 130t-73.5 92t-117 53t-145 18q-165 0 -287.5 -75.5 t-142.5 -217.5zM602 31q86 0 170 21.5t160 64t128 115.5t65 167q12 90 -19.5 163.5t-93.5 118t-140.5 68.5t-164.5 24q-85 0 -170.5 -24t-160.5 -68.5t-126.5 -118t-65.5 -163.5q-11 -76 8 -138.5t59.5 -104t98.5 -71t121 -42t131 -12.5z" glyph-name="eight.oldstyle" horiz-adv-x="1354"/><glyph d="M218 641q17 122 78.5 219.5t148.5 156t186 89.5t200 31q80 0 155 -18.5t139.5 -59t109.5 -97.5t65 -140t7 -181q-6 -42 -13 -71.5t-24 -66.5t-31.5 -62t-53 -71.5t-70 -81t-100 -104.5t-125.5 -126.5t-164.5 -164l-200.5 -200.5h-54l519 519q-138 -66 -298 -66 q-100 0 -190 29.5t-161.5 87.5t-105.5 155.5t-17 222.5zM825.5 1096q-74.5 0 -148.5 -17t-144 -53.5t-126 -88.5t-96 -128.5t-52 -167.5q-16 -116 15.5 -206t97.5 -142.5t149 -79t177 -26.5q93 0 185.5 29.5t173 83.5t137 143t72.5 198q12 91 -6.5 167.5t-60 128.5 t-101.5 88.5t-129 53.5t-143.5 17z" glyph-name="nine.oldstyle" horiz-adv-x="1416"/><glyph d="M1254 717q-50 -359 -212.5 -543t-405.5 -184t-353.5 183t-60.5 544q51 360 213.5 543.5t405 183.5t353.5 -184t60 -543zM642 31q224 0 373.5 173t198 513t-53 513t-326 173t-374 -173t-197.5 -513t53.5 -513t325.5 -173z" glyph-name="zero.tnum" horiz-adv-x="1433"/><glyph d="M664 41h358l-5 -41h-758l5 41h359l190 1350q-165 -73 -315 -112l6 44q158 41 314 111h41z" glyph-name="one.tnum" horiz-adv-x="1433"/><glyph d="M1150 41l-5 -41h-1014l5 41q80 65 211 163t237.5 176.5t227.5 177t205.5 179.5t145 168.5t70.5 158.5q22 155 -82.5 247t-320.5 92q-231 0 -423 -142l-26 30q206 153 456 153q233 0 347 -103.5t90 -275.5q-11 -78 -72.5 -170t-146 -175t-205.5 -182t-224.5 -174.5 t-232 -170.5t-200.5 -152h957z" glyph-name="two.tnum" horiz-adv-x="1433"/><glyph d="M379 1434h909l-5 -41l-692 -596q87 23 183 22q212 0 328 -109.5t89 -299.5q-28 -202 -170.5 -311t-393.5 -109q-136 0 -260 39t-204 113l34 31q75 -70 192.5 -106.5t243.5 -35.5q231 1 361 98.5t156 281.5q25 171 -81 269t-300 98q-145 0 -259 -55l-29 31l744 639h-851z " glyph-name="three.tnum" horiz-adv-x="1433"/><glyph d="M1243 450l-5 -41h-293l-57 -409h-41l57 409h-721l5 41l853 984h48l-139 -984h293zM239 450h670l130 922z" glyph-name="four.tnum" horiz-adv-x="1433"/><glyph d="M457 1434h786l-5 -41h-748l-128 -592q200 49 419 49q208 0 324.5 -109.5t87.5 -309.5q-30 -217 -172.5 -329t-394.5 -112q-136 0 -260 39t-204 113l34 31q75 -70 192.5 -106.5t243.5 -35.5q465 3 520 400q25 178 -78.5 278t-297.5 100q-207 0 -437 -50l-23 20z" glyph-name="five.tnum" horiz-adv-x="1433"/><glyph d="M1249 485q-17 -122 -78.5 -219.5t-148.5 -156t-186 -89t-200 -30.5q-80 0 -154.5 18.5t-139 59t-110 97t-65.5 139.5t-6 181q6 42 12.5 72t23.5 66.5t32 62t53.5 72t69.5 80.5t99.5 104.5t126 126.5t164.5 163.5t200 201.5h54l-519 -520q138 66 298 66q100 0 190.5 -29 t161.5 -87t105 -156t17 -223zM642 31q75 0 148.5 17t144 53t126 88.5t95.5 128.5t52 167q16 116 -15 206t-97 143t-149 79t-177 26q-74 0 -148 -18t-144 -55.5t-127 -90t-97 -127.5t-52 -163q-12 -91 6 -167t59.5 -128.5t101.5 -88.5t129 -53t144 -17z" glyph-name="six.tnum" horiz-adv-x="1433"/><glyph d="M391 1434h894l-5 -41q-544 -589 -779 -1393h-42q238 814 773 1393h-846z" glyph-name="seven.tnum" horiz-adv-x="1433"/><glyph d="M1207 399q-14 -102 -72 -183.5t-141 -129t-174.5 -72t-184.5 -24.5q-73 0 -142 14.5t-131.5 47t-107 79t-65.5 116t-9 152.5q11 80 49 148t94.5 116.5t121 80.5t136.5 51q-110 35 -173.5 115t-47.5 200q14 106 86.5 183.5t174 114t219.5 36.5q183 0 295 -87.5t91 -246.5 q-8 -61 -37 -114.5t-72 -92t-93 -65.5t-106 -43q67 -18 122 -50.5t97.5 -81t61.5 -116.5t8 -148zM403 1110q-10 -74 17 -132.5t80 -93t117 -52.5t133.5 -18t139 18t132.5 52.5t106.5 93t54.5 132.5q10 73 -13.5 130t-73.5 92t-117 53t-145 18q-165 0 -288 -75.5t-143 -217.5 zM641 31q86 0 170 21.5t160 64t128 115.5t65 167q12 90 -19.5 163.5t-93.5 118t-141 68.5t-165 24q-85 0 -170.5 -24t-160 -68.5t-126 -118t-65.5 -163.5q-11 -76 8 -138.5t59.5 -104t98 -71t121 -42t131.5 -12.5z" glyph-name="eight.tnum" horiz-adv-x="1433"/><glyph d="M226 948q17 122 79 220t149 156t185.5 89t200.5 31q80 0 154.5 -18.5t139 -59t109.5 -97.5t65 -139.5t7 -181.5q-6 -42 -13 -71.5t-23.5 -66.5t-31.5 -62t-53.5 -71.5t-69.5 -81t-100 -104.5t-126 -126.5t-164 -164t-200 -200.5h-55l519 519q-138 -66 -298 -65 q-100 0 -190 29t-161 87t-105.5 155.5t-17.5 222.5zM833.5 1403q-74.5 0 -148.5 -17t-144 -53.5t-126 -88.5t-95.5 -128.5t-52.5 -167.5q-16 -116 15.5 -206t97.5 -142.5t149 -78.5t178 -26q93 0 185 29t172.5 83.5t137 143.5t72.5 197q12 91 -6.5 167.5t-60 128.5 t-101 88.5t-129 53.5t-144 17z" glyph-name="nine.tnum" horiz-adv-x="1433"/><glyph d="M804 1444q243 0 354 -184t60 -543q-50 -359 -213 -543t-406 -184t-353.5 183t-60.5 544q51 360 213.5 543.5t405.5 183.5zM226 717q-38 -267 20 -435l891 921q-94 200 -339 200q-224 0 -374 -173t-198 -513zM1177 717q39 281 -24 448l-893 -922q93 -212 345 -212 q224 0 374 173t198 513z" glyph-name="zero.zero" horiz-adv-x="1359"/><glyph d="M785 430q-31 -216 -128.5 -326t-243 -110t-212 110t-35.5 326q30 216 127.5 326t243 110t212 -110t36.5 -326zM419 35q128 0 214 99.5t113 295.5t-30.5 295.5t-185.5 99.5t-213.5 -99.5t-111.5 -295.5q-28 -196 29 -295.5t185 -99.5z" glyph-name="zero.dnom" horiz-adv-x="988"/><glyph d="M358 41h207l-5 -41h-455l6 41h206l110 777q-105 -48 -180 -67l6 43q80 22 180 66h41z" glyph-name="one.dnom" horiz-adv-x="823"/><glyph d="M719 41l-5 -41h-609l6 41q53 43 150.5 116t170.5 129t149 122t120.5 127t52.5 111q13 92 -46 144t-188 52q-137 0 -250 -83l-24 29q127 94 280 95q146 0 215 -63.5t55 -172.5q-8 -55 -52 -118.5t-120 -131.5t-143 -121.5t-166 -126.5t-143 -108h547z" glyph-name="two.dnom" horiz-adv-x="976"/><glyph d="M248 872h546l-6 -41l-413 -349q53 13 109 14q128 0 201 -66t57 -180q-37 -260 -338 -260q-80 0 -159 27t-127 72l35 31q46 -42 116 -66t142 -23q136 1 205.5 54.5t84.5 165.5q14 101 -45.5 152.5t-177.5 51.5q-86 0 -154 -33l-23 48l428 361h-486z" glyph-name="three.dnom" horiz-adv-x="970"/><glyph d="M779 278l-6 -40h-169l-33 -238h-35l32 238h-430l6 40l507 582h41l-82 -582h169zM197 278h377l74 526z" glyph-name="four.dnom" horiz-adv-x="1003"/><glyph d="M299 860h467l-6 -41h-428l-74 -339q118 30 230 30q131 0 198 -62t49 -189q-19 -136 -102.5 -200.5t-237.5 -64.5q-82 0 -156 23t-122 68l28 35q45 -42 113 -64t142 -21q141 1 209 52.5t85 171.5q15 106 -39.5 158t-171.5 52q-102 0 -241 -30l-30 13z" glyph-name="five.dnom" horiz-adv-x="962"/><glyph d="M800 297q-13 -96 -72.5 -166t-136.5 -100.5t-159 -30.5q-60 0 -114.5 18.5t-97 54t-63.5 93.5t-11 131q6 45 16.5 74t31 64.5t68 87.5t112.5 119.5t181 183.5q27 26 40 40h54l-312 -311q84 39 178 39q60 0 114.5 -17.5t97.5 -52.5t63 -93.5t10 -133.5zM437.5 40 q114.5 0 208.5 66.5t112 190.5q17 127 -58 192t-190 65q-71 0 -138.5 -27.5t-119.5 -88t-64 -141.5q-16 -124 59.5 -190.5t190 -66.5z" glyph-name="six.dnom" horiz-adv-x="1021"/><glyph d="M226 860h537l-6 -41q-330 -357 -465 -819h-42q131 446 445 819h-475z" glyph-name="seven.dnom" horiz-adv-x="905"/><glyph d="M755 240q-11 -81 -67.5 -139t-128 -82.5t-147.5 -24.5q-55 0 -106 15t-92.5 43t-62.5 77t-12 111q13 93 81 154t159 83q-66 20 -103.5 68.5t-27.5 120.5q13 95 95 147.5t192 52.5q111 0 178 -52.5t54 -147.5q-10 -72 -62 -120t-123 -69q85 -23 135.5 -83.5t37.5 -153.5z M291 666q-11 -80 48.5 -124.5t143.5 -44.5q83 0 156 44.5t84 124.5q11 79 -45 120.5t-148.5 41.5t-160 -41.5t-78.5 -120.5zM417.5 34q104.5 0 191 52t102.5 154q13 99 -59 156.5t-175 57.5q-65 0 -126.5 -23.5t-109 -74t-57.5 -116.5q-15 -101 57 -153.5t176.5 -52.5z" glyph-name="eight.dnom" horiz-adv-x="984"/><glyph d="M185 569q13 96 73 166t136.5 100.5t158.5 30.5q60 0 115 -18.5t97.5 -53.5t63 -93.5t10.5 -131.5q-14 -100 -71 -172.5t-337 -355.5q-27 -27 -40 -41h-54l311 311q-84 -39 -178 -39q-60 0 -114.5 17.5t-97.5 52.5t-63 93.5t-10 133.5zM548 826q-115 0 -209 -66.5 t-112 -190.5q-17 -127 58.5 -192t190.5 -65q71 0 138 28t119 88t64 141q16 124 -59 190.5t-190 66.5z" glyph-name="nine.dnom" horiz-adv-x="1021"/><glyph d="M866 1008q-31 -216 -128.5 -326.5t-243 -110.5t-212 110.5t-35.5 326.5q30 216 127.5 326t243 110t212 -110t36.5 -326zM500 612q128 0 214 100t113 296t-30.5 295.5t-185.5 99.5t-213.5 -100t-111.5 -295q-28 -196 29 -296t185 -100z" glyph-name="zero.numr" horiz-adv-x="988"/><glyph d="M439 614h207l-5 -41h-455l5 41h207l110 778q-105 -48 -180 -68l6 43q80 22 180 67h41z" glyph-name="one.numr" horiz-adv-x="823"/><glyph d="M798 602l-5 -41h-609l5 41q53 43 151 116.5t171 129t149 121.5t120.5 127t52.5 111q13 92 -46 144t-188 52q-137 0 -250 -83l-24 30q127 94 280 94q146 0 215 -63.5t54 -172.5q-8 -55 -51.5 -118.5t-119.5 -131.5t-143 -121.5t-166 -126.5t-143 -108h547z" glyph-name="two.numr" horiz-adv-x="976"/><glyph d="M328 1434h545l-5 -41l-413 -350q53 13 109 14q128 0 201 -66t57 -180q-37 -260 -338 -260q-80 0 -159 27t-127 72l34 31q46 -42 116.5 -66t141.5 -23q136 1 206 54.5t85 165.5q14 101 -45.5 152.5t-177.5 51.5q-86 0 -155 -33l-22 48l428 362h-486z" glyph-name="three.numr" horiz-adv-x="970"/><glyph d="M860 851l-6 -40h-169l-33 -238h-36l33 238h-430l6 40l507 583h41l-82 -583h169zM278 851h377l74 526z" glyph-name="four.numr" horiz-adv-x="1003"/><glyph d="M380 1434h467l-6 -41h-428l-74 -339q118 30 230 29q131 0 198 -62t49 -188q-19 -136 -102.5 -201t-237.5 -65q-82 0 -156 23t-122 68l28 35q45 -42 113 -64t142 -21q141 1 209 53t85 172q15 106 -39.5 157.5t-171.5 51.5q-102 0 -241 -29l-30 12z" glyph-name="five.numr" horiz-adv-x="962"/><glyph d="M880 864q-13 -96 -72.5 -165.5t-136.5 -100.5t-159 -31q-60 0 -114.5 18.5t-97 54t-63.5 94t-11 130.5q6 45 16.5 74.5t31 64.5t68 87.5t112.5 119.5t181 184l40 40h54l-312 -312q84 39 178 39q60 0 114.5 -17.5t97.5 -52t63 -93.5t10 -134zM517 607q115 0 209 66.5 t112 190.5q17 127 -58 192t-190 65q-71 0 -138.5 -27.5t-119.5 -88t-64 -141.5q-16 -124 59 -190.5t190 -66.5z" glyph-name="six.numr" horiz-adv-x="1021"/><glyph d="M307 1434h537l-6 -41q-330 -357 -465 -820h-42q131 446 445 820h-475z" glyph-name="seven.numr" horiz-adv-x="905"/><glyph d="M835 807q-11 -81 -67.5 -139t-128 -82.5t-147.5 -24.5q-55 0 -106 15t-92.5 43t-62.5 77t-12 111q13 93 81 154t159 83q-66 20 -104 68.5t-27 120.5q13 95 95 148t191 53q111 0 178.5 -53t54.5 -148q-10 -72 -62 -120t-123 -69q85 -23 135.5 -83.5t37.5 -153.5zM371 1233 q-11 -80 48.5 -124.5t143.5 -44.5q83 0 156 44.5t84 124.5q11 79 -45.5 121t-148.5 42t-159.5 -42t-78.5 -121zM497.5 601q104.5 0 191 52.5t102.5 153.5q13 99 -59.5 156.5t-174.5 57.5q-65 0 -126.5 -23.5t-109.5 -74t-57 -116.5q-15 -101 57 -153.5t176.5 -52.5z" glyph-name="eight.numr" horiz-adv-x="984"/><glyph d="M265 1137q13 96 73 165.5t136.5 100.5t158.5 31q60 0 115 -18.5t97.5 -54t63 -94t10.5 -130.5q-14 -100 -71 -173t-337 -356q-26 -27 -40 -41h-54l311 312q-84 -39 -178 -39q-60 0 -114.5 17t-97.5 52t-63 94t-10 134zM627.5 1394q-114.5 0 -208.5 -66.5t-112 -190.5 q-17 -127 58.5 -192t190.5 -65q71 0 138 27.5t119 88t64 141.5q16 124 -59.5 190.5t-190 66.5z" glyph-name="nine.numr" horiz-adv-x="1021"/><glyph d="M268 870h307l-43 -307h-307z" glyph-name="bullet.aalt" horiz-adv-x="757"/><glyph d="M311 -358q-145 505 -71.5 1027.5t359.5 1020.5h40q-288 -512 -357.5 -1020.5t69.5 -1027.5h-40z" glyph-name="parenleft.aalt" horiz-adv-x="705"/><glyph d="M136 -358h-40q286 529 358 1027t-70 1021h40q145 -496 72 -1020.5t-360 -1027.5z" glyph-name="parenright.aalt" horiz-adv-x="706"/><glyph d="M445 -307q-30 0 -52.5 7.5t-43.5 27t-31 54t-14 88t8 128.5l66 464q6 28 1 63.5t-17.5 67.5t-43.5 54.5t-77 23.5l5 41q46 1 84 23t60.5 55t35 66.5t16.5 64.5l66 463q12 91 34.5 154t53.5 94.5t61.5 44.5t68.5 13h76l-6 -41h-76q-70 0 -111 -62t-53 -151l-71 -499 q-8 -58 -29.5 -110t-64 -91.5t-96.5 -42.5l-1 -4q41 -2 69.5 -25.5t40.5 -58.5t16 -77.5t-3 -82.5l-71 -498q-12 -89 11.5 -151t93.5 -62h75l-5 -41h-76z" glyph-name="braceleft.aalt" horiz-adv-x="868"/></font>
</defs>
</svg>
