<?xml version="1.0" standalone="no"?>
<!DOCTYPE svg PUBLIC "-//W3C//DTD SVG 1.1//EN" "http://www.w3.org/Graphics/SVG/1.1/DTD/svg11.dtd">
<svg xmlns="http://www.w3.org/2000/svg"><metadata>This SVG WebFont was generated by YouWorkForThem.
Copyright Â© 2019 by TypeUnion. All rights reserved.</metadata><defs><font horiz-adv-x="1372" id="ywftsvg"><font-face ascent="1638" bbox="-1061 -632 2910.03 2099" cap-height="1434" descent="-410" font-family="" font-stretch="normal" font-weight="800" panose-1="0 0 9 0 0 0 0 0 0 0" underline-position="0" underline-thickness="0" unicode-range="U+0020-FB02" units-per-em="2048" x-height="1075"/><missing-glyph d="M123 1434h1154v-1434h-1154v1434zM935 302v830h-469v-830h469z" horiz-adv-x="1399"/><glyph d="M1545 1075v-1075h-461v768h-410v-768h-461v768h-162v307h162v219q0 100 70.5 171t172.5 71h475v-287h-164q-44 0 -68.5 -24t-24.5 -68v-82h871zM1059 1434h512v-281h-512v281z" glyph-name="uniFB01" horiz-adv-x="1668" unicode="fi"/><glyph d="M1504 1536v-1536h-461v1249h-276q-44 0 -68.5 -24t-24.5 -68v-82h257v-307h-257v-768h-461v768h-162v307h162v219q0 100 70.5 171t172.5 71h1048z" glyph-name="uniFB02" horiz-adv-x="1586" unicode="fl"/><glyph d="M1780 1249q-44 0 -68.5 -24t-24.5 -68v-82h257v-307h-257v-768h-461v768h-552v-768h-461v768h-162v307h162v219q0 100 70.5 171t172.5 71h475v-287h-164q-44 0 -68.5 -24t-24.5 -68v-82h552v219q0 100 70.5 171t171.5 71h476v-287h-164z" glyph-name="f_f.liga" horiz-adv-x="2025" unicode="ff"/><glyph d="M2609 1075v-1075h-461v768h-461v-768h-461v768h-552v-768h-461v768h-162v307h162v219q0 100 70.5 171t172.5 71h475v-287h-164q-44 0 -68.5 -24t-24.5 -68v-82h552v219q0 100 70.5 171t171.5 71h476v-287h-164q-44 0 -68.5 -24t-24.5 -68v-82h922zM2123 1434h512v-281 h-512v281z" glyph-name="f_f_i.liga" horiz-adv-x="2732" unicode="ffi"/><glyph d="M123 1434h1154v-1434h-1154v1434zM935 302v830h-469v-830h469z" glyph-name=".notdef" horiz-adv-x="1399"/><glyph glyph-name="glyph1" horiz-adv-x="0"/><glyph glyph-name="glyph2" horiz-adv-x="681"/><glyph glyph-name="space" horiz-adv-x="409" unicode=" "/><glyph d="M200 358l-52 1076h461l-51 -1076h-358zM123 0v281h512v-281h-512z" glyph-name="exclam" horiz-adv-x="757" unicode="!"/><glyph d="M123 1434h409l-30 -666h-348zM635 1434h409l-30 -666h-348z" glyph-name="quotedbl" horiz-adv-x="1167" unicode="&quot;"/><glyph d="M1430 834l-47 -232h171l-60 -298h-171l-62 -304h-480l63 304h-193l-62 -304h-480l62 304h-171l60 298h171l47 232h-169l60 298h169l62 302h481l-63 -302h193l62 302h479l-62 -302h171l-60 -298h-171zM950 834h-192l-46 -232h192z" glyph-name="numbersign" horiz-adv-x="1671" unicode="#"/><glyph d="M897 857q78 -26 142.5 -65.5t117.5 -96.5t81 -137.5t23 -174.5q-17 -335 -497 -392v-159h-205v148q-118 1 -245.5 29t-225.5 78v378q263 -137 476 -137q216 0 216 98q0 38 -50.5 66t-115 42.5t-148.5 35.5t-128 41q-144 67 -214 172t-62 270q8 157 138 262t359 132v155 h205v-148q212 -10 383 -96v-377q-124 71 -225.5 99.5t-219.5 26.5q-32 -1 -62.5 -7.5t-57 -25t-30.5 -46.5q-4 -31 15.5 -55t60 -39.5t81.5 -26.5t98 -25t90 -25z" glyph-name="dollar" horiz-adv-x="1323" unicode="$"/><glyph d="M820 1001q1 -216 -103.5 -329t-281.5 -113t-280.5 112.5t-103.5 329.5q0 213 103.5 328t280.5 115t281 -115t104 -328zM1243 1434h218l-766 -1434h-217zM435 762q33 0 54 19.5t31 56t14 74t4 89.5q0 240 -103 240q-101 0 -101 -240q0 -52 3.5 -89.5t13 -74t31 -56 t53.5 -19.5zM1874 430q1 -216 -103.5 -329t-281.5 -113t-280.5 112.5t-103.5 329.5q0 213 103.5 327.5t280.5 114.5t281 -114.5t104 -327.5zM1489 190q33 0 54 19.5t31 56.5t13.5 74.5t3.5 89.5q0 240 -102 240q-101 0 -101 -240q0 -52 3.5 -89.5t13 -74.5t31 -56.5 t53.5 -19.5z" glyph-name="percent" horiz-adv-x="1925" unicode="%"/><glyph d="M1464 561h-131v-157q1 -88 -32.5 -159t-93 -119.5t-141.5 -81.5t-175 -47.5t-199 -14.5q-104 0 -198 14.5t-175 47.5t-140.5 81.5t-93.5 119.5t-34 159q0 212 213 327q-136 111 -136 295q0 85 31 155.5t84.5 119.5t126 82.5t153.5 49.5t169 16t169 -16t153.5 -49.5 t126 -82.5t84.5 -119.5t31 -155.5l-400 -20q0 59 -39 97.5t-125 38.5t-125 -38.5t-39 -98t39 -98t125 -38.5h772v-308zM872 425v136h-180q-95 0 -137.5 -38.5t-42.5 -97.5t42.5 -97.5t137.5 -38.5t137.5 38.5t42.5 97.5z" glyph-name="ampersand" horiz-adv-x="1515" unicode="&amp;"/><glyph d="M123 1434h409l-30 -666h-348z" glyph-name="quotesingle" horiz-adv-x="655" unicode="'"/><glyph d="M347 -486q-225 505 -224.5 1027t224.5 1021h424q-186 -447 -185 -1016.5t185 -1031.5h-424z" glyph-name="parenleft" horiz-adv-x="893" unicode="("/><glyph d="M547 -486h-424q184 463 185 1031.5t-185 1016.5h424q224 -499 224.5 -1021t-224.5 -1027z" glyph-name="parenright" horiz-adv-x="893" unicode=")"/><glyph d="M861 1056l-238 -77l146 -194l-171 -137l-142 189l-142 -189l-171 137l146 194l-238 77l71 202l225 -72v248h218v-248l226 72z" glyph-name="asterisk" horiz-adv-x="912" unicode="*"/><glyph d="M1147 870v-307h-282v-323h-461v323h-281v307h281v324h461v-324h282z" glyph-name="plus" horiz-adv-x="1269" unicode="+"/><glyph d="M123 332h461l-154 -655h-410z" glyph-name="comma" horiz-adv-x="706" unicode=","/><glyph d="M123 712h614v-348h-614v348z" glyph-name="hyphen" horiz-adv-x="860" unicode="-"/><glyph d="M123 383h512v-383h-512v383z" glyph-name="period" horiz-adv-x="757" unicode="."/><glyph d="M964 1434l-454 -1434h-469l454 1434h469z" glyph-name="slash" horiz-adv-x="1004" unicode="/"/><glyph d="M1342 717q1 -361 -172 -549t-469 -188q-143 0 -259.5 46t-201.5 136t-132 231.5t-47 323.5q0 354 172.5 545.5t468 191.5t468 -191.5t172.5 -545.5zM701.5 317q53.5 0 89 32.5t52 94t22.5 124.5t6 149q0 399 -170 399q-169 0 -169 -399q0 -86 6.5 -149t23 -124.5 t51.5 -94t88.5 -32.5z" glyph-name="zero" horiz-adv-x="1403" unicode="0"/><glyph d="M932 348h348v-348h-1157v348h348v696q-134 -100 -266 -138v389q140 26 262 139h465v-1086z" glyph-name="one" horiz-adv-x="1402" unicode="1"/><glyph d="M1324 348v-348h-1263v348q125 70 224.5 130.5t200.5 129.5t167.5 128.5t108.5 119.5t42 111q0 58 -40 98.5t-107 41.5q-216 3 -412 -105l-157 300q156 80 290.5 116.5t297.5 36.5q293 0 455.5 -111t162.5 -291q0 -71 -16.5 -137.5t-43 -120t-71.5 -108.5t-85.5 -95 t-104 -88t-109 -79t-115.5 -77h575z" glyph-name="two" horiz-adv-x="1385" unicode="2"/><glyph d="M141 1434h1138v-349l-381 -243q97 -18 163 -43q294 -110 288 -392q-2 -145 -87.5 -245t-225 -143.5t-321.5 -38.5q-207 5 -341.5 34.5t-312.5 113.5l181 316q79 -51 217.5 -85.5t250.5 -31.5q72 0 125.5 21.5t55.5 63.5q4 60 -69 109t-196 49q-166 0 -236 -10l-87 307 l451 218h-613v349z" glyph-name="three" horiz-adv-x="1410" unicode="3"/><glyph d="M1492 644v-348h-206v-296h-461v296h-702v348l633 790h530v-790h206zM548 644h277v361z" glyph-name="four" horiz-adv-x="1614" unicode="4"/><glyph d="M213 1434h1053v-349h-655l-14 -161q83 7 187.5 1t170.5 -24q184 -48 290 -171t104 -293q-2 -121 -51 -211.5t-135.5 -144.5t-199 -79.5t-248.5 -21.5q-207 5 -341.5 34.5t-312.5 113.5l181 316q78 -49 216 -83t252 -34q47 0 85 9.5t66.5 36t29.5 69.5q2 50 -61.5 95.5 t-156 70t-180.5 24.5q-96 0 -229 -20l-88 102z" glyph-name="five" horiz-adv-x="1410" unicode="5"/><glyph d="M1343 465q1 -99 -35.5 -181t-98.5 -137t-145.5 -93t-174 -54.5t-187 -16.5t-186.5 16.5t-173.5 54.5t-145.5 93t-99 137t-37 181q0 44 4.5 75.5t23.5 78t38 81t70 113t97.5 145.5t141.5 206.5t182 269.5h543l-360 -539q142 35 259 -2q132 -40 207.5 -156.5t75.5 -271.5z M702.5 280q48.5 0 85 18t56.5 47t29.5 59.5t9.5 60.5t-9.5 60t-29.5 59t-56.5 47t-85 18t-85 -18t-56.5 -47t-29.5 -59t-9.5 -60t9.5 -60.5t29.5 -59.5t56.5 -47t85 -18z" glyph-name="six" horiz-adv-x="1404" unicode="6"/><glyph d="M61 1434h1117v-349q-206 -257 -333.5 -515.5t-168.5 -569.5h-481q41 317 162.5 578t318.5 507h-615v349z" glyph-name="seven" horiz-adv-x="1239" unicode="7"/><glyph d="M1343 404q1 -88 -32.5 -159t-93 -119.5t-141.5 -81.5t-175 -47.5t-199 -14.5q-104 0 -197.5 14.5t-175 47.5t-141 81.5t-93.5 119.5t-34 159q0 212 213 327q-136 111 -136 295q0 85 31.5 155.5t84.5 119.5t126 82.5t153.5 49.5t169 16t169 -16t153.5 -49.5t126 -82.5 t84.5 -119.5t31.5 -155.5q1 -183 -135 -295q211 -117 211 -327zM539 1005.5q0 -59.5 38.5 -98t124.5 -38.5t125 38.5t39 98t-39 98t-125 38.5t-124.5 -38.5t-38.5 -98zM702.5 289q95.5 0 138 38.5t42.5 97.5t-42.5 97.5t-138 38.5t-138 -38.5t-42.5 -97.5t42.5 -97.5 t138 -38.5z" glyph-name="eight" horiz-adv-x="1404" unicode="8"/><glyph d="M61 972q-1 99 36 181t99 137t145.5 92.5t174 54.5t187 17t186.5 -17t173.5 -54.5t145.5 -92.5t98.5 -137t36.5 -181q0 -44 -4 -76t-23 -78t-38.5 -81t-70 -113t-97 -145t-142 -206.5t-182.5 -269.5h-542l360 539q-142 -35 -259 2q-132 40 -208 156.5t-76 271.5z M702.5 1157q-48.5 0 -85 -18.5t-56.5 -47t-29.5 -59.5t-9.5 -60.5t9.5 -59.5t29.5 -59.5t56.5 -47.5t85 -18t85 18t56.5 47.5t29.5 59.5t9.5 59.5t-9.5 60.5t-29.5 59.5t-56.5 47t-85 18.5z" glyph-name="nine" horiz-adv-x="1404" unicode="9"/><glyph d="M123 1075h512v-383h-512v383zM123 383h512v-383h-512v383z" glyph-name="colon" horiz-adv-x="757" unicode=":"/><glyph d="M123 1075h512v-383h-512v383zM148 332h461l-153 -655h-410z" glyph-name="semicolon" horiz-adv-x="757" unicode=";"/><glyph d="M1093 1265v-389l-601 -159l601 -159v-389l-970 256v584z" glyph-name="less" horiz-adv-x="1215" unicode="&lt;"/><glyph d="M1147 788h-1024v308h1024v-308zM1147 338h-1024v307h1024v-307z" glyph-name="equal" horiz-adv-x="1269" unicode="="/><glyph d="M123 1265l970 -256v-584l-970 -256v389l601 159l-601 159v389z" glyph-name="greater" horiz-adv-x="1215" unicode=">"/><glyph d="M530 1434q182 4 321.5 -39.5t225 -143t87.5 -244.5q6 -283 -287 -393q-22 -8 -63 -15.5t-92.5 -16t-69.5 -11.5v-192h-419l-27 474q70 -10 235 -10q123 0 196.5 49t69.5 109q-2 42 -56 63.5t-126 21.5q-110 3 -247 -31t-217 -84v391q106 37 212 53t257 19zM187 0v281h512 v-281h-512z" glyph-name="question" horiz-adv-x="1225" unicode="?"/><glyph d="M1399 -86q-182 -66 -422 -66q-207 0 -378 62t-289.5 175.5t-183.5 276.5t-65 361q0 181 63.5 339t178.5 273.5t286 182.5t376 67q263 0 468 -100.5t318 -279.5t113 -406q0 -159 -52.5 -283t-153 -195t-235.5 -71q-109 0 -192 37.5t-118 107.5q-82 -81 -251 -81 q-88 0 -159 23.5t-126 72t-85 128t-31 185.5q-1 207 109 308t292 101q169 0 251 -81l15 65h271v-527q0 -22 8 -36.5t21.5 -21t24 -9t22.5 -2.5q47 0 77 40.5t42 98.5t12 132q0 259 -167.5 409t-482.5 150q-294 0 -464 -171t-170 -456q0 -311 178 -482t477 -171q198 0 358 49 zM1061 598v250q-53 67 -131 66q-70 0 -101 -54t-31 -137q0 -82 31 -136.5t101 -54.5q77 0 131 66z" glyph-name="at" horiz-adv-x="1925" unicode="@"/><glyph d="M1198 0l-73 233h-524l-73 -233h-528l515 1434h696l515 -1434h-528zM710 582h307l-154 493z" glyph-name="A" horiz-adv-x="1726" unicode="A"/><glyph d="M123 1434h883q194 0 312.5 -95.5t118.5 -271.5q0 -88 -39.5 -173t-101.5 -116q104 -39 156 -130.5t52 -226.5q0 -106 -42 -188t-116.5 -132.5t-171.5 -75.5t-212 -25h-839v1434zM625 1121v-247h188q77 0 115.5 28t38.5 93q0 74 -35 100t-119 26h-188zM840 302 q83 -1 122 33.5t40 106.5q1 68 -38.5 99.5t-120.5 31.5h-218v-267z" glyph-name="B" horiz-adv-x="1565" unicode="B"/><glyph d="M1249 1057q-210 72 -384 49q-138 -12 -220 -114.5t-82 -274.5t82 -274.5t220 -114.5q174 -23 384 49v-350q-179 -47 -382 -47q-127 0 -244.5 30t-219.5 91.5t-178.5 148t-120 207t-43.5 260.5t43.5 260.5t120 207t178.5 148t219.5 91.5t244.5 30q203 0 382 -47v-350z" glyph-name="C" unicode="C"/><glyph d="M1583 717q1 -180 -57 -320t-160 -225.5t-235.5 -128.5t-290.5 -43h-717v1434h717q159 0 292.5 -45.5t234.5 -132.5t158.5 -225t57.5 -314zM788 348q96 0 164.5 53.5t98.5 134.5t30 181q0 98 -32 180.5t-100 135t-161 52.5h-163v-737h163z" glyph-name="D" horiz-adv-x="1644" unicode="D"/><glyph d="M625 348h686v-348h-1188v1434h1188v-349h-686v-194h594v-348h-594v-195z" glyph-name="E" horiz-adv-x="1433" unicode="E"/><glyph d="M625 0h-502v1434h1147v-349h-645v-194h563v-348h-563v-543z" glyph-name="F" horiz-adv-x="1392" unicode="F"/><glyph d="M834 886h580v-813q-279 -93 -547 -93q-127 0 -244.5 30t-219.5 91.5t-178.5 148t-120 207t-43.5 260.5t43.5 260.5t120 207t178.5 148t219.5 91.5t244.5 30q203 0 382 -47v-350q-210 72 -384 49q-138 -12 -220 -114.5t-82 -274.5t82 -274.5t220 -114.5q61 -8 132 -3v243 h-163v318z" glyph-name="G" horiz-adv-x="1537" unicode="G"/><glyph d="M1065 1434h502v-1434h-502v543h-440v-543h-502v1434h502v-543h440v543z" glyph-name="H" horiz-adv-x="1689" unicode="H"/><glyph d="M625 0h-502v1434h502v-1434z" glyph-name="I" horiz-adv-x="747" unicode="I"/><glyph d="M123 379q172 -52 268 -41q211 25 211 215v881h502v-891q1 -136 -32.5 -237t-89.5 -162.5t-144 -99t-184.5 -51t-221.5 -13.5q-178 0 -309 33v366z" glyph-name="J" horiz-adv-x="1226" unicode="J"/><glyph d="M1537 1434l-415 -686l415 -748h-547l-365 658v-658h-502v1434h502v-606l365 606h547z" glyph-name="K" horiz-adv-x="1537" unicode="K"/><glyph d="M625 1434v-1086h635v-348h-1137v1434h502z" glyph-name="L" horiz-adv-x="1310" unicode="L"/><glyph d="M1319 1434h694v-1434h-502v797l-218 -675h-450l-218 675v-797h-502v1434h694l251 -750z" glyph-name="M" horiz-adv-x="2136" unicode="M"/><glyph d="M1085 1434h502v-1434h-502l-460 694v-694h-502v1434h502l460 -675v675z" glyph-name="N" horiz-adv-x="1710" unicode="N"/><glyph d="M1670 717q1 -179 -66.5 -323t-181.5 -232.5t-256.5 -135t-300.5 -46.5q-125 0 -241 28.5t-219 88.5t-179 146t-120.5 207.5t-44.5 266.5q0 140 43.5 261t119.5 207t178 147.5t219.5 91.5t243.5 30t244 -30t220 -91.5t178 -147.5t119.5 -207t43.5 -261zM865 328 q141 0 222 106.5t81 282.5q0 175 -83.5 282t-219.5 107q-135 0 -218.5 -107t-83.5 -282q0 -176 81 -282.5t221 -106.5z" glyph-name="O" horiz-adv-x="1731" unicode="O"/><glyph d="M840 1434q292 0 466 -128.5t174 -368.5q0 -113 -31.5 -195.5t-94.5 -141.5t-167.5 -96.5t-240 -57.5t-321.5 -26v-420h-502v1434h717zM978 937q0 78 -47.5 123.5t-121.5 45.5h-184v-358q142 5 217.5 24.5t105.5 57t30 107.5z" glyph-name="P" horiz-adv-x="1541" unicode="P"/><glyph d="M1670 717q0 -130 -34.5 -241.5t-99.5 -195t-148.5 -144.5t-186.5 -99q84 -90 210 -149l-220 -256q-99 38 -206.5 136.5t-181.5 213.5q-118 7 -226 39.5t-202 94t-164 145.5t-110 201.5t-40 254.5q0 140 43.5 261t119.5 207t178 147.5t219.5 91.5t243.5 30t244 -30 t220 -91.5t178 -147.5t119.5 -207t43.5 -261zM563 717q0 -176 81 -282.5t221 -106.5q141 0 222 106.5t81 282.5q0 175 -83.5 282t-219.5 107q-135 0 -218.5 -107t-83.5 -282z" glyph-name="Q" horiz-adv-x="1731" unicode="Q"/><glyph d="M1572 0h-502l-257 431q-96 -8 -188 -11v-420h-502v1434h717q292 0 466 -128.5t174 -368.5q0 -148 -54.5 -246.5t-171.5 -158.5zM625 1106v-358q142 5 217.5 24.5t105.5 57t30 107.5q0 78 -47.5 123.5t-121.5 45.5h-184z" glyph-name="R" horiz-adv-x="1633" unicode="R"/><glyph d="M88 465q263 -137 476 -137q216 0 216 98q0 38 -50.5 66t-115 42.5t-148.5 35.5t-128 41q-144 67 -214 172t-62 270q9 180 178.5 291t461.5 111q252 0 445 -97v-377q-124 71 -225.5 99.5t-219.5 26.5q-32 -1 -62.5 -7.5t-57 -25t-30.5 -46.5q-4 -31 15.5 -55t60 -39.5 t81.5 -26.5t98 -25t90 -25q78 -26 142.5 -65.5t117.5 -96.5t81 -137.5t23 -174.5q-5 -93 -48 -165.5t-108.5 -116.5t-157 -72t-184 -38.5t-199.5 -10.5q-119 0 -248.5 28t-227.5 79v378z" glyph-name="S" horiz-adv-x="1323" unicode="S"/><glyph d="M1239 1434v-349h-363v-1085h-502v1085h-364v349h1229z" glyph-name="T" horiz-adv-x="1249" unicode="T"/><glyph d="M1527 1434v-799q1 -182 -47 -310.5t-142.5 -203.5t-220 -108t-293.5 -33q-133 0 -238.5 20t-194 67.5t-146.5 122.5t-90 186.5t-32 258.5v799h502v-891q0 -93 53 -154t146 -61q94 0 147.5 61t53.5 154v891h502z" glyph-name="U" horiz-adv-x="1649" unicode="U"/><glyph d="M1085 1434h529l-454 -1434h-696l-454 1434h529l273 -1044z" glyph-name="V" horiz-adv-x="1624" unicode="V"/><glyph d="M1764 1434h524l-382 -1434h-536l-221 859l-221 -859h-536l-382 1434h524l148 -795l177 795h580l177 -795z" glyph-name="W" horiz-adv-x="2297" unicode="W"/><glyph d="M1603 1434l-446 -700l488 -734h-553l-277 418l-262 -418h-553l489 734l-444 700h545l239 -378l227 378h547z" glyph-name="X" horiz-adv-x="1644" unicode="X"/><glyph d="M984 1434h527l-499 -983v-451h-502v451l-500 983h531l220 -512z" glyph-name="Y" horiz-adv-x="1521" unicode="Y"/><glyph d="M1352 1434v-349l-604 -737h604v-348h-1229v348l594 737h-594v349h1229z" glyph-name="Z" horiz-adv-x="1474" unicode="Z"/><glyph d="M123 1536h728v-307h-267v-1383h267v-307h-728v1997z" glyph-name="bracketleft" horiz-adv-x="973" unicode="["/><glyph d="M41 1434h469l454 -1434h-469z" glyph-name="backslash" horiz-adv-x="1004" unicode="\"/><glyph d="M851 1536v-1997h-728v307h267v1383h-267v307h728z" glyph-name="bracketright" horiz-adv-x="973" unicode="]"/><glyph d="M817 819h-247l-100 381l-100 -381h-247l162 615h370z" glyph-name="asciicircum" horiz-adv-x="940" unicode="^"/><glyph d="M123 -102h1433v-308h-1433v308z" glyph-name="underscore" horiz-adv-x="1679" unicode="_"/><glyph d="M123 1485h423l181 -307h-338z" glyph-name="grave" horiz-adv-x="849" unicode="`"/><glyph d="M633 1096q153 0 269 -33.5t184.5 -91t103 -129t34.5 -154.5v-689h-441l-20 98q-88 -68 -185.5 -96.5t-226.5 -20.5q-131 8 -208 85t-89 173q-9 80 8 149.5t64.5 132.5t131.5 101t209 55t296 -5v26q0 40 -55 72.5t-129 39.5q-167 15 -405 -78v280q213 85 459 85zM763 314 v154q-139 31 -220 -18t-68 -127q7 -39 41 -58t83 -14q89 8 164 63z" glyph-name="a" horiz-adv-x="1305" unicode="a"/><glyph d="M1364 538q1 -144 -40.5 -253.5t-116.5 -175t-173.5 -97.5t-218.5 -32q-93 0 -187 25t-156 85l-20 -90h-370v1536h461v-521q42 39 117 60t155 21q121 0 220 -34t173 -100.5t115 -174.5t41 -249zM723 276q65 0 106.5 39t57.5 95t16 128q0 56 -9 103t-29 85.5t-56.5 60.5 t-85.5 22q-102 0 -179 -59v-383q74 -91 179 -91z" glyph-name="b" horiz-adv-x="1415" unicode="b"/><glyph d="M1058 756q-66 27 -148.5 39t-163.5 4q-114 -12 -174 -84.5t-60 -177t60.5 -176.5t173.5 -85q81 -8 163.5 4.5t148.5 38.5v-294q-153 -45 -366 -45q-96 0 -187.5 20t-174 65.5t-144.5 109.5t-98.5 157.5t-36.5 205t36.5 205.5t98.5 158t144.5 109t174 65.5t187.5 20.5 q213 0 366 -45v-295z" glyph-name="c" horiz-adv-x="1108" unicode="c"/><glyph d="M51 538q0 141 41 249t115.5 174.5t173 100.5t219.5 34q80 0 155 -21t117 -60v521h461v-1536h-369l-21 90q-61 -60 -155.5 -85t-187.5 -25q-120 0 -218 32t-173.5 97.5t-117 175t-40.5 253.5zM692 276q105 0 179 91v383q-77 59 -179 59q-49 0 -85.5 -22t-56.5 -60.5 t-29 -85.5t-9 -103q0 -72 16 -128t57.5 -95t106.5 -39z" glyph-name="d" horiz-adv-x="1415" unicode="d"/><glyph d="M672 1096q117 0 213 -24.5t163.5 -69t116 -106.5t69.5 -138t24 -163t-22 -180h-720q37 -78 128 -110t237 -35q153 -3 287 49v-294q-153 -45 -419 -45q-143 0 -267.5 33.5t-221.5 100t-153 175t-56 249.5q0 112 34.5 205.5t93.5 157.5t138 109t169 65.5t186 20.5zM858 671 q14 63 -32.5 107.5t-123.5 40.5q-141 -7 -190 -148h346z" glyph-name="e" horiz-adv-x="1309" unicode="e"/><glyph d="M931 1536v-287h-164q-44 0 -68.5 -24t-24.5 -68v-82h257v-307h-257v-768h-461v768h-162v307h162v219q0 100 70.5 171t172.5 71h475z" glyph-name="f" horiz-adv-x="1012" unicode="f"/><glyph d="M872 1075h459v-957q0 -171 -86.5 -296t-237.5 -188.5t-349 -63.5q-223 0 -375 45v295q143 -59 321 -43q132 12 199 52.5t67 119.5v83q-40 -39 -114.5 -60t-155.5 -21q-161 0 -282.5 57t-194 177.5t-72.5 292.5q-1 261 137 394.5t361 133.5q196 0 323 -154v133zM512 568 q0 -241 179 -240q102 0 179 59v322q-74 90 -179 90q-95 0 -137 -64.5t-42 -166.5z" glyph-name="g" horiz-adv-x="1413" unicode="g"/><glyph d="M543 0h-461v1536h461v-603q147 163 415 163q100 0 165 -23t102 -76.5t51 -127.5t14 -188v-681h-461v558q0 121 -18 170.5t-81 49.5q-48 0 -98 -27t-89 -76v-675z" glyph-name="h" unicode="h"/><glyph d="M97 1434h512v-281h-512v281zM123 1075h461v-1075h-461v1075z" glyph-name="i" horiz-adv-x="706" unicode="i"/><glyph d="M97 1434h512v-281h-512v281zM584 1075v-1111q0 -70 -18 -123t-51.5 -87.5t-73.5 -57.5t-93 -33.5t-100.5 -14.5t-105.5 -3q-151 2 -237 55l11 178q109 -25 164 2q27 13 35 39t8 80v1076h461z" glyph-name="j" horiz-adv-x="706" unicode="j"/><glyph d="M1383 1075l-434 -424l434 -651h-475l-225 390l-140 -137v-253h-461v1536h461v-807l365 346h475z" glyph-name="k" horiz-adv-x="1424" unicode="k"/><glyph d="M82 1536h461v-1536h-461v1536z" glyph-name="l" horiz-adv-x="624" unicode="l"/><glyph d="M1660 1096q201 0 289.5 -125t88.5 -413v-558h-461v558q0 112 -27 166t-93 54q-80 0 -123.5 -53.5t-43.5 -145.5v-21v-558h-461v558q0 112 -27 166t-92 54q-80 0 -123.5 -53.5t-43.5 -145.5v-579h-461v1075h461v-142q80 89 161.5 126t207.5 37q132 0 213.5 -52t121.5 -163 q146 215 413 215z" glyph-name="m" horiz-adv-x="2119" unicode="m"/><glyph d="M543 0h-461v1075h461v-142q147 163 415 163q100 0 165 -23t102 -76.5t51 -127.5t14 -188v-681h-461v558q0 121 -18 170.5t-81 49.5q-48 0 -98 -27t-89 -76v-675z" glyph-name="n" unicode="n"/><glyph d="M1333 538q1 -115 -35.5 -210t-98.5 -158.5t-145.5 -107.5t-174.5 -63t-187 -19t-186 19t-173.5 63t-145.5 107.5t-99 158.5t-37 210q0 112 36.5 205.5t98.5 157.5t144.5 109t174 65.5t187.5 20.5t188 -20.5t174.5 -65.5t144.5 -109t98 -157.5t36 -205.5zM692.5 276 q64.5 0 106.5 39t57.5 95t15.5 128q0 113 -43 187t-137 74t-137 -74.5t-43 -186.5q0 -72 16 -128t58 -95t106.5 -39z" glyph-name="o" horiz-adv-x="1384" unicode="o"/><glyph d="M1364 538q0 -141 -41 -249.5t-115 -175t-173 -100t-220 -33.5q-80 0 -155 21t-117 59v-521h-461v1536h370l20 -90q61 60 155.5 85.5t187.5 25.5q120 0 218.5 -32.5t173.5 -98t116.5 -174.5t40.5 -253zM723 799q-105 0 -179 -90v-383q77 -59 179 -60q49 0 85.5 22 t56.5 60.5t29 85.5t9 104q0 72 -16 127.5t-57.5 94.5t-106.5 39z" glyph-name="p" horiz-adv-x="1415" unicode="p"/><glyph d="M51 538q-1 144 40.5 253t117 174.5t173.5 98t218 32.5q93 0 187.5 -25t155.5 -86l21 90h369v-1536h-461v521q-42 -39 -117 -59.5t-155 -20.5q-121 0 -219.5 33.5t-173 100t-115.5 175t-41 249.5zM692 799q-65 0 -106.5 -39t-57.5 -95t-16 -127q0 -56 9 -103.5t29 -86 t56.5 -60.5t85.5 -22q102 0 179 60v383q-74 90 -179 90z" glyph-name="q" horiz-adv-x="1415" unicode="q"/><glyph d="M543 0l-461 1v1074h449v-108q52 49 166.5 89t206.5 40v-313q-72 14 -195.5 -19.5t-165.5 -75.5v-688z" glyph-name="r" horiz-adv-x="924" unicode="r"/><glyph d="M100 342q144 -80 339 -98q70 -7 119 10.5t63 54.5q5 15 -4 27.5t-38.5 24.5t-48.5 17.5t-68 18.5q-33 9 -49 14q-196 51 -280 136.5t-82 224.5q1 83 45.5 146t122 101.5t176 57.5t215.5 19q112 0 219.5 -19.5t175.5 -55.5v-286q-156 86 -348 96q-54 0 -95 -14t-45 -45 q-1 -8 2 -15t11 -14.5t17 -13t26 -12.5t31 -12.5t39 -13t44 -13.5t49.5 -15.5t54.5 -16.5q76 -24 125.5 -48t90 -59.5t58.5 -86t17 -117.5q-2 -92 -48 -162.5t-125 -112t-175 -61t-208 -19.5q-118 0 -239.5 21t-186.5 57v284z" glyph-name="s" horiz-adv-x="1133" unicode="s"/><glyph d="M931 0h-475q-101 0 -172 70.5t-71 171.5v526h-162v307h162v205h461v-205h257v-307h-257v-389q0 -44 24.5 -68t68.5 -24h164v-287z" glyph-name="t" horiz-adv-x="1012" unicode="t"/><glyph d="M829 1075h461v-1075h-461v142q-147 -163 -415 -162q-100 0 -165 23t-101.5 76t-51 127.5t-14.5 187.5v681h461v-558q0 -121 18.5 -170.5t80.5 -49.5q48 0 98.5 27t88.5 76v675z" glyph-name="u" unicode="u"/><glyph d="M933 1075h486l-351 -1075h-676l-351 1075h489l200 -781z" glyph-name="v" horiz-adv-x="1460" unicode="v"/><glyph d="M1598 1075h486l-316 -1075h-540l-167 634l-164 -634h-541l-315 1075h485l159 -607l137 607h481l157 -607z" glyph-name="w" horiz-adv-x="2124" unicode="w"/><glyph d="M1321 1075l-323 -507l323 -568h-475l-165 291l-165 -291h-475l323 568l-323 507h475l165 -259l165 259h475z" glyph-name="x" horiz-adv-x="1361" unicode="x"/><glyph d="M933 1075h486l-438 -1050q-205 -488 -809 -424l-20 285q138 -29 210 4t79 135l-400 1050h489l187 -641z" glyph-name="y" horiz-adv-x="1460" unicode="y"/><glyph d="M1124 768l-504 -461h504l-1 -307h-1072v307l504 461h-504v307h1072z" glyph-name="z" horiz-adv-x="1175" unicode="z"/><glyph d="M710 -461q-420 0 -420 398v320q0 60 -37.5 92t-129.5 35v307q92 3 129.5 35t37.5 92v321q0 397 420 397h251v-307h-76q-77 0 -105.5 -29t-28.5 -105v-363q0 -184 -239 -192v-4q239 -8 239 -193v-362q0 -77 28.5 -106t105.5 -29h76v-307h-251z" glyph-name="braceleft" horiz-adv-x="1083" unicode="{"/><glyph d="M123 1536h461v-1946h-461v1946z" glyph-name="bar" horiz-adv-x="706" unicode="|"/><glyph d="M374 -461h-251v307h76q77 0 105.5 29t28.5 106v362q0 184 238 193v4q-239 8 -238 192v363q0 77 -29 105.5t-105 28.5h-76v307h251q420 0 420 -397v-321q0 -60 37 -92t130 -35v-307q-92 -3 -129.5 -35t-37.5 -92v-320q0 -398 -420 -398z" glyph-name="braceright" horiz-adv-x="1083" unicode="}"/><glyph d="M123 528q0 99 25 174t67.5 118t94 64t111.5 21q81 0 204 -42t172 -42q70 0 73 84h277q0 -99 -25 -174t-67.5 -118t-94.5 -64t-111 -21q-80 0 -203 42t-173 42q-70 0 -74 -84h-276z" glyph-name="asciitilde" horiz-adv-x="1269" unicode="~"/><glyph d="M123 1075h512v-280h-512v280zM200 717h358l51 -1075h-461z" glyph-name="exclamdown" horiz-adv-x="757" unicode="¡"/><glyph d="M1058 756q-79 32 -176 43v-523q97 11 176 43v-294q-76 -23 -176 -34v-159h-205v148q-95 2 -184.5 23.5t-170 66.5t-140.5 109t-95.5 156t-35.5 202.5t35.5 203t95.5 156.5t140.5 109t170 66.5t184.5 23.5v147h205v-159q100 -11 176 -33v-295zM512 538q0 -87 42 -153 t123 -93v491q-81 -28 -123 -93t-42 -152z" glyph-name="cent" horiz-adv-x="1108" unicode="¢"/><glyph d="M647 348h695v-348h-1170v348q134 108 157 205h-206v307h133q-54 154 -54 295q0 138 170 218.5t468 80.5q203 0 382 -47v-350q-209 72 -383 50q-68 -8 -107.5 -46t-39.5 -94q0 -25 21 -107h434v-307h-383q-7 -148 -117 -205z" glyph-name="sterling" horiz-adv-x="1465" unicode="£"/><glyph d="M1128 717q0 -178 -108 -309l145 -146l-112 -112l-150 149q-129 -84 -289 -84q-166 0 -295 90l-155 -155l-113 112l152 152q-102 135 -102.5 303t102.5 303l-152 151l113 113l155 -156q129 90 295 91q160 0 289 -84l150 149l112 -113l-145 -145q108 -131 108 -309z M614 524q82 0 138.5 55t56.5 138t-56.5 137.5t-138.5 54.5t-138 -54.5t-56 -137.5t56 -138t138 -55z" glyph-name="currency" horiz-adv-x="1216" unicode="¤"/><glyph d="M1511 1434l-420 -829h251v-184h-330v-51h330v-185h-330v-185h-502v185h-330v185h330v51h-330v184h251l-421 829h531l220 -512l223 512h527z" glyph-name="yen" horiz-adv-x="1521" unicode="¥"/><glyph d="M123 1536h461v-870h-461v870zM123 461h461v-871h-461v871z" glyph-name="brokenbar" horiz-adv-x="706" unicode="¦"/><glyph d="M1156 537q-4 -164 -143 -255q73 -73 69 -199q-2 -92 -48.5 -162.5t-125 -111.5t-174.5 -61t-208 -20q-118 0 -239.5 21t-186.5 57v284q141 -80 339 -98q70 -7 119.5 10.5t62.5 54.5q5 16 -7.5 30t-37 24.5t-59 20t-71.5 19.5q-23 5 -33 8q-196 51 -280 136.5t-82 224.5 q3 153 148 237q-76 83 -74 217q1 83 45.5 146t122 101.5t175.5 57t216 18.5q112 0 219.5 -19.5t174.5 -54.5v-286q-174 96 -347 96q-54 0 -95 -14t-45 -45q-1 -8 1.5 -15.5t10.5 -14.5t17.5 -12.5t26 -13t31 -12.5t38.5 -12.5t43.5 -14t50.5 -15.5t54 -16q76 -24 126 -48 t90.5 -59.5t58.5 -85.5t17 -118zM694 511q6 20 -14.5 36t-63.5 31q-92 -9 -99 -58q-3 -20 20 -36t74 -33q67 14 83 60z" glyph-name="section" horiz-adv-x="1207" unicode="§"/><glyph d="M123 1476h398v-298h-398v298zM608 1476h398v-298h-398v298z" glyph-name="dieresis" horiz-adv-x="1128" unicode="¨"/><glyph d="M844 -45q-165 0 -310.5 60t-249 162t-163.5 242.5t-60 297.5q0 158 60 298.5t163.5 242.5t249 161.5t310.5 59.5t311.5 -59.5t250 -161.5t163.5 -243t60 -298t-60 -297.5t-163.5 -242.5t-250 -162t-311.5 -60zM845 173q240 0 394 155t154 388.5t-154.5 389t-393.5 155.5 t-393 -155.5t-154 -389t154 -388.5t393 -155zM1115 862q-95 40 -208 29q-76 -7 -116 -56t-40 -118.5t40 -118.5t116 -56q110 -10 208 28v-196q-98 -30 -245 -30q-81 0 -155.5 22.5t-136.5 66.5t-99 117.5t-37 166.5q0 75 25 137t65.5 105t96 73t116.5 44t125 14 q143 0 245 -30v-198z" glyph-name="copyright" horiz-adv-x="1690" unicode="©"/><glyph d="M413 1444q177 0 259.5 -69t82.5 -176v-414h-265l-12 60q-102 -79 -247 -71q-79 5 -125 51t-53 104q-7 60 12.5 112.5t66 93.5t136 57.5t210.5 2.5v23q0 17 -27 31t-71 17q-102 6 -205 -51l-79 151q159 78 317 78zM478 981v92q-84 18 -132 -10.5t-41 -76.5q4 -24 25 -35 t50 -8q53 5 98 38z" glyph-name="ordfeminine" horiz-adv-x="805" unicode="ª"/><glyph d="M925 947l-338 -384l338 -384h-464l-338 384l338 384h464zM1593 947l-338 -384l338 -384h-464l-337 384l337 384h464z" glyph-name="guillemotleft" horiz-adv-x="1716" unicode="«"/><glyph d="M1208 1049v-664h-460v315h-625v349h1085z" glyph-name="logicalnot" horiz-adv-x="1331" unicode="¬"/><glyph d="M554 1504q142 0 258.5 -65t182 -177.5t65.5 -247.5q0 -206 -145.5 -348.5t-360.5 -142.5q-214 0 -358.5 142.5t-144.5 348.5q0 207 144.5 348.5t358.5 141.5zM555 674q150 0 246.5 96.5t96.5 243t-96.5 243.5t-246.5 97q-148 0 -245 -97t-97 -243.5t97 -243t245 -96.5z M751 1077q0 -84 -66 -116l92 -155h-145l-75 125l-54 -3v-122h-146v416h208q85 0 135.5 -37.5t50.5 -107.5zM503 1126v-103q60 2 81 13.5t21 40.5q0 24 -13.5 36.5t-35.5 12.5h-53z" glyph-name="registered" horiz-adv-x="1111" unicode="®"/><glyph d="M123 1434h614v-256h-614v256z" glyph-name="macron" horiz-adv-x="860" unicode="¯"/><glyph d="M404.5 891q-115.5 0 -198.5 83t-83 198.5t83 198.5t198.5 83t198.5 -83t83 -198.5t-83 -198.5t-198.5 -83zM404.5 1059q46.5 0 80 33.5t33.5 80t-33.5 80t-80 33.5t-80 -33.5t-33.5 -80t33.5 -80t80 -33.5z" glyph-name="degree" horiz-adv-x="808" unicode="°"/><glyph d="M1147 1060v-307h-282v-222h-461v222h-281v307h281v221h461v-221h282zM1147 460v-307h-1024v307h1024z" glyph-name="plusminus" horiz-adv-x="1269" unicode="±"/><glyph d="M809 974v-209h-758v209q95 53 167.5 98.5t139.5 95.5t103 95t36 82q0 36 -24 59.5t-64 25.5q-130 2 -248 -64l-93 180q94 47 174.5 69.5t177.5 22.5q175 0 273 -66.5t98 -174.5q0 -58 -20 -112.5t-47.5 -93.5t-76.5 -82.5t-86 -69.5t-97 -65h345z" glyph-name="uni00B2" horiz-adv-x="860" unicode="²"/><glyph d="M99 1638h682v-208l-228 -147q56 -9 98 -26q176 -66 172 -235q-2 -130 -107 -195t-273 -61q-124 3 -204.5 21t-187.5 68l109 189q47 -30 130.5 -50.5t149.5 -19.5q43 0 75.5 13t33.5 38q2 37 -41.5 66t-117.5 29q-100 0 -141 -6l-52 184l270 132h-368v208z" glyph-name="uni00B3" horiz-adv-x="874" unicode="³"/><glyph d="M727 1485l-266 -307h-338l181 307h423z" glyph-name="acute" horiz-adv-x="849" unicode="´"/><glyph d="M829 1075h461v-1075h-461v142q-111 -123 -286 -152v-400h-461v1485h461v-558q0 -121 18.5 -170.5t80.5 -49.5q48 0 98.5 27t88.5 76v675z" glyph-name="uni00B5" unicode="µ"/><glyph d="M509 813q-174 0 -280 80t-106 226q0 314 420 315h912v-1434h-409v1085h-127v-1085h-410v813z" glyph-name="paragraph" horiz-adv-x="1577" unicode="¶"/><glyph d="M123 908h512v-383h-512v383z" glyph-name="periodcentered" horiz-adv-x="757" unicode="·"/><glyph d="M371 -91q103 0 163 -44.5t60 -113.5q0 -88 -80 -141t-244 -53q-70 0 -147 13v121q48 -8 113 -8q121 0 120 76q0 69 -114 69q-27 0 -46 -2v77l79 102h144l-85 -98q12 2 37 2z" glyph-name="cedilla" horiz-adv-x="716" unicode="¸"/><glyph d="M537 987h208v-209h-694v209h209v418q-80 -59 -160 -83v233q85 16 158 83h279v-651z" glyph-name="uni00B9" horiz-adv-x="796" unicode="¹"/><glyph d="M800 1109q0 -85 -33.5 -151.5t-89 -105.5t-122.5 -58.5t-139.5 -19.5t-139 19.5t-123 58.5t-89.5 105t-33 152q0 84 33 149.5t88.5 105t122.5 60t141 20.5q73 0 140 -20.5t122 -60t88.5 -105.5t33.5 -149zM416 952q56 0 81.5 45t25.5 112q0 68 -25.5 112.5t-81.5 44.5 q-57 0 -83 -44.5t-26 -112.5q0 -67 26 -112t83 -45z" glyph-name="ordmasculine" horiz-adv-x="830" unicode="º"/><glyph d="M123 947h464l338 -384l-338 -384h-464l338 384zM792 947h463l338 -384l-338 -384h-463l337 384z" glyph-name="guillemotright" horiz-adv-x="1716" unicode="»"/><glyph d="M537 782h208v-209h-694v209h209v418q-80 -59 -160 -83v234q85 16 158 83h279v-652zM1296 1434h218l-765 -1434h-218zM1898 386v-209h-122v-177h-277v177h-403v209l361 474h319v-474h122zM1351 386h148v217z" glyph-name="onequarter" horiz-adv-x="1949" unicode="¼"/><glyph d="M537 782h208v-209h-694v209h209v418q-80 -59 -160 -83v234q85 16 158 83h279v-652zM1304 1434h218l-766 -1434h-217zM2005 209v-209h-758v209q95 53 167.5 98.5t139.5 95.5t103 95t36 82q0 36 -24 60t-64 25q-130 2 -248 -64l-93 180q94 47 174.5 69.5t177.5 22.5 q175 0 273 -66.5t98 -174.5q0 -58 -20 -112.5t-47.5 -93.5t-76.5 -82.5t-86 -69.5t-97 -65h345z" glyph-name="onehalf" horiz-adv-x="2056" unicode="½"/><glyph d="M99 1434h682v-209l-228 -147q56 -9 98 -25q176 -66 172 -236q-2 -130 -107 -195t-273 -61q-124 3 -204.5 21t-187.5 68l109 190q47 -30 130.5 -51t149.5 -20q43 0 75.5 13.5t33.5 37.5q2 37 -41.5 66t-117.5 29q-100 0 -141 -6l-52 185l270 131h-368v209zM1305 1434h218 l-766 -1434h-217zM1916 386v-209h-123v-177h-276v177h-404v209l362 474h318v-474h123zM1368 386h149v217z" glyph-name="threequarters" horiz-adv-x="1967" unicode="¾"/><glyph d="M1038 1075v-280h-512v280h512zM695 -358q-182 -4 -321.5 39.5t-225 142.5t-87.5 245q-6 283 288 392q22 8 63 15.5t92.5 16t68.5 11.5v192h419l28 -474q-70 10 -236 10q-123 0 -196 -49t-69 -109q2 -42 56 -63.5t125 -21.5q110 -3 247 31t217 84v-391 q-106 -37 -212 -52.5t-257 -18.5z" glyph-name="questiondown" horiz-adv-x="1225" unicode="¿"/><glyph d="M1032 1537h-338l-266 307h423zM1198 0l-73 233h-524l-73 -233h-528l515 1434h696l515 -1434h-528zM710 582h307l-154 493z" glyph-name="Agrave" horiz-adv-x="1726" unicode="À"/><glyph d="M1298 1844l-266 -307h-338l182 307h422zM1198 0l-73 233h-524l-73 -233h-528l515 1434h696l515 -1434h-528zM710 582h307l-154 493z" glyph-name="Aacute" horiz-adv-x="1726" unicode="Á"/><glyph d="M863 1729l-131 -193h-338l233 307h473l232 -307h-338zM1198 0l-73 233h-524l-73 -233h-528l515 1434h696l515 -1434h-528zM710 582h307l-154 493z" glyph-name="Acircumflex" horiz-adv-x="1726" unicode="Â"/><glyph d="M736 1602q-54 0 -57 -66h-217q0 151 67 223t166 72q63 0 160 -33t135 -33q54 0 58 66h217q0 -151 -67.5 -223t-166.5 -72q-62 0 -159 33t-136 33zM1198 0l-73 233h-524l-73 -233h-528l515 1434h696l515 -1434h-528zM710 582h307l-154 493z" glyph-name="Atilde" horiz-adv-x="1726" unicode="Ã"/><glyph d="M820 1834v-298h-398v298h398zM1305 1834v-298h-398v298h398zM1198 0l-73 233h-524l-73 -233h-528l515 1434h696l515 -1434h-528zM710 582h307l-154 493z" glyph-name="Adieresis" horiz-adv-x="1726" unicode="Ä"/><glyph d="M1198 0l-73 233h-524l-73 -233h-528l515 1434h135q-69 79 -68 183q0 116 83 198.5t198.5 82.5t198.5 -82.5t83 -198.5q0 -104 -69 -183h135l515 -1434h-528zM863 1695q-32 0 -55 -23t-23 -55t23 -55t55 -23t55 23t23 55t-23 55t-55 23zM710 582h307l-154 493z" glyph-name="Aring" horiz-adv-x="1726" unicode="Å"/><glyph d="M1949 1085h-584v-194h532v-348h-532v-195h584v-348h-1086v233h-262l-73 -233h-528l515 1434h1434v-349zM863 582v493l-153 -493h153z" glyph-name="AE" horiz-adv-x="2071" unicode="Æ"/><glyph d="M865 1106q-138 -12 -220 -114.5t-82 -274.5t82 -274.5t220 -114.5q174 -23 384 49v-350q-151 -40 -330 -46l-64 -74q12 2 37 2q103 0 163 -44.5t60 -113.5q0 -88 -80 -141t-243 -53q-70 0 -148 13v121q48 -8 113 -8q121 0 121 76q0 69 -115 69q-27 0 -46 -2v77l62 81 q-116 10 -221.5 45.5t-196.5 98t-157.5 146.5t-104.5 198t-38 245q0 140 43.5 260.5t120 207t178.5 148t219.5 91.5t244.5 30q203 0 382 -47v-350q-210 72 -384 49z" glyph-name="Ccedilla" unicode="Ç"/><glyph d="M282 1844h423l181 -307h-338zM625 348h686v-348h-1188v1434h1188v-349h-686v-194h594v-348h-594v-195z" glyph-name="Egrave" horiz-adv-x="1433" unicode="È"/><glyph d="M1152 1844l-266 -307h-338l181 307h423zM625 348h686v-348h-1188v1434h1188v-349h-686v-194h594v-348h-594v-195z" glyph-name="Eacute" horiz-adv-x="1433" unicode="É"/><glyph d="M1186 1536h-338l-131 193l-131 -193h-338l232 307h473zM625 348h686v-348h-1188v1434h1188v-349h-686v-194h594v-348h-594v-195z" glyph-name="Ecircumflex" horiz-adv-x="1433" unicode="Ê"/><glyph d="M275 1834h399v-298h-399v298zM761 1834h397v-298h-397v298zM625 348h686v-348h-1188v1434h1188v-349h-686v-194h594v-348h-594v-195z" glyph-name="Edieresis" horiz-adv-x="1433" unicode="Ë"/><glyph d="M-61 1844h422l182 -307h-338zM625 0h-502v1434h502v-1434z" glyph-name="Igrave" horiz-adv-x="747" unicode="Ì"/><glyph d="M809 1844l-266 -307h-338l181 307h423zM625 0h-502v1434h502v-1434z" glyph-name="Iacute" horiz-adv-x="747" unicode="Í"/><glyph d="M843 1536h-338l-131 193l-131 -193h-338l232 307h473zM625 0h-502v1434h502v-1434z" glyph-name="Icircumflex" horiz-adv-x="747" unicode="Î"/><glyph d="M-68 1834h399v-298h-399v298zM418 1834h397v-298h-397v298zM625 0h-502v1434h502v-1434z" glyph-name="Idieresis" horiz-adv-x="747" unicode="Ï"/><glyph d="M1593 717q1 -180 -56.5 -320t-160 -225.5t-235.5 -128.5t-291 -43h-717v614h-123v205h123v615h717q159 0 292.5 -45.5t235 -132.5t158.5 -225t57 -314zM799 348q96 0 164 53.5t98.5 134.5t30.5 181q0 98 -32.5 180.5t-100.5 135t-160 52.5h-164v-266h206v-205h-206v-266 h164z" glyph-name="Eth" horiz-adv-x="1654" unicode="Ð"/><glyph d="M454 1536q0 151 67 223t166 72q63 0 160 -33t135 -33q54 0 57 66h217q0 -151 -67 -223t-166 -72q-62 0 -159 33t-136 33q-54 0 -57 -66h-217zM1085 1434h502v-1434h-502l-460 694v-694h-502v1434h502l460 -675v675z" glyph-name="Ntilde" horiz-adv-x="1710" unicode="Ñ"/><glyph d="M431 1844h423l181 -307h-338zM1670 717q1 -179 -66.5 -323t-181.5 -232.5t-256.5 -135t-300.5 -46.5q-125 0 -241 28.5t-219 88.5t-179 146t-120.5 207.5t-44.5 266.5q0 140 43.5 261t119.5 207t178 147.5t219.5 91.5t243.5 30t244 -30t220 -91.5t178 -147.5t119.5 -207 t43.5 -261zM865 328q141 0 222 106.5t81 282.5q0 175 -83.5 282t-219.5 107q-135 0 -218.5 -107t-83.5 -282q0 -176 81 -282.5t221 -106.5z" glyph-name="Ograve" horiz-adv-x="1731" unicode="Ò"/><glyph d="M1302 1844l-267 -307h-338l182 307h423zM1670 717q1 -179 -66.5 -323t-181.5 -232.5t-256.5 -135t-300.5 -46.5q-125 0 -241 28.5t-219 88.5t-179 146t-120.5 207.5t-44.5 266.5q0 140 43.5 261t119.5 207t178 147.5t219.5 91.5t243.5 30t244 -30t220 -91.5t178 -147.5 t119.5 -207t43.5 -261zM865 328q141 0 222 106.5t81 282.5q0 175 -83.5 282t-219.5 107q-135 0 -218.5 -107t-83.5 -282q0 -176 81 -282.5t221 -106.5z" glyph-name="Oacute" horiz-adv-x="1731" unicode="Ó"/><glyph d="M1335 1536h-338l-131 193l-131 -193h-338l233 307h473zM1670 717q1 -179 -66.5 -323t-181.5 -232.5t-256.5 -135t-300.5 -46.5q-125 0 -241 28.5t-219 88.5t-179 146t-120.5 207.5t-44.5 266.5q0 140 43.5 261t119.5 207t178 147.5t219.5 91.5t243.5 30t244 -30 t220 -91.5t178 -147.5t119.5 -207t43.5 -261zM865 328q141 0 222 106.5t81 282.5q0 175 -83.5 282t-219.5 107q-135 0 -218.5 -107t-83.5 -282q0 -176 81 -282.5t221 -106.5z" glyph-name="Ocircumflex" horiz-adv-x="1731" unicode="Ô"/><glyph d="M465 1536q0 151 67 223t166 72q63 0 160 -33t135 -33q54 0 58 66h217q0 -151 -67 -223t-167 -72q-62 0 -159 33t-136 33q-54 0 -57 -66h-217zM1670 717q1 -179 -66.5 -323t-181.5 -232.5t-256.5 -135t-300.5 -46.5q-125 0 -241 28.5t-219 88.5t-179 146t-120.5 207.5 t-44.5 266.5q0 140 43.5 261t119.5 207t178 147.5t219.5 91.5t243.5 30t244 -30t220 -91.5t178 -147.5t119.5 -207t43.5 -261zM865 328q141 0 222 106.5t81 282.5q0 175 -83.5 282t-219.5 107q-135 0 -218.5 -107t-83.5 -282q0 -176 81 -282.5t221 -106.5z" glyph-name="Otilde" horiz-adv-x="1731" unicode="Õ"/><glyph d="M425 1834h398v-298h-398v298zM910 1834h398v-298h-398v298zM1670 717q1 -179 -66.5 -323t-181.5 -232.5t-256.5 -135t-300.5 -46.5q-125 0 -241 28.5t-219 88.5t-179 146t-120.5 207.5t-44.5 266.5q0 140 43.5 261t119.5 207t178 147.5t219.5 91.5t243.5 30t244 -30 t220 -91.5t178 -147.5t119.5 -207t43.5 -261zM865 328q141 0 222 106.5t81 282.5q0 175 -83.5 282t-219.5 107q-135 0 -218.5 -107t-83.5 -282q0 -176 81 -282.5t221 -106.5z" glyph-name="Odieresis" horiz-adv-x="1731" unicode="Ö"/><glyph d="M1065 464l-218 -218l-253 253l-253 -253l-218 218l253 253l-253 253l218 218l253 -253l253 253l218 -218l-253 -253z" glyph-name="multiply" horiz-adv-x="1187" unicode="×"/><glyph d="M1670 717q1 -179 -66.5 -323t-181.5 -232.5t-256.5 -135t-300.5 -46.5q-292 0 -506 145l-115 -116l-108 108l108 107q-182 194 -183 493q0 140 43.5 261t119.5 207t178 147.5t219.5 91.5t243.5 30q270 0 478 -130l101 100l107 -107l-87 -87q206 -201 206 -513zM563 717 q0 -86 20 -154l470 470q-76 73 -188 73q-135 0 -218.5 -107t-83.5 -282zM865 328q141 0 222 106.5t81 282.5q0 100 -30 186l-483 -482q80 -93 210 -93z" glyph-name="Oslash" horiz-adv-x="1690" unicode="Ø"/><glyph d="M390 1844h423l181 -307h-338zM1527 1434v-799q1 -182 -47 -310.5t-142.5 -203.5t-220 -108t-293.5 -33q-133 0 -238.5 20t-194 67.5t-146.5 122.5t-90 186.5t-32 258.5v799h502v-891q0 -93 53 -154t146 -61q94 0 147.5 61t53.5 154v891h502z" glyph-name="Ugrave" horiz-adv-x="1649" unicode="Ù"/><glyph d="M1261 1844l-267 -307h-338l182 307h423zM1527 1434v-799q1 -182 -47 -310.5t-142.5 -203.5t-220 -108t-293.5 -33q-133 0 -238.5 20t-194 67.5t-146.5 122.5t-90 186.5t-32 258.5v799h502v-891q0 -93 53 -154t146 -61q94 0 147.5 61t53.5 154v891h502z" glyph-name="Uacute" horiz-adv-x="1649" unicode="Ú"/><glyph d="M1294 1536h-338l-131 193l-131 -193h-338l233 307h473zM1527 1434v-799q1 -182 -47 -310.5t-142.5 -203.5t-220 -108t-293.5 -33q-133 0 -238.5 20t-194 67.5t-146.5 122.5t-90 186.5t-32 258.5v799h502v-891q0 -93 53 -154t146 -61q94 0 147.5 61t53.5 154v891h502z" glyph-name="Ucircumflex" horiz-adv-x="1649" unicode="Û"/><glyph d="M384 1834h398v-298h-398v298zM869 1834h398v-298h-398v298zM1527 1434v-799q1 -182 -47 -310.5t-142.5 -203.5t-220 -108t-293.5 -33q-133 0 -238.5 20t-194 67.5t-146.5 122.5t-90 186.5t-32 258.5v799h502v-891q0 -93 53 -154t146 -61q94 0 147.5 61t53.5 154v891h502z " glyph-name="Udieresis" horiz-adv-x="1649" unicode="Ü"/><glyph d="M1196 1844l-266 -307h-338l181 307h423zM984 1434h527l-499 -983v-451h-502v451l-500 983h531l220 -512z" glyph-name="Yacute" horiz-adv-x="1521" unicode="Ý"/><glyph d="M840 1224q292 0 466 -128.5t174 -368.5q0 -113 -31.5 -195t-94.5 -141.5t-167.5 -97t-240 -57.5t-321.5 -26v-210h-502v1434h502v-210h215zM625 538q142 5 217.5 24.5t105.5 57t30 107.5q0 78 -47.5 123.5t-121.5 45.5h-184v-358z" glyph-name="Thorn" horiz-adv-x="1530" unicode="Þ"/><glyph d="M1399 416q1 -106 -45 -186t-131.5 -129.5t-202 -73.5t-262.5 -24h-115v307h53q94 0 137.5 37t43.5 89q0 126 -181 126h-53v308h53q86 0 125 38.5t39 98t-39 98t-125 38.5q-72 0 -112.5 -41t-40.5 -112v-988h-461v974q0 147 85.5 256.5t223 163.5t305.5 54 q105 0 198.5 -16t172.5 -49t135 -82.5t88 -119.5t32 -156q1 -183 -135 -295q212 -116 212 -316z" glyph-name="germandbls" horiz-adv-x="1460" unicode="ß"/><glyph d="M218 1486h423l181 -307h-338zM633 1096q153 0 269 -33.5t184.5 -91t103 -129t34.5 -154.5v-689h-441l-20 98q-88 -68 -185.5 -96.5t-226.5 -20.5q-131 8 -208 85t-89 173q-9 80 8 149.5t64.5 132.5t131.5 101t209 55t296 -5v26q0 40 -55 72.5t-129 39.5q-167 15 -405 -78 v280q213 85 459 85zM763 314v154q-139 31 -220 -18t-68 -127q7 -39 41 -58t83 -14q89 8 164 63z" glyph-name="agrave" horiz-adv-x="1305" unicode="à"/><glyph d="M1089 1486l-267 -307h-338l182 307h423zM633 1096q153 0 269 -33.5t184.5 -91t103 -129t34.5 -154.5v-689h-441l-20 98q-88 -68 -185.5 -96.5t-226.5 -20.5q-131 8 -208 85t-89 173q-9 80 8 149.5t64.5 132.5t131.5 101t209 55t296 -5v26q0 40 -55 72.5t-129 39.5 q-167 15 -405 -78v280q213 85 459 85zM763 314v154q-139 31 -220 -18t-68 -127q7 -39 41 -58t83 -14q89 8 164 63z" glyph-name="aacute" horiz-adv-x="1305" unicode="á"/><glyph d="M1122 1178h-338l-131 192l-131 -192h-338l233 307h473zM633 1096q153 0 269 -33.5t184.5 -91t103 -129t34.5 -154.5v-689h-441l-20 98q-88 -68 -185.5 -96.5t-226.5 -20.5q-131 8 -208 85t-89 173q-9 80 8 149.5t64.5 132.5t131.5 101t209 55t296 -5v26q0 40 -55 72.5 t-129 39.5q-167 15 -405 -78v280q213 85 459 85zM763 314v154q-139 31 -220 -18t-68 -127q7 -39 41 -58t83 -14q89 8 164 63z" glyph-name="acircumflex" horiz-adv-x="1305" unicode="â"/><glyph d="M252 1178q0 151 67 223t166 72q63 0 160 -33t135 -33q54 0 58 66h217q0 -151 -67 -223t-167 -72q-62 0 -159 32.5t-136 32.5q-54 0 -57 -65h-217zM633 1096q153 0 269 -33.5t184.5 -91t103 -129t34.5 -154.5v-689h-441l-20 98q-88 -68 -185.5 -96.5t-226.5 -20.5 q-131 8 -208 85t-89 173q-9 80 8 149.5t64.5 132.5t131.5 101t209 55t296 -5v26q0 40 -55 72.5t-129 39.5q-167 15 -405 -78v280q213 85 459 85zM763 314v154q-139 31 -220 -18t-68 -127q7 -39 41 -58t83 -14q89 8 164 63z" glyph-name="atilde" horiz-adv-x="1305" unicode="ã"/><glyph d="M212 1476h398v-298h-398v298zM697 1476h398v-298h-398v298zM633 1096q153 0 269 -33.5t184.5 -91t103 -129t34.5 -154.5v-689h-441l-20 98q-88 -68 -185.5 -96.5t-226.5 -20.5q-131 8 -208 85t-89 173q-9 80 8 149.5t64.5 132.5t131.5 101t209 55t296 -5v26 q0 40 -55 72.5t-129 39.5q-167 15 -405 -78v280q213 85 459 85zM763 314v154q-139 31 -220 -18t-68 -127q7 -39 41 -58t83 -14q89 8 164 63z" glyph-name="adieresis" horiz-adv-x="1305" unicode="ä"/><glyph d="M653.5 1178q-115.5 0 -198.5 82.5t-83 198.5t83 199t198.5 83t198.5 -83t83 -199t-83 -198.5t-198.5 -82.5zM653.5 1381q31.5 0 54.5 23t23 55t-23 55t-54.5 23t-55 -23t-23.5 -55t23.5 -55t55 -23zM633 1096q153 0 269 -33.5t184.5 -91t103 -129t34.5 -154.5v-689h-441 l-20 98q-88 -68 -185.5 -96.5t-226.5 -20.5q-131 8 -208 85t-89 173q-9 80 8 149.5t64.5 132.5t131.5 101t209 55t296 -5v26q0 40 -55 72.5t-129 39.5q-167 15 -405 -78v280q213 85 459 85zM763 314v154q-139 31 -220 -18t-68 -127q7 -39 41 -58t83 -14q89 8 164 63z" glyph-name="aring" horiz-adv-x="1305" unicode="å"/><glyph d="M1614 1096q117 0 213 -24.5t163.5 -69t116.5 -106.5t70 -138t23.5 -163t-22.5 -180h-720q37 -78 128 -110t237 -35q153 -3 287 49v-294q-153 -45 -419 -45q-282 0 -467 119v-100h-441l-20 98q-88 -68 -185.5 -96.5t-226.5 -20.5q-131 8 -208 85t-89 173q-9 80 8 149.5 t64.5 132.5t131.5 101t209 55t296 -5v26q0 40 -55 72.5t-129 39.5q-167 15 -405 -78v280q213 85 459 85q356 0 507 -175q87 87 211 131t263 44zM1800 671q14 63 -32.5 107.5t-122.5 40.5q-141 -7 -191 -148h346zM763 314v154q-139 31 -220 -18t-68 -127q7 -39 41 -58t83 -14 q89 8 164 63z" glyph-name="ae" horiz-adv-x="2251" unicode="æ"/><glyph d="M746 799q-114 -12 -174 -84.5t-60 -177t60.5 -176.5t173.5 -85q81 -8 163.5 4.5t148.5 38.5v-294q-135 -39 -316 -44l-63 -74q12 2 37 2q103 0 163 -44.5t60 -113.5q0 -88 -80 -141t-244 -53q-70 0 -147 13v121q48 -8 113 -8q121 0 120 76q0 69 -114 69q-27 0 -46 -2v77 l63 81q-87 9 -167 35t-150.5 72t-122.5 108.5t-82.5 149.5t-30.5 189q0 112 36.5 205.5t98.5 157.5t144.5 109t174 65.5t187.5 20.5q213 0 366 -45v-295q-66 27 -148.5 39t-163.5 4z" glyph-name="ccedilla" horiz-adv-x="1108" unicode="ç"/><glyph d="M841 1179h-338l-266 307h422zM672 1096q117 0 213 -24.5t163.5 -69t116 -106.5t69.5 -138t24 -163t-22 -180h-720q37 -78 128 -110t237 -35q153 -3 287 49v-294q-153 -45 -419 -45q-143 0 -267.5 33.5t-221.5 100t-153 175t-56 249.5q0 112 34.5 205.5t93.5 157.5 t138 109t169 65.5t186 20.5zM858 671q14 63 -32.5 107.5t-123.5 40.5q-141 -7 -190 -148h346z" glyph-name="egrave" horiz-adv-x="1309" unicode="è"/><glyph d="M1107 1486l-266 -307h-338l181 307h423zM672 1096q117 0 213 -24.5t163.5 -69t116 -106.5t69.5 -138t24 -163t-22 -180h-720q37 -78 128 -110t237 -35q153 -3 287 49v-294q-153 -45 -419 -45q-143 0 -267.5 33.5t-221.5 100t-153 175t-56 249.5q0 112 34.5 205.5 t93.5 157.5t138 109t169 65.5t186 20.5zM858 671q14 63 -32.5 107.5t-123.5 40.5q-141 -7 -190 -148h346z" glyph-name="eacute" horiz-adv-x="1309" unicode="é"/><glyph d="M672 1370l-131 -192h-338l232 307h473l233 -307h-338zM672 1096q117 0 213 -24.5t163.5 -69t116 -106.5t69.5 -138t24 -163t-22 -180h-720q37 -78 128 -110t237 -35q153 -3 287 49v-294q-153 -45 -419 -45q-143 0 -267.5 33.5t-221.5 100t-153 175t-56 249.5 q0 112 34.5 205.5t93.5 157.5t138 109t169 65.5t186 20.5zM858 671q14 63 -32.5 107.5t-123.5 40.5q-141 -7 -190 -148h346z" glyph-name="ecircumflex" horiz-adv-x="1309" unicode="ê"/><glyph d="M629 1476v-298h-399v298h399zM1113 1476v-298h-397v298h397zM672 1096q117 0 213 -24.5t163.5 -69t116 -106.5t69.5 -138t24 -163t-22 -180h-720q37 -78 128 -110t237 -35q153 -3 287 49v-294q-153 -45 -419 -45q-143 0 -267.5 33.5t-221.5 100t-153 175t-56 249.5 q0 112 34.5 205.5t93.5 157.5t138 109t169 65.5t186 20.5zM858 671q14 63 -32.5 107.5t-123.5 40.5q-141 -7 -190 -148h346z" glyph-name="edieresis" horiz-adv-x="1309" unicode="ë"/><glyph d="M-123 1486h423l181 -307h-338zM82 1075h461v-1075h-461v1075z" glyph-name="igrave" horiz-adv-x="624" unicode="ì"/><glyph d="M748 1486l-267 -307h-338l182 307h423zM82 1075h461v-1075h-461v1075z" glyph-name="iacute" horiz-adv-x="624" unicode="í"/><glyph d="M781 1178h-338l-131 192l-131 -192h-338l233 307h473zM82 1075h461v-1075h-461v1075z" glyph-name="icircumflex" horiz-adv-x="624" unicode="î"/><glyph d="M-129 1476h398v-298h-398v298zM356 1476h398v-298h-398v298zM82 1075h461v-1075h-461v1075z" glyph-name="idieresis" horiz-adv-x="624" unicode="ï"/><glyph d="M998 1106q214 -312 255 -382q67 -113 77 -198q3 -27 3 -61q0 -99 -36.5 -181t-98.5 -137t-145.5 -93t-174 -54.5t-186.5 -16.5t-186.5 16.5t-174 54.5t-145.5 93t-99 137t-36 181q0 155 76 271.5t208 156.5q117 37 259 2l-92 138l-330 -48v206l204 30l-143 213h543 l95 -142l426 63v-206zM692 280q48 0 85 18t57 47t29 59.5t9 60.5t-9 60t-29 59t-57 47t-85 18t-85 -18t-57 -47t-29 -59t-9 -60t9 -60.5t29 -59.5t57 -47t85 -18z" glyph-name="eth" horiz-adv-x="1384" unicode="ð"/><glyph d="M285 1178q0 151 67 223t166 72q63 0 160 -33t135 -33q54 0 57 66h217q0 -151 -67 -223t-166 -72q-62 0 -159 32.5t-136 32.5q-54 0 -57 -65h-217zM543 0h-461v1075h461v-142q147 163 415 163q100 0 165 -23t102 -76.5t51 -127.5t14 -188v-681h-461v558q0 121 -18 170.5 t-81 49.5q-48 0 -98 -27t-89 -76v-675z" glyph-name="ntilde" unicode="ñ"/><glyph d="M257 1486h423l181 -307h-338zM1333 538q1 -115 -35.5 -210t-98.5 -158.5t-145.5 -107.5t-174.5 -63t-187 -19t-186 19t-173.5 63t-145.5 107.5t-99 158.5t-37 210q0 112 36.5 205.5t98.5 157.5t144.5 109t174 65.5t187.5 20.5t188 -20.5t174.5 -65.5t144.5 -109 t98 -157.5t36 -205.5zM692.5 276q64.5 0 106.5 39t57.5 95t15.5 128q0 113 -43 187t-137 74t-137 -74.5t-43 -186.5q0 -72 16 -128t58 -95t106.5 -39z" glyph-name="ograve" horiz-adv-x="1384" unicode="ò"/><glyph d="M1127 1486l-266 -307h-338l182 307h422zM1333 538q1 -115 -35.5 -210t-98.5 -158.5t-145.5 -107.5t-174.5 -63t-187 -19t-186 19t-173.5 63t-145.5 107.5t-99 158.5t-37 210q0 112 36.5 205.5t98.5 157.5t144.5 109t174 65.5t187.5 20.5t188 -20.5t174.5 -65.5 t144.5 -109t98 -157.5t36 -205.5zM692.5 276q64.5 0 106.5 39t57.5 95t15.5 128q0 113 -43 187t-137 74t-137 -74.5t-43 -186.5q0 -72 16 -128t58 -95t106.5 -39z" glyph-name="oacute" horiz-adv-x="1384" unicode="ó"/><glyph d="M1161 1178h-338l-131 192l-131 -192h-338l233 307h473zM1333 538q1 -115 -35.5 -210t-98.5 -158.5t-145.5 -107.5t-174.5 -63t-187 -19t-186 19t-173.5 63t-145.5 107.5t-99 158.5t-37 210q0 112 36.5 205.5t98.5 157.5t144.5 109t174 65.5t187.5 20.5t188 -20.5 t174.5 -65.5t144.5 -109t98 -157.5t36 -205.5zM692.5 276q64.5 0 106.5 39t57.5 95t15.5 128q0 113 -43 187t-137 74t-137 -74.5t-43 -186.5q0 -72 16 -128t58 -95t106.5 -39z" glyph-name="ocircumflex" horiz-adv-x="1384" unicode="ô"/><glyph d="M291 1178q0 151 67 223t166 72q63 0 160 -33t135 -33q54 0 58 66h217q0 -151 -67.5 -223t-166.5 -72q-62 0 -159 32.5t-136 32.5q-54 0 -57 -65h-217zM1333 538q1 -115 -35.5 -210t-98.5 -158.5t-145.5 -107.5t-174.5 -63t-187 -19t-186 19t-173.5 63t-145.5 107.5 t-99 158.5t-37 210q0 112 36.5 205.5t98.5 157.5t144.5 109t174 65.5t187.5 20.5t188 -20.5t174.5 -65.5t144.5 -109t98 -157.5t36 -205.5zM692.5 276q64.5 0 106.5 39t57.5 95t15.5 128q0 113 -43 187t-137 74t-137 -74.5t-43 -186.5q0 -72 16 -128t58 -95t106.5 -39z" glyph-name="otilde" horiz-adv-x="1384" unicode="õ"/><glyph d="M251 1476h398v-298h-398v298zM736 1476h398v-298h-398v298zM1333 538q1 -115 -35.5 -210t-98.5 -158.5t-145.5 -107.5t-174.5 -63t-187 -19t-186 19t-173.5 63t-145.5 107.5t-99 158.5t-37 210q0 112 36.5 205.5t98.5 157.5t144.5 109t174 65.5t187.5 20.5t188 -20.5 t174.5 -65.5t144.5 -109t98 -157.5t36 -205.5zM692.5 276q64.5 0 106.5 39t57.5 95t15.5 128q0 113 -43 187t-137 74t-137 -74.5t-43 -186.5q0 -72 16 -128t58 -95t106.5 -39z" glyph-name="odieresis" horiz-adv-x="1384" unicode="ö"/><glyph d="M420 1294h430v-321h-430v321zM1147 563h-1024v307h1024v-307zM420 461h430v-322h-430v322z" glyph-name="divide" horiz-adv-x="1269" unicode="÷"/><glyph d="M1333 538q1 -115 -35.5 -210t-98.5 -158.5t-145.5 -107.5t-174.5 -63t-187 -19q-216 0 -379 93l-127 -128l-85 84l114 114q-164 147 -164 395q0 112 36.5 205.5t98.5 157.5t144.5 109t174 65.5t187.5 20.5q214 0 379 -96l129 130l85 -83l-117 -117q165 -149 165 -392z M512 538q0 -49 7 -89l296 295q-44 54 -123 55q-94 0 -137 -74t-43 -187zM692 276q65 0 107 39t57.5 95t15.5 128q0 48 -7 88l-295 -296q45 -54 122 -54z" glyph-name="oslash" horiz-adv-x="1384" unicode="ø"/><glyph d="M256 1486h423l181 -307h-338zM829 1075h461v-1075h-461v142q-147 -163 -415 -162q-100 0 -165 23t-101.5 76t-51 127.5t-14.5 187.5v681h461v-558q0 -121 18.5 -170.5t80.5 -49.5q48 0 98.5 27t88.5 76v675z" glyph-name="ugrave" unicode="ù"/><glyph d="M1126 1486l-266 -307h-338l181 307h423zM829 1075h461v-1075h-461v142q-147 -163 -415 -162q-100 0 -165 23t-101.5 76t-51 127.5t-14.5 187.5v681h461v-558q0 -121 18.5 -170.5t80.5 -49.5q48 0 98.5 27t88.5 76v675z" glyph-name="uacute" unicode="ú"/><glyph d="M1160 1178h-338l-131 192l-131 -192h-338l233 307h473zM829 1075h461v-1075h-461v142q-147 -163 -415 -162q-100 0 -165 23t-101.5 76t-51 127.5t-14.5 187.5v681h461v-558q0 -121 18.5 -170.5t80.5 -49.5q48 0 98.5 27t88.5 76v675z" glyph-name="ucircumflex" unicode="û"/><glyph d="M250 1476h398v-298h-398v298zM735 1476h398v-298h-398v298zM829 1075h461v-1075h-461v142q-147 -163 -415 -162q-100 0 -165 23t-101.5 76t-51 127.5t-14.5 187.5v681h461v-558q0 -121 18.5 -170.5t80.5 -49.5q48 0 98.5 27t88.5 76v675z" glyph-name="udieresis" unicode="ü"/><glyph d="M1165 1486l-266 -307h-338l181 307h423zM933 1075h486l-438 -1050q-205 -488 -809 -424l-20 285q138 -29 210 4t79 135l-400 1050h489l187 -641z" glyph-name="yacute" horiz-adv-x="1460" unicode="ý"/><glyph d="M856 1096q121 0 220 -34t173 -100.5t115 -174.5t41 -249.5t-41 -249.5t-115 -174.5t-173 -100t-220 -33.5q-80 0 -155 21t-117 59v-521h-461v1997h461v-521q42 39 117 60t155 21zM764 266q49 0 85.5 22t56.5 60.5t29 85.5t9 103.5t-9 103.5t-29 85.5t-56.5 60.5t-85.5 22 q-102 0 -179 -59v-424q77 -60 179 -60z" glyph-name="thorn" horiz-adv-x="1456" unicode="þ"/><glyph d="M289 1476h398v-298h-398v298zM774 1476h397v-298h-397v298zM933 1075h486l-438 -1050q-205 -488 -809 -424l-20 285q138 -29 210 4t79 135l-400 1050h489l187 -641z" glyph-name="ydieresis" horiz-adv-x="1460" unicode="ÿ"/><glyph d="M1170 1792v-256h-614v256h614zM1198 0l-73 233h-524l-73 -233h-528l515 1434h696l515 -1434h-528zM710 582h307l-154 493z" glyph-name="Amacron" horiz-adv-x="1726" unicode="Ā"/><glyph d="M346 1434h615v-256h-615v256zM633 1096q153 0 269 -33.5t184.5 -91t103 -129t34.5 -154.5v-689h-441l-20 98q-88 -68 -185.5 -96.5t-226.5 -20.5q-131 8 -208 85t-89 173q-9 80 8 149.5t64.5 132.5t131.5 101t209 55t296 -5v26q0 40 -55 72.5t-129 39.5q-167 15 -405 -78 v280q213 85 459 85zM763 314v154q-139 31 -220 -18t-68 -127q7 -39 41 -58t83 -14q89 8 164 63z" glyph-name="amacron" horiz-adv-x="1305" unicode="ā"/><glyph d="M863 1536q-151 0 -252 81t-134 226h266q20 -97 120 -97q48 0 79 26.5t40 70.5h266q-33 -145 -134 -226t-251 -81zM1198 0l-73 233h-524l-73 -233h-528l515 1434h696l515 -1434h-528zM710 582h307l-154 493z" glyph-name="Abreve" horiz-adv-x="1726" unicode="Ă"/><glyph d="M1038 1485q-33 -145 -134 -226t-251 -81q-151 0 -252 80.5t-134 226.5h267q20 -97 119 -97q48 0 79 26.5t40 70.5h266zM633 1096q153 0 269 -33.5t184.5 -91t103 -129t34.5 -154.5v-689h-441l-20 98q-88 -68 -185.5 -96.5t-226.5 -20.5q-131 8 -208 85t-89 173 q-9 80 8 149.5t64.5 132.5t131.5 101t209 55t296 -5v26q0 40 -55 72.5t-129 39.5q-167 15 -405 -78v280q213 85 459 85zM763 314v154q-139 31 -220 -18t-68 -127q7 -39 41 -58t83 -14q89 8 164 63z" glyph-name="abreve" horiz-adv-x="1305" unicode="ă"/><glyph d="M1385 -170q0 -53 60.5 -66t132.5 9l15 -183q-75 -23 -158 -19.5t-153.5 22.5t-116.5 67.5t-46 116.5q0 38 18 76t66 79t123 68h-128l-73 233h-524l-73 -233h-528l515 1434h696l515 -1434h-148q-193 -85 -193 -170zM710 582h307l-154 493z" glyph-name="Aogonek" horiz-adv-x="1726" unicode="Ą"/><glyph d="M1109 -1q-168 -79 -168 -159q0 -53 60.5 -66t132.5 9l15 -182q-75 -23 -158.5 -20t-153.5 22t-116 67.5t-46 116.5q0 56 42.5 114t135.5 98h-70l-20 98q-88 -68 -185.5 -96.5t-226.5 -20.5q-131 8 -208 85t-89 173q-9 80 8 149.5t64.5 132.5t131.5 101t209 55t296 -5v26 q0 40 -55 72.5t-129 39.5q-167 15 -405 -78v280q213 85 459 85q153 0 269 -33.5t184.5 -91t103 -129t34.5 -154.5v-689h-115zM763 314v154q-139 31 -220 -18t-68 -127q7 -39 41 -58t83 -14q89 8 164 63z" glyph-name="aogonek" horiz-adv-x="1305" unicode="ą"/><glyph d="M1222 1844l-267 -307h-338l182 307h423zM1249 1057q-210 72 -384 49q-138 -12 -220 -114.5t-82 -274.5t82 -274.5t220 -114.5q174 -23 384 49v-350q-179 -47 -382 -47q-127 0 -244.5 30t-219.5 91.5t-178.5 148t-120 207t-43.5 260.5t43.5 260.5t120 207t178.5 148 t219.5 91.5t244.5 30q203 0 382 -47v-350z" glyph-name="Cacute" unicode="Ć"/><glyph d="M1127 1486l-266 -307h-338l182 307h422zM1058 756q-66 27 -148.5 39t-163.5 4q-114 -12 -174 -84.5t-60 -177t60.5 -176.5t173.5 -85q81 -8 163.5 4.5t148.5 38.5v-294q-153 -45 -366 -45q-96 0 -187.5 20t-174 65.5t-144.5 109.5t-98.5 157.5t-36.5 205t36.5 205.5 t98.5 158t144.5 109t174 65.5t187.5 20.5q213 0 366 -45v-295z" glyph-name="cacute" horiz-adv-x="1108" unicode="ć"/><glyph d="M587 1834h398v-298h-398v298zM1249 1057q-210 72 -384 49q-138 -12 -220 -114.5t-82 -274.5t82 -274.5t220 -114.5q174 -23 384 49v-350q-179 -47 -382 -47q-127 0 -244.5 30t-219.5 91.5t-178.5 148t-120 207t-43.5 260.5t43.5 260.5t120 207t178.5 148t219.5 91.5 t244.5 30q203 0 382 -47v-350z" glyph-name="Cdotaccent" unicode="Ċ"/><glyph d="M493 1476h398v-298h-398v298zM1058 756q-66 27 -148.5 39t-163.5 4q-114 -12 -174 -84.5t-60 -177t60.5 -176.5t173.5 -85q81 -8 163.5 4.5t148.5 38.5v-294q-153 -45 -366 -45q-96 0 -187.5 20t-174 65.5t-144.5 109.5t-98.5 157.5t-36.5 205t36.5 205.5t98.5 158 t144.5 109t174 65.5t187.5 20.5q213 0 366 -45v-295z" glyph-name="cdotaccent" horiz-adv-x="1108" unicode="ċ"/><glyph d="M918 1843h337l-232 -307h-473l-233 307h338l131 -192zM1249 1057q-210 72 -384 49q-138 -12 -220 -114.5t-82 -274.5t82 -274.5t220 -114.5q174 -23 384 49v-350q-179 -47 -382 -47q-127 0 -244.5 30t-219.5 91.5t-178.5 148t-120 207t-43.5 260.5t43.5 260.5t120 207 t178.5 148t219.5 91.5t244.5 30q203 0 382 -47v-350z" glyph-name="Ccaron" unicode="Č"/><glyph d="M823 1485h338l-232 -307h-473l-233 307h338l131 -193zM1058 756q-66 27 -148.5 39t-163.5 4q-114 -12 -174 -84.5t-60 -177t60.5 -176.5t173.5 -85q81 -8 163.5 4.5t148.5 38.5v-294q-153 -45 -366 -45q-96 0 -187.5 20t-174 65.5t-144.5 109.5t-98.5 157.5t-36.5 205 t36.5 205.5t98.5 158t144.5 109t174 65.5t187.5 20.5q213 0 366 -45v-295z" glyph-name="ccaron" horiz-adv-x="1108" unicode="č"/><glyph d="M938 1843h338l-233 -307h-473l-232 307h338l131 -192zM1583 717q1 -180 -57 -320t-160 -225.5t-235.5 -128.5t-290.5 -43h-717v1434h717q159 0 292.5 -45.5t234.5 -132.5t158.5 -225t57.5 -314zM788 348q96 0 164.5 53.5t98.5 134.5t30 181q0 98 -32 180.5t-100 135 t-161 52.5h-163v-737h163z" glyph-name="Dcaron" horiz-adv-x="1644" unicode="Ď"/><glyph d="M51 538q0 141 41 249t115.5 174.5t173 100.5t219.5 34q80 0 155 -21t117 -60v521h461v-1536h-369l-21 90q-61 -60 -155.5 -85t-187.5 -25q-120 0 -218 32t-173.5 97.5t-117 175t-40.5 253.5zM1538 1382h461l-154 -654h-409zM692 276q105 0 179 91v383q-77 59 -179 59 q-49 0 -85.5 -22t-56.5 -60.5t-29 -85.5t-9 -103q0 -72 16 -128t57.5 -95t106.5 -39z" glyph-name="dcaron" horiz-adv-x="2080" unicode="ď"/><glyph d="M1593 717q1 -180 -56.5 -320t-160 -225.5t-235.5 -128.5t-291 -43h-717v614h-123v205h123v615h717q159 0 292.5 -45.5t235 -132.5t158.5 -225t57 -314zM799 348q96 0 164 53.5t98.5 134.5t30.5 181q0 98 -32.5 180.5t-100.5 135t-160 52.5h-164v-266h206v-205h-206v-266 h164z" glyph-name="Dcroat" horiz-adv-x="1654" unicode="Đ"/><glyph d="M1415 1412v-205h-82v-1207h-369l-21 90q-61 -60 -155.5 -85t-187.5 -25q-120 0 -218 32t-173.5 97.5t-117 174.5t-40.5 254q0 141 41 249t115.5 174.5t173 100.5t219.5 34q80 0 155 -21t117 -60v192h-276v205h276v124h461v-124h82zM871 367v383q-77 59 -179 59 q-49 0 -85.5 -22t-56.5 -60.5t-29 -85.5t-9 -103q0 -72 16 -128t58 -95t106 -39q105 1 179 91z" glyph-name="dcroat" horiz-adv-x="1456" unicode="đ"/><glyph d="M410 1792h614v-256h-614v256zM625 348h686v-348h-1188v1434h1188v-349h-686v-194h594v-348h-594v-195z" glyph-name="Emacron" horiz-adv-x="1433" unicode="Ē"/><glyph d="M979 1434v-256h-614v256h614zM672 1096q117 0 213 -24.5t163.5 -69t116 -106.5t69.5 -138t24 -163t-22 -180h-720q37 -78 128 -110t237 -35q153 -3 287 49v-294q-153 -45 -419 -45q-143 0 -267.5 33.5t-221.5 100t-153 175t-56 249.5q0 112 34.5 205.5t93.5 157.5 t138 109t169 65.5t186 20.5zM858 671q14 63 -32.5 107.5t-123.5 40.5q-141 -7 -190 -148h346z" glyph-name="emacron" horiz-adv-x="1309" unicode="ē"/><glyph d="M517 1834h398v-298h-398v298zM625 348h686v-348h-1188v1434h1188v-349h-686v-194h594v-348h-594v-195z" glyph-name="Edotaccent" horiz-adv-x="1433" unicode="Ė"/><glyph d="M870 1476v-298h-398v298h398zM672 1096q117 0 213 -24.5t163.5 -69t116 -106.5t69.5 -138t24 -163t-22 -180h-720q37 -78 128 -110t237 -35q153 -3 287 49v-294q-153 -45 -419 -45q-143 0 -267.5 33.5t-221.5 100t-153 175t-56 249.5q0 112 34.5 205.5t93.5 157.5 t138 109t169 65.5t186 20.5zM858 671q14 63 -32.5 107.5t-123.5 40.5q-141 -7 -190 -148h346z" glyph-name="edotaccent" horiz-adv-x="1309" unicode="ė"/><glyph d="M1311 1085h-686v-194h594v-348h-594v-195h686v-348h-468q-193 -85 -193 -170q0 -53 60.5 -66t132.5 9l15 -183q-75 -23 -158.5 -19.5t-153.5 22.5t-116 67.5t-46 116.5q0 38 18 76t66 79t123 68h-468v1434h1188v-349z" glyph-name="Eogonek" horiz-adv-x="1433" unicode="Ę"/><glyph d="M672 1096q117 0 213 -24.5t163.5 -69t116 -106.5t69.5 -138t24 -163t-22 -180h-720q37 -78 128 -110t237 -35q153 -3 287 49v-294q-129 -38 -340 -44q-151 -75 -150 -151q0 -53 60.5 -66t131.5 9l16 -183q-75 -23 -158.5 -19.5t-153.5 22.5t-116 67.5t-46 116.5 q0 57 43.5 115t137.5 98q-117 16 -213 57.5t-171 107.5t-116.5 164t-41.5 219q0 112 34.5 205.5t93.5 157.5t138 109t169 65.5t186 20.5zM858 671q14 63 -32.5 107.5t-123.5 40.5q-141 -7 -190 -148h346z" glyph-name="eogonek" horiz-adv-x="1309" unicode="ę"/><glyph d="M848 1843h338l-233 -307h-473l-232 307h338l131 -192zM625 348h686v-348h-1188v1434h1188v-349h-686v-194h594v-348h-594v-195z" glyph-name="Ecaron" horiz-adv-x="1433" unicode="Ě"/><glyph d="M908 1178h-473l-232 307h338l131 -193l131 193h338zM672 1096q117 0 213 -24.5t163.5 -69t116 -106.5t69.5 -138t24 -163t-22 -180h-720q37 -78 128 -110t237 -35q153 -3 287 49v-294q-153 -45 -419 -45q-143 0 -267.5 33.5t-221.5 100t-153 175t-56 249.5 q0 112 34.5 205.5t93.5 157.5t138 109t169 65.5t186 20.5zM858 671q14 63 -32.5 107.5t-123.5 40.5q-141 -7 -190 -148h346z" glyph-name="ecaron" horiz-adv-x="1309" unicode="ě"/><glyph d="M1231 1843q-33 -145 -134.5 -226t-250.5 -81q-151 0 -252 81t-134 226h266q20 -97 120 -97q48 0 78.5 26.5t40.5 70.5h266zM834 886h580v-813q-279 -93 -547 -93q-127 0 -244.5 30t-219.5 91.5t-178.5 148t-120 207t-43.5 260.5t43.5 260.5t120 207t178.5 148t219.5 91.5 t244.5 30q203 0 382 -47v-350q-210 72 -384 49q-138 -12 -220 -114.5t-82 -274.5t82 -274.5t220 -114.5q61 -8 132 -3v243h-163v318z" glyph-name="Gbreve" horiz-adv-x="1537" unicode="Ğ"/><glyph d="M1113 1485q-33 -145 -134 -226t-251 -81q-151 0 -252 80.5t-134 226.5h266q20 -97 120 -97q48 0 79 26.5t40 70.5h266zM872 1075h459v-957q0 -171 -86.5 -296t-237.5 -188.5t-349 -63.5q-223 0 -375 45v295q143 -59 321 -43q132 12 199 52.5t67 119.5v83 q-40 -39 -114.5 -60t-155.5 -21q-161 0 -282.5 57t-194 177.5t-72.5 292.5q-1 261 137 394.5t361 133.5q196 0 323 -154v133zM512 568q0 -241 179 -240q102 0 179 59v322q-74 90 -179 90q-95 0 -137 -64.5t-42 -166.5z" glyph-name="gbreve" horiz-adv-x="1413" unicode="ğ"/><glyph d="M646 1834h398v-298h-398v298zM834 886h580v-813q-279 -93 -547 -93q-127 0 -244.5 30t-219.5 91.5t-178.5 148t-120 207t-43.5 260.5t43.5 260.5t120 207t178.5 148t219.5 91.5t244.5 30q203 0 382 -47v-350q-210 72 -384 49q-138 -12 -220 -114.5t-82 -274.5t82 -274.5 t220 -114.5q61 -8 132 -3v243h-163v318z" glyph-name="Gdotaccent" horiz-adv-x="1537" unicode="Ġ"/><glyph d="M528 1476h399v-298h-399v298zM872 1075h459v-957q0 -171 -86.5 -296t-237.5 -188.5t-349 -63.5q-223 0 -375 45v295q143 -59 321 -43q132 12 199 52.5t67 119.5v83q-40 -39 -114.5 -60t-155.5 -21q-161 0 -282.5 57t-194 177.5t-72.5 292.5q-1 261 137 394.5t361 133.5 q196 0 323 -154v133zM512 568q0 -241 179 -240q102 0 179 59v322q-74 90 -179 90q-95 0 -137 -64.5t-42 -166.5z" glyph-name="gdotaccent" horiz-adv-x="1413" unicode="ġ"/><glyph d="M834 886h580v-813q-279 -93 -547 -93q-127 0 -244.5 30t-219.5 91.5t-178.5 148t-120 207t-43.5 260.5t43.5 260.5t120 207t178.5 148t219.5 91.5t244.5 30q203 0 382 -47v-350q-210 72 -384 49q-138 -12 -220 -114.5t-82 -274.5t82 -274.5t220 -114.5q61 -8 132 -3v243 h-163v318zM676 -141h346l-116 -491h-307z" glyph-name="Gcommaaccent" horiz-adv-x="1537" unicode="Ģ"/><glyph d="M892 1217h-345l115 490h307zM872 1075h459v-957q0 -171 -86.5 -296t-237.5 -188.5t-349 -63.5q-223 0 -375 45v295q143 -59 321 -43q132 12 199 52.5t67 119.5v83q-40 -39 -114.5 -60t-155.5 -21q-161 0 -282.5 57t-194 177.5t-72.5 292.5q-1 261 137 394.5t361 133.5 q196 0 323 -154v133zM512 568q0 -241 179 -240q102 0 179 59v322q-74 90 -179 90q-95 0 -137 -64.5t-42 -166.5z" glyph-name="gcommaaccent" horiz-adv-x="1413" unicode="ģ"/><glyph d="M1690 1261v-205h-123v-1056h-502v543h-440v-543h-502v1056h-123v205h123v173h502v-173h440v173h502v-173h123zM1065 891v165h-440v-165h440z" glyph-name="Hbar" horiz-adv-x="1689" unicode="Ħ"/><glyph d="M958 1096q100 0 165 -23t102 -76.5t51 -127.5t14 -188v-681h-461v558q0 121 -18 170.5t-81 49.5q-48 0 -98 -27t-89 -76v-675h-461v1207h-82v205h82v124h461v-124h276v-205h-276v-274q147 163 415 163z" glyph-name="hbar" unicode="ħ"/><glyph d="M-28 1536q0 151 67 223t167 72q63 0 160 -33t135 -33q54 0 57 66h217q0 -151 -67 -223t-166 -72q-62 0 -159 33t-136 33q-54 0 -58 -66h-217zM625 0h-502v1434h502v-1434z" glyph-name="Itilde" horiz-adv-x="747" unicode="Ĩ"/><glyph d="M-89 1178q0 151 67 223t166 72q63 0 160 -33t135 -33q54 0 58 66h217q0 -151 -67 -223t-167 -72q-62 0 -159 32.5t-136 32.5q-54 0 -57 -65h-217zM82 1075h461v-1075h-461v1075z" glyph-name="itilde" horiz-adv-x="624" unicode="ĩ"/><glyph d="M67 1792h614v-256h-614v256zM625 0h-502v1434h502v-1434z" glyph-name="Imacron" horiz-adv-x="747" unicode="Ī"/><glyph d="M5 1434h615v-256h-615v256zM82 1075h461v-1075h-461v1075z" glyph-name="imacron" horiz-adv-x="624" unicode="ī"/><glyph d="M505 0q-193 -85 -193 -170q0 -53 60.5 -66t132.5 9l15 -183q-75 -23 -158 -19.5t-153.5 22.5t-116.5 67.5t-46 116.5q0 38 18 76t66 79t123 68h-130v1434h502v-1434h-120z" glyph-name="Iogonek" horiz-adv-x="747" unicode="Į"/><glyph d="M97 1434h512v-281h-512v281zM123 0v1075h461v-1075h-105q-193 -85 -192 -170q0 -53 60.5 -66t131.5 9l16 -183q-75 -23 -158.5 -19.5t-153.5 22.5t-116.5 67.5t-46.5 116.5q0 38 18 76t66.5 79t122.5 68h-104z" glyph-name="iogonek" horiz-adv-x="706" unicode="į"/><glyph d="M174 1834h398v-298h-398v298zM625 0h-502v1434h502v-1434z" glyph-name="Idotaccent" horiz-adv-x="747" unicode="İ"/><glyph d="M82 1075h461v-1075h-461v1075z" glyph-name="dotlessi" horiz-adv-x="624" unicode="ı"/><glyph d="M625 0h-502v1434h502v-1434zM727 379q172 -52 268 -41q211 25 211 215v881h502v-891q1 -136 -32.5 -237t-89.5 -162.5t-144 -99t-184.5 -51t-221.5 -13.5q-178 0 -309 33v366z" glyph-name="IJ" horiz-adv-x="1830" unicode="Ĳ"/><glyph d="M1537 1434l-415 -686l415 -748h-547l-365 658v-658h-502v1434h502v-606l365 606h547zM543 -632l77 491h346l-116 -491h-307z" glyph-name="Kcommaaccent" horiz-adv-x="1537" unicode="Ķ"/><glyph d="M1383 1075l-434 -424l434 -651h-475l-225 390l-140 -137v-253h-461v1536h461v-807l365 346h475zM466 -632l77 491h346l-116 -491h-307z" glyph-name="kcommaaccent" horiz-adv-x="1424" unicode="ķ"/><glyph d="M1383 1075l-434 -424l434 -651h-475l-225 390l-140 -137v-253h-461v1075h461v-346l365 346h475z" glyph-name="kgreenlandic" horiz-adv-x="1424" unicode="ĸ"/><glyph d="M1137 1844l-267 -307h-338l182 307h423zM625 1434v-1086h635v-348h-1137v1434h502z" glyph-name="Lacute" horiz-adv-x="1310" unicode="Ĺ"/><glyph d="M748 1947l-267 -308h-338l182 308h423zM82 1536h461v-1536h-461v1536z" glyph-name="lacute" horiz-adv-x="624" unicode="ĺ"/><glyph d="M625 1434v-1086h635v-348h-1137v1434h502zM531 -141h347l-116 -491h-307z" glyph-name="Lcommaaccent" horiz-adv-x="1310" unicode="Ļ"/><glyph d="M82 1536h461v-1536h-461v1536zM142 -141h346l-115 -491h-307z" glyph-name="lcommaaccent" horiz-adv-x="624" unicode="ļ"/><glyph d="M625 1434v-1086h635v-348h-1137v1434h502zM922 1382h460l-153 -654h-410z" glyph-name="Lcaron" horiz-adv-x="1382" unicode="Ľ"/><glyph d="M82 1536h461v-1536h-461v1536zM748 1382h460l-153 -654h-410z" glyph-name="lcaron" horiz-adv-x="1331" unicode="ľ"/><glyph d="M625 1434v-1086h635v-348h-1137v1434h502zM748 908h512v-383h-512v383z" glyph-name="Ldot" horiz-adv-x="1382" unicode="Ŀ"/><glyph d="M82 1536h461v-1536h-461v1536zM626 959h512v-382h-512v382z" glyph-name="ldot" horiz-adv-x="1219" unicode="ŀ"/><glyph d="M625 348h635v-348h-1137v686l-123 -13v184l123 13v564h502v-511l348 36v-184l-348 -37v-390z" glyph-name="Lslash" horiz-adv-x="1310" unicode="Ł"/><glyph d="M625 959v-184l-82 -13v-762h-461v686l-82 -13v184l82 13v666h461v-590z" glyph-name="lslash" horiz-adv-x="624" unicode="ł"/><glyph d="M1290 1844l-266 -307h-338l181 307h423zM1085 1434h502v-1434h-502l-460 694v-694h-502v1434h502l460 -675v675z" glyph-name="Nacute" horiz-adv-x="1710" unicode="Ń"/><glyph d="M1121 1486l-266 -307h-338l181 307h423zM543 0h-461v1075h461v-142q147 163 415 163q100 0 165 -23t102 -76.5t51 -127.5t14 -188v-681h-461v558q0 121 -18 170.5t-81 49.5q-48 0 -98 -27t-89 -76v-675z" glyph-name="nacute" unicode="ń"/><glyph d="M1085 1434h502v-1434h-502l-460 694v-694h-502v1434h502l460 -675v675zM685 -141h346l-116 -491h-307z" glyph-name="Ncommaaccent" horiz-adv-x="1710" unicode="Ņ"/><glyph d="M543 0h-461v1075h461v-142q147 163 415 163q100 0 165 -23t102 -76.5t51 -127.5t14 -188v-681h-461v558q0 121 -18 170.5t-81 49.5q-48 0 -98 -27t-89 -76v-675zM516 -141h346l-116 -491h-307z" glyph-name="ncommaaccent" unicode="ņ"/><glyph d="M986 1843h338l-232 -307h-474l-232 307h338l131 -192zM1085 1434h502v-1434h-502l-460 694v-694h-502v1434h502l460 -675v675z" glyph-name="Ncaron" horiz-adv-x="1710" unicode="Ň"/><glyph d="M817 1485h338l-232 -307h-473l-233 307h338l131 -193zM543 0h-461v1075h461v-142q147 163 415 163q100 0 165 -23t102 -76.5t51 -127.5t14 -188v-681h-461v558q0 121 -18 170.5t-81 49.5q-48 0 -98 -27t-89 -76v-675z" glyph-name="ncaron" unicode="ň"/><glyph d="M225 1536h461l-154 -654h-409zM1211 0h-460v1075h460v-142q147 163 416 163q100 0 165 -23t101.5 -76.5t51 -127.5t14.5 -188v-681h-461v558q0 121 -18.5 170.5t-80.5 49.5q-48 0 -98.5 -27t-89.5 -76v-675z" glyph-name="napostrophe" horiz-adv-x="2040" unicode="ŉ"/><glyph d="M1085 1434h502v-1470q0 -70 -18 -123t-51 -87.5t-73 -57.5t-93.5 -33.5t-101 -14.5t-104.5 -3q-151 2 -238 55l12 178q109 -25 163 2q27 13 35 39t8 80v1h-41l-460 694v-694h-502v1434h502l460 -675v675z" glyph-name="Eng" horiz-adv-x="1710" unicode="Ŋ"/><glyph d="M958 1096q100 0 165 -23t102 -76.5t51 -127.5t14 -188v-717q0 -70 -18 -123t-51 -87.5t-73 -57.5t-93.5 -33.5t-101 -14.5t-104.5 -3q-151 2 -238 55l12 178q109 -25 163 2q27 13 35 39t8 80v559q0 121 -18 170.5t-81 49.5q-48 0 -98 -27t-89 -76v-675h-461v1075h461 v-142q147 163 415 163z" glyph-name="eng" unicode="ŋ"/><glyph d="M559 1792h615v-256h-615v256zM1670 717q1 -179 -66.5 -323t-181.5 -232.5t-256.5 -135t-300.5 -46.5q-125 0 -241 28.5t-219 88.5t-179 146t-120.5 207.5t-44.5 266.5q0 140 43.5 261t119.5 207t178 147.5t219.5 91.5t243.5 30t244 -30t220 -91.5t178 -147.5t119.5 -207 t43.5 -261zM865 328q141 0 222 106.5t81 282.5q0 175 -83.5 282t-219.5 107q-135 0 -218.5 -107t-83.5 -282q0 -176 81 -282.5t221 -106.5z" glyph-name="Omacron" horiz-adv-x="1731" unicode="Ō"/><glyph d="M385 1434h614v-256h-614v256zM1333 538q1 -115 -35.5 -210t-98.5 -158.5t-145.5 -107.5t-174.5 -63t-187 -19t-186 19t-173.5 63t-145.5 107.5t-99 158.5t-37 210q0 112 36.5 205.5t98.5 157.5t144.5 109t174 65.5t187.5 20.5t188 -20.5t174.5 -65.5t144.5 -109 t98 -157.5t36 -205.5zM692.5 276q64.5 0 106.5 39t57.5 95t15.5 128q0 113 -43 187t-137 74t-137 -74.5t-43 -186.5q0 -72 16 -128t58 -95t106.5 -39z" glyph-name="omacron" horiz-adv-x="1384" unicode="ō"/><glyph d="M909 1884l-164 -348h-290l160 348h294zM1278 1884l-164 -348h-291l161 348h294zM1670 717q1 -179 -66.5 -323t-181.5 -232.5t-256.5 -135t-300.5 -46.5q-125 0 -241 28.5t-219 88.5t-179 146t-120.5 207.5t-44.5 266.5q0 140 43.5 261t119.5 207t178 147.5t219.5 91.5 t243.5 30t244 -30t220 -91.5t178 -147.5t119.5 -207t43.5 -261zM865 328q141 0 222 106.5t81 282.5q0 175 -83.5 282t-219.5 107q-135 0 -218.5 -107t-83.5 -282q0 -176 81 -282.5t221 -106.5z" glyph-name="Ohungarumlaut" horiz-adv-x="1731" unicode="Ő"/><glyph d="M735 1526l-164 -348h-290l160 348h294zM1104 1526l-164 -348h-291l161 348h294zM1333 538q1 -115 -35.5 -210t-98.5 -158.5t-145.5 -107.5t-174.5 -63t-187 -19t-186 19t-173.5 63t-145.5 107.5t-99 158.5t-37 210q0 112 36.5 205.5t98.5 157.5t144.5 109t174 65.5 t187.5 20.5t188 -20.5t174.5 -65.5t144.5 -109t98 -157.5t36 -205.5zM692.5 276q64.5 0 106.5 39t57.5 95t15.5 128q0 113 -43 187t-137 74t-137 -74.5t-43 -186.5q0 -72 16 -128t58 -95t106.5 -39z" glyph-name="ohungarumlaut" horiz-adv-x="1384" unicode="ő"/><glyph d="M2336 1085h-686v-185q1 -1 1 -4t1 -5h592v-348h-591l-3 -16v-179h686v-348h-1188v19q-135 -40 -283 -39q-125 0 -241 28.5t-219 88.5t-179 146t-120.5 207.5t-44.5 266.5q0 140 43.5 261t119.5 207t178 147.5t219.5 91.5t243.5 30q145 0 283 -41v21h1188v-349zM865 328 q105 0 178 61t105 169v313q-32 110 -106 172.5t-177 62.5q-135 0 -218.5 -107t-83.5 -282q0 -176 81 -282.5t221 -106.5z" glyph-name="OE" horiz-adv-x="2458" unicode="Œ"/><glyph d="M1584 1096q117 0 213 -24.5t164 -69t116.5 -106.5t69.5 -138t23.5 -163t-22.5 -180h-720q37 -78 128.5 -110t236.5 -35q153 -3 288 49v-294q-153 -45 -420 -45q-317 0 -508 148q-90 -74 -210.5 -111t-250.5 -37q-96 0 -186 19t-173.5 63t-145.5 107.5t-99 158.5t-37 210 q0 112 36.5 205.5t98.5 157.5t144.5 109t174 65.5t187.5 20.5q126 0 244.5 -36.5t207.5 -108.5q85 72 199.5 108.5t240.5 36.5zM1770 671q14 63 -32 107.5t-123 40.5q-141 -7 -191 -148h346zM692.5 276q64.5 0 106.5 39t57.5 95t15.5 128q0 113 -43 187t-137 74t-137 -74.5 t-43 -186.5q0 -72 16 -128t58 -95t106.5 -39z" glyph-name="oe" horiz-adv-x="2222" unicode="œ"/><glyph d="M1242 1844l-266 -307h-338l181 307h423zM1572 0h-502l-257 431q-96 -8 -188 -11v-420h-502v1434h717q292 0 466 -128.5t174 -368.5q0 -148 -54.5 -246.5t-171.5 -158.5zM625 1106v-358q142 5 217.5 24.5t105.5 57t30 107.5q0 78 -47.5 123.5t-121.5 45.5h-184z" glyph-name="Racute" horiz-adv-x="1633" unicode="Ŕ"/><glyph d="M908 1486l-266 -307h-338l181 307h423zM543 0l-461 1v1074h449v-108q52 49 166.5 89t206.5 40v-313q-72 14 -195.5 -19.5t-165.5 -75.5v-688z" glyph-name="racute" horiz-adv-x="924" unicode="ŕ"/><glyph d="M1254 532l318 -532h-502l-257 431q-96 -8 -188 -11v-420h-502v1434h717q292 0 466 -128.5t174 -368.5q0 -148 -54.5 -247t-171.5 -158zM625 1106v-358q142 5 217.5 24.5t105.5 57t30 107.5q0 78 -47.5 123.5t-121.5 45.5h-184zM560 -632l77 491h346l-116 -491h-307z" glyph-name="Rcommaaccent" horiz-adv-x="1633" unicode="Ŗ"/><glyph d="M543 0l-461 1v1074h449v-108q52 49 166.5 89t206.5 40v-313q-72 14 -195.5 -19.5t-165.5 -75.5v-688zM303 -141h346l-115 -491h-308z" glyph-name="rcommaaccent" horiz-adv-x="924" unicode="ŗ"/><glyph d="M1043 1536h-473l-232 307h338l131 -192l131 192h338zM1572 0h-502l-257 431q-96 -8 -188 -11v-420h-502v1434h717q292 0 466 -128.5t174 -368.5q0 -148 -54.5 -246.5t-171.5 -158.5zM625 1106v-358q142 5 217.5 24.5t105.5 57t30 107.5q0 78 -47.5 123.5t-121.5 45.5 h-184z" glyph-name="Rcaron" horiz-adv-x="1633" unicode="Ř"/><glyph d="M604 1485h338l-232 -307h-473l-233 307h338l131 -193zM543 0l-461 1v1074h449v-108q52 49 166.5 89t206.5 40v-313q-72 14 -195.5 -19.5t-165.5 -75.5v-688z" glyph-name="rcaron" horiz-adv-x="924" unicode="ř"/><glyph d="M1133 1844l-267 -307h-338l182 307h423zM88 465q263 -137 476 -137q216 0 216 98q0 38 -50.5 66t-115 42.5t-148.5 35.5t-128 41q-144 67 -214 172t-62 270q9 180 178.5 291t461.5 111q252 0 445 -97v-377q-124 71 -225.5 99.5t-219.5 26.5q-32 -1 -62.5 -7.5t-57 -25 t-30.5 -46.5q-4 -31 15.5 -55t60 -39.5t81.5 -26.5t98 -25t90 -25q78 -26 142.5 -65.5t117.5 -96.5t81 -137.5t23 -174.5q-5 -93 -48 -165.5t-108.5 -116.5t-157 -72t-184 -38.5t-199.5 -10.5q-119 0 -248.5 28t-227.5 79v378z" glyph-name="Sacute" horiz-adv-x="1323" unicode="Ś"/><glyph d="M1012 1486l-267 -307h-337l181 307h423zM100 342q144 -80 339 -98q70 -7 119 10.5t63 54.5q5 15 -4 27.5t-38.5 24.5t-48.5 17.5t-68 18.5q-33 9 -49 14q-196 51 -280 136.5t-82 224.5q1 83 45.5 146t122 101.5t176 57.5t215.5 19q112 0 219.5 -19.5t175.5 -55.5v-286 q-156 86 -348 96q-54 0 -95 -14t-45 -45q-1 -8 2 -15t11 -14.5t17 -13t26 -12.5t31 -12.5t39 -13t44 -13.5t49.5 -15.5t54.5 -16.5q76 -24 125.5 -48t90 -59.5t58.5 -86t17 -117.5q-2 -92 -48 -162.5t-125 -112t-175 -61t-208 -19.5q-118 0 -239.5 21t-186.5 57v284z" glyph-name="sacute" horiz-adv-x="1133" unicode="ś"/><glyph d="M897 857q78 -26 142.5 -65.5t117.5 -96.5t81 -137.5t23 -174.5q-5 -111 -61.5 -190.5t-151.5 -123.5t-201 -64.5t-234 -23.5l-63 -74q12 2 37 2q103 0 163 -44.5t60 -113.5q0 -88 -80 -141t-244 -53q-70 0 -147 13v121q48 -8 113 -8q121 0 120 76q0 69 -114 69 q-27 0 -46 -2v77l63 81q-224 19 -387 103v378q263 -137 476 -137q216 0 216 98q0 38 -50.5 66t-115 42.5t-148.5 35.5t-128 41q-144 67 -214 172t-62 270q9 180 178.5 291t461.5 111q252 0 445 -97v-377q-124 71 -225.5 99.5t-219.5 26.5q-32 -1 -62.5 -7.5t-57 -25 t-30.5 -46.5q-4 -31 15.5 -55t60 -39.5t81.5 -26.5t98 -25t90 -25z" glyph-name="Scedilla" horiz-adv-x="1323" unicode="Ş"/><glyph d="M791 646q76 -24 125.5 -48t90 -59.5t58.5 -86t17 -117.5q-1 -82 -37 -146t-99 -105.5t-142.5 -66t-173.5 -33.5l-67 -77q12 2 37 2q103 0 163 -44.5t60 -113.5q0 -88 -79.5 -141t-243.5 -53q-70 0 -148 13v121q48 -8 113 -8q121 0 121 76q0 69 -115 69q-27 0 -46 -2v77 l60 78q-112 3 -218.5 23.5t-166.5 53.5v284q144 -80 339 -98q70 -7 119 10.5t63 54.5q5 15 -4 27.5t-38.5 24.5t-48.5 17.5t-68 18.5q-33 9 -49 14q-196 51 -280 136.5t-82 224.5q1 83 45.5 146t122 101.5t176 57.5t215.5 19q112 0 219.5 -19.5t175.5 -55.5v-286 q-156 86 -348 96q-54 0 -95 -14t-45 -45q-1 -8 2 -15t11 -14.5t17 -13t26 -12.5t31 -12.5t39 -13t44 -13.5t49.5 -15.5t54.5 -16.5z" glyph-name="scedilla" horiz-adv-x="1133" unicode="ş"/><glyph d="M828 1843h338l-232 -307h-473l-233 307h338l131 -192zM88 465q263 -137 476 -137q216 0 216 98q0 38 -50.5 66t-115 42.5t-148.5 35.5t-128 41q-144 67 -214 172t-62 270q9 180 178.5 291t461.5 111q252 0 445 -97v-377q-124 71 -225.5 99.5t-219.5 26.5 q-32 -1 -62.5 -7.5t-57 -25t-30.5 -46.5q-4 -31 15.5 -55t60 -39.5t81.5 -26.5t98 -25t90 -25q78 -26 142.5 -65.5t117.5 -96.5t81 -137.5t23 -174.5q-5 -93 -48 -165.5t-108.5 -116.5t-157 -72t-184 -38.5t-199.5 -10.5q-119 0 -248.5 28t-227.5 79v378z" glyph-name="Scaron" horiz-adv-x="1323" unicode="Š"/><glyph d="M708 1485h338l-233 -307h-473l-232 307h337l132 -193zM100 342q144 -80 339 -98q70 -7 119 10.5t63 54.5q5 15 -4 27.5t-38.5 24.5t-48.5 17.5t-68 18.5q-33 9 -49 14q-196 51 -280 136.5t-82 224.5q1 83 45.5 146t122 101.5t176 57.5t215.5 19q112 0 219.5 -19.5 t175.5 -55.5v-286q-156 86 -348 96q-54 0 -95 -14t-45 -45q-1 -8 2 -15t11 -14.5t17 -13t26 -12.5t31 -12.5t39 -13t44 -13.5t49.5 -15.5t54.5 -16.5q76 -24 125.5 -48t90 -59.5t58.5 -86t17 -117.5q-2 -92 -48 -162.5t-125 -112t-175 -61t-208 -19.5q-118 0 -239.5 21 t-186.5 57v284z" glyph-name="scaron" horiz-adv-x="1133" unicode="š"/><glyph d="M1239 1434v-349h-363v-1085h-184l-81 -93q12 2 37 2q103 0 163 -44.5t60 -113.5q0 -88 -79.5 -141t-243.5 -53q-70 0 -148 13v121q48 -8 113 -8q121 0 121 76q0 69 -115 69q-27 0 -46 -2v77l76 97h-175v1085h-364v349h1229z" glyph-name="Tcommaaccent" horiz-adv-x="1249" unicode="Ţ"/><glyph d="M931 768h-257v-389q0 -44 24.5 -68t68.5 -24h164v-287h-372l-81 -93q12 2 37 2q103 0 163 -44.5t60 -113.5q0 -88 -79.5 -141t-243.5 -53q-70 0 -148 13v121q48 -8 113 -8q121 0 121 76q0 69 -115 69q-27 0 -46 -2v77l78 100q-88 13 -146.5 80.5t-58.5 158.5v526h-162 v307h162v205h461v-205h257v-307z" glyph-name="tcommaaccent" horiz-adv-x="1012" unicode="ţ"/><glyph d="M861 1536h-473l-232 307h338l131 -192l131 192h338zM1239 1434v-349h-363v-1085h-502v1085h-364v349h1229z" glyph-name="Tcaron" horiz-adv-x="1249" unicode="Ť"/><glyph d="M1136 1382h460l-153 -654h-410zM931 0h-475q-101 0 -172 70.5t-71 171.5v526h-162v307h162v205h461v-205h257v-307h-257v-389q0 -44 24.5 -68t68.5 -24h164v-287z" glyph-name="tcaron" horiz-adv-x="1719" unicode="ť"/><glyph d="M1239 1085h-363v-266h291v-205h-291v-614h-502v614h-231v205h231v266h-364v349h1229v-349z" glyph-name="Tbar" horiz-adv-x="1249" unicode="Ŧ"/><glyph d="M931 768h-257v-72h257v-204h-257v-113q0 -44 24.5 -68t68.5 -24h164v-287h-475q-101 0 -172 70.5t-71 171.5v250h-162v204h162v72h-162v307h162v205h461v-205h257v-307z" glyph-name="tbar" horiz-adv-x="1012" unicode="ŧ"/><glyph d="M424 1536q0 151 67 223t166 72q63 0 160 -33t135 -33q54 0 58 66h217q0 -151 -67 -223t-167 -72q-62 0 -159 33t-136 33q-54 0 -57 -66h-217zM1527 1434v-799q1 -182 -47 -310.5t-142.5 -203.5t-220 -108t-293.5 -33q-133 0 -238.5 20t-194 67.5t-146.5 122.5t-90 186.5 t-32 258.5v799h502v-891q0 -93 53 -154t146 -61q94 0 147.5 61t53.5 154v891h502z" glyph-name="Utilde" horiz-adv-x="1649" unicode="Ũ"/><glyph d="M290 1178q0 151 67 223t166 72q63 0 160 -33t135 -33q54 0 58 66h217q0 -151 -67.5 -223t-166.5 -72q-62 0 -159 32.5t-136 32.5q-54 0 -57 -65h-217zM829 1075h461v-1075h-461v142q-147 -163 -415 -162q-100 0 -165 23t-101.5 76t-51 127.5t-14.5 187.5v681h461v-558 q0 -121 18.5 -170.5t80.5 -49.5q48 0 98.5 27t88.5 76v675z" glyph-name="utilde" unicode="ũ"/><glyph d="M518 1792h615v-256h-615v256zM1527 1434v-799q1 -182 -47 -310.5t-142.5 -203.5t-220 -108t-293.5 -33q-133 0 -238.5 20t-194 67.5t-146.5 122.5t-90 186.5t-32 258.5v799h502v-891q0 -93 53 -154t146 -61q94 0 147.5 61t53.5 154v891h502z" glyph-name="Umacron" horiz-adv-x="1649" unicode="Ū"/><glyph d="M384 1434h614v-256h-614v256zM829 1075h461v-1075h-461v142q-147 -163 -415 -162q-100 0 -165 23t-101.5 76t-51 127.5t-14.5 187.5v681h461v-558q0 -121 18.5 -170.5t80.5 -49.5q48 0 98.5 27t88.5 76v675z" glyph-name="umacron" unicode="ū"/><glyph d="M825.5 1536q-115.5 0 -198.5 83t-83 198.5t83 198.5t198.5 83t198.5 -83t83 -198.5t-83 -198.5t-198.5 -83zM825.5 1740q31.5 0 54.5 23t23 54.5t-23 54.5t-54.5 23t-54.5 -23t-23 -54.5t23 -54.5t54.5 -23zM1527 1434v-799q1 -182 -47 -310.5t-142.5 -203.5t-220 -108 t-293.5 -33q-133 0 -238.5 20t-194 67.5t-146.5 122.5t-90 186.5t-32 258.5v799h502v-891q0 -93 53 -154t146 -61q94 0 147.5 61t53.5 154v891h502z" glyph-name="Uring" horiz-adv-x="1649" unicode="Ů"/><glyph d="M691 1178q-116 0 -198.5 82.5t-82.5 198.5t82.5 199t198.5 83t199 -83t83 -199t-83 -198.5t-199 -82.5zM691 1381q32 0 55 23t23 55t-23 55t-55 23t-55 -23t-23 -55t23 -55t55 -23zM829 1075h461v-1075h-461v142q-147 -163 -415 -162q-100 0 -165 23t-101.5 76t-51 127.5 t-14.5 187.5v681h461v-558q0 -121 18.5 -170.5t80.5 -49.5q48 0 98.5 27t88.5 76v675z" glyph-name="uring" unicode="ů"/><glyph d="M868 1884l-163 -348h-291l160 348h294zM1237 1884l-164 -348h-291l161 348h294zM1527 1434v-799q1 -182 -47 -310.5t-142.5 -203.5t-220 -108t-293.5 -33q-133 0 -238.5 20t-194 67.5t-146.5 122.5t-90 186.5t-32 258.5v799h502v-891q0 -93 53 -154t146 -61 q94 0 147.5 61t53.5 154v891h502z" glyph-name="Uhungarumlaut" horiz-adv-x="1649" unicode="Ű"/><glyph d="M734 1526l-164 -348h-290l160 348h294zM1103 1526l-164 -348h-291l161 348h294zM829 1075h461v-1075h-461v142q-147 -163 -415 -162q-100 0 -165 23t-101.5 76t-51 127.5t-14.5 187.5v681h461v-558q0 -121 18.5 -170.5t80.5 -49.5q48 0 98.5 27t88.5 76v675z" glyph-name="uhungarumlaut" unicode="ű"/><glyph d="M911 -18q-154 -75 -153 -152q0 -53 60.5 -66t131.5 9l16 -183q-75 -23 -158.5 -19.5t-153.5 22.5t-116 67.5t-46 116.5q0 55 41.5 113t134.5 98q-131 14 -229 56.5t-170 118.5t-109 194t-37 278v799h502v-891q0 -93 53 -154t146 -61q94 0 147.5 61t53.5 154v891h502v-799 q1 -170 -41 -293.5t-124 -199t-193 -114t-258 -46.5z" glyph-name="Uogonek" horiz-adv-x="1649" unicode="Ų"/><glyph d="M1191 0q-193 -85 -193 -170q0 -53 60.5 -66t132.5 9l15 -183q-75 -23 -158 -19.5t-153.5 22.5t-116.5 67.5t-46 116.5q0 38 18 76t66 79t123 68h-110v142q-147 -163 -415 -162q-100 0 -165 23t-101.5 76t-51 127.5t-14.5 187.5v681h461v-558q0 -121 18.5 -170.5 t80.5 -49.5q48 0 98.5 27t88.5 76v675h461v-1075h-99z" glyph-name="uogonek" unicode="ų"/><glyph d="M1618 1536h-338l-131 193l-131 -193h-338l232 307h473zM1764 1434h524l-382 -1434h-536l-221 859l-221 -859h-536l-382 1434h524l148 -795l177 795h580l177 -795z" glyph-name="Wcircumflex" horiz-adv-x="2297" unicode="Ŵ"/><glyph d="M1532 1178h-338l-131 192l-131 -192h-338l232 307h473zM1598 1075h486l-316 -1075h-540l-167 634l-164 -634h-541l-315 1075h485l159 -607l137 607h481l157 -607z" glyph-name="wcircumflex" horiz-adv-x="2124" unicode="ŵ"/><glyph d="M1230 1536h-338l-131 193l-131 -193h-338l232 307h473zM984 1434h527l-499 -983v-451h-502v451l-500 983h531l220 -512z" glyph-name="Ycircumflex" horiz-adv-x="1521" unicode="Ŷ"/><glyph d="M1199 1178h-338l-131 192l-131 -192h-338l233 307h473zM933 1075h486l-438 -1050q-205 -488 -809 -424l-20 285q138 -29 210 4t79 135l-400 1050h489l187 -641z" glyph-name="ycircumflex" horiz-adv-x="1460" unicode="ŷ"/><glyph d="M319 1834h399v-298h-399v298zM805 1834h397v-298h-397v298zM984 1434h527l-499 -983v-451h-502v451l-500 983h531l220 -512z" glyph-name="Ydieresis" horiz-adv-x="1521" unicode="Ÿ"/><glyph d="M1172 1844l-266 -307h-338l182 307h422zM1352 1434v-349l-604 -737h604v-348h-1229v348l594 737h-594v349h1229z" glyph-name="Zacute" horiz-adv-x="1474" unicode="Ź"/><glyph d="M1023 1486l-266 -307h-338l181 307h423zM1124 768l-504 -461h504l-1 -307h-1072v307l504 461h-504v307h1072z" glyph-name="zacute" horiz-adv-x="1175" unicode="ź"/><glyph d="M936 1834v-298h-398v298h398zM1352 1434v-349l-604 -737h604v-348h-1229v348l594 737h-594v349h1229z" glyph-name="Zdotaccent" horiz-adv-x="1474" unicode="Ż"/><glyph d="M786 1476v-298h-398v298h398zM1124 768l-504 -461h504l-1 -307h-1072v307l504 461h-504v307h1072z" glyph-name="zdotaccent" horiz-adv-x="1175" unicode="ż"/><glyph d="M974 1536h-473l-233 307h338l131 -192l131 192h338zM1352 1434v-349l-604 -737h604v-348h-1229v348l594 737h-594v349h1229z" glyph-name="Zcaron" horiz-adv-x="1474" unicode="Ž"/><glyph d="M824 1178h-473l-232 307h338l131 -193l131 193h338zM1124 768l-504 -461h504l-1 -307h-1072v307l504 461h-504v307h1072z" glyph-name="zcaron" horiz-adv-x="1175" unicode="ž"/><glyph d="M1080 1101q-30 -13 -43.5 -39t-25.5 -80l-84 -368h272v-204h-318l-91 -402q-18 -82 -59 -142.5t-89.5 -94t-115 -53t-123.5 -25t-128 -4.5q-150 2 -224 55l51 178q103 -25 165 2q30 13 44 39t26 80l83 367h-220v204h267l91 403q18 82 58.5 142.5t89.5 94t115.5 53t123 25 t127.5 4.5q150 -2 224 -55l-51 -178q-104 25 -165 -2z" glyph-name="florin" horiz-adv-x="1347" unicode="ƒ"/><glyph d="M748 819v-205h-123v-614h-502v614h-123v205h123v615h502v-615h123z" glyph-name="uni0197" horiz-adv-x="747" unicode="Ɨ"/><glyph d="M1100 1536h-473l-233 307h338l131 -192l131 192h338zM1198 0l-73 233h-524l-73 -233h-528l515 1434h696l515 -1434h-528zM710 582h307l-154 493z" glyph-name="uni01CD" horiz-adv-x="1726" unicode="Ǎ"/><glyph d="M784 1485h338l-232 -307h-473l-233 307h338l131 -193zM633 1096q153 0 269 -33.5t184.5 -91t103 -129t34.5 -154.5v-689h-441l-20 98q-88 -68 -185.5 -96.5t-226.5 -20.5q-131 8 -208 85t-89 173q-9 80 8 149.5t64.5 132.5t131.5 101t209 55t296 -5v26q0 40 -55 72.5 t-129 39.5q-167 15 -405 -78v280q213 85 459 85zM763 314v154q-139 31 -220 -18t-68 -127q7 -39 41 -58t83 -14q89 8 164 63z" glyph-name="uni01CE" horiz-adv-x="1305" unicode="ǎ"/><glyph d="M505 1843h338l-233 -307h-473l-232 307h338l131 -192zM625 0h-502v1434h502v-1434z" glyph-name="uni01CF" horiz-adv-x="747" unicode="Ǐ"/><glyph d="M443 1485h338l-232 -307h-473l-233 307h338l131 -193zM82 1075h461v-1075h-461v1075z" glyph-name="uni01D0" horiz-adv-x="624" unicode="ǐ"/><glyph d="M997 1843h338l-232 -307h-473l-233 307h338l131 -192zM1670 717q1 -179 -66.5 -323t-181.5 -232.5t-256.5 -135t-300.5 -46.5q-125 0 -241 28.5t-219 88.5t-179 146t-120.5 207.5t-44.5 266.5q0 140 43.5 261t119.5 207t178 147.5t219.5 91.5t243.5 30t244 -30t220 -91.5 t178 -147.5t119.5 -207t43.5 -261zM865 328q141 0 222 106.5t81 282.5q0 175 -83.5 282t-219.5 107q-135 0 -218.5 -107t-83.5 -282q0 -176 81 -282.5t221 -106.5z" glyph-name="uni01D1" horiz-adv-x="1731" unicode="Ǒ"/><glyph d="M823 1485h338l-232 -307h-473l-233 307h338l131 -193zM1333 538q1 -115 -35.5 -210t-98.5 -158.5t-145.5 -107.5t-174.5 -63t-187 -19t-186 19t-173.5 63t-145.5 107.5t-99 158.5t-37 210q0 112 36.5 205.5t98.5 157.5t144.5 109t174 65.5t187.5 20.5t188 -20.5 t174.5 -65.5t144.5 -109t98 -157.5t36 -205.5zM692.5 276q64.5 0 106.5 39t57.5 95t15.5 128q0 113 -43 187t-137 74t-137 -74.5t-43 -186.5q0 -72 16 -128t58 -95t106.5 -39z" glyph-name="uni01D2" horiz-adv-x="1384" unicode="ǒ"/><glyph d="M956 1843h338l-232 -307h-473l-233 307h338l131 -192zM1527 1434v-799q1 -182 -47 -310.5t-142.5 -203.5t-220 -108t-293.5 -33q-133 0 -238.5 20t-194 67.5t-146.5 122.5t-90 186.5t-32 258.5v799h502v-891q0 -93 53 -154t146 -61q94 0 147.5 61t53.5 154v891h502z" glyph-name="uni01D3" horiz-adv-x="1649" unicode="Ǔ"/><glyph d="M822 1485h338l-232 -307h-473l-233 307h338l131 -193zM829 1075h461v-1075h-461v142q-147 -163 -415 -162q-100 0 -165 23t-101.5 76t-51 127.5t-14.5 187.5v681h461v-558q0 -121 18.5 -170.5t80.5 -49.5q48 0 98.5 27t88.5 76v675z" glyph-name="uni01D4" unicode="ǔ"/><glyph d="M977 1843h338l-233 -307h-473l-232 307h338l131 -192zM834 886h580v-813q-279 -93 -547 -93q-127 0 -244.5 30t-219.5 91.5t-178.5 148t-120 207t-43.5 260.5t43.5 260.5t120 207t178.5 148t219.5 91.5t244.5 30q203 0 382 -47v-350q-210 72 -384 49 q-138 -12 -220 -114.5t-82 -274.5t82 -274.5t220 -114.5q61 -8 132 -3v243h-163v318z" glyph-name="Gcaron" horiz-adv-x="1537" unicode="Ǧ"/><glyph d="M859 1485h338l-232 -307h-473l-233 307h338l131 -193zM872 1075h459v-957q0 -171 -86.5 -296t-237.5 -188.5t-349 -63.5q-223 0 -375 45v295q143 -59 321 -43q132 12 199 52.5t67 119.5v83q-40 -39 -114.5 -60t-155.5 -21q-161 0 -282.5 57t-194 177.5t-72.5 292.5 q-1 261 137 394.5t361 133.5q196 0 323 -154v133zM512 568q0 -241 179 -240q102 0 179 59v322q-74 90 -179 90q-95 0 -137 -64.5t-42 -166.5z" glyph-name="gcaron" horiz-adv-x="1413" unicode="ǧ"/><glyph d="M1471 1844l-266 -307h-338l182 307h422zM1949 1085h-584v-194h532v-348h-532v-195h584v-348h-1086v233h-262l-73 -233h-528l515 1434h1434v-349zM863 582v493l-153 -493h153z" glyph-name="AEacute" horiz-adv-x="2071" unicode="Ǽ"/><glyph d="M1593 1486l-266 -307h-338l181 307h423zM1614 1096q117 0 213 -24.5t163.5 -69t116.5 -106.5t70 -138t23.5 -163t-22.5 -180h-720q37 -78 128 -110t237 -35q153 -3 287 49v-294q-153 -45 -419 -45q-282 0 -467 119v-100h-441l-20 98q-88 -68 -185.5 -96.5t-226.5 -20.5 q-131 8 -208 85t-89 173q-9 80 8 149.5t64.5 132.5t131.5 101t209 55t296 -5v26q0 40 -55 72.5t-129 39.5q-167 15 -405 -78v280q213 85 459 85q356 0 507 -175q87 87 211 131t263 44zM1800 671q14 63 -32.5 107.5t-122.5 40.5q-141 -7 -191 -148h346zM763 314v154 q-139 31 -220 -18t-68 -127q7 -39 41 -58t83 -14q89 8 164 63z" glyph-name="aeacute" horiz-adv-x="2251" unicode="ǽ"/><glyph d="M1302 1844l-267 -307h-338l182 307h423zM1670 717q1 -179 -66.5 -323t-181.5 -232.5t-256.5 -135t-300.5 -46.5q-292 0 -506 145l-115 -116l-108 108l108 107q-182 194 -183 493q0 140 43.5 261t119.5 207t178 147.5t219.5 91.5t243.5 30q270 0 478 -130l101 100 l107 -107l-87 -87q206 -201 206 -513zM563 717q0 -86 20 -154l470 470q-76 73 -188 73q-135 0 -218.5 -107t-83.5 -282zM865 328q141 0 222 106.5t81 282.5q0 100 -30 186l-483 -482q80 -93 210 -93z" glyph-name="Oslashacute" horiz-adv-x="1690" unicode="Ǿ"/><glyph d="M1127 1486l-266 -307h-338l182 307h422zM1333 538q1 -115 -35.5 -210t-98.5 -158.5t-145.5 -107.5t-174.5 -63t-187 -19q-216 0 -379 93l-127 -128l-85 84l114 114q-164 147 -164 395q0 112 36.5 205.5t98.5 157.5t144.5 109t174 65.5t187.5 20.5q214 0 379 -96l129 130 l85 -83l-117 -117q165 -149 165 -392zM512 538q0 -49 7 -89l296 295q-44 54 -123 55q-94 0 -137 -74t-43 -187zM692 276q65 0 107 39t57.5 95t15.5 128q0 48 -7 88l-295 -296q45 -54 122 -54z" glyph-name="oslashacute" horiz-adv-x="1384" unicode="ǿ"/><glyph d="M88 465q263 -137 476 -137q216 0 216 98q0 38 -50.5 66t-115 42.5t-148.5 35.5t-128 41q-144 67 -214 172t-62 270q9 180 178.5 291t461.5 111q252 0 445 -97v-377q-124 71 -225.5 99.5t-219.5 26.5q-32 -1 -62.5 -7.5t-57 -25t-30.5 -46.5q-4 -31 15.5 -55t60 -39.5 t81.5 -26.5t98 -25t90 -25q78 -26 142.5 -65.5t117.5 -96.5t81 -137.5t23 -174.5q-5 -93 -48 -165.5t-108.5 -116.5t-157 -72t-184 -38.5t-199.5 -10.5q-119 0 -248.5 28t-227.5 79v378zM393 -141h346l-115 -491h-308z" glyph-name="Scommaaccent" horiz-adv-x="1323" unicode="Ș"/><glyph d="M100 342q144 -80 339 -98q70 -7 119 10.5t63 54.5q5 15 -4 27.5t-38.5 24.5t-48.5 17.5t-68 18.5q-33 9 -49 14q-196 51 -280 136.5t-82 224.5q1 83 45.5 146t122 101.5t176 57.5t215.5 19q112 0 219.5 -19.5t175.5 -55.5v-286q-156 86 -348 96q-54 0 -95 -14t-45 -45 q-1 -8 2 -15t11 -14.5t17 -13t26 -12.5t31 -12.5t39 -13t44 -13.5t49.5 -15.5t54.5 -16.5q76 -24 125.5 -48t90 -59.5t58.5 -86t17 -117.5q-2 -92 -48 -162.5t-125 -112t-175 -61t-208 -19.5q-118 0 -239.5 21t-186.5 57v284zM407 -141h346l-116 -491h-307z" glyph-name="scommaaccent" horiz-adv-x="1133" unicode="ș"/><glyph d="M1239 1434v-349h-363v-1085h-502v1085h-364v349h1229zM378 -632l77 491h346l-116 -491h-307z" glyph-name="uni021A" horiz-adv-x="1249" unicode="Ț"/><glyph d="M931 0h-475q-101 0 -172 70.5t-71 171.5v526h-162v307h162v205h461v-205h257v-307h-257v-389q0 -44 24.5 -68t68.5 -24h164v-287zM322 -141h346l-116 -491h-307z" glyph-name="uni021B" horiz-adv-x="1012" unicode="ț"/><glyph d="M1311 1085h-686v-194h594v-348h-594v-195h686v-348h-527l-81 -93q12 2 37 2q103 0 163.5 -44.5t60.5 -113.5q0 -88 -80 -141t-244 -53q-70 0 -147 13v121q48 -8 112 -8q121 0 121 76q0 69 -115 69q-27 0 -46 -2v77l76 97h-518v1434h1188v-349z" glyph-name="uni0228" horiz-adv-x="1433" unicode="Ȩ"/><glyph d="M672 1096q117 0 213 -24.5t163.5 -69t116 -106.5t69.5 -138t24 -163t-22 -180h-720q37 -78 128 -110t237 -35q153 -3 287 49v-294q-139 -42 -378 -45l-64 -73q12 2 37 2q103 0 163 -44.5t60 -113.5q0 -88 -80 -141t-243 -53q-70 0 -148 13v121q48 -8 113 -8q121 0 121 76 q0 69 -115 69q-27 0 -46 -2v77l63 81q-101 8 -189.5 34t-164.5 72t-130 108.5t-85 149.5t-31 190q0 112 34.5 205.5t93.5 157.5t138 109t169 65.5t186 20.5zM858 671q14 63 -32.5 107.5t-123.5 40.5q-141 -7 -190 -148h346z" glyph-name="uni0229" horiz-adv-x="1309" unicode="ȩ"/><glyph d="M543 1075v-1111q0 -70 -18 -123t-51.5 -87.5t-73.5 -57.5t-93 -33.5t-100.5 -14.5t-105.5 -3q-151 2 -237 55l11 178q109 -25 164 2q27 13 35 39t8 80v1076h461z" glyph-name="uni0237" horiz-adv-x="624" unicode="ȷ"/><glyph d="M561 1096q143 0 267 -34t221.5 -100.5t153 -175t55.5 -248.5q0 -112 -34 -205.5t-93 -157.5t-138.5 -109.5t-169 -65.5t-185.5 -20q-117 0 -213 24.5t-163.5 68.5t-116.5 106.5t-70 138t-23.5 162.5t22.5 180h720q-37 78 -128.5 110t-236.5 35q-153 3 -288 -49v295 q153 45 420 45zM607 256q141 7 191 148h-346q-14 -63 32 -107.5t123 -40.5z" glyph-name="uni0259" horiz-adv-x="1309" unicode="ə"/><glyph d="M609 1434v-281h-512v281h512zM686 788v-348h-102v-440h-461v440h-103v348h103v287h461v-287h102z" glyph-name="uni0268" horiz-adv-x="706" unicode="ɨ"/><glyph d="M1061 1178h-338l-131 192l-131 -192h-338l232 307h473z" glyph-name="circumflex" horiz-adv-x="1183" unicode="ˆ"/><glyph d="M723 1485h338l-233 -307h-473l-232 307h338l131 -193z" glyph-name="caron" horiz-adv-x="1183" unicode="ˇ"/><glyph d="M894 1485q-33 -145 -134.5 -226t-250.5 -81q-151 0 -252 80.5t-134 226.5h266q20 -97 120 -97q48 0 78.5 26.5t40.5 70.5h266z" glyph-name="breve" horiz-adv-x="1016" unicode="˘"/><glyph d="M123 1476h398v-298h-398v298z" glyph-name="dotaccent" horiz-adv-x="644" unicode="˙"/><glyph d="M404.5 1178q-115.5 0 -198.5 82.5t-83 198.5t83 199t198.5 83t198.5 -83t83 -199t-83 -198.5t-198.5 -82.5zM404.5 1381q31.5 0 54.5 23t23 55t-23 55t-54.5 23t-54.5 -23t-23 -55t23 -55t54.5 -23z" glyph-name="ring" horiz-adv-x="808" unicode="˚"/><glyph d="M123 -223q0 38 18 76t66 79t123 68h252q-193 -85 -193 -170q0 -53 60.5 -66t132.5 9l15 -183q-75 -23 -158.5 -19.5t-153.5 22.5t-116 67.5t-46 116.5z" glyph-name="ogonek" horiz-adv-x="719" unicode="˛"/><glyph d="M123 1178q0 151 67 223t166 72q63 0 160 -33t135 -33q54 0 58 66h217q0 -151 -67 -223t-167 -72q-62 0 -159 32.5t-136 32.5q-54 0 -57 -65h-217z" glyph-name="tilde" horiz-adv-x="1048" unicode="˜"/><glyph d="M578 1526l-164 -348h-291l161 348h294zM946 1526l-164 -348h-290l160 348h294z" glyph-name="hungarumlaut" horiz-adv-x="1069" unicode="˝"/><glyph d="M-727 1485h423l181 -307h-338z" glyph-name="gravecomb" horiz-adv-x="0" unicode="̀"/><glyph d="M-123 1485l-266 -307h-338l181 307h423z" glyph-name="acutecomb" horiz-adv-x="0" unicode="́"/><glyph d="M-123 1178h-338l-131 192l-131 -192h-338l233 307h473z" glyph-name="uni0302" horiz-adv-x="0" unicode="̂"/><glyph d="M-926 1178q0 151 67 223t167 72q63 0 160 -33t135 -33q54 0 57 66h217q0 -151 -67 -223t-166 -72q-62 0 -159 32.5t-136 32.5q-54 0 -58 -65h-217z" glyph-name="tildecomb" horiz-adv-x="0" unicode="̃"/><glyph d="M-737 1434h614v-256h-614v256z" glyph-name="uni0304" horiz-adv-x="0" unicode="̄"/><glyph d="M-123 1485q-33 -145 -134 -226t-251 -81q-151 0 -252 80.5t-134 226.5h266q20 -97 120 -97q48 0 79 26.5t40 70.5h266z" glyph-name="uni0306" horiz-adv-x="0" unicode="̆"/><glyph d="M-521 1476h398v-298h-398v298z" glyph-name="uni0307" horiz-adv-x="0" unicode="̇"/><glyph d="M-1006 1476h399v-298h-399v298zM-520 1476h397v-298h-397v298z" glyph-name="uni0308" horiz-adv-x="0" unicode="̈"/><glyph d="M-404.5 1178q-115.5 0 -198.5 82.5t-83 198.5t83 199t198.5 83t198.5 -83t83 -199t-83 -198.5t-198.5 -82.5zM-404.5 1381q31.5 0 54.5 23t23 55t-23 55t-54.5 23t-54.5 -23t-23 -55t23 -55t54.5 -23z" glyph-name="uni030A" horiz-adv-x="0" unicode="̊"/><glyph d="M-492 1526l-163 -348h-291l161 348h293zM-123 1526l-164 -348h-291l161 348h294z" glyph-name="uni030B" horiz-adv-x="0" unicode="̋"/><glyph d="M-461 1485h338l-232 -307h-473l-233 307h338l131 -193z" glyph-name="uni030C" horiz-adv-x="0" unicode="̌"/><glyph d="M-200 1217h-345l115 490h307z" glyph-name="uni0312" horiz-adv-x="0" unicode="̒"/><glyph d="M-521 -102h398v-298h-398v298z" glyph-name="dotbelowcomb" horiz-adv-x="0" unicode="̣"/><glyph d="M-468 -141h346l-116 -491h-307z" glyph-name="uni0326" horiz-adv-x="0" unicode="̦"/><glyph d="M-346 -91q103 0 163 -44.5t60 -113.5q0 -88 -80 -141t-243 -53q-70 0 -148 13v121q48 -8 113 -8q121 0 121 76q0 69 -115 69q-27 0 -46 -2v77l80 102h143l-85 -98q12 2 37 2z" glyph-name="uni0327" horiz-adv-x="0" unicode="̧"/><glyph d="M-597 -223q0 38 18 76t66 79t123 68h252q-193 -85 -193 -170q0 -53 60.5 -66t132.5 9l15 -183q-75 -23 -158.5 -19.5t-153.5 22.5t-116 67.5t-46 116.5z" glyph-name="uni0328" horiz-adv-x="0" unicode="̨"/><glyph d="M275 1803h399v-298h-399v298zM761 1803h397v-298h-397v298zM625 348h686v-348h-1188v1434h1188v-349h-686v-194h594v-348h-594v-195z" glyph-name="afii10023" horiz-adv-x="1433" unicode="Ё"/><glyph d="M1198 0l-73 233h-524l-73 -233h-528l515 1434h696l515 -1434h-528zM710 582h307l-154 493z" glyph-name="afii10017" horiz-adv-x="1726" unicode="А"/><glyph d="M625 1014q186 -6 321.5 -26t240 -57.5t167.5 -97t94.5 -142t31.5 -194.5q0 -240 -174 -368.5t-466 -128.5h-717v1434h1111v-308h-609v-112zM809 328q74 0 121.5 45.5t47.5 123.5q0 70 -30 107.5t-105.5 57t-217.5 24.5v-358h184z" glyph-name="afii10018" horiz-adv-x="1530" unicode="Б"/><glyph d="M123 1434h883q194 0 312.5 -95.5t118.5 -271.5q0 -88 -39.5 -173t-101.5 -116q104 -39 156 -130.5t52 -226.5q0 -106 -42 -188t-116.5 -132.5t-171.5 -75.5t-212 -25h-839v1434zM625 1121v-247h188q77 0 115.5 28t38.5 93q0 74 -35 100t-119 26h-188zM840 302 q83 -1 122 33.5t40 106.5q1 68 -38.5 99.5t-120.5 31.5h-218v-267z" glyph-name="afii10019" horiz-adv-x="1565" unicode="В"/><glyph d="M988 1434v-349h-363v-1085h-502v1434h865z" glyph-name="afii10020" horiz-adv-x="998" unicode="Г"/><glyph d="M1607 348h153v-614h-409v266h-815v-266h-410v274q-1 1 -3 1l3 62v277h14v8q127 -4 174.5 65t47.5 239v774h1245v-1086zM864 1086v-585q0 -82 -21 -153h262v738h-241z" glyph-name="afii10021" horiz-adv-x="1883" unicode="Д"/><glyph d="M625 348h686v-348h-1188v1434h1188v-349h-686v-194h594v-348h-594v-195z" glyph-name="afii10022" horiz-adv-x="1433" unicode="Е"/><glyph d="M2327 1434l-415 -686l415 -748h-547l-366 658v-658h-502v658l-365 -658h-547l415 748l-415 686h547l365 -606v606h502v-606l366 606h547z" glyph-name="afii10024" horiz-adv-x="2326" unicode="Ж"/><glyph d="M748.5 289q97.5 0 141 38.5t43.5 97.5t-43.5 97.5t-140.5 38.5h-228l-3 308h231q88 0 127.5 38.5t39.5 98t-39.5 98t-128 38.5t-128 -38.5t-39.5 -97.5l-441 20q0 106 49.5 188.5t134.5 133t192.5 76t232 25.5t232.5 -25.5t192.5 -76t134 -132.5t49.5 -189 q1 -184 -138 -295q217 -117 217 -327q1 -110 -52.5 -192.5t-148.5 -131.5t-217.5 -73.5t-269 -24.5t-268.5 24.5t-217 73.5t-148.5 132t-53.5 192l503 21q0 -59 43.5 -97.5t141 -38.5z" glyph-name="afii10025" horiz-adv-x="1497" unicode="З"/><glyph d="M625 1434v-675l460 675h502v-1434h-502v694l-460 -694h-502v1434h502z" glyph-name="afii10026" horiz-adv-x="1710" unicode="И"/><glyph d="M1240 1843q-33 -145 -134 -226t-251 -81q-151 0 -252 81t-134 226h266q20 -97 120 -97q48 0 79 26.5t40 70.5h266zM625 1434v-675l460 675h502v-1434h-502v694l-460 -694h-502v1434h502z" glyph-name="afii10027" horiz-adv-x="1710" unicode="Й"/><glyph d="M1537 1434l-415 -686l415 -748h-547l-365 658v-658h-502v1434h502v-606l365 606h547z" glyph-name="afii10028" horiz-adv-x="1537" unicode="К"/><glyph d="M1525 1434v-1425h-502v1077h-241v-585q0 -93 -28.5 -174t-79 -140.5t-120.5 -104.5t-152.5 -66t-174 -25t-186.5 18l17 347q127 -4 175 65t48 239v774h1244z" glyph-name="afii10029" horiz-adv-x="1647" unicode="Л"/><glyph d="M1319 1434h694v-1434h-502v797l-218 -675h-450l-218 675v-797h-502v1434h694l251 -750z" glyph-name="afii10030" horiz-adv-x="2136" unicode="М"/><glyph d="M1065 1434h502v-1434h-502v543h-440v-543h-502v1434h502v-543h440v543z" glyph-name="afii10031" horiz-adv-x="1689" unicode="Н"/><glyph d="M1670 717q1 -179 -66.5 -323t-181.5 -232.5t-256.5 -135t-300.5 -46.5q-125 0 -241 28.5t-219 88.5t-179 146t-120.5 207.5t-44.5 266.5q0 140 43.5 261t119.5 207t178 147.5t219.5 91.5t243.5 30t244 -30t220 -91.5t178 -147.5t119.5 -207t43.5 -261zM865 328 q141 0 222 106.5t81 282.5q0 175 -83.5 282t-219.5 107q-135 0 -218.5 -107t-83.5 -282q0 -176 81 -282.5t221 -106.5z" glyph-name="afii10032" horiz-adv-x="1731" unicode="О"/><glyph d="M1516 1434v-1434h-502v1085h-389v-1085h-502v1434h1393z" glyph-name="afii10033" horiz-adv-x="1638" unicode="П"/><glyph d="M840 1434q292 0 466 -128.5t174 -368.5q0 -113 -31.5 -195.5t-94.5 -141.5t-167.5 -96.5t-240 -57.5t-321.5 -26v-420h-502v1434h717zM978 937q0 78 -47.5 123.5t-121.5 45.5h-184v-358q142 5 217.5 24.5t105.5 57t30 107.5z" glyph-name="afii10034" horiz-adv-x="1541" unicode="Р"/><glyph d="M1249 1057q-210 72 -384 49q-138 -12 -220 -114.5t-82 -274.5t82 -274.5t220 -114.5q174 -23 384 49v-350q-179 -47 -382 -47q-127 0 -244.5 30t-219.5 91.5t-178.5 148t-120 207t-43.5 260.5t43.5 260.5t120 207t178.5 148t219.5 91.5t244.5 30q203 0 382 -47v-350z" glyph-name="afii10035" unicode="С"/><glyph d="M1239 1434v-349h-363v-1085h-502v1085h-364v349h1229z" glyph-name="afii10036" horiz-adv-x="1249" unicode="Т"/><glyph d="M991 1434h536l-483 -1051q-226 -488 -889 -424l-23 286q152 -29 231.5 4t87.5 134l-441 1051h539l205 -641z" glyph-name="afii10037" horiz-adv-x="1537" unicode="У"/><glyph d="M1751 718q0 -142 -56.5 -258t-156.5 -195.5t-236 -126.5t-298 -58v-80h-205v80q-339 23 -543.5 190t-204.5 448q0 187 95.5 327t263 217t389.5 93v79h205v-79q218 -15 384 -91t264.5 -217t98.5 -329zM553 718q0 -118 66.5 -189.5t179.5 -94.5v566q-113 -23 -179.5 -94 t-66.5 -188zM1004 435q112 24 178.5 97t66.5 185.5t-67 185.5t-178 96v-564z" glyph-name="afii10038" horiz-adv-x="1802" unicode="Ф"/><glyph d="M1603 1434l-446 -700l488 -734h-553l-277 418l-262 -418h-553l489 734l-444 700h545l239 -378l227 378h547z" glyph-name="afii10039" horiz-adv-x="1644" unicode="Х"/><glyph d="M1516 348h153v-512h-348v164h-1198v1434h502v-1086h389v1086h502v-1086z" glyph-name="afii10040" horiz-adv-x="1720" unicode="Ц"/><glyph d="M911 1434h502v-1434h-502v511q-147 -163 -415 -163q-115 0 -188.5 23t-114 77t-55.5 127t-15 188v671h502v-405q0 -121 18.5 -170.5t80.5 -49.5q48 0 98 27t89 76v522z" glyph-name="afii10041" horiz-adv-x="1536" unicode="Ч"/><glyph d="M1905 1434h501v-1434h-2283v1434h502v-1086h389v1086h502v-1086h389v1086z" glyph-name="afii10042" horiz-adv-x="2529" unicode="Ш"/><glyph d="M2406 348h123v-512h-348v164h-2058v1434h502v-1086h389v1086h502v-1086h389v1086h501v-1086z" glyph-name="afii10043" horiz-adv-x="2580" unicode="Щ"/><glyph d="M727 1014q186 -6 322 -26t240.5 -57.5t167.5 -97t94 -142t31 -194.5q0 -240 -174 -368.5t-466 -128.5h-717v1085h-225v349h727v-420zM911 328q74 0 121.5 45.5t47.5 123.5q0 70 -30 107.5t-105.5 57t-217.5 24.5v-358h184z" glyph-name="afii10044" horiz-adv-x="1633" unicode="Ъ"/><glyph d="M840 0h-717v1434h502v-420q186 -6 321.5 -26t240 -57.5t167.5 -97t94.5 -142t31.5 -194.5q0 -240 -174 -368.5t-466 -128.5zM2104 0h-501v1434h501v-1434zM625 686v-358h184q74 0 121.5 45.5t47.5 123.5q0 70 -30 107.5t-105.5 57t-217.5 24.5z" glyph-name="afii10045" horiz-adv-x="2227" unicode="Ы"/><glyph d="M840 0h-717v1434h502v-420q186 -6 321.5 -26t240 -57.5t167.5 -97t94.5 -142t31.5 -194.5q0 -240 -174 -368.5t-466 -128.5zM625 686v-358h184q74 0 121.5 45.5t47.5 123.5q0 70 -30 107.5t-105.5 57t-217.5 24.5z" glyph-name="afii10046" horiz-adv-x="1541" unicode="Ь"/><glyph d="M588 1454q127 0 244.5 -30t219.5 -91.5t178.5 -148t120 -207t43.5 -260.5t-43.5 -260.5t-120 -207t-178.5 -148t-219.5 -91.5t-244.5 -30q-203 0 -382 47v350q210 -72 384 -49q103 9 177 70t104 165h-542v307h542q-31 104 -104.5 165.5t-176.5 70.5q-174 23 -384 -49v350 q179 47 382 47z" glyph-name="afii10047" horiz-adv-x="1455" unicode="Э"/><glyph d="M2487 717q1 -179 -66.5 -323t-181.5 -232.5t-256.5 -135t-300.5 -46.5q-109 0 -212 22t-196.5 67.5t-169 111.5t-130 158.5t-78.5 203.5h-271v-543h-502v1434h502v-543h272q30 134 105.5 242.5t181.5 177.5t233.5 106t264.5 37q126 0 244 -30t220 -91.5t178 -147.5 t119.5 -207t43.5 -261zM1682 328q141 0 222.5 106.5t81.5 282.5q0 175 -83.5 282t-220.5 107q-135 0 -218.5 -107t-83.5 -282q0 -176 81 -282.5t221 -106.5z" glyph-name="afii10048" horiz-adv-x="2548" unicode="Ю"/><glyph d="M794 1434h716v-1434h-501v420q-92 3 -189 11l-257 -431h-502l318 532q-117 59 -171 157.5t-54 247.5q0 240 174 368.5t466 128.5zM1009 748v358h-185q-74 0 -121.5 -45.5t-47.5 -123.5q0 -70 30.5 -107.5t106 -57t217.5 -24.5z" glyph-name="afii10049" horiz-adv-x="1633" unicode="Я"/><glyph d="M633 1096q153 0 269 -33.5t184.5 -91t103 -129t34.5 -154.5v-689h-441l-20 98q-88 -68 -185.5 -96.5t-226.5 -20.5q-131 8 -208 85t-89 173q-9 80 8 149.5t64.5 132.5t131.5 101t209 55t296 -5v26q0 40 -55 72.5t-129 39.5q-167 15 -405 -78v280q213 85 459 85zM763 314 v154q-139 31 -220 -18t-68 -127q7 -39 41 -58t83 -14q89 8 164 63z" glyph-name="afii10065" horiz-adv-x="1305" unicode="а"/><glyph d="M1333 485q1 -128 -54.5 -227.5t-149 -158t-204.5 -88t-233 -29.5q-96 0 -186 17.5t-173.5 57t-145.5 97t-99 143t-37 188.5q0 265 44 452.5t132.5 301t212 164.5t291.5 51q251 0 446 51l48 -304q-132 -33 -237 -42t-257 -9q-73 0 -117 -42.5t-66 -128.5q74 11 144 11 q96 0 188 -18.5t174.5 -59.5t144.5 -98.5t98 -142.5t36 -186zM692 250q94 0 137 67t43 168q0 48 -9 88.5t-29 75t-56.5 54t-85.5 19.5t-85.5 -19.5t-56.5 -54t-29 -74.5t-9 -89q0 -101 43 -168t137 -67z" glyph-name="afii10066" horiz-adv-x="1384" unicode="б"/><glyph d="M82 1075h811q194 0 312.5 -71t118.5 -203q0 -67 -39.5 -130.5t-100.5 -86.5q104 -30 156 -98.5t52 -170.5q0 -105 -74.5 -177.5t-193.5 -105t-275 -32.5h-767v1075zM543 841v-185h157q77 0 115.5 20.5t38.5 69.5q0 55 -35 75t-119 20h-157zM727 226q162 -3 163 106 q1 50 -39 74t-121 24h-187v-201z" glyph-name="afii10067" horiz-adv-x="1442" unicode="в"/><glyph d="M906 1075v-307h-363v-768h-461v1075h824z" glyph-name="afii10068" horiz-adv-x="926" unicode="г"/><glyph d="M1413 307h87v-507h-461v200h-496v-200h-461v507h22q99 3 137 64.5t38 206.5v497h1134v-768zM722 307h230v461h-213v-333q0 -67 -17 -128z" glyph-name="afii10069" horiz-adv-x="1582" unicode="д"/><glyph d="M672 1096q117 0 213 -24.5t163.5 -69t116 -106.5t69.5 -138t24 -163t-22 -180h-720q37 -78 128 -110t237 -35q153 -3 287 49v-294q-153 -45 -419 -45q-143 0 -267.5 33.5t-221.5 100t-153 175t-56 249.5q0 112 34.5 205.5t93.5 157.5t138 109t169 65.5t186 20.5zM858 671 q14 63 -32.5 107.5t-123.5 40.5q-141 -7 -190 -148h346z" glyph-name="afii10070" horiz-adv-x="1309" unicode="е"/><glyph d="M2064 1075l-331 -514l331 -561h-489l-292 494v-494h-461v496l-293 -496h-488l332 561l-332 514h488l293 -453v453h461v-452l292 452h489z" glyph-name="afii10072" horiz-adv-x="2105" unicode="ж"/><glyph d="M626 217q72 0 104 29t32 73q0 45 -32.5 74.5t-103.5 29.5h-167l-2 231h169q66 0 95 29.5t29 73.5q0 45 -29.5 73.5t-94.5 28.5t-94 -28.5t-29 -73.5l-393 15q0 160 138 239.5t378 79.5q241 0 379 -79.5t138 -239.5q1 -138 -102 -221q160 -90 160 -247 q1 -163 -150.5 -240.5t-425 -77.5t-424 77.5t-150.5 240.5l439 15q0 -42 32.5 -72t103.5 -30z" glyph-name="afii10073" horiz-adv-x="1252" unicode="з"/><glyph d="M543 1075v-465l366 465h440v-1075h-460l-1 480l-366 -480h-440v1075h461z" glyph-name="afii10074" horiz-adv-x="1430" unicode="и"/><glyph d="M1101 1485q-33 -145 -134.5 -226t-250.5 -81q-151 0 -252.5 80.5t-133.5 226.5h266q20 -97 120 -97q48 0 78.5 26.5t40.5 70.5h266zM543 1075v-465l366 465h440v-1075h-460l-1 480l-366 -480h-440v1075h461z" glyph-name="afii10075" horiz-adv-x="1430" unicode="й"/><glyph d="M1414 1075l-415 -514l415 -561h-506l-365 495v-495h-461v1075h461v-453l365 453h506z" glyph-name="afii10076" horiz-adv-x="1455" unicode="к"/><glyph d="M1382 1075v-1075h-460v768h-213v-333q0 -98 -36 -181t-98.5 -138.5t-146.5 -91t-179 -39.5t-198 15v307q114 -3 155.5 58t41.5 213v497h1134z" glyph-name="afii10077" horiz-adv-x="1464" unicode="л"/><glyph d="M1114 1075h656v-1075h-460v559l-164 -468h-440l-163 468v-559h-461v1075h656l188 -562z" glyph-name="afii10078" horiz-adv-x="1852" unicode="м"/><glyph d="M881 1075h460v-1075h-460v384h-338v-384h-461v1075h461v-384h338v384z" glyph-name="afii10079" horiz-adv-x="1423" unicode="н"/><glyph d="M1333 538q1 -115 -35.5 -210t-98.5 -158.5t-145.5 -107.5t-174.5 -63t-187 -19t-186 19t-173.5 63t-145.5 107.5t-99 158.5t-37 210q0 112 36.5 205.5t98.5 157.5t144.5 109t174 65.5t187.5 20.5t188 -20.5t174.5 -65.5t144.5 -109t98 -157.5t36 -205.5zM692.5 276 q64.5 0 106.5 39t57.5 95t15.5 128q0 113 -43 187t-137 74t-137 -74.5t-43 -186.5q0 -72 16 -128t58 -95t106.5 -39z" glyph-name="afii10080" horiz-adv-x="1384" unicode="о"/><glyph d="M1290 1075v-1075h-461v768h-286v-768h-461v1075h1208z" glyph-name="afii10081" unicode="п"/><glyph d="M1364 538q0 -141 -41 -249.5t-115 -175t-173 -100t-220 -33.5q-80 0 -155 21t-117 59v-521h-461v1536h370l20 -90q61 60 155.5 85.5t187.5 25.5q120 0 218.5 -32.5t173.5 -98t116.5 -174.5t40.5 -253zM723 799q-105 0 -179 -90v-383q77 -59 179 -60q49 0 85.5 22 t56.5 60.5t29 85.5t9 104q0 72 -16 127.5t-57.5 94.5t-106.5 39z" glyph-name="afii10082" horiz-adv-x="1415" unicode="р"/><glyph d="M1058 756q-66 27 -148.5 39t-163.5 4q-114 -12 -174 -84.5t-60 -177t60.5 -176.5t173.5 -85q81 -8 163.5 4.5t148.5 38.5v-294q-153 -45 -366 -45q-96 0 -187.5 20t-174 65.5t-144.5 109.5t-98.5 157.5t-36.5 205t36.5 205.5t98.5 158t144.5 109t174 65.5t187.5 20.5 q213 0 366 -45v-295z" glyph-name="afii10083" horiz-adv-x="1108" unicode="с"/><glyph d="M1198 1075v-307h-363v-768h-461v768h-364v307h1188z" glyph-name="afii10084" horiz-adv-x="1208" unicode="т"/><glyph d="M933 1075h486l-438 -1050q-205 -488 -809 -424l-20 285q138 -29 210 4t79 135l-400 1050h489l187 -641z" glyph-name="afii10085" horiz-adv-x="1460" unicode="у"/><glyph d="M1461 538q1 -129 -49 -232t-136.5 -168t-191.5 -103.5t-225 -49.5v-164h-205v164q-95 9 -181.5 34t-164.5 70.5t-134 107.5t-89.5 149.5t-33.5 191.5q0 101 33 187t89.5 148.5t134 109t164.5 72.5t182 36v163h205v-163q121 -12 226.5 -52t191 -106t135 -167.5 t49.5 -227.5zM558 538q0 -173 96 -235v469q-96 -60 -96 -234zM859 304q95 59 95 233.5t-95 234.5v-468z" glyph-name="afii10086" horiz-adv-x="1512" unicode="ф"/><glyph d="M1321 1075l-323 -507l323 -568h-475l-165 291l-165 -291h-475l323 568l-323 507h475l165 -259l165 259h475z" glyph-name="afii10087" horiz-adv-x="1361" unicode="х"/><glyph d="M1331 307h164v-471h-461v164h-911v1075h461v-768h286v768h461v-768z" glyph-name="afii10088" horiz-adv-x="1546" unicode="ц"/><glyph d="M772 1075h461v-1075h-461v350q-118 -122 -333 -122q-179 0 -268 75t-89 236v536h461v-291q0 -90 14 -127t66 -37q84 0 149 77v378z" glyph-name="afii10089" horiz-adv-x="1314" unicode="ч"/><glyph d="M1475 1075h460v-1075h-1853v1075h461v-768h235v768h461v-768h236v768z" glyph-name="afii10090" horiz-adv-x="2017" unicode="ш"/><glyph d="M1935 307h164v-471h-461v164h-1556v1075h461v-768h235v768h461v-768h236v768h460v-768z" glyph-name="afii10091" horiz-adv-x="2150" unicode="щ"/><glyph d="M696 761q408 -11 572 -95.5t164 -292.5q0 -182 -147 -277.5t-417 -95.5h-632v769h-185v307h644v-1h1v-314zM844 246q59 0 97 34t38 93q0 77 -58 106.5t-225 35.5v-269h148z" glyph-name="afii10092" horiz-adv-x="1482" unicode="ъ"/><glyph d="M715 0h-633v1075h461v-314q408 -11 571.5 -95.5t163.5 -292.5q0 -182 -147 -277.5t-416 -95.5zM1411 1075h461v-1075h-461v1075zM543 515v-269h147q59 0 97 34t38 93q0 77 -57.5 106.5t-224.5 35.5z" glyph-name="afii10093" horiz-adv-x="1953" unicode="ы"/><glyph d="M715 0h-633v1075h461v-314q408 -11 571.5 -95.5t163.5 -292.5q0 -182 -147 -277.5t-416 -95.5zM543 515v-269h147q59 0 97 34t38 93q0 77 -57.5 106.5t-224.5 35.5z" glyph-name="afii10094" horiz-adv-x="1329" unicode="ь"/><glyph d="M488 1096q96 0 188 -20.5t174.5 -65.5t144.5 -109t98 -158t36 -205.5t-36 -205t-98 -157.5t-144.5 -109.5t-174 -65.5t-188.5 -20q-213 0 -365 45v294q66 -27 148 -39t163 -4q129 13 192 108h-381v307h381q-62 94 -192 108q-81 8 -163.5 -4.5t-147.5 -38.5v295 q152 45 365 45z" glyph-name="afii10095" horiz-adv-x="1180" unicode="э"/><glyph d="M2011 538q1 -115 -36 -210t-98.5 -158.5t-145 -107.5t-174.5 -63t-187 -19q-136 0 -257.5 38t-220.5 127t-138 219h-211v-364h-461v1075h461v-363h212q39 126 137 215t220 129t258 40q96 0 188 -20.5t174.5 -65.5t144 -109t98 -157.5t36.5 -205.5zM1370.5 276 q64.5 0 106.5 39t57.5 95t15.5 128q0 113 -43 187t-137 74t-137 -74.5t-43 -186.5q0 -72 16 -128t58 -95t106.5 -39z" glyph-name="afii10096" horiz-adv-x="2062" unicode="ю"/><glyph d="M727 1075h633v-1075h-461v315q-60 1 -150 8l-206 -323h-461l256 402q-95 44 -138.5 117t-43.5 183q0 182 148.5 277.5t422.5 95.5zM899 561v268h-147q-59 0 -97.5 -34t-38.5 -93q0 -77 58 -106.5t225 -34.5z" glyph-name="afii10097" horiz-adv-x="1441" unicode="я"/><glyph d="M629 1476v-298h-399v298h399zM1113 1476v-298h-397v298h397zM672 1096q117 0 213 -24.5t163.5 -69t116 -106.5t69.5 -138t24 -163t-22 -180h-720q37 -78 128 -110t237 -35q153 -3 287 49v-294q-153 -45 -419 -45q-143 0 -267.5 33.5t-221.5 100t-153 175t-56 249.5 q0 112 34.5 205.5t93.5 157.5t138 109t169 65.5t186 20.5zM858 671q14 63 -32.5 107.5t-123.5 40.5q-141 -7 -190 -148h346z" glyph-name="afii10071" horiz-adv-x="1309" unicode="ё"/><glyph d="M929 1486l-266 -307h-338l181 307h423zM906 1075v-307h-363v-768h-461v1075h824z" glyph-name="afii10100" horiz-adv-x="926" unicode="ѓ"/><glyph d="M97 1434h512v-281h-512v281zM584 1075v-1111q0 -70 -18 -123t-51.5 -87.5t-73.5 -57.5t-93 -33.5t-100.5 -14.5t-105.5 -3q-151 2 -237 55l11 178q109 -25 164 2q27 13 35 39t8 80v1076h461z" glyph-name="afii10105" horiz-adv-x="706" unicode="ј"/><glyph d="M1143 1486l-266 -307h-338l181 307h423zM1414 1075l-415 -514l415 -561h-506l-365 495v-495h-461v1075h461v-453l365 453h506z" glyph-name="afii10109" horiz-adv-x="1455" unicode="ќ"/><glyph d="M123 1434h883q194 0 312.5 -95.5t118.5 -271.5q0 -88 -39.5 -173t-101.5 -116q104 -39 156 -130.5t52 -226.5q0 -106 -42 -188t-116.5 -132.5t-171.5 -75.5t-212 -25h-839v1434zM625 1121v-247h188q77 0 115.5 28t38.5 93q0 74 -35 100t-119 26h-188zM840 302 q83 -1 122 33.5t40 106.5q1 68 -38.5 99.5t-120.5 31.5h-218v-267zM579 -102h398v-298h-398v298z" glyph-name="uni1E04" horiz-adv-x="1565" unicode="Ḅ"/><glyph d="M1364 538q1 -144 -40.5 -253.5t-116.5 -175t-173.5 -97.5t-218.5 -32q-93 0 -187 25t-156 85l-20 -90h-370v1536h461v-521q42 39 117 60t155 21q121 0 220 -34t173 -100.5t115 -174.5t41 -249zM723 276q65 0 106.5 39t57.5 95t16 128q0 56 -9 103t-29 85.5t-56.5 60.5 t-85.5 22q-102 0 -179 -59v-383q74 -91 179 -91zM487 -102h399v-298h-399v298z" glyph-name="uni1E05" horiz-adv-x="1415" unicode="ḅ"/><glyph d="M1583 717q1 -180 -57 -320t-160 -225.5t-235.5 -128.5t-290.5 -43h-717v1434h717q159 0 292.5 -45.5t234.5 -132.5t158.5 -225t57.5 -314zM788 348q96 0 164.5 53.5t98.5 134.5t30 181q0 98 -32 180.5t-100 135t-161 52.5h-163v-737h163zM607 -102h399v-298h-399v298z " glyph-name="uni1E0C" horiz-adv-x="1644" unicode="Ḍ"/><glyph d="M51 538q0 141 41 249t115.5 174.5t173 100.5t219.5 34q80 0 155 -21t117 -60v521h461v-1536h-369l-21 90q-61 -60 -155.5 -85t-187.5 -25q-120 0 -218 32t-173.5 97.5t-117 175t-40.5 253.5zM692 276q105 0 179 91v383q-77 59 -179 59q-49 0 -85.5 -22t-56.5 -60.5 t-29 -85.5t-9 -103q0 -72 16 -128t57.5 -95t106.5 -39zM528 -102h399v-298h-399v298z" glyph-name="uni1E0D" horiz-adv-x="1415" unicode="ḍ"/><glyph d="M1065 1434h502v-1434h-502v543h-440v-543h-502v1434h502v-543h440v543zM645 -102h398v-298h-398v298z" glyph-name="uni1E24" horiz-adv-x="1689" unicode="Ḥ"/><glyph d="M543 0h-461v1536h461v-603q147 163 415 163q100 0 165 -23t102 -76.5t51 -127.5t14 -188v-681h-461v558q0 121 -18 170.5t-81 49.5q-48 0 -98 -27t-89 -76v-675zM451 -102h398v-298h-398v298z" glyph-name="uni1E25" unicode="ḥ"/><glyph d="M625 1434v-1086h635v-348h-1137v1434h502zM502 -102h398v-298h-398v298z" glyph-name="uni1E36" horiz-adv-x="1310" unicode="Ḷ"/><glyph d="M82 1536h461v-1536h-461v1536zM113 -102h398v-298h-398v298z" glyph-name="uni1E37" horiz-adv-x="624" unicode="ḷ"/><glyph d="M1503 1844l-266 -307h-338l181 307h423zM1319 1434h694v-1434h-502v797l-218 -675h-450l-218 675v-797h-502v1434h694l251 -750z" glyph-name="uni1E3E" horiz-adv-x="2136" unicode="Ḿ"/><glyph d="M1459 1486l-266 -307h-338l181 307h423zM1660 1096q201 0 289.5 -125t88.5 -413v-558h-461v558q0 112 -27 166t-93 54q-80 0 -123.5 -53.5t-43.5 -145.5v-21v-558h-461v558q0 112 -27 166t-92 54q-80 0 -123.5 -53.5t-43.5 -145.5v-579h-461v1075h461v-142 q80 89 161.5 126t207.5 37q132 0 213.5 -52t121.5 -163q146 215 413 215z" glyph-name="uni1E3F" horiz-adv-x="2119" unicode="ḿ"/><glyph d="M655 1834h399v-298h-399v298zM1085 1434h502v-1434h-502l-460 694v-694h-502v1434h502l460 -675v675z" glyph-name="uni1E44" horiz-adv-x="1710" unicode="Ṅ"/><glyph d="M486 1476h399v-298h-399v298zM543 0h-461v1075h461v-142q147 163 415 163q100 0 165 -23t102 -76.5t51 -127.5t14 -188v-681h-461v558q0 121 -18 170.5t-81 49.5q-48 0 -98 -27t-89 -76v-675z" glyph-name="uni1E45" unicode="ṅ"/><glyph d="M1085 1434h502v-1434h-502l-460 694v-694h-502v1434h502l460 -675v675zM655 -102h399v-298h-399v298z" glyph-name="uni1E46" horiz-adv-x="1710" unicode="Ṇ"/><glyph d="M543 0h-461v1075h461v-142q147 163 415 163q100 0 165 -23t102 -76.5t51 -127.5t14 -188v-681h-461v558q0 121 -18 170.5t-81 49.5q-48 0 -98 -27t-89 -76v-675zM486 -102h399v-298h-399v298z" glyph-name="uni1E47" unicode="ṇ"/><glyph d="M88 465q263 -137 476 -137q216 0 216 98q0 38 -50.5 66t-115 42.5t-148.5 35.5t-128 41q-144 67 -214 172t-62 270q9 180 178.5 291t461.5 111q252 0 445 -97v-377q-124 71 -225.5 99.5t-219.5 26.5q-32 -1 -62.5 -7.5t-57 -25t-30.5 -46.5q-4 -31 15.5 -55t60 -39.5 t81.5 -26.5t98 -25t90 -25q78 -26 142.5 -65.5t117.5 -96.5t81 -137.5t23 -174.5q-5 -93 -48 -165.5t-108.5 -116.5t-157 -72t-184 -38.5t-199.5 -10.5q-119 0 -248.5 28t-227.5 79v378zM364 -102h398v-298h-398v298z" glyph-name="uni1E62" horiz-adv-x="1323" unicode="Ṣ"/><glyph d="M100 342q144 -80 339 -98q70 -7 119 10.5t63 54.5q5 15 -4 27.5t-38.5 24.5t-48.5 17.5t-68 18.5q-33 9 -49 14q-196 51 -280 136.5t-82 224.5q1 83 45.5 146t122 101.5t176 57.5t215.5 19q112 0 219.5 -19.5t175.5 -55.5v-286q-156 86 -348 96q-54 0 -95 -14t-45 -45 q-1 -8 2 -15t11 -14.5t17 -13t26 -12.5t31 -12.5t39 -13t44 -13.5t49.5 -15.5t54.5 -16.5q76 -24 125.5 -48t90 -59.5t58.5 -86t17 -117.5q-2 -92 -48 -162.5t-125 -112t-175 -61t-208 -19.5q-118 0 -239.5 21t-186.5 57v284zM377 -102h398v-298h-398v298z" glyph-name="uni1E63" horiz-adv-x="1133" unicode="ṣ"/><glyph d="M1239 1434v-349h-363v-1085h-502v1085h-364v349h1229zM425 -400v298h398v-298h-398z" glyph-name="uni1E6C" horiz-adv-x="1249" unicode="Ṭ"/><glyph d="M931 0h-475q-101 0 -172 70.5t-71 171.5v526h-162v307h162v205h461v-205h257v-307h-257v-389q0 -44 24.5 -68t68.5 -24h164v-287zM292 -102h398v-298h-398v298z" glyph-name="uni1E6D" horiz-adv-x="1012" unicode="ṭ"/><glyph d="M714 1844h423l181 -307h-338zM1764 1434h524l-382 -1434h-536l-221 859l-221 -859h-536l-382 1434h524l148 -795l177 795h580l177 -795z" glyph-name="Wgrave" horiz-adv-x="2297" unicode="Ẁ"/><glyph d="M628 1486h423l181 -307h-338zM1598 1075h486l-316 -1075h-540l-167 634l-164 -634h-541l-315 1075h485l159 -607l137 607h481l157 -607z" glyph-name="wgrave" horiz-adv-x="2124" unicode="ẁ"/><glyph d="M1584 1844l-266 -307h-338l181 307h423zM1764 1434h524l-382 -1434h-536l-221 859l-221 -859h-536l-382 1434h524l148 -795l177 795h580l177 -795z" glyph-name="Wacute" horiz-adv-x="2297" unicode="Ẃ"/><glyph d="M1498 1486l-266 -307h-338l181 307h423zM1598 1075h486l-316 -1075h-540l-167 634l-164 -634h-541l-315 1075h485l159 -607l137 607h481l157 -607z" glyph-name="wacute" horiz-adv-x="2124" unicode="ẃ"/><glyph d="M708 1834h398v-298h-398v298zM1193 1834h397v-298h-397v298zM1764 1434h524l-382 -1434h-536l-221 859l-221 -859h-536l-382 1434h524l148 -795l177 795h580l177 -795z" glyph-name="Wdieresis" horiz-adv-x="2297" unicode="Ẅ"/><glyph d="M622 1476h398v-298h-398v298zM1107 1476h397v-298h-397v298zM1598 1075h486l-316 -1075h-540l-167 634l-164 -634h-541l-315 1075h485l159 -607l137 607h481l157 -607z" glyph-name="wdieresis" horiz-adv-x="2124" unicode="ẅ"/><glyph d="M1352 1434v-349l-604 -737h604v-348h-1229v348l594 737h-594v349h1229zM538 -400v298h398v-298h-398z" glyph-name="uni1E92" horiz-adv-x="1474" unicode="Ẓ"/><glyph d="M1124 768l-504 -461h504l-1 -307h-1072v307l504 461h-504v307h1072zM388 -400v298h398v-298h-398z" glyph-name="uni1E93" horiz-adv-x="1175" unicode="ẓ"/><glyph d="M1726 0h-528l-73 233h-524l-73 -233h-528l515 1434h696zM710 582h307l-154 493zM664 -400v298h398v-298h-398z" glyph-name="uni1EA0" horiz-adv-x="1726" unicode="Ạ"/><glyph d="M633 1096q153 0 269 -33.5t184.5 -91t103 -129t34.5 -154.5v-689h-441l-20 98q-88 -68 -185.5 -96.5t-226.5 -20.5q-131 8 -208 85t-89 173q-9 80 8 149.5t64.5 132.5t131.5 101t209 55t296 -5v26q0 40 -55 72.5t-129 39.5q-167 15 -405 -78v280q213 85 459 85zM763 314 v154q-139 31 -220 -18t-68 -127q7 -39 41 -58t83 -14q89 8 164 63zM438 -102h399v-298h-399v298z" glyph-name="uni1EA1" horiz-adv-x="1305" unicode="ạ"/><glyph d="M625 348h686v-348h-1188v1434h1188v-349h-686v-194h594v-348h-594v-195zM517 -102h398v-298h-398v298z" glyph-name="uni1EB8" horiz-adv-x="1433" unicode="Ẹ"/><glyph d="M672 1096q117 0 213 -24.5t163.5 -69t116 -106.5t69.5 -138t24 -163t-22 -180h-720q37 -78 128 -110t237 -35q153 -3 287 49v-294q-153 -45 -419 -45q-143 0 -267.5 33.5t-221.5 100t-153 175t-56 249.5q0 112 34.5 205.5t93.5 157.5t138 109t169 65.5t186 20.5zM858 671 q14 63 -32.5 107.5t-123.5 40.5q-141 -7 -190 -148h346zM540 -400v298h398v-298h-398z" glyph-name="uni1EB9" horiz-adv-x="1309" unicode="ẹ"/><glyph d="M315 1536q0 151 67.5 223t166.5 72q63 0 160 -33t135 -33q54 0 57 66h217q0 -151 -67 -223t-166 -72q-62 0 -159 33t-136 33q-54 0 -58 -66h-217zM625 348h686v-348h-1188v1434h1188v-349h-686v-194h594v-348h-594v-195z" glyph-name="uni1EBC" horiz-adv-x="1433" unicode="Ẽ"/><glyph d="M545 1243q-54 0 -58 -65h-217q0 151 67 223t167 72q63 0 160 -33t135 -33q54 0 57 66h217q0 -151 -67 -223t-166 -72q-62 0 -159 32.5t-136 32.5zM672 1096q117 0 213 -24.5t163.5 -69t116 -106.5t69.5 -138t24 -163t-22 -180h-720q37 -78 128 -110t237 -35 q153 -3 287 49v-294q-153 -45 -419 -45q-143 0 -267.5 33.5t-221.5 100t-153 175t-56 249.5q0 112 34.5 205.5t93.5 157.5t138 109t169 65.5t186 20.5zM858 671q14 63 -32.5 107.5t-123.5 40.5q-141 -7 -190 -148h346z" glyph-name="uni1EBD" horiz-adv-x="1309" unicode="ẽ"/><glyph d="M625 0h-502v1434h502v-1434zM174 -102h398v-298h-398v298z" glyph-name="uni1ECA" horiz-adv-x="747" unicode="Ị"/><glyph d="M97 1434h512v-281h-512v281zM123 1075h461v-1075h-461v1075zM154 -102h398v-298h-398v298z" glyph-name="uni1ECB" horiz-adv-x="706" unicode="ị"/><glyph d="M1670 717q1 -179 -66.5 -323t-181.5 -232.5t-256.5 -135t-300.5 -46.5q-125 0 -241 28.5t-219 88.5t-179 146t-120.5 207.5t-44.5 266.5q0 140 43.5 261t119.5 207t178 147.5t219.5 91.5t243.5 30t244 -30t220 -91.5t178 -147.5t119.5 -207t43.5 -261zM865 328 q141 0 222 106.5t81 282.5q0 175 -83.5 282t-219.5 107q-135 0 -218.5 -107t-83.5 -282q0 -176 81 -282.5t221 -106.5zM667 -102h398v-298h-398v298z" glyph-name="uni1ECC" horiz-adv-x="1731" unicode="Ọ"/><glyph d="M1333 538q1 -115 -35.5 -210t-98.5 -158.5t-145.5 -107.5t-174.5 -63t-187 -19t-186 19t-173.5 63t-145.5 107.5t-99 158.5t-37 210q0 112 36.5 205.5t98.5 157.5t144.5 109t174 65.5t187.5 20.5t188 -20.5t174.5 -65.5t144.5 -109t98 -157.5t36 -205.5zM692.5 276 q64.5 0 106.5 39t57.5 95t15.5 128q0 113 -43 187t-137 74t-137 -74.5t-43 -186.5q0 -72 16 -128t58 -95t106.5 -39zM493 -102h398v-298h-398v298z" glyph-name="uni1ECD" horiz-adv-x="1384" unicode="ọ"/><glyph d="M1527 1434v-799q1 -182 -47 -310.5t-142.5 -203.5t-220 -108t-293.5 -33q-133 0 -238.5 20t-194 67.5t-146.5 122.5t-90 186.5t-32 258.5v799h502v-891q0 -93 53 -154t146 -61q94 0 147.5 61t53.5 154v891h502zM626 -102h398v-298h-398v298z" glyph-name="uni1EE4" horiz-adv-x="1649" unicode="Ụ"/><glyph d="M829 1075h461v-1075h-461v142q-147 -163 -415 -162q-100 0 -165 23t-101.5 76t-51 127.5t-14.5 187.5v681h461v-558q0 -121 18.5 -170.5t80.5 -49.5q48 0 98.5 27t88.5 76v675zM492 -102h398v-298h-398v298z" glyph-name="uni1EE5" unicode="ụ"/><glyph d="M326 1844h423l181 -307h-338zM984 1434h527l-499 -983v-451h-502v451l-500 983h531l220 -512z" glyph-name="Ygrave" horiz-adv-x="1521" unicode="Ỳ"/><glyph d="M295 1486h423l181 -307h-338zM933 1075h486l-438 -1050q-205 -488 -809 -424l-20 285q138 -29 210 4t79 135l-400 1050h489l187 -641z" glyph-name="ygrave" horiz-adv-x="1460" unicode="ỳ"/><glyph d="M984 1434h527l-499 -983v-451h-502v451l-500 983h531l220 -512zM561 -102h398v-298h-398v298z" glyph-name="uni1EF4" horiz-adv-x="1521" unicode="Ỵ"/><glyph d="M933 1075h486l-438 -1050q-205 -488 -809 -424l-20 285q138 -29 210 4t79 135l-400 1050h489l187 -641zM1119 -27h372v-301h-372v301z" glyph-name="uni1EF5" horiz-adv-x="1542" unicode="ỵ"/><glyph d="M359 1536q0 151 67.5 223t166.5 72q63 0 160 -33t135 -33q54 0 57 66h217q0 -151 -67 -223t-166 -72q-62 0 -159 33t-136 33q-54 0 -57 -66h-218zM984 1434h527l-499 -983v-451h-502v451l-500 983h531l220 -512z" glyph-name="uni1EF8" horiz-adv-x="1521" unicode="Ỹ"/><glyph d="M329 1178q0 151 67 223t166 72q63 0 160 -33t135 -33q54 0 57 66h218q0 -151 -67.5 -223t-166.5 -72q-62 0 -159 32.5t-136 32.5q-54 0 -57 -65h-217zM933 1075h486l-438 -1050q-205 -488 -809 -424l-20 285q138 -29 210 4t79 135l-400 1050h489l187 -641z" glyph-name="uni1EF9" horiz-adv-x="1460" unicode="ỹ"/><glyph d="M123 712h1024v-348h-1024v348z" glyph-name="endash" horiz-adv-x="1269" unicode="–"/><glyph d="M123 712h1433v-348h-1433v348z" glyph-name="emdash" horiz-adv-x="1679" unicode="—"/><glyph d="M584 882h-461l153 654h410z" glyph-name="quoteleft" horiz-adv-x="808" unicode="‘"/><glyph d="M225 1536h461l-154 -654h-409z" glyph-name="quoteright" horiz-adv-x="808" unicode="’"/><glyph d="M123 364h461l-154 -655h-410z" glyph-name="quotesinglbase" horiz-adv-x="706" unicode="‚"/><glyph d="M584 883h-461l153 654h410zM1204 883h-461l154 654h410z" glyph-name="quotedblleft" horiz-adv-x="1429" unicode="“"/><glyph d="M225 1536h461l-154 -654h-409zM846 1536h461l-154 -654h-410z" glyph-name="quotedblright" horiz-adv-x="1429" unicode="”"/><glyph d="M123 332h461l-154 -655h-410zM743 332h461l-153 -655h-410z" glyph-name="quotedblbase" horiz-adv-x="1327" unicode="„"/><glyph d="M973 1362v-307h-246v-389h-358v389h-246v307h246v174h358v-174h246z" glyph-name="dagger" horiz-adv-x="1095" unicode="†"/><glyph d="M973 1055h-246v-246h246v-307h-246v-174h-358v174h-246v307h246v246h-246v307h246v174h358v-174h246v-307z" glyph-name="daggerdbl" horiz-adv-x="1095" unicode="‡"/><glyph d="M123 845h717v-615h-717v615z" glyph-name="bullet" horiz-adv-x="962" unicode="•"/><glyph d="M123 383h512v-383h-512v383zM737 383h512v-383h-512v383zM1352 383h512v-383h-512v383z" glyph-name="ellipsis" horiz-adv-x="1986" unicode="…"/><glyph d="M820 1001q1 -216 -103.5 -329t-281.5 -113t-280.5 112.5t-103.5 329.5q0 213 103.5 328t280.5 115t281 -115t104 -328zM1243 1434h218l-766 -1434h-217zM435 762q33 0 54 19.5t31 56t14 74t4 89.5q0 240 -103 240q-101 0 -101 -240q0 -52 3.5 -89.5t13 -74t31 -56 t53.5 -19.5zM1874 430q1 -216 -103.5 -329t-281.5 -113t-280.5 112.5t-103.5 329.5q0 213 103.5 327.5t280.5 114.5t281 -114.5t104 -327.5zM2700 430q1 -216 -103.5 -329t-281.5 -113t-280.5 112.5t-103.5 329.5q0 213 103.5 327.5t280.5 114.5t281 -114.5t104 -327.5z M1489 190q33 0 54 19.5t31 56.5t13.5 74.5t3.5 89.5q0 240 -102 240q-101 0 -101 -240q0 -52 3.5 -89.5t13 -74.5t31 -56.5t53.5 -19.5zM2315 190q33 0 54 19.5t31 56.5t14 74.5t4 89.5q0 240 -103 240q-101 0 -101 -240q0 -52 3.5 -89.5t13.5 -74.5t31 -56.5t53 -19.5z" glyph-name="perthousand" horiz-adv-x="2751" unicode="‰"/><glyph d="M925 947l-338 -384l338 -384h-464l-338 384l338 384h464z" glyph-name="guilsinglleft" horiz-adv-x="1047" unicode="‹"/><glyph d="M123 947h464l338 -384l-338 -384h-464l338 384z" glyph-name="guilsinglright" horiz-adv-x="1047" unicode="›"/><glyph d="M1164 1007q6 -283 -287 -393q-22 -8 -63 -15.5t-92.5 -16t-69.5 -11.5v-192h-419l-11 198l-26 384h395l9 -89q53 23 81 58t26 71q-2 42 -56 63.5t-126 21.5q-110 3 -247 -31t-217 -84v391q106 37 212.5 53t256.5 19q182 4 321.5 -39.5t225 -143t87.5 -244.5zM187 0v281 h512v-281h-512z" glyph-name="uni203D" horiz-adv-x="1225" unicode="‽"/><glyph d="M765 1434h218l-766 -1434h-217z" glyph-name="fraction" horiz-adv-x="983" unicode="⁄"/><glyph d="M820 1206q1 -216 -103.5 -329t-281.5 -113t-280.5 112.5t-103.5 329.5q0 213 103.5 328t280.5 115t281 -115t104 -328zM435 967q33 0 54 19.5t31 56t14 74t4 89.5q0 240 -103 240q-101 0 -101 -240q0 -52 3.5 -89.5t13 -74t31 -56t53.5 -19.5z" glyph-name="uni2070" horiz-adv-x="871" unicode="⁰"/><glyph d="M854 1164v-209h-123v-177h-276v177h-404v209l362 474h318v-474h123zM306 1164h149v217z" glyph-name="uni2074" horiz-adv-x="905" unicode="⁴"/><glyph d="M132 1638h642v-208h-403l-9 -98q129 11 226 -13q111 -29 173.5 -102.5t61.5 -176.5q-2 -142 -106.5 -210t-273.5 -64q-124 3 -204.5 21t-187.5 68l109 189q46 -30 129.5 -50t150.5 -20q105 0 109 69q1 30 -40 57t-98.5 42t-110.5 15q-66 0 -142 -11l-48 60z" glyph-name="uni2075" horiz-adv-x="874" unicode="⁵"/><glyph d="M820 1058q0 -74 -33 -132t-89 -91t-123 -50t-140 -17q-57 0 -111.5 10t-104 33t-87 56t-59.5 82t-22 109q0 27 2.5 45.5t14 46.5t22.5 48.5t42 68t58.5 87.5t85 124t109.5 160h326l-216 -322q87 19 155 -2q79 -24 124.5 -94t45.5 -162zM435 946q55 0 82 35t27 77 q0 41 -27 75.5t-82 34.5q-54 0 -80.5 -34.5t-26.5 -75.5q0 -42 26 -77t81 -35z" glyph-name="uni2076" horiz-adv-x="871" unicode="⁶"/><glyph d="M51 1638h670v-208q-123 -155 -200 -310t-101 -342h-289q25 190 98 346.5t191 305.5h-369v208z" glyph-name="uni2077" horiz-adv-x="772" unicode="⁷"/><glyph d="M820 1022q0 -66 -30.5 -115.5t-84.5 -79t-122 -44.5t-147 -15q-80 0 -147.5 15t-121.5 44.5t-85 79t-31 115.5q0 127 128 196q-82 67 -82 177q0 84 50 142.5t124.5 85t164.5 26.5t164.5 -26.5t124 -85t49.5 -142.5q1 -110 -81 -177q127 -69 127 -196zM338 1382.5 q0 -35.5 23 -59t75 -23.5q51 0 75 23.5t24 59t-24 58.5t-75 23q-52 0 -75 -23t-23 -58.5zM436 952q56 0 82 23t26 59t-25.5 59t-82.5 23t-82.5 -23t-25.5 -59t25.5 -59t82.5 -23z" glyph-name="uni2078" horiz-adv-x="871" unicode="⁸"/><glyph d="M51 1359q0 74 33.5 131.5t89 91t123 50.5t139.5 17q57 0 111.5 -10.5t104 -33t87 -55.5t59.5 -82.5t22 -108.5q0 -27 -2.5 -46t-13.5 -46.5t-22.5 -48t-42 -68t-58.5 -87.5t-85 -124t-110 -161h-325l216 323q-87 -19 -156 2q-79 24 -124.5 94t-45.5 162zM436.5 1470 q-55.5 0 -82 -34.5t-26.5 -76.5q0 -41 26.5 -76t81.5 -35q54 0 81 35t27 76q0 42 -26 76.5t-81.5 34.5z" glyph-name="uni2079" horiz-adv-x="871" unicode="⁹"/><glyph d="M820 123q1 -216 -103.5 -329t-281.5 -113t-280.5 112.5t-103.5 329.5q0 213 103.5 327.5t280.5 114.5t281 -114.5t104 -327.5zM435 -117q33 0 54 19.5t31 56.5t14 74.5t4 89.5q0 240 -103 239q-101 0 -101 -239q0 -52 3.5 -89.5t13 -74.5t31 -56.5t53.5 -19.5z" glyph-name="uni2080" horiz-adv-x="871" unicode="₀"/><glyph d="M537 -98h208v-209h-694v209h209v417q-80 -59 -160 -82v233q85 16 158 83h279v-651z" glyph-name="uni2081" horiz-adv-x="796" unicode="₁"/><glyph d="M809 -98v-209h-758v209q95 53 167.5 98.5t139.5 95t103 95t36 81.5t-24 60t-64 25q-130 2 -248 -63l-93 180q94 47 174.5 69.5t177.5 22.5q175 0 273 -66.5t98 -174.5q0 -58 -20 -112.5t-47.5 -93.5t-76.5 -82.5t-86 -69.5t-97 -65h345z" glyph-name="uni2082" horiz-adv-x="860" unicode="₂"/><glyph d="M99 553h682v-209l-228 -146q56 -9 98 -26q176 -66 172 -235q-2 -130 -107 -195.5t-273 -60.5q-124 3 -204.5 20.5t-187.5 68.5l109 189q47 -30 130.5 -51t149.5 -20q43 0 75.5 13.5t33.5 38.5q2 37 -41.5 66t-117.5 29q-100 0 -141 -6l-52 184l270 131h-368v209z" glyph-name="uni2083" horiz-adv-x="874" unicode="₃"/><glyph d="M854 79v-209h-123v-177h-276v177h-404v209l362 474h318v-474h123zM306 79h149v217z" glyph-name="uni2084" horiz-adv-x="905" unicode="₄"/><glyph d="M132 553h642v-209h-403l-9 -97q129 11 226 -14q111 -29 173.5 -102.5t61.5 -175.5q-2 -142 -106.5 -210.5t-273.5 -63.5q-124 3 -204.5 20.5t-187.5 68.5l109 189q46 -30 129.5 -50.5t150.5 -20.5q105 0 109 70q1 30 -40 57t-98.5 42t-110.5 15q-66 0 -142 -12l-48 61z " glyph-name="uni2085" horiz-adv-x="874" unicode="₅"/><glyph d="M820 -15q0 -74 -33 -132t-89 -91t-123 -50t-140 -17q-57 0 -111.5 10t-104 32.5t-87 56t-59.5 82.5t-22 109q0 27 2.5 45.5t14 46t22.5 48t42 68.5t58.5 88t85 123.5t109.5 160.5h326l-216 -322q87 19 155 -2q79 -24 124.5 -94t45.5 -162zM435 -127q55 0 82 35t27 77 q0 41 -27 75.5t-82 34.5q-54 0 -80.5 -34.5t-26.5 -75.5q0 -42 26 -77t81 -35z" glyph-name="uni2086" horiz-adv-x="871" unicode="₆"/><glyph d="M51 553h670v-209q-123 -155 -200 -310t-101 -341h-289q25 190 98 346.5t191 304.5h-369v209z" glyph-name="uni2087" horiz-adv-x="772" unicode="₇"/><glyph d="M820 -65q0 -66 -30.5 -115t-84.5 -79t-122 -44.5t-147 -14.5q-80 0 -147.5 14.5t-121.5 44.5t-85 79.5t-31 114.5q0 127 128 196q-82 67 -82 177q0 84 50 143t124.5 85t164.5 26t164.5 -26t124 -85t49.5 -143q1 -110 -81 -177q127 -69 127 -196zM338 296q0 -36 23 -59 t75 -23q51 0 75 23t24 59t-24 59t-75 23q-52 0 -75 -23t-23 -59zM436 -134q56 0 82 23t26 59t-25.5 59t-82.5 23t-82.5 -23t-25.5 -59t25.5 -59t82.5 -23z" glyph-name="uni2088" horiz-adv-x="871" unicode="₈"/><glyph d="M51 275q0 74 33.5 132t89 91t123 50t139.5 17q57 0 111.5 -10t104 -32.5t87 -56t59.5 -82.5t22 -109q0 -27 -2.5 -45.5t-13.5 -46t-22.5 -48t-42 -68.5t-58.5 -87.5t-85 -123.5t-110 -161h-325l216 322q-87 -19 -156 2q-79 24 -124.5 94t-45.5 162zM436.5 387 q-55.5 0 -82 -35t-26.5 -77q0 -41 26.5 -75.5t81.5 -34.5q54 0 81 34.5t27 75.5q0 42 -26 77t-81.5 35z" glyph-name="uni2089" horiz-adv-x="871" unicode="₉"/><glyph d="M1012 1106q-167 -16 -246 -154h319v-204h-374q-1 -10 -1 -31t1 -31h374v-205h-319q79 -137 246 -153q174 -23 384 49v-350q-179 -47 -382 -47q-175 0 -329.5 55.5t-272.5 171t-169 274.5h-192v205h158q-1 10 -1 30.5t1 31.5h-158v204h192q51 160 169 275t272.5 171 t329.5 56q203 0 382 -47v-350q-210 72 -384 49z" glyph-name="Euro" horiz-adv-x="1518" unicode="€"/><glyph d="M123 1434h1229v-308h-1229v308zM1352 1014v-307h-364v-707h-502v707h-363v307h1229z" glyph-name="uni20B8" horiz-adv-x="1474" unicode="₸"/><glyph d="M1070 1228h-186q68 -85 87 -200h99v-205h-101q-35 -199 -216 -291l317 -532h-502l-257 431q-96 -8 -188 -11v328q137 5 211.5 22t107.5 54h-319v205h331q-45 77 -147 77h-184v328h215h26l706 -1v-205z" glyph-name="uni20B9" horiz-adv-x="1192" unicode="₹"/><glyph d="M979 800h413q0 -140 -22 -259t-71.5 -220t-123 -171.5t-182.5 -110t-245 -39.5h-625v802l-123 -11v204l123 12v61l-123 -11v205l123 11v161h502v-115l381 35v-205l-381 -35v-61l381 34v-204l-381 -35v-469h50q164 1 234 99.5t70 321.5z" glyph-name="uni20BA" horiz-adv-x="1442" unicode="₺"/><glyph d="M928 1246q143 -10 251 -49.5t188 -115t120.5 -198t39.5 -289.5v-594h-502v686q0 63 -25 113t-72 77v-876h-205v877q-47 -27 -72.5 -77t-25.5 -114v-686h-502v594q0 168 41 290.5t121 198t187.5 115t250.5 48.5v188h205v-188z" glyph-name="uni20BC" horiz-adv-x="1649" unicode="₼"/><glyph d="M1504 421q0 -194 -130.5 -299.5t-344.5 -119.5v-207h-225v205h-205v-205h-225v205h-251v1434h251v204h225v-204h205v204h225v-204q184 -6 296 -101t112 -266q0 -88 -39.5 -173t-101.5 -116q104 -39 156 -130.5t52 -226.5zM625 1121v-247h188q77 0 115.5 28t38.5 93 q0 74 -35 100t-119 26h-188zM625 573v-267l215 -4q83 -1 122 33.5t40 106.5q1 68 -38.5 99.5t-120.5 31.5h-218z" glyph-name="uni20BF" horiz-adv-x="1565" unicode="₿"/><glyph d="M756 1215q-103 42 -218 30q-79 -8 -121.5 -58.5t-42.5 -123.5q0 -74 42.5 -124.5t121.5 -58.5q115 -12 218 29v-206q-108 -32 -256 -31q-85 0 -163.5 23.5t-143 69.5t-103.5 123.5t-39 174.5t39 174t103.5 123t143 69.5t163.5 23.5q154 0 256 -32v-206zM1274 1434h218 l-766 -1434h-217zM2017 377q1 -100 -38 -177.5t-104.5 -122.5t-143 -68t-162.5 -23t-163 23t-143 68t-104 122t-39 178q0 97 39 174t103.5 123t143 69.5t163.5 23.5q68 0 131.5 -14.5t121.5 -45.5t101 -76t68.5 -110.5t25.5 -143.5zM1568.5 194q66.5 0 96.5 52t30 131 t-30 130.5t-96.5 51.5t-96 -51.5t-29.5 -130.5t29.5 -131t96 -52z" glyph-name="afii61248" horiz-adv-x="2068" unicode="℅"/><glyph d="M1029 153q-73 -81 -182.5 -131t-234.5 -50q-200 0 -300 104t-100 288v27q-114 -11 -161 -13l16 170q6 1 57.5 8t87.5 14v434q0 443 457 443q178 0 284 -88t106 -280q0 -194 -118 -344t-312 -243v-71q0 -79 28.5 -114t71.5 -35q100 0 197 74zM629 717q160 129 159 347 q0 104 -69 104q-48 0 -69 -40.5t-21 -123.5v-287z" glyph-name="afii61289" horiz-adv-x="1110" unicode="ℓ"/><glyph d="M2910 952q1 -103 -32 -188.5t-89 -142.5t-131 -96.5t-156.5 -57t-168.5 -17.5q-86 0 -167.5 17.5t-156.5 56.5t-130.5 96.5t-89 143t-33.5 188.5q0 100 33 185t88.5 142t130 97.5t156.5 59t169 18.5t169.5 -18.5t156.5 -59t130 -97.5t88.5 -142t32.5 -185zM1085 1434h502 v-1434h-502l-460 694v-694h-502v1434h502l460 -675v675zM2333 717q85 0 123.5 67t38.5 168.5t-38.5 168t-123.5 66.5q-58 0 -95.5 -35t-52 -85t-14.5 -115q0 -47 8 -87.5t26.5 -74.5t51 -53.5t76.5 -19.5zM1815 358h1037v-256h-1037v256z" glyph-name="afii61352" horiz-adv-x="3033" unicode="№"/><glyph d="M844 -45q-165 0 -310.5 60t-249 162t-163.5 242.5t-60 297.5q0 158 60 298.5t163.5 242.5t249 161.5t310.5 59.5t311.5 -59.5t250 -161.5t163.5 -243t60 -298t-60 -297.5t-163.5 -242.5t-250 -162t-311.5 -60zM845 173q240 0 394 155t154 388.5t-154.5 389t-393.5 155.5 t-393 -155.5t-154 -389t154 -388.5t393 -155zM893 1062q140 0 224 -61.5t84 -177.5q0 -133 -94 -187.5t-319 -62.5v-202h-241v691h346zM959 823q0 37 -23 59t-58 22h-90v-173q101 4 136 23t35 69z" glyph-name="uni2117" horiz-adv-x="1690" unicode="℗"/><glyph d="M95 944q134 -71 246 -71q23 0 40 2t34.5 7t27.5 15.5t10 26.5q0 25 -39 40.5t-101.5 30t-88.5 25.5q-75 34 -110.5 88t-31.5 139q5 93 92 150.5t238 57.5q131 0 229 -50v-195q-113 65 -229 65q-27 0 -51 -10t-27 -30q-2 -16 7.5 -28.5t30.5 -20.5t42.5 -14t51 -12.5 t46.5 -12.5q87 -30 140.5 -90.5t47.5 -154.5q-3 -60 -34.5 -102.5t-85 -64.5t-111.5 -32t-128 -10q-138 0 -246 56v195zM1408 1434h347v-717h-251v373l-108 -312h-226l-109 312v-373h-251v717h347l126 -375z" glyph-name="uni2120" horiz-adv-x="1837" unicode="℠"/><glyph d="M696 1434v-174h-181v-543h-251v543h-182v174h614zM1376 1434h347v-717h-250v373l-109 -312h-225l-110 312v-373h-251v717h347l126 -375z" glyph-name="trademark" horiz-adv-x="1805" unicode="™"/><glyph d="M537 782h208v-209h-694v209h209v418q-80 -59 -160 -83v234q85 16 158 83h279v-652zM1302 1434h218l-766 -1434h-217zM1939 243q0 -66 -30.5 -115.5t-84.5 -79.5t-122 -44.5t-147 -14.5q-80 0 -147.5 14.5t-121.5 44.5t-85 79.5t-31 115.5q0 127 128 195q-82 67 -81 177 q0 84 49.5 143t124 85t165 26t164.5 -26t123.5 -85t49.5 -143q1 -110 -81 -177q127 -68 127 -195zM1457 603q0 -36 23 -59t75 -23q51 0 75 23t24 59t-23.5 59t-75.5 23t-75 -23t-23 -59zM1555 173q56 0 82 23t26 59t-25.5 59t-82.5 23t-82.5 -23t-25.5 -59t25.5 -59 t82.5 -23z" glyph-name="oneeighth" horiz-adv-x="1990" unicode="⅛"/><glyph d="M99 1434h682v-209l-228 -147q56 -9 98 -25q176 -66 172 -236q-2 -130 -107 -195t-273 -61q-124 3 -204.5 21t-187.5 68l109 190q47 -30 130.5 -51t149.5 -20q43 0 75.5 13.5t33.5 37.5q2 37 -41.5 66t-117.5 29q-100 0 -141 -6l-52 185l270 131h-368v209zM1302 1434h218 l-766 -1434h-217zM1939 243q0 -66 -30.5 -115.5t-84.5 -79.5t-122 -44.5t-147 -14.5q-80 0 -147.5 14.5t-121.5 44.5t-85 79.5t-31 115.5q0 127 128 195q-82 67 -81 177q0 84 49.5 143t124 85t165 26t164.5 -26t123.5 -85t49.5 -143q1 -110 -81 -177q127 -68 127 -195z M1457 603q0 -36 23 -59t75 -23q51 0 75 23t24 59t-23.5 59t-75.5 23t-75 -23t-23 -59zM1555 173q56 0 82 23t26 59t-25.5 59t-82.5 23t-82.5 -23t-25.5 -59t25.5 -59t82.5 -23z" glyph-name="threeeighths" horiz-adv-x="1990" unicode="⅜"/><glyph d="M132 1434h642v-209h-403l-9 -98q129 11 226 -13q111 -29 173.5 -102.5t61.5 -175.5q-2 -142 -106.5 -210.5t-273.5 -64.5q-124 3 -204.5 21t-187.5 68l109 190q46 -30 129.5 -50.5t150.5 -20.5q105 0 109 70q1 30 -40 57t-98.5 41.5t-110.5 14.5q-66 0 -142 -11l-48 60z M1302 1434h218l-766 -1434h-217zM1939 243q0 -66 -30.5 -115.5t-84.5 -79.5t-122 -44.5t-147 -14.5q-80 0 -147.5 14.5t-121.5 44.5t-85 79.5t-31 115.5q0 127 128 195q-82 67 -81 177q0 84 49.5 143t124 85t165 26t164.5 -26t123.5 -85t49.5 -143q1 -110 -81 -177 q127 -68 127 -195zM1457 603q0 -36 23 -59t75 -23q51 0 75 23t24 59t-23.5 59t-75.5 23t-75 -23t-23 -59zM1555 173q56 0 82 23t26 59t-25.5 59t-82.5 23t-82.5 -23t-25.5 -59t25.5 -59t82.5 -23z" glyph-name="fiveeighths" horiz-adv-x="1990" unicode="⅝"/><glyph d="M51 1434h670v-209q-123 -155 -200 -310t-101 -342h-289q25 190 98 346.5t191 305.5h-369v209zM1070 1434h218l-766 -1434h-217zM1708 243q0 -66 -30.5 -115.5t-84.5 -79.5t-122 -44.5t-147 -14.5q-80 0 -147.5 14.5t-122 44.5t-85 79.5t-30.5 115.5q0 127 128 195 q-82 67 -82 177q0 84 49.5 143t124.5 85t165 26t164.5 -26t124 -85t49.5 -143q1 -110 -81 -177q127 -68 127 -195zM1226 603q0 -36 23 -59t75 -23q51 0 74.5 23t23.5 59t-23.5 59t-74.5 23q-52 0 -75 -23t-23 -59zM1324 173q56 0 82 23t26 59t-26 59t-82 23q-57 0 -83 -23 t-26 -59t26 -59t83 -23z" glyph-name="seveneighths" horiz-adv-x="1759" unicode="⅞"/><glyph d="M652 0l-529 717l529 717h491l-360 -487h773v-461h-772l359 -486h-491z" glyph-name="arrowleft" horiz-adv-x="1679" unicode="←"/><glyph d="M1556 904v-490l-486 358v-772h-461v773l-486 -359v490l717 530z" glyph-name="arrowup" horiz-adv-x="1679" unicode="↑"/><glyph d="M1027 0h-490l358 486h-772v461h773l-359 487h490l529 -717z" glyph-name="arrowright" horiz-adv-x="1679" unicode="→"/><glyph d="M1556 529l-716 -529l-717 529v491l486 -360v774h461v-772l486 358v-491z" glyph-name="arrowdown" horiz-adv-x="1679" unicode="↓"/><glyph d="M2007 1434l529 -717l-529 -717h-490l358 486h-1091l359 -486h-491l-529 717l529 717h491l-360 -487h1093l-359 487h490z" glyph-name="arrowboth" horiz-adv-x="2659" unicode="↔"/><glyph d="M1556 639l-486 358v-766l486 359v-491l-716 -529l-717 529v491l486 -360v768l-486 -359v490l717 530l716 -530v-490z" glyph-name="arrowupdn" horiz-adv-x="1679" unicode="↕"/><glyph d="M1483 1086h-695l585 -584l-325 -326l-578 578v-680l-347 346v1014h1014z" glyph-name="uni2196" horiz-adv-x="1605" unicode="↖"/><glyph d="M469 1434h1014v-1014l-347 -346v680l-578 -578l-326 326l585 584h-694z" glyph-name="uni2197" horiz-adv-x="1605" unicode="↗"/><glyph d="M1136 1360l347 -346v-1014h-1014l-346 347h694l-585 585l326 325l578 -577v680z" glyph-name="uni2198" horiz-adv-x="1605" unicode="↘"/><glyph d="M788 347h695l-346 -347h-1014v1014l347 346v-680l578 577l325 -325z" glyph-name="uni2199" horiz-adv-x="1605" unicode="↙"/><glyph d="M653 1454q127 0 238 -49t190.5 -132t137.5 -190t86 -224.5t28 -233.5q0 -136 -36.5 -247t-98.5 -183.5t-145.5 -121.5t-173 -70t-187.5 -21q-122 0 -233 29.5t-204 88t-149 158t-55 227.5q0 127 52 228t140.5 163t203.5 91.5t245 22.5q73 -4 143 -36q-34 99 -115.5 157.5 t-243.5 105.5zM692 250q97 0 138.5 79.5t41.5 232.5q0 91 -2 131q-80 29 -178 29q-49 0 -85.5 -19.5t-56.5 -54t-29 -74.5t-9 -89q0 -101 43 -168t137 -67z" glyph-name="partialdiff" horiz-adv-x="1384" unicode="∂"/><glyph d="M1070 853q97 -142 97 -315q0 -152 -74.5 -280.5t-203 -203t-280.5 -74.5q-173 0 -315 97l-78 -78l-146 145l78 79q-97 141 -97 315q0 152 75 280t203.5 203t279.5 75q173 0 315 -98l78 79l147 -145zM306 538q0 -68 29 -128l402 402q-60 29 -128 29q-126 0 -214.5 -88.5 t-88.5 -214.5zM609 234q126 0 214.5 89t88.5 215q0 69 -28 129l-404 -404q60 -29 129 -29z" glyph-name="emptyset" horiz-adv-x="1218" unicode="∅"/><glyph d="M1573 1434v-1741h-502v1392h-446v-1392h-502v1741h1450z" glyph-name="product" horiz-adv-x="1695" unicode="∏"/><glyph d="M1327 151v-356h-1204v324l515 598l-515 596v325h1185v-355l-574 2l444 -568l-444 -571z" glyph-name="summation" horiz-adv-x="1449" unicode="∑"/><glyph d="M1147 563h-1024v307h1024v-307z" glyph-name="minus" horiz-adv-x="1269" unicode="−"/><glyph d="M1627 1434l-588 -1741h-480l-261 734h-175v348h468l209 -642l426 1301h401z" glyph-name="radical" horiz-adv-x="1750" unicode="√"/><glyph d="M1279 967q187 0 299 -116t112 -313.5t-112 -313t-299 -115.5q-114 0 -219 56t-190 168q-85 -112 -190 -168t-218 -56q-187 0 -299 115.5t-112 313t111.5 313.5t299.5 116q114 0 218.5 -57t189.5 -169q85 112 190 169t219 57zM494 384q54 0 111 40t106 114 q-49 74 -106 113.5t-111 39.5q-60 0 -93 -40t-33 -113.5t33 -113.5t93 -40zM1245 384q60 0 94 40t34 113.5t-33.5 113.5t-94.5 40q-54 0 -110 -40t-105 -113q49 -74 105 -114t110 -40z" glyph-name="infinity" horiz-adv-x="1740" unicode="∞"/><glyph d="M711 1395q151 -2 237 -56l-11 -178q-109 25 -164 -2q-27 -13 -35 -38.5t-8 -80.5v-1076q0 -70 -18 -123t-51 -87.5t-73 -57.5t-93.5 -33.5t-101 -14.5t-104.5 -3q-151 2 -238 55l11 178q109 -25 164 2q27 13 35 39t8 80v1076q0 70 18 123t51.5 87.5t73.5 57.5t93 34 t101 15t105 3z" glyph-name="integral" horiz-adv-x="999" unicode="∫"/><glyph d="M123 741q0 99 25 174t67.5 118t94 64t111.5 21q81 0 204 -42t172 -42q70 0 73 84h277q0 -99 -25 -174t-67.5 -118t-94.5 -64t-111 -21q-80 0 -203 42t-173 42q-70 0 -74 -84h-276zM123 319q0 99 25 174t67.5 118t94 64t111.5 21q81 0 204 -42t172 -42q70 0 73 84h277 q0 -99 -25 -174t-67.5 -118t-94.5 -64t-111 -21q-80 0 -203 42t-173 42q-70 0 -74 -84h-276z" glyph-name="approxequal" horiz-adv-x="1269" unicode="≈"/><glyph d="M1147 788h-366l-88 -143h454v-307h-643l-94 -154h-205l94 154h-176v307h365l89 143h-454v308h643l94 153h205l-94 -153h176v-308z" glyph-name="notequal" horiz-adv-x="1269" unicode="≠"/><glyph d="M1093 1317v-350l-601 -143l601 -143v-350l-970 230v525zM123 -31v348h969v-348h-969z" glyph-name="lessequal" horiz-adv-x="1215" unicode="≤"/><glyph d="M123 1317l970 -231v-525l-970 -230v350l601 143l-601 143v350zM124 -31v348h969v-348h-969z" glyph-name="greaterequal" horiz-adv-x="1215" unicode="≥"/><glyph d="M932 -154q-177 0 -338.5 69.5t-277.5 185.5t-185.5 278t-69.5 339t69.5 338t185.5 277.5t277.5 185t338.5 68.5t338.5 -68.5t277.5 -185t185 -277.5t69 -338t-69 -339t-185 -278t-277.5 -185.5t-338.5 -69.5zM932 51q181 0 334 89t242 243t89 336q0 180 -89 333 t-242 241.5t-334 88.5t-334.5 -88.5t-242.5 -241.5t-89 -333q0 -182 89 -336t242.5 -243t334.5 -89zM1070 496h209v-209h-694v209h209v417q-80 -59 -160 -83v234q85 16 158 83h278v-651z" glyph-name="uni2460" horiz-adv-x="1863" unicode="①"/><glyph d="M932 -154q-177 0 -338.5 69.5t-277.5 185.5t-185.5 278t-69.5 339t69.5 338t185.5 277.5t277.5 185t338.5 68.5t338.5 -68.5t277.5 -185t185 -277.5t69 -338t-69 -339t-185 -278t-277.5 -185.5t-338.5 -69.5zM932 51q181 0 334 89t242 243t89 336q0 180 -89 333 t-242 241.5t-334 88.5t-334.5 -88.5t-242.5 -241.5t-89 -333q0 -182 89 -336t242.5 -243t334.5 -89zM1290 489v-208h-758v208q95 53 167.5 99t139.5 95.5t103 94.5t36 82q0 36 -24 60t-64 25q-130 2 -248 -63l-93 180q94 47 174.5 69.5t177.5 22.5q175 0 273 -66.5 t98 -175.5q0 -58 -20 -112.5t-47 -93t-76.5 -82t-86 -70t-97.5 -65.5h345z" glyph-name="uni2461" horiz-adv-x="1863" unicode="②"/><glyph d="M932 -154q-177 0 -338.5 69.5t-277.5 185.5t-185.5 278t-69.5 339t69.5 338t185.5 277.5t277.5 185t338.5 68.5t338.5 -68.5t277.5 -185t185 -277.5t69 -338t-69 -339t-185 -278t-277.5 -185.5t-338.5 -69.5zM932 51q181 0 334 89t242 243t89 336q0 180 -89 333 t-242 241.5t-334 88.5t-334.5 -88.5t-242.5 -241.5t-89 -333q0 -182 89 -336t242.5 -243t334.5 -89zM573 1153h682v-209l-228 -146q56 -9 98 -26q176 -66 172 -235q-2 -130 -107 -195.5t-272 -60.5q-124 3 -205 20.5t-188 68.5l109 189q47 -30 130.5 -51t149.5 -20 q43 0 75.5 13.5t33.5 38.5q2 37 -41.5 66t-117.5 29q-100 0 -141 -6l-52 184l270 131h-368v209z" glyph-name="uni2462" horiz-adv-x="1863" unicode="③"/><glyph d="M932 -154q-177 0 -338.5 69.5t-277.5 185.5t-185.5 278t-69.5 339t69.5 338t185.5 277.5t277.5 185t338.5 68.5t338.5 -68.5t277.5 -185t185 -277.5t69 -338t-69 -339t-185 -278t-277.5 -185.5t-338.5 -69.5zM932 51q181 0 334 89t242 243t89 336q0 180 -89 333 t-242 241.5t-334 88.5t-334.5 -88.5t-242.5 -241.5t-89 -333q0 -182 89 -336t242.5 -243t334.5 -89zM1313 673v-209h-123v-177h-277v177h-403v209l361 474h319v-474h123zM765 673h148v217z" glyph-name="uni2463" horiz-adv-x="1863" unicode="④"/><glyph d="M932 -154q-177 0 -338.5 69.5t-277.5 185.5t-185.5 278t-69.5 339t69.5 338t185.5 277.5t277.5 185t338.5 68.5t338.5 -68.5t277.5 -185t185 -277.5t69 -338t-69 -339t-185 -278t-277.5 -185.5t-338.5 -69.5zM932 51q181 0 334 89t242 243t89 336q0 180 -89 333 t-242 241.5t-334 88.5t-334.5 -88.5t-242.5 -241.5t-89 -333q0 -182 89 -336t242.5 -243t334.5 -89zM606 1153h642v-209h-403l-8 -97q129 11 225 -13q111 -29 173.5 -103t61.5 -176q-2 -142 -106.5 -210.5t-272.5 -63.5q-124 3 -205 20.5t-188 68.5l109 189 q46 -30 129.5 -50.5t150.5 -20.5q105 0 109 70q1 30 -40 57t-98.5 42t-110.5 15q-66 0 -142 -12l-48 61z" glyph-name="uni2464" horiz-adv-x="1863" unicode="⑤"/><glyph d="M932 -154q-177 0 -338.5 69.5t-277.5 185.5t-185.5 278t-69.5 339t69.5 338t185.5 277.5t277.5 185t338.5 68.5t338.5 -68.5t277.5 -185t185 -277.5t69 -338t-69 -339t-185 -278t-277.5 -185.5t-338.5 -69.5zM932 51q181 0 334 89t242 243t89 336q0 180 -89 333 t-242 241.5t-334 88.5t-334.5 -88.5t-242.5 -241.5t-89 -333q0 -182 89 -336t242.5 -243t334.5 -89zM1295 571q0 -74 -33 -131.5t-89 -91t-123 -50t-140 -16.5q-57 0 -111.5 10t-104 32.5t-87 56t-59.5 82.5t-22 108q0 27 2.5 46t14 46.5t23 48t42 68t58 87.5t85 124 t109.5 161h326l-216 -323q87 19 155 -2q79 -24 124.5 -94t45.5 -162zM910.5 460q55.5 0 82 34.5t26.5 76.5q0 41 -26.5 76t-82.5 35q-54 0 -80.5 -35t-26.5 -76q0 -42 26 -76.5t81.5 -34.5z" glyph-name="uni2465" horiz-adv-x="1863" unicode="⑥"/><glyph d="M932 -154q-177 0 -338.5 69.5t-277.5 185.5t-185.5 278t-69.5 339t69.5 338t185.5 277.5t277.5 185t338.5 68.5t338.5 -68.5t277.5 -185t185 -277.5t69 -338t-69 -339t-185 -278t-277.5 -185.5t-338.5 -69.5zM932 51q181 0 334 89t242 243t89 336q0 180 -89 333 t-242 241.5t-334 88.5t-334.5 -88.5t-242.5 -241.5t-89 -333q0 -182 89 -336t242.5 -243t334.5 -89zM593 1147h670v-209q-123 -155 -200 -310t-101 -341h-289q25 190 98 346.5t191 304.5h-369v209z" glyph-name="uni2466" horiz-adv-x="1863" unicode="⑦"/><glyph d="M932 -154q-177 0 -338.5 69.5t-277.5 185.5t-185.5 278t-69.5 339t69.5 338t185.5 277.5t277.5 185t338.5 68.5t338.5 -68.5t277.5 -185t185 -277.5t69 -338t-69 -339t-185 -278t-277.5 -185.5t-338.5 -69.5zM932 51q181 0 334 89t242 243t89 336q0 180 -89 333 t-242 241.5t-334 88.5t-334.5 -88.5t-242.5 -241.5t-89 -333q0 -182 89 -336t242.5 -243t334.5 -89zM1295 530q0 -66 -30.5 -115t-84.5 -79t-122 -45t-147 -15q-80 0 -147.5 15t-121.5 45t-85 79.5t-31 114.5q0 127 128 196q-82 67 -82 177q0 84 50 143t124.5 85t164.5 26 t164.5 -26t124 -85t49.5 -143q1 -110 -81 -177q127 -69 127 -196zM813 891q0 -36 23 -59t75 -23q51 0 75 23t24 59t-23.5 59t-75.5 23t-75 -23t-23 -59zM911 461q56 0 82 23t26 59t-25.5 59t-82.5 23t-82.5 -23t-25.5 -59t25.5 -59t82.5 -23z" glyph-name="uni2467" horiz-adv-x="1863" unicode="⑧"/><glyph d="M932 -154q-177 0 -338.5 69.5t-277.5 185.5t-185.5 278t-69.5 339t69.5 338t185.5 277.5t277.5 185t338.5 68.5t338.5 -68.5t277.5 -185t185 -277.5t69 -338t-69 -339t-185 -278t-277.5 -185.5t-338.5 -69.5zM932 51q181 0 334 89t242 243t89 336q0 180 -89 333 t-242 241.5t-334 88.5t-334.5 -88.5t-242.5 -241.5t-89 -333q0 -182 89 -336t242.5 -243t334.5 -89zM548 862q0 74 33 132t89 91t123 50t140 17q57 0 111.5 -10t104 -33t87 -56t59.5 -82t22 -109q0 -27 -2.5 -45.5t-14 -46.5t-22.5 -48.5t-42 -68t-58.5 -87.5t-85 -124 t-109.5 -160h-326l216 322q-87 -19 -155 2q-79 24 -124.5 94t-45.5 162zM933 974q-55 0 -82 -35t-27 -77q0 -41 27 -75.5t82 -34.5q54 0 80.5 34.5t26.5 75.5q0 42 -26 77t-81 35z" glyph-name="uni2468" horiz-adv-x="1863" unicode="⑨"/><glyph d="M932 -154q-177 0 -338.5 69.5t-277.5 185.5t-185.5 278t-69.5 339t69.5 338t185.5 277.5t277.5 185t338.5 68.5t338.5 -68.5t277.5 -185t185 -277.5t69 -338t-69 -339t-185 -278t-277.5 -185.5t-338.5 -69.5zM932 51q181 0 334 89t242 243t89 336q0 180 -89 333 t-242 241.5t-334 88.5t-334.5 -88.5t-242.5 -241.5t-89 -333q0 -182 89 -336t242.5 -243t334.5 -89zM1295 717q1 -217 -102.5 -330t-282.5 -113q-176 0 -280 113.5t-104 329.5q0 213 103.5 327.5t280.5 114.5q178 0 281.5 -114.5t103.5 -327.5zM911.5 477q31.5 0 53 19.5 t31.5 56.5t13.5 75t3.5 89q0 240 -101.5 239.5t-101.5 -239.5q0 -52 3.5 -89.5t13.5 -74.5t31.5 -56.5t53 -19.5z" glyph-name="uni24EA" horiz-adv-x="1863" unicode="⓪"/><glyph d="M932 -154q-177 0 -338.5 69t-278 185.5t-185.5 278t-69 339.5q0 142 44.5 274.5t124.5 239.5t187 187.5t240 124t275 43.5t274.5 -43.5t239.5 -124t187.5 -187.5t124.5 -239.5t44 -274.5q0 -178 -68.5 -339.5t-185 -278t-278 -185.5t-338.5 -69zM1316 717 q0 213 -104 327.5t-281 114.5t-280.5 -114.5t-103.5 -327.5q0 -217 103.5 -330t280.5 -113t281.5 113.5t103.5 329.5zM931 477q-32 0 -53.5 19.5t-31 56.5t-13.5 74.5t-4 89.5q0 240 102 239q102 0 102 -239q0 -52 -3.5 -89.5t-13.5 -74.5t-31 -56.5t-54 -19.5z" glyph-name="uni24FF" horiz-adv-x="1863" unicode="⓿"/><glyph d="M123 1485h1536v-1536h-1536v1536z" glyph-name="filledbox" horiz-adv-x="1781" unicode="■"/><glyph d="M123 1434h1433v-1434h-1433v1434zM328 1229v-1024h1024v1024h-1024z" glyph-name="H22073" horiz-adv-x="1679" unicode="□"/><glyph d="M1434 717l-397 -717h-518l-396 717l396 717h518zM997 717l-219 402l-219 -402l219 -403z" glyph-name="lozenge" horiz-adv-x="1556" unicode="◊"/><glyph d="M932 -154q-177 0 -338.5 69.5t-277.5 185.5t-185.5 278t-69.5 339t69.5 338t185.5 277.5t277.5 185t338.5 68.5t338.5 -68.5t277.5 -185t185 -277.5t69 -338t-69 -339t-185 -278t-277.5 -185.5t-338.5 -69.5zM932 51q181 0 334 89t242 243t89 336q0 180 -89 333 t-242 241.5t-334 88.5t-334.5 -88.5t-242.5 -241.5t-89 -333q0 -182 89 -336t242.5 -243t334.5 -89z" glyph-name="circle" horiz-adv-x="1863" unicode="○"/><glyph d="M932 -154q-177 0 -338.5 69.5t-277.5 185.5t-185.5 278t-69.5 339t69.5 338t185.5 277.5t277.5 185t338.5 68.5t338.5 -68.5t277.5 -185t185 -277.5t69 -338t-69 -339t-185 -278t-277.5 -185.5t-338.5 -69.5z" glyph-name="H18533" horiz-adv-x="1863" unicode="●"/><glyph d="M932 -154q-177 0 -338.5 69t-278 185.5t-185.5 278t-69 339.5q0 142 44.5 274.5t124.5 239.5t187 187.5t240 124t275 43.5t274.5 -43.5t239.5 -124t187.5 -187.5t124.5 -239.5t44 -274.5q0 -178 -68.5 -339.5t-185 -278t-278 -185.5t-338.5 -69zM1070 496v651h-278 q-73 -67 -158 -83v-234q80 24 160 83v-417h-209v-209h694v209h-209z" glyph-name="uni2776" horiz-adv-x="1863" unicode="❶"/><glyph d="M932 -154q-177 0 -338.5 69t-278 185.5t-185.5 278t-69 339.5q0 142 44.5 274.5t124.5 239.5t187 187.5t240 124t275 43.5t274.5 -43.5t239.5 -124t187.5 -187.5t124.5 -239.5t44 -274.5q0 -178 -68.5 -339.5t-185 -278t-278 -185.5t-338.5 -69zM1311 489h-345 q60 39 97 65.5t86 70t76 82t47 93t20 112.5q0 109 -97.5 175.5t-272.5 66.5q-97 0 -177.5 -22.5t-175.5 -69.5l94 -180q118 66 247 63q40 -1 64 -25t24 -60q0 -37 -35.5 -82t-102.5 -94.5t-139.5 -95t-167.5 -99.5v-208h758v208z" glyph-name="uni2777" horiz-adv-x="1863" unicode="❷"/><glyph d="M932 -154q-177 0 -338.5 69t-278 185.5t-185.5 278t-69 339.5q0 142 44.5 274.5t124.5 239.5t187 187.5t240 124t275 43.5t274.5 -43.5t239.5 -124t187.5 -187.5t124.5 -239.5t44 -274.5q0 -178 -68.5 -339.5t-185 -278t-278 -185.5t-338.5 -69zM594 1153v-209h368 l-271 -131l52 -184q41 6 142 6q74 0 117.5 -29t40.5 -66q-1 -25 -33 -38.5t-75 -13.5q-67 -1 -150.5 20t-130.5 51l-108 -189q106 -50 187 -68t205 -21q168 -4 273 61t107 195q4 170 -172 235q-42 16 -98 26l228 146v209h-682z" glyph-name="uni2778" horiz-adv-x="1863" unicode="❸"/><glyph d="M932 -154q-177 0 -338.5 69t-278 185.5t-185.5 278t-69 339.5q0 142 44.5 274.5t124.5 239.5t187 187.5t240 124t275 43.5t274.5 -43.5t239.5 -124t187.5 -187.5t124.5 -239.5t44 -274.5q0 -178 -68.5 -339.5t-185 -278t-278 -185.5t-338.5 -69zM1333 673h-123v474h-318 l-362 -474v-209h404v-177h276v177h123v209zM785 673l149 217v-217h-149z" glyph-name="uni2779" horiz-adv-x="1863" unicode="❹"/><glyph d="M932 -154q-177 0 -338.5 69t-278 185.5t-185.5 278t-69 339.5q0 142 44.5 274.5t124.5 239.5t187 187.5t240 124t275 43.5t274.5 -43.5t239.5 -124t187.5 -187.5t124.5 -239.5t44 -274.5q0 -178 -68.5 -339.5t-185 -278t-278 -185.5t-338.5 -69zM627 1153l-23 -432 l48 -61q77 11 143 12q53 0 110.5 -15t98 -42t39.5 -57q-3 -70 -108 -70q-68 0 -151.5 20.5t-129.5 50.5l-108 -189q106 -50 187 -68t205 -21q169 -4 273.5 64t106.5 210q1 102 -62 176t-174 103q-96 25 -225 13l8 97h404v209h-642z" glyph-name="uni277A" horiz-adv-x="1863" unicode="❺"/><glyph d="M932 -154q-177 0 -338.5 69t-278 185.5t-185.5 278t-69 339.5q0 142 44.5 274.5t124.5 239.5t187 187.5t240 124t275 43.5t274.5 -43.5t239.5 -124t187.5 -187.5t124.5 -239.5t44 -274.5q0 -178 -68.5 -339.5t-185 -278t-278 -185.5t-338.5 -69zM1316 571 q0 92 -45.5 162.5t-124.5 93.5q-69 22 -156 2l216 323h-325q-52 -77 -109.5 -161t-85.5 -124t-58.5 -87.5t-42 -68t-22.5 -48t-13.5 -46.5t-2.5 -46q0 -59 22 -108t59.5 -82.5t87 -56t103.5 -32.5t112 -10q73 0 140 16.5t122.5 50t89 91t33.5 131.5zM931 460 q-55 0 -81.5 34.5t-26.5 76.5q0 41 27 76t81 35q55 0 81.5 -35t26.5 -76q0 -42 -26.5 -76.5t-81.5 -34.5z" glyph-name="uni277B" horiz-adv-x="1863" unicode="❻"/><glyph d="M932 -154q-177 0 -338.5 69t-278 185.5t-185.5 278t-69 339.5q0 142 44.5 274.5t124.5 239.5t187 187.5t240 124t275 43.5t274.5 -43.5t239.5 -124t187.5 -187.5t124.5 -239.5t44 -274.5q0 -178 -68.5 -339.5t-185 -278t-278 -185.5t-338.5 -69zM612 1147v-209h369 q-118 -148 -191 -304.5t-98 -346.5h289q25 186 101.5 341t199.5 310v209h-670z" glyph-name="uni277C" horiz-adv-x="1863" unicode="❼"/><glyph d="M932 -154q-177 0 -338.5 69t-278 185.5t-185.5 278t-69 339.5q0 142 44.5 274.5t124.5 239.5t187 187.5t240 124t275 43.5t274.5 -43.5t239.5 -124t187.5 -187.5t124.5 -239.5t44 -274.5q0 -178 -68.5 -339.5t-185 -278t-278 -185.5t-338.5 -69zM1316 530q0 127 -127 196 q82 68 81 177q0 84 -50 143t-124 85t-164 26t-165 -26t-124.5 -85t-49.5 -143q0 -111 82 -177q-128 -69 -128 -196q0 -66 30.5 -115t85 -79t122 -45t147.5 -15q79 0 147 15t121.5 45t84.5 79t31 115zM834 891q0 36 23 59t75 23q51 0 74.5 -23t23.5 -59t-23.5 -59t-74.5 -23 q-52 0 -75 23t-23 59zM932 461q-57 0 -83 23t-26 59t25.5 59t83.5 23q56 0 81.5 -23t25.5 -59t-25.5 -59t-81.5 -23z" glyph-name="uni277D" horiz-adv-x="1863" unicode="❽"/><glyph d="M932 -154q-177 0 -338.5 69t-278 185.5t-185.5 278t-69 339.5q0 142 44.5 274.5t124.5 239.5t187 187.5t240 124t275 43.5t274.5 -43.5t239.5 -124t187.5 -187.5t124.5 -239.5t44 -274.5q0 -178 -68.5 -339.5t-185 -278t-278 -185.5t-338.5 -69zM548 862q0 -92 45.5 -162 t124.5 -94q69 -22 155 -2l-216 -322h326q52 77 109.5 160.5t85 123.5t58.5 87.5t42 68t22.5 48.5t14 47t2.5 45q0 59 -22 108.5t-59.5 82.5t-87 56t-104 33t-111.5 10q-73 0 -140 -17t-123 -50t-89 -91t-33 -132zM933 974q55 0 81 -35t26 -77q0 -41 -26.5 -75.5t-80.5 -34.5 q-55 0 -82 34.5t-27 75.5q0 42 27 77t82 35z" glyph-name="uni277E" horiz-adv-x="1863" unicode="❾"/><glyph d="M113 1476h398v-298h-398v298zM82 1075h461v-1075h-461v1075z" glyph-name="i.aalt" horiz-adv-x="624"/><glyph d="M964 1075h369v-1075h-369l-21 90q-61 -60 -155.5 -85t-187.5 -25q-120 0 -218 32t-173.5 97.5t-117 174.5t-40.5 254q-1 144 40.5 253t117 174.5t173.5 98t218 32.5q93 0 187.5 -25t155.5 -86zM692 276q105 0 179 91v342q-74 90 -179 90q-65 0 -106.5 -39t-57.5 -95 t-16 -127.5t16 -127.5t57.5 -95t106.5 -39z" glyph-name="a.salt" horiz-adv-x="1415"/><glyph d="M1143 1486l-266 -307h-338l181 307h423zM964 1075h369v-1075h-369l-21 90q-61 -60 -155.5 -85t-187.5 -25q-120 0 -218 32t-173.5 97.5t-117 174.5t-40.5 254q-1 144 40.5 253t117 174.5t173.5 98t218 32.5q93 0 187.5 -25t155.5 -86zM692 276q105 0 179 91v342 q-74 90 -179 90q-65 0 -106.5 -39t-57.5 -95t-16 -127.5t16 -127.5t57.5 -95t106.5 -39z" glyph-name="aacute.aalt" horiz-adv-x="1415"/><glyph d="M1093 1485q-33 -145 -134.5 -226t-250.5 -81q-151 0 -252.5 80.5t-133.5 226.5h266q20 -97 120 -97q48 0 78.5 26.5t39.5 70.5h267zM964 1075h369v-1075h-369l-21 90q-61 -60 -155.5 -85t-187.5 -25q-120 0 -218 32t-173.5 97.5t-117 174.5t-40.5 254q-1 144 40.5 253 t117 174.5t173.5 98t218 32.5q93 0 187.5 -25t155.5 -86zM692 276q105 0 179 91v342q-74 90 -179 90q-65 0 -106.5 -39t-57.5 -95t-16 -127.5t16 -127.5t57.5 -95t106.5 -39z" glyph-name="abreve.aalt" horiz-adv-x="1415"/><glyph d="M839 1485h338l-233 -307h-473l-232 307h338l131 -193zM964 1075h369v-1075h-369l-21 90q-61 -60 -155.5 -85t-187.5 -25q-120 0 -218 32t-173.5 97.5t-117 174.5t-40.5 254q-1 144 40.5 253t117 174.5t173.5 98t218 32.5q93 0 187.5 -25t155.5 -86zM692 276q105 0 179 91 v342q-74 90 -179 90q-65 0 -106.5 -39t-57.5 -95t-16 -127.5t16 -127.5t57.5 -95t106.5 -39z" glyph-name="uni01CE.aalt" horiz-adv-x="1415"/><glyph d="M1177 1178h-338l-131 192l-131 -192h-338l232 307h473zM964 1075h369v-1075h-369l-21 90q-61 -60 -155.5 -85t-187.5 -25q-120 0 -218 32t-173.5 97.5t-117 174.5t-40.5 254q-1 144 40.5 253t117 174.5t173.5 98t218 32.5q93 0 187.5 -25t155.5 -86zM692 276 q105 0 179 91v342q-74 90 -179 90q-65 0 -106.5 -39t-57.5 -95t-16 -127.5t16 -127.5t57.5 -95t106.5 -39z" glyph-name="acircumflex.aalt" horiz-adv-x="1415"/><glyph d="M266 1476h399v-298h-399v298zM752 1476h397v-298h-397v298zM964 1075h369v-1075h-369l-21 90q-61 -60 -155.5 -85t-187.5 -25q-120 0 -218 32t-173.5 97.5t-117 174.5t-40.5 254q-1 144 40.5 253t117 174.5t173.5 98t218 32.5q93 0 187.5 -25t155.5 -86zM692 276 q105 0 179 91v342q-74 90 -179 90q-65 0 -106.5 -39t-57.5 -95t-16 -127.5t16 -127.5t57.5 -95t106.5 -39z" glyph-name="adieresis.aalt" horiz-adv-x="1415"/><glyph d="M964 1075h369v-1075h-369l-21 90q-61 -60 -155.5 -85t-187.5 -25q-120 0 -218 32t-173.5 97.5t-117 174.5t-40.5 254q-1 144 40.5 253t117 174.5t173.5 98t218 32.5q93 0 187.5 -25t155.5 -86zM692 276q105 0 179 91v342q-74 90 -179 90q-65 0 -106.5 -39t-57.5 -95 t-16 -127.5t16 -127.5t57.5 -95t106.5 -39zM508 -102h398v-298h-398v298z" glyph-name="uni1EA1.aalt" horiz-adv-x="1415"/><glyph d="M272 1486h423l182 -307h-338zM964 1075h369v-1075h-369l-21 90q-61 -60 -155.5 -85t-187.5 -25q-120 0 -218 32t-173.5 97.5t-117 174.5t-40.5 254q-1 144 40.5 253t117 174.5t173.5 98t218 32.5q93 0 187.5 -25t155.5 -86zM692 276q105 0 179 91v342q-74 90 -179 90 q-65 0 -106.5 -39t-57.5 -95t-16 -127.5t16 -127.5t57.5 -95t106.5 -39z" glyph-name="agrave.aalt" horiz-adv-x="1415"/><glyph d="M400 1434h615v-256h-615v256zM964 1075h369v-1075h-369l-21 90q-61 -60 -155.5 -85t-187.5 -25q-120 0 -218 32t-173.5 97.5t-117 174.5t-40.5 254q-1 144 40.5 253t117 174.5t173.5 98t218 32.5q93 0 187.5 -25t155.5 -86zM692 276q105 0 179 91v342q-74 90 -179 90 q-65 0 -106.5 -39t-57.5 -95t-16 -127.5t16 -127.5t57.5 -95t106.5 -39z" glyph-name="amacron.aalt" horiz-adv-x="1415"/><glyph d="M1272 0q-112 -49 -151.5 -90.5t-39.5 -78.5q0 -53 60.5 -66t132.5 9l15 -183q-75 -23 -158 -19.5t-153.5 22.5t-116.5 67.5t-46 116.5q0 60 48 121t156 101h-55l-21 90q-61 -60 -155.5 -85t-187.5 -25q-120 0 -218 32t-173.5 97.5t-117 174.5t-40.5 254q-1 144 40.5 253 t117 174.5t173.5 98t218 32.5q93 0 187.5 -25t155.5 -86l21 90h369v-1075h-61zM871 367v342q-74 90 -179 90q-65 0 -106.5 -39t-57.5 -95t-16 -127.5t16 -127.5t58 -95t106 -39q105 1 179 91z" glyph-name="aogonek.aalt" horiz-adv-x="1415"/><glyph d="M707.5 1178q-115.5 0 -198.5 82.5t-83 198.5t83 199t198.5 83t198.5 -83t83 -199t-83 -198.5t-198.5 -82.5zM707.5 1381q31.5 0 54.5 23t23 55t-23 55t-54.5 23t-54.5 -23t-23 -55t23 -55t54.5 -23zM964 1075h369v-1075h-369l-21 90q-61 -60 -155.5 -85t-187.5 -25 q-120 0 -218 32t-173.5 97.5t-117 174.5t-40.5 254q-1 144 40.5 253t117 174.5t173.5 98t218 32.5q93 0 187.5 -25t155.5 -86zM692 276q105 0 179 91v342q-74 90 -179 90q-65 0 -106.5 -39t-57.5 -95t-16 -127.5t16 -127.5t57.5 -95t106.5 -39z" glyph-name="aring.aalt" horiz-adv-x="1415"/><glyph d="M306 1178q0 151 67 223t167 72q63 0 160 -33t135 -33q54 0 57 66h217q0 -151 -67 -223t-166 -72q-62 0 -159 32.5t-136 32.5q-54 0 -58 -65h-217zM964 1075h369v-1075h-369l-21 90q-61 -60 -155.5 -85t-187.5 -25q-120 0 -218 32t-173.5 97.5t-117 174.5t-40.5 254 q-1 144 40.5 253t117 174.5t173.5 98t218 32.5q93 0 187.5 -25t155.5 -86zM692 276q105 0 179 91v342q-74 90 -179 90q-65 0 -106.5 -39t-57.5 -95t-16 -127.5t16 -127.5t57.5 -95t106.5 -39z" glyph-name="atilde.aalt" horiz-adv-x="1415"/><glyph d="M759 0h-393q-101 0 -172 70.5t-71 171.5v1294h461v-1157q0 -44 24.5 -68t68.5 -24h82v-287z" glyph-name="l.aalt" horiz-adv-x="809"/><glyph d="M841 1947l-267 -308h-337l181 308h423zM759 0h-393q-101 0 -172 70.5t-71 171.5v1294h461v-1157q0 -44 24.5 -68t68.5 -24h82v-287z" glyph-name="lacute.aalt" horiz-adv-x="809"/><glyph d="M718 0h-393q-101 0 -172 70.5t-71 171.5v1294h461v-1157q0 -44 24.5 -68t68.5 -24h82v-287zM758 1382h461l-154 -654h-410z" glyph-name="lcaron.aalt" horiz-adv-x="1341"/><glyph d="M759 0h-393q-101 0 -172 70.5t-71 171.5v1294h461v-1157q0 -44 24.5 -68t68.5 -24h82v-287zM236 -141h346l-116 -491h-307z" glyph-name="lcommaaccent.aalt" horiz-adv-x="809"/><glyph d="M759 0h-393q-101 0 -172 70.5t-71 171.5v1294h461v-1157q0 -44 24.5 -68t68.5 -24h82v-287zM206 -102h398v-298h-398v298z" glyph-name="uni1E37.aalt" horiz-adv-x="809"/><glyph d="M677 287h82v-287h-393q-101 0 -172 70.5t-71 171.5v442l-72 -11v184l72 11v668h461v-596l123 19v-184l-123 -19v-377q0 -44 24.5 -68t68.5 -24z" glyph-name="lslash.aalt" horiz-adv-x="809"/><glyph d="M933 1075h486l-474 -1485h-418l112 410h-237l-361 1075h489l202 -735z" glyph-name="y.aalt" horiz-adv-x="1460"/><glyph d="M1165 1486l-266 -307h-338l181 307h423zM933 1075h486l-474 -1485h-418l112 410h-237l-361 1075h489l202 -735z" glyph-name="yacute.aalt" horiz-adv-x="1460"/><glyph d="M730 1370l-131 -192h-338l233 307h473l232 -307h-338zM933 1075h486l-474 -1485h-418l112 410h-237l-361 1075h489l202 -735z" glyph-name="ycircumflex.aalt" horiz-adv-x="1460"/><glyph d="M687 1476v-298h-398v298h398zM1171 1476v-298h-397v298h397zM933 1075h486l-474 -1485h-418l112 410h-237l-361 1075h489l202 -735z" glyph-name="ydieresis.aalt" horiz-adv-x="1460"/><glyph d="M933 1075h486l-474 -1485h-418l112 410h-237l-361 1075h489l202 -735zM1129 -109h372v-301h-372v301z" glyph-name="uni1EF5.aalt" horiz-adv-x="1542"/><glyph d="M899 1179h-338l-266 307h423zM933 1075h486l-474 -1485h-418l112 410h-237l-361 1075h489l202 -735z" glyph-name="ygrave.aalt" horiz-adv-x="1460"/><glyph d="M603 1243q-54 0 -57 -65h-217q0 151 67 223t166 72q63 0 160 -33t135 -33q54 0 57 66h218q0 -151 -67.5 -223t-166.5 -72q-62 0 -159 32.5t-136 32.5zM933 1075h486l-474 -1485h-418l112 410h-237l-361 1075h489l202 -735z" glyph-name="uni1EF9.aalt" horiz-adv-x="1460"/><glyph d="M2468 1434v-349h-364v-1085h-501v1085h-727v-1085h-502v1085h-364v349h2458z" glyph-name="T_T.dlig" horiz-adv-x="2478"/><glyph d="M1892 768h-257v-389q0 -44 24.5 -68t69.5 -24h163v-287h-475q-101 0 -171.5 70.5t-70.5 171.5v526h-501v-768h-461v768h-162v307h162v219q0 100 70.5 171t172.5 71h475v-287h-164q-44 0 -68.5 -24t-24.5 -68v-82h501v205h460v-205h257v-307z" glyph-name="f_t.dlig" horiz-adv-x="1974"/><glyph d="M1110 1434h512v-281h-512v281zM1596 1075v-1075h-460v768h-462v-389q0 -44 24.5 -68t68.5 -24h164v-287h-475q-101 0 -172 70.5t-71 171.5v526h-162v307h162v205h461v-205h922z" glyph-name="t_i.dlig" horiz-adv-x="1719"/><glyph d="M1944 768h-257v-389q0 -44 24.5 -68t68.5 -24h164v-287h-476q-101 0 -171.5 70.5t-70.5 171.5v526h-552v-389q0 -44 24.5 -68t68.5 -24h164v-287h-475q-101 0 -172 70.5t-71 171.5v526h-162v307h162v205h461v-205h552v205h461v-205h257v-307z" glyph-name="t_t.dlig" horiz-adv-x="2025"/><glyph d="M2123 1434h512v-281h-512v281zM2609 1075v-1075h-461v768h-461v-389q0 -44 24.5 -68t68.5 -24h164v-287h-476q-101 0 -171.5 70.5t-70.5 171.5v526h-552v-389q0 -44 24.5 -68t68.5 -24h164v-287h-475q-101 0 -172 70.5t-71 171.5v526h-162v307h162v205h461v-205h552v205 h461v-205h922z" glyph-name="t_t_i.dlig" horiz-adv-x="2732"/><glyph d="M1638 287h82v-287h-393q-101 0 -172 70.5t-71 171.5v1007h-317q-44 0 -68.5 -24t-24.5 -68v-82h257v-307h-257v-768h-461v768h-162v307h162v219q0 100 70.5 171t172.5 71h1089v-1157q0 -44 24.5 -68t68.5 -24z" glyph-name="uniFB02.aalt" horiz-adv-x="1771"/><glyph d="M599 1434h221v-646h-221l-12 55q-68 -67 -206 -67q-150 0 -240.5 82.5t-89.5 252.5q-1 170 89.5 252.5t240.5 82.5q138 0 206 -67zM436 954q62 0 108 55v204q-45 54 -108 55q-57 0 -82.5 -45t-25.5 -112t25.5 -112t82.5 -45z" glyph-name="ordfeminine.aalt" horiz-adv-x="871"/><glyph d="M902 1434h487l-475 -1434h-417l111 395h-236l-362 1039h490l201 -710z" glyph-name="afii10037.aalt" horiz-adv-x="1398"/><glyph d="M964 1075h369v-1075h-369l-21 90q-61 -60 -155.5 -85t-187.5 -25q-120 0 -218 32t-173.5 97.5t-117 174.5t-40.5 254q-1 144 40.5 253t117 174.5t173.5 98t218 32.5q93 0 187.5 -25t155.5 -86zM692 276q105 0 179 91v342q-74 90 -179 90q-65 0 -106.5 -39t-57.5 -95 t-16 -127.5t16 -127.5t57.5 -95t106.5 -39z" glyph-name="afii10065.aalt" horiz-adv-x="1415"/><glyph d="M1342 540q1 -274 -172 -417t-469 -143q-295 0 -467.5 142.5t-172.5 417.5q0 269 173 414.5t467 145.5q296 0 468.5 -145.5t172.5 -414.5zM701.5 236q53.5 0 89 24.5t52 71t22.5 94.5t6 114q0 303 -170 303q-169 0 -169 -303q0 -66 6.5 -114t23 -94.5t51.5 -71t88.5 -24.5 z" glyph-name="zero.oldstyle" horiz-adv-x="1403"/><glyph d="M870 307h287v-307h-1034v307h287v410q-134 -100 -267 -138v358q140 26 263 138h464v-768z" glyph-name="one.oldstyle" horiz-adv-x="1280"/><glyph d="M1102 307v-307h-1020v307q47 27 118 65.5t114 62.5t98 55.5t87 55t62.5 52t44.5 55t14 53.5q0 44 -30.5 74.5t-80.5 30.5q-118 0 -279 -89l-128 256q118 59 218.5 87t223.5 28q157 0 273.5 -29t189.5 -98.5t73 -174.5q0 -49 -12 -94t-31.5 -81t-54 -72.5t-66.5 -64 t-83.5 -60.5t-91.5 -56t-101 -56h462z" glyph-name="two.oldstyle" horiz-adv-x="1183"/><glyph d="M141 1075h1138v-348l-381 -244q97 -18 163 -43q294 -110 288 -392q-2 -145 -87.5 -244.5t-225 -143t-321.5 -39.5q-207 5 -341.5 35t-312.5 114l181 316q79 -51 217.5 -86t250.5 -32q72 0 125.5 21.5t55.5 63.5q4 60 -69 109.5t-196 49.5q-166 0 -236 -10l-87 307 l451 218h-613v348z" glyph-name="three.oldstyle" horiz-adv-x="1410"/><glyph d="M1492 286v-348h-206v-296h-461v296h-702v348l633 789h530v-789h206zM548 286h277v360z" glyph-name="four.oldstyle" horiz-adv-x="1614"/><glyph d="M213 1075h1053v-348h-655l-14 -162q83 7 187.5 1t170.5 -23q184 -48 290 -171t104 -293q-2 -121 -51 -211.5t-135.5 -145t-199 -79.5t-248.5 -22q-207 5 -341.5 35t-312.5 114l181 316q78 -49 216 -83.5t252 -34.5q47 0 85 10t66.5 36.5t29.5 69.5q2 50 -61.5 95 t-156 69.5t-180.5 24.5q-96 0 -229 -19l-88 101z" glyph-name="five.oldstyle" horiz-adv-x="1410"/><glyph d="M1343 465q1 -99 -35.5 -181t-98.5 -137t-145.5 -93t-174 -54.5t-187 -16.5t-186.5 16.5t-173.5 54.5t-145.5 93t-99 137t-37 181q0 44 4.5 75.5t23.5 78t38 81t70 113t97.5 145.5t141.5 206.5t182 269.5h543l-360 -539q142 35 259 -2q132 -40 207.5 -156.5t75.5 -271.5z M702.5 280q48.5 0 85 18t56.5 47t29.5 59.5t9.5 60.5t-9.5 60t-29.5 59t-56.5 47t-85 18t-85 -18t-56.5 -47t-29.5 -59t-9.5 -60t9.5 -60.5t29.5 -59.5t56.5 -47t85 -18z" glyph-name="six.oldstyle" horiz-adv-x="1404"/><glyph d="M61 1075h1117v-348q-206 -257 -333.5 -515.5t-168.5 -569.5h-481q41 317 162.5 577.5t318.5 507.5h-615v348z" glyph-name="seven.oldstyle" horiz-adv-x="1239"/><glyph d="M1343 404q1 -88 -32.5 -159t-93 -119.5t-141.5 -81.5t-175 -47.5t-199 -14.5q-104 0 -197.5 14.5t-175 47.5t-141 81.5t-93.5 119.5t-34 159q0 212 213 327q-136 111 -136 295q0 85 31.5 155.5t84.5 119.5t126 82.5t153.5 49.5t169 16t169 -16t153.5 -49.5t126 -82.5 t84.5 -119.5t31.5 -155.5q1 -183 -135 -295q211 -117 211 -327zM539 1005.5q0 -59.5 38.5 -98t124.5 -38.5t125 38.5t39 98t-39 98t-125 38.5t-124.5 -38.5t-38.5 -98zM702.5 289q95.5 0 138 38.5t42.5 97.5t-42.5 97.5t-138 38.5t-138 -38.5t-42.5 -97.5t42.5 -97.5 t138 -38.5z" glyph-name="eight.oldstyle" horiz-adv-x="1404"/><glyph d="M61 613q-1 99 36 181.5t99 137t145.5 92.5t174 55t187 17t186.5 -17t173.5 -55t145.5 -92.5t98.5 -136.5t36.5 -182q0 -44 -4 -75.5t-23 -77.5t-38.5 -81t-70 -113.5t-97 -145.5t-142 -206t-182.5 -269h-542l360 538q-142 -35 -259 2q-132 40 -208 156.5t-76 271.5z M702.5 799q-48.5 0 -85 -18.5t-56.5 -47t-29.5 -59.5t-9.5 -60.5t9.5 -60t29.5 -59.5t56.5 -47t85 -18t85 18t56.5 47t29.5 59.5t9.5 60t-9.5 60.5t-29.5 59.5t-56.5 47t-85 18.5z" glyph-name="nine.oldstyle" horiz-adv-x="1404"/><glyph d="M1408 717q1 -361 -172 -549t-469 -188q-143 0 -260 46t-202 136t-131.5 231.5t-46.5 323.5q0 354 172 545.5t468 191.5t468.5 -191.5t172.5 -545.5zM767 317q53 0 89 32.5t52.5 94t22.5 124.5t6 149q0 399 -170 399q-169 0 -169 -399q0 -86 6 -149t22.5 -124.5t52 -94 t88.5 -32.5z" glyph-name="zero.tnum" horiz-adv-x="1536"/><glyph d="M998 348h349v-348h-1158v348h349v696q-134 -100 -267 -138v389q140 26 263 139h464v-1086z" glyph-name="one.tnum" horiz-adv-x="1536"/><glyph d="M1400 348v-348h-1263v348q125 70 224.5 130.5t200.5 129.5t167.5 128.5t108.5 119.5t42 111q0 58 -40 98.5t-107 41.5q-216 3 -412 -105l-157 300q156 80 290.5 116.5t297.5 36.5q293 0 455.5 -111t162.5 -291q0 -71 -17 -137.5t-43 -120t-71 -108.5t-85.5 -95t-104 -88 t-109 -79t-116.5 -77h576z" glyph-name="two.tnum" horiz-adv-x="1536"/><glyph d="M204 1434h1137v-349l-380 -243q97 -18 162 -43q294 -110 288 -392q-2 -145 -87.5 -245t-225 -143.5t-321.5 -38.5q-207 5 -341.5 34.5t-311.5 113.5l180 316q79 -51 217.5 -85.5t250.5 -31.5q72 0 125.5 21.5t55.5 63.5q4 60 -69 109t-196 49q-166 0 -235 -10l-87 307 l450 218h-612v349z" glyph-name="three.tnum" horiz-adv-x="1536"/><glyph d="M1452 644v-348h-206v-296h-461v296h-702v348l633 790h530v-790h206zM508 644h277v361z" glyph-name="four.tnum" horiz-adv-x="1536"/><glyph d="M276 1434h1053v-349h-654l-15 -161q83 7 187.5 1t171.5 -24q184 -48 289.5 -171t103.5 -293q-2 -121 -50.5 -211.5t-135 -144.5t-199.5 -79.5t-249 -21.5q-207 5 -341.5 34.5t-311.5 113.5l180 316q78 -49 216 -83t252 -34q47 0 85 9.5t66.5 36t29.5 69.5 q2 50 -61.5 95.5t-156 70t-180.5 24.5q-96 0 -228 -20l-88 102z" glyph-name="five.tnum" horiz-adv-x="1536"/><glyph d="M1409 466q1 -99 -36 -181t-99 -137t-145 -93t-174 -54.5t-187 -16.5t-186 16.5t-173.5 54.5t-145.5 93t-99 137t-37 181q0 44 4 75.5t23 78t38.5 81t70 113t97.5 145.5t142 206.5t182 269.5h543l-361 -539q142 35 259 -2q132 -40 208 -156.5t76 -271.5zM768 281 q48 0 85 18t57 47t29 59.5t9 60.5t-9 60t-29 59t-57 47t-85 18t-85 -18t-57 -47t-29 -59t-9 -60t9 -60.5t29 -59.5t57 -47t85 -18z" glyph-name="six.tnum" horiz-adv-x="1536"/><glyph d="M210 1434h1116v-349q-206 -257 -333.5 -515.5t-168.5 -569.5h-481q41 317 163 578t318 507h-614v349z" glyph-name="seven.tnum" horiz-adv-x="1536"/><glyph d="M1409 404q1 -88 -33 -159t-93 -119.5t-141 -81.5t-175.5 -47.5t-198.5 -14.5q-104 0 -198 14.5t-175.5 47.5t-140.5 81.5t-93 119.5t-34 159q0 212 213 327q-136 111 -136 295q0 85 31 155.5t84.5 119.5t126 82.5t153.5 49.5t169 16t169 -16t153.5 -49.5t126 -82.5 t84.5 -119.5t31 -155.5q1 -183 -135 -295q212 -117 212 -327zM604 1005.5q0 -59.5 39 -98t125 -38.5t125 38.5t39 98t-39 98t-125 38.5t-125 -38.5t-39 -98zM768 289q95 0 137.5 38.5t42.5 97.5t-42.5 97.5t-137.5 38.5t-137.5 -38.5t-42.5 -97.5t42.5 -97.5t137.5 -38.5z " glyph-name="eight.tnum" horiz-adv-x="1536"/><glyph d="M127 972q-1 99 36 181t99 137t145 92.5t174 54.5t187 17t186 -17t173.5 -54.5t145.5 -92.5t99 -137t37 -181q0 -44 -4 -76t-23 -78t-38.5 -81t-70 -113t-97.5 -145t-142 -206.5t-182 -269.5h-543l361 539q-142 -35 -259 2q-132 40 -208 156.5t-76 271.5zM768 1157 q-48 0 -85 -18.5t-57 -47t-29 -59.5t-9 -60.5t9 -59.5t29 -59.5t57 -47.5t85 -18t85 18t57 47.5t29 59.5t9 59.5t-9 60.5t-29 59.5t-57 47t-85 18.5z" glyph-name="nine.tnum" horiz-adv-x="1536"/><glyph d="M1342 717q1 -361 -172 -549t-469 -188q-143 0 -259.5 46t-201.5 136t-132 231.5t-47 323.5q0 354 172.5 545.5t468 191.5t468 -191.5t172.5 -545.5zM701 1116q-169 0 -169 -399q0 -35 3 -101l256 463q-38 37 -90 37zM701 317q53 0 89 32.5t52.5 94t22.5 124.5t6 149 q0 94 -8 163l-275 -498q40 -65 113 -65z" glyph-name="zero.zero" horiz-adv-x="1403"/><glyph d="M820 430q1 -216 -103.5 -329t-281.5 -113t-280.5 112.5t-103.5 329.5q0 213 103.5 327.5t280.5 114.5t281 -114.5t104 -327.5zM435 190q33 0 54 19.5t31 56.5t14 74.5t4 89.5q0 240 -103 240q-101 0 -101 -240q0 -52 3.5 -89.5t13 -74.5t31 -56.5t53.5 -19.5z" glyph-name="zero.dnom" horiz-adv-x="871"/><glyph d="M537 209h208v-209h-694v209h209v418q-80 -59 -160 -83v233q85 16 158 83h279v-651z" glyph-name="one.dnom" horiz-adv-x="796"/><glyph d="M809 209v-209h-758v209q95 53 167.5 98.5t139.5 95.5t103 95t36 82q0 36 -24 60t-64 25q-130 2 -248 -64l-93 180q94 47 174.5 69.5t177.5 22.5q175 0 273 -66.5t98 -174.5q0 -58 -20 -112.5t-47.5 -93.5t-76.5 -82.5t-86 -69.5t-97 -65h345z" glyph-name="two.dnom" horiz-adv-x="860"/><glyph d="M99 860h682v-209l-228 -146q56 -9 98 -26q176 -66 172 -235q-2 -130 -107 -195t-273 -61q-124 3 -204.5 21t-187.5 68l109 189q47 -30 130.5 -50.5t149.5 -19.5q43 0 75.5 13t33.5 38q2 37 -41.5 66t-117.5 29q-100 0 -141 -6l-52 184l270 131h-368v209z" glyph-name="three.dnom" horiz-adv-x="874"/><glyph d="M854 386v-209h-123v-177h-276v177h-404v209l362 474h318v-474h123zM306 386h149v217z" glyph-name="four.dnom" horiz-adv-x="905"/><glyph d="M132 860h642v-209h-403l-9 -97q129 11 226 -13q111 -29 173.5 -102.5t61.5 -176.5q-2 -142 -106.5 -210t-273.5 -64q-124 3 -204.5 21t-187.5 68l109 189q46 -30 129.5 -50t150.5 -20q105 0 109 69q1 30 -40 57t-98.5 42t-110.5 15q-66 0 -142 -11l-48 60z" glyph-name="five.dnom" horiz-adv-x="874"/><glyph d="M820 292q0 -74 -33 -132t-89 -91t-123 -50t-140 -17q-57 0 -111.5 10.5t-104 33t-87 55.5t-59.5 82t-22 109q0 27 2.5 45.5t14 46.5t22.5 48.5t42 68t58.5 87.5t85 124t109.5 160h326l-216 -322q87 19 155 -2q79 -24 124.5 -94t45.5 -162zM435 180q55 0 82 35t27 77 q0 41 -27 75.5t-82 34.5q-54 0 -80.5 -34.5t-26.5 -75.5q0 -42 26 -77t81 -35z" glyph-name="six.dnom" horiz-adv-x="871"/><glyph d="M51 860h670v-209q-123 -155 -200 -310t-101 -341h-289q25 190 98 346.5t191 304.5h-369v209z" glyph-name="seven.dnom" horiz-adv-x="772"/><glyph d="M820 243q0 -66 -30.5 -115.5t-84.5 -79.5t-122 -44.5t-147 -14.5q-80 0 -147.5 14.5t-121.5 44.5t-85 79.5t-31 115.5q0 127 128 195q-82 67 -82 177q0 84 50 143t124.5 85t164.5 26t164.5 -26t124 -85t49.5 -143q1 -110 -81 -177q127 -68 127 -195zM338 603 q0 -36 23 -59t75 -23q51 0 75 23t24 59t-24 59t-75 23q-52 0 -75 -23t-23 -59zM436 173q56 0 82 23t26 59t-25.5 59t-82.5 23t-82.5 -23t-25.5 -59t25.5 -59t82.5 -23z" glyph-name="eight.dnom" horiz-adv-x="871"/><glyph d="M51 583q0 74 33.5 131.5t89 91t123 50t139.5 16.5q57 0 111.5 -10t104 -32.5t87 -56t59.5 -82.5t22 -108q0 -27 -2.5 -46t-13.5 -46.5t-22.5 -48t-42 -68t-58.5 -87.5t-85 -124t-110 -161h-325l216 323q-87 -19 -156 2q-79 24 -124.5 94t-45.5 162zM436.5 694 q-55.5 0 -82 -34.5t-26.5 -76.5q0 -41 26.5 -76t81.5 -35q54 0 81 35t27 76q0 42 -26 76.5t-81.5 34.5z" glyph-name="nine.dnom" horiz-adv-x="871"/><glyph d="M820 1001q1 -216 -103.5 -329t-281.5 -113t-280.5 112.5t-103.5 329.5q0 213 103.5 328t280.5 115t281 -115t104 -328zM435 762q33 0 54 19.5t31 56t14 74t4 89.5q0 240 -103 240q-101 0 -101 -240q0 -52 3.5 -89.5t13 -74t31 -56t53.5 -19.5z" glyph-name="zero.numr" horiz-adv-x="871"/><glyph d="M537 782h208v-209h-694v209h209v418q-80 -59 -160 -83v234q85 16 158 83h279v-652z" glyph-name="one.numr" horiz-adv-x="796"/><glyph d="M809 769v-209h-758v209q95 53 167.5 98.5t139.5 95.5t103 95t36 82q0 36 -24 60t-64 25q-130 2 -248 -64l-93 180q94 47 174.5 70t177.5 23q175 0 273 -67t98 -175q0 -58 -20 -112.5t-47.5 -93.5t-76.5 -82.5t-86 -69.5t-97 -65h345z" glyph-name="two.numr" horiz-adv-x="860"/><glyph d="M99 1434h682v-209l-228 -147q56 -9 98 -25q176 -66 172 -236q-2 -130 -107 -195t-273 -61q-124 3 -204.5 21t-187.5 68l109 190q47 -30 130.5 -51t149.5 -20q43 0 75.5 13.5t33.5 37.5q2 37 -41.5 66t-117.5 29q-100 0 -141 -6l-52 185l270 131h-368v209z" glyph-name="three.numr" horiz-adv-x="874"/><glyph d="M854 959v-208h-123v-178h-276v178h-404v208l362 475h318v-475h123zM306 959h149v218z" glyph-name="four.numr" horiz-adv-x="905"/><glyph d="M132 1434h642v-209h-403l-9 -98q129 11 226 -13q111 -29 173.5 -102.5t61.5 -175.5q-2 -142 -106.5 -210.5t-273.5 -64.5q-124 3 -204.5 21t-187.5 68l109 190q46 -30 129.5 -50.5t150.5 -20.5q105 0 109 70q1 30 -40 57t-98.5 41.5t-110.5 14.5q-66 0 -142 -11l-48 60z " glyph-name="five.numr" horiz-adv-x="874"/><glyph d="M820 853q0 -74 -33 -131.5t-89 -91t-123 -50.5t-140 -17q-57 0 -111.5 10.5t-104 33t-87 55.5t-59.5 82.5t-22 108.5q0 27 2.5 46t14 46.5t22.5 48t42 68t58.5 87.5t85 124t109.5 161h326l-216 -323q87 19 155 -2q79 -24 124.5 -94t45.5 -162zM435 741q55 0 82 35t27 77 q0 41 -27 76t-82 35q-54 0 -80.5 -35t-26.5 -76q0 -42 26 -77t81 -35z" glyph-name="six.numr" horiz-adv-x="871"/><glyph d="M51 1434h670v-209q-123 -155 -200 -310t-101 -342h-289q25 190 98 346.5t191 305.5h-369v209z" glyph-name="seven.numr" horiz-adv-x="772"/><glyph d="M820 817q0 -66 -30.5 -115.5t-84.5 -79t-122 -44.5t-147 -15q-80 0 -147.5 15t-121.5 44.5t-85 79.5t-31 115q0 127 128 196q-82 67 -82 177q0 84 50 143t124.5 85t164.5 26t164.5 -26t124 -85t49.5 -143q1 -110 -81 -177q127 -69 127 -196zM338 1177.5q0 -35.5 23 -58.5 t75 -23q51 0 75 23t24 58.5t-24 59t-75 23.5q-52 0 -75 -23.5t-23 -59zM436 748q56 0 82 23t26 58.5t-25.5 58.5t-82.5 23t-82.5 -23t-25.5 -58.5t25.5 -58.5t82.5 -23z" glyph-name="eight.numr" horiz-adv-x="871"/><glyph d="M51 1154q0 74 33.5 131.5t89 91t123 50.5t139.5 17q57 0 111.5 -10.5t104 -33t87 -55.5t59.5 -82.5t22 -108.5q0 -27 -2.5 -45.5t-13.5 -46.5t-22.5 -48.5t-42 -68t-58.5 -87.5t-85 -124t-110 -161h-325l216 323q-87 -19 -156 2q-79 24 -124.5 94t-45.5 162zM436.5 1266 q-55.5 0 -82 -35t-26.5 -77q0 -41 26.5 -76t81.5 -35q54 0 81 35t27 76q0 42 -26 77t-81.5 35z" glyph-name="nine.numr" horiz-adv-x="871"/><glyph d="M123 1024h717v-614h-717v614z" glyph-name="bullet.aalt" horiz-adv-x="962"/><glyph d="M347 -307q-225 505 -224.5 1027t224.5 1021h424q-186 -447 -185 -1016t185 -1032h-424z" glyph-name="parenleft.aalt" horiz-adv-x="893"/><glyph d="M547 -307h-424q184 463 185 1031.5t-185 1016.5h424q224 -499 224.5 -1021t-224.5 -1027z" glyph-name="parenright.aalt" horiz-adv-x="893"/><glyph d="M710 -282q-420 0 -420 398v320q0 60 -37.5 92t-129.5 35v307q92 3 129.5 35t37.5 92v321q0 397 420 397h251v-307h-76q-77 0 -105.5 -28.5t-28.5 -105.5v-363q0 -184 -239 -192v-4q239 -8 239 -193v-362q0 -77 28.5 -105.5t105.5 -28.5h76v-308h-251z" glyph-name="braceleft.aalt" horiz-adv-x="1083"/><glyph d="M374 -282h-251v308h76q77 0 105.5 28.5t28.5 105.5v362q0 184 238 193v4q-239 8 -238 192v363q0 77 -29 105.5t-105 28.5h-76v307h251q420 0 420 -397v-321q0 -60 37 -92t130 -35v-307q-92 -3 -129.5 -34.5t-37.5 -92.5v-320q0 -398 -420 -398z" glyph-name="braceright.aalt" horiz-adv-x="1083"/><glyph d="M123 1715h728v-307h-267v-1382h267v-308h-728v1997z" glyph-name="bracketleft.aalt" horiz-adv-x="973"/><glyph d="M851 1715v-1997h-728v308h267v1382h-267v307h728z" glyph-name="bracketright.aalt" horiz-adv-x="973"/><glyph d="M123 891h614v-348h-614v348z" glyph-name="hyphen.aalt" horiz-adv-x="860"/><glyph d="M123 891h1024v-348h-1024v348z" glyph-name="endash.aalt" horiz-adv-x="1269"/><glyph d="M123 891h1433v-348h-1433v348z" glyph-name="emdash.aalt" horiz-adv-x="1679"/><glyph d="M925 1075l-338 -384l338 -384h-464l-338 384l338 384h464zM1593 1075l-338 -384l338 -384h-464l-337 384l337 384h464z" glyph-name="guillemotleft.aalt" horiz-adv-x="1716"/><glyph d="M123 1075h464l338 -384l-338 -384h-464l338 384zM792 1075h463l338 -384l-338 -384h-463l337 384z" glyph-name="guillemotright.aalt" horiz-adv-x="1716"/><glyph d="M925 1075l-338 -384l338 -384h-464l-338 384l338 384h464z" glyph-name="guilsinglleft.aalt" horiz-adv-x="1047"/><glyph d="M123 1075h464l338 -384l-338 -384h-464l338 384z" glyph-name="guilsinglright.aalt" horiz-adv-x="1047"/><glyph d="M1581 607q-40 -176 -169 -321l298 -286h-507l-79 76q-198 -96 -417 -96q-307 0 -481.5 118.5t-174.5 316.5q0 141 93 248t244 134q-54 22 -92 58.5t-56.5 80t-25.5 82.5t-7 79q0 165 150.5 261t403.5 96q164 0 293 -43.5t203 -125t74 -188.5q0 -112 -102 -208t-283 -159 l222 -211q44 80 59 179zM786 1180q-61 0 -99.5 -30t-38.5 -72q0 -34 22.5 -67t89.5 -101q81 31 123.5 76.5t42.5 89.5t-37.5 74t-102.5 30zM749 271q81 0 151 25l-312 307q-86 -58 -86 -150q0 -77 66.5 -129.5t180.5 -52.5z" glyph-name="ampersand.aalt" horiz-adv-x="1761"/><glyph d="M-1006 1803h399v-298h-399v298zM-520 1803h397v-298h-397v298z" glyph-name="uni0308.aalt" horiz-adv-x="0"/><glyph d="M-521 1803h398v-298h-398v298z" glyph-name="uni0307.aalt" horiz-adv-x="0"/><glyph d="M-727 1812h423l181 -307h-338z" glyph-name="gravecomb.aalt" horiz-adv-x="0"/><glyph d="M-123 1812l-266 -307h-338l181 307h423z" glyph-name="acutecomb.aalt" horiz-adv-x="0"/><glyph d="M-492 1833l-163 -348h-291l161 348h293zM-123 1833l-164 -348h-291l161 348h294z" glyph-name="uni030B.aalt" horiz-adv-x="0"/><glyph d="M-123 1485h-338l-131 192l-131 -192h-338l233 307h473z" glyph-name="uni0302.aalt" horiz-adv-x="0"/><glyph d="M-461 1792h338l-232 -307h-473l-233 307h338l131 -193z" glyph-name="uni030C.aalt" horiz-adv-x="0"/><glyph d="M-123 1792q-33 -145 -134 -226t-251 -81q-151 0 -252 81t-134 226h266q20 -97 120 -97q48 0 79 26.5t40 70.5h266z" glyph-name="uni0306.aalt" horiz-adv-x="0"/><glyph d="M-404.5 1485q-115.5 0 -198.5 83t-83 198.5t83 198.5t198.5 83t198.5 -83t83 -198.5t-83 -198.5t-198.5 -83zM-404.5 1689q31.5 0 54.5 23t23 54.5t-23 54.5t-54.5 23t-54.5 -23t-23 -54.5t23 -54.5t54.5 -23z" glyph-name="uni030A.aalt" horiz-adv-x="0"/><glyph d="M-926 1485q0 151 67 223t167 72q63 0 160 -33t135 -33q54 0 57 66h217q0 -151 -67 -223t-166 -72q-62 0 -159 32.5t-136 32.5q-54 0 -58 -65h-217z" glyph-name="tildecomb.aalt" horiz-adv-x="0"/><glyph d="M-737 1741h614v-256h-614v256z" glyph-name="uni0304.aalt" horiz-adv-x="0"/><glyph d="M-162 1574h-345l115 490h307z" glyph-name="uni0312.aalt" horiz-adv-x="0"/><glyph d="M-123 1485q-33 -145 -134 -226t-251 -81q-151 0 -252 80.5t-134 226.5h266q20 -97 120 -97q48 0 79 26.5t40 70.5h266z" glyph-name="glyph666" horiz-adv-x="0"/><glyph d="M778.5 0q-194.5 0 -359.5 96.5t-261.5 261t-96.5 359t96.5 359.5t261.5 261.5t359.5 96.5t359.5 -96.5t261 -261.5t96 -359.5t-96 -359t-261 -261t-359.5 -96.5zM1167 977l-162 32v-420q0 -11 -13 -20t-33 -9q-17 0 -30 9t-13 20v322h-537l-31 -135h138v-337h162v337h105 v-220q0 -53 60.5 -91.5t145.5 -38.5q86 0 147 38t61 92v421z" glyph-name="glyph667" horiz-adv-x="1556"/></font>
</defs>
</svg>
