<?xml version="1.0" standalone="no"?>
<!DOCTYPE svg PUBLIC "-//W3C//DTD SVG 1.1//EN" "http://www.w3.org/Graphics/SVG/1.1/DTD/svg11.dtd">
<svg xmlns="http://www.w3.org/2000/svg"><metadata>This SVG WebFont was generated by YouWorkForThem.
Copyright Â© 2019 by TypeUnion. All rights reserved.</metadata><defs><font horiz-adv-x="0" id="ywftsvg"><font-face ascent="1638" bbox="-693 -534 2610.43 2009" cap-height="1434" descent="-410" font-family="" font-stretch="normal" font-weight="300" panose-1="0 0 4 0 0 0 0 0 0 0" underline-position="0" underline-thickness="0" unicode-range="U+0020-FB02" units-per-em="2048" x-height="1117"/><missing-glyph d="M329 1434h907l-201 -1434h-907zM951 89l177 1256h-714l-177 -1256h714z" horiz-adv-x="1319"/><glyph d="M1330 1117l-11 -90h-1l-143 -1027h-118l143 1027h-678l-144 -1027h-118l144 1027h-178l13 90h178l27 194q13 98 71 161.5t140 63.5h222l-13 -86h-162q-57 0 -95 -44t-49 -120l-23 -169h795zM1234 1434h164l-15 -105h-163z" glyph-name="uniFB01" horiz-adv-x="1459" unicode="fi"/><glyph d="M1382 1536l-216 -1536h-117l203 1450h-550q-57 0 -95 -44t-49 -120l-23 -169h282l-12 -90h-283l-144 -1027h-118l144 1027h-178l13 90h178l27 194q13 98 71 161.5t140 63.5h727z" glyph-name="uniFB02" horiz-adv-x="1443" unicode="fl"/><glyph d="M1556 1450q-57 0 -95 -44t-49 -120l-23 -169h281l-11 -90h-283l-144 -1027h-118l144 1027h-736l-144 -1027h-118l144 1027h-178l13 90h178l27 194q13 98 71 161.5t140 63.5h222l-13 -86h-162q-57 0 -95 -44t-49 -120l-23 -169h736l27 194q13 98 71 161.5t140 63.5h221 l-13 -86h-161z" glyph-name="f_f.liga" horiz-adv-x="1790" unicode="ff"/><glyph d="M2193 1117l-156 -1117h-118l144 1027h-687l-144 -1027h-118l144 1027h-736l-144 -1027h-118l144 1027h-178l13 90h178l27 194q13 98 71 161.5t140 63.5h222l-13 -86h-162q-57 0 -95 -44t-49 -120l-23 -169h736l27 194q13 98 71 161.5t140 63.5h221l-13 -86h-161 q-57 0 -95 -44t-49 -120l-23 -169h804zM2097 1434h164l-14 -105h-164z" glyph-name="f_f_i.liga" horiz-adv-x="2322" unicode="ffi"/><glyph d="M329 1434h907l-201 -1434h-907zM951 89l177 1256h-714l-177 -1256h714z" glyph-name=".notdef" horiz-adv-x="1319"/><glyph glyph-name="glyph1"/><glyph glyph-name="glyph2" horiz-adv-x="681"/><glyph glyph-name="space" horiz-adv-x="493" unicode=" "/><glyph d="M209 316l143 1118h118l-170 -1118h-91zM128 0l15 104h164l-15 -104h-164z" glyph-name="exclam" horiz-adv-x="577" unicode="!"/><glyph d="M395 1518h109l-138 -457h-90zM606 1518h109l-138 -457h-90z" glyph-name="quotedbl" horiz-adv-x="785" unicode="&quot;"/><glyph d="M1155 955l-191 -477h280l-32 -88h-281l-156 -390h-122l156 390h-401l-156 -390h-123l156 390h-258l31 88h258l193 477h-281l32 88h280l155 391h123l-155 -391h401l156 391h122l-155 -391h258l-32 -88h-258zM1032 955h-400l-193 -477h402z" glyph-name="numbersign" horiz-adv-x="1428" unicode="#"/><glyph d="M737 755q49 -14 88.5 -27.5t79.5 -29.5t69.5 -32.5t58 -36.5t46.5 -41t34 -47t21.5 -54.5t8.5 -63.5t-6 -73q-16 -98 -97 -177t-192 -123.5t-236 -56.5l-23 -161h-71l22 157h-12q-281 0 -442 121l17 112q166 -136 440 -136q105 0 209 34t178.5 98t86.5 140q8 56 -10 101 t-41.5 72t-91 56.5t-106 42.5t-137.5 42q-39 11 -59 17q-93 29 -159.5 60.5t-117.5 76t-71 103.5t-8 134q28 165 166 268.5t362 113.5l23 157h71l-22 -156q193 -6 335 -98l-16 -110q-156 113 -356 111q-185 0 -302 -79.5t-138 -211.5q-6 -37 1.5 -69.5t23 -57t48 -47.5 t61.5 -38.5t80.5 -33.5t87 -29t96.5 -28z" glyph-name="dollar" horiz-adv-x="1311" unicode="$"/><glyph d="M869 1007q-30 -216 -131.5 -327t-253.5 -111q-151 0 -221 111t-40 327q30 215 132 326t252 111q152 0 222 -111t40 -326zM1411 1434h79l-968 -1434h-77zM494 640q116 0 191.5 94t100.5 273q25 178 -24.5 272t-164.5 94t-190 -94t-100.5 -272.5t23.5 -272.5t164 -94z M1707 430q-31 -216 -132.5 -326.5t-252.5 -110.5t-221.5 110.5t-39.5 326.5q30 215 131 326t252.5 111t222 -111t40.5 -326zM1331.5 63q114.5 0 190.5 94.5t102 272.5q25 178 -25 272.5t-164.5 94.5t-190 -94.5t-101 -272.5t24 -272.5t164 -94.5z" glyph-name="percent" horiz-adv-x="1885" unicode="%"/><glyph d="M1378 824l-12 -90h-108l-46 -334q-14 -103 -73 -185t-144.5 -129.5t-182 -72t-196.5 -24.5q-79 0 -152 14.5t-138 47t-111 79.5t-67.5 116.5t-9.5 153.5q20 146 125 244t250 139q-100 38 -157 117.5t-41 194.5q15 113 92 194t183.5 118.5t230.5 37.5q92 0 170 -22 t136 -64.5t86 -110.5t16 -153l-109 -4q17 127 -72 195.5t-240 68.5t-259 -68.5t-126 -195.5q-9 -66 14 -118t69 -84t104.5 -48.5t122.5 -16.5h645zM1093 404l46 330h-418q-106 0 -204 -36t-171.5 -113t-87.5 -181q-9 -66 7 -121t50.5 -92t85.5 -63.5t108 -38t120 -11.5 q80 0 155 19.5t141 58t111.5 102.5t56.5 146z" glyph-name="ampersand" horiz-adv-x="1501" unicode="&amp;"/><glyph d="M395 1518h109l-138 -457h-90z" glyph-name="quotesingle" horiz-adv-x="574" unicode="'"/><glyph d="M279 -466q-146 505 -72 1027.5t360 1020.5h111q-561 -997 -289 -2048h-110z" glyph-name="parenleft" horiz-adv-x="740" unicode="("/><glyph d="M174 -466h-111q280 517 353 1028.5t-66 1019.5h111q147 -497 74 -1021t-361 -1027z" glyph-name="parenright" horiz-adv-x="741" unicode=")"/><glyph d="M808 1213l-235 -95l130 -192l-64 -45l-129 191l-182 -191l-52 45l183 192l-207 95l37 68l201 -93l34 246h73l-34 -246l228 93z" glyph-name="asterisk" horiz-adv-x="876" unicode="*"/><glyph d="M1092 762l-13 -90h-369l-54 -377h-117l53 377h-370l14 90h369l52 377h118l-52 -377h369z" glyph-name="plus" horiz-adv-x="1269" unicode="+"/><glyph d="M188 131h127l-151 -455h-101z" glyph-name="comma" horiz-adv-x="580" unicode=","/><glyph d="M214 607h446l-14 -97h-446z" glyph-name="hyphen" horiz-adv-x="860" unicode="-"/><glyph d="M148 140h164l-20 -140h-164z" glyph-name="period" horiz-adv-x="577" unicode="."/><glyph d="M805 1434l-654 -1434h-121l654 1434h121z" glyph-name="slash" horiz-adv-x="790" unicode="/"/><glyph d="M1245 717q-50 -360 -220 -544.5t-422 -184.5q-251 0 -368.5 184t-67.5 545q51 358 220.5 543.5t421.5 185.5t369.5 -185.5t66.5 -543.5zM617 83q200 0 332.5 162.5t175.5 471.5q43 308 -44 471t-286.5 163t-331.5 -162.5t-176 -471.5q-43 -309 43 -471.5t287 -162.5z" glyph-name="zero" horiz-adv-x="1368" unicode="0"/><glyph d="M615 97h357l-13 -97h-831l13 97h357l174 1230q-166 -79 -311 -117l16 108q153 37 308 116h119z" glyph-name="one" horiz-adv-x="1244" unicode="1"/><glyph d="M1140 97l-14 -97h-1059l13 97q75 56 208 152t230 165.5t215 163.5t195 167.5t133.5 154.5t65.5 147q18 136 -72.5 219t-278.5 83q-228 2 -425 -136l-42 80q228 153 485 153q244 0 364 -104.5t95 -278.5q-8 -59 -42 -125.5t-83.5 -126.5t-120 -128.5t-140 -125.5 t-157.5 -124t-159.5 -118t-158 -113.5t-140.5 -104.5h888z" glyph-name="two" horiz-adv-x="1349" unicode="2"/><glyph d="M310 1434h952l-14 -98l-641 -531q95 15 178 10q199 -9 304.5 -116.5t78.5 -289.5q-30 -204 -180.5 -313t-406.5 -108q-306 2 -495 151l69 83q74 -66 194.5 -102.5t244.5 -34.5q202 1 318.5 85t139.5 241q23 152 -76 240.5t-280 88.5q-143 0 -255 -47l-31 81l695 562h-807 z" glyph-name="three" horiz-adv-x="1334" unicode="3"/><glyph d="M1309 485l-14 -97h-277l-54 -388h-118l54 388h-717l13 97l833 949h135l-133 -949h278zM314 485h599l116 820z" glyph-name="four" horiz-adv-x="1525" unicode="4"/><glyph d="M388 1434h836l-14 -98h-730l-111 -513q196 43 406 36q204 -9 314.5 -120.5t81.5 -306.5q-32 -220 -182 -332.5t-408 -111.5q-306 2 -495 151l69 83q74 -66 194 -102t245 -35q412 3 461 348q23 160 -84 251.5t-291 91.5q-190 0 -399 -44l-32 35z" glyph-name="five" horiz-adv-x="1334" unicode="5"/><glyph d="M1257 481q-13 -98 -57 -180.5t-106.5 -139.5t-141.5 -96t-160.5 -57.5t-164.5 -18.5t-160 18.5t-144 57.5t-113.5 96t-67.5 139.5t-8 180.5q6 40 13 70t23 65.5t31 61t52.5 72t68.5 81t97 105t123 128.5t161 165.5t196 204.5h143l-503 -523q142 60 290 53 q75 -3 142.5 -22.5t126.5 -59t99 -95t56.5 -134.5t3.5 -172zM640 76q86 0 168 26t151.5 74.5t118 127.5t62.5 177q14 100 -12.5 179.5t-83.5 128t-131 73t-159 24.5q-115 0 -221 -45.5t-185 -140t-96 -219.5q-13 -98 13.5 -177t82.5 -127.5t131 -74.5t161 -26z" glyph-name="six" horiz-adv-x="1414" unicode="6"/><glyph d="M267 1434h935l-13 -98q-539 -581 -756 -1336h-123q223 771 748 1336h-803z" glyph-name="seven" horiz-adv-x="1224" unicode="7"/><glyph d="M1197 400q-14 -103 -73 -185t-144.5 -129.5t-182 -72t-196.5 -24.5q-79 0 -152 14.5t-138 47t-111 79.5t-67.5 116.5t-9.5 153.5q10 75 45.5 140t87.5 111.5t112.5 79.5t129.5 52q-100 38 -156.5 117.5t-40.5 194.5q15 113 91.5 194t183 118.5t230.5 37.5q92 0 170 -22 t136 -64.5t86 -110.5t16 -153q-16 -115 -94.5 -194.5t-189.5 -117.5q62 -20 113.5 -53t91 -79t56 -111t6.5 -140zM409 1091q-12 -86 31.5 -148.5t117 -90.5t161.5 -28q89 0 170 28t143 90.5t73 148.5q18 127 -71 195.5t-240 68.5t-259 -68.5t-126 -195.5zM614 78 q80 0 155.5 19.5t141.5 58t111 103t56 145.5q10 78 -16.5 142t-80.5 104.5t-125 62t-149 21.5q-106 0 -205 -36t-171.5 -113t-86.5 -181q-9 -66 6.5 -121t50.5 -92t85.5 -63.5t108 -38t119.5 -11.5z" glyph-name="eight" horiz-adv-x="1363" unicode="8"/><glyph d="M201 952q13 98 57 181.5t107 140t141.5 96t160.5 58t164.5 18.5t160 -18.5t144.5 -58t113.5 -96t67.5 -139.5t8 -182q-6 -40 -12.5 -69.5t-23 -65.5t-31.5 -61t-52.5 -71t-68.5 -81.5t-97.5 -105t-123.5 -128t-161 -166t-196 -203.5h-143l504 522q-140 -59 -291 -53 q-93 4 -175 35.5t-146 88.5t-93.5 149.5t-13.5 208.5zM819 1358q-86 0 -168 -26t-152 -75t-118.5 -127.5t-62.5 -177.5q-14 -100 12.5 -179t84 -127t132 -73t159.5 -25q84 0 166.5 27t153 76.5t119.5 128t62 172.5q13 98 -13.5 177t-82.5 128t-131 75t-161 26z" glyph-name="nine" horiz-adv-x="1414" unicode="9"/><glyph d="M285 1117h164l-20 -140h-164zM148 140h164l-20 -140h-164z" glyph-name="colon" horiz-adv-x="577" unicode=":"/><glyph d="M285 1117h164l-20 -140h-164zM167 131h126l-152 -455h-99z" glyph-name="semicolon" horiz-adv-x="577" unicode=";"/><glyph d="M1151 978l-14 -107l-813 -225l749 -226l-15 -107l-850 256l7 46h-1l15 107z" glyph-name="less" horiz-adv-x="1299" unicode="&lt;"/><glyph d="M1103 843h-856l12 90h857zM1055 501h-856l12 90h857z" glyph-name="equal" horiz-adv-x="1269" unicode="="/><glyph d="M1116 722l-15 -107l-7 -46l-922 -256l15 107l813 226l-750 225l15 107z" glyph-name="greater" horiz-adv-x="1299" unicode=">"/><glyph d="M621 1434q227 1 347.5 -110t92.5 -311q-25 -182 -143.5 -290t-292.5 -117q-52 -5 -110 -3l-43 -282h-101l43 375q57 -15 141 -15q156 0 262 89t127 241q20 154 -71.5 239.5t-266.5 85.5q-204 1 -364 -91l15 111q158 77 364 78zM297 0l14 104h164l-14 -104h-164z" glyph-name="question" horiz-adv-x="1141" unicode="?"/><glyph d="M1220 -74q-179 -78 -371 -78q-167 0 -308 62t-232.5 167.5t-133 253.5t-17.5 314q23 163 105 309.5t203.5 253t279 169t324.5 62.5q166 0 306 -61t231.5 -165t134 -248.5t19.5 -305.5q-32 -222 -126 -334t-235 -112q-106 0 -162 61.5t-47 172.5q-54 -97 -147.5 -145.5 t-192.5 -48.5q-73 0 -133.5 23t-106 68.5t-64.5 123t-4 176.5q13 98 54 175t99.5 123.5t126 70.5t139.5 24q98 0 177.5 -50t106.5 -147l30 188h83l-79 -556q-12 -83 29 -129.5t111 -46.5q94 0 164 87.5t96 273.5q20 145 -17 275.5t-119 224.5t-208.5 149.5t-277.5 55.5 q-150 0 -291 -56.5t-250 -152t-183.5 -228t-94.5 -280.5q-29 -201 43.5 -367t225 -261t351.5 -95q173 0 343 74zM1197 616l8 57q5 72 -12 128.5t-52 91.5t-80.5 53t-97.5 18q-119 0 -211.5 -83.5t-113.5 -236.5q-23 -155 47 -236.5t188 -81.5q115 0 206 72t118 218z" glyph-name="at" horiz-adv-x="1891" unicode="@"/><glyph d="M1151 0l-88 346h-773l-186 -346h-132l772 1434h169l370 -1434h-132zM342 443h696l-224 884z" glyph-name="A" horiz-adv-x="1412" unicode="A"/><glyph d="M329 1434h613q73 0 135 -22.5t108.5 -67t67.5 -116.5t9 -163q-17 -122 -82.5 -207t-156.5 -122q110 -30 167.5 -120.5t36.5 -237.5q-13 -94 -56.5 -168.5t-105 -119t-133.5 -67.5t-149 -23h-655zM442 1343l-82 -580h453q80 0 145 26t116 93t66 171q20 150 -50 220 t-195 70h-453zM773 89q81 -1 147.5 27.5t117.5 96.5t64 169q11 78 -4 136.5t-51 91t-84 48.5t-107 16h-508l-83 -585h508z" glyph-name="B" horiz-adv-x="1397" unicode="B"/><glyph d="M1307 1247q-154 101 -349 96q-88 -2 -174 -26.5t-167 -75t-147 -122.5t-113 -175.5t-64.5 -226.5t0.5 -226.5t63.5 -175t113 -123t146.5 -76t166 -26.5q196 -3 376 97l-15 -110q-176 -89 -375 -89q-106 0 -203.5 28.5t-179 88t-137 144.5t-78 205t-3 262.5t76.5 263.5 t136.5 205.5t178 144.5t203.5 88t212 28q196 0 349 -89z" glyph-name="C" horiz-adv-x="1417" unicode="C"/><glyph d="M1419 717q-19 -144 -71.5 -263t-126.5 -202.5t-169.5 -141t-202 -84t-221.5 -26.5h-500l201 1434h499q146 0 264 -44t201 -130t117.5 -225.5t8.5 -317.5zM632 97q123 0 232.5 39.5t198 115t149.5 194.5t82.5 270.5t-6 271t-95.5 195t-166 114.5t-221 39h-365l-175 -1239 h366z" glyph-name="D" horiz-adv-x="1542" unicode="D"/><glyph d="M266 97h871l-14 -97h-995l201 1434h996l-13 -98h-871l-81 -571h787l-13 -96h-787z" glyph-name="E" horiz-adv-x="1408" unicode="E"/><glyph d="M254 0h-126l201 1434h955l-13 -98h-830l-81 -571h748l-13 -96h-748z" glyph-name="F" horiz-adv-x="1367" unicode="F"/><glyph d="M864 769h466l-90 -642q-221 -139 -472 -139q-134 0 -251.5 46t-205.5 134t-128.5 230.5t-15.5 318.5q19 142 76 263t136.5 205.5t178 144.5t203.5 88t212 28q197 0 349 -89l-15 -106q-154 102 -349 98q-88 -1 -174 -26.5t-167 -77t-147 -124.5t-113 -177t-64.5 -227 t0.5 -227t63 -177t112.5 -125t146.5 -77t166 -26q89 -1 193 30.5t166 75.5l67 487h-356z" glyph-name="G" horiz-adv-x="1507" unicode="G"/><glyph d="M1288 1434h125l-201 -1434h-125l94 669h-834l-93 -669h-126l201 1434h126l-95 -669h834z" glyph-name="H" horiz-adv-x="1497" unicode="H"/><glyph d="M254 0h-126l201 1434h126z" glyph-name="I" horiz-adv-x="538" unicode="I"/><glyph d="M145 125q102 -42 230 -38q265 4 313 346l140 1001h125l-140 -1003q-60 -443 -444 -443q-143 0 -238 34z" glyph-name="J" horiz-adv-x="1037" unicode="J"/><glyph d="M1340 1434l-843 -712l643 -722h-150l-636 714l-100 -714h-126l201 1434h126l-99 -704l835 704h149z" glyph-name="K" horiz-adv-x="1301" unicode="K"/><glyph d="M455 1434l-189 -1337h828l-13 -97h-953l201 1434h126z" glyph-name="L" horiz-adv-x="1318" unicode="L"/><glyph d="M1604 1434h181l-201 -1434h-125l180 1284l-695 -1095h-123l-387 1095l-180 -1284h-126l201 1434h182l391 -1109z" glyph-name="M" horiz-adv-x="1868" unicode="M"/><glyph d="M1359 1434h125l-201 -1434h-138l-715 1256l-176 -1256h-126l201 1434h138l716 -1254z" glyph-name="N" horiz-adv-x="1567" unicode="N"/><glyph d="M1573 717q-25 -177 -105 -319.5t-193.5 -230t-243.5 -133.5t-264 -46q-106 0 -202.5 28t-178.5 87.5t-137.5 144t-78.5 205.5t-3.5 263.5t76.5 263.5t136.5 205.5t178 144.5t203.5 88t211.5 28t203.5 -28t179 -88t137 -144.5t77.5 -205.5t3.5 -263zM781 85 q111 0 218.5 40.5t200 116t159.5 199t89 276.5q17 123 -0.5 227.5t-63 177.5t-112.5 125t-146.5 77t-167 25t-174 -25t-167.5 -77t-147 -125t-113 -177.5t-64.5 -227.5t0.5 -227.5t63 -177.5t112 -125.5t146 -77t167 -24.5z" glyph-name="O" horiz-adv-x="1695" unicode="O"/><glyph d="M904 1434q214 0 324.5 -113.5t83.5 -312.5q-34 -247 -267.5 -357.5t-715.5 -113.5l-75 -537h-126l201 1434h575zM1187 1008q22 158 -59.5 245t-240.5 87h-446l-99 -709q285 1 464.5 41t271 121.5t109.5 214.5z" glyph-name="P" horiz-adv-x="1393" unicode="P"/><glyph d="M972.5 1446q106.5 0 203.5 -28t179 -88t137 -144.5t77.5 -205.5t3.5 -263q-18 -133 -68.5 -247t-121.5 -196.5t-160 -143.5t-184.5 -95t-195.5 -43q40 -97 106.5 -164t169.5 -114l-67 -74q-114 46 -198 137.5t-124 211.5q-101 5 -193 36t-168.5 91.5t-128.5 144 t-72.5 201.5t-0.5 255q19 142 76 263t136.5 205.5t178 144.5t203.5 88t211.5 28zM1448 717q17 123 -0.5 227.5t-63 177.5t-112.5 125t-146.5 77t-167 25t-174 -25t-167.5 -77t-147 -125t-113 -177.5t-64.5 -227.5t0.5 -227.5t63 -177.5t112 -125.5t146 -77t167 -24.5 q111 0 218.5 40.5t200 116t159.5 199t89 276.5z" glyph-name="Q" horiz-adv-x="1695" unicode="Q"/><glyph d="M904 1434q214 0 324.5 -113.5t83.5 -312.5q-22 -157 -121 -257t-287 -152l283 -599h-131l-270 572q-186 -34 -457 -35l-75 -537h-126l201 1434h575zM1187 1008q22 158 -59.5 245t-240.5 87h-446l-99 -709q425 1 621 89.5t224 287.5z" glyph-name="R" horiz-adv-x="1411" unicode="R"/><glyph d="M103 222q166 -136 440 -136q105 0 209 34t178.5 98t86.5 140q8 56 -10 101t-41.5 72t-91 56.5t-106 42.5t-137.5 42q-39 11 -59 17q-93 29 -159.5 60.5t-117.5 76t-71 103.5t-8 134q29 174 181 278.5t396 104.5q207 0 358 -98l-16 -110q-156 113 -356 111 q-185 0 -302 -79.5t-138 -211.5q-6 -37 1.5 -69.5t23 -57t48 -47.5t61.5 -38.5t80.5 -33.5t87 -29t96.5 -28q49 -14 88.5 -27.5t79.5 -29.5t69.5 -32.5t58 -36.5t46.5 -41t34 -47t21.5 -54.5t8.5 -63.5t-6 -73q-18 -109 -114 -193t-226.5 -126t-268.5 -42q-281 0 -442 121z " glyph-name="S" horiz-adv-x="1311" unicode="S"/><glyph d="M1194 1434l-13 -98h-447l-188 -1336h-125l187 1336h-446l13 98h1019z" glyph-name="T" horiz-adv-x="1123" unicode="T"/><glyph d="M1380 1434l-125 -891q-41 -293 -184.5 -424t-419.5 -131q-274 0 -381 131t-66 424l125 891h126l-128 -908q-32 -232 46 -336.5t293 -104.5t322.5 104.5t139.5 336.5l127 908h125z" glyph-name="U" horiz-adv-x="1464" unicode="U"/><glyph d="M1331 1434h132l-761 -1434h-168l-359 1434h132l327 -1324z" glyph-name="V" horiz-adv-x="1392" unicode="V"/><glyph d="M1881 1434h131l-614 -1434h-140l-188 1269l-544 -1269h-139l-212 1434h130l178 -1267l540 1267h141l184 -1267z" glyph-name="W" horiz-adv-x="1941" unicode="W"/><glyph d="M1424 1434l-621 -714l429 -720h-143l-382 636l-559 -636h-143l632 720l-423 714h142l376 -629l551 629h141z" glyph-name="X" horiz-adv-x="1393" unicode="X"/><glyph d="M1208 1434h137l-640 -843l-83 -591h-126l83 591l-404 843h136l347 -720z" glyph-name="Y" horiz-adv-x="1273" unicode="Y"/><glyph d="M1357 1434l-14 -98l-1046 -1239h872l-13 -97h-1028l13 97l1046 1239h-871l13 98h1028z" glyph-name="Z" horiz-adv-x="1440" unicode="Z"/><glyph d="M342 1524h473l-12 -90h-356l-246 -1750h355l-12 -91h-472z" glyph-name="bracketleft" horiz-adv-x="885" unicode="["/><glyph d="M230 1434h121l253 -1434h-121z" glyph-name="backslash" horiz-adv-x="790" unicode="\"/><glyph d="M815 1524l-271 -1931h-472l11 91h355l247 1750h-355l12 90h473z" glyph-name="bracketright" horiz-adv-x="885" unicode="]"/><glyph d="M786 869h-87l-111 499l-249 -499h-88l283 565h126z" glyph-name="asciicircum" horiz-adv-x="948" unicode="^"/><glyph d="M99 -210h1434l-13 -90h-1434z" glyph-name="underscore" horiz-adv-x="1846" unicode="_"/><glyph d="M349 1569h122l204 -307h-104z" glyph-name="grave" horiz-adv-x="783" unicode="`"/><glyph d="M759 1129q242 0 342 -99.5t67 -338.5l-97 -691h-114l20 172q-75 -74 -207.5 -129.5t-310.5 -54.5q-184 1 -270.5 77.5t-67.5 214.5q14 118 80 194.5t181.5 116t280.5 49t378 -7.5l11 73q19 180 -51 254t-266 77q-91 1 -188.5 -21t-175.5 -62l14 97q162 79 374 79z M991 272l38 269q-251 18 -421.5 7.5t-264 -71t-111.5 -181.5q-15 -117 58.5 -166.5t236.5 -47.5q152 0 274.5 58t189.5 132z" glyph-name="a" horiz-adv-x="1347" unicode="a"/><glyph d="M1290 559q-20 -145 -80 -258t-145 -179.5t-182.5 -100t-201.5 -33.5q-71 0 -133 14t-118.5 45t-100 85t-67.5 127l-41 -259h-100l216 1536h118l-96 -675q82 137 209.5 202.5t273.5 65.5q104 0 192 -35t153.5 -102.5t93.5 -179.5t9 -253zM682 76q85 0 165 29.5t148.5 87 t117 152t65.5 214.5q32 230 -74.5 357t-286.5 127q-168 0 -307.5 -115.5t-181.5 -326.5l-11 -77q-12 -116 13 -204.5t79 -140t123 -77.5t150 -26z" glyph-name="b" horiz-adv-x="1449" unicode="b"/><glyph d="M1111 954q-129 82 -312 79q-88 -2 -172 -31.5t-157 -85.5t-124.5 -148.5t-68 -208.5t9 -208.5t83 -149t133 -86t163.5 -30.5q184 -3 333 78l-14 -103q-151 -73 -344 -72q-104 0 -197.5 35t-165 103t-105 180t-13.5 253q19 140 84.5 252.5t156.5 180t193.5 102.5t207.5 35 q195 0 323 -72z" glyph-name="c" horiz-adv-x="1215" unicode="c"/><glyph d="M160 559q16 114 58.5 209t101.5 160.5t133 111.5t153.5 67.5t162.5 21.5q145 0 254.5 -65.5t152.5 -202.5l95 675h118l-217 -1536h-100l32 259q-58 -96 -143 -159t-171.5 -87.5t-181.5 -24.5q-83 0 -155.5 21t-134.5 64.5t-102.5 111t-57 160.5t1.5 214zM633 76 q81 0 157 26t144 77.5t118.5 140.5t70.5 204l11 77q9 108 -17 194t-78.5 139t-121 81t-148.5 28q-86 0 -166.5 -30.5t-148.5 -89.5t-116.5 -153t-65.5 -211q-16 -120 6 -214.5t74 -152t124 -87t157 -29.5z" glyph-name="d" horiz-adv-x="1448" unicode="d"/><glyph d="M1212 531h-941q-9 -94 13 -171.5t65 -129.5t103.5 -88t126 -51.5t135.5 -15.5q180 0 330 79l-13 -94q-153 -73 -354 -72q-84 0 -164 20.5t-151.5 66t-122.5 110.5t-73.5 161.5t-5.5 212.5q19 140 81 252.5t148.5 180t184.5 102.5t199 35q112 0 206 -38.5t159.5 -114 t87 -187.5t-13.5 -258zM767 1042q-164 -2 -299.5 -111.5t-181.5 -308.5h836q20 103 -3 186.5t-77.5 133t-125 75t-149.5 25.5z" glyph-name="e" horiz-adv-x="1380" unicode="e"/><glyph d="M877 1536l-13 -86h-162q-57 0 -95 -44t-49 -120l-23 -169h282l-12 -90h-283l-144 -1027h-118l144 1027h-178l13 90h178l27 194q13 98 71 161.5t140 63.5h222z" glyph-name="f" horiz-adv-x="936" unicode="f"/><glyph d="M1212 1117h116l-141 -1012q-15 -112 -58.5 -202t-103 -149.5t-136.5 -100t-158 -58t-169 -17.5q-197 0 -325 73l14 98q126 -81 314 -78q91 1 170.5 23.5t149.5 70t118 130.5t64 196l24 171q-81 -136 -207.5 -199.5t-273.5 -63.5q-83 0 -156.5 22t-135 66t-101.5 111.5 t-56.5 159t0.5 206.5q19 143 78.5 254.5t143 178t179 99.5t198.5 33q148 0 260 -65.5t156 -200.5zM273 564q-16 -117 6 -210t73.5 -151t123.5 -88t158 -30q63 0 126 16.5t122.5 52t108 86.5t83.5 123.5t48 159.5l11 75q12 116 -13.5 204t-79.5 138.5t-122.5 75.5t-149.5 25 q-85 0 -165 -29t-148.5 -85.5t-117 -150t-64.5 -212.5z" glyph-name="g" horiz-adv-x="1448" unicode="g"/><glyph d="M238 0h-117l216 1536h118l-95 -674q91 139 232.5 203t300.5 64q88 0 157 -25.5t119.5 -78.5t69.5 -143.5t2 -212.5l-93 -669h-118l90 646q29 206 -49 299t-233 93q-79 0 -158.5 -26t-152.5 -76.5t-128 -136.5t-75 -195z" glyph-name="h" horiz-adv-x="1424" unicode="h"/><glyph d="M306 1434h164l-14 -105h-165zM285 1117h117l-156 -1117h-118z" glyph-name="i" horiz-adv-x="530" unicode="i"/><glyph d="M306 1434h164l-14 -105h-165zM402 1117l-157 -1125q-18 -129 -82.5 -183.5t-177.5 -54.5q-60 0 -108 17l12 64q44 -10 96 -4q73 2 102.5 42t40.5 127l157 1117h117z" glyph-name="j" horiz-adv-x="530" unicode="j"/><glyph d="M1185 1117l-597 -487l440 -630h-131l-391 562l-213 -173l-54 -389h-118l216 1536h118l-143 -1015l736 596h137z" glyph-name="k" horiz-adv-x="1214" unicode="k"/><glyph d="M337 1536h118l-216 -1536h-118z" glyph-name="l" horiz-adv-x="516" unicode="l"/><glyph d="M1701 1129q92 0 159 -25t114 -82t60 -149.5t-3 -226.5l-92 -646h-117l91 646q29 208 -41 300t-221 92q-78 0 -153 -26.5t-142.5 -78.5t-116.5 -140t-67 -201v3l-82 -595h-118l90 646q30 208 -40 300t-221 92q-77 0 -151.5 -26.5t-141 -78.5t-116 -140t-70.5 -201 l-84 -592h-117l157 1117h117l-35 -255q167 267 491 267q310 0 337 -293q66 140 210 216.5t303 76.5z" glyph-name="m" horiz-adv-x="2216" unicode="m"/><glyph d="M238 0h-117l157 1117h117l-35 -255q91 139 232.5 203t300.5 64q88 0 157 -25.5t119.5 -78.5t69.5 -143.5t2 -212.5l-93 -669h-118l90 646q29 206 -49 299t-233 93q-79 0 -158.5 -26t-152.5 -76.5t-128 -136.5t-75 -195z" glyph-name="n" horiz-adv-x="1424" unicode="n"/><glyph d="M1284 558q-16 -117 -62 -213t-110.5 -161t-144 -110t-161.5 -65.5t-165 -20.5t-158.5 20.5t-142.5 65.5t-112.5 110t-65 161t-2.5 213q19 141 84.5 253.5t156.5 180t193.5 102.5t207.5 35t198.5 -35t165 -102.5t104.5 -180t14 -253.5zM653 76q86 0 168.5 29.5t154.5 87 t123 152t67 213.5q16 117 -8 210.5t-79 152t-129 89.5t-160.5 31t-169 -31t-154 -89.5t-122 -152t-66.5 -210.5q-16 -119 8 -213.5t79.5 -152t129 -87t158.5 -29.5z" glyph-name="o" horiz-adv-x="1443" unicode="o"/><glyph d="M1290 559q-16 -114 -58.5 -209t-101.5 -161t-133 -112t-153.5 -67.5t-162.5 -21.5q-145 0 -254.5 65.5t-152.5 202.5l-95 -675h-118l217 1536h100l-32 -259q58 96 143 159t171 87.5t182 24.5q82 0 155 -21t135 -64.5t102.5 -110.5t57 -160.5t-1.5 -213.5zM817 1041 q-81 0 -157 -26t-144.5 -77.5t-118.5 -140t-70 -203.5l-11 -77q-9 -108 17 -194t78.5 -139.5t121 -81.5t148.5 -28q86 0 166.5 30.5t148.5 89.5t116.5 153t65.5 212q16 120 -6 214t-74 151.5t-124 87t-157 29.5z" glyph-name="p" horiz-adv-x="1449" unicode="p"/><glyph d="M160 559q20 145 80 257.5t145 179t182.5 100t201.5 33.5q71 0 133 -14t118.5 -45t100 -85t67.5 -127l41 259h100l-216 -1536h-118l96 675q-82 -137 -209.5 -202.5t-273.5 -65.5q-104 0 -192 35t-153.5 103t-93.5 180t-9 253zM768 1041q-85 0 -165 -29.5t-148.5 -87 t-117 -151.5t-65.5 -214q-16 -118 6 -212t73.5 -153t123.5 -89.5t158 -30.5q168 0 307.5 116t181.5 327l11 77q12 115 -13 203.5t-79 140t-123 77.5t-150 26z" glyph-name="q" horiz-adv-x="1448" unicode="q"/><glyph d="M238 0h-117l157 1117h115l-35 -255q91 137 230.5 202t294.5 65l-13 -91q-83 2 -168.5 -24.5t-163 -77.5t-136 -137.5t-78.5 -194.5z" glyph-name="r" horiz-adv-x="906" unicode="r"/><glyph d="M113 168q71 -40 169.5 -63t200.5 -25q132 -2 236.5 52.5t120.5 143.5q7 44 -7.5 78.5t-36 56t-75 43.5t-91.5 34t-119 33q-168 45 -247 121.5t-61 196.5q19 137 146.5 213.5t326.5 76.5q200 0 328 -77l-15 -103q-133 87 -318 88q-148 2 -241.5 -49t-107.5 -150 q-7 -47 10 -84t62.5 -66t100.5 -50.5t141 -45.5q94 -27 152 -51t103.5 -59.5t61 -84.5t5.5 -116q-13 -86 -85 -154.5t-174.5 -103.5t-212.5 -35q-111 0 -216 21.5t-172 57.5z" glyph-name="s" horiz-adv-x="1157" unicode="s"/><glyph d="M711 0h-264q-87 0 -128 61.5t-27 163.5l112 802h-178l13 90h178l30 221h118l-30 -221h332l-12 -90h-333l-109 -777q-10 -75 19 -119.5t87 -44.5h203z" glyph-name="t" horiz-adv-x="987" unicode="t"/><glyph d="M1187 1117h117l-157 -1117h-118l36 256q-62 -95 -153 -157t-184 -86.5t-196 -24.5q-89 0 -158 25.5t-119 78.5t-69.5 144.5t-2.5 213.5l95 667h117l-91 -646q-14 -105 0.5 -182.5t55 -122t97 -65.5t131.5 -21q79 0 158 26t152.5 76.5t128 137t75.5 194.5z" glyph-name="u" horiz-adv-x="1424" unicode="u"/><glyph d="M1078 1117h125l-583 -1117h-164l-270 1117h125l239 -1025z" glyph-name="v" horiz-adv-x="1232" unicode="v"/><glyph d="M1591 1117h127l-493 -1117h-140l-153 975l-427 -975h-139l-180 1117h126l150 -992l427 992h126l149 -992z" glyph-name="w" horiz-adv-x="1747" unicode="w"/><glyph d="M1179 1117l-486 -553l329 -564h-129l-296 507l-438 -507h-129l486 564l-330 553h129l297 -496l438 496h129z" glyph-name="x" horiz-adv-x="1208" unicode="x"/><glyph d="M1078 1117h125l-592 -1058q-35 -62 -67.5 -111.5t-87 -110.5t-111.5 -102t-139 -72t-173 -36l8 86q84 8 154 40t122.5 84t89 105t71.5 121l-292 1054h125l252 -936z" glyph-name="y" horiz-adv-x="1232" unicode="y"/><glyph d="M1170 1117l-11 -90l-917 -937h784l-12 -90h-932l12 90l917 937h-785l13 90h931z" glyph-name="z" horiz-adv-x="1252" unicode="z"/><glyph d="M453 -440q-40 0 -70 9t-56 30.5t-39 58.5t-17.5 92t8.5 132l61 437q6 28 0.5 62t-18 62.5t-44.5 49t-78 21.5l13 89q46 1 83 21t59 50.5t34.5 61.5t17.5 62l61 437q26 179 94 250t171 71h109l-14 -89h-75q-71 0 -110.5 -55.5t-51.5 -142.5l-67 -474q-13 -92 -64.5 -161.5 t-140.5 -73.5v-4q59 -3 94.5 -40t44 -86t0.5 -107l-67 -475q-12 -87 12 -142.5t95 -55.5h75l-12 -90h-108z" glyph-name="braceleft" horiz-adv-x="907" unicode="{"/><glyph d="M356 1620h118l-287 -2030h-117z" glyph-name="bar" horiz-adv-x="530" unicode="|"/><glyph d="M175 -440h-108l12 90h76q71 0 110 55.5t52 142.5l67 475q13 92 64.5 160.5t139.5 72.5l1 4q-59 3 -94 40t-44.5 86.5t-0.5 108.5l67 474q12 87 -12 142.5t-94 55.5h-76l12 89h109q50 0 84.5 -14t62 -50.5t32.5 -99t-5 -157.5l-62 -437q-6 -28 -0.5 -62t18 -62.5t44.5 -49 t78 -21.5l-13 -89q-88 -3 -135.5 -63t-58.5 -132l-62 -437q-25 -179 -92.5 -250.5t-171.5 -71.5z" glyph-name="braceright" horiz-adv-x="908" unicode="}"/><glyph d="M198 495q11 90 66 145.5t133 55.5q40 0 79.5 -19.5t65.5 -42t60 -42t64 -19.5q36 0 65.5 34.5t36.5 80.5h85q-13 -90 -70 -145.5t-132 -55.5q-32 0 -68.5 19t-64.5 42t-62 42t-62 19q-43 -1 -73.5 -34t-38.5 -81z" glyph-name="asciitilde" horiz-adv-x="1040" unicode="~"/><glyph d="M285 1117h164l-15 -105h-164zM278 801h90l-143 -1117h-117z" glyph-name="exclamdown" horiz-adv-x="577" unicode="¡"/><glyph d="M1111 954q-114 72 -271 79l-133 -948q162 7 292 78l-14 -103q-130 -63 -292 -71l-19 -136h-71l20 135q-81 2 -155.5 25t-138 69.5t-107 112t-61 160t-1.5 204.5q19 137 82 248t150.5 178.5t188 104t202.5 39.5l19 135h70l-19 -136q160 -8 272 -71zM278 559 q-15 -112 7.5 -201t75 -145.5t122.5 -88.5t153 -38l133 946q-85 -6 -164 -38t-147.5 -88.5t-116.5 -146t-63 -200.5z" glyph-name="cent" horiz-adv-x="1215" unicode="¢"/><glyph d="M530 1047q-12 -84 0 -295h582l-11 -90h-566q3 -91 -1 -160t-18 -146.5t-49.5 -143.5t-91.5 -115h852l-14 -97h-975l13 97q62 56 101.5 125.5t53.5 139t18 147.5t-3 153h-200l12 90h181q-6 82 -8.5 117.5t-2 99t8.5 112.5q24 166 173.5 265.5t394.5 99.5q201 0 358 -94 l-14 -106q-159 108 -357 103q-188 -1 -303.5 -83.5t-133.5 -218.5z" glyph-name="sterling" horiz-adv-x="1498" unicode="£"/><glyph d="M1199 718q-27 -183 -164 -318l153 -178l-50 -44l-154 179q-152 -117 -329 -116q-180 0 -298 117l-206 -180l-38 44l205 180q-100 133 -75 316q26 179 165 313l-156 181l50 44l157 -181q150 118 331 118q175 0 295 -116l204 179l38 -44l-204 -179q102 -136 76 -315z M668 331q160 0 288 112.5t151 274.5q23 160 -74 272.5t-257 112.5q-161 0 -289.5 -112t-151.5 -273q-23 -162 74 -274.5t259 -112.5z" glyph-name="currency" horiz-adv-x="1395" unicode="¤"/><glyph d="M705 591l-13 -86h431l-10 -68h-430l-20 -143h431l-10 -67h-431l-31 -227h-126l31 227h-430l11 67h429l20 143h-430l10 68h429l13 86l-404 843h136l347 -720l550 720h137z" glyph-name="yen" horiz-adv-x="1273" unicode="¥"/><glyph d="M356 1620h118l-129 -912h-118zM199 503h117l-129 -913h-117z" glyph-name="brokenbar" horiz-adv-x="530" unicode="¦"/><glyph d="M720 1311q-147 0 -242 -55t-109 -155q-14 -90 63.5 -144.5t250.5 -103.5q76 -22 125 -40t94 -44t68 -56t33.5 -72.5t2.5 -96.5q-13 -90 -93 -159.5t-197 -103.5q120 -44 169.5 -104.5t35.5 -168.5q-12 -86 -87.5 -154t-179.5 -103t-215 -35q-223 0 -364 114l14 91 q61 -55 152 -89t194 -35q131 -1 241 58.5t126 148.5q6 37 -0.5 66t-28.5 52.5t-47 40.5t-71 34t-82 28t-100 27q-168 44 -247 119.5t-61 194.5q14 97 84 164.5t186 97.5q-211 91 -185 274q19 137 146.5 214t326.5 77q203 0 324 -91l-14 -89q-116 98 -313 98zM887 540 q6 39 -4 70.5t-29.5 53.5t-57.5 42t-76.5 33.5t-97.5 29.5q-143 -2 -233.5 -54t-104.5 -150q-13 -83 51.5 -135t207.5 -96q126 4 228 62.5t116 143.5z" glyph-name="section" horiz-adv-x="1170" unicode="§"/><glyph d="M323 1386h143l-17 -124h-144zM679 1386h142l-17 -124h-144z" glyph-name="dieresis" horiz-adv-x="911" unicode="¨"/><glyph d="M817 -16q-211 0 -370 97.5t-233.5 265.5t-46.5 370q29 203 150.5 370.5t308.5 265t398 97.5q159 0 291.5 -57.5t218.5 -155t125 -233.5t17 -287q-28 -202 -149.5 -370t-309.5 -265.5t-400 -97.5zM828 56q194 0 361.5 86t275.5 237t134.5 337.5t-39.5 337.5t-209.5 237 t-336.5 86t-360 -86t-275.5 -237t-135 -337.5t40 -337.5t209 -237t335.5 -86zM1204 998q-91 58 -224 56q-131 -1 -235.5 -89.5t-127.5 -247.5q-22 -159 58 -247.5t211 -90.5q133 -1 238 56l-10 -73q-106 -52 -246 -52q-75 0 -140 25t-116.5 73.5t-75 128t-9 180t60.5 181 t110.5 128.5t137 73t147.5 25q138 0 231 -53z" glyph-name="copyright" horiz-adv-x="1799" unicode="©"/><glyph d="M586 1444q138 0 199.5 -60.5t41.5 -202.5l-58 -415h-81l12 103q-115 -112 -294 -110q-103 1 -153 47t-40 128q17 137 142.5 183t382.5 26l7 46q10 106 -30 147.5t-145 40.5q-108 2 -195 -57l-27 54q109 70 238 70zM710 935l20 151q-225 17 -324 -11.5t-112 -129.5 q-7 -58 32.5 -90.5t122 -31.5t152 35t109.5 77z" glyph-name="ordfeminine" horiz-adv-x="900" unicode="ª"/><glyph d="M728 947l-391 -384l284 -384h-131l-283 384l392 384h129zM1144 947l-392 -384l283 -384h-129l-283 384l392 384h129z" glyph-name="guillemotleft" horiz-adv-x="1295" unicode="«"/><glyph d="M1172 923l-75 -538h-118l61 441h-796l14 97h914z" glyph-name="logicalnot" horiz-adv-x="1327" unicode="¬"/><glyph d="M793 1504q215 0 338.5 -141.5t94 -348.5t-192.5 -349t-378 -142q-140 0 -246 65.5t-155 178t-30 247.5q30 207 192.5 348.5t376.5 141.5zM1163 1014q26 185 -81 307t-296.5 122t-331 -122t-167.5 -307t80.5 -307t296.5 -122t331 122t168 307zM791 1300q93 0 135 -44 t30 -124q-8 -68 -46.5 -108.5t-116.5 -59.5l111 -236h-65l-107 224q-68 -9 -159 -9l-30 -215h-61l81 572h228zM897 1132q8 65 -20.5 91t-95.5 26h-166l-35 -256q169 1 237.5 32t79.5 107z" glyph-name="registered" horiz-adv-x="1321" unicode="®"/><glyph d="M316 1341h490l-11 -79h-490z" glyph-name="macron" horiz-adv-x="903" unicode="¯"/><glyph d="M503.5 967q-99.5 0 -159.5 70t-47 169q14 99 94.5 169.5t180 70.5t160 -70t45.5 -170q-13 -99 -93.5 -169t-180 -70zM513 1029q72 0 131 53t69.5 124.5t-34.5 123.5t-117 52t-131.5 -52t-70.5 -124q-10 -73 35.5 -125t117.5 -52z" glyph-name="degree" horiz-adv-x="892" unicode="°"/><glyph d="M1108 876l-12 -90h-370l-33 -233h-118l33 233h-369l12 90h370l32 233h118l-33 -233h370zM1044 423l-13 -90h-856l12 90h857z" glyph-name="plusminus" horiz-adv-x="1269" unicode="±"/><glyph d="M835 838l-11 -72h-635l10 72q46 35 148.5 108t166.5 121.5t138.5 112t115.5 118.5t47 102q11 82 -40.5 128.5t-164.5 46.5q-133 2 -251 -79l-32 57q140 93 296 94q153 0 225 -64t56 -173q-6 -47 -39.5 -101t-74.5 -98.5t-109 -101t-117.5 -94t-127 -94.5t-111.5 -83h510z " glyph-name="uni00B2" horiz-adv-x="955" unicode="²"/><glyph d="M338 1638h570l-9 -71l-384 -313q51 9 108 7q120 -5 185 -70.5t50 -173.5q-38 -260 -352 -259q-184 2 -303 97l53 59q45 -40 117 -63.5t143 -21.5q119 1 182 47.5t77 141.5q12 90 -43.5 137t-165.5 47q-87 0 -152 -27l-24 72l403 320h-465z" glyph-name="uni00B3" horiz-adv-x="953" unicode="³"/><glyph d="M719 1569l-310 -307h-104l292 307h122z" glyph-name="acute" horiz-adv-x="783" unicode="´"/><glyph d="M1187 1117h117l-157 -1117h-118l36 256q-62 -95 -153 -157t-184 -86.5t-196 -24.5q-189 0 -281 108l-71 -506h-118l177 1254l39 273h117l-91 -646q-14 -105 0.5 -182.5t55 -122t97 -65.5t131.5 -21q79 0 158 26t152.5 76.5t128 137t75.5 194.5z" glyph-name="uni00B5" horiz-adv-x="1370" unicode="µ"/><glyph d="M559 955q-135 0 -207 61.5t-57 174.5q18 122 105.5 182.5t232.5 60.5h404l-200 -1434h-109l187 1336h-193l-187 -1336h-109z" glyph-name="paragraph" horiz-adv-x="1121" unicode="¶"/><glyph d="M239 787h163l-19 -141h-164z" glyph-name="periodcentered" horiz-adv-x="577" unicode="·"/><glyph d="M266 -57q53 0 84 -25.5t25 -74.5q-8 -55 -58.5 -81t-129.5 -26q-50 0 -95 8l8 55q38 -5 73 -5q115 0 121 50q4 30 -18.5 40.5t-73.5 10.5q-28 0 -40 -3l6 46l72 67h59l-68 -64q7 2 35 2z" glyph-name="cedilla" horiz-adv-x="681" unicode="¸"/><glyph d="M493 850h206l-9 -72h-499l10 72h208l99 712q-101 -50 -178 -71l11 78q82 20 178 69h84z" glyph-name="uni00B9" horiz-adv-x="818" unicode="¹"/><glyph d="M847 1102q-12 -87 -51 -155t-94.5 -107.5t-116.5 -60t-124 -20.5q-62 0 -117.5 20.5t-99 60t-64 107.5t-8.5 155q12 84 50.5 151.5t93.5 108t117 61.5t124 21q63 0 119 -21t99 -61.5t63.5 -107.5t8.5 -152zM471 825q67 0 126.5 29t107 93.5t59.5 154.5q18 130 -47 202.5 t-169 72.5q-103 0 -188.5 -72.5t-103.5 -202.5q-19 -133 46 -205t169 -72z" glyph-name="ordmasculine" horiz-adv-x="866" unicode="º"/><glyph d="M261 947h130l284 -384l-391 -384h-130l392 384zM677 947h129l284 -384l-392 -384h-129l392 384z" glyph-name="guillemotright" horiz-adv-x="1296" unicode="»"/><glyph d="M464 645h207l-9 -72h-499l9 72h208l99 712q-101 -50 -178 -71l11 78q82 20 178 70h84zM1380 1434h79l-966 -1434h-78zM1582 297l-10 -71h-161l-32 -226h-80l32 226h-425l10 71l492 563h92l-79 -563h161zM1006 297h335l66 470z" glyph-name="onequarter" horiz-adv-x="1777" unicode="¼"/><glyph d="M464 645h207l-9 -72h-499l9 72h208l99 712q-101 -50 -178 -71l11 78q82 20 178 70h84zM1379 1434h79l-968 -1434h-76zM1663 72l-10 -72h-635l9 72q46 35 148.5 108t166.5 121.5t138.5 112t115.5 118.5t48 102q11 82 -41 128.5t-164 46.5q-133 2 -251 -79l-33 57 q140 93 296 94q153 0 225 -64t57 -173q-6 -47 -39.5 -100.5t-75.5 -98.5t-109 -101.5t-117.5 -94.5t-126.5 -94t-112 -83h510z" glyph-name="onehalf" horiz-adv-x="1890" unicode="½"/><glyph d="M309 1434h571l-10 -72l-384 -312q51 9 108 6q120 -5 185.5 -70t49.5 -174q-38 -260 -352 -259q-184 2 -303 97l53 60q45 -40 117.5 -63.5t142.5 -21.5q119 1 182 47t77 141q12 90 -43.5 137t-164.5 47q-87 0 -153 -27l-24 72l403 320h-465zM1452 1434h79l-967 -1434h-78z M1650 297l-11 -71h-160l-32 -226h-80l32 226h-425l10 71l493 563h91l-79 -563h161zM1073 297h336l66 470z" glyph-name="threequarters" horiz-adv-x="1845" unicode="¾"/><glyph d="M834 1033l-15 -104h-164l15 104h164zM509 -400q-227 -1 -347 109.5t-92 310.5q25 182 143.5 290t292.5 117q42 5 108 3l43 283h103l-44 -376q-56 15 -141 15q-156 0 -261.5 -89t-127.5 -240q-22 -154 70 -240t268 -86q201 -1 365 91l-17 -111q-155 -76 -363 -77z" glyph-name="questiondown" horiz-adv-x="1141" unicode="¿"/><glyph d="M900 1578h-103l-223 307h122zM1151 0l-88 346h-773l-186 -346h-132l772 1434h169l370 -1434h-132zM342 443h696l-224 884z" glyph-name="Agrave" horiz-adv-x="1412" unicode="À"/><glyph d="M1210 1885l-310 -307h-103l292 307h121zM1151 0l-88 346h-773l-186 -346h-132l772 1434h169l370 -1434h-132zM342 443h696l-224 884z" glyph-name="Aacute" horiz-adv-x="1412" unicode="Á"/><glyph d="M886 1838l-219 -260h-104l259 307h140l172 -307h-104zM1151 0l-88 346h-773l-186 -346h-132l772 1434h169l370 -1434h-132zM342 443h696l-224 884z" glyph-name="Acircumflex" horiz-adv-x="1412" unicode="Â"/><glyph d="M738 1690q-42 0 -72 -32.5t-37 -79.5l-72 1q9 82 60.5 134t123.5 52q38 0 75.5 -18t62 -41t56.5 -41t60 -18q35 0 63.5 33.5t36.5 77.5h73q-12 -83 -64.5 -134.5t-122.5 -51.5q-31 0 -65.5 18.5t-60.5 41t-58 40.5t-59 18zM1151 0l-88 346h-773l-186 -346h-132l772 1434 h169l370 -1434h-132zM342 443h696l-224 884z" glyph-name="Atilde" horiz-adv-x="1412" unicode="Ã"/><glyph d="M760 1703l-18 -125h-143l17 125h144zM1115 1703l-17 -125h-144l19 125h142zM1151 0l-88 346h-773l-186 -346h-132l772 1434h169l370 -1434h-132zM342 443h696l-224 884z" glyph-name="Adieresis" horiz-adv-x="1412" unicode="Ä"/><glyph d="M1151 0l-88 346h-773l-186 -346h-132l761 1413q-38 26 -56.5 68.5t-10.5 92.5q10 76 72 130.5t139 54.5q76 0 123 -54.5t36 -130.5q-7 -51 -39 -94t-78 -68l364 -1412h-132zM736 1574q-7 -47 22 -81t76.5 -34t85.5 34t46 81q6 47 -23 80.5t-76 33.5q-48 0 -86.5 -33.5 t-44.5 -80.5zM342 443h696l-224 884z" glyph-name="Aring" horiz-adv-x="1412" unicode="Å"/><glyph d="M1616 1336h-668l-81 -571h592l-14 -96h-591l-81 -572h668l-14 -97h-792l48 346h-393l-186 -346h-132l772 1434h885zM697 443l125 898l-480 -898h355z" glyph-name="AE" horiz-adv-x="1712" unicode="Æ"/><glyph d="M958 1343q-88 -2 -174 -26.5t-167 -75t-147 -122.5t-113 -175.5t-64.5 -226.5t0.5 -226.5t63.5 -175t113 -123t146.5 -76t166 -26.5q196 -3 376 97l-15 -110q-167 -84 -356 -89l-54 -51q7 2 35 2q53 0 84 -25.5t25 -74.5q-8 -55 -58.5 -81t-129.5 -26q-50 0 -95 8l8 55 q38 -5 73 -5q115 0 121 50q4 30 -18.5 40t-74.5 10q-28 0 -39 -2l6 45l58 56q-101 5 -192.5 36.5t-167.5 92.5t-127.5 144.5t-72 201t-0.5 253.5q19 142 76 263t136.5 205.5t178 144.5t203.5 88t212 28q196 0 349 -89l-16 -110q-154 101 -349 96z" glyph-name="Ccedilla" horiz-adv-x="1417" unicode="Ç"/><glyph d="M573 1885h122l204 -307h-103zM266 97h871l-14 -97h-995l201 1434h996l-13 -98h-871l-81 -571h787l-13 -96h-787z" glyph-name="Egrave" horiz-adv-x="1408" unicode="È"/><glyph d="M1209 1885l-310 -307h-103l291 307h122zM266 97h871l-14 -97h-995l201 1434h996l-13 -98h-871l-81 -571h787l-13 -96h-787z" glyph-name="Eacute" horiz-adv-x="1408" unicode="É"/><glyph d="M1132 1578h-104l-144 260l-219 -260h-104l259 307h139zM266 97h871l-14 -97h-995l201 1434h996l-13 -98h-871l-81 -571h787l-13 -96h-787z" glyph-name="Ecircumflex" horiz-adv-x="1408" unicode="Ê"/><glyph d="M614 1703h144l-18 -125h-143zM971 1703h142l-17 -125h-144zM266 97h871l-14 -97h-995l201 1434h996l-13 -98h-871l-81 -571h787l-13 -96h-787z" glyph-name="Edieresis" horiz-adv-x="1408" unicode="Ë"/><glyph d="M138 1885h122l204 -307h-104zM254 0h-126l201 1434h126z" glyph-name="Igrave" horiz-adv-x="538" unicode="Ì"/><glyph d="M774 1885l-310 -307h-104l292 307h122zM254 0h-126l201 1434h126z" glyph-name="Iacute" horiz-adv-x="538" unicode="Í"/><glyph d="M696 1578h-103l-144 260l-220 -260h-103l259 307h139zM254 0h-126l201 1434h126z" glyph-name="Icircumflex" horiz-adv-x="538" unicode="Î"/><glyph d="M180 1703h144l-18 -125h-143zM537 1703h142l-17 -125h-144zM254 0h-126l201 1434h126z" glyph-name="Idieresis" horiz-adv-x="538" unicode="Ï"/><glyph d="M830 1434q146 0 264 -44t201 -130t117.5 -225.5t8.5 -317.5q-25 -179 -98.5 -319t-180.5 -225.5t-236.5 -129t-275.5 -43.5h-500l95 681h-155l10 72h156l95 681h499zM1296.5 716.5q21.5 151.5 -6 271t-95.5 195t-166 114.5t-221 39h-365l-83 -583h382l-10 -72h-381 l-83 -584h365q123 0 232.5 39.5t198.5 115t150 194.5t82.5 270.5z" glyph-name="Eth" horiz-adv-x="1544" unicode="Ð"/><glyph d="M635 1579q9 82 60 134t124 52q38 0 75.5 -18t62 -41t56 -41t60.5 -18q35 0 63.5 33.5t35.5 77.5h74q-12 -83 -65 -134.5t-122 -51.5q-31 0 -66 18.5t-60.5 41t-57.5 40.5t-59 18q-42 0 -72 -32.5t-37 -79.5zM1359 1434h125l-201 -1434h-138l-715 1256l-176 -1256h-126 l201 1434h138l716 -1254z" glyph-name="Ntilde" horiz-adv-x="1567" unicode="Ñ"/><glyph d="M717 1885h122l203 -307h-103zM1573 717q-25 -177 -105 -319.5t-193.5 -230t-243.5 -133.5t-264 -46q-106 0 -202.5 28t-178.5 87.5t-137.5 144t-78.5 205.5t-3.5 263.5t76.5 263.5t136.5 205.5t178 144.5t203.5 88t211.5 28t203.5 -28t179 -88t137 -144.5t77.5 -205.5 t3.5 -263zM781 85q111 0 218.5 40.5t200 116t159.5 199t89 276.5q17 123 -0.5 227.5t-63 177.5t-112.5 125t-146.5 77t-167 25t-174 -25t-167.5 -77t-147 -125t-113 -177.5t-64.5 -227.5t0.5 -227.5t63 -177.5t112 -125.5t146 -77t167 -24.5z" glyph-name="Ograve" horiz-adv-x="1695" unicode="Ò"/><glyph d="M1353 1885l-311 -307h-103l292 307h122zM1573 717q-25 -177 -105 -319.5t-193.5 -230t-243.5 -133.5t-264 -46q-106 0 -202.5 28t-178.5 87.5t-137.5 144t-78.5 205.5t-3.5 263.5t76.5 263.5t136.5 205.5t178 144.5t203.5 88t211.5 28t203.5 -28t179 -88t137 -144.5 t77.5 -205.5t3.5 -263zM781 85q111 0 218.5 40.5t200 116t159.5 199t89 276.5q17 123 -0.5 227.5t-63 177.5t-112.5 125t-146.5 77t-167 25t-174 -25t-167.5 -77t-147 -125t-113 -177.5t-64.5 -227.5t0.5 -227.5t63 -177.5t112 -125.5t146 -77t167 -24.5z" glyph-name="Oacute" horiz-adv-x="1695" unicode="Ó"/><glyph d="M1276 1578h-104l-144 260l-219 -260h-103l259 307h139zM1573 717q-25 -177 -105 -319.5t-193.5 -230t-243.5 -133.5t-264 -46q-106 0 -202.5 28t-178.5 87.5t-137.5 144t-78.5 205.5t-3.5 263.5t76.5 263.5t136.5 205.5t178 144.5t203.5 88t211.5 28t203.5 -28t179 -88 t137 -144.5t77.5 -205.5t3.5 -263zM781 85q111 0 218.5 40.5t200 116t159.5 199t89 276.5q17 123 -0.5 227.5t-63 177.5t-112.5 125t-146.5 77t-167 25t-174 -25t-167.5 -77t-147 -125t-113 -177.5t-64.5 -227.5t0.5 -227.5t63 -177.5t112 -125.5t146 -77t167 -24.5z" glyph-name="Ocircumflex" horiz-adv-x="1695" unicode="Ô"/><glyph d="M699 1579q9 82 60.5 134t124.5 52q38 0 75 -18t62 -41t56.5 -41t60.5 -18q35 0 63.5 33.5t35.5 77.5h74q-12 -83 -65 -134.5t-123 -51.5q-31 0 -65.5 18.5t-60 41t-58 40.5t-58.5 18q-42 0 -72.5 -32.5t-37.5 -79.5zM1573 717q-25 -177 -105 -319.5t-193.5 -230 t-243.5 -133.5t-264 -46q-106 0 -202.5 28t-178.5 87.5t-137.5 144t-78.5 205.5t-3.5 263.5t76.5 263.5t136.5 205.5t178 144.5t203.5 88t211.5 28t203.5 -28t179 -88t137 -144.5t77.5 -205.5t3.5 -263zM781 85q111 0 218.5 40.5t200 116t159.5 199t89 276.5 q17 123 -0.5 227.5t-63 177.5t-112.5 125t-146.5 77t-167 25t-174 -25t-167.5 -77t-147 -125t-113 -177.5t-64.5 -227.5t0.5 -227.5t63 -177.5t112 -125.5t146 -77t167 -24.5z" glyph-name="Otilde" horiz-adv-x="1695" unicode="Õ"/><glyph d="M759 1703h143l-17 -125h-144zM1115 1703h142l-17 -125h-143zM1573 717q-25 -177 -105 -319.5t-193.5 -230t-243.5 -133.5t-264 -46q-106 0 -202.5 28t-178.5 87.5t-137.5 144t-78.5 205.5t-3.5 263.5t76.5 263.5t136.5 205.5t178 144.5t203.5 88t211.5 28t203.5 -28 t179 -88t137 -144.5t77.5 -205.5t3.5 -263zM781 85q111 0 218.5 40.5t200 116t159.5 199t89 276.5q17 123 -0.5 227.5t-63 177.5t-112.5 125t-146.5 77t-167 25t-174 -25t-167.5 -77t-147 -125t-113 -177.5t-64.5 -227.5t0.5 -227.5t63 -177.5t112 -125.5t146 -77t167 -24.5 z" glyph-name="Odieresis" horiz-adv-x="1695" unicode="Ö"/><glyph d="M860 445l-73 -63l-232 270l-309 -270l-55 63l309 272l-233 270l72 65l233 -272l310 272l54 -65l-308 -270z" glyph-name="multiply" horiz-adv-x="1083" unicode="×"/><glyph d="M1631 1349l-156 -139q140 -196 98 -493q-25 -177 -105 -319.5t-193.5 -230t-243.5 -133.5t-264 -46q-138 0 -260.5 49t-207.5 143l-160 -140l-38 45l162 141q-137 194 -96 491q19 142 76 263t136.5 205.5t178 144.5t203.5 88t212 28q137 0 258 -48t206 -142l155 138z M293 717q-34 -243 64 -408l989 868q-70 84 -171 128t-217 44q-87 0 -173.5 -25t-167.5 -77t-147 -125t-113 -177.5t-64 -227.5zM1448 717q35 244 -68 411l-989 -867q69 -86 171 -131t219 -45q111 0 218.5 40.5t200 116t159.5 199t89 276.5z" glyph-name="Oslash" horiz-adv-x="1695" unicode="Ø"/><glyph d="M601 1885h122l204 -307h-104zM1380 1434l-125 -891q-41 -293 -184.5 -424t-419.5 -131q-274 0 -381 131t-66 424l125 891h126l-128 -908q-32 -232 46 -336.5t293 -104.5t322.5 104.5t139.5 336.5l127 908h125z" glyph-name="Ugrave" horiz-adv-x="1464" unicode="Ù"/><glyph d="M1237 1885l-310 -307h-104l292 307h122zM1380 1434l-125 -891q-41 -293 -184.5 -424t-419.5 -131q-274 0 -381 131t-66 424l125 891h126l-128 -908q-32 -232 46 -336.5t293 -104.5t322.5 104.5t139.5 336.5l127 908h125z" glyph-name="Uacute" horiz-adv-x="1464" unicode="Ú"/><glyph d="M1160 1578h-103l-145 260l-219 -260h-103l259 307h139zM1380 1434l-125 -891q-41 -293 -184.5 -424t-419.5 -131q-274 0 -381 131t-66 424l125 891h126l-128 -908q-32 -232 46 -336.5t293 -104.5t322.5 104.5t139.5 336.5l127 908h125z" glyph-name="Ucircumflex" horiz-adv-x="1464" unicode="Û"/><glyph d="M643 1703h143l-17 -125h-143zM999 1703h143l-18 -125h-143zM1380 1434l-125 -891q-41 -293 -184.5 -424t-419.5 -131q-274 0 -381 131t-66 424l125 891h126l-128 -908q-32 -232 46 -336.5t293 -104.5t322.5 104.5t139.5 336.5l127 908h125z" glyph-name="Udieresis" horiz-adv-x="1464" unicode="Ü"/><glyph d="M1142 1885l-311 -307h-103l292 307h122zM1208 1434h137l-640 -843l-83 -591h-126l83 591l-404 843h136l347 -720z" glyph-name="Yacute" horiz-adv-x="1273" unicode="Ý"/><glyph d="M867 1165q214 0 325 -113.5t83 -312.5q-34 -248 -268 -358t-715 -113l-38 -268h-126l201 1434h126l-38 -269h450zM1149 739q22 158 -59.5 245.5t-241.5 87.5h-444l-100 -711q424 1 620.5 90.5t224.5 287.5z" glyph-name="Thorn" horiz-adv-x="1409" unicode="Þ"/><glyph d="M1127 402q-14 -103 -70 -183t-136 -126t-170.5 -69t-184.5 -23h-168l13 89h156q71 0 140 18.5t131 55t105.5 99.5t54.5 144q11 78 -14.5 141.5t-75.5 103t-114.5 61t-135.5 21.5h-156l12 90h157q78 0 152.5 28t134 91t70.5 149q9 63 -12.5 114.5t-63.5 83.5t-95 49 t-112 17q-136 0 -235.5 -69t-118.5 -198l-152 -1089h-118l152 1085q15 114 88 197.5t175.5 123t221.5 39.5q82 0 155 -22.5t130.5 -64.5t86 -110t16.5 -153q-15 -115 -91.5 -194.5t-184.5 -117.5q128 -41 202 -139t55 -242z" glyph-name="germandbls" horiz-adv-x="1293" unicode="ß"/><glyph d="M503 1569h122l203 -307h-103zM759 1129q242 0 342 -99.5t67 -338.5l-97 -691h-114l20 172q-75 -74 -207.5 -129.5t-310.5 -54.5q-184 1 -270.5 77.5t-67.5 214.5q14 118 80 194.5t181.5 116t280.5 49t378 -7.5l11 73q19 180 -51 254t-266 77q-91 1 -188.5 -21t-175.5 -62 l14 97q162 79 374 79zM991 272l38 269q-251 18 -421.5 7.5t-264 -71t-111.5 -181.5q-15 -117 58.5 -166.5t236.5 -47.5q152 0 274.5 58t189.5 132z" glyph-name="agrave" horiz-adv-x="1347" unicode="à"/><glyph d="M1139 1569l-311 -307h-103l292 307h122zM759 1129q242 0 342 -99.5t67 -338.5l-97 -691h-114l20 172q-75 -74 -207.5 -129.5t-310.5 -54.5q-184 1 -270.5 77.5t-67.5 214.5q14 118 80 194.5t181.5 116t280.5 49t378 -7.5l11 73q19 180 -51 254t-266 77q-91 1 -188.5 -21 t-175.5 -62l14 97q162 79 374 79zM991 272l38 269q-251 18 -421.5 7.5t-264 -71t-111.5 -181.5q-15 -117 58.5 -166.5t236.5 -47.5q152 0 274.5 58t189.5 132z" glyph-name="aacute" horiz-adv-x="1347" unicode="á"/><glyph d="M1062 1262h-104l-144 260l-219 -260h-103l259 307h139zM759 1129q242 0 342 -99.5t67 -338.5l-97 -691h-114l20 172q-75 -74 -207.5 -129.5t-310.5 -54.5q-184 1 -270.5 77.5t-67.5 214.5q14 118 80 194.5t181.5 116t280.5 49t378 -7.5l11 73q19 180 -51 254t-266 77 q-91 1 -188.5 -21t-175.5 -62l14 97q162 79 374 79zM991 272l38 269q-251 18 -421.5 7.5t-264 -71t-111.5 -181.5q-15 -117 58.5 -166.5t236.5 -47.5q152 0 274.5 58t189.5 132z" glyph-name="acircumflex" horiz-adv-x="1347" unicode="â"/><glyph d="M485 1263q9 82 60.5 134t124.5 52q38 0 75 -18.5t61.5 -41t56.5 -41t61 -18.5q35 0 63.5 34t35.5 78h74q-12 -83 -65 -135t-123 -52q-31 0 -65.5 18.5t-60 41t-58 40.5t-58.5 18q-42 0 -72.5 -32t-37.5 -79zM759 1129q242 0 342 -99.5t67 -338.5l-97 -691h-114l20 172 q-75 -74 -207.5 -129.5t-310.5 -54.5q-184 1 -270.5 77.5t-67.5 214.5q14 118 80 194.5t181.5 116t280.5 49t378 -7.5l11 73q19 180 -51 254t-266 77q-91 1 -188.5 -21t-175.5 -62l14 97q162 79 374 79zM991 272l38 269q-251 18 -421.5 7.5t-264 -71t-111.5 -181.5 q-15 -117 58.5 -166.5t236.5 -47.5q152 0 274.5 58t189.5 132z" glyph-name="atilde" horiz-adv-x="1347" unicode="ã"/><glyph d="M545 1386h143l-17 -124h-144zM901 1386h142l-17 -124h-143zM759 1129q242 0 342 -99.5t67 -338.5l-97 -691h-114l20 172q-75 -74 -207.5 -129.5t-310.5 -54.5q-184 1 -270.5 77.5t-67.5 214.5q14 118 80 194.5t181.5 116t280.5 49t378 -7.5l11 73q19 180 -51 254t-266 77 q-91 1 -188.5 -21t-175.5 -62l14 97q162 79 374 79zM991 272l38 269q-251 18 -421.5 7.5t-264 -71t-111.5 -181.5q-15 -117 58.5 -166.5t236.5 -47.5q152 0 274.5 58t189.5 132z" glyph-name="adieresis" horiz-adv-x="1347" unicode="ä"/><glyph d="M777 1262q-77 0 -123.5 54t-35.5 131q10 76 72.5 130.5t138.5 54.5t123 -54.5t37 -130.5q-11 -77 -73.5 -131t-138.5 -54zM787.5 1332q47.5 0 85.5 34t46 81q6 47 -23 81t-76 34t-86 -34t-45 -81q-7 -47 22 -81t76.5 -34zM759 1129q242 0 342 -99.5t67 -338.5l-97 -691 h-114l20 172q-75 -74 -207.5 -129.5t-310.5 -54.5q-184 1 -270.5 77.5t-67.5 214.5q14 118 80 194.5t181.5 116t280.5 49t378 -7.5l11 73q19 180 -51 254t-266 77q-91 1 -188.5 -21t-175.5 -62l14 97q162 79 374 79zM991 272l38 269q-251 18 -421.5 7.5t-264 -71 t-111.5 -181.5q-15 -117 58.5 -166.5t236.5 -47.5q152 0 274.5 58t189.5 132z" glyph-name="aring" horiz-adv-x="1347" unicode="å"/><glyph d="M2127 531h-941q-9 -94 13 -171.5t65 -129.5t103 -88t126 -51.5t135 -15.5q180 0 331 79l-13 -94q-153 -73 -355 -72q-155 0 -288.5 70t-194.5 205l-37 -263h-114l20 172q-75 -74 -207.5 -129.5t-310.5 -54.5q-184 1 -270.5 77.5t-67.5 214.5q14 118 80 194.5t181.5 116 t280.5 49t378 -7.5l11 73q19 180 -51 254t-266 77q-91 1 -188.5 -21t-175.5 -62l14 97q162 80 374 79q200 0 301.5 -66t114.5 -219q88 140 226.5 212.5t286.5 72.5q112 0 206 -38.5t159.5 -114t87 -187.5t-13.5 -258zM1681 1042q-164 -2 -299.5 -111.5t-181.5 -308.5h837 q20 103 -3.5 186.5t-77.5 133t-125 75t-150 25.5zM991 272l38 269q-251 18 -421.5 7.5t-264 -71t-111.5 -181.5q-15 -117 58.5 -166.5t236.5 -47.5q152 0 274.5 58t189.5 132z" glyph-name="ae" horiz-adv-x="2295" unicode="æ"/><glyph d="M799 1033q-88 -2 -172 -31.5t-157 -85.5t-124.5 -148.5t-68 -208.5t9 -208.5t83 -149t133 -86t163.5 -30.5q184 -3 333 78l-14 -103q-142 -69 -325 -72l-54 -51q7 2 35 2q53 0 84 -25.5t25 -74.5q-8 -55 -58.5 -81t-129.5 -26q-50 0 -95 8l8 55q38 -5 73 -5q115 0 121 50 q4 30 -18.5 40t-73.5 10q-28 0 -40 -2l6 45l59 56q-99 7 -185 45.5t-151.5 106t-95 176t-10.5 242.5q19 140 84.5 252.5t156.5 180t193.5 102.5t207.5 35q195 0 323 -72l-14 -103q-129 82 -312 79z" glyph-name="ccedilla" horiz-adv-x="1215" unicode="ç"/><glyph d="M845 1262h-104l-222 307h122zM1212 531h-941q-9 -94 13 -171.5t65 -129.5t103.5 -88t126 -51.5t135.5 -15.5q180 0 330 79l-13 -94q-153 -73 -354 -72q-84 0 -164 20.5t-151.5 66t-122.5 110.5t-73.5 161.5t-5.5 212.5q19 140 81 252.5t148.5 180t184.5 102.5t199 35 q112 0 206 -38.5t159.5 -114t87 -187.5t-13.5 -258zM767 1042q-164 -2 -299.5 -111.5t-181.5 -308.5h836q20 103 -3 186.5t-77.5 133t-125 75t-149.5 25.5z" glyph-name="egrave" horiz-adv-x="1380" unicode="è"/><glyph d="M1155 1569l-310 -307h-104l292 307h122zM1212 531h-941q-9 -94 13 -171.5t65 -129.5t103.5 -88t126 -51.5t135.5 -15.5q180 0 330 79l-13 -94q-153 -73 -354 -72q-84 0 -164 20.5t-151.5 66t-122.5 110.5t-73.5 161.5t-5.5 212.5q19 140 81 252.5t148.5 180t184.5 102.5 t199 35q112 0 206 -38.5t159.5 -114t87 -187.5t-13.5 -258zM767 1042q-164 -2 -299.5 -111.5t-181.5 -308.5h836q20 103 -3 186.5t-77.5 133t-125 75t-149.5 25.5z" glyph-name="eacute" horiz-adv-x="1380" unicode="é"/><glyph d="M829 1522l-219 -260h-103l259 307h139l172 -307h-103zM1212 531h-941q-9 -94 13 -171.5t65 -129.5t103.5 -88t126 -51.5t135.5 -15.5q180 0 330 79l-13 -94q-153 -73 -354 -72q-84 0 -164 20.5t-151.5 66t-122.5 110.5t-73.5 161.5t-5.5 212.5q19 140 81 252.5t148.5 180 t184.5 102.5t199 35q112 0 206 -38.5t159.5 -114t87 -187.5t-13.5 -258zM767 1042q-164 -2 -299.5 -111.5t-181.5 -308.5h836q20 103 -3 186.5t-77.5 133t-125 75t-149.5 25.5z" glyph-name="ecircumflex" horiz-adv-x="1380" unicode="ê"/><glyph d="M703 1386l-17 -124h-143l17 124h143zM1059 1386l-18 -124h-143l18 124h143zM1212 531h-941q-9 -94 13 -171.5t65 -129.5t103.5 -88t126 -51.5t135.5 -15.5q180 0 330 79l-13 -94q-153 -73 -354 -72q-84 0 -164 20.5t-151.5 66t-122.5 110.5t-73.5 161.5t-5.5 212.5 q19 140 81 252.5t148.5 180t184.5 102.5t199 35q112 0 206 -38.5t159.5 -114t87 -187.5t-13.5 -258zM767 1042q-164 -2 -299.5 -111.5t-181.5 -308.5h836q20 103 -3 186.5t-77.5 133t-125 75t-149.5 25.5z" glyph-name="edieresis" horiz-adv-x="1380" unicode="ë"/><glyph d="M83 1569h122l204 -307h-104zM278 1117h117l-156 -1117h-118z" glyph-name="igrave" horiz-adv-x="516" unicode="ì"/><glyph d="M719 1569l-310 -307h-104l292 307h122zM278 1117h117l-156 -1117h-118z" glyph-name="iacute" horiz-adv-x="516" unicode="í"/><glyph d="M641 1262h-103l-145 260l-219 -260h-103l259 307h139zM278 1117h117l-156 -1117h-118z" glyph-name="icircumflex" horiz-adv-x="516" unicode="î"/><glyph d="M124 1386h143l-17 -124h-144zM480 1386h143l-18 -124h-143zM278 1117h117l-156 -1117h-118z" glyph-name="idieresis" horiz-adv-x="516" unicode="ï"/><glyph d="M952 1175q206 -299 251 -377q70 -120 76 -208q3 -45 -6 -109q-13 -98 -57.5 -180.5t-107 -139.5t-141 -96t-161 -57.5t-165.5 -18.5t-160 18.5t-144 57.5t-113.5 96t-67.5 139.5t-8 180.5q16 116 73 209t136 150t169.5 89t186.5 35q152 8 276 -53l-165 241l-272 -48 l10 71l220 38l-150 221h143q100 -148 134 -197l340 60l-10 -71zM1155 481q13 94 -13.5 172.5t-83 128t-131 77t-159.5 27.5q-86 0 -167.5 -24.5t-151.5 -73t-119 -127.5t-64 -180q-13 -98 13.5 -177t83 -127.5t131 -74.5t160.5 -26t168 26t151.5 74.5t118.5 127.5t63 177z " glyph-name="eth" horiz-adv-x="1443" unicode="ð"/><glyph d="M520 1263q9 82 60.5 134t124.5 52q38 0 75 -18.5t61.5 -41t56.5 -41t60 -18.5q35 0 64 34t36 78h74q-12 -83 -65 -135t-123 -52q-31 0 -65.5 18.5t-60 41t-58 40.5t-59.5 18q-42 0 -72 -32t-37 -79zM238 0h-117l157 1117h117l-35 -255q91 139 232.5 203t300.5 64 q88 0 157 -25.5t119.5 -78.5t69.5 -143.5t2 -212.5l-93 -669h-118l90 646q29 206 -49 299t-233 93q-79 0 -158.5 -26t-152.5 -76.5t-128 -136.5t-75 -195z" glyph-name="ntilde" horiz-adv-x="1424" unicode="ñ"/><glyph d="M547 1569h122l203 -307h-103zM1284 558q-16 -117 -62 -213t-110.5 -161t-144 -110t-161.5 -65.5t-165 -20.5t-158.5 20.5t-142.5 65.5t-112.5 110t-65 161t-2.5 213q19 141 84.5 253.5t156.5 180t193.5 102.5t207.5 35t198.5 -35t165 -102.5t104.5 -180t14 -253.5z M653 76q86 0 168.5 29.5t154.5 87t123 152t67 213.5q16 117 -8 210.5t-79 152t-129 89.5t-160.5 31t-169 -31t-154 -89.5t-122 -152t-66.5 -210.5q-16 -119 8 -213.5t79.5 -152t129 -87t158.5 -29.5z" glyph-name="ograve" horiz-adv-x="1443" unicode="ò"/><glyph d="M1183 1569l-311 -307h-103l292 307h122zM1284 558q-16 -117 -62 -213t-110.5 -161t-144 -110t-161.5 -65.5t-165 -20.5t-158.5 20.5t-142.5 65.5t-112.5 110t-65 161t-2.5 213q19 141 84.5 253.5t156.5 180t193.5 102.5t207.5 35t198.5 -35t165 -102.5t104.5 -180 t14 -253.5zM653 76q86 0 168.5 29.5t154.5 87t123 152t67 213.5q16 117 -8 210.5t-79 152t-129 89.5t-160.5 31t-169 -31t-154 -89.5t-122 -152t-66.5 -210.5q-16 -119 8 -213.5t79.5 -152t129 -87t158.5 -29.5z" glyph-name="oacute" horiz-adv-x="1443" unicode="ó"/><glyph d="M1106 1262h-104l-144 260l-219 -260h-103l259 307h139zM1284 558q-16 -117 -62 -213t-110.5 -161t-144 -110t-161.5 -65.5t-165 -20.5t-158.5 20.5t-142.5 65.5t-112.5 110t-65 161t-2.5 213q19 141 84.5 253.5t156.5 180t193.5 102.5t207.5 35t198.5 -35t165 -102.5 t104.5 -180t14 -253.5zM653 76q86 0 168.5 29.5t154.5 87t123 152t67 213.5q16 117 -8 210.5t-79 152t-129 89.5t-160.5 31t-169 -31t-154 -89.5t-122 -152t-66.5 -210.5q-16 -119 8 -213.5t79.5 -152t129 -87t158.5 -29.5z" glyph-name="ocircumflex" horiz-adv-x="1443" unicode="ô"/><glyph d="M529 1263q9 82 60.5 134t124.5 52q38 0 75 -18.5t62 -41t56.5 -41t60.5 -18.5q35 0 63.5 34t35.5 78h74q-12 -83 -65 -135t-123 -52q-31 0 -65.5 18.5t-60 41t-58 40.5t-58.5 18q-42 0 -72.5 -32t-37.5 -79zM1284 558q-16 -117 -62 -213t-110.5 -161t-144 -110 t-161.5 -65.5t-165 -20.5t-158.5 20.5t-142.5 65.5t-112.5 110t-65 161t-2.5 213q19 141 84.5 253.5t156.5 180t193.5 102.5t207.5 35t198.5 -35t165 -102.5t104.5 -180t14 -253.5zM653 76q86 0 168.5 29.5t154.5 87t123 152t67 213.5q16 117 -8 210.5t-79 152t-129 89.5 t-160.5 31t-169 -31t-154 -89.5t-122 -152t-66.5 -210.5q-16 -119 8 -213.5t79.5 -152t129 -87t158.5 -29.5z" glyph-name="otilde" horiz-adv-x="1443" unicode="õ"/><glyph d="M589 1386h143l-17 -124h-144zM945 1386h142l-17 -124h-143zM1284 558q-16 -117 -62 -213t-110.5 -161t-144 -110t-161.5 -65.5t-165 -20.5t-158.5 20.5t-142.5 65.5t-112.5 110t-65 161t-2.5 213q19 141 84.5 253.5t156.5 180t193.5 102.5t207.5 35t198.5 -35t165 -102.5 t104.5 -180t14 -253.5zM653 76q86 0 168.5 29.5t154.5 87t123 152t67 213.5q16 117 -8 210.5t-79 152t-129 89.5t-160.5 31t-169 -31t-154 -89.5t-122 -152t-66.5 -210.5q-16 -119 8 -213.5t79.5 -152t129 -87t158.5 -29.5z" glyph-name="odieresis" horiz-adv-x="1443" unicode="ö"/><glyph d="M639 1118h149l-18 -129h-149zM1079 672h-857l14 90h856zM544 444h149l-18 -129h-149z" glyph-name="divide" horiz-adv-x="1269" unicode="÷"/><glyph d="M1367 1090l-163 -144q114 -152 80 -388q-16 -117 -62 -213t-110.5 -161t-144 -110t-161.5 -65.5t-165 -20.5q-108 0 -204 35t-165 106l-160 -141l-34 40l161 141q-112 148 -79 389q19 141 84.5 253.5t156.5 180t193.5 102.5t207.5 35q108 0 204 -36t164 -107l162 142z M278 558q-26 -187 49 -312l758 666q-53 63 -129.5 96t-165.5 33q-86 0 -169 -31t-154.5 -89.5t-122 -152t-66.5 -210.5zM1166 558q27 185 -50 311l-760 -666q108 -127 297 -127q86 0 168.5 29.5t154.5 87t123 152t67 213.5z" glyph-name="oslash" horiz-adv-x="1443" unicode="ø"/><glyph d="M511 1569h122l204 -307h-104zM1187 1117h117l-157 -1117h-118l36 256q-62 -95 -153 -157t-184 -86.5t-196 -24.5q-89 0 -158 25.5t-119 78.5t-69.5 144.5t-2.5 213.5l95 667h117l-91 -646q-14 -105 0.5 -182.5t55 -122t97 -65.5t131.5 -21q79 0 158 26t152.5 76.5 t128 137t75.5 194.5z" glyph-name="ugrave" horiz-adv-x="1424" unicode="ù"/><glyph d="M1147 1569l-310 -307h-104l292 307h122zM1187 1117h117l-157 -1117h-118l36 256q-62 -95 -153 -157t-184 -86.5t-196 -24.5q-89 0 -158 25.5t-119 78.5t-69.5 144.5t-2.5 213.5l95 667h117l-91 -646q-14 -105 0.5 -182.5t55 -122t97 -65.5t131.5 -21q79 0 158 26 t152.5 76.5t128 137t75.5 194.5z" glyph-name="uacute" horiz-adv-x="1424" unicode="ú"/><glyph d="M1069 1262h-103l-145 260l-219 -260h-103l259 307h139zM1187 1117h117l-157 -1117h-118l36 256q-62 -95 -153 -157t-184 -86.5t-196 -24.5q-89 0 -158 25.5t-119 78.5t-69.5 144.5t-2.5 213.5l95 667h117l-91 -646q-14 -105 0.5 -182.5t55 -122t97 -65.5t131.5 -21 q79 0 158 26t152.5 76.5t128 137t75.5 194.5z" glyph-name="ucircumflex" horiz-adv-x="1424" unicode="û"/><glyph d="M553 1386h143l-17 -124h-143zM909 1386h143l-18 -124h-143zM1187 1117h117l-157 -1117h-118l36 256q-62 -95 -153 -157t-184 -86.5t-196 -24.5q-89 0 -158 25.5t-119 78.5t-69.5 144.5t-2.5 213.5l95 667h117l-91 -646q-14 -105 0.5 -182.5t55 -122t97 -65.5t131.5 -21 q79 0 158 26t152.5 76.5t128 137t75.5 194.5z" glyph-name="udieresis" horiz-adv-x="1424" unicode="ü"/><glyph d="M1077 1569l-310 -307h-103l291 307h122zM1078 1117h125l-592 -1058q-35 -62 -67.5 -111.5t-87 -110.5t-111.5 -102t-139 -72t-173 -36l8 86q84 8 154 40t122.5 84t89 105t71.5 121l-292 1054h125l252 -936z" glyph-name="yacute" horiz-adv-x="1232" unicode="ý"/><glyph d="M849 1129q104 0 192 -35t154 -102.5t94 -180t8 -253.5q-16 -114 -58.5 -209t-101.5 -160.5t-133 -111.5t-153.5 -67.5t-162.5 -21.5q-144 0 -255.5 72.5t-148.5 210.5l-98 -690h-117l275 1955h118l-97 -690q50 93 131 158t170.5 95t182.5 30zM683 74q86 0 166.5 30.5 t148.5 89.5t116.5 153t65.5 211q16 118 -6 212t-73.5 153t-123.5 89.5t-158 30.5q-108 0 -206 -46t-176.5 -147.5t-105.5 -244.5l-13 -94q-9 -108 16.5 -193.5t78.5 -137.5t121.5 -79t148.5 -27z" glyph-name="thorn" horiz-adv-x="1457" unicode="þ"/><glyph d="M482 1386h144l-18 -124h-143zM839 1386h142l-17 -124h-144zM1078 1117h125l-592 -1058q-35 -62 -67.5 -111.5t-87 -110.5t-111.5 -102t-139 -72t-173 -36l8 86q84 8 154 40t122.5 84t89 105t71.5 121l-292 1054h125l252 -936z" glyph-name="ydieresis" horiz-adv-x="1232" unicode="ÿ"/><glyph d="M1104 1658l-11 -80h-490l11 80h490zM1151 0l-88 346h-773l-186 -346h-132l772 1434h169l370 -1434h-132zM342 443h696l-224 884z" glyph-name="Amacron" horiz-adv-x="1412" unicode="Ā"/><glyph d="M543 1341h489l-11 -79h-490zM759 1129q242 0 342 -99.5t67 -338.5l-97 -691h-114l20 172q-75 -74 -207.5 -129.5t-310.5 -54.5q-184 1 -270.5 77.5t-67.5 214.5q14 118 80 194.5t181.5 116t280.5 49t378 -7.5l11 73q19 180 -51 254t-266 77q-91 1 -188.5 -21t-175.5 -62 l14 97q162 79 374 79zM991 272l38 269q-251 18 -421.5 7.5t-264 -71t-111.5 -181.5q-15 -117 58.5 -166.5t236.5 -47.5q152 0 274.5 58t189.5 132z" glyph-name="amacron" horiz-adv-x="1347" unicode="ā"/><glyph d="M848 1578q-99 0 -160 66.5t-53 164.5h82q-8 -68 33 -113.5t109 -45.5q67 0 121 46.5t66 112.5h81q-20 -98 -99.5 -164.5t-179.5 -66.5zM1151 0l-88 346h-773l-186 -346h-132l772 1434h169l370 -1434h-132zM342 443h696l-224 884z" glyph-name="Abreve" horiz-adv-x="1412" unicode="Ă"/><glyph d="M1056 1493q-20 -98 -99.5 -164.5t-180.5 -66.5q-99 0 -160 66.5t-53 164.5h82q-8 -68 33 -114t109 -46q67 0 121.5 46.5t65.5 113.5h82zM759 1129q242 0 342 -99.5t67 -338.5l-97 -691h-114l20 172q-75 -74 -207.5 -129.5t-310.5 -54.5q-184 1 -270.5 77.5t-67.5 214.5 q14 118 80 194.5t181.5 116t280.5 49t378 -7.5l11 73q19 180 -51 254t-266 77q-91 1 -188.5 -21t-175.5 -62l14 97q162 79 374 79zM991 272l38 269q-251 18 -421.5 7.5t-264 -71t-111.5 -181.5q-15 -117 58.5 -166.5t236.5 -47.5q152 0 274.5 58t189.5 132z" glyph-name="abreve" horiz-adv-x="1347" unicode="ă"/><glyph d="M1094 -141q-1 -42 51.5 -59.5t125.5 -0.5l-2 -61q-111 -30 -189 1.5t-71 102.5q8 119 167 158h-25l-88 346h-773l-186 -346h-132l772 1434h169l370 -1434h-29q-158 -50 -160 -141zM342 443h696l-224 884z" glyph-name="Aogonek" horiz-adv-x="1412" unicode="Ą"/><glyph d="M759 1129q242 0 342 -99.5t67 -338.5l-97 -691h-24q-153 -50 -155 -139q-1 -42 51.5 -59.5t125.5 -0.5l-2 -61q-111 -30 -188.5 1.5t-71.5 102.5q8 115 159 156h-9l20 172q-75 -74 -207.5 -129.5t-310.5 -54.5q-184 1 -270.5 77.5t-67.5 214.5q14 118 80 194.5t181.5 116 t280.5 49t378 -7.5l11 73q19 180 -51 254t-266 77q-91 1 -188.5 -21t-175.5 -62l14 97q162 79 374 79zM527 82q152 0 275 58.5t189 131.5l38 269q-251 18 -421.5 7.5t-264 -71t-111.5 -181.5q-15 -117 58 -166.5t237 -47.5z" glyph-name="aogonek" horiz-adv-x="1347" unicode="ą"/><glyph d="M1339 1885l-310 -307h-103l292 307h121zM1307 1247q-154 101 -349 96q-88 -2 -174 -26.5t-167 -75t-147 -122.5t-113 -175.5t-64.5 -226.5t0.5 -226.5t63.5 -175t113 -123t146.5 -76t166 -26.5q196 -3 376 97l-15 -110q-176 -89 -375 -89q-106 0 -203.5 28.5t-179 88 t-137 144.5t-78 205t-3 262.5t76.5 263.5t136.5 205.5t178 144.5t203.5 88t212 28q196 0 349 -89z" glyph-name="Cacute" horiz-adv-x="1417" unicode="Ć"/><glyph d="M1183 1569l-311 -307h-103l292 307h122zM1111 954q-129 82 -312 79q-88 -2 -172 -31.5t-157 -85.5t-124.5 -148.5t-68 -208.5t9 -208.5t83 -149t133 -86t163.5 -30.5q184 -3 333 78l-14 -103q-151 -73 -344 -72q-104 0 -197.5 35t-165 103t-105 180t-13.5 253 q19 140 84.5 252.5t156.5 180t193.5 102.5t207.5 35q195 0 323 -72z" glyph-name="cacute" horiz-adv-x="1215" unicode="ć"/><glyph d="M923 1703h143l-17 -125h-144zM1307 1247q-154 101 -349 96q-88 -2 -174 -26.5t-167 -75t-147 -122.5t-113 -175.5t-64.5 -226.5t0.5 -226.5t63.5 -175t113 -123t146.5 -76t166 -26.5q196 -3 376 97l-15 -110q-176 -89 -375 -89q-106 0 -203.5 28.5t-179 88t-137 144.5 t-78 205t-3 262.5t76.5 263.5t136.5 205.5t178 144.5t203.5 88t212 28q196 0 349 -89z" glyph-name="Cdotaccent" horiz-adv-x="1417" unicode="Ċ"/><glyph d="M767 1386h143l-17 -124h-143zM1111 954q-129 82 -312 79q-88 -2 -172 -31.5t-157 -85.5t-124.5 -148.5t-68 -208.5t9 -208.5t83 -149t133 -86t163.5 -30.5q184 -3 333 78l-14 -103q-151 -73 -344 -72q-104 0 -197.5 35t-165 103t-105 180t-13.5 253q19 140 84.5 252.5 t156.5 180t193.5 102.5t207.5 35q195 0 323 -72z" glyph-name="cdotaccent" horiz-adv-x="1215" unicode="ċ"/><glyph d="M1202 1885h104l-259 -307h-140l-172 307h104l145 -260zM1307 1247q-154 101 -349 96q-88 -2 -174 -26.5t-167 -75t-147 -122.5t-113 -175.5t-64.5 -226.5t0.5 -226.5t63.5 -175t113 -123t146.5 -76t166 -26.5q196 -3 376 97l-15 -110q-176 -89 -375 -89 q-106 0 -203.5 28.5t-179 88t-137 144.5t-78 205t-3 262.5t76.5 263.5t136.5 205.5t178 144.5t203.5 88t212 28q196 0 349 -89z" glyph-name="Ccaron" horiz-adv-x="1417" unicode="Č"/><glyph d="M1047 1569h103l-259 -307h-139l-172 307h103l145 -260zM1111 954q-129 82 -312 79q-88 -2 -172 -31.5t-157 -85.5t-124.5 -148.5t-68 -208.5t9 -208.5t83 -149t133 -86t163.5 -30.5q184 -3 333 78l-14 -103q-151 -73 -344 -72q-104 0 -197.5 35t-165 103t-105 180 t-13.5 253q19 140 84.5 252.5t156.5 180t193.5 102.5t207.5 35q195 0 323 -72z" glyph-name="ccaron" horiz-adv-x="1215" unicode="č"/><glyph d="M1137 1885h103l-259 -307h-139l-172 307h103l146 -260zM1419 717q-19 -144 -71.5 -263t-126.5 -202.5t-169.5 -141t-202 -84t-221.5 -26.5h-500l201 1434h499q146 0 264 -44t201 -130t117.5 -225.5t8.5 -317.5zM632 97q123 0 232.5 39.5t198 115t149.5 194.5t82.5 270.5 t-6 271t-95.5 195t-166 114.5t-221 39h-365l-175 -1239h366z" glyph-name="Dcaron" horiz-adv-x="1542" unicode="Ď"/><glyph d="M160 559q16 114 58.5 209t101.5 160.5t133 111.5t153.5 67.5t162.5 21.5q145 0 254.5 -65.5t152.5 -202.5l95 675h118l-217 -1536h-100l32 259q-58 -96 -143 -159t-171.5 -87.5t-181.5 -24.5q-83 0 -155.5 21t-134.5 64.5t-102.5 111t-57 160.5t1.5 214zM1686 1424h125 l-151 -454h-99zM633 76q81 0 157 26t144 77.5t118.5 140.5t70.5 204l11 77q9 108 -17 194t-78.5 139t-121 81t-148.5 28q-86 0 -166.5 -30.5t-148.5 -89.5t-116.5 -153t-65.5 -211q-16 -120 6 -214.5t74 -152t124 -87t157 -29.5z" glyph-name="dcaron" horiz-adv-x="1889" unicode="ď"/><glyph d="M830 1434q146 0 264 -44t201 -130t117.5 -225.5t8.5 -317.5q-25 -179 -98.5 -319t-180.5 -225.5t-236.5 -129t-275.5 -43.5h-500l95 681h-155l10 72h156l95 681h499zM1296.5 716.5q21.5 151.5 -6 271t-95.5 195t-166 114.5t-221 39h-365l-83 -583h382l-10 -72h-381 l-83 -584h365q123 0 232.5 39.5t198.5 115t150 194.5t82.5 270.5z" glyph-name="Dcroat" horiz-adv-x="1544" unicode="Đ"/><glyph d="M1495 1361l-10 -71h-131l-182 -1290h-100l32 259q-58 -96 -143 -159t-171.5 -87.5t-181.5 -24.5q-83 0 -155.5 21t-134.5 64.5t-102.5 111t-57.5 160.5t2 214q16 114 58.5 209t101.5 160.5t133 111.5t153.5 67.5t162.5 21.5q145 0 254.5 -65.5t152.5 -202.5l60 429h-421 l10 71h421l25 175h118l-25 -175h131zM1134 601q9 108 -17 194t-78.5 139t-121 81t-148.5 28q-86 0 -166.5 -30.5t-148.5 -89.5t-116.5 -153t-65.5 -211q-16 -120 6 -214.5t74 -152t124 -87t157 -29.5q81 0 157 26t144 77.5t118.5 140.5t70.5 204z" glyph-name="dcroat" horiz-adv-x="1457" unicode="đ"/><glyph d="M613 1658h490l-11 -80h-490zM266 97h871l-14 -97h-995l201 1434h996l-13 -98h-871l-81 -571h787l-13 -96h-787z" glyph-name="Emacron" horiz-adv-x="1408" unicode="Ē"/><glyph d="M1049 1341l-12 -79h-489l11 79h490zM1212 531h-941q-9 -94 13 -171.5t65 -129.5t103.5 -88t126 -51.5t135.5 -15.5q180 0 330 79l-13 -94q-153 -73 -354 -72q-84 0 -164 20.5t-151.5 66t-122.5 110.5t-73.5 161.5t-5.5 212.5q19 140 81 252.5t148.5 180t184.5 102.5 t199 35q112 0 206 -38.5t159.5 -114t87 -187.5t-13.5 -258zM767 1042q-164 -2 -299.5 -111.5t-181.5 -308.5h836q20 103 -3 186.5t-77.5 133t-125 75t-149.5 25.5z" glyph-name="emacron" horiz-adv-x="1380" unicode="ē"/><glyph d="M793 1703h143l-17 -125h-144zM266 97h871l-14 -97h-995l201 1434h996l-13 -98h-871l-81 -571h787l-13 -96h-787z" glyph-name="Edotaccent" horiz-adv-x="1408" unicode="Ė"/><glyph d="M882 1386l-18 -124h-143l17 124h144zM1212 531h-941q-9 -94 13 -171.5t65 -129.5t103.5 -88t126 -51.5t135.5 -15.5q180 0 330 79l-13 -94q-153 -73 -354 -72q-84 0 -164 20.5t-151.5 66t-122.5 110.5t-73.5 161.5t-5.5 212.5q19 140 81 252.5t148.5 180t184.5 102.5 t199 35q112 0 206 -38.5t159.5 -114t87 -187.5t-13.5 -258zM767 1042q-164 -2 -299.5 -111.5t-181.5 -308.5h836q20 103 -3 186.5t-77.5 133t-125 75t-149.5 25.5z" glyph-name="edotaccent" horiz-adv-x="1380" unicode="ė"/><glyph d="M1312 1336h-871l-81 -571h787l-13 -96h-787l-81 -572h871l-14 -97h-457q-159 -50 -161 -141q-1 -42 51.5 -59.5t125.5 -0.5l-2 -61q-111 -30 -188.5 1.5t-71.5 102.5q8 119 167 158h-459l201 1434h996z" glyph-name="Eogonek" horiz-adv-x="1408" unicode="Ę"/><glyph d="M1212 531h-941q-9 -94 13 -171.5t65 -129.5t103.5 -88t126 -51.5t135.5 -15.5q180 0 330 79l-13 -94q-153 -73 -354 -72h-6q-124 -48 -126 -129q-1 -42 51.5 -59.5t125.5 -0.5l-2 -61q-111 -30 -188.5 1.5t-71.5 102.5q8 108 140 151q-97 11 -181 50.5t-150.5 106.5 t-97 173t-11.5 236q19 140 81 252.5t148.5 180t184.5 102.5t199 35q112 0 206 -38.5t159.5 -114t87 -187.5t-13.5 -258zM767 1042q-164 -2 -299.5 -111.5t-181.5 -308.5h836q20 103 -3 186.5t-77.5 133t-125 75t-149.5 25.5z" glyph-name="eogonek" horiz-adv-x="1380" unicode="ę"/><glyph d="M1072 1885h104l-260 -307h-139l-172 307h104l145 -260zM266 97h871l-14 -97h-995l201 1434h996l-13 -98h-871l-81 -571h787l-13 -96h-787z" glyph-name="Ecaron" horiz-adv-x="1408" unicode="Ě"/><glyph d="M862 1262h-139l-172 307h103l146 -260l218 260h103zM1212 531h-941q-9 -94 13 -171.5t65 -129.5t103.5 -88t126 -51.5t135.5 -15.5q180 0 330 79l-13 -94q-153 -73 -354 -72q-84 0 -164 20.5t-151.5 66t-122.5 110.5t-73.5 161.5t-5.5 212.5q19 140 81 252.5t148.5 180 t184.5 102.5t199 35q112 0 206 -38.5t159.5 -114t87 -187.5t-13.5 -258zM767 1042q-164 -2 -299.5 -111.5t-181.5 -308.5h836q20 103 -3 186.5t-77.5 133t-125 75t-149.5 25.5z" glyph-name="ecaron" horiz-adv-x="1380" unicode="ě"/><glyph d="M1265 1809q-20 -98 -100 -164.5t-180 -66.5q-99 0 -160 66.5t-53 164.5h82q-8 -68 33 -113.5t109 -45.5q67 0 121 46.5t66 112.5h82zM864 769h466l-90 -642q-221 -139 -472 -139q-134 0 -251.5 46t-205.5 134t-128.5 230.5t-15.5 318.5q19 142 76 263t136.5 205.5 t178 144.5t203.5 88t212 28q197 0 349 -89l-15 -106q-154 102 -349 98q-88 -1 -174 -26.5t-167 -77t-147 -124.5t-113 -177t-64.5 -227t0.5 -227t63 -177t112.5 -125t146.5 -77t166 -26q89 -1 193 30.5t166 75.5l67 487h-356z" glyph-name="Gbreve" horiz-adv-x="1507" unicode="Ğ"/><glyph d="M1107 1493q-20 -98 -99.5 -164.5t-180.5 -66.5q-99 0 -160 66.5t-53 164.5h82q-8 -68 33 -114t110 -46q67 0 121 46.5t65 113.5h82zM1212 1117h116l-141 -1012q-15 -112 -58.5 -202t-103 -149.5t-136.5 -100t-158 -58t-169 -17.5q-197 0 -325 73l14 98q126 -81 314 -78 q91 1 170.5 23.5t149.5 70t118 130.5t64 196l24 171q-81 -136 -207.5 -199.5t-273.5 -63.5q-83 0 -156.5 22t-135 66t-101.5 111.5t-56.5 159t0.5 206.5q19 143 78.5 254.5t143 178t179 99.5t198.5 33q148 0 260 -65.5t156 -200.5zM273 564q-16 -117 6 -210t73.5 -151 t123.5 -88t158 -30q63 0 126 16.5t122.5 52t108 86.5t83.5 123.5t48 159.5l11 75q12 116 -13.5 204t-79.5 138.5t-122.5 75.5t-149.5 25q-85 0 -165 -29t-148.5 -85.5t-117 -150t-64.5 -212.5z" glyph-name="gbreve" horiz-adv-x="1448" unicode="ğ"/><glyph d="M931 1703h143l-17 -125h-144zM864 769h466l-90 -642q-221 -139 -472 -139q-134 0 -251.5 46t-205.5 134t-128.5 230.5t-15.5 318.5q19 142 76 263t136.5 205.5t178 144.5t203.5 88t212 28q197 0 349 -89l-15 -106q-154 102 -349 98q-88 -1 -174 -26.5t-167 -77 t-147 -124.5t-113 -177t-64.5 -227t0.5 -227t63 -177t112.5 -125t146.5 -77t166 -26q89 -1 193 30.5t166 75.5l67 487h-356z" glyph-name="Gdotaccent" horiz-adv-x="1507" unicode="Ġ"/><glyph d="M773 1386h143l-17 -124h-143zM1212 1117h116l-141 -1012q-15 -112 -58.5 -202t-103 -149.5t-136.5 -100t-158 -58t-169 -17.5q-197 0 -325 73l14 98q126 -81 314 -78q91 1 170.5 23.5t149.5 70t118 130.5t64 196l24 171q-81 -136 -207.5 -199.5t-273.5 -63.5 q-83 0 -156.5 22t-135 66t-101.5 111.5t-56.5 159t0.5 206.5q19 143 78.5 254.5t143 178t179 99.5t198.5 33q148 0 260 -65.5t156 -200.5zM273 564q-16 -117 6 -210t73.5 -151t123.5 -88t158 -30q63 0 126 16.5t122.5 52t108 86.5t83.5 123.5t48 159.5l11 75 q12 116 -13.5 204t-79.5 138.5t-122.5 75.5t-149.5 25q-85 0 -165 -29t-148.5 -85.5t-117 -150t-64.5 -212.5z" glyph-name="gdotaccent" horiz-adv-x="1448" unicode="ġ"/><glyph d="M864 769h466l-90 -642q-221 -139 -472 -139q-134 0 -251.5 46t-205.5 134t-128.5 230.5t-15.5 318.5q19 142 76 263t136.5 205.5t178 144.5t203.5 88t212 28q197 0 349 -89l-15 -106q-154 102 -349 98q-88 -1 -174 -26.5t-167 -77t-147 -124.5t-113 -177t-64.5 -227 t0.5 -227t63 -177t112.5 -125t146.5 -77t166 -26q89 -1 193 30.5t166 75.5l67 487h-356zM744 -100h120l-144 -434h-95z" glyph-name="Gcommaaccent" horiz-adv-x="1507" unicode="Ģ"/><glyph d="M889 1260h-121l144 433h96zM1212 1117h116l-141 -1012q-15 -112 -58.5 -202t-103 -149.5t-136.5 -100t-158 -58t-169 -17.5q-197 0 -325 73l14 98q126 -81 314 -78q91 1 170.5 23.5t149.5 70t118 130.5t64 196l24 171q-81 -136 -207.5 -199.5t-273.5 -63.5 q-83 0 -156.5 22t-135 66t-101.5 111.5t-56.5 159t0.5 206.5q19 143 78.5 254.5t143 178t179 99.5t198.5 33q148 0 260 -65.5t156 -200.5zM273 564q-16 -117 6 -210t73.5 -151t123.5 -88t158 -30q63 0 126 16.5t122.5 52t108 86.5t83.5 123.5t48 159.5l11 75 q12 116 -13.5 204t-79.5 138.5t-122.5 75.5t-149.5 25q-85 0 -165 -29t-148.5 -85.5t-117 -150t-64.5 -212.5z" glyph-name="gcommaaccent" horiz-adv-x="1448" unicode="ģ"/><glyph d="M1559 1171l-11 -70h-181l-155 -1101h-125l94 669h-834l-93 -669h-126l155 1101h-182l11 70h180l37 263h126l-37 -263h833l37 263h125l-37 -263h183zM1194 765l47 336h-833l-48 -336h834z" glyph-name="Hbar" horiz-adv-x="1497" unicode="Ħ"/><glyph d="M893 1129q88 0 157 -25.5t119.5 -78.5t69.5 -143.5t2 -212.5l-93 -669h-118l90 646q29 206 -49 299t-233 93q-79 0 -158.5 -26t-152.5 -76.5t-128 -136.5t-75 -195l-86 -604h-117l181 1290h-132l10 71h132l25 175h118l-25 -175h420l-10 -71h-420l-60 -428 q91 139 232.5 203t300.5 64z" glyph-name="hbar" horiz-adv-x="1424" unicode="ħ"/><glyph d="M121 1579q9 82 60 134t124 52q38 0 75.5 -18t62 -41t56 -41t60.5 -18q35 0 63.5 33.5t35.5 77.5h74q-12 -83 -65 -134.5t-122 -51.5q-31 0 -66 18.5t-60.5 41t-57.5 40.5t-59 18q-42 0 -72 -32.5t-37 -79.5zM254 0h-126l201 1434h126z" glyph-name="Itilde" horiz-adv-x="538" unicode="Ĩ"/><glyph d="M65 1263q9 82 60 134t124 52q38 0 75 -18.5t62 -41t56.5 -41t60.5 -18.5q35 0 63.5 34t35.5 78h74q-12 -83 -65 -135t-123 -52q-31 0 -65.5 18.5t-60 41t-58 40.5t-58.5 18q-42 0 -72.5 -32t-37.5 -79zM278 1117h117l-156 -1117h-118z" glyph-name="itilde" horiz-adv-x="516" unicode="ĩ"/><glyph d="M178 1658h490l-12 -80h-489zM254 0h-126l201 1434h126z" glyph-name="Imacron" horiz-adv-x="538" unicode="Ī"/><glyph d="M123 1341h489l-11 -79h-489zM278 1117h117l-156 -1117h-118z" glyph-name="imacron" horiz-adv-x="516" unicode="ī"/><glyph d="M231 0q-159 -50 -160 -141q-1 -42 51.5 -59.5t125.5 -0.5l-2 -61q-111 -30 -188.5 1.5t-71.5 102.5q8 119 167 158h-25l201 1434h126l-201 -1434h-23z" glyph-name="Iogonek" horiz-adv-x="538" unicode="Į"/><glyph d="M306 1434h164l-14 -105h-165zM128 0l157 1117h117l-156 -1117h-20q-159 -50 -160 -141q-1 -42 51.5 -59.5t125.5 -0.5l-2 -61q-111 -30 -189 1.5t-71 102.5q8 119 166 158h-19z" glyph-name="iogonek" horiz-adv-x="530" unicode="į"/><glyph d="M357 1703h144l-18 -125h-143zM254 0h-126l201 1434h126z" glyph-name="Idotaccent" horiz-adv-x="538" unicode="İ"/><glyph d="M278 1117h117l-156 -1117h-118z" glyph-name="dotlessi" horiz-adv-x="516" unicode="ı"/><glyph d="M254 0h-126l201 1434h126zM607 125q102 -42 231 -38q264 4 312 346l140 1001h125l-140 -1003q-60 -443 -445 -443q-143 0 -237 34z" glyph-name="IJ" horiz-adv-x="1499" unicode="Ĳ"/><glyph d="M1340 1434l-843 -712l643 -722h-150l-636 714l-100 -714h-126l201 1434h126l-99 -704l835 704h149zM454 -534l119 434h120l-144 -434h-95z" glyph-name="Kcommaaccent" horiz-adv-x="1301" unicode="Ķ"/><glyph d="M1185 1117l-597 -487l440 -630h-131l-391 562l-213 -173l-54 -389h-118l216 1536h118l-143 -1015l736 596h137zM389 -534l120 434h120l-145 -434h-95z" glyph-name="kcommaaccent" horiz-adv-x="1214" unicode="ķ"/><glyph d="M1185 1117l-597 -487l440 -630h-131l-391 562l-213 -173l-54 -389h-118l157 1117h117l-84 -596l737 596h137z" glyph-name="kgreenlandic" horiz-adv-x="1214" unicode="ĸ"/><glyph d="M1190 1885l-310 -307h-104l292 307h122zM455 1434l-189 -1337h828l-13 -97h-953l201 1434h126z" glyph-name="Lacute" horiz-adv-x="1318" unicode="Ĺ"/><glyph d="M778 1988l-310 -308h-103l291 308h122zM337 1536h118l-216 -1536h-118z" glyph-name="lacute" horiz-adv-x="516" unicode="ĺ"/><glyph d="M455 1434l-189 -1337h828l-13 -97h-953l201 1434h126zM587 -100h120l-145 -434h-95z" glyph-name="Lcommaaccent" horiz-adv-x="1318" unicode="Ļ"/><glyph d="M337 1536h118l-216 -1536h-118zM160 -100h120l-145 -434h-95z" glyph-name="lcommaaccent" horiz-adv-x="516" unicode="ļ"/><glyph d="M455 1434l-189 -1337h828l-13 -97h-953l201 1434h126zM998 1424h127l-151 -454h-101z" glyph-name="Lcaron" horiz-adv-x="1366" unicode="Ľ"/><glyph d="M337 1536h118l-216 -1536h-118zM760 1424h126l-151 -454h-100z" glyph-name="lcaron" horiz-adv-x="971" unicode="ľ"/><glyph d="M455 1434l-189 -1337h828l-13 -97h-953l201 1434h126zM1095 787h163l-20 -141h-164z" glyph-name="Ldot" horiz-adv-x="1432" unicode="Ŀ"/><glyph d="M337 1536h118l-216 -1536h-118zM455 839h163l-19 -142h-164z" glyph-name="ldot" horiz-adv-x="778" unicode="ŀ"/><glyph d="M266 97h828l-13 -97h-953l96 690l-133 -17l10 67l133 18l95 676h126l-94 -659l518 68l-10 -68l-517 -67z" glyph-name="Lslash" horiz-adv-x="1318" unicode="Ł"/><glyph d="M534 862l-11 -67l-178 -38l-106 -757h-118l102 730l-179 -38l9 68l180 38l104 738h118l-101 -712z" glyph-name="lslash" horiz-adv-x="516" unicode="ł"/><glyph d="M1289 1885l-310 -307h-103l291 307h122zM1359 1434h125l-201 -1434h-138l-715 1256l-176 -1256h-126l201 1434h138l716 -1254z" glyph-name="Nacute" horiz-adv-x="1567" unicode="Ń"/><glyph d="M1174 1569l-311 -307h-103l292 307h122zM238 0h-117l157 1117h117l-35 -255q91 139 232.5 203t300.5 64q88 0 157 -25.5t119.5 -78.5t69.5 -143.5t2 -212.5l-93 -669h-118l90 646q29 206 -49 299t-233 93q-79 0 -158.5 -26t-152.5 -76.5t-128 -136.5t-75 -195z" glyph-name="nacute" horiz-adv-x="1424" unicode="ń"/><glyph d="M1359 1434h125l-201 -1434h-138l-715 1256l-176 -1256h-126l201 1434h138l716 -1254zM686 -100h120l-144 -434h-96z" glyph-name="Ncommaaccent" horiz-adv-x="1567" unicode="Ņ"/><glyph d="M238 0h-117l157 1117h117l-35 -255q91 139 232.5 203t300.5 64q88 0 157 -25.5t119.5 -78.5t69.5 -143.5t2 -212.5l-93 -669h-118l90 646q29 206 -49 299t-233 93q-79 0 -158.5 -26t-152.5 -76.5t-128 -136.5t-75 -195zM614 -100h120l-144 -434h-95z" glyph-name="ncommaaccent" horiz-adv-x="1424" unicode="ņ"/><glyph d="M1152 1885h103l-259 -307h-139l-172 307h103l146 -260zM1359 1434h125l-201 -1434h-138l-715 1256l-176 -1256h-126l201 1434h138l716 -1254z" glyph-name="Ncaron" horiz-adv-x="1567" unicode="Ň"/><glyph d="M1036 1569h104l-259 -307h-140l-172 307h104l145 -260zM238 0h-117l157 1117h117l-35 -255q91 139 232.5 203t300.5 64q88 0 157 -25.5t119.5 -78.5t69.5 -143.5t2 -212.5l-93 -669h-118l90 646q29 206 -49 299t-233 93q-79 0 -158.5 -26t-152.5 -76.5t-128 -136.5 t-75 -195z" glyph-name="ncaron" horiz-adv-x="1424" unicode="ň"/><glyph d="M406 1536h125l-150 -455h-100zM519 0h-117l157 1117h118l-36 -255q91 139 232.5 203t300.5 64q89 0 158 -25.5t119 -78.5t69.5 -143.5t2.5 -212.5l-95 -669h-117l91 646q14 105 -1 182.5t-55 122.5t-96.5 66t-131.5 21q-79 0 -158 -26t-152.5 -76.5t-128 -136.5 t-75.5 -195z" glyph-name="napostrophe" horiz-adv-x="1705" unicode="ŉ"/><glyph d="M1484 1434l-201 -1434h-1l-1 -8q-17 -129 -81 -183.5t-178 -54.5q-62 0 -113 18l17 63q46 -10 95 -4q74 2 103 42t41 127h-20l-715 1256l-176 -1256h-126l201 1434h138l716 -1254l176 1254h125z" glyph-name="Eng" horiz-adv-x="1567" unicode="Ŋ"/><glyph d="M893 1129q88 0 157 -25.5t119.5 -78.5t69.5 -143.5t2 -212.5l-93 -669h-1l-1 -8q-17 -129 -81.5 -183.5t-178.5 -54.5q-61 0 -112 18l17 63q46 -10 95 -4q73 2 102.5 42t41.5 127l77 552l13 94q29 206 -49 299t-233 93q-79 0 -158.5 -26t-152.5 -76.5t-128 -136.5 t-75 -195l-86 -604h-117l157 1117h117l-35 -255q91 139 232.5 203t300.5 64z" glyph-name="eng" horiz-adv-x="1424" unicode="ŋ"/><glyph d="M757 1658h489l-11 -80h-490zM1573 717q-25 -177 -105 -319.5t-193.5 -230t-243.5 -133.5t-264 -46q-106 0 -202.5 28t-178.5 87.5t-137.5 144t-78.5 205.5t-3.5 263.5t76.5 263.5t136.5 205.5t178 144.5t203.5 88t211.5 28t203.5 -28t179 -88t137 -144.5t77.5 -205.5 t3.5 -263zM781 85q111 0 218.5 40.5t200 116t159.5 199t89 276.5q17 123 -0.5 227.5t-63 177.5t-112.5 125t-146.5 77t-167 25t-174 -25t-167.5 -77t-147 -125t-113 -177.5t-64.5 -227.5t0.5 -227.5t63 -177.5t112 -125.5t146 -77t167 -24.5z" glyph-name="Omacron" horiz-adv-x="1695" unicode="Ō"/><glyph d="M587 1341h489l-11 -79h-490zM1284 558q-16 -117 -62 -213t-110.5 -161t-144 -110t-161.5 -65.5t-165 -20.5t-158.5 20.5t-142.5 65.5t-112.5 110t-65 161t-2.5 213q19 141 84.5 253.5t156.5 180t193.5 102.5t207.5 35t198.5 -35t165 -102.5t104.5 -180t14 -253.5zM653 76 q86 0 168.5 29.5t154.5 87t123 152t67 213.5q16 117 -8 210.5t-79 152t-129 89.5t-160.5 31t-169 -31t-154 -89.5t-122 -152t-66.5 -210.5q-16 -119 8 -213.5t79.5 -152t129 -87t158.5 -29.5z" glyph-name="omacron" horiz-adv-x="1443" unicode="ō"/><glyph d="M1062 1892l-209 -314h-90l206 314h93zM1263 1892l-209 -314h-90l205 314h94zM1573 717q-25 -177 -105 -319.5t-193.5 -230t-243.5 -133.5t-264 -46q-106 0 -202.5 28t-178.5 87.5t-137.5 144t-78.5 205.5t-3.5 263.5t76.5 263.5t136.5 205.5t178 144.5t203.5 88t211.5 28 t203.5 -28t179 -88t137 -144.5t77.5 -205.5t3.5 -263zM781 85q111 0 218.5 40.5t200 116t159.5 199t89 276.5q17 123 -0.5 227.5t-63 177.5t-112.5 125t-146.5 77t-167 25t-174 -25t-167.5 -77t-147 -125t-113 -177.5t-64.5 -227.5t0.5 -227.5t63 -177.5t112 -125.5t146 -77 t167 -24.5z" glyph-name="Ohungarumlaut" horiz-adv-x="1695" unicode="Ő"/><glyph d="M892 1576l-209 -314h-90l206 314h93zM1093 1576l-209 -314h-90l205 314h94zM1284 558q-16 -117 -62 -213t-110.5 -161t-144 -110t-161.5 -65.5t-165 -20.5t-158.5 20.5t-142.5 65.5t-112.5 110t-65 161t-2.5 213q19 141 84.5 253.5t156.5 180t193.5 102.5t207.5 35 t198.5 -35t165 -102.5t104.5 -180t14 -253.5zM653 76q86 0 168.5 29.5t154.5 87t123 152t67 213.5q16 117 -8 210.5t-79 152t-129 89.5t-160.5 31t-169 -31t-154 -89.5t-122 -152t-66.5 -210.5q-16 -119 8 -213.5t79.5 -152t129 -87t158.5 -29.5z" glyph-name="ohungarumlaut" horiz-adv-x="1443" unicode="ő"/><glyph d="M1657 1336l-77 -546q0 -8 -2 -25h785l-14 -96h-784q-5 -26 -7 -35l-75 -537h869l-12 -97h-995l37 274q-117 -140 -280.5 -213t-334.5 -73q-106 0 -202.5 28t-178.5 87.5t-137.5 144t-78.5 205.5t-3.5 263.5t76.5 263.5t136.5 205.5t178 144.5t203.5 88t212 28 q170 0 312.5 -74t220.5 -213l39 275h996l-14 -98h-870zM781 85q104 0 206 36t191.5 103.5t157.5 176.5t99 244l20 147q7 135 -31 243t-108.5 175.5t-162 103t-195.5 35.5q-87 0 -173.5 -25t-167.5 -77t-147 -125t-113 -177.5t-64.5 -227.5t0.5 -227.5t63 -177.5t112 -125.5 t146 -77t167 -24.5z" glyph-name="OE" horiz-adv-x="2624" unicode="Œ"/><glyph d="M2235 531h-941q-9 -94 13 -171.5t65 -129.5t103.5 -88t126 -51.5t135.5 -15.5q181 0 330 79l-13 -94q-153 -73 -354 -72q-106 0 -203.5 32t-179 106t-116.5 179q-89 -157 -242.5 -237t-317.5 -80q-83 0 -158.5 20.5t-142.5 65.5t-112.5 110t-65 161t-2.5 213 q19 141 84.5 253.5t156.5 180t193.5 102.5t207.5 35q162 0 290.5 -79.5t176.5 -231.5q57 102 145.5 174t185.5 104.5t197 32.5q112 0 205.5 -38.5t159 -114t87 -187.5t-13.5 -258zM1790 1042q-164 -2 -299.5 -111.5t-181.5 -308.5h837q16 87 3.5 155t-46 118t-84.5 83 t-109 48.5t-120 15.5zM1166 558q16 117 -8 210.5t-79 152t-129 89.5t-160.5 31t-169 -31t-154 -89.5t-122 -152t-66.5 -210.5q-16 -119 8 -213.5t79.5 -152t129 -87t158.5 -29.5q86 0 168.5 29.5t154.5 87t123 152t67 213.5z" glyph-name="oe" horiz-adv-x="2405" unicode="œ"/><glyph d="M1208 1885l-310 -307h-103l291 307h122zM904 1434q214 0 324.5 -113.5t83.5 -312.5q-22 -157 -121 -257t-287 -152l283 -599h-131l-270 572q-186 -34 -457 -35l-75 -537h-126l201 1434h575zM1187 1008q22 158 -59.5 245t-240.5 87h-446l-99 -709q425 1 621 89.5 t224 287.5z" glyph-name="Racute" horiz-adv-x="1411" unicode="Ŕ"/><glyph d="M916 1569l-310 -307h-103l292 307h121zM238 0h-117l157 1117h115l-35 -255q91 137 230.5 202t294.5 65l-13 -91q-83 2 -168.5 -24.5t-163 -77.5t-136 -137.5t-78.5 -194.5z" glyph-name="racute" horiz-adv-x="906" unicode="ŕ"/><glyph d="M904 1434q214 0 324.5 -113.5t83.5 -312.5q-22 -157 -121 -257t-287 -152l283 -599h-131l-270 572q-186 -34 -457 -35l-75 -537h-126l201 1434h575zM1187 1008q22 158 -59.5 245t-240.5 87h-446l-99 -709q425 1 621 89.5t224 287.5zM486 -534l120 434h120l-144 -434h-96z " glyph-name="Rcommaaccent" horiz-adv-x="1411" unicode="Ŗ"/><glyph d="M238 0h-117l157 1117h115l-35 -255q91 137 230.5 202t294.5 65l-13 -91q-83 2 -168.5 -24.5t-163 -77.5t-136 -137.5t-78.5 -194.5zM357 -100h120l-144 -434h-95z" glyph-name="rcommaaccent" horiz-adv-x="906" unicode="ŗ"/><glyph d="M916 1578h-139l-172 307h104l145 -260l218 260h104zM904 1434q214 0 324.5 -113.5t83.5 -312.5q-22 -157 -121 -257t-287 -152l283 -599h-131l-270 572q-186 -34 -457 -35l-75 -537h-126l201 1434h575zM1187 1008q22 158 -59.5 245t-240.5 87h-446l-99 -709 q425 1 621 89.5t224 287.5z" glyph-name="Rcaron" horiz-adv-x="1411" unicode="Ř"/><glyph d="M779 1569h104l-259 -307h-140l-172 307h104l145 -260zM238 0h-117l157 1117h115l-35 -255q91 137 230.5 202t294.5 65l-13 -91q-83 2 -168.5 -24.5t-163 -77.5t-136 -137.5t-78.5 -194.5z" glyph-name="rcaron" horiz-adv-x="906" unicode="ř"/><glyph d="M1154 1885l-310 -307h-104l292 307h122zM103 222q166 -136 440 -136q105 0 209 34t178.5 98t86.5 140q8 56 -10 101t-41.5 72t-91 56.5t-106 42.5t-137.5 42q-39 11 -59 17q-93 29 -159.5 60.5t-117.5 76t-71 103.5t-8 134q29 174 181 278.5t396 104.5q207 0 358 -98 l-16 -110q-156 113 -356 111q-185 0 -302 -79.5t-138 -211.5q-6 -37 1.5 -69.5t23 -57t48 -47.5t61.5 -38.5t80.5 -33.5t87 -29t96.5 -28q49 -14 88.5 -27.5t79.5 -29.5t69.5 -32.5t58 -36.5t46.5 -41t34 -47t21.5 -54.5t8.5 -63.5t-6 -73q-18 -109 -114 -193t-226.5 -126 t-268.5 -42q-281 0 -442 121z" glyph-name="Sacute" horiz-adv-x="1311" unicode="Ś"/><glyph d="M1050 1569l-311 -307h-103l292 307h122zM113 168q71 -40 169.5 -63t200.5 -25q132 -2 236.5 52.5t120.5 143.5q7 44 -7.5 78.5t-36 56t-75 43.5t-91.5 34t-119 33q-168 45 -247 121.5t-61 196.5q19 137 146.5 213.5t326.5 76.5q200 0 328 -77l-15 -103q-133 87 -318 88 q-148 2 -241.5 -49t-107.5 -150q-7 -47 10 -84t62.5 -66t100.5 -50.5t141 -45.5q94 -27 152 -51t103.5 -59.5t61 -84.5t5.5 -116q-13 -86 -85 -154.5t-174.5 -103.5t-212.5 -35q-111 0 -216 21.5t-172 57.5z" glyph-name="sacute" horiz-adv-x="1157" unicode="ś"/><glyph d="M737 755q49 -14 88.5 -27.5t79.5 -29.5t69.5 -32.5t58 -36.5t46.5 -41t34 -47t21.5 -54.5t8.5 -63.5t-6 -73q-17 -104 -106.5 -186t-211.5 -125t-255 -49l-55 -53q7 2 35 2q53 0 83.5 -25.5t24.5 -74.5q-8 -55 -58 -81t-129 -26q-50 0 -95 8l8 55q38 -5 73 -5 q115 0 120 50q4 30 -18.5 40t-73.5 10q-28 0 -40 -2l6 45l60 56q-264 5 -419 121l17 112q166 -136 440 -136q105 0 209 34t178.5 98t86.5 140q8 56 -10 101t-41.5 72t-91 56.5t-106 42.5t-137.5 42q-39 11 -59 17q-93 29 -159.5 60.5t-117.5 76t-71 103.5t-8 134 q29 174 181 278.5t396 104.5q207 0 358 -98l-16 -110q-156 113 -356 111q-185 0 -302 -79.5t-138 -211.5q-6 -37 1.5 -69.5t23 -57t48 -47.5t61.5 -38.5t80.5 -33.5t87 -29t96.5 -28z" glyph-name="Scedilla" horiz-adv-x="1311" unicode="Ş"/><glyph d="M671 1037q-148 2 -241.5 -49t-107.5 -150q-7 -47 10 -84t62.5 -66t100.5 -50.5t141 -45.5q94 -27 152 -51t103.5 -59.5t61 -84.5t5.5 -116q-18 -123 -148.5 -204t-295.5 -88l-54 -52q7 2 35 2q53 0 83.5 -25.5t24.5 -74.5q-8 -55 -58 -81t-129 -26q-50 0 -95 8l8 55 q38 -5 72 -5q115 0 121 50q4 30 -18.5 40t-73.5 10q-28 0 -40 -2l6 45l59 55q-223 7 -357 79l15 101q71 -40 169.5 -63t200.5 -25q132 -2 236.5 52.5t120.5 143.5q7 44 -7.5 78.5t-36 56t-75 43.5t-91.5 34t-119 33q-168 45 -247 121.5t-61 196.5q19 137 146.5 213.5 t326.5 76.5q200 0 328 -77l-15 -103q-133 87 -318 88z" glyph-name="scedilla" horiz-adv-x="1157" unicode="ş"/><glyph d="M1018 1885h103l-259 -307h-139l-172 307h103l146 -260zM103 222q166 -136 440 -136q105 0 209 34t178.5 98t86.5 140q8 56 -10 101t-41.5 72t-91 56.5t-106 42.5t-137.5 42q-39 11 -59 17q-93 29 -159.5 60.5t-117.5 76t-71 103.5t-8 134q29 174 181 278.5t396 104.5 q207 0 358 -98l-16 -110q-156 113 -356 111q-185 0 -302 -79.5t-138 -211.5q-6 -37 1.5 -69.5t23 -57t48 -47.5t61.5 -38.5t80.5 -33.5t87 -29t96.5 -28q49 -14 88.5 -27.5t79.5 -29.5t69.5 -32.5t58 -36.5t46.5 -41t34 -47t21.5 -54.5t8.5 -63.5t-6 -73q-18 -109 -114 -193 t-226.5 -126t-268.5 -42q-281 0 -442 121z" glyph-name="Scaron" horiz-adv-x="1311" unicode="Š"/><glyph d="M912 1569h104l-259 -307h-140l-172 307h104l145 -260zM113 168q71 -40 169.5 -63t200.5 -25q132 -2 236.5 52.5t120.5 143.5q7 44 -7.5 78.5t-36 56t-75 43.5t-91.5 34t-119 33q-168 45 -247 121.5t-61 196.5q19 137 146.5 213.5t326.5 76.5q200 0 328 -77l-15 -103 q-133 87 -318 88q-148 2 -241.5 -49t-107.5 -150q-7 -47 10 -84t62.5 -66t100.5 -50.5t141 -45.5q94 -27 152 -51t103.5 -59.5t61 -84.5t5.5 -116q-13 -86 -85 -154.5t-174.5 -103.5t-212.5 -35q-111 0 -216 21.5t-172 57.5z" glyph-name="scaron" horiz-adv-x="1157" unicode="š"/><glyph d="M546 0h-33l-67 -63q7 2 35 2q53 0 84 -25.5t25 -74.5q-8 -55 -58.5 -81t-129.5 -26q-50 0 -95 8l8 55q38 -5 73 -5q115 0 121 50q4 30 -18.5 40t-73.5 10q-28 0 -40 -2l6 45l71 67h-33l187 1336h-446l13 98h1019l-13 -98h-447z" glyph-name="Tcommaaccent" horiz-adv-x="1123" unicode="Ţ"/><glyph d="M522 1027l-109 -777q-10 -75 19 -119.5t87 -44.5h203l-11 -86h-218l-67 -63q7 2 35 2q53 0 83.5 -25.5t24.5 -74.5q-8 -55 -58 -81t-129 -26q-50 0 -95 8l8 55q38 -5 73 -5q115 0 120 50q4 30 -18.5 40t-73.5 10q-28 0 -40 -2l6 45l71 67q-80 5 -117 66t-24 159l112 802 h-178l13 90h178l30 221h118l-30 -221h332l-12 -90h-333z" glyph-name="tcommaaccent" horiz-adv-x="987" unicode="ţ"/><glyph d="M774 1578h-139l-172 307h103l146 -260l218 260h103zM1194 1434l-13 -98h-447l-188 -1336h-125l187 1336h-446l13 98h1019z" glyph-name="Tcaron" horiz-adv-x="1123" unicode="Ť"/><glyph d="M1101 1424h127l-152 -454h-100zM711 0h-264q-87 0 -128 61.5t-27 163.5l112 802h-178l13 90h178l30 221h118l-30 -221h332l-12 -90h-333l-109 -777q-10 -75 19 -119.5t87 -44.5h203z" glyph-name="tcaron" horiz-adv-x="1312" unicode="ť"/><glyph d="M1181 1336h-447l-80 -563h414l-10 -71h-413l-99 -702h-125l98 702h-401l9 71h402l79 563h-446l13 98h1019z" glyph-name="Tbar" horiz-adv-x="1123" unicode="Ŧ"/><glyph d="M855 1027h-333l-25 -179h332l-10 -71h-332l-74 -527q-10 -75 19 -119.5t87 -44.5h203l-11 -86h-264q-87 0 -128 61.5t-27 163.5l78 552h-180l11 71h178l25 179h-178l13 90h178l30 221h118l-30 -221h332z" glyph-name="tbar" horiz-adv-x="987" unicode="ŧ"/><glyph d="M584 1579q9 82 60 134t124 52q38 0 75.5 -18t62 -41t56 -41t60.5 -18q35 0 63.5 33.5t35.5 77.5h74q-12 -83 -65 -134.5t-122 -51.5q-31 0 -66 18.5t-60.5 41t-57.5 40.5t-59 18q-42 0 -72 -32.5t-38 -79.5zM1380 1434l-125 -891q-41 -293 -184.5 -424t-419.5 -131 q-274 0 -381 131t-66 424l125 891h126l-128 -908q-32 -232 46 -336.5t293 -104.5t322.5 104.5t139.5 336.5l127 908h125z" glyph-name="Utilde" horiz-adv-x="1464" unicode="Ũ"/><glyph d="M494 1263q9 82 60 134t124 52q38 0 75.5 -18.5t62 -41t56 -41t60.5 -18.5q35 0 63.5 34t35.5 78h74q-12 -83 -65 -135t-122 -52q-31 0 -66 18.5t-60.5 41t-58 40.5t-58.5 18q-42 0 -72.5 -32t-37.5 -79zM1187 1117h117l-157 -1117h-118l36 256q-62 -95 -153 -157 t-184 -86.5t-196 -24.5q-89 0 -158 25.5t-119 78.5t-69.5 144.5t-2.5 213.5l95 667h117l-91 -646q-14 -105 0.5 -182.5t55 -122t97 -65.5t131.5 -21q79 0 158 26t152.5 76.5t128 137t75.5 194.5z" glyph-name="utilde" horiz-adv-x="1424" unicode="ũ"/><glyph d="M641 1658h489l-11 -80h-489zM1380 1434l-125 -891q-41 -293 -184.5 -424t-419.5 -131q-274 0 -381 131t-66 424l125 891h126l-128 -908q-32 -232 46 -336.5t293 -104.5t322.5 104.5t139.5 336.5l127 908h125z" glyph-name="Umacron" horiz-adv-x="1464" unicode="Ū"/><glyph d="M551 1341h489l-11 -79h-489zM1187 1117h117l-157 -1117h-118l36 256q-62 -95 -153 -157t-184 -86.5t-196 -24.5q-89 0 -158 25.5t-119 78.5t-69.5 144.5t-2.5 213.5l95 667h117l-91 -646q-14 -105 0.5 -182.5t55 -122t97 -65.5t131.5 -21q79 0 158 26t152.5 76.5t128 137 t75.5 194.5z" glyph-name="umacron" horiz-adv-x="1424" unicode="ū"/><glyph d="M876 1578q-77 0 -123.5 54.5t-35.5 130.5q10 76 72 131t139 55q76 0 123 -55t36 -131q-11 -77 -73 -131t-138 -54zM886 1649q47 0 85.5 33.5t45.5 80.5q6 47 -22.5 81t-76 34t-86 -34t-45.5 -81t22.5 -80.5t76.5 -33.5zM1380 1434l-125 -891q-41 -293 -184.5 -424 t-419.5 -131q-274 0 -381 131t-66 424l125 891h126l-128 -908q-32 -232 46 -336.5t293 -104.5t322.5 104.5t139.5 336.5l127 908h125z" glyph-name="Uring" horiz-adv-x="1464" unicode="Ů"/><glyph d="M784 1262q-77 0 -123.5 54t-34.5 131q10 76 72 130.5t139 54.5q76 0 123 -54.5t36 -130.5q-11 -77 -73.5 -131t-138.5 -54zM795 1332q47 0 85.5 34t45.5 81q6 47 -23 81t-76 34t-86 -34t-45 -81q-7 -47 22.5 -81t76.5 -34zM1187 1117h117l-157 -1117h-118l36 256 q-62 -95 -153 -157t-184 -86.5t-196 -24.5q-89 0 -158 25.5t-119 78.5t-69.5 144.5t-2.5 213.5l95 667h117l-91 -646q-14 -105 0.5 -182.5t55 -122t97 -65.5t131.5 -21q79 0 158 26t152.5 76.5t128 137t75.5 194.5z" glyph-name="uring" horiz-adv-x="1424" unicode="ů"/><glyph d="M947 1892l-209 -314h-90l206 314h93zM1148 1892l-209 -314h-90l206 314h93zM1380 1434l-125 -891q-41 -293 -184.5 -424t-419.5 -131q-274 0 -381 131t-66 424l125 891h126l-128 -908q-32 -232 46 -336.5t293 -104.5t322.5 104.5t139.5 336.5l127 908h125z" glyph-name="Uhungarumlaut" horiz-adv-x="1464" unicode="Ű"/><glyph d="M856 1576l-209 -314h-90l206 314h93zM1057 1576l-209 -314h-90l206 314h93zM1187 1117h117l-157 -1117h-118l36 256q-62 -95 -153 -157t-184 -86.5t-196 -24.5q-89 0 -158 25.5t-119 78.5t-69.5 144.5t-2.5 213.5l95 667h117l-91 -646q-14 -105 0.5 -182.5t55 -122 t97 -65.5t131.5 -21q79 0 158 26t152.5 76.5t128 137t75.5 194.5z" glyph-name="uhungarumlaut" horiz-adv-x="1424" unicode="ű"/><glyph d="M1255 1434h125l-125 -891q-41 -291 -183 -422t-414 -133q-124 -48 -126 -129q-1 -42 52 -59.5t126 -0.5l-2 -61q-111 -30 -189 1.5t-72 102.5q8 105 134 148q-233 16 -324 147.5t-53 405.5l125 891h126l-128 -908q-32 -232 46 -336.5t293 -104.5t322.5 104.5t139.5 336.5 z" glyph-name="Uogonek" horiz-adv-x="1464" unicode="Ų"/><glyph d="M1129 0q-159 -50 -160 -141q-1 -42 51.5 -59.5t125.5 -0.5l-2 -61q-111 -30 -188.5 1.5t-71.5 102.5q8 119 167 158h-22l36 256q-62 -95 -153 -157t-184 -86.5t-196 -24.5q-89 0 -158 25.5t-119 78.5t-69.5 144.5t-2.5 213.5l95 667h117l-91 -646q-14 -105 0.5 -182.5 t55 -122t97 -65.5t131.5 -21q79 0 158 26t152.5 76.5t128 137t75.5 194.5l85 603h117l-157 -1117h-18z" glyph-name="uogonek" horiz-adv-x="1424" unicode="ų"/><glyph d="M1398 1578h-104l-144 260l-219 -260h-104l259 307h140zM1881 1434h131l-614 -1434h-140l-188 1269l-544 -1269h-139l-212 1434h130l178 -1267l540 1267h141l184 -1267z" glyph-name="Wcircumflex" horiz-adv-x="1941" unicode="Ŵ"/><glyph d="M1257 1262h-103l-144 260l-219 -260h-104l259 307h139zM1591 1117h127l-493 -1117h-140l-153 975l-427 -975h-139l-180 1117h126l150 -992l427 992h126l149 -992z" glyph-name="wcircumflex" horiz-adv-x="1747" unicode="ŵ"/><glyph d="M1065 1578h-103l-145 260l-219 -260h-103l259 307h139zM1208 1434h137l-640 -843l-83 -591h-126l83 591l-404 843h136l347 -720z" glyph-name="Ycircumflex" horiz-adv-x="1273" unicode="Ŷ"/><glyph d="M999 1262h-103l-144 260l-220 -260h-103l259 307h139zM1078 1117h125l-592 -1058q-35 -62 -67.5 -111.5t-87 -110.5t-111.5 -102t-139 -72t-173 -36l8 86q84 8 154 40t122.5 84t89 105t71.5 121l-292 1054h125l252 -936z" glyph-name="ycircumflex" horiz-adv-x="1232" unicode="ŷ"/><glyph d="M548 1703h143l-17 -125h-144zM904 1703h143l-18 -125h-143zM1208 1434h137l-640 -843l-83 -591h-126l83 591l-404 843h136l347 -720z" glyph-name="Ydieresis" horiz-adv-x="1273" unicode="Ÿ"/><glyph d="M1226 1885l-311 -307h-103l292 307h122zM1357 1434l-14 -98l-1046 -1239h872l-13 -97h-1028l13 97l1046 1239h-871l13 98h1028z" glyph-name="Zacute" horiz-adv-x="1440" unicode="Ź"/><glyph d="M1086 1569l-310 -307h-103l292 307h121zM1170 1117l-11 -90l-917 -937h784l-12 -90h-932l12 90l917 937h-785l13 90h931z" glyph-name="zacute" horiz-adv-x="1252" unicode="ź"/><glyph d="M952 1703l-17 -125h-143l17 125h143zM1357 1434l-14 -98l-1046 -1239h872l-13 -97h-1028l13 97l1046 1239h-871l13 98h1028z" glyph-name="Zdotaccent" horiz-adv-x="1440" unicode="Ż"/><glyph d="M814 1386l-17 -124h-144l18 124h143zM1170 1117l-11 -90l-917 -937h784l-12 -90h-932l12 90l917 937h-785l13 90h931z" glyph-name="zdotaccent" horiz-adv-x="1252" unicode="ż"/><glyph d="M933 1578h-139l-172 307h103l145 -260l219 260h103zM1357 1434l-14 -98l-1046 -1239h872l-13 -97h-1028l13 97l1046 1239h-871l13 98h1028z" glyph-name="Zcaron" horiz-adv-x="1440" unicode="Ž"/><glyph d="M795 1262h-140l-172 307h104l145 -260l218 260h104zM1170 1117l-11 -90l-917 -937h784l-12 -90h-932l12 90l917 937h-785l13 90h931z" glyph-name="zcaron" horiz-adv-x="1252" unicode="ž"/><glyph d="M1044 1329q66 -1 109 -18l-30 -63q-49 9 -95 4q-74 -2 -111.5 -42t-68.5 -127l-174 -494h313l-10 -71h-328l-177 -502q-46 -128 -121.5 -182.5t-188.5 -54.5q-60 0 -110 17l31 64q49 -9 95 -4q74 2 111.5 42t67.5 127l174 493h-261l11 71h275l177 503q46 129 121 183 t190 54z" glyph-name="florin" horiz-adv-x="1207" unicode="ƒ"/><glyph d="M543 773l-9 -71h-182l-98 -702h-126l98 702h-180l9 71h182l92 661h126l-93 -661h181z" glyph-name="uni0197" horiz-adv-x="538" unicode="Ɨ"/><glyph d="M919 1578h-140l-172 307h104l145 -260l218 260h104zM1151 0l-88 346h-773l-186 -346h-132l772 1434h169l370 -1434h-132zM342 443h696l-224 884z" glyph-name="uni01CD" horiz-adv-x="1412" unicode="Ǎ"/><glyph d="M1002 1569h104l-259 -307h-139l-172 307h103l145 -260zM759 1129q242 0 342 -99.5t67 -338.5l-97 -691h-114l20 172q-75 -74 -207.5 -129.5t-310.5 -54.5q-184 1 -270.5 77.5t-67.5 214.5q14 118 80 194.5t181.5 116t280.5 49t378 -7.5l11 73q19 180 -51 254t-266 77 q-91 1 -188.5 -21t-175.5 -62l14 97q162 79 374 79zM991 272l38 269q-251 18 -421.5 7.5t-264 -71t-111.5 -181.5q-15 -117 58.5 -166.5t236.5 -47.5q152 0 274.5 58t189.5 132z" glyph-name="uni01CE" horiz-adv-x="1347" unicode="ǎ"/><glyph d="M637 1885h103l-259 -307h-139l-172 307h103l146 -260zM254 0h-126l201 1434h126z" glyph-name="uni01CF" horiz-adv-x="538" unicode="Ǐ"/><glyph d="M582 1569h103l-259 -307h-139l-172 307h103l146 -260zM278 1117h117l-156 -1117h-118z" glyph-name="uni01D0" horiz-adv-x="516" unicode="ǐ"/><glyph d="M1217 1885h103l-259 -307h-139l-172 307h103l145 -260zM1573 717q-25 -177 -105 -319.5t-193.5 -230t-243.5 -133.5t-264 -46q-106 0 -202.5 28t-178.5 87.5t-137.5 144t-78.5 205.5t-3.5 263.5t76.5 263.5t136.5 205.5t178 144.5t203.5 88t211.5 28t203.5 -28t179 -88 t137 -144.5t77.5 -205.5t3.5 -263zM781 85q111 0 218.5 40.5t200 116t159.5 199t89 276.5q17 123 -0.5 227.5t-63 177.5t-112.5 125t-146.5 77t-167 25t-174 -25t-167.5 -77t-147 -125t-113 -177.5t-64.5 -227.5t0.5 -227.5t63 -177.5t112 -125.5t146 -77t167 -24.5z" glyph-name="uni01D1" horiz-adv-x="1695" unicode="Ǒ"/><glyph d="M1047 1569h103l-259 -307h-139l-172 307h103l145 -260zM1284 558q-16 -117 -62 -213t-110.5 -161t-144 -110t-161.5 -65.5t-165 -20.5t-158.5 20.5t-142.5 65.5t-112.5 110t-65 161t-2.5 213q19 141 84.5 253.5t156.5 180t193.5 102.5t207.5 35t198.5 -35t165 -102.5 t104.5 -180t14 -253.5zM653 76q86 0 168.5 29.5t154.5 87t123 152t67 213.5q16 117 -8 210.5t-79 152t-129 89.5t-160.5 31t-169 -31t-154 -89.5t-122 -152t-66.5 -210.5q-16 -119 8 -213.5t79.5 -152t129 -87t158.5 -29.5z" glyph-name="uni01D2" horiz-adv-x="1443" unicode="ǒ"/><glyph d="M1101 1885h103l-259 -307h-139l-172 307h103l146 -260zM1380 1434l-125 -891q-41 -293 -184.5 -424t-419.5 -131q-274 0 -381 131t-66 424l125 891h126l-128 -908q-32 -232 46 -336.5t293 -104.5t322.5 104.5t139.5 336.5l127 908h125z" glyph-name="uni01D3" horiz-adv-x="1464" unicode="Ǔ"/><glyph d="M1010 1569h103l-259 -307h-139l-172 307h103l146 -260zM1187 1117h117l-157 -1117h-118l36 256q-62 -95 -153 -157t-184 -86.5t-196 -24.5q-89 0 -158 25.5t-119 78.5t-69.5 144.5t-2.5 213.5l95 667h117l-91 -646q-14 -105 0.5 -182.5t55 -122t97 -65.5t131.5 -21 q79 0 158 26t152.5 76.5t128 137t75.5 194.5z" glyph-name="uni01D4" horiz-adv-x="1424" unicode="ǔ"/><glyph d="M1210 1885h104l-259 -307h-140l-172 307h104l145 -260zM864 769h466l-90 -642q-221 -139 -472 -139q-134 0 -251.5 46t-205.5 134t-128.5 230.5t-15.5 318.5q19 142 76 263t136.5 205.5t178 144.5t203.5 88t212 28q197 0 349 -89l-15 -106q-154 102 -349 98 q-88 -1 -174 -26.5t-167 -77t-147 -124.5t-113 -177t-64.5 -227t0.5 -227t63 -177t112.5 -125t146.5 -77t166 -26q89 -1 193 30.5t166 75.5l67 487h-356z" glyph-name="Gcaron" horiz-adv-x="1507" unicode="Ǧ"/><glyph d="M1053 1569h103l-259 -307h-139l-172 307h103l146 -260zM1212 1117h116l-141 -1012q-15 -112 -58.5 -202t-103 -149.5t-136.5 -100t-158 -58t-169 -17.5q-197 0 -325 73l14 98q126 -81 314 -78q91 1 170.5 23.5t149.5 70t118 130.5t64 196l24 171q-81 -136 -207.5 -199.5 t-273.5 -63.5q-83 0 -156.5 22t-135 66t-101.5 111.5t-56.5 159t0.5 206.5q19 143 78.5 254.5t143 178t179 99.5t198.5 33q148 0 260 -65.5t156 -200.5zM273 564q-16 -117 6 -210t73.5 -151t123.5 -88t158 -30q63 0 126 16.5t122.5 52t108 86.5t83.5 123.5t48 159.5l11 75 q12 116 -13.5 204t-79.5 138.5t-122.5 75.5t-149.5 25q-85 0 -165 -29t-148.5 -85.5t-117 -150t-64.5 -212.5z" glyph-name="gcaron" horiz-adv-x="1448" unicode="ǧ"/><glyph d="M1361 1885l-310 -307h-104l292 307h122zM1616 1336h-668l-81 -571h592l-14 -96h-591l-81 -572h668l-14 -97h-792l48 346h-393l-186 -346h-132l772 1434h885zM697 443l125 898l-480 -898h355z" glyph-name="AEacute" horiz-adv-x="1712" unicode="Ǽ"/><glyph d="M1597 1569l-310 -307h-103l292 307h121zM2127 531h-941q-9 -94 13 -171.5t65 -129.5t103 -88t126 -51.5t135 -15.5q180 0 331 79l-13 -94q-153 -73 -355 -72q-155 0 -288.5 70t-194.5 205l-37 -263h-114l20 172q-75 -74 -207.5 -129.5t-310.5 -54.5q-184 1 -270.5 77.5 t-67.5 214.5q14 118 80 194.5t181.5 116t280.5 49t378 -7.5l11 73q19 180 -51 254t-266 77q-91 1 -188.5 -21t-175.5 -62l14 97q162 80 374 79q200 0 301.5 -66t114.5 -219q88 140 226.5 212.5t286.5 72.5q112 0 206 -38.5t159.5 -114t87 -187.5t-13.5 -258zM1681 1042 q-164 -2 -299.5 -111.5t-181.5 -308.5h837q20 103 -3.5 186.5t-77.5 133t-125 75t-150 25.5zM991 272l38 269q-251 18 -421.5 7.5t-264 -71t-111.5 -181.5q-15 -117 58.5 -166.5t236.5 -47.5q152 0 274.5 58t189.5 132z" glyph-name="aeacute" horiz-adv-x="2295" unicode="ǽ"/><glyph d="M1353 1885l-311 -307h-103l292 307h122zM1631 1349l-156 -139q140 -196 98 -493q-25 -177 -105 -319.5t-193.5 -230t-243.5 -133.5t-264 -46q-138 0 -260.5 49t-207.5 143l-160 -140l-38 45l162 141q-137 194 -96 491q19 142 76 263t136.5 205.5t178 144.5t203.5 88 t212 28q137 0 258 -48t206 -142l155 138zM293 717q-34 -243 64 -408l989 868q-70 84 -171 128t-217 44q-87 0 -173.5 -25t-167.5 -77t-147 -125t-113 -177.5t-64 -227.5zM1448 717q35 244 -68 411l-989 -867q69 -86 171 -131t219 -45q111 0 218.5 40.5t200 116t159.5 199 t89 276.5z" glyph-name="Oslashacute" horiz-adv-x="1695" unicode="Ǿ"/><glyph d="M1105 1569l-310 -307h-104l292 307h122zM1367 1090l-163 -144q114 -152 80 -388q-16 -117 -62 -213t-110.5 -161t-144 -110t-161.5 -65.5t-165 -20.5q-108 0 -204 35t-165 106l-160 -141l-34 40l161 141q-112 148 -79 389q19 141 84.5 253.5t156.5 180t193.5 102.5 t207.5 35q108 0 204 -36t164 -107l162 142zM278 558q-26 -187 49 -312l758 666q-53 63 -129.5 96t-165.5 33q-86 0 -169 -31t-154.5 -89.5t-122 -152t-66.5 -210.5zM1166 558q27 185 -50 311l-760 -666q108 -127 297 -127q86 0 168.5 29.5t154.5 87t123 152t67 213.5z" glyph-name="oslashacute" horiz-adv-x="1443" unicode="ǿ"/><glyph d="M103 222q166 -136 440 -136q105 0 209 34t178.5 98t86.5 140q8 56 -10 101t-41.5 72t-91 56.5t-106 42.5t-137.5 42q-39 11 -59 17q-93 29 -159.5 60.5t-117.5 76t-71 103.5t-8 134q29 174 181 278.5t396 104.5q207 0 358 -98l-16 -110q-156 113 -356 111 q-185 0 -302 -79.5t-138 -211.5q-6 -37 1.5 -69.5t23 -57t48 -47.5t61.5 -38.5t80.5 -33.5t87 -29t96.5 -28q49 -14 88.5 -27.5t79.5 -29.5t69.5 -32.5t58 -36.5t46.5 -41t34 -47t21.5 -54.5t8.5 -63.5t-6 -73q-18 -109 -114 -193t-226.5 -126t-268.5 -42q-281 0 -442 121z M526 -100h120l-144 -434h-95z" glyph-name="Scommaaccent" horiz-adv-x="1311" unicode="Ș"/><glyph d="M113 168q71 -40 169.5 -63t200.5 -25q132 -2 236.5 52.5t120.5 143.5q7 44 -7.5 78.5t-36 56t-75 43.5t-91.5 34t-119 33q-168 45 -247 121.5t-61 196.5q19 137 146.5 213.5t326.5 76.5q200 0 328 -77l-15 -103q-133 87 -318 88q-148 2 -241.5 -49t-107.5 -150 q-7 -47 10 -84t62.5 -66t100.5 -50.5t141 -45.5q94 -27 152 -51t103.5 -59.5t61 -84.5t5.5 -116q-13 -86 -85 -154.5t-174.5 -103.5t-212.5 -35q-111 0 -216 21.5t-172 57.5zM477 -100h120l-144 -434h-96z" glyph-name="scommaaccent" horiz-adv-x="1157" unicode="ș"/><glyph d="M1194 1434l-13 -98h-447l-188 -1336h-125l187 1336h-446l13 98h1019zM344 -534l120 434h120l-145 -434h-95z" glyph-name="uni021A" horiz-adv-x="1123" unicode="Ț"/><glyph d="M711 0h-264q-87 0 -128 61.5t-27 163.5l112 802h-178l13 90h178l30 221h118l-30 -221h332l-12 -90h-333l-109 -777q-10 -75 19 -119.5t87 -44.5h203zM443 -100h120l-144 -434h-95z" glyph-name="uni021B" horiz-adv-x="987" unicode="ț"/><glyph d="M1312 1336h-871l-81 -571h787l-13 -96h-787l-81 -572h871l-14 -97h-468l-66 -63q7 2 35 2q53 0 83.5 -25.5t24.5 -74.5q-8 -55 -58 -81t-129 -26q-50 0 -95 8l8 55q38 -5 72 -5q115 0 121 50q4 30 -18.5 40t-73.5 10q-28 0 -40 -2l6 45l71 67h-468l201 1434h996z" glyph-name="uni0228" horiz-adv-x="1408" unicode="Ȩ"/><glyph d="M1212 531h-941q-9 -94 13 -171.5t65 -129.5t103.5 -88t126 -51.5t135.5 -15.5q180 0 330 79l-13 -94q-152 -72 -349 -72l-53 -51q7 2 35 2q53 0 83.5 -25.5t24.5 -74.5q-8 -55 -58 -81t-129 -26q-50 0 -96 8l9 55q38 -5 72 -5q115 0 121 50q4 30 -18.5 40t-73.5 10 q-28 0 -40 -2l6 45l60 57q-79 6 -152 30.5t-138 71t-109 110.5t-63 156.5t-3 200.5q19 140 81 252.5t148.5 180t184.5 102.5t199 35q112 0 206 -38.5t159.5 -114t87 -187.5t-13.5 -258zM767 1042q-164 -2 -299.5 -111.5t-181.5 -308.5h836q20 103 -3 186.5t-77.5 133 t-125 75t-149.5 25.5z" glyph-name="uni0229" horiz-adv-x="1380" unicode="ȩ"/><glyph d="M361 1117l-157 -1125q-18 -129 -82.5 -183.5t-177.5 -54.5q-60 0 -108 17l12 64q44 -10 96 -4q73 2 102.5 42t40.5 127l157 1117h117z" glyph-name="uni0237" horiz-adv-x="448" unicode="ȷ"/><glyph d="M705 1129q84 0 163 -20t151 -65.5t122.5 -110.5t73 -161.5t6.5 -212.5q-15 -114 -59.5 -209.5t-105 -161t-135.5 -111.5t-154 -67.5t-160 -21.5q-112 0 -205.5 39t-159 114.5t-87 187t13.5 258.5h941q9 94 -13 172t-65 129t-103.5 87t-126 51.5t-134.5 15.5 q-182 1 -331 -78l13 93q149 72 355 72zM614 76q105 1 201 46t173 142t108 232h-838q-17 -87 -4 -155.5t47 -118t84.5 -82t108.5 -48.5t120 -16z" glyph-name="uni0259" horiz-adv-x="1380" unicode="ə"/><glyph d="M470 1434l-14 -105h-165l15 105h164zM500 663l-14 -97h-160l-80 -566h-118l80 566h-162l14 97h161l64 454h117l-63 -454h161z" glyph-name="uni0268" horiz-adv-x="530" unicode="ɨ"/><glyph d="M876 1262h-104l-144 260l-219 -260h-104l259 307h139z" glyph-name="circumflex" horiz-adv-x="984" unicode="ˆ"/><glyph d="M816 1569h104l-260 -307h-139l-172 307h104l145 -260z" glyph-name="caron" horiz-adv-x="984" unicode="ˇ"/><glyph d="M830 1493q-20 -98 -99.5 -164.5t-179.5 -66.5q-99 0 -160 66.5t-53 164.5h82q-8 -68 33 -114t109 -46q67 0 121 46.5t66 113.5h81z" glyph-name="breve" horiz-adv-x="905" unicode="˘"/><glyph d="M323 1386h143l-17 -124h-144z" glyph-name="dotaccent" horiz-adv-x="556" unicode="˙"/><glyph d="M490 1262q-77 0 -123 54t-35 131q10 76 72 130.5t139 54.5q76 0 123 -54.5t36 -130.5q-11 -77 -73.5 -131t-138.5 -54zM501 1332q47 0 85.5 34t45.5 81q6 47 -22.5 81t-76 34t-86 -34t-45.5 -81t22.5 -81t76.5 -34z" glyph-name="ring" horiz-adv-x="783" unicode="˚"/><glyph d="M106 -158q8 119 167 158h79q-159 -50 -161 -141q-1 -42 52 -59.5t126 -0.5l-2 -61q-111 -30 -189 1t-72 103z" glyph-name="ogonek" horiz-adv-x="689" unicode="˛"/><glyph d="M306 1263q9 82 60.5 134t123.5 52q38 0 75.5 -18.5t62 -41t56.5 -41t60 -18.5q35 0 64 34t36 78h74q-12 -83 -65 -135t-123 -52q-31 0 -65.5 18.5t-60 41t-58 40.5t-59.5 18q-42 0 -72 -32t-37 -79z" glyph-name="tilde" horiz-adv-x="999" unicode="˜"/><glyph d="M604 1576l-209 -314h-90l206 314h93zM805 1576l-209 -314h-90l206 314h93z" glyph-name="hungarumlaut" horiz-adv-x="868" unicode="˝"/><glyph d="M-434 1569h122l203 -307h-103z" glyph-name="gravecomb" unicode="̀"/><glyph d="M-65 1569l-310 -307h-103l292 307h121z" glyph-name="acutecomb" unicode="́"/><glyph d="M-109 1262h-103l-144 260l-219 -260h-104l259 307h139z" glyph-name="uni0302" unicode="̂"/><glyph d="M-693 1263q9 82 60 134t124 52q38 0 75.5 -18.5t62 -41t56 -41t60.5 -18.5q35 0 63.5 34t35.5 78h74q-12 -83 -65 -135t-122 -52q-31 0 -66 18.5t-60.5 41t-57.5 40.5t-59 18q-42 0 -72 -32t-38 -79z" glyph-name="tildecomb" unicode="̃"/><glyph d="M-587 1341h490l-12 -79h-489z" glyph-name="uni0304" unicode="̄"/><glyph d="M-75 1493q-20 -98 -99.5 -164.5t-179.5 -66.5q-99 0 -160 66.5t-53 164.5h82q-8 -68 32.5 -114t109.5 -46q67 0 121 46.5t65 113.5h82z" glyph-name="uni0306" unicode="̆"/><glyph d="M-233 1386h143l-18 -124h-143z" glyph-name="uni0307" unicode="̇"/><glyph d="M-589 1386h144l-18 -124h-143zM-232 1386h142l-18 -124h-143z" glyph-name="uni0308" unicode="̈"/><glyph d="M-293 1262q-77 0 -123.5 54t-35.5 131q10 76 72.5 130.5t138.5 54.5t123 -54.5t37 -130.5q-11 -77 -73.5 -131t-138.5 -54zM-283 1332q47 0 85.5 34t45.5 81q6 47 -22.5 81t-75.5 34t-86 -34t-45 -81q-7 -47 22 -81t76 -34z" glyph-name="uni030A" unicode="̊"/><glyph d="M-264 1576l-209 -314h-90l206 314h93zM-63 1576l-209 -314h-90l205 314h94z" glyph-name="uni030B" unicode="̋"/><glyph d="M-168 1569h103l-259 -307h-139l-172 307h104l145 -260z" glyph-name="uni030C" unicode="̌"/><glyph d="M-141 1260h-121l144 433h95z" glyph-name="uni0312" unicode="̒"/><glyph d="M-460 -228h144l-18 -124h-143z" glyph-name="dotbelowcomb" unicode="̣"/><glyph d="M-358 -100h119l-144 -434h-95z" glyph-name="uni0326" unicode="̦"/><glyph d="M-416 -57q53 0 84 -25.5t25 -74.5q-8 -55 -58.5 -81t-129.5 -26q-50 0 -95 8l8 55q38 -5 73 -5q115 0 121 50q4 30 -18.5 40.5t-73.5 10.5q-28 0 -40 -3l6 46l72 67h59l-68 -64q7 2 35 2z" glyph-name="uni0327" unicode="̧"/><glyph d="M-583 -158q8 119 167 158h79q-159 -50 -161 -141q-1 -42 52 -59.5t125 -0.5l-2 -61q-111 -30 -188.5 1t-71.5 103z" glyph-name="uni0328" unicode="̨"/><glyph d="M615 1697h143l-18 -125h-143zM971 1697h143l-18 -125h-143zM266 97h871l-14 -97h-995l201 1434h996l-13 -98h-871l-81 -571h787l-13 -96h-787z" glyph-name="afii10023" horiz-adv-x="1408" unicode="Ё"/><glyph d="M1151 0l-88 346h-773l-186 -346h-132l772 1434h169l370 -1434h-132zM342 443h696l-224 884z" glyph-name="afii10017" horiz-adv-x="1412" unicode="А"/><glyph d="M380 897q480 -3 683.5 -113.5t166.5 -357.5q-28 -200 -170 -313t-357 -113h-575l202 1434h833l-12 -91h-708zM1105 426q18 133 -50 214.5t-236 121.5t-452 41l-100 -710h445q159 0 265 87.5t128 245.5z" glyph-name="afii10018" horiz-adv-x="1409" unicode="Б"/><glyph d="M329 1434h613q73 0 135 -22.5t108.5 -67t67.5 -116.5t9 -163q-17 -122 -82.5 -207t-156.5 -122q110 -30 167.5 -120.5t36.5 -237.5q-13 -94 -56.5 -168.5t-105 -119t-133.5 -67.5t-149 -23h-655zM442 1343l-82 -580h453q80 0 145 26t116 93t66 171q20 150 -50 220 t-195 70h-453zM773 89q81 -1 147.5 27.5t117.5 96.5t64 169q11 78 -4 136.5t-51 91t-84 48.5t-107 16h-508l-83 -585h508z" glyph-name="afii10019" horiz-adv-x="1397" unicode="В"/><glyph d="M985 1434l-13 -98h-531l-187 -1336h-126l201 1434h656z" glyph-name="afii10020" horiz-adv-x="914" unicode="Г"/><glyph d="M1464 1434l-187 -1337h89l-13 -97l-37 -266h-109l37 266h-1006l-38 -266h-109l38 268h-1l5 32l9 63h2v1q120 -1 171 76.5t80 286.5l136 973h933zM643 1336l-127 -902q-34 -236 -120 -337h755l175 1239h-683z" glyph-name="afii10021" horiz-adv-x="1638" unicode="Д"/><glyph d="M266 97h871l-14 -97h-995l201 1434h996l-13 -98h-871l-81 -571h787l-13 -96h-787z" glyph-name="afii10022" horiz-adv-x="1408" unicode="Е"/><glyph d="M2104 1434l-843 -712l643 -722h-151l-636 713l-100 -713h-125l99 713l-835 -713h-151l847 722l-644 712h149l637 -703l99 703h127l-100 -703l834 703h150z" glyph-name="afii10024" horiz-adv-x="2065" unicode="Ж"/><glyph d="M588.5 78q70.5 0 140.5 19.5t132.5 58t106 103t54.5 145.5q11 78 -14.5 142.5t-75.5 104.5t-115 61.5t-136 21.5h-181l12 90h181q78 0 153.5 28t134.5 90.5t71 148.5q12 84 -28.5 145.5t-108 90t-147.5 28.5q-125 0 -231.5 -70.5t-124.5 -193.5l-114 4q15 112 93.5 193.5 t180 119t209.5 37.5q80 0 153 -22.5t129.5 -64.5t86 -110.5t16.5 -152.5q-15 -115 -91.5 -194.5t-184.5 -117.5q128 -42 202 -140t55 -243q-14 -103 -71.5 -185t-139.5 -129.5t-174 -72t-185.5 -24.5t-178 24.5t-153 72t-102.5 129.5t-20 185l126 4q-11 -82 14 -146 t76.5 -102.5t115 -58t134 -19.5z" glyph-name="afii10025" horiz-adv-x="1313" unicode="З"/><glyph d="M456 1434l-177 -1254l1068 1254h138l-203 -1434h-125l177 1256l-1069 -1256h-138l203 1434h126z" glyph-name="afii10026" horiz-adv-x="1567" unicode="И"/><glyph d="M1206 1809q-20 -98 -99.5 -164.5t-179.5 -66.5q-99 0 -160 66.5t-53 164.5h82q-8 -68 32.5 -113.5t109.5 -45.5q67 0 121 46.5t65 112.5h82zM456 1434l-177 -1254l1068 1254h138l-203 -1434h-125l177 1256l-1069 -1256h-138l203 1434h126z" glyph-name="afii10027" horiz-adv-x="1567" unicode="Й"/><glyph d="M1340 1434l-843 -712l643 -722h-150l-636 714l-100 -714h-126l201 1434h126l-99 -704l835 704h149z" glyph-name="afii10028" horiz-adv-x="1301" unicode="К"/><glyph d="M1365 1434l-201 -1432h-125l188 1334h-682l-127 -902q-35 -247 -128.5 -346t-259.5 -86l16 96q119 -1 169.5 76.5t80.5 286.5l136 973h933z" glyph-name="afii10029" horiz-adv-x="1448" unicode="Л"/><glyph d="M1604 1434h181l-201 -1434h-125l180 1284l-695 -1095h-123l-387 1095l-180 -1284h-126l201 1434h182l391 -1109z" glyph-name="afii10030" horiz-adv-x="1868" unicode="М"/><glyph d="M1288 1434h125l-201 -1434h-125l94 669h-834l-93 -669h-126l201 1434h126l-95 -669h834z" glyph-name="afii10031" horiz-adv-x="1497" unicode="Н"/><glyph d="M1573 717q-25 -177 -105 -319.5t-193.5 -230t-243.5 -133.5t-264 -46q-106 0 -202.5 28t-178.5 87.5t-137.5 144t-78.5 205.5t-3.5 263.5t76.5 263.5t136.5 205.5t178 144.5t203.5 88t211.5 28t203.5 -28t179 -88t137 -144.5t77.5 -205.5t3.5 -263zM781 85 q111 0 218.5 40.5t200 116t159.5 199t89 276.5q17 123 -0.5 227.5t-63 177.5t-112.5 125t-146.5 77t-167 25t-174 -25t-167.5 -77t-147 -125t-113 -177.5t-64.5 -227.5t0.5 -227.5t63 -177.5t112 -125.5t146 -77t167 -24.5z" glyph-name="afii10032" horiz-adv-x="1695" unicode="О"/><glyph d="M1346 1434l-201 -1434h-126l188 1336h-766l-187 -1336h-126l201 1434h1017z" glyph-name="afii10033" horiz-adv-x="1429" unicode="П"/><glyph d="M904 1434q214 0 324.5 -113.5t83.5 -312.5q-34 -247 -267.5 -357.5t-715.5 -113.5l-75 -537h-126l201 1434h575zM1187 1008q22 158 -59.5 245t-240.5 87h-446l-99 -709q285 1 464.5 41t271 121.5t109.5 214.5z" glyph-name="afii10034" horiz-adv-x="1393" unicode="Р"/><glyph d="M1307 1247q-154 101 -349 96q-88 -2 -174 -26.5t-167 -75t-147 -122.5t-113 -175.5t-64.5 -226.5t0.5 -226.5t63.5 -175t113 -123t146.5 -76t166 -26.5q196 -3 376 97l-15 -110q-176 -89 -375 -89q-106 0 -203.5 28.5t-179 88t-137 144.5t-78 205t-3 262.5t76.5 263.5 t136.5 205.5t178 144.5t203.5 88t212 28q196 0 349 -89z" glyph-name="afii10035" horiz-adv-x="1417" unicode="С"/><glyph d="M1194 1434l-13 -98h-447l-188 -1336h-125l187 1336h-446l13 98h1019z" glyph-name="afii10036" horiz-adv-x="1123" unicode="Т"/><glyph d="M1084 1434h127l-602 -1058q-30 -51 -57 -92.5t-68 -93.5t-87 -91t-102 -74.5t-127 -56t-149 -24.5l10 86q85 8 156.5 39.5t125 84t90.5 105.5t73 122l-298 1053h128l255 -936z" glyph-name="afii10037" horiz-adv-x="1145" unicode="У"/><glyph d="M1042 1255q345 -7 509 -149t130 -389q-35 -247 -238.5 -389.5t-550.5 -149.5l-26 -178h-70l24 178q-346 7 -509.5 149.5t-128.5 389.5t238.5 389t551.5 149l24 179h72zM307.5 717q-28.5 -203 105.5 -318.5t422 -123.5l122 883q-289 -7 -455 -122.5t-194.5 -318.5z M1556 717q28 202 -105.5 318t-421.5 123l-124 -883q290 7 456 123.5t195 318.5z" glyph-name="afii10038" horiz-adv-x="1818" unicode="Ф"/><glyph d="M1424 1434l-621 -714l429 -720h-143l-382 636l-559 -636h-143l632 720l-423 714h142l376 -629l551 629h141z" glyph-name="afii10039" horiz-adv-x="1393" unicode="Х"/><glyph d="M1347 1434l-189 -1337h88l-37 -261h-96l23 164h-1008l203 1434h125l-188 -1337h766l188 1337h125z" glyph-name="afii10040" horiz-adv-x="1517" unicode="Ц"/><glyph d="M1191 1434h126l-202 -1434h-125l111 786q-77 -130 -206.5 -196t-297.5 -66q-196 0 -280 115t-55 318l67 477h126l-58 -413q-53 -379 269 -379q154 0 278.5 80.5t176.5 215.5z" glyph-name="afii10041" horiz-adv-x="1400" unicode="Ч"/><glyph d="M2113 1434h124l-201 -1434h-1908l203 1434h125l-188 -1337h764l190 1337h125l-188 -1337h766z" glyph-name="afii10042" horiz-adv-x="2321" unicode="Ш"/><glyph d="M2237 1434l-188 -1337h88l-37 -261h-97l23 164h-1898l203 1434h125l-188 -1337h764l190 1337h125l-188 -1337h766l188 1337h124z" glyph-name="afii10043" horiz-adv-x="2408" unicode="Щ"/><glyph d="M441 897q481 -3 684.5 -113.5t166.5 -357.5q-29 -200 -170.5 -313t-355.5 -113h-576l189 1336h-269l13 98h394zM1167 426q18 133 -49.5 214.5t-235.5 121.5t-453 41l-100 -710h444q160 0 266 87.5t128 245.5z" glyph-name="afii10044" horiz-adv-x="1470" unicode="Ъ"/><glyph d="M703 0h-575l202 1434h126l-76 -537q480 -3 683.5 -113.5t166.5 -357.5q-28 -200 -170.5 -313t-356.5 -113zM1528 0h-126l201 1434h126zM367 803l-100 -710h445q159 0 265 87.5t128 245.5q18 133 -50 214.5t-235.5 121.5t-452.5 41z" glyph-name="afii10045" horiz-adv-x="1812" unicode="Ы"/><glyph d="M703 0h-575l202 1434h126l-76 -537q480 -3 683.5 -113.5t166.5 -357.5q-28 -200 -170.5 -313t-356.5 -113zM367 803l-100 -710h445q159 0 265 87.5t128 245.5q18 133 -50 214.5t-235.5 121.5t-452.5 41z" glyph-name="afii10046" horiz-adv-x="1409" unicode="Ь"/><glyph d="M721 1446q106 0 203.5 -28t179 -88t137 -144.5t78 -205.5t3.5 -263q-20 -142 -76.5 -262.5t-136.5 -205.5t-178 -144.5t-203 -88t-212 -28.5q-197 0 -349 89l15 110q151 -100 348 -97q106 2 210 39.5t195 106.5t158.5 181.5t95.5 254.5h-769l13 90h768q10 114 -12 210 t-67.5 162.5t-111.5 114t-142.5 70t-160.5 24.5q-191 5 -375 -96l14 110q178 89 375 89z" glyph-name="afii10047" horiz-adv-x="1444" unicode="Э"/><glyph d="M1524 1446q106 0 203.5 -28t179 -88t137 -144.5t77.5 -205.5t3 -263q-25 -177 -105.5 -319.5t-193.5 -230t-243 -133.5t-264 -46q-129 0 -242.5 43t-201.5 125t-132.5 214.5t-28.5 298.5h-366l-93 -669h-126l201 1434h126l-94 -669h366q31 165 112.5 297.5t191.5 214.5 t236.5 125.5t256.5 43.5zM1998.5 717q17.5 123 -0.5 227.5t-63 177.5t-112 125t-147 77t-167 25t-173.5 -25t-167.5 -77t-147 -125t-113 -177.5t-64.5 -227.5t0.5 -227.5t63 -177.5t111.5 -125.5t146 -77t167.5 -24.5t174.5 24.5t168 77t147 125.5t112.5 177.5t64.5 227.5z " glyph-name="afii10048" horiz-adv-x="2246" unicode="Ю"/><glyph d="M752 1434h575l-202 -1434h-126l76 537q-271 2 -447 35l-430 -572h-131l449 599q-172 52 -243 152.5t-48 256.5q28 200 170.5 313t356.5 113zM1089 631l99 709h-445q-159 0 -265 -87.5t-128 -244.5q-18 -133 49.5 -215t235.5 -121.5t454 -40.5z" glyph-name="afii10049" horiz-adv-x="1411" unicode="Я"/><glyph d="M759 1129q242 0 342 -99.5t67 -338.5l-97 -691h-114l20 172q-75 -74 -207.5 -129.5t-310.5 -54.5q-184 1 -270.5 77.5t-67.5 214.5q14 118 80 194.5t181.5 116t280.5 49t378 -7.5l11 73q19 180 -51 254t-266 77q-91 1 -188.5 -21t-175.5 -62l14 97q162 79 374 79z M991 272l38 269q-251 18 -421.5 7.5t-264 -71t-111.5 -181.5q-15 -117 58.5 -166.5t236.5 -47.5q152 0 274.5 58t189.5 132z" glyph-name="afii10065" horiz-adv-x="1347" unicode="а"/><glyph d="M835 1298q-91 0 -163 -23.5t-136.5 -78.5t-114.5 -151t-88 -234q92 81 213.5 122.5t245.5 41.5q83 0 159.5 -18.5t142.5 -58t111.5 -96.5t64.5 -139t4 -181q-16 -100 -62.5 -183.5t-110.5 -140t-143.5 -95t-161.5 -56t-165 -17.5t-159 17.5t-142.5 56t-112 95t-65 140 t-2.5 183.5q30 211 77.5 368.5t108.5 259.5t142.5 164.5t170 88t199.5 25.5q250 0 452 51l-4 -89q-199 -52 -461 -52zM779 899q-116 0 -222 -45t-187 -142t-103 -230q-16 -103 8.5 -185t80 -131t129 -74.5t158.5 -25.5q68 0 134.5 15t129 49t113 82t87 117.5t49.5 152.5 q16 100 -8.5 181.5t-79 132t-129 77t-160.5 26.5z" glyph-name="afii10066" horiz-adv-x="1443" unicode="б"/><glyph d="M278 1117h558q163 0 256.5 -73t73.5 -214q-13 -98 -74.5 -166.5t-153.5 -90.5q109 -15 170 -88t45 -190q-20 -145 -140 -220t-292 -75h-600zM385 1040l-62 -443h405q125 0 212.5 52.5t105.5 170.5q6 48 -4 86.5t-32.5 63t-57 41t-74.5 23t-87 6.5h-406zM709 75 q60 0 111.5 11.5t96.5 37.5t74 70t37 104t-9 105.5t-54 70.5t-85.5 36.5t-107.5 11.5h-461l-62 -446z" glyph-name="afii10067" horiz-adv-x="1349" unicode="в"/><glyph d="M930 1117l-11 -90h-536l-144 -1027h-118l157 1117h652z" glyph-name="afii10068" horiz-adv-x="956" unicode="г"/><glyph d="M1276 1117l-143 -1027h108l-12 -90l-30 -207h-118l30 207h-872l-30 -207h-118l42 297h9q97 1 146 74.5t72 242.5l101 710h815zM362 90h653l132 937h-581l-90 -644q-29 -197 -114 -293z" glyph-name="afii10069" horiz-adv-x="1506" unicode="д"/><glyph d="M1212 531h-941q-9 -94 13 -171.5t65 -129.5t103.5 -88t126 -51.5t135.5 -15.5q180 0 330 79l-13 -94q-153 -73 -354 -72q-84 0 -164 20.5t-151.5 66t-122.5 110.5t-73.5 161.5t-5.5 212.5q19 140 81 252.5t148.5 180t184.5 102.5t199 35q112 0 206 -38.5t159.5 -114 t87 -187.5t-13.5 -258zM767 1042q-164 -2 -299.5 -111.5t-181.5 -308.5h836q20 103 -3 186.5t-77.5 133t-125 75t-149.5 25.5z" glyph-name="afii10070" horiz-adv-x="1380" unicode="е"/><glyph d="M1741 1117l-665 -554l508 -563h-139l-501 556l-78 -556h-117l77 556l-657 -556h-139l665 563l-509 554h140l502 -548l77 548h118l-77 -547l656 547h139z" glyph-name="afii10072" horiz-adv-x="1770" unicode="ж"/><glyph d="M538 67q92 0 169 26t132.5 83t67.5 138q16 122 -69.5 187.5t-229.5 65.5h-172l11 76h173q120 0 206 53t101 154q13 95 -59 147t-191 52q-73 0 -137.5 -20t-113.5 -67t-58 -112l-105 2q12 88 74.5 151t153 92.5t197 29.5t188 -29.5t127 -92.5t32.5 -151 q-12 -89 -72.5 -151t-146.5 -92q101 -32 160.5 -108.5t43.5 -189.5q-11 -82 -56.5 -145t-114.5 -100t-150.5 -56t-171.5 -19t-165.5 19t-133.5 56t-85.5 100t-16.5 145l114 3q-9 -63 12.5 -112.5t67 -78t101 -42.5t117.5 -14z" glyph-name="afii10073" horiz-adv-x="1214" unicode="з"/><glyph d="M395 1117l-137 -973l805 973h132l-157 -1117h-117l137 976l-805 -976h-132l157 1117h117z" glyph-name="afii10074" horiz-adv-x="1315" unicode="и"/><glyph d="M1035 1493q-20 -98 -99.5 -164.5t-179.5 -66.5q-99 0 -160 66.5t-53 164.5h82q-8 -68 32.5 -114t109.5 -46q67 0 121 46.5t65 113.5h82zM395 1117l-137 -973l805 973h132l-157 -1117h-117l137 976l-805 -976h-132l157 1117h117z" glyph-name="afii10075" horiz-adv-x="1315" unicode="й"/><glyph d="M1190 1117l-736 -554l580 -563h-149l-569 555l-77 -555h-118l157 1117h117l-77 -546l723 546h149z" glyph-name="afii10076" horiz-adv-x="1219" unicode="к"/><glyph d="M1237 1117l-157 -1117h-117l145 1027h-581l-91 -644q-30 -208 -120.5 -301.5t-233.5 -81.5l12 90q102 -1 152.5 71t75.5 246l100 710h815z" glyph-name="afii10077" horiz-adv-x="1357" unicode="л"/><glyph d="M1310 1117h178l-157 -1117h-118l141 996l-551 -848h-113l-311 848l-140 -996h-118l157 1117h178l307 -856z" glyph-name="afii10078" horiz-adv-x="1608" unicode="м"/><glyph d="M1076 1117h118l-157 -1117h-117l74 535h-681l-74 -535h-118l157 1117h117l-69 -492h681z" glyph-name="afii10079" horiz-adv-x="1314" unicode="н"/><glyph d="M1284 558q-16 -117 -62 -213t-110.5 -161t-144 -110t-161.5 -65.5t-165 -20.5t-158.5 20.5t-142.5 65.5t-112.5 110t-65 161t-2.5 213q19 141 84.5 253.5t156.5 180t193.5 102.5t207.5 35t198.5 -35t165 -102.5t104.5 -180t14 -253.5zM653 76q86 0 168.5 29.5t154.5 87 t123 152t67 213.5q16 117 -8 210.5t-79 152t-129 89.5t-160.5 31t-169 -31t-154 -89.5t-122 -152t-66.5 -210.5q-16 -119 8 -213.5t79.5 -152t129 -87t158.5 -29.5z" glyph-name="afii10080" horiz-adv-x="1443" unicode="о"/><glyph d="M1177 1117l-157 -1117h-118l145 1027h-664l-144 -1027h-118l157 1117h899z" glyph-name="afii10081" horiz-adv-x="1296" unicode="п"/><glyph d="M1290 559q-16 -114 -58.5 -209t-101.5 -161t-133 -112t-153.5 -67.5t-162.5 -21.5q-145 0 -254.5 65.5t-152.5 202.5l-95 -675h-118l217 1536h100l-32 -259q58 96 143 159t171 87.5t182 24.5q82 0 155 -21t135 -64.5t102.5 -110.5t57 -160.5t-1.5 -213.5zM817 1041 q-81 0 -157 -26t-144.5 -77.5t-118.5 -140t-70 -203.5l-11 -77q-9 -108 17 -194t78.5 -139.5t121 -81.5t148.5 -28q86 0 166.5 30.5t148.5 89.5t116.5 153t65.5 212q16 120 -6 214t-74 151.5t-124 87t-157 29.5z" glyph-name="afii10082" horiz-adv-x="1449" unicode="р"/><glyph d="M1111 954q-129 82 -312 79q-88 -2 -172 -31.5t-157 -85.5t-124.5 -148.5t-68 -208.5t9 -208.5t83 -149t133 -86t163.5 -30.5q184 -3 333 78l-14 -103q-151 -73 -344 -72q-104 0 -197.5 35t-165 103t-105 180t-13.5 253q19 140 84.5 252.5t156.5 180t193.5 102.5t207.5 35 q195 0 323 -72z" glyph-name="afii10083" horiz-adv-x="1215" unicode="с"/><glyph d="M1117 1117l-12 -90h-434l-145 -1027h-117l144 1027h-434l11 90h987z" glyph-name="afii10084" horiz-adv-x="1091" unicode="т"/><glyph d="M1078 1117h125l-592 -1058q-35 -62 -67.5 -111.5t-87 -110.5t-111.5 -102t-139 -72t-173 -36l8 86q84 8 154 40t122.5 84t89 105t71.5 121l-292 1054h125l252 -936z" glyph-name="afii10085" horiz-adv-x="1232" unicode="у"/><glyph d="M850 1128q81 -4 154 -28t136 -71t105.5 -111.5t59.5 -157t2 -202.5q-15 -112 -59.5 -205t-105 -157t-136.5 -110t-155.5 -69t-161.5 -28l-23 -168h-71l23 168q-81 4 -153.5 27t-135.5 68.5t-106 110t-60.5 158t-0.5 205.5q19 135 80.5 243.5t148.5 177t186 106t202 43.5 l18 126h70zM1187 558q16 111 -6 201.5t-72.5 149t-119.5 92t-151 39.5l-137 -963q83 6 161.5 38.5t145.5 90.5t115 148.5t64 203.5zM282 558q-16 -114 5.5 -205t73 -148.5t120.5 -90t150 -37.5l136 963q-176 -13 -314.5 -139.5t-170.5 -342.5z" glyph-name="afii10086" horiz-adv-x="1467" unicode="ф"/><glyph d="M1179 1117l-486 -553l329 -564h-129l-296 507l-438 -507h-129l486 564l-330 553h129l297 -496l438 496h129z" glyph-name="afii10087" horiz-adv-x="1208" unicode="х"/><glyph d="M1184 1117l-145 -1027h88l-34 -254h-118l22 164h-869l157 1117h117l-144 -1027h664l144 1027h118z" glyph-name="afii10088" horiz-adv-x="1329" unicode="ц"/><glyph d="M1034 1117h118l-157 -1117h-117l80 573q-61 -102 -166 -155.5t-244 -53.5q-178 0 -264 90t-64 254l58 409h117l-49 -353q-19 -141 43 -218.5t214 -77.5q128 0 230 63t143 168z" glyph-name="afii10089" horiz-adv-x="1272" unicode="ч"/><glyph d="M1654 1117h118l-157 -1117h-1494l157 1117h117l-144 -1027h570l145 1027h117l-144 -1027h569z" glyph-name="afii10090" horiz-adv-x="1891" unicode="ш"/><glyph d="M1772 1117l-145 -1027h88l-36 -254h-117l23 164h-1464l157 1117h117l-144 -1027h570l145 1027h117l-144 -1027h569l146 1027h118z" glyph-name="afii10091" horiz-adv-x="1915" unicode="щ"/><glyph d="M516 703q390 -2 554.5 -90t135.5 -282q-23 -155 -138.5 -243t-293.5 -88h-475l144 1027h-217l13 90h334l-10 -75l-2 -15zM1091 331q20 156 -114 225.5t-472 70.5l-77 -549h352q127 0 210 65t101 188z" glyph-name="afii10092" horiz-adv-x="1397" unicode="ъ"/><glyph d="M596 0h-475l157 1117h117l-57 -414q389 -2 554 -90t136 -282q-23 -155 -139 -243t-293 -88zM1379 1117h118l-156 -1117h-117zM327 627l-78 -549h352q128 0 210.5 65t99.5 188q14 104 -39 167.5t-185.5 95.5t-359.5 33z" glyph-name="afii10093" horiz-adv-x="1617" unicode="ы"/><glyph d="M596 0h-475l157 1117h117l-57 -414q389 -2 554 -90t136 -282q-23 -155 -139 -243t-293 -88zM327 627l-78 -549h352q128 0 210.5 65t99.5 188q14 104 -39 167.5t-185.5 95.5t-359.5 33z" glyph-name="afii10094" horiz-adv-x="1219" unicode="ь"/><glyph d="M621 1129q83 0 159.5 -21.5t142.5 -67.5t111.5 -111.5t65 -160.5t3 -209t-62 -209.5t-109.5 -161t-143 -111.5t-161.5 -67.5t-165.5 -21.5q-194 0 -324 72l15 103q128 -81 312 -78q84 1 164 28t151 78t123.5 134.5t74.5 188.5h-691l12 89h692q7 105 -22 189t-85.5 135 t-128.5 77.5t-156 28.5q-183 3 -335 -79l13 103q151 72 345 72z" glyph-name="afii10095" horiz-adv-x="1262" unicode="э"/><glyph d="M1264 1129q105 0 198 -35t165 -102.5t105 -180t14 -253.5q-16 -117 -62.5 -213t-111 -161t-143.5 -110t-161 -65.5t-165 -20.5q-79 0 -151.5 19t-137.5 60t-112 100.5t-70.5 147.5t-15.5 195h-306l-71 -510h-118l157 1117h117l-71 -510h306q27 129 93.5 231.5t155 164.5 t187 94t198.5 32zM1628 558q16 117 -8.5 210.5t-79 152t-129 89.5t-160.5 31t-168.5 -31t-153.5 -89.5t-122 -152t-68 -210.5q-16 -119 8.5 -213.5t80 -152t129 -87t159.5 -29.5t168 29.5t153.5 87t123 152t67.5 213.5z" glyph-name="afii10096" horiz-adv-x="1905" unicode="ю"/><glyph d="M675 1117h475l-157 -1117h-117l58 419q-206 1 -349 24l-340 -443h-123l358 467q-140 41 -197 119t-38 200q23 156 137.5 243.5t292.5 87.5zM945 499l76 539h-352q-126 0 -208 -66.5t-99 -185.5q-22 -152 111.5 -219t471.5 -68z" glyph-name="afii10097" horiz-adv-x="1270" unicode="я"/><glyph d="M703 1386l-17 -124h-143l17 124h143zM1059 1386l-18 -124h-143l18 124h143zM1212 531h-941q-9 -94 13 -171.5t65 -129.5t103.5 -88t126 -51.5t135.5 -15.5q180 0 330 79l-13 -94q-153 -73 -354 -72q-84 0 -164 20.5t-151.5 66t-122.5 110.5t-73.5 161.5t-5.5 212.5 q19 140 81 252.5t148.5 180t184.5 102.5t199 35q112 0 206 -38.5t159.5 -114t87 -187.5t-13.5 -258zM767 1042q-164 -2 -299.5 -111.5t-181.5 -308.5h836q20 103 -3 186.5t-77.5 133t-125 75t-149.5 25.5z" glyph-name="afii10071" horiz-adv-x="1380" unicode="ё"/><glyph d="M986 1569l-310 -307h-104l292 307h122zM930 1117l-11 -90h-536l-144 -1027h-118l157 1117h652z" glyph-name="afii10100" horiz-adv-x="956" unicode="ѓ"/><glyph d="M306 1434h164l-14 -105h-165zM402 1117l-157 -1125q-18 -129 -82.5 -183.5t-177.5 -54.5q-60 0 -108 17l12 64q44 -10 96 -4q73 2 102.5 42t40.5 127l157 1117h117z" glyph-name="afii10105" horiz-adv-x="530" unicode="ј"/><glyph d="M1109 1569l-310 -307h-104l292 307h122zM1190 1117l-736 -554l580 -563h-149l-569 555l-77 -555h-118l157 1117h117l-77 -546l723 546h149z" glyph-name="afii10109" horiz-adv-x="1219" unicode="ќ"/><glyph d="M329 1434h613q73 0 135 -22.5t108.5 -67t67.5 -116.5t9 -163q-17 -122 -82.5 -207t-156.5 -122q110 -30 167.5 -120.5t36.5 -237.5q-13 -94 -56.5 -168.5t-105 -119t-133.5 -67.5t-149 -23h-655zM442 1343l-82 -580h453q80 0 145 26t116 93t66 171q20 150 -50 220 t-195 70h-453zM773 89q81 -1 147.5 27.5t117.5 96.5t64 169q11 78 -4 136.5t-51 91t-84 48.5t-107 16h-508l-83 -585h508zM541 -228h143l-17 -124h-144z" glyph-name="uni1E04" horiz-adv-x="1397" unicode="Ḅ"/><glyph d="M1290 559q-20 -145 -80 -258t-145 -179.5t-182.5 -100t-201.5 -33.5q-71 0 -133 14t-118.5 45t-100 85t-67.5 127l-41 -259h-100l216 1536h118l-96 -675q82 137 209.5 202.5t273.5 65.5q104 0 192 -35t153.5 -102.5t93.5 -179.5t9 -253zM682 76q85 0 165 29.5t148.5 87 t117 152t65.5 214.5q32 230 -74.5 357t-286.5 127q-168 0 -307.5 -115.5t-181.5 -326.5l-11 -77q-12 -116 13 -204.5t79 -140t123 -77.5t150 -26zM540 -228h143l-17 -124h-144z" glyph-name="uni1E05" horiz-adv-x="1449" unicode="ḅ"/><glyph d="M1419 717q-19 -144 -71.5 -263t-126.5 -202.5t-169.5 -141t-202 -84t-221.5 -26.5h-500l201 1434h499q146 0 264 -44t201 -130t117.5 -225.5t8.5 -317.5zM632 97q123 0 232.5 39.5t198 115t149.5 194.5t82.5 270.5t-6 271t-95.5 195t-166 114.5t-221 39h-365l-175 -1239 h366zM587 -228h143l-17 -124h-144z" glyph-name="uni1E0C" horiz-adv-x="1542" unicode="Ḍ"/><glyph d="M160 559q16 114 58.5 209t101.5 160.5t133 111.5t153.5 67.5t162.5 21.5q145 0 254.5 -65.5t152.5 -202.5l95 675h118l-217 -1536h-100l32 259q-58 -96 -143 -159t-171.5 -87.5t-181.5 -24.5q-83 0 -155.5 21t-134.5 64.5t-102.5 111t-57 160.5t1.5 214zM633 76 q81 0 157 26t144 77.5t118.5 140.5t70.5 204l11 77q9 108 -17 194t-78.5 139t-121 81t-148.5 28q-86 0 -166.5 -30.5t-148.5 -89.5t-116.5 -153t-65.5 -211q-16 -120 6 -214.5t74 -152t124 -87t157 -29.5zM514 -228h142l-17 -124h-143z" glyph-name="uni1E0D" horiz-adv-x="1448" unicode="ḍ"/><glyph d="M1288 1434h125l-201 -1434h-125l94 669h-834l-93 -669h-126l201 1434h126l-95 -669h834zM566 -228h144l-18 -124h-143z" glyph-name="uni1E24" horiz-adv-x="1497" unicode="Ḥ"/><glyph d="M238 0h-117l216 1536h118l-95 -674q91 139 232.5 203t300.5 64q88 0 157 -25.5t119.5 -78.5t69.5 -143.5t2 -212.5l-93 -669h-118l90 646q29 206 -49 299t-233 93q-79 0 -158.5 -26t-152.5 -76.5t-128 -136.5t-75 -195zM520 -228h144l-18 -124h-143z" glyph-name="uni1E25" horiz-adv-x="1424" unicode="ḥ"/><glyph d="M455 1434l-189 -1337h828l-13 -97h-953l201 1434h126zM503 -228h143l-17 -124h-144z" glyph-name="uni1E36" horiz-adv-x="1318" unicode="Ḷ"/><glyph d="M337 1536h118l-216 -1536h-118zM76 -228h143l-17 -124h-144z" glyph-name="uni1E37" horiz-adv-x="516" unicode="ḷ"/><glyph d="M1440 1885l-311 -307h-103l292 307h122zM1604 1434h181l-201 -1434h-125l180 1284l-695 -1095h-123l-387 1095l-180 -1284h-126l201 1434h182l391 -1109z" glyph-name="uni1E3E" horiz-adv-x="1868" unicode="Ḿ"/><glyph d="M1563 1569l-311 -307h-103l292 307h122zM1701 1129q92 0 159 -25t114 -82t60 -149.5t-3 -226.5l-92 -646h-117l91 646q29 208 -41 300t-221 92q-78 0 -153 -26.5t-142.5 -78.5t-116.5 -140t-67 -201v3l-82 -595h-118l90 646q30 208 -40 300t-221 92q-77 0 -151.5 -26.5 t-141 -78.5t-116 -140t-70.5 -201l-84 -592h-117l157 1117h117l-35 -255q167 267 491 267q310 0 337 -293q66 140 210 216.5t303 76.5z" glyph-name="uni1E3F" horiz-adv-x="2216" unicode="ḿ"/><glyph d="M872 1703h144l-18 -125h-143zM1359 1434h125l-201 -1434h-138l-715 1256l-176 -1256h-126l201 1434h138l716 -1254z" glyph-name="uni1E44" horiz-adv-x="1567" unicode="Ṅ"/><glyph d="M757 1386h143l-17 -124h-144zM238 0h-117l157 1117h117l-35 -255q91 139 232.5 203t300.5 64q88 0 157 -25.5t119.5 -78.5t69.5 -143.5t2 -212.5l-93 -669h-118l90 646q29 206 -49 299t-233 93q-79 0 -158.5 -26t-152.5 -76.5t-128 -136.5t-75 -195z" glyph-name="uni1E45" horiz-adv-x="1424" unicode="ṅ"/><glyph d="M1359 1434h125l-201 -1434h-138l-715 1256l-176 -1256h-126l201 1434h138l716 -1254zM602 -228h143l-17 -124h-143z" glyph-name="uni1E46" horiz-adv-x="1567" unicode="Ṇ"/><glyph d="M238 0h-117l157 1117h117l-35 -255q91 139 232.5 203t300.5 64q88 0 157 -25.5t119.5 -78.5t69.5 -143.5t2 -212.5l-93 -669h-118l90 646q29 206 -49 299t-233 93q-79 0 -158.5 -26t-152.5 -76.5t-128 -136.5t-75 -195zM530 -228h144l-18 -124h-143z" glyph-name="uni1E47" horiz-adv-x="1424" unicode="ṇ"/><glyph d="M103 222q166 -136 440 -136q105 0 209 34t178.5 98t86.5 140q8 56 -10 101t-41.5 72t-91 56.5t-106 42.5t-137.5 42q-39 11 -59 17q-93 29 -159.5 60.5t-117.5 76t-71 103.5t-8 134q29 174 181 278.5t396 104.5q207 0 358 -98l-16 -110q-156 113 -356 111 q-185 0 -302 -79.5t-138 -211.5q-6 -37 1.5 -69.5t23 -57t48 -47.5t61.5 -38.5t80.5 -33.5t87 -29t96.5 -28q49 -14 88.5 -27.5t79.5 -29.5t69.5 -32.5t58 -36.5t46.5 -41t34 -47t21.5 -54.5t8.5 -63.5t-6 -73q-18 -109 -114 -193t-226.5 -126t-268.5 -42q-281 0 -442 121z M443 -228h144l-18 -124h-143z" glyph-name="uni1E62" horiz-adv-x="1311" unicode="Ṣ"/><glyph d="M113 168q71 -40 169.5 -63t200.5 -25q132 -2 236.5 52.5t120.5 143.5q7 44 -7.5 78.5t-36 56t-75 43.5t-91.5 34t-119 33q-168 45 -247 121.5t-61 196.5q19 137 146.5 213.5t326.5 76.5q200 0 328 -77l-15 -103q-133 87 -318 88q-148 2 -241.5 -49t-107.5 -150 q-7 -47 10 -84t62.5 -66t100.5 -50.5t141 -45.5q94 -27 152 -51t103.5 -59.5t61 -84.5t5.5 -116q-13 -86 -85 -154.5t-174.5 -103.5t-212.5 -35q-111 0 -216 21.5t-172 57.5zM393 -228h144l-18 -124h-143z" glyph-name="uni1E63" horiz-adv-x="1157" unicode="ṣ"/><glyph d="M1194 1434l-13 -98h-447l-188 -1336h-125l187 1336h-446l13 98h1019zM362 -352l18 124h143l-17 -124h-144z" glyph-name="uni1E6C" horiz-adv-x="1123" unicode="Ṭ"/><glyph d="M711 0h-264q-87 0 -128 61.5t-27 163.5l112 802h-178l13 90h178l30 221h118l-30 -221h332l-12 -90h-333l-109 -777q-10 -75 19 -119.5t87 -44.5h203zM359 -228h144l-18 -124h-143z" glyph-name="uni1E6D" horiz-adv-x="987" unicode="ṭ"/><glyph d="M840 1885h122l203 -307h-103zM1881 1434h131l-614 -1434h-140l-188 1269l-544 -1269h-139l-212 1434h130l178 -1267l540 1267h141l184 -1267z" glyph-name="Wgrave" horiz-adv-x="1941" unicode="Ẁ"/><glyph d="M698 1569h122l204 -307h-103zM1591 1117h127l-493 -1117h-140l-153 975l-427 -975h-139l-180 1117h126l150 -992l427 992h126l149 -992z" glyph-name="wgrave" horiz-adv-x="1747" unicode="ẁ"/><glyph d="M1476 1885l-311 -307h-103l292 307h122zM1881 1434h131l-614 -1434h-140l-188 1269l-544 -1269h-139l-212 1434h130l178 -1267l540 1267h141l184 -1267z" glyph-name="Wacute" horiz-adv-x="1941" unicode="Ẃ"/><glyph d="M1334 1569l-310 -307h-103l291 307h122zM1591 1117h127l-493 -1117h-140l-153 975l-427 -975h-139l-180 1117h126l150 -992l427 992h126l149 -992z" glyph-name="wacute" horiz-adv-x="1747" unicode="ẃ"/><glyph d="M882 1703h143l-17 -125h-144zM1238 1703h142l-17 -125h-143zM1881 1434h131l-614 -1434h-140l-188 1269l-544 -1269h-139l-212 1434h130l178 -1267l540 1267h141l184 -1267z" glyph-name="Wdieresis" horiz-adv-x="1941" unicode="Ẅ"/><glyph d="M740 1386h144l-18 -124h-143zM1097 1386h142l-17 -124h-144zM1591 1117h127l-493 -1117h-140l-153 975l-427 -975h-139l-180 1117h126l150 -992l427 992h126l149 -992z" glyph-name="wdieresis" horiz-adv-x="1747" unicode="ẅ"/><glyph d="M1357 1434l-14 -98l-1046 -1239h872l-13 -97h-1028l13 97l1046 1239h-871l13 98h1028zM521 -352l18 124h143l-17 -124h-144z" glyph-name="uni1E92" horiz-adv-x="1440" unicode="Ẓ"/><glyph d="M1170 1117l-11 -90l-917 -937h784l-12 -90h-932l12 90l917 937h-785l13 90h931zM427 -352l17 124h144l-18 -124h-143z" glyph-name="uni1E93" horiz-adv-x="1252" unicode="ẓ"/><glyph d="M1283 0h-132l-88 346h-773l-186 -346h-132l772 1434h169zM342 443h696l-224 884zM507 -352l17 124h144l-18 -124h-143z" glyph-name="uni1EA0" horiz-adv-x="1412" unicode="Ạ"/><glyph d="M759 1129q242 0 342 -99.5t67 -338.5l-97 -691h-114l20 172q-75 -74 -207.5 -129.5t-310.5 -54.5q-184 1 -270.5 77.5t-67.5 214.5q14 118 80 194.5t181.5 116t280.5 49t378 -7.5l11 73q19 180 -51 254t-266 77q-91 1 -188.5 -21t-175.5 -62l14 97q162 79 374 79z M991 272l38 269q-251 18 -421.5 7.5t-264 -71t-111.5 -181.5q-15 -117 58.5 -166.5t236.5 -47.5q152 0 274.5 58t189.5 132zM410 -228h143l-17 -124h-144z" glyph-name="uni1EA1" horiz-adv-x="1347" unicode="ạ"/><glyph d="M266 97h871l-14 -97h-995l201 1434h996l-13 -98h-871l-81 -571h787l-13 -96h-787zM522 -228h144l-18 -124h-143z" glyph-name="uni1EB8" horiz-adv-x="1408" unicode="Ẹ"/><glyph d="M1212 531h-941q-9 -94 13 -171.5t65 -129.5t103.5 -88t126 -51.5t135.5 -15.5q180 0 330 79l-13 -94q-153 -73 -354 -72q-84 0 -164 20.5t-151.5 66t-122.5 110.5t-73.5 161.5t-5.5 212.5q19 140 81 252.5t148.5 180t184.5 102.5t199 35q112 0 206 -38.5t159.5 -114 t87 -187.5t-13.5 -258zM767 1042q-164 -2 -299.5 -111.5t-181.5 -308.5h836q20 103 -3 186.5t-77.5 133t-125 75t-149.5 25.5zM546 -352l17 124h144l-18 -124h-143z" glyph-name="uni1EB9" horiz-adv-x="1380" unicode="ẹ"/><glyph d="M556 1579q9 82 60.5 134t123.5 52q38 0 75.5 -18t62 -41t56.5 -41t60 -18q35 0 63.5 33.5t36.5 77.5h73q-12 -83 -64.5 -134.5t-122.5 -51.5q-31 0 -65.5 18.5t-60.5 41t-58 40.5t-59 18q-42 0 -72 -32.5t-37 -79.5zM266 97h871l-14 -97h-995l201 1434h996l-13 -98h-871 l-81 -571h787l-13 -96h-787z" glyph-name="uni1EBC" horiz-adv-x="1408" unicode="Ẽ"/><glyph d="M683 1373q-42 0 -72 -32t-38 -79l-71 1q9 82 60 134t124 52q38 0 75.5 -18.5t62 -41t56 -41t60.5 -18.5q35 0 63.5 34t35.5 78h74q-12 -83 -65 -135t-122 -52q-31 0 -66 18.5t-60.5 41t-57.5 40.5t-59 18zM1212 531h-941q-9 -94 13 -171.5t65 -129.5t103.5 -88t126 -51.5 t135.5 -15.5q180 0 330 79l-13 -94q-153 -73 -354 -72q-84 0 -164 20.5t-151.5 66t-122.5 110.5t-73.5 161.5t-5.5 212.5q19 140 81 252.5t148.5 180t184.5 102.5t199 35q112 0 206 -38.5t159.5 -114t87 -187.5t-13.5 -258zM767 1042q-164 -2 -299.5 -111.5t-181.5 -308.5 h836q20 103 -3 186.5t-77.5 133t-125 75t-149.5 25.5z" glyph-name="uni1EBD" horiz-adv-x="1380" unicode="ẽ"/><glyph d="M254 0h-126l201 1434h126zM87 -228h143l-17 -124h-143z" glyph-name="uni1ECA" horiz-adv-x="538" unicode="Ị"/><glyph d="M306 1434h164l-14 -105h-165zM285 1117h117l-156 -1117h-118zM84 -228h143l-17 -124h-143z" glyph-name="uni1ECB" horiz-adv-x="530" unicode="ị"/><glyph d="M1573 717q-25 -177 -105 -319.5t-193.5 -230t-243.5 -133.5t-264 -46q-106 0 -202.5 28t-178.5 87.5t-137.5 144t-78.5 205.5t-3.5 263.5t76.5 263.5t136.5 205.5t178 144.5t203.5 88t211.5 28t203.5 -28t179 -88t137 -144.5t77.5 -205.5t3.5 -263zM781 85 q111 0 218.5 40.5t200 116t159.5 199t89 276.5q17 123 -0.5 227.5t-63 177.5t-112.5 125t-146.5 77t-167 25t-174 -25t-167.5 -77t-147 -125t-113 -177.5t-64.5 -227.5t0.5 -227.5t63 -177.5t112 -125.5t146 -77t167 -24.5zM666 -228h143l-17 -124h-144z" glyph-name="uni1ECC" horiz-adv-x="1695" unicode="Ọ"/><glyph d="M1284 558q-16 -117 -62 -213t-110.5 -161t-144 -110t-161.5 -65.5t-165 -20.5t-158.5 20.5t-142.5 65.5t-112.5 110t-65 161t-2.5 213q19 141 84.5 253.5t156.5 180t193.5 102.5t207.5 35t198.5 -35t165 -102.5t104.5 -180t14 -253.5zM653 76q86 0 168.5 29.5t154.5 87 t123 152t67 213.5q16 117 -8 210.5t-79 152t-129 89.5t-160.5 31t-169 -31t-154 -89.5t-122 -152t-66.5 -210.5q-16 -119 8 -213.5t79.5 -152t129 -87t158.5 -29.5zM541 -228h143l-17 -124h-144z" glyph-name="uni1ECD" horiz-adv-x="1443" unicode="ọ"/><glyph d="M1380 1434l-125 -891q-41 -293 -184.5 -424t-419.5 -131q-274 0 -381 131t-66 424l125 891h126l-128 -908q-32 -232 46 -336.5t293 -104.5t322.5 104.5t139.5 336.5l127 908h125zM551 -228h143l-17 -124h-143z" glyph-name="uni1EE4" horiz-adv-x="1464" unicode="Ụ"/><glyph d="M1187 1117h117l-157 -1117h-118l36 256q-62 -95 -153 -157t-184 -86.5t-196 -24.5q-89 0 -158 25.5t-119 78.5t-69.5 144.5t-2.5 213.5l95 667h117l-91 -646q-14 -105 0.5 -182.5t55 -122t97 -65.5t131.5 -21q79 0 158 26t152.5 76.5t128 137t75.5 194.5zM504 -228h143 l-17 -124h-144z" glyph-name="uni1EE5" horiz-adv-x="1424" unicode="ụ"/><glyph d="M506 1885h122l203 -307h-103zM1208 1434h137l-640 -843l-83 -591h-126l83 591l-404 843h136l347 -720z" glyph-name="Ygrave" horiz-adv-x="1273" unicode="Ỳ"/><glyph d="M441 1569h122l204 -307h-103zM1078 1117h125l-592 -1058q-35 -62 -67.5 -111.5t-87 -110.5t-111.5 -102t-139 -72t-173 -36l8 86q84 8 154 40t122.5 84t89 105t71.5 121l-292 1054h125l252 -936z" glyph-name="ygrave" horiz-adv-x="1232" unicode="ỳ"/><glyph d="M1208 1434h137l-640 -843l-83 -591h-126l83 591l-404 843h136l347 -720zM455 -228h143l-17 -124h-144z" glyph-name="uni1EF4" horiz-adv-x="1273" unicode="Ỵ"/><glyph d="M1078 1117h125l-592 -1058q-35 -62 -67.5 -111.5t-87 -110.5t-111.5 -102t-139 -72t-173 -36l8 86q84 8 154 40t122.5 84t89 105t71.5 121l-292 1054h125l252 -936zM879 -176h155l-18 -135h-156z" glyph-name="uni1EF5" horiz-adv-x="1247" unicode="ỵ"/><glyph d="M488 1579q9 82 60.5 134t124.5 52q38 0 75 -18t62 -41t56.5 -41t60.5 -18q35 0 63.5 33.5t35.5 77.5h74q-12 -83 -65 -134.5t-123 -51.5q-31 0 -65.5 18.5t-60 41t-58 40.5t-58.5 18q-42 0 -72.5 -32.5t-37.5 -79.5zM1208 1434h137l-640 -843l-83 -591h-126l83 591 l-404 843h136l347 -720z" glyph-name="uni1EF8" horiz-adv-x="1273" unicode="Ỹ"/><glyph d="M423 1263q9 82 60.5 134t123.5 52q38 0 75.5 -18.5t62 -41t56.5 -41t60 -18.5q35 0 63.5 34t36.5 78h73q-12 -83 -65 -135t-122 -52q-31 0 -66 18.5t-60.5 41t-57.5 40.5t-59 18q-42 0 -72 -32t-37 -79zM1078 1117h125l-592 -1058q-35 -62 -67.5 -111.5t-87 -110.5 t-111.5 -102t-139 -72t-173 -36l8 86q84 8 154 40t122.5 84t89 105t71.5 121l-292 1054h125l252 -936z" glyph-name="uni1EF9" horiz-adv-x="1232" unicode="ỹ"/><glyph d="M214 607h940l-14 -97h-940z" glyph-name="endash" horiz-adv-x="1353" unicode="–"/><glyph d="M214 607h1601l-15 -97h-1600z" glyph-name="emdash" horiz-adv-x="2014" unicode="—"/><glyph d="M406 1082h-126l151 455h100z" glyph-name="quoteleft" horiz-adv-x="600" unicode="‘"/><glyph d="M406 1536h125l-150 -455h-100z" glyph-name="quoteright" horiz-adv-x="600" unicode="’"/><glyph d="M189 137h126l-150 -454h-100z" glyph-name="quotesinglbase" horiz-adv-x="580" unicode="‚"/><glyph d="M406 1081h-126l151 455h100zM670 1081h-126l151 455h101z" glyph-name="quotedblleft" horiz-adv-x="864" unicode="“"/><glyph d="M404 1536h127l-151 -455h-100zM669 1536h127l-152 -455h-100z" glyph-name="quotedblright" horiz-adv-x="864" unicode="”"/><glyph d="M188 131h127l-151 -455h-101zM453 131h126l-151 -455h-100z" glyph-name="quotedblbase" horiz-adv-x="844" unicode="„"/><glyph d="M989 1270l-12 -89h-292l-73 -515h-99l73 515h-292l12 89h292l38 266h99l-38 -266h292z" glyph-name="dagger" horiz-adv-x="1095" unicode="†"/><glyph d="M977 1181h-292l-43 -305h292l-13 -90h-291l-38 -266h-99l37 266h-291l12 90h292l43 305h-292l12 89h292l38 266h99l-38 -266h292z" glyph-name="daggerdbl" horiz-adv-x="1095" unicode="‡"/><glyph d="M232 740h382l-51 -363h-382z" glyph-name="bullet" horiz-adv-x="795" unicode="•"/><glyph d="M148 140h164l-20 -140h-164zM540 140h165l-21 -140h-164zM932 140h164l-20 -140h-164z" glyph-name="ellipsis" horiz-adv-x="1360" unicode="…"/><glyph d="M869 1007q-30 -216 -131.5 -327t-253.5 -111q-151 0 -221 111t-40 327q30 215 132 326t252 111q152 0 222 -111t40 -326zM1411 1434h79l-968 -1434h-77zM494 640q116 0 191.5 94t100.5 273q25 178 -24.5 272t-164.5 94t-190 -94t-100.5 -272.5t23.5 -272.5t164 -94z M1707 430q-31 -216 -132.5 -326.5t-252.5 -110.5t-221.5 110.5t-39.5 326.5q30 215 131 326t252.5 111t222 -111t40.5 -326zM2423 430q-31 -216 -133 -326.5t-252.5 -110.5t-221 110.5t-39.5 326.5q30 215 131 326t252.5 111t222 -111t40.5 -326zM1331.5 63 q114.5 0 190.5 94.5t102 272.5q25 178 -25 272.5t-164.5 94.5t-190 -94.5t-101 -272.5t24 -272.5t164 -94.5zM2047 63q115 0 191 94.5t102 272.5q25 178 -25 272.5t-164.5 94.5t-190 -94.5t-101 -272.5t23.5 -272.5t164 -94.5z" glyph-name="perthousand" horiz-adv-x="2600" unicode="‰"/><glyph d="M728 947l-391 -384l284 -384h-131l-283 384l392 384h129z" glyph-name="guilsinglleft" horiz-adv-x="880" unicode="‹"/><glyph d="M261 947h129l285 -384l-392 -384h-130l392 384z" glyph-name="guilsinglright" horiz-adv-x="880" unicode="›"/><glyph d="M621 1434q227 1 347.5 -110t92.5 -311q-25 -182 -143.5 -290t-292.5 -117q-52 -5 -110 -3l-43 -282h-101l43 375h1l29 253h113l-36 -267q11 -1 34 -1q156 0 262 89t127 241q20 154 -71.5 239.5t-266.5 85.5q-204 1 -364 -91l15 111q158 77 364 78zM297 0l14 104h164 l-14 -104h-164z" glyph-name="uni203D" horiz-adv-x="1141" unicode="‽"/><glyph d="M888 1434h78l-967 -1434h-77z" glyph-name="fraction" horiz-adv-x="843" unicode="⁄"/><glyph d="M898 1211q-30 -216 -131.5 -326.5t-253.5 -110.5q-151 0 -221.5 110.5t-39.5 326.5q30 215 131.5 326.5t252.5 111.5q152 0 222 -111.5t40 -326.5zM522 845q116 0 192 94t101 272t-25 272.5t-164.5 94.5t-190 -94t-101 -272.5t23.5 -272.5t164 -94z" glyph-name="uni2070" horiz-adv-x="966" unicode="⁰"/><glyph d="M899 1075l-11 -70h-160l-32 -227h-80l32 227h-426l11 70l492 563h92l-79 -563h161zM323 1075h335l66 470z" glyph-name="uni2074" horiz-adv-x="985" unicode="⁴"/><glyph d="M386 1638h500l-12 -71h-422l-65 -295q116 26 229 21q126 -5 190.5 -69t47.5 -186q-39 -269 -354 -267q-185 2 -297 91l48 63q44 -39 114 -61t144 -21q123 1 184.5 46.5t76.5 148.5q14 94 -44.5 143.5t-170.5 49.5q-98 0 -223 -27l-32 22z" glyph-name="uni2075" horiz-adv-x="946" unicode="⁵"/><glyph d="M905 1067q-10 -73 -47.5 -131t-91 -93t-115 -53.5t-124 -18.5t-119 18.5t-100.5 53.5t-65.5 93t-11.5 131q5 35 11 58t22 53t37.5 58.5t64.5 77t95.5 103t137.5 144.5q48 50 75 77h103l-302 -313q82 35 173 32q56 -2 106 -21t88 -53.5t55.5 -90t7.5 -125.5zM536.5 837 q103.5 0 186.5 60.5t98 169.5q15 111 -50.5 170.5t-169.5 59.5q-65 0 -125 -26t-104.5 -79.5t-55.5 -124.5q-14 -109 51.5 -169.5t169 -60.5z" glyph-name="uni2076" horiz-adv-x="994" unicode="⁶"/><glyph d="M312 1638h561l-10 -71q-327 -352 -452 -789h-87q125 430 434 789h-456z" glyph-name="uni2077" horiz-adv-x="880" unicode="⁷"/><glyph d="M867 1014q-11 -83 -68.5 -141t-131.5 -82.5t-157 -24.5q-81 0 -148 24.5t-108 82.5t-30 141q12 88 75 146.5t150 82.5q-60 23 -93.5 70.5t-24.5 116.5q14 100 100.5 155t202.5 55q75 0 132 -22.5t89.5 -71.5t23.5 -116q-9 -69 -57 -116.5t-114 -70.5q80 -25 126 -83 t33 -146zM410 1427q-10 -72 43 -112.5t130 -40.5q78 0 141.5 41t74.5 112q9 71 -40.5 109.5t-133.5 38.5t-145 -38.5t-70 -109.5zM520 833q96 0 172 46.5t89 136.5q12 87 -50.5 138t-157 51t-172 -51t-90.5 -138q-13 -90 50 -136.5t159 -46.5z" glyph-name="uni2078" horiz-adv-x="963" unicode="⁸"/><glyph d="M270 1345q20 142 132 218.5t247 76.5q63 0 119 -17.5t100 -52.5t65.5 -93.5t11.5 -131.5q-7 -51 -18.5 -82.5t-53.5 -87.5t-103 -122t-191 -201q-49 -51 -76 -79h-104l302 313q-86 -36 -174 -30q-56 2 -105 20.5t-87 52.5t-56 90t-9 126zM640 1575q-103 0 -186 -61 t-99 -169q-15 -111 51 -170.5t169 -59.5q101 0 185.5 62t99.5 168q14 110 -51.5 170t-168.5 60z" glyph-name="uni2079" horiz-adv-x="994" unicode="⁹"/><glyph d="M745 123q-30 -216 -131.5 -326.5t-253.5 -110.5q-151 0 -221 110.5t-40 326.5q30 215 132 326t252 111q152 0 222 -111t40 -326zM370 -244q116 0 191.5 94.5t101.5 272.5q25 178 -25 272t-165 94t-190 -94t-100.5 -272t23.5 -272.5t164 -94.5z" glyph-name="uni2080" horiz-adv-x="966" unicode="₀"/><glyph d="M340 -236h207l-9 -71h-499l9 71h208l99 712q-101 -50 -178 -70l11 77q82 20 179 70h84z" glyph-name="uni2081" horiz-adv-x="818" unicode="₁"/><glyph d="M684 -236l-10 -71h-635l9 71q46 35 148.5 108.5t166.5 122t139 112t115.5 118.5t47.5 102q11 82 -41 128.5t-164 46.5q-133 2 -251 -79l-33 57q140 93 296 93q153 0 225 -64t57 -172q-6 -47 -39.5 -101t-75 -98.5t-109 -101t-117 -94t-127 -94.5t-112.5 -84h510z" glyph-name="uni2082" horiz-adv-x="955" unicode="₂"/><glyph d="M186 563h571l-9 -71l-384 -313q57 9 106 6q121 -5 186.5 -70t50.5 -173q-18 -127 -107 -193.5t-246 -65.5q-182 0 -303 97l52 59q46 -40 118.5 -63.5t143.5 -22.5q119 1 181.5 47.5t76.5 142.5q13 90 -43 137t-166 47q-86 0 -152 -28l-23 73l402 320h-465z" glyph-name="uni2083" horiz-adv-x="953" unicode="₃"/><glyph d="M746 -10l-11 -71h-160l-31 -226h-80l32 226h-426l11 71l491 563h93l-79 -563h160zM170 -10h336l65 470z" glyph-name="uni2084" horiz-adv-x="985" unicode="₄"/><glyph d="M233 553h500l-11 -72h-423l-65 -295q116 26 230 22q126 -5 190.5 -69t46.5 -186q-39 -269 -354 -267q-185 2 -297 91l48 62q44 -39 114.5 -61t143.5 -21q123 1 184.5 46.5t76.5 149.5q14 94 -44.5 143t-170.5 49q-98 0 -223 -26l-32 21z" glyph-name="uni2085" horiz-adv-x="946" unicode="₅"/><glyph d="M754 -11q-10 -73 -47.5 -131.5t-91.5 -93t-115.5 -53t-124 -18.5t-118.5 18.5t-100 53t-65.5 93t-11.5 131.5q5 35 10.5 58t21.5 53t37.5 58t64.5 77t95.5 103.5t137.5 143.5q48 50 75 78h104l-302 -313q82 35 173 32q56 -2 105.5 -21t87.5 -53.5t56 -90t8 -125.5z M385 -242q103 0 186 61t99 170q15 111 -51 170.5t-169 59.5q-65 0 -125.5 -26t-105 -80t-54.5 -124q-14 -109 51.5 -170t168.5 -61z" glyph-name="uni2086" horiz-adv-x="994" unicode="₆"/><glyph d="M160 553h561l-10 -72q-327 -352 -453 -788h-87q125 430 434 788h-455z" glyph-name="uni2087" horiz-adv-x="880" unicode="₇"/><glyph d="M716 -67q-11 -83 -68.5 -140.5t-132 -82t-157.5 -24.5q-81 0 -148 24.5t-108 82t-29 140.5q12 88 75 146.5t149 83.5q-60 23 -93.5 70.5t-24.5 115.5q14 100 101 155.5t202 55.5q75 0 132.5 -22.5t89.5 -71.5t23 -117q-9 -69 -56.5 -116.5t-114.5 -69.5 q80 -25 126.5 -83.5t33.5 -146.5zM258 347q-10 -72 43 -112.5t130 -40.5q78 0 142 40.5t74 112.5q9 71 -40.5 109.5t-133.5 38.5t-145 -38.5t-70 -109.5zM368.5 -248q96.5 0 172 46.5t89.5 136.5q12 87 -51 138.5t-157 51.5t-172 -51t-90 -139q-13 -90 49.5 -136.5 t159 -46.5z" glyph-name="uni2088" horiz-adv-x="963" unicode="₈"/><glyph d="M119 264q20 142 131.5 219t247.5 77q63 0 119 -18t100 -52.5t65.5 -93t11.5 -132.5q-7 -51 -18.5 -82t-53.5 -87t-103.5 -122t-191.5 -201q-49 -51 -76 -79h-103l302 313q-86 -36 -174 -31q-56 2 -105.5 20.5t-87.5 53t-55.5 90t-8.5 125.5zM488.5 495 q-103.5 0 -186.5 -61t-98 -170q-15 -111 51 -170t169 -59q101 0 185 62t100 167q14 110 -51.5 170.5t-169 60.5z" glyph-name="uni2089" horiz-adv-x="994" unicode="₉"/><glyph d="M1094 1343q-127 -2 -246.5 -51t-223 -154t-155.5 -252h771l-9 -72h-784q-11 -41 -19 -97q-6 -42 -8 -97h783l-10 -72h-771q7 -89 37 -164.5t77 -128t108.5 -90t130 -55.5t143.5 -20q196 -3 375 97l-15 -110q-177 -89 -375 -89q-117 0 -222.5 35t-189.5 103.5t-136.5 177 t-59.5 244.5h-136l10 72h125q4 63 9 97q7 47 19 97h-125l9 72h136q45 136 128.5 244.5t187 176.5t219 103.5t232.5 35.5q196 0 349 -89l-16 -110q-153 101 -348 96z" glyph-name="Euro" horiz-adv-x="1552" unicode="€"/><glyph d="M329 1434h1020l-13 -91h-1019zM1303 1106l-13 -90h-446l-144 -1016h-125l143 1016h-447l13 90h1019z" glyph-name="uni20B8" horiz-adv-x="1432" unicode="₸"/><glyph d="M1305 1434l-10 -71h-242q159 -105 137 -331h59l-10 -70h-60q-31 -137 -129.5 -226.5t-272.5 -137.5l284 -598h-127l-272 572q-184 -34 -458 -35l13 94q400 1 596 79t239 252h-789l10 70h791q13 146 -68.5 227t-234.5 81h-445l13 94h976z" glyph-name="uni20B9" horiz-adv-x="1388" unicode="₹"/><glyph d="M1202 732h110q-50 -355 -254 -543.5t-506 -188.5h-424l134 959l-209 -18l10 71l209 18l15 104l-208 -19l9 71l209 18l32 230h126l-31 -217l683 61l-10 -71l-683 -61l-15 -104l683 62l-10 -71l-683 -61l-122 -870h286q257 1 431 159t218 471z" glyph-name="uni20BA" horiz-adv-x="1446" unicode="₺"/><glyph d="M863 1240q255 -8 354.5 -139t59.5 -415l-97 -686h-125l98 702q31 222 -39.5 327.5t-263.5 113.5l-161 -1143h-71l160 1143q-196 -7 -295.5 -112.5t-130.5 -328.5l-98 -702h-126l97 686q40 284 175.5 415t392.5 139l26 194h72z" glyph-name="uni20BC" horiz-adv-x="1464" unicode="₼"/><glyph d="M1262 1065q-17 -122 -82.5 -207t-156.5 -122q110 -30 167.5 -120.5t36.5 -237.5q-13 -94 -56.5 -168.5t-105 -119t-133.5 -67.5t-149 -23h-16l-26 -179h-74l25 179h-289l-25 -179h-74l25 179h-201l201 1434h201l25 179h75l-25 -179h289l25 179h74l-24 -180q69 -4 126 -29 t99 -69t61 -113.5t7 -156.5zM813 763q80 0 145 26t116 93t66 171q20 150 -50 220t-195 70h-453l-82 -580h453zM1102 382q11 78 -4 136.5t-51 91t-84 48.5t-107 16h-508l-83 -585h508q81 -1 147.5 27.5t117.5 96.5t64 169z" glyph-name="uni20BF" horiz-adv-x="1397" unicode="₿"/><glyph d="M893 1312q-90 57 -222 54q-61 -1 -118 -21t-105.5 -59t-82 -102.5t-44.5 -145.5q-23 -160 53 -242t205 -84q128 -3 236 53l-10 -75q-104 -51 -241 -51q-58 0 -112 15t-100 47t-77 78t-44.5 112.5t-2.5 146.5q13 98 59 177t109.5 126.5t135 72t145.5 24.5q136 0 226 -50z M1469 1434h78l-966 -1434h-77zM1860 391q-11 -82 -43.5 -149.5t-77 -113t-100.5 -77t-113.5 -45.5t-114.5 -14q-74 0 -138.5 23.5t-115.5 69.5t-74.5 125.5t-9.5 180.5q13 98 59 177t109.5 126t135.5 72t145.5 25t138.5 -25t115.5 -72t73.5 -126t10 -177zM1420 63 q124 0 225 85t123 243q22 155 -55 241.5t-201 86.5q-123 0 -224 -86.5t-123 -241.5q-11 -81 5.5 -145.5t54.5 -103.5t87.5 -59t107.5 -20z" glyph-name="afii61248" horiz-adv-x="2042" unicode="℅"/><glyph d="M828 93q-141 -104 -275 -105q-147 -3 -208.5 78.5t-40.5 236.5l27 200q-82 -34 -186 -63l10 62q103 36 187 75l71 504q20 144 98.5 243.5t202.5 114.5q111 15 183 -42.5t76 -170.5q29 -378 -528 -688l-31 -221q-28 -242 174 -241q113 0 210 81zM456 617q209 126 327 275 t108 316q-5 78 -54.5 119.5t-123.5 26.5q-80 -16 -127.5 -92.5t-63.5 -185.5z" glyph-name="afii61289" horiz-adv-x="1058" unicode="ℓ"/><glyph d="M2604 945q-17 -127 -75 -227t-138.5 -158t-170 -88t-181.5 -30t-173 30t-145 88t-94 158t-11 227q14 99 54 183t96.5 142t126 98t142 59t145.5 19t140.5 -19t126 -59t98.5 -98t56.5 -142t2.5 -183zM1359 1434h125l-201 -1434h-138l-715 1256l-176 -1256h-126l201 1434 h138l716 -1254zM2050 525q74 0 145.5 26.5t134 76t107 132t58.5 185.5q14 100 -7 182t-68.5 133t-112 77.5t-139.5 26.5q-59 0 -117 -16.5t-112 -51t-98 -83.5t-75 -118t-43 -150q-14 -103 7.5 -185.5t69.5 -132.5t112 -76t138 -26zM1531 266h967l-12 -80h-966z" glyph-name="afii61352" horiz-adv-x="2756" unicode="№"/><glyph d="M819 -25q-214 0 -373.5 99t-233.5 268.5t-45 374.5q30 206 150.5 375.5t308 267.5t401.5 98q161 0 294 -57.5t219 -156.5t124.5 -236t16.5 -291q-29 -205 -150 -374.5t-309.5 -268.5t-402.5 -99zM830.5 48q194.5 0 363 87.5t276.5 240t134.5 341t-38.5 341t-209 240 t-339 87.5t-363 -87.5t-276.5 -240t-135 -341t39 -341t209.5 -240t338.5 -87.5zM1060 1127q121 0 186 -68.5t48 -181.5q-20 -143 -150 -208t-414 -66l-41 -296h-78l115 820h334zM1217 877q12 83 -33.5 135.5t-134.5 52.5h-253l-57 -400q244 1 353.5 51t124.5 161z" glyph-name="uni2117" horiz-adv-x="1804" unicode="℗"/><glyph d="M250 850q86 -71 222 -71q84 0 145.5 31.5t69.5 88.5q3 18 -1 34.5t-10.5 28.5t-23.5 23.5t-31 19.5t-42 18t-47 15.5t-55 17.5q-202 63 -180 197q13 89 86.5 145t194.5 56q112 0 198 -58l-10 -77q-84 69 -198 69q-87 0 -135 -38.5t-57 -98.5q-8 -52 40 -83.5t147 -60.5 q115 -33 165 -80.5t37 -131.5q-13 -88 -97.5 -135t-205.5 -47q-141 0 -224 55zM1649 1434h125l-101 -717h-80l88 623l-340 -528h-70l-193 528l-88 -623h-79l101 717h124l183 -528z" glyph-name="uni2120" horiz-adv-x="1849" unicode="℠"/><glyph d="M831 1434l-8 -66h-216l-92 -651h-79l92 651h-215l9 66h509zM1610 1434h124l-101 -717h-79l87 623l-339 -528h-71l-193 528l-87 -623h-80l101 717h125l182 -528z" glyph-name="trademark" horiz-adv-x="1810" unicode="™"/><glyph d="M464 645h207l-9 -72h-499l9 72h208l99 712q-101 -50 -178 -71l11 78q82 20 178 70h84zM1357 1434h78l-967 -1434h-78zM1603 241q-11 -83 -69 -141t-132.5 -82.5t-156.5 -24.5q-59 0 -113 15t-97 43.5t-64.5 77.5t-12.5 112q12 88 75.5 146t149.5 83q-59 23 -93 70.5 t-25 115.5q14 100 101 155.5t202 55.5q116 0 188 -55t58 -156q-10 -69 -57.5 -116t-113.5 -70q80 -25 126 -83t34 -146zM1144 654q-10 -72 43 -112.5t130 -40.5q78 0 142 41t74 112t-40 109.5t-134 38.5t-144.5 -38.5t-70.5 -109.5zM1255 59q95 0 171 47t90 137 q12 87 -51 138t-157 51q-60 0 -115.5 -21.5t-96.5 -65.5t-49 -102q-13 -90 49.5 -137t158.5 -47z" glyph-name="oneeighth" horiz-adv-x="1805" unicode="⅛"/><glyph d="M309 1434h571l-10 -72l-384 -312q51 9 108 6q120 -5 185.5 -70t49.5 -174q-38 -260 -352 -259q-184 2 -303 97l53 60q45 -40 117.5 -63.5t142.5 -21.5q119 1 182 47t77 141q12 90 -43.5 137t-164.5 47q-87 0 -153 -27l-24 72l403 320h-465zM1449 1434h79l-967 -1434h-78z M1734 241q-11 -83 -69 -141t-132.5 -82.5t-156.5 -24.5q-59 0 -112.5 15t-96.5 43.5t-64.5 77.5t-11.5 112q12 88 74.5 146t148.5 83q-59 23 -93 70.5t-24 115.5q14 100 100.5 155.5t201.5 55.5q116 0 188 -55t58 -156q-9 -69 -57 -116t-114 -70q80 -25 126.5 -83t33.5 -146 zM1276 654q-10 -72 42.5 -112.5t130.5 -40.5q77 0 141 41t75 112q9 71 -40.5 109.5t-133.5 38.5t-145 -38.5t-70 -109.5zM1386 59q95 0 171.5 47t90.5 137q11 87 -52 138t-157 51t-171.5 -51t-89.5 -138q-13 -90 49.5 -137t158.5 -47z" glyph-name="threeeighths" horiz-adv-x="1937" unicode="⅜"/><glyph d="M357 1434h500l-11 -72h-423l-65 -295q116 26 230 22q126 -5 190.5 -69.5t46.5 -185.5q-39 -269 -354 -268q-185 2 -297 91l48 63q44 -39 114.5 -61t143.5 -21q123 1 184.5 46.5t76.5 149.5q14 94 -44.5 143t-170.5 49q-98 0 -223 -27l-32 22zM1456 1434h78l-967 -1434 h-77zM1715 241q-11 -83 -69 -141t-132 -82.5t-156 -24.5q-59 0 -112.5 15t-96.5 43.5t-64.5 77.5t-12.5 112q12 88 74.5 146t148.5 83q-59 23 -93 70.5t-23 115.5q14 100 100.5 155.5t201.5 55.5q116 0 188 -55t57 -156q-9 -69 -56.5 -116t-114.5 -70q80 -25 126.5 -83 t33.5 -146zM1257 654q-10 -72 43 -112.5t131 -40.5q77 0 140.5 41t75.5 112q9 71 -41 109.5t-133.5 38.5t-145 -38.5t-70.5 -109.5zM1368 59q95 0 171.5 47t89.5 137q11 87 -52 138t-157 51t-171.5 -51t-89.5 -138q-13 -90 50 -137t159 -47z" glyph-name="fiveeighths" horiz-adv-x="1920" unicode="⅝"/><glyph d="M1205 1434h79l-968 -1434h-76zM284 1434h561l-10 -72q-327 -352 -453 -789h-87q125 430 434 789h-456zM1465 241q-11 -83 -69 -141t-132 -82.5t-156 -24.5q-59 0 -112.5 15t-96.5 43.5t-64.5 77.5t-12.5 112q12 88 74.5 146t149.5 83q-59 23 -93 70.5t-24 115.5 q14 100 100.5 155.5t201.5 55.5q116 0 188 -55t58 -156q-9 -69 -57 -116t-114 -70q80 -25 126 -83t33 -146zM1008 654q-10 -72 42.5 -112.5t130.5 -40.5q77 0 141 41t75 112q9 71 -40.5 109.5t-133.5 38.5t-145 -38.5t-70 -109.5zM1118 59q95 0 171.5 47t89.5 137 q11 87 -51.5 138t-157 51t-171.5 -51t-90 -138q-13 -90 50 -137t159 -47z" glyph-name="seveneighths" horiz-adv-x="1669" unicode="⅞"/><glyph d="M758 0l-530 717l530 717h132l-487 -658h1259v-118h-1259l486 -658h-131z" glyph-name="arrowleft" horiz-adv-x="1855" unicode="←"/><glyph d="M1689 904v-131l-658 487v-1260h-118v1260l-658 -487v131l717 530z" glyph-name="arrowup" horiz-adv-x="1864" unicode="↑"/><glyph d="M1142 0h-131l485 658h-1258v118h1258l-486 658h132l529 -717z" glyph-name="arrowright" horiz-adv-x="1855" unicode="→"/><glyph d="M1654 529l-717 -529l-717 529v131l659 -486v1260h117v-1260l658 486v-131z" glyph-name="arrowdown" horiz-adv-x="1864" unicode="↓"/><glyph d="M1756 1434l530 -717l-530 -717h-131l485 658h-1707l486 -658h-131l-530 717l530 717h132l-487 -658h1707l-486 658h132z" glyph-name="arrowboth" horiz-adv-x="2469" unicode="↔"/><glyph d="M1049 -155l657 486v-131l-717 -530l-717 530v132l659 -488v1540l-659 -487v132l717 530l717 -530v-131l-657 485v-1538z" glyph-name="arrowupdn" horiz-adv-x="1963" unicode="↕"/><glyph d="M1458 381l-83 -84l-949 955v-912l-97 80v1014h1013l81 -98h-915z" glyph-name="uni2196" horiz-adv-x="1694" unicode="↖"/><glyph d="M396 1434h1014v-1014l-97 -80v912l-949 -955l-83 84l950 955h-915z" glyph-name="uni2197" horiz-adv-x="1636" unicode="↗"/><glyph d="M1313 1094l97 -80v-1014h-1014l-80 97h916l-950 956l83 84l948 -954v911z" glyph-name="uni2198" horiz-adv-x="1694" unicode="↘"/><glyph d="M1400 1053l-950 -956h914l-80 -97h-1014v1014l98 80v-912l949 955z" glyph-name="uni2199" horiz-adv-x="1636" unicode="↙"/><glyph d="M730 1362q81 -4 153.5 -36t136 -93.5t103.5 -153.5t55.5 -218t-7.5 -287q-16 -121 -59 -220t-102 -165.5t-131 -112.5t-146 -66.5t-148.5 -20.5t-142.5 18t-128.5 57t-101.5 96.5t-58.5 142.5t-2.5 187q17 124 70.5 222.5t129.5 158.5t165 90.5t184 29.5q114 -2 210 -39 t152 -106q-10 108 -44 189t-85.5 132t-112.5 79t-133 38zM596 73q77 0 148.5 29t135 86.5t109 154t63.5 220.5q13 96 14 170q-44 86 -145 130.5t-233 44.5q-157 0 -274 -108t-146 -310q-14 -104 6.5 -186t68.5 -131.5t112.5 -74.5t140.5 -25z" glyph-name="partialdiff" horiz-adv-x="1329" unicode="∂"/><glyph d="M1343 1059l-135 -118q124 -163 94 -383q-23 -156 -117.5 -287t-237 -207t-297.5 -76q-220 0 -361 146l-144 -125l-44 50l145 126q-116 159 -86 373q23 156 117.5 287.5t236 207.5t297.5 76q212 0 353 -138l135 118zM240 558q-25 -178 71 -315l788 691q-120 115 -299 115 q-204 0 -367.5 -143.5t-192.5 -347.5zM1222 558q26 186 -79 326l-790 -693q122 -124 309 -123q204 0 367.5 143.5t192.5 346.5z" glyph-name="emptyset" horiz-adv-x="1461" unicode="∅"/><glyph d="M1373 1434l-232 -1654h-125l219 1556h-794l-219 -1556h-125l232 1654h1044z" glyph-name="product" horiz-adv-x="1457" unicode="∏"/><glyph d="M1187 -145l-15 -99h-1078l14 92l624 785l-405 784l13 93h1060l-15 -98h-908l394 -779l-612 -779z" glyph-name="summation" horiz-adv-x="1491" unicode="∑"/><glyph d="M1079 672h-857l14 90h856z" glyph-name="minus" horiz-adv-x="1269" unicode="−"/><glyph d="M1724 1434l-898 -1741h-136l-140 860h-344l13 96h425l131 -843l840 1628h109z" glyph-name="radical" horiz-adv-x="1808" unicode="√"/><glyph d="M1308 887q122 0 190 -92.5t47 -236.5q-19 -137 -113.5 -227.5t-214.5 -90.5q-177 0 -373 260q-265 -260 -445 -260q-121 0 -190 90.5t-49 227.5q19 144 113.5 236.5t216.5 92.5q91 0 181 -63.5t191 -198.5q138 135 246.5 198.5t199.5 63.5zM417 325q86 0 172 57.5 t213 177.5q-53 68 -85 104t-72.5 72.5t-78.5 51.5t-82 15q-85 0 -150.5 -70.5t-79.5 -174.5q-13 -98 30.5 -165.5t132.5 -67.5zM1222 325q89 0 153 67.5t77 165.5q14 102 -31.5 173.5t-131.5 71.5q-83 0 -162.5 -55t-222.5 -188q92 -120 162 -177.5t156 -57.5z" glyph-name="infinity" horiz-adv-x="1705" unicode="∞"/><glyph d="M734 1440q62 0 113 -18l-17 -62q-47 8 -96 3q-73 -2 -102 -41.5t-41 -127.5l-167 -1186q-17 -128 -81 -182.5t-178 -54.5q-68 2 -114 18l17 63q52 -9 96 -5q74 2 103 42t41 127l167 1186q17 129 81 183.5t178 54.5z" glyph-name="integral" horiz-adv-x="885" unicode="∫"/><glyph d="M241 806q12 91 67.5 146.5t132.5 55.5q40 0 79 -19t65 -42t60 -42t64 -19q36 0 65.5 34t36.5 80h84q-13 -90 -69.5 -145.5t-131.5 -55.5q-32 0 -68.5 19t-64 42t-62 42t-62.5 19q-43 -1 -73.5 -34t-37.5 -82zM191 451q11 91 66.5 146.5t133.5 55.5q40 0 79 -19.5t65 -42 t60 -42t63 -19.5q36 0 66 34.5t38 80.5h84q-13 -90 -70 -145.5t-132 -55.5q-32 0 -68.5 19t-64.5 42t-61.5 42t-61.5 19q-44 -1 -74.5 -34t-39.5 -82z" glyph-name="approxequal" horiz-adv-x="1039" unicode="≈"/><glyph d="M1103 843h-298l-220 -252h483l-13 -90h-548l-203 -233h-75l203 233h-233l12 90h299l220 252h-483l12 90h549l203 232h74l-202 -232h233z" glyph-name="notequal" horiz-adv-x="1269" unicode="≠"/><glyph d="M1153 987l-14 -99l-816 -222l753 -224l-13 -99l-851 252l13 99l6 42zM142 95l13 98h886l-13 -98h-886z" glyph-name="lessequal" horiz-adv-x="1299" unicode="≤"/><glyph d="M1118 736l-7 -50l-12 -91l-922 -252l13 99l817 224l-753 222l13 99zM142 95l15 98h885l-14 -98h-886z" glyph-name="greaterequal" horiz-adv-x="1300" unicode="≥"/><glyph d="M1046.5 -154q-177.5 0 -338.5 69.5t-277.5 185.5t-185.5 278t-69 339t69 338t185.5 277.5t277.5 185t338.5 68.5t338.5 -68.5t277.5 -185t185.5 -277.5t69 -338t-69 -339t-185.5 -278t-277.5 -185.5t-338.5 -69.5zM1047 -83q163 0 310.5 63t254.5 170t170.5 255.5 t63.5 312.5q0 163 -63.5 311t-170.5 255t-255 170t-310.5 63t-310.5 -63t-255 -170t-170 -255t-63 -311q0 -131 40.5 -253.5t114 -221t172 -172t220.5 -114t252 -40.5zM1089 358h207v-71h-498v71h207v712q-94 -50 -169 -71v78q82 22 169 70h84v-789z" glyph-name="uni2460" horiz-adv-x="2048" unicode="①"/><glyph d="M1046.5 -154q-177.5 0 -338.5 69.5t-277.5 185.5t-185.5 278t-69 339t69 338t185.5 277.5t277.5 185t338.5 68.5t338.5 -68.5t277.5 -185t185.5 -277.5t69 -338t-69 -339t-185.5 -278t-277.5 -185.5t-338.5 -69.5zM1047 -83q163 0 310.5 63t254.5 170t170.5 255.5 t63.5 312.5q0 163 -63.5 311t-170.5 255t-255 170t-310.5 63t-310.5 -63t-255 -170t-170 -255t-63 -311q0 -131 40.5 -253.5t114 -221t172 -172t220.5 -114t252 -40.5zM1361 348v-72h-636v72q42 36 133 108.5t149 121.5t123.5 112.5t99 118t33.5 101.5q0 83 -58.5 129 t-171.5 46q-136 0 -240 -78l-40 57q128 93 282 93q153 0 233.5 -64t81.5 -172q0 -47 -26 -100.5t-61 -98.5t-94 -102t-104 -95t-113.5 -93.5t-100.5 -83.5h510z" glyph-name="uni2461" horiz-adv-x="2048" unicode="②"/><glyph d="M1046.5 -154q-177.5 0 -338.5 69.5t-277.5 185.5t-185.5 278t-69 339t69 338t185.5 277.5t277.5 185t338.5 68.5t338.5 -68.5t277.5 -185t185.5 -277.5t69 -338t-69 -339t-185.5 -278t-277.5 -185.5t-338.5 -69.5zM1047 -83q163 0 310.5 63t254.5 170t170.5 255.5 t63.5 312.5q0 163 -63.5 311t-170.5 255t-255 170t-310.5 63t-310.5 -63t-255 -170t-170 -255t-63 -311q0 -131 40.5 -253.5t114 -221t172 -172t220.5 -114t252 -40.5zM752 1157h571v-72l-340 -312q50 9 106 6q121 -5 196 -70t75 -173q-2 -260 -316 -260q-183 2 -318 98 l45 59q51 -39 126.5 -62.5t145.5 -22.5q120 1 176.5 47.5t56.5 142.5q1 89 -62 136t-173 47q-87 0 -149 -28l-33 73l358 319h-465v72z" glyph-name="uni2462" horiz-adv-x="2048" unicode="③"/><glyph d="M1046.5 -154q-177.5 0 -338.5 69.5t-277.5 185.5t-185.5 278t-69 339t69 338t185.5 277.5t277.5 185t338.5 68.5t338.5 -68.5t277.5 -185t185.5 -277.5t69 -338t-69 -339t-185.5 -278t-277.5 -185.5t-338.5 -69.5zM1047 -83q163 0 310.5 63t254.5 170t170.5 255.5 t63.5 312.5q0 163 -63.5 311t-170.5 255t-255 170t-310.5 63t-310.5 -63t-255 -170t-170 -255t-63 -311q0 -131 40.5 -253.5t114 -221t172 -172t220.5 -114t252 -40.5zM1376 584v-71h-161v-226h-79v226h-425v71l412 563h92v-563h161zM800 584h336v470z" glyph-name="uni2463" horiz-adv-x="2048" unicode="④"/><glyph d="M1046.5 -154q-177.5 0 -338.5 69.5t-277.5 185.5t-185.5 278t-69 339t69 338t185.5 277.5t277.5 185t338.5 68.5t338.5 -68.5t277.5 -185t185.5 -277.5t69 -338t-69 -339t-185.5 -278t-277.5 -185.5t-338.5 -69.5zM1047 -83q163 0 310.5 63t254.5 170t170.5 255.5 t63.5 312.5q0 163 -63.5 311t-170.5 255t-255 170t-310.5 63t-310.5 -63t-255 -170t-170 -255t-63 -311q0 -131 40.5 -253.5t114 -221t172 -172t220.5 -114t252 -40.5zM804 1151h499v-72h-423l-24 -295q113 26 227 22q127 -5 200.5 -69.5t73.5 -186.5q-1 -267 -318 -267 q-184 2 -309 91l39 63q51 -39 124 -61.5t145 -21.5q123 1 178.5 46.5t56.5 150.5q0 94 -65.5 142.5t-177.5 48.5q-95 0 -220 -25l-35 20z" glyph-name="uni2464" horiz-adv-x="2048" unicode="⑤"/><glyph d="M1046.5 -154q-177.5 0 -338.5 69.5t-277.5 185.5t-185.5 278t-69 339t69 338t185.5 277.5t277.5 185t338.5 68.5t338.5 -68.5t277.5 -185t185.5 -277.5t69 -338t-69 -339t-185.5 -278t-277.5 -185.5t-338.5 -69.5zM1047 -83q163 0 310.5 63t254.5 170t170.5 255.5 t63.5 312.5q0 163 -63.5 311t-170.5 255t-255 170t-310.5 63t-310.5 -63t-255 -170t-170 -255t-63 -311q0 -131 40.5 -253.5t114 -221t172 -172t220.5 -114t252 -40.5zM1384 579q0 -73 -29.5 -131.5t-78.5 -93.5t-107.5 -52.5t-121.5 -17.5q-62 0 -121.5 17.5t-108 52.5 t-78 93.5t-29.5 131.5q0 95 43.5 165.5t258.5 332.5q39 47 59 73h104l-259 -313q81 37 169 31q57 -2 109.5 -21t95.5 -53t68.5 -89.5t25.5 -125.5zM1046.5 348q103.5 0 178 61t74.5 170q0 57 -21.5 102t-57.5 72t-80.5 41.5t-92.5 14.5q-101 0 -176.5 -62.5t-75.5 -167.5 q1 -109 74.5 -170t177 -61z" glyph-name="uni2465" horiz-adv-x="2048" unicode="⑥"/><glyph d="M1046.5 -154q-177.5 0 -338.5 69.5t-277.5 185.5t-185.5 278t-69 339t69 338t185.5 277.5t277.5 185t338.5 68.5t338.5 -68.5t277.5 -185t185.5 -277.5t69 -338t-69 -339t-185.5 -278t-277.5 -185.5t-338.5 -69.5zM1047 -83q163 0 310.5 63t254.5 170t170.5 255.5 t63.5 312.5q0 163 -63.5 311t-170.5 255t-255 170t-310.5 63t-310.5 -63t-255 -170t-170 -255t-63 -311q0 -131 40.5 -253.5t114 -221t172 -172t220.5 -114t252 -40.5zM766 1095h560v-72q-274 -349 -341 -789h-87q65 431 324 789h-456v72z" glyph-name="uni2466" horiz-adv-x="2048" unicode="⑦"/><glyph d="M1046.5 -154q-177.5 0 -338.5 69.5t-277.5 185.5t-185.5 278t-69 339t69 338t185.5 277.5t277.5 185t338.5 68.5t338.5 -68.5t277.5 -185t185.5 -277.5t69 -338t-69 -339t-185.5 -278t-277.5 -185.5t-338.5 -69.5zM1047 -83q163 0 310.5 63t254.5 170t170.5 255.5 t63.5 312.5q0 163 -63.5 311t-170.5 255t-255 170t-310.5 63t-310.5 -63t-255 -170t-170 -255t-63 -311q0 -131 40.5 -253.5t114 -221t172 -172t220.5 -114t252 -40.5zM1365 527q0 -83 -49.5 -140.5t-120 -82t-152 -24.5t-152.5 24.5t-120.5 82t-49.5 140.5q0 88 54.5 146.5 t137.5 83.5q-63 23 -103.5 70t-40.5 116q0 100 79.5 155.5t195 55.5t194.5 -55t79 -156q1 -69 -40 -116.5t-105 -69.5q83 -25 138 -83.5t55 -146.5zM849 941q0 -72 58.5 -112.5t135.5 -40.5t136 40.5t59 112.5t-55.5 110.5t-139.5 38.5t-139 -38.5t-55 -110.5zM1043 346 q95 0 165 47t70 136q0 87 -70 138.5t-164.5 51.5t-165 -51.5t-70.5 -138.5q0 -60 35.5 -103t87.5 -61.5t112 -18.5z" glyph-name="uni2467" horiz-adv-x="2048" unicode="⑧"/><glyph d="M1046.5 -154q-177.5 0 -338.5 69.5t-277.5 185.5t-185.5 278t-69 339t69 338t185.5 277.5t277.5 185t338.5 68.5t338.5 -68.5t277.5 -185t185.5 -277.5t69 -338t-69 -339t-185.5 -278t-277.5 -185.5t-338.5 -69.5zM1047 -83q163 0 310.5 63t254.5 170t170.5 255.5 t63.5 312.5q0 163 -63.5 311t-170.5 255t-255 170t-310.5 63t-310.5 -63t-255 -170t-170 -255t-63 -311q0 -131 40.5 -253.5t114 -221t172 -172t220.5 -114t252 -40.5zM710 855q0 73 29.5 131t78 93t107.5 53t122 18t121.5 -18t107.5 -53t78.5 -93t29.5 -131q0 -52 -7 -84.5 t-39 -85t-87.5 -122t-160.5 -198.5q-43 -52 -67 -81h-104l259 313q-81 -37 -170 -32q-122 5 -210 80t-88 210zM1047 1085q-102 0 -177 -60.5t-75 -169.5q0 -112 74 -171t178 -59q101 0 176.5 62.5t75.5 167.5q-1 109 -75 169.5t-177 60.5z" glyph-name="uni2468" horiz-adv-x="2048" unicode="⑨"/><glyph d="M1046.5 -154q-177.5 0 -338.5 69.5t-277.5 185.5t-185.5 278t-69 339t69 338t185.5 277.5t277.5 185t338.5 68.5t338.5 -68.5t277.5 -185t185.5 -277.5t69 -338t-69 -339t-185.5 -278t-277.5 -185.5t-338.5 -69.5zM1047 -83q163 0 310.5 63t254.5 170t170.5 255.5 t63.5 312.5q0 163 -63.5 311t-170.5 255t-255 170t-310.5 63t-310.5 -63t-255 -170t-170 -255t-63 -311q0 -131 40.5 -253.5t114 -221t172 -172t220.5 -114t252 -40.5zM1367 717q0 -216 -86.5 -326.5t-238.5 -110.5q-151 0 -236.5 110.5t-85.5 326.5q0 215 86 326t236 111 q152 0 238.5 -111t86.5 -326zM1043.5 350q114.5 0 176.5 94.5t62 272.5t-62 272t-176.5 94t-176.5 -94t-62 -272t62 -272.5t176.5 -94.5z" glyph-name="uni24EA" horiz-adv-x="2048" unicode="⓪"/><glyph d="M1005 -112q-169 0 -323 65.5t-265 176.5t-176.5 265t-65.5 323q0 225 111 415.5t302 301t417 110.5q169 0 322 -65.5t264 -176t176.5 -263.5t65.5 -322t-65.5 -323t-176.5 -265t-264 -176.5t-322 -65.5zM1328 717q0 215 -86 326t-238 111q-151 0 -237 -111t-86 -326 q0 -216 86 -326.5t237 -110.5q152 0 238 110.5t86 326.5zM1004 350q-115 0 -177 94t-62 273q0 178 62 272t177 94q116 0 178 -94t62 -272t-62 -272.5t-178 -94.5z" glyph-name="uni24FF" horiz-adv-x="1964" unicode="⓿"/><glyph d="M336 1485h1536v-1536h-1536v1536z" glyph-name="filledbox" horiz-adv-x="2164" unicode="■"/><glyph d="M329 1434h1433v-1434h-1433v1434zM400 1363v-1292h1292v1292h-1292z" glyph-name="H22073" horiz-adv-x="2048" unicode="□"/><glyph d="M1300 717l-567 -717h-138l-367 717l568 717h138zM1182 717l-329 633l-505 -633l328 -634z" glyph-name="lozenge" horiz-adv-x="1484" unicode="◊"/><glyph d="M1046.5 -154q-177.5 0 -338.5 69.5t-277.5 185.5t-185.5 278t-69 339t69 338t185.5 277.5t277.5 185t338.5 68.5t338.5 -68.5t277.5 -185t185.5 -277.5t69 -338t-69 -339t-185.5 -278t-277.5 -185.5t-338.5 -69.5zM1047 -83q163 0 310.5 63t254.5 170t170.5 255.5 t63.5 312.5q0 163 -63.5 311t-170.5 255t-255 170t-310.5 63t-310.5 -63t-255 -170t-170 -255t-63 -311q0 -131 40.5 -253.5t114 -221t172 -172t220.5 -114t252 -40.5z" glyph-name="circle" horiz-adv-x="2048" unicode="○"/><glyph d="M1005 -112q-135 0 -262 41.5t-228.5 118.5t-178.5 179t-119 229t-42 262q0 169 65.5 322t176.5 263.5t265 176t323 65.5t322 -65.5t264 -176t176.5 -263.5t65.5 -322t-65.5 -323t-176.5 -265t-264 -176.5t-322 -65.5z" glyph-name="H18533" horiz-adv-x="1964" unicode="●"/><glyph d="M1046.5 -154q-177.5 0 -338.5 69t-278 185.5t-185.5 278t-68.5 339.5q0 142 44 274.5t124.5 239.5t187.5 187.5t239.5 124t275 43.5t275 -43.5t239.5 -124t187.5 -187.5t124.5 -239.5t44 -274.5q0 -178 -68.5 -339.5t-185.5 -278t-278 -185.5t-338.5 -69zM1089 358v789 h-84q-87 -48 -169 -70v-78q75 20 169 71v-712h-207v-71h498v71h-207z" glyph-name="uni2776" horiz-adv-x="2048" unicode="❶"/><glyph d="M1046.5 -154q-177.5 0 -338.5 69t-278 185.5t-185.5 278t-68.5 339.5q0 142 44 274.5t124.5 239.5t187.5 187.5t239.5 124t275 43.5t275 -43.5t239.5 -124t187.5 -187.5t124.5 -239.5t44 -274.5q0 -178 -68.5 -339.5t-185.5 -278t-278 -185.5t-338.5 -69zM1365 348h-510 q32 28 100.5 83.5t113.5 93.5t104 95t94.5 102t61 98t25.5 101q-1 109 -81.5 172.5t-233.5 63.5q-157 0 -282 -93l40 -57q104 79 240 78q113 0 171.5 -46.5t58.5 -128.5q0 -47 -33.5 -101.5t-99 -118t-123.5 -112.5t-149 -121.5t-133 -108.5v-72h636v72z" glyph-name="uni2777" horiz-adv-x="2048" unicode="❷"/><glyph d="M1046.5 -154q-177.5 0 -338.5 69t-278 185.5t-185.5 278t-68.5 339.5q0 142 44 274.5t124.5 239.5t187.5 187.5t239.5 124t275 43.5t275 -43.5t239.5 -124t187.5 -187.5t124.5 -239.5t44 -274.5q0 -178 -68.5 -339.5t-185.5 -278t-278 -185.5t-338.5 -69zM756 1157v-72 h465l-358 -319l33 -73q62 28 148 28q111 0 173.5 -46.5t62.5 -136.5q-1 -96 -57.5 -142.5t-174.5 -47.5q-71 -1 -146.5 22.5t-126.5 62.5l-45 -59q135 -95 318 -98q158 -1 236.5 66t78.5 194q1 109 -74 173.5t-196 69.5q-57 3 -106 -6l339 312v72h-570z" glyph-name="uni2778" horiz-adv-x="2048" unicode="❸"/><glyph d="M1046.5 -154q-177.5 0 -338.5 69t-278 185.5t-185.5 278t-68.5 339.5q0 142 44 274.5t124.5 239.5t187.5 187.5t239.5 124t275 43.5t275 -43.5t239.5 -124t187.5 -187.5t124.5 -239.5t44 -274.5q0 -178 -68.5 -339.5t-185.5 -278t-278 -185.5t-338.5 -69zM1379 584h-160 v563h-92l-413 -563v-71h426v-226h79v226h160v71zM803 584l337 470v-470h-337z" glyph-name="uni2779" horiz-adv-x="2048" unicode="❹"/><glyph d="M1046.5 -154q-177.5 0 -338.5 69t-278 185.5t-185.5 278t-68.5 339.5q0 142 44 274.5t124.5 239.5t187.5 187.5t239.5 124t275 43.5t275 -43.5t239.5 -124t187.5 -187.5t124.5 -239.5t44 -274.5q0 -178 -68.5 -339.5t-185.5 -278t-278 -185.5t-338.5 -69zM808 1151 l-29 -414l35 -20q125 26 220 25q112 0 177.5 -48.5t64.5 -142.5q0 -104 -55.5 -150t-178.5 -47q-73 -1 -146 21.5t-123 61.5l-40 -63q126 -89 309 -91q317 0 318 267q1 123 -73 187t-201 69q-115 4 -226 -22l23 295h424v72h-499z" glyph-name="uni277A" horiz-adv-x="2048" unicode="❺"/><glyph d="M1046.5 -154q-177.5 0 -338.5 69t-278 185.5t-185.5 278t-68.5 339.5q0 142 44 274.5t124.5 239.5t187.5 187.5t239.5 124t275 43.5t275 -43.5t239.5 -124t187.5 -187.5t124.5 -239.5t44 -274.5q0 -178 -68.5 -339.5t-185.5 -278t-278 -185.5t-338.5 -69zM1384 579 q0 70 -25.5 125.5t-68.5 89.5t-95 53t-110 21q-88 5 -169 -31l259 313h-104q-20 -26 -59 -73q-215 -262 -258.5 -332.5t-43.5 -165.5q0 -73 29.5 -131.5t78 -93.5t107.5 -52.5t122 -17.5t121.5 17.5t107.5 52.5t78.5 93.5t29.5 131.5zM1046.5 348q-103.5 0 -177 61 t-74.5 170q0 105 75 167.5t177 62.5q48 0 92.5 -14.5t80.5 -41.5t57.5 -72t21.5 -102q0 -109 -74.5 -170t-178 -61z" glyph-name="uni277B" horiz-adv-x="2048" unicode="❻"/><glyph d="M1046.5 -154q-177.5 0 -338.5 69t-278 185.5t-185.5 278t-68.5 339.5q0 142 44 274.5t124.5 239.5t187.5 187.5t239.5 124t275 43.5t275 -43.5t239.5 -124t187.5 -187.5t124.5 -239.5t44 -274.5q0 -178 -68.5 -339.5t-185.5 -278t-278 -185.5t-338.5 -69zM769 1147v-72 h456q-259 -361 -323 -788h87q65 437 341 788v72h-561z" glyph-name="uni277C" horiz-adv-x="2048" unicode="❼"/><glyph d="M1046.5 -154q-177.5 0 -338.5 69t-278 185.5t-185.5 278t-68.5 339.5q0 142 44 274.5t124.5 239.5t187.5 187.5t239.5 124t275 43.5t275 -43.5t239.5 -124t187.5 -187.5t124.5 -239.5t44 -274.5q0 -178 -68.5 -339.5t-185.5 -278t-278 -185.5t-338.5 -69zM1369 527 q0 88 -54.5 146.5t-137.5 83.5q63 23 103.5 70t39.5 116q0 101 -79 156t-194.5 55t-195 -55.5t-79.5 -155.5q0 -69 40.5 -116.5t103.5 -69.5q-83 -25 -137 -83.5t-54 -146.5q0 -83 49.5 -140.5t120 -82t152 -24.5t152.5 24.5t120.5 82t49.5 140.5zM852 941q0 72 55.5 110.5 t139 38.5t139 -38.5t55.5 -110.5t-58.5 -112.5t-135.5 -40.5t-136 40.5t-59 112.5zM1047 346q-60 0 -112 18.5t-87.5 61.5t-35.5 103q0 87 70 138.5t164.5 51.5t164.5 -51.5t70 -138.5q0 -89 -69.5 -136t-164.5 -47z" glyph-name="uni277D" horiz-adv-x="2048" unicode="❽"/><glyph d="M1046.5 -154q-177.5 0 -338.5 69t-278 185.5t-185.5 278t-68.5 339.5q0 142 44 274.5t124.5 239.5t187.5 187.5t239.5 124t275 43.5t275 -43.5t239.5 -124t187.5 -187.5t124.5 -239.5t44 -274.5q0 -178 -68.5 -339.5t-185.5 -278t-278 -185.5t-338.5 -69zM710 855 q0 -135 88 -210t210 -80q89 -5 170 32l-259 -313h104q24 29 67 81q105 129 160.5 198.5t87.5 122t39 85t7 84.5q0 73 -29.5 131t-78.5 93t-107.5 53t-121.5 18q-62 0 -121.5 -18t-108 -53t-78 -93t-29.5 -131zM1047 1085q103 0 177 -60.5t75 -169.5q0 -105 -75.5 -167.5 t-176.5 -62.5q-103 0 -177.5 59t-74.5 171q0 109 75 169.5t177 60.5z" glyph-name="uni277E" horiz-adv-x="2048" unicode="❾"/><glyph d="M302 1386h143l-17 -124h-143zM278 1117h117l-156 -1117h-118z" glyph-name="i.aalt" horiz-adv-x="516"/><glyph d="M1228 1117h101l-157 -1117h-100l32 259q-58 -96 -143 -159t-171.5 -87.5t-181.5 -24.5q-83 0 -155.5 21t-134.5 64.5t-102.5 111t-57.5 160.5t2 214q20 142 80 254t144.5 179.5t182.5 102t202 34.5q147 0 261.5 -66t157.5 -202zM633 76q82 0 157.5 25t143.5 76t118 138.5 t70 203.5l11 79q10 110 -15.5 196.5t-78.5 139t-122 80t-149 27.5q-85 0 -166 -30.5t-149 -89.5t-116 -152t-65 -210q-16 -120 6 -214.5t74 -152t124 -87t157 -29.5z" glyph-name="a.salt" horiz-adv-x="1449"/><glyph d="M1186 1569l-310 -307h-104l292 307h122zM1228 1117h101l-157 -1117h-100l32 259q-58 -96 -143 -159t-171.5 -87.5t-181.5 -24.5q-83 0 -155.5 21t-134.5 64.5t-102.5 111t-57.5 160.5t2 214q20 142 80 254t144.5 179.5t182.5 102t202 34.5q147 0 261.5 -66t157.5 -202z M633 76q82 0 157.5 25t143.5 76t118 138.5t70 203.5l11 79q10 110 -15.5 196.5t-78.5 139t-122 80t-149 27.5q-85 0 -166 -30.5t-149 -89.5t-116 -152t-65 -210q-16 -120 6 -214.5t74 -152t124 -87t157 -29.5z" glyph-name="aacute.aalt" horiz-adv-x="1449"/><glyph d="M1103 1493q-20 -98 -99.5 -164.5t-180.5 -66.5q-99 0 -160 66.5t-53 164.5h82q-8 -68 33 -114t110 -46q67 0 121 46.5t65 113.5h82zM1228 1117h101l-157 -1117h-100l32 259q-58 -96 -143 -159t-171.5 -87.5t-181.5 -24.5q-83 0 -155.5 21t-134.5 64.5t-102.5 111 t-57.5 160.5t2 214q20 142 80 254t144.5 179.5t182.5 102t202 34.5q147 0 261.5 -66t157.5 -202zM633 76q82 0 157.5 25t143.5 76t118 138.5t70 203.5l11 79q10 110 -15.5 196.5t-78.5 139t-122 80t-149 27.5q-85 0 -166 -30.5t-149 -89.5t-116 -152t-65 -210 q-16 -120 6 -214.5t74 -152t124 -87t157 -29.5z" glyph-name="abreve.aalt" horiz-adv-x="1449"/><glyph d="M1049 1569h103l-259 -307h-139l-172 307h103l145 -260zM1228 1117h101l-157 -1117h-100l32 259q-58 -96 -143 -159t-171.5 -87.5t-181.5 -24.5q-83 0 -155.5 21t-134.5 64.5t-102.5 111t-57.5 160.5t2 214q20 142 80 254t144.5 179.5t182.5 102t202 34.5q147 0 261.5 -66 t157.5 -202zM633 76q82 0 157.5 25t143.5 76t118 138.5t70 203.5l11 79q10 110 -15.5 196.5t-78.5 139t-122 80t-149 27.5q-85 0 -166 -30.5t-149 -89.5t-116 -152t-65 -210q-16 -120 6 -214.5t74 -152t124 -87t157 -29.5z" glyph-name="uni01CE.aalt" horiz-adv-x="1449"/><glyph d="M1108 1262h-103l-145 260l-219 -260h-103l259 307h139zM1228 1117h101l-157 -1117h-100l32 259q-58 -96 -143 -159t-171.5 -87.5t-181.5 -24.5q-83 0 -155.5 21t-134.5 64.5t-102.5 111t-57.5 160.5t2 214q20 142 80 254t144.5 179.5t182.5 102t202 34.5q147 0 261.5 -66 t157.5 -202zM633 76q82 0 157.5 25t143.5 76t118 138.5t70 203.5l11 79q10 110 -15.5 196.5t-78.5 139t-122 80t-149 27.5q-85 0 -166 -30.5t-149 -89.5t-116 -152t-65 -210q-16 -120 6 -214.5t74 -152t124 -87t157 -29.5z" glyph-name="acircumflex.aalt" horiz-adv-x="1449"/><glyph d="M591 1386h143l-17 -124h-144zM947 1386h143l-18 -124h-143zM1228 1117h101l-157 -1117h-100l32 259q-58 -96 -143 -159t-171.5 -87.5t-181.5 -24.5q-83 0 -155.5 21t-134.5 64.5t-102.5 111t-57.5 160.5t2 214q20 142 80 254t144.5 179.5t182.5 102t202 34.5 q147 0 261.5 -66t157.5 -202zM633 76q82 0 157.5 25t143.5 76t118 138.5t70 203.5l11 79q10 110 -15.5 196.5t-78.5 139t-122 80t-149 27.5q-85 0 -166 -30.5t-149 -89.5t-116 -152t-65 -210q-16 -120 6 -214.5t74 -152t124 -87t157 -29.5z" glyph-name="adieresis.aalt" horiz-adv-x="1449"/><glyph d="M1228 1117h101l-157 -1117h-100l32 259q-58 -96 -143 -159t-171.5 -87.5t-181.5 -24.5q-83 0 -155.5 21t-134.5 64.5t-102.5 111t-57.5 160.5t2 214q20 142 80 254t144.5 179.5t182.5 102t202 34.5q147 0 261.5 -66t157.5 -202zM633 76q82 0 157.5 25t143.5 76t118 138.5 t70 203.5l11 79q10 110 -15.5 196.5t-78.5 139t-122 80t-149 27.5q-85 0 -166 -30.5t-149 -89.5t-116 -152t-65 -210q-16 -120 6 -214.5t74 -152t124 -87t157 -29.5zM543 -228h143l-17 -124h-144z" glyph-name="uni1EA1.aalt" horiz-adv-x="1449"/><glyph d="M550 1569h122l204 -307h-104zM1228 1117h101l-157 -1117h-100l32 259q-58 -96 -143 -159t-171.5 -87.5t-181.5 -24.5q-83 0 -155.5 21t-134.5 64.5t-102.5 111t-57.5 160.5t2 214q20 142 80 254t144.5 179.5t182.5 102t202 34.5q147 0 261.5 -66t157.5 -202zM633 76 q82 0 157.5 25t143.5 76t118 138.5t70 203.5l11 79q10 110 -15.5 196.5t-78.5 139t-122 80t-149 27.5q-85 0 -166 -30.5t-149 -89.5t-116 -152t-65 -210q-16 -120 6 -214.5t74 -152t124 -87t157 -29.5z" glyph-name="agrave.aalt" horiz-adv-x="1449"/><glyph d="M590 1341h489l-11 -79h-489zM1228 1117h101l-157 -1117h-100l32 259q-58 -96 -143 -159t-171.5 -87.5t-181.5 -24.5q-83 0 -155.5 21t-134.5 64.5t-102.5 111t-57.5 160.5t2 214q20 142 80 254t144.5 179.5t182.5 102t202 34.5q147 0 261.5 -66t157.5 -202zM633 76 q82 0 157.5 25t143.5 76t118 138.5t70 203.5l11 79q10 110 -15.5 196.5t-78.5 139t-122 80t-149 27.5q-85 0 -166 -30.5t-149 -89.5t-116 -152t-65 -210q-16 -120 6 -214.5t74 -152t124 -87t157 -29.5z" glyph-name="amacron.aalt" horiz-adv-x="1449"/><glyph d="M999 -141q-1 -42 52 -59.5t126 -0.5l-2 -61q-111 -30 -189 1.5t-72 102.5q8 119 167 158h-9l32 259q-58 -96 -143 -159t-171.5 -87.5t-181.5 -24.5q-83 0 -155.5 21t-134.5 64.5t-102.5 111t-57.5 160.5t2 214q20 142 80 254t144.5 179.5t182.5 102t202 34.5 q147 0 261.5 -66t157.5 -202l40 256h101l-157 -1117h-12q-159 -50 -161 -141zM633 76q82 0 157.5 25t143.5 76t118 138.5t70 203.5l11 79q10 110 -15.5 196.5t-78.5 139t-122 80t-149 27.5q-85 0 -166 -30.5t-149 -89.5t-116 -152t-65 -210q-16 -120 6 -214.5t74 -152 t124 -87t157 -29.5z" glyph-name="aogonek.aalt" horiz-adv-x="1449"/><glyph d="M823 1262q-77 0 -123.5 54t-34.5 131q10 76 72 130.5t139 54.5q76 0 123 -54.5t36 -130.5q-11 -77 -73.5 -131t-138.5 -54zM833.5 1332q47.5 0 85.5 34t46 81q6 47 -23 81t-76 34t-86 -34t-45 -81q-7 -47 22 -81t76.5 -34zM1228 1117h101l-157 -1117h-100l32 259 q-58 -96 -143 -159t-171.5 -87.5t-181.5 -24.5q-83 0 -155.5 21t-134.5 64.5t-102.5 111t-57.5 160.5t2 214q20 142 80 254t144.5 179.5t182.5 102t202 34.5q147 0 261.5 -66t157.5 -202zM633 76q82 0 157.5 25t143.5 76t118 138.5t70 203.5l11 79q10 110 -15.5 196.5 t-78.5 139t-122 80t-149 27.5q-85 0 -166 -30.5t-149 -89.5t-116 -152t-65 -210q-16 -120 6 -214.5t74 -152t124 -87t157 -29.5z" glyph-name="aring.aalt" horiz-adv-x="1449"/><glyph d="M532 1263q9 82 60.5 134t124.5 52q38 0 75 -18.5t62 -41t56.5 -41t60.5 -18.5q35 0 63.5 34t35.5 78h74q-12 -83 -65 -135t-123 -52q-31 0 -65.5 18.5t-60 41t-58 40.5t-58.5 18q-42 0 -72.5 -32t-37.5 -79zM1228 1117h101l-157 -1117h-100l32 259q-58 -96 -143 -159 t-171.5 -87.5t-181.5 -24.5q-83 0 -155.5 21t-134.5 64.5t-102.5 111t-57.5 160.5t2 214q20 142 80 254t144.5 179.5t182.5 102t202 34.5q147 0 261.5 -66t157.5 -202zM633 76q82 0 157.5 25t143.5 76t118 138.5t70 203.5l11 79q10 110 -15.5 196.5t-78.5 139t-122 80 t-149 27.5q-85 0 -166 -30.5t-149 -89.5t-116 -152t-65 -210q-16 -120 6 -214.5t74 -152t124 -87t157 -29.5z" glyph-name="atilde.aalt" horiz-adv-x="1449"/><glyph d="M479 0h-164q-87 0 -128.5 61.5t-26.5 163.5l184 1311h118l-181 -1286q-10 -75 19 -119.5t87 -44.5h105z" glyph-name="l.aalt" horiz-adv-x="717"/><glyph d="M880 1988l-311 -308h-103l292 308h122zM479 0h-164q-87 0 -128.5 61.5t-26.5 163.5l184 1311h118l-181 -1286q-10 -75 19 -119.5t87 -44.5h105z" glyph-name="lacute.aalt" horiz-adv-x="717"/><glyph d="M472 0h-164q-88 0 -129.5 61.5t-26.5 163.5l185 1311h118l-182 -1286q-10 -75 19.5 -119.5t86.5 -44.5h105zM637 1424h126l-151 -454h-100z" glyph-name="lcaron.aalt" horiz-adv-x="848"/><glyph d="M479 0h-164q-87 0 -128.5 61.5t-26.5 163.5l184 1311h118l-181 -1286q-10 -75 19 -119.5t87 -44.5h105zM261 -100h120l-144 -434h-96z" glyph-name="lcommaaccent.aalt" horiz-adv-x="717"/><glyph d="M479 0h-164q-87 0 -128.5 61.5t-26.5 163.5l184 1311h118l-181 -1286q-10 -75 19 -119.5t87 -44.5h105zM177 -228h144l-18 -124h-143z" glyph-name="uni1E37.aalt" horiz-adv-x="717"/><glyph d="M350 745l-69 -495q-10 -75 19 -119.5t87 -44.5h105l-13 -86h-164q-87 0 -128.5 61.5t-26.5 163.5l69 494l-126 -27l10 68l126 26l105 750h118l-103 -723l232 49l-9 -67z" glyph-name="lslash.aalt" horiz-adv-x="717"/><glyph d="M1078 1117h125l-836 -1527h-117l258 477h-54l-268 1050h125l238 -976z" glyph-name="y.aalt" horiz-adv-x="1232"/><glyph d="M1077 1569l-310 -307h-103l291 307h122zM1078 1117h125l-836 -1527h-117l258 477h-54l-268 1050h125l238 -976z" glyph-name="yacute.aalt" horiz-adv-x="1232"/><glyph d="M752 1522l-220 -260h-103l259 307h139l172 -307h-103zM1078 1117h125l-836 -1527h-117l258 477h-54l-268 1050h125l238 -976z" glyph-name="ycircumflex.aalt" horiz-adv-x="1232"/><glyph d="M626 1386l-18 -124h-143l17 124h144zM981 1386l-17 -124h-144l19 124h142zM1078 1117h125l-836 -1527h-117l258 477h-54l-268 1050h125l238 -976z" glyph-name="ydieresis.aalt" horiz-adv-x="1232"/><glyph d="M1078 1117h125l-836 -1527h-117l258 477h-54l-268 1050h125l238 -976zM862 -326l19 135h155l-18 -135h-156z" glyph-name="uni1EF5.aalt" horiz-adv-x="1247"/><glyph d="M767 1262h-103l-223 307h122zM1078 1117h125l-836 -1527h-117l258 477h-54l-268 1050h125l238 -976z" glyph-name="ygrave.aalt" horiz-adv-x="1232"/><glyph d="M604 1373q-42 0 -72 -32t-37 -79l-72 1q9 82 60.5 134t123.5 52q38 0 75.5 -18.5t62 -41t56.5 -41t60 -18.5q35 0 63.5 34t36.5 78h73q-12 -83 -65 -135t-122 -52q-31 0 -66 18.5t-60.5 41t-57.5 40.5t-59 18zM1078 1117h125l-836 -1527h-117l258 477h-54l-268 1050h125 l238 -976z" glyph-name="uni1EF9.aalt" horiz-adv-x="1232"/><glyph d="M2214 1434l-13 -98h-448l-187 -1336h-125l187 1336h-894l-188 -1336h-125l187 1336h-446l13 98h2039z" glyph-name="T_T.dlig" horiz-adv-x="2143"/><glyph d="M1451 1027l-111 -777q-10 -75 19.5 -119.5t87.5 -44.5h203l-12 -86h-262q-88 0 -129.5 61.5t-26.5 163.5l113 802h-811l-144 -1027h-118l144 1027h-178l13 90h178l27 194q13 98 71 161.5t140 63.5h222l-13 -86h-162q-57 0 -95 -44t-49 -120l-23 -169h810l31 221h118 l-32 -221h333l-12 -90h-332z" glyph-name="f_t.dlig" horiz-adv-x="1915"/><glyph d="M1293 1434h164l-14 -105h-164zM1391 1117l-13 -90l-144 -1027h-118l145 1027h-739l-109 -777q-10 -75 19 -119.5t87 -44.5h203l-11 -86h-264q-87 0 -128 61.5t-27 163.5l112 802h-178l13 90h178l30 221h118l-30 -221h856z" glyph-name="t_i.dlig" horiz-adv-x="1518"/><glyph d="M1510 1027l-109 -777q-10 -75 18.5 -119.5t86.5 -44.5h204l-12 -86h-262q-88 0 -129.5 61.5t-27.5 163.5l114 802h-871l-109 -777q-10 -75 19 -119.5t87 -44.5h203l-11 -86h-264q-87 0 -128 61.5t-27 163.5l112 802h-178l13 90h178l30 221h118l-30 -221h870l31 221h117 l-30 -221h331l-12 -90h-332z" glyph-name="t_t.dlig" horiz-adv-x="1975"/><glyph d="M2281 1434h164l-15 -105h-164zM2378 1117l-157 -1117h-118l145 1027h-738l-109 -777q-10 -75 18.5 -119.5t86.5 -44.5h204l-12 -86h-262q-88 0 -129.5 61.5t-27.5 163.5l114 802h-871l-109 -777q-10 -75 19 -119.5t87 -44.5h203l-11 -86h-264q-87 0 -128 61.5t-27 163.5 l112 802h-178l13 90h178l30 221h118l-30 -221h870l31 221h117l-30 -221h855z" glyph-name="t_t_i.dlig" horiz-adv-x="2505"/><glyph d="M1315 86h104l-11 -86h-164q-88 0 -129.5 61.5t-27.5 163.5l174 1225h-559q-57 0 -95 -44t-49 -120l-23 -169h282l-12 -90h-283l-144 -1027h-118l144 1027h-178l13 90h178l27 194q13 98 71 161.5t140 63.5h736l-182 -1286q-10 -75 19 -119.5t87 -44.5z" glyph-name="uniFB02.aalt" horiz-adv-x="1645"/><glyph d="M877 1434h74l-94 -671h-75l22 165q-48 -86 -130 -129t-169 -43q-62 0 -115 20t-93 60.5t-57 108t-4 154.5q12 85 47.5 152t86.5 107.5t110 61.5t121 21q87 0 156.5 -44t93.5 -129zM524 821q100 0 181.5 63t104.5 191l7 47q10 122 -54 187.5t-161 65.5q-103 0 -184 -72 t-101 -204q-18 -134 43 -206t164 -72z" glyph-name="ordfeminine.aalt" horiz-adv-x="988"/><glyph d="M1067 1434h125l-837 -1434h-117l259 447h-55l-267 987h125l238 -916z" glyph-name="afii10037.aalt" horiz-adv-x="1121"/><glyph d="M1228 1117h101l-157 -1117h-100l32 259q-58 -96 -143 -159t-171.5 -87.5t-181.5 -24.5q-83 0 -155.5 21t-134.5 64.5t-102.5 111t-57.5 160.5t2 214q20 142 80 254t144.5 179.5t182.5 102t202 34.5q147 0 261.5 -66t157.5 -202zM633 76q82 0 157.5 25t143.5 76t118 138.5 t70 203.5l11 79q10 110 -15.5 196.5t-78.5 139t-122 80t-149 27.5q-85 0 -166 -30.5t-149 -89.5t-116 -152t-65 -210q-16 -120 6 -214.5t74 -152t124 -87t157 -29.5z" glyph-name="afii10065.aalt" horiz-adv-x="1449"/><glyph d="M1139 559q-19 -142 -72.5 -252t-130.5 -179.5t-171.5 -104.5t-203.5 -35q-108 0 -192.5 35t-142 104.5t-79.5 179.5t-2 252q39 276 197 423t381 147t339 -147t77 -423zM573 69q173 0 293 125t154 365q33 237 -52 364t-257 127q-171 0 -292 -127t-154 -364 q-34 -240 50.5 -365t257.5 -125z" glyph-name="zero.oldstyle" horiz-adv-x="1284"/><glyph d="M603 90h345l-11 -90h-809l12 90h345l130 927q-154 -76 -308 -117l14 101q153 37 309 116h118z" glyph-name="one.oldstyle" horiz-adv-x="1221"/><glyph d="M1065 90l-12 -90h-932l12 90q67 45 178.5 117t194 124.5t180 122t162 126t112 119.5t54.5 116q15 103 -60.5 165.5t-229.5 62.5q-204 0 -370 -103l-38 71q193 118 426 117q203 0 307 -79t85 -218q-9 -63 -56.5 -133t-107.5 -128t-158.5 -131.5t-171 -121t-186 -120 t-164.5 -107.5h775z" glyph-name="two.oldstyle" horiz-adv-x="1330"/><glyph d="M310 1117h952l-14 -97l-641 -532q89 14 178 11q199 -9 304.5 -117t78.5 -290q-30 -204 -180.5 -313t-406.5 -108q-306 2 -495 152l69 83q74 -66 194.5 -102.5t244.5 -34.5q202 1 318.5 85t139.5 240q23 152 -76 241t-280 89q-143 0 -255 -47l-31 81l695 562h-807z" glyph-name="three.oldstyle" horiz-adv-x="1334"/><glyph d="M1309 169l-14 -97h-277l-54 -388h-118l54 388h-717l13 97l833 948h135l-133 -948h278zM314 169h599l116 819z" glyph-name="four.oldstyle" horiz-adv-x="1500"/><glyph d="M388 1117h836l-14 -97h-730l-111 -513q196 43 406 36q204 -9 314.5 -121t81.5 -306q-32 -220 -182 -333t-408 -112q-306 2 -495 152l69 83q74 -66 194 -102t245 -35q412 2 461 348q23 159 -84 251t-291 92q-190 0 -399 -44l-32 35z" glyph-name="five.oldstyle" horiz-adv-x="1334"/><glyph d="M1257 481q-13 -98 -57 -180.5t-106.5 -139.5t-141.5 -96t-160.5 -57.5t-164.5 -18.5t-160 18.5t-144 57.5t-113.5 96t-67.5 139.5t-8 180.5q6 40 13 70t23 65.5t31 61t52.5 72t68.5 81t97 105t123 128.5t161 165.5t196 204.5h143l-503 -523q142 60 290 53 q75 -3 142.5 -22.5t126.5 -59t99 -95t56.5 -134.5t3.5 -172zM640 76q86 0 168 26t151.5 74.5t118 127.5t62.5 177q14 100 -12.5 179.5t-83.5 128t-131 73t-159 24.5q-115 0 -221 -45.5t-185 -140t-96 -219.5q-13 -98 13.5 -177t82.5 -127.5t131 -74.5t161 -26z" glyph-name="six.oldstyle" horiz-adv-x="1414"/><glyph d="M267 1117h935l-13 -97q-539 -581 -756 -1336h-123q223 771 748 1336h-803z" glyph-name="seven.oldstyle" horiz-adv-x="1224"/><glyph d="M1197 400q-14 -103 -73 -185t-144.5 -129.5t-182 -72t-196.5 -24.5q-79 0 -152 14.5t-138 47t-111 79.5t-67.5 116.5t-9.5 153.5q10 75 45.5 140t87.5 111.5t112.5 79.5t129.5 52q-100 38 -156.5 117.5t-40.5 194.5q15 113 91.5 194t183 118.5t230.5 37.5q92 0 170 -22 t136 -64.5t86 -110.5t16 -153q-16 -115 -94.5 -194.5t-189.5 -117.5q62 -20 113.5 -53t91 -79t56 -111t6.5 -140zM409 1091q-12 -86 31.5 -148.5t117 -90.5t161.5 -28q89 0 170 28t143 90.5t73 148.5q18 127 -71 195.5t-240 68.5t-259 -68.5t-126 -195.5zM614 78 q80 0 155.5 19.5t141.5 58t111 103t56 145.5q10 78 -16.5 142t-80.5 104.5t-125 62t-149 21.5q-106 0 -205 -36t-171.5 -113t-86.5 -181q-9 -66 6.5 -121t50.5 -92t85.5 -63.5t108 -38t119.5 -11.5z" glyph-name="eight.oldstyle" horiz-adv-x="1363"/><glyph d="M201 636q13 98 57 181t107 140t141.5 96.5t160.5 57.5t164.5 18t160 -18t144.5 -57.5t113.5 -96.5t67.5 -140t8 -181q-6 -40 -12.5 -69.5t-23 -65.5t-31.5 -61.5t-52.5 -71.5t-68.5 -81t-97.5 -105t-123.5 -128.5t-161 -166t-196 -203.5h-143l504 523q-140 -59 -291 -53 q-93 4 -175 35t-146 88.5t-93.5 150t-13.5 208.5zM819 1041q-86 0 -168 -26t-152 -74.5t-118.5 -127.5t-62.5 -177q-14 -100 12.5 -179t84 -127t132 -73.5t159.5 -25.5q84 0 166.5 27.5t153 77t119.5 128t62 172.5q13 98 -13.5 177t-82.5 127.5t-131 74.5t-161 26z" glyph-name="nine.oldstyle" horiz-adv-x="1414"/><glyph d="M1287 717q-50 -360 -220 -544.5t-422 -184.5t-369 184t-66 545q50 358 219.5 543.5t421.5 185.5t369.5 -185.5t66.5 -543.5zM659.5 83q200.5 0 332.5 162.5t175 471.5q43 308 -44 471t-286.5 163t-331.5 -162.5t-176 -471.5q-43 -309 43.5 -471.5t287 -162.5z" glyph-name="zero.tnum" horiz-adv-x="1452"/><glyph d="M720 97h356l-13 -97h-831l14 97h356l174 1230q-166 -79 -310 -117l15 108q153 37 309 116h117z" glyph-name="one.tnum" horiz-adv-x="1452"/><glyph d="M1191 97l-13 -97h-1059l12 97q75 56 208.5 152t231 165.5t215 163.5t194.5 167.5t133.5 154.5t66.5 147q18 136 -73.5 219t-279.5 83q-228 2 -425 -136l-42 80q228 153 485 153q245 0 364.5 -104.5t95.5 -278.5q-8 -59 -42.5 -125.5t-84 -126.5t-120 -128.5t-140 -125.5 t-157.5 -124t-159.5 -118t-158 -113.5t-140.5 -104.5h888z" glyph-name="two.tnum" horiz-adv-x="1452"/><glyph d="M370 1434h951l-13 -98l-641 -531q95 15 178 10q199 -9 303.5 -116.5t79.5 -289.5q-30 -204 -181 -313t-407 -108q-308 2 -495 151l69 83q74 -66 194.5 -102.5t244.5 -34.5q202 1 319 85t139 241q23 152 -76 240.5t-280 88.5q-142 0 -255 -47l-31 81l695 562h-808z" glyph-name="three.tnum" horiz-adv-x="1452"/><glyph d="M1284 485l-13 -97h-277l-55 -388h-118l56 388h-718l13 97l833 949h136l-133 -949h276zM291 485h599l115 820z" glyph-name="four.tnum" horiz-adv-x="1452"/><glyph d="M446 1434h836l-13 -98h-730l-112 -513q196 43 408 36q203 -9 313 -120.5t83 -306.5q-32 -220 -183 -332.5t-409 -111.5q-306 2 -495 151l69 83q74 -66 194.5 -102t244.5 -35q412 3 461 348q24 159 -83 251t-292 92q-190 0 -399 -44l-32 35z" glyph-name="five.tnum" horiz-adv-x="1452"/><glyph d="M1277 482q-13 -98 -57 -181t-107 -140t-141.5 -96t-160.5 -57.5t-165 -18.5t-160 18.5t-144.5 57.5t-114 96t-67.5 140t-7 181q6 40 12.5 69.5t23 65t31 61t52 72t69 81t97.5 105t122.5 128.5t160.5 165.5t197 204.5h144l-505 -523q140 59 292 54q93 -4 175 -35.5 t146 -89t93.5 -150t13.5 -208.5zM658 77q86 0 168 26t152.5 74.5t119 127.5t61.5 177q14 100 -12.5 179t-83 127.5t-131 73t-160.5 24.5q-84 0 -167 -27.5t-153.5 -77t-119 -127t-62.5 -172.5q-13 -98 13.5 -177t83 -127.5t131 -74.5t160.5 -26z" glyph-name="six.tnum" horiz-adv-x="1452"/><glyph d="M381 1434h935l-13 -98q-538 -581 -757 -1336h-122q223 771 747 1336h-803z" glyph-name="seven.tnum" horiz-adv-x="1452"/><glyph d="M1241 400q-14 -103 -73 -185t-144.5 -129.5t-182 -72t-196.5 -24.5q-79 0 -152 14.5t-138 47t-111 79.5t-67.5 116.5t-9.5 153.5q20 146 124.5 244t250.5 139q-100 38 -157 117.5t-41 194.5q15 113 92 194t183.5 118.5t230.5 37.5q92 0 170 -22t135.5 -64.5t86 -110.5 t15.5 -153q-15 -115 -94 -194.5t-189 -117.5q62 -20 113.5 -53t91 -79t56 -111t6.5 -140zM453 1091q-12 -86 31.5 -148.5t117 -90.5t161.5 -28q139 0 253 70t132.5 197t-71 195.5t-240.5 68.5t-259 -68.5t-125 -195.5zM657 78q80 0 155.5 19.5t141.5 58t111 103t57 145.5 q10 78 -16.5 142t-80.5 104.5t-125 62t-149 21.5q-106 0 -205 -36t-171.5 -113t-87.5 -181q-9 -66 6.5 -121t50.5 -92t85.5 -63.5t108 -38t119.5 -11.5z" glyph-name="eight.tnum" horiz-adv-x="1452"/><glyph d="M219 952q13 98 57.5 181.5t107 140t141 96t160.5 58t165 18.5t160 -18.5t144.5 -58t114 -96t67.5 -139.5t7 -182q-6 -40 -12.5 -69.5t-23 -65.5t-31 -61t-51.5 -71t-69 -81.5t-98 -105t-123 -128t-160.5 -166t-195.5 -203.5h-145l504 522q-140 -59 -291 -53 q-93 4 -175 35.5t-146 88.5t-93.5 149.5t-13.5 208.5zM838 1358q-86 0 -168 -26t-152.5 -75t-119 -127.5t-61.5 -177.5q-14 -100 12.5 -179t83.5 -127t131.5 -73t159.5 -25q84 0 167 27t153 76.5t119 128t63 172.5q13 98 -13.5 177t-83 128t-131 75t-160.5 26z" glyph-name="nine.tnum" horiz-adv-x="1452"/><glyph d="M809 1446q252 0 369.5 -185.5t66.5 -543.5q-50 -360 -220 -544.5t-422 -184.5q-251 0 -368.5 184t-67.5 545q51 358 220.5 543.5t421.5 185.5zM287 717q-34 -237 10 -388l788 852q-85 170 -290 170q-200 0 -332 -162.5t-176 -471.5zM1125 717q35 250 -16 405l-790 -855 q84 -184 298 -184q200 0 332.5 162.5t175.5 471.5z" glyph-name="zero.zero" horiz-adv-x="1368"/><glyph d="M788 430q-30 -216 -131.5 -326.5t-253.5 -110.5q-151 0 -221 110.5t-40 326.5q30 215 132 326t252 111q152 0 222 -111t40 -326zM413 63q116 0 191.5 94.5t101.5 272.5q25 178 -25 272.5t-165 94.5t-190 -94.5t-100.5 -272.5t23.5 -272.5t164 -94.5z" glyph-name="zero.dnom" horiz-adv-x="966"/><glyph d="M383 72h207l-9 -72h-499l9 72h208l99 711q-101 -50 -178 -70l11 78q82 20 179 69h84z" glyph-name="one.dnom" horiz-adv-x="818"/><glyph d="M727 72l-10 -72h-635l9 72q46 35 148.5 108t166.5 121.5t139 112t115.5 118.5t47.5 102q11 82 -41 128.5t-164 46.5q-133 2 -251 -79l-33 57q140 93 296 94q153 0 225 -64t57 -173q-6 -47 -39.5 -101t-75 -98.5t-109 -101t-117 -94t-127 -94.5t-112.5 -83h510z" glyph-name="two.dnom" horiz-adv-x="955"/><glyph d="M229 870h571l-9 -71l-384 -313q57 9 106 7q121 -5 186.5 -70.5t50.5 -173.5q-18 -127 -107 -193.5t-246 -65.5q-182 0 -303 97l52 59q46 -40 118.5 -63.5t143.5 -22.5q119 1 181.5 48t76.5 142q13 90 -43 137t-166 47q-86 0 -152 -27l-23 72l402 320h-465z" glyph-name="three.dnom" horiz-adv-x="953"/><glyph d="M790 297l-12 -71h-160l-31 -226h-80l32 226h-426l11 71l491 563h93l-79 -563h161zM213 297h336l65 470z" glyph-name="four.dnom" horiz-adv-x="985"/><glyph d="M276 860h500l-11 -72h-423l-64 -294q116 26 229 21q126 -5 190.5 -69t46.5 -186q-39 -269 -354 -267q-185 2 -297 91l48 62q44 -39 114.5 -61t143.5 -20q123 1 184.5 46.5t76.5 148.5q14 94 -44.5 143.5t-170.5 49.5q-98 0 -223 -27l-32 21z" glyph-name="five.dnom" horiz-adv-x="946"/><glyph d="M797 296q-10 -73 -47.5 -131.5t-91.5 -93t-115.5 -53t-124 -18.5t-118.5 18.5t-100 53t-65.5 93t-11.5 131.5q5 35 10.5 58t21.5 53t37.5 58.5t64.5 77t96 103t137 144.5q48 50 75 77h104l-302 -313q82 35 173 32q56 -2 105.5 -21t87.5 -53.5t56 -90t8 -125.5zM428 66 q103 0 186 60.5t99 169.5q15 111 -51 170.5t-169 59.5q-65 0 -125.5 -26t-105 -79.5t-54.5 -124.5q-14 -109 51.5 -169.5t168.5 -60.5z" glyph-name="six.dnom" horiz-adv-x="994"/><glyph d="M203 860h561l-10 -72q-327 -352 -453 -788h-87q125 430 434 788h-455z" glyph-name="seven.dnom" horiz-adv-x="880"/><glyph d="M759 241q-11 -83 -68.5 -141t-132 -82.5t-157.5 -24.5q-81 0 -148 24.5t-108 82.5t-29 141q12 88 75 146t149 83q-60 23 -93.5 70.5t-24.5 115.5q14 100 101 155.5t202 55.5q75 0 132.5 -22.5t89.5 -71.5t23 -117q-9 -69 -56.5 -116t-114.5 -70q80 -25 126.5 -83 t33.5 -146zM301 654q-10 -72 43 -112.5t130 -40.5q78 0 142 41t74 112q9 71 -40.5 109.5t-133.5 38.5t-145 -38.5t-70 -109.5zM411.5 59q96.5 0 172 47t89.5 137q12 87 -51 138t-157 51t-172 -51t-90 -138q-13 -90 49.5 -137t159 -47z" glyph-name="eight.dnom" horiz-adv-x="963"/><glyph d="M162 571q20 142 132 219t247 77q63 0 119 -18t100 -52.5t65.5 -93t11.5 -132.5q-7 -51 -18.5 -82t-53.5 -87t-103.5 -122t-191.5 -201q-49 -51 -76 -79h-103l302 313q-86 -36 -174 -30q-56 2 -105.5 20.5t-87.5 52.5t-55.5 89.5t-8.5 125.5zM531.5 802 q-103.5 0 -186.5 -61t-98 -170q-15 -111 51 -170t169 -59q101 0 185 62t100 167q14 110 -51.5 170.5t-169 60.5z" glyph-name="nine.dnom" horiz-adv-x="994"/><glyph d="M869 1007q-30 -216 -131.5 -327t-253.5 -111q-151 0 -221 111t-40 327q30 215 132 326t252 111q152 0 222 -111t40 -326zM494 640q116 0 191.5 94t100.5 273q25 178 -24.5 272t-164.5 94t-190 -94t-100.5 -272.5t23.5 -272.5t164 -94z" glyph-name="zero.numr" horiz-adv-x="966"/><glyph d="M464 645h207l-9 -72h-499l9 72h208l99 712q-101 -50 -178 -71l11 78q82 20 178 70h84z" glyph-name="one.numr" horiz-adv-x="818"/><glyph d="M806 633l-10 -72h-635l9 72q46 35 148.5 108t166.5 121.5t138.5 112t115.5 118.5t47 102q11 82 -40.5 128.5t-163.5 46.5q-133 2 -251 -79l-33 58q140 93 296 93q153 0 225 -64t57 -173q-6 -47 -39.5 -100.5t-75 -98t-109 -101.5t-117.5 -94.5t-127 -94.5t-112 -83h510z " glyph-name="two.numr" horiz-adv-x="955"/><glyph d="M309 1434h571l-10 -72l-384 -312q51 9 108 6q120 -5 185.5 -70t49.5 -174q-38 -260 -352 -259q-184 2 -303 97l53 60q45 -40 117.5 -63.5t142.5 -21.5q119 1 182 47t77 141q12 90 -43.5 137t-164.5 47q-87 0 -153 -27l-24 72l403 320h-465z" glyph-name="three.numr" horiz-adv-x="953"/><glyph d="M870 870l-11 -70h-160l-31 -227h-80l32 227h-426l11 70l491 564h92l-78 -564h160zM294 870h336l65 470z" glyph-name="four.numr" horiz-adv-x="985"/><glyph d="M357 1434h500l-11 -72h-423l-65 -295q116 26 230 22q126 -5 190.5 -69.5t46.5 -185.5q-39 -269 -354 -268q-185 2 -297 91l48 63q44 -39 114.5 -61t143.5 -21q123 1 184.5 46.5t76.5 149.5q14 94 -44.5 143t-170.5 49q-98 0 -223 -27l-32 22z" glyph-name="five.numr" horiz-adv-x="946"/><glyph d="M877 862q-10 -73 -47.5 -131t-91.5 -93t-115.5 -53.5t-124 -18.5t-118.5 18.5t-100 53.5t-65.5 93.5t-11.5 130.5q5 35 10.5 58t21.5 53.5t37.5 58.5t64.5 76.5t95.5 103.5t137.5 144q48 50 75 78h104l-303 -314q82 35 174 32q56 -2 105.5 -21t87.5 -53.5t56 -90 t8 -125.5zM507.5 632q103.5 0 186.5 61t99 169q15 111 -51 171t-170 60q-65 0 -125 -26.5t-104.5 -80t-54.5 -124.5q-14 -109 51 -169.5t168.5 -60.5z" glyph-name="six.numr" horiz-adv-x="994"/><glyph d="M284 1434h561l-10 -72q-327 -352 -453 -789h-87q125 430 434 789h-456z" glyph-name="seven.numr" horiz-adv-x="880"/><glyph d="M839 809q-11 -83 -68.5 -141t-132 -82.5t-157.5 -24.5q-81 0 -148 24.5t-108 82.5t-29 141q12 88 75 146.5t149 82.5q-60 23 -93.5 70.5t-24.5 116.5q14 100 100.5 155.5t202.5 55.5q75 0 132.5 -22.5t89.5 -72t23 -116.5q-9 -69 -57 -116.5t-114 -70.5q80 -25 126.5 -83 t33.5 -146zM381 1223q-10 -72 43 -113t130 -41q78 0 142 41t74 113q9 71 -40.5 109t-133.5 38t-145 -38t-70 -109zM491.5 628q96.5 0 172 46.5t89.5 136.5q12 87 -51 138t-157 51t-172 -51t-90 -138q-13 -90 49.5 -136.5t159 -46.5z" glyph-name="eight.numr" horiz-adv-x="963"/><glyph d="M242 1140q20 142 131.5 219t247.5 77q63 0 119 -18t100 -53t65.5 -93.5t10.5 -131.5q-7 -51 -18 -82.5t-53 -87.5t-103.5 -122t-191.5 -201q-49 -51 -76 -79h-103l302 314q-86 -36 -174 -31q-56 2 -105.5 20.5t-87.5 52.5t-55.5 90t-8.5 126zM611.5 1370 q-103.5 0 -186.5 -61t-98 -169q-15 -111 50.5 -170.5t169.5 -59.5q101 0 185 62t99 168q14 110 -51 170t-168.5 60z" glyph-name="nine.numr" horiz-adv-x="994"/><glyph d="M254 898h382l-50 -362h-382z" glyph-name="bullet.aalt" horiz-adv-x="795"/><glyph d="M296 -349q-146 505 -72.5 1027.5t360.5 1020.5h110q-560 -996 -287 -2048h-111z" glyph-name="parenleft.aalt" horiz-adv-x="740"/><glyph d="M189 -349h-109q567 1053 288 2048h109q147 -496 74 -1020.5t-362 -1027.5z" glyph-name="parenright.aalt" horiz-adv-x="740"/><glyph d="M473 -302q-50 0 -85.5 14.5t-62.5 50.5t-32.5 98.5t4.5 157.5l62 438q6 28 0.5 61.5t-17.5 62t-44 49t-78 21.5l11 89q88 3 137 63.5t58 131.5l62 437q25 179 93 251t173 72h107l-13 -90h-76q-71 0 -110 -56t-52 -143l-66 -474q-6 -42 -20.5 -81t-39 -73.5t-62 -56 t-83.5 -23.5l-1 -4q59 -3 94.5 -40t44 -86.5t0.5 -107.5l-66 -474q-12 -87 11.5 -143t94.5 -56h76l-12 -89h-108z" glyph-name="braceleft.aalt" horiz-adv-x="907"/><glyph d="M194 -302h-108l12 89h76q71 0 110.5 56t51.5 143l66 474q13 92 65 161t140 73l1 4q-45 2 -76.5 24t-45.5 55t-19 74t2 81l67 474q12 87 -12 143t-95 56h-76l14 90h107q40 0 69.5 -9.5t56 -31t39 -58t18 -92t-7.5 -132.5l-62 -437q-6 -28 -0.5 -61.5t17.5 -62.5t44 -49.5 t78 -21.5l-11 -89q-88 -3 -137 -63.5t-58 -130.5l-62 -438q-25 -178 -92.5 -249.5t-171.5 -71.5z" glyph-name="braceright.aalt" horiz-adv-x="907"/><glyph d="M365 1681h472l-12 -89h-355l-247 -1751h356l-13 -89h-473z" glyph-name="bracketleft.aalt" horiz-adv-x="885"/><glyph d="M837 1681l-271 -1929h-473l12 89h356l247 1751h-356l13 89h472z" glyph-name="bracketright.aalt" horiz-adv-x="885"/><glyph d="M236 765h447l-14 -96h-447z" glyph-name="hyphen.aalt" horiz-adv-x="860"/><glyph d="M236 765h941l-15 -96h-940z" glyph-name="endash.aalt" horiz-adv-x="1353"/><glyph d="M236 765h1601l-14 -96h-1601z" glyph-name="emdash.aalt" horiz-adv-x="2014"/><glyph d="M750 1096l-393 -384l284 -384h-129l-284 384l393 384h129zM1164 1096l-392 -384l284 -384h-129l-284 384l392 384h129z" glyph-name="guillemotleft.aalt" horiz-adv-x="1295"/><glyph d="M283 1096h129l283 -384l-391 -384h-129l391 384zM697 1096h129l285 -384l-392 -384h-129l392 384z" glyph-name="guillemotright.aalt" horiz-adv-x="1296"/><glyph d="M750 1096l-393 -384l284 -384h-129l-284 384l393 384h129z" glyph-name="guilsinglleft.aalt" horiz-adv-x="880"/><glyph d="M283 1096h129l283 -384l-392 -384h-129l392 384z" glyph-name="guilsinglright.aalt" horiz-adv-x="880"/><glyph d="M1400 618q-51 -187 -200 -347l219 -271h-138l-166 205q-261 -209 -563 -209q-127 0 -226 40t-154 122.5t-41 193.5q19 166 124 271t335 172q-94 98 -130.5 181t-23.5 179q22 134 138 213.5t280 79.5q51 0 99 -9t95 -32t79.5 -56t49 -86t7.5 -118q-10 -68 -44 -123.5 t-93 -100.5t-130.5 -81.5t-168.5 -72.5l389 -431q125 137 167 299zM847 1365q-117 0 -198.5 -58t-98.5 -153q-13 -76 19 -141t127 -185q110 41 185 82.5t129.5 101.5t63.5 130q7 51 -4.5 91.5t-35 64.5t-57.5 40t-65.5 21.5t-64.5 5.5zM571 83q141 0 271.5 53.5t215.5 133.5 l-418 463q-200 -60 -287 -147t-107 -227q-9 -67 13.5 -120.5t69 -86.5t108 -51t134.5 -18z" glyph-name="ampersand.aalt" horiz-adv-x="1657"/><glyph d="M-544 1697h143l-18 -125h-143zM-188 1697h143l-18 -125h-143z" glyph-name="uni0308.aalt"/><glyph d="M-188 1697h142l-17 -125h-144z" glyph-name="uni0307.aalt"/></font>
</defs>
</svg>
